<?xml version="1.0" encoding="utf-8"?>
<!-- Generator: Adobe Illustrator 25.4.1, SVG Export Plug-In . SVG Version: 6.00 Build 0)  -->
<svg version="1.0" xmlns="http://www.w3.org/2000/svg" xmlns:xlink="http://www.w3.org/1999/xlink" x="0px" y="0px"
	 viewBox="0 0 1366 768" style="enable-background:new 0 0 1366 768;" xml:space="preserve">
<style type="text/css">
	.st0{fill:none;stroke:#41393A;stroke-width:0.8;stroke-linejoin:round;}
	.st1{fill:none;stroke:#CCCCCC;stroke-width:0.6928;stroke-linejoin:round;}
	.st2{fill:none;stroke:#41393A;stroke-width:0.6928;stroke-linejoin:round;}
	.st3{fill:#E6E6E6;}
	.st4{fill:none;stroke:#000000;stroke-width:0.7408;stroke-linejoin:round;}
	.st5{fill:#605755;}
	.st6{fill:none;stroke:#070606;stroke-width:2.4;stroke-linecap:round;stroke-linejoin:round;}
	.st7{fill:#070606;}
	.st8{fill:none;stroke:#070606;stroke-width:0.8;stroke-linecap:round;stroke-linejoin:round;}
	.st9{fill:#006D75;}
	.st10{fill:#CDCAC5;fill-opacity:0.37;}
	.st11{fill:#CDCAC5;}
	.st12{fill:#B2ACA5;}
	.st13{fill:#EFEEEC;}
	.st14{fill:none;stroke:#41393A;stroke-width:0.656;stroke-linejoin:round;}
	.st15{fill:none;stroke:#070606;stroke-width:1.312;stroke-linejoin:round;}
	.st16{fill:#6600CC;}
	.st17{fill:none;stroke:#000000;stroke-miterlimit:10;}
	.st18{fill:#5B8C08;}
	.st19{fill:none;stroke:#41393A;stroke-width:0.6659;stroke-linejoin:round;}
	.st20{fill:none;stroke:#070606;stroke-width:1.3317;stroke-linejoin:round;}
</style>
<g id="Layer_1">
	<g>
		<rect x="837.2" y="1078.6" class="st0" width="0" height="1.7"/>
		<line class="st0" x1="837.2" y1="1080.2" x2="837.2" y2="1080.2"/>
		<line class="st0" x1="837.2" y1="1080" x2="837.2" y2="1080"/>
		<line class="st0" x1="837.2" y1="1079.9" x2="837.2" y2="1079.9"/>
		<line class="st0" x1="837.2" y1="1079.7" x2="837.2" y2="1079.7"/>
		<line class="st0" x1="837.2" y1="1079.6" x2="837.2" y2="1079.6"/>
		<line class="st0" x1="837.2" y1="1079.4" x2="837.2" y2="1079.4"/>
		<line class="st0" x1="837.2" y1="1079.3" x2="837.2" y2="1079.3"/>
		<line class="st0" x1="837.2" y1="1079.1" x2="837.2" y2="1079.1"/>
		<line class="st0" x1="837.2" y1="1079" x2="837.2" y2="1079"/>
		<line class="st0" x1="837.2" y1="1078.8" x2="837.2" y2="1078.8"/>
		<line class="st0" x1="837.2" y1="1078.6" x2="837.2" y2="1080.3"/>
		<line class="st0" x1="837.2" y1="1078.6" x2="837.2" y2="1080.3"/>
		<line class="st0" x1="837.2" y1="1078.6" x2="837.2" y2="1080.3"/>
		<line class="st0" x1="837.2" y1="1078.6" x2="837.2" y2="1080.3"/>
		<line class="st0" x1="837.2" y1="1078.6" x2="837.2" y2="1080.3"/>
		<line class="st0" x1="837.2" y1="1078.6" x2="837.2" y2="1080.3"/>
		<line class="st0" x1="837.2" y1="1078.6" x2="837.2" y2="1080.3"/>
		<line class="st0" x1="837.2" y1="1078.6" x2="837.2" y2="1080.3"/>
		<line class="st0" x1="837.2" y1="1078.6" x2="837.2" y2="1080.3"/>
		<line class="st0" x1="837.2" y1="1078.6" x2="837.2" y2="1080.3"/>
		<line class="st0" x1="837.2" y1="1078.6" x2="837.2" y2="1080.3"/>
		<line class="st0" x1="837.2" y1="1078.6" x2="837.2" y2="1080.3"/>
		<line class="st0" x1="837.2" y1="1078.6" x2="837.2" y2="1080.3"/>
		<line class="st0" x1="837.2" y1="1078.6" x2="837.2" y2="1080.3"/>
		<line class="st0" x1="837.2" y1="1078.6" x2="837.2" y2="1080.3"/>
	</g>
	<g>
		<g>
			<line class="st1" x1="1181.8" y1="328.9" x2="770.4" y2="91.4"/>
			<line class="st1" x1="1139.9" y1="353.1" x2="728.6" y2="115.6"/>
			<line class="st1" x1="1098.1" y1="377.2" x2="686.7" y2="139.7"/>
			<line class="st1" x1="1056.2" y1="401.4" x2="644.9" y2="163.9"/>
			<line class="st1" x1="1014.4" y1="425.6" x2="603" y2="188.1"/>
			<line class="st1" x1="972.5" y1="449.7" x2="561.1" y2="212.2"/>
			<line class="st1" x1="930.7" y1="473.9" x2="519.3" y2="236.4"/>
			<line class="st1" x1="888.8" y1="498.1" x2="477.4" y2="260.6"/>
			<line class="st1" x1="846.9" y1="522.2" x2="435.6" y2="284.7"/>
			<line class="st1" x1="805.1" y1="546.4" x2="393.7" y2="308.9"/>
			<line class="st1" x1="763.2" y1="570.6" x2="351.9" y2="333.1"/>
			<line class="st1" x1="721.4" y1="594.7" x2="310" y2="357.2"/>
			<line class="st1" x1="679.5" y1="618.9" x2="268.1" y2="381.4"/>
			<line class="st1" x1="637.6" y1="643.1" x2="226.3" y2="405.6"/>
			<line class="st1" x1="595.8" y1="667.2" x2="184.4" y2="429.7"/>
			<line class="st1" x1="430.9" y1="596.2" x2="1058.7" y2="233.7"/>
			<line class="st1" x1="184.1" y1="453.7" x2="811.9" y2="91.2"/>
			<line class="st1" x1="225.2" y1="477.5" x2="853.1" y2="115"/>
			<line class="st1" x1="266.3" y1="501.2" x2="894.2" y2="138.7"/>
			<line class="st1" x1="307.5" y1="525" x2="935.3" y2="162.5"/>
			<line class="st1" x1="348.6" y1="548.7" x2="976.5" y2="186.2"/>
			<line class="st1" x1="389.7" y1="572.5" x2="1017.6" y2="210"/>
			<line class="st1" x1="472" y1="620" x2="1099.9" y2="257.5"/>
			<line class="st1" x1="513.2" y1="643.7" x2="1141" y2="281.2"/>
			<line class="st1" x1="554.3" y1="667.5" x2="1182.2" y2="305"/>
			<polygon class="st2" points="574.9,679.3 163.5,441.8 791.4,79.3 1202.7,316.8 			"/>
			<line class="st2" x1="1160.9" y1="341" x2="749.5" y2="103.5"/>
			<line class="st2" x1="1119" y1="365.2" x2="707.6" y2="127.7"/>
			<line class="st2" x1="1077.2" y1="389.3" x2="665.8" y2="151.8"/>
			<line class="st2" x1="1035.3" y1="413.5" x2="623.9" y2="176"/>
			<line class="st2" x1="993.4" y1="437.7" x2="582.1" y2="200.2"/>
			<line class="st2" x1="951.6" y1="461.8" x2="540.2" y2="224.3"/>
			<line class="st2" x1="909.7" y1="486" x2="498.4" y2="248.5"/>
			<line class="st2" x1="867.9" y1="510.2" x2="456.5" y2="272.7"/>
			<line class="st2" x1="826" y1="534.3" x2="414.6" y2="296.8"/>
			<line class="st2" x1="784.1" y1="558.5" x2="372.8" y2="321"/>
			<line class="st2" x1="742.3" y1="582.7" x2="330.9" y2="345.2"/>
			<line class="st2" x1="700.4" y1="606.8" x2="289.1" y2="369.3"/>
			<line class="st2" x1="658.6" y1="631" x2="247.2" y2="393.5"/>
			<line class="st2" x1="616.7" y1="655.2" x2="205.4" y2="417.7"/>
			<line class="st2" x1="204.6" y1="465.6" x2="832.5" y2="103.1"/>
			<line class="st2" x1="245.8" y1="489.3" x2="873.6" y2="126.8"/>
			<line class="st2" x1="286.9" y1="513.1" x2="914.8" y2="150.6"/>
			<line class="st2" x1="328" y1="536.8" x2="955.9" y2="174.3"/>
			<line class="st2" x1="369.2" y1="560.6" x2="997" y2="198.1"/>
			<line class="st2" x1="410.3" y1="584.3" x2="1038.2" y2="221.8"/>
			<line class="st2" x1="451.5" y1="608.1" x2="1079.3" y2="245.6"/>
			<line class="st2" x1="492.6" y1="631.8" x2="1120.5" y2="269.3"/>
			<line class="st2" x1="533.7" y1="655.6" x2="1161.6" y2="293.1"/>
		</g>
		<g id="XMLID_1_">
			<g>
				<polygon class="st3" points="575.1,678.7 575.1,688.6 163.4,451.5 163.3,451.7 163.3,441.7 				"/>
			</g>
			<g>
				<polygon class="st4" points="575.1,688.6 575.1,688.7 575.1,688.7 				"/>
				<polygon class="st4" points="575.1,688.6 163.4,451.5 163.3,451.7 163.3,441.7 575.1,678.7 				"/>
			</g>
		</g>
		<g id="XMLID_2_">
			<g>
				<polygon class="st3" points="1202.7,316.8 1202.7,326.8 575.1,688.7 575.1,688.7 575.1,678.7 				"/>
			</g>
			<g>
				<polyline class="st4" points="575.1,688.7 575.1,688.7 575.1,678.7 1202.7,316.8 1202.7,326.8 575.1,688.7 				"/>
			</g>
		</g>
	</g>
</g>
<g id="Layer_2">
	<g>
		<path class="st5" d="M403.1,501.6c0,8.1-4.9,11.8-11,8.3c-6.1-3.5-11-12.9-11-21c0-8.1,4.9-11.8,11-8.3
			C398.2,484.1,403.1,493.5,403.1,501.6z"/>
		<path class="st5" d="M382.3,542.1l19.6,11.3v-13.2l2.5,1.4v13.2l7.4,4.3v-18.9c0-7.6-6.1-17.7-11-20.6l-17.2-9.9
			c-4.9-2.8-11,0.2-11,7.8v18.9l7.4,4.3v-13.2l2.5,1.4V542.1z"/>
	</g>
	<g>
		<line class="st6" x1="456.3" y1="508.6" x2="431.8" y2="522.8"/>
		<polygon class="st7" points="456.5,513.2 452.4,510.9 448.4,508.6 456.1,506.5 463.7,504.4 460.1,508.8 		"/>
		<polygon class="st8" points="456.5,513.2 452.4,510.9 448.4,508.6 456.1,506.5 463.7,504.4 460.1,508.8 		"/>
		<path class="st7" d="M435.1,524.5c-0.7,0.4-1.7,0.6-2.8,0.6c-1.1,0-2.1-0.3-2.9-0.8c-0.9-0.5-1.3-1.1-1.4-1.7
			c-0.1-0.6,0.2-1.2,1-1.6c0.7-0.4,1.7-0.6,2.8-0.6c1.1,0,2.1,0.3,3,0.8c0.8,0.5,1.3,1.1,1.4,1.7C436.2,523.5,435.8,524,435.1,524.5
			z"/>
	</g>
	<g>
		<path class="st9" d="M663.5,573.4l4-1.7c0.5,0.2,1,0.3,1.4,0.3c0.5,0,1.1-0.2,1.7-0.6c0.8-0.5,1.3-0.9,1.4-1.3
			c0.1-0.3,0-0.5-0.3-0.9c-0.2-0.2-0.7-0.6-1.5-1l-1.9-1.1c0.5,1.4,0.1,2.4-1.3,3.2c-1.5,0.9-3.5,1.2-5.9,0.8
			c-1.9-0.3-3.7-0.9-5.5-2c-2.2-1.3-3.5-2.5-3.7-3.7c-0.2-1.2,0.3-2.2,1.7-3c1.4-0.8,3.3-1.1,5.7-0.8l-1.9-1.1l2.8-1.6l11.9,6.9
			c1.6,0.9,2.6,1.6,3.2,2.2c0.6,0.6,0.8,1.1,0.9,1.6c0,0.5-0.2,1-0.6,1.5c-0.4,0.5-1.2,1.1-2.2,1.7c-1.9,1.1-3.7,1.7-5.3,1.7
			c-1.6,0-3-0.3-4.2-1C663.8,573.6,663.7,573.5,663.5,573.4z M658.4,567.4c1.4,0.8,2.7,1.3,3.8,1.4c1.1,0.1,2,0,2.7-0.4
			c0.7-0.4,1-1,0.9-1.7c-0.2-0.7-0.9-1.4-2.2-2.2c-1.4-0.8-2.6-1.2-3.8-1.3c-1.2-0.1-2.1,0.1-2.9,0.5c-0.7,0.4-1,1-0.8,1.6
			C656.3,565.9,657.1,566.6,658.4,567.4z"/>
		<path class="st9" d="M676.5,564.9l-18.3-10.6l3-1.8l18.3,10.6L676.5,564.9z"/>
		<path class="st9" d="M675.1,557.8c-1.2-0.7-2-1.5-2.6-2.4s-0.7-1.8-0.4-2.7c0.3-0.9,1.1-1.6,2.2-2.3c1.7-1,3.8-1.5,6.2-1.3
			s4.6,0.7,6.6,1.9c2,1.2,3.1,2.4,3.3,3.9c0.2,1.4-0.6,2.6-2.3,3.6c-1.1,0.6-2.3,1-3.8,1.3c-1.5,0.2-3,0.2-4.6-0.1
			C678.2,559.3,676.6,558.7,675.1,557.8z M678.4,556.2c1.3,0.8,2.6,1.2,3.8,1.3c1.2,0.1,2.3-0.1,3.1-0.6c0.8-0.5,1.1-1,0.9-1.8
			c-0.2-0.7-0.9-1.5-2.2-2.2c-1.3-0.8-2.6-1.2-3.8-1.3c-1.2-0.1-2.3,0.1-3,0.5c-0.8,0.5-1.1,1-1,1.8
			C676.3,554.7,677.1,555.4,678.4,556.2z"/>
		<path class="st9" d="M698.3,552.3l-16.9-5.6l3-1.7l10.9,3.8l-6.7-6.2l2.9-1.7l10.6,3.9l-6.5-6.3l3-1.7l9.6,9.8l-2.9,1.7l-10.5-3.8
			l6.6,6.1L698.3,552.3z"/>
		<path class="st9" d="M713.3,543.7L695,533.1l3-1.8l6.6,3.8c-0.3-1.3,0.2-2.3,1.5-3c1.4-0.8,3.1-1.1,5.2-1c2.1,0.1,4.2,0.9,6.4,2.1
			c2.3,1.3,3.5,2.6,3.8,3.8c0.3,1.2-0.2,2.3-1.6,3c-0.7,0.4-1.5,0.6-2.5,0.8s-2.1,0.1-3.3,0l2,1.1L713.3,543.7z M709.4,537.9
			c1.4,0.8,2.6,1.3,3.6,1.4c1.5,0.2,2.6,0.1,3.5-0.4c0.7-0.4,0.9-0.9,0.7-1.6c-0.2-0.7-1-1.4-2.4-2.2c-1.5-0.9-2.8-1.4-4-1.5
			c-1.1-0.1-2.1,0-2.8,0.5c-0.7,0.4-1,1-0.8,1.6C707.3,536.5,708,537.2,709.4,537.9z"/>
		<path class="st9" d="M734.5,531.4l-2-1.1c0.3,0.7,0.3,1.3,0,1.9c-0.3,0.6-0.8,1.2-1.5,1.6c-0.8,0.4-1.7,0.7-2.7,0.9
			c-1,0.1-2,0.1-3-0.2c-1-0.2-2.1-0.7-3.3-1.5l-8.4-4.9l3-1.8l6.1,3.5c1.9,1.1,3.1,1.7,3.6,1.9c0.5,0.2,1.1,0.3,1.6,0.2
			c0.5,0,1-0.2,1.5-0.4c0.5-0.3,0.8-0.7,0.9-1.1c0.1-0.4,0-0.8-0.4-1.2c-0.3-0.4-1.5-1.1-3.4-2.2l-5.6-3.2l3-1.8l13.3,7.7
			L734.5,531.4z"/>
		<path class="st9" d="M739.3,528.7l-2.7-1.6l-1.4-5.8c-0.2-0.9-0.4-1.6-0.4-2.1c-0.3,0.2-0.8,0.5-1.3,0.8l-4,2.4l-2.9-1.7l9.5-5.5
			l2.5,1.4l1.5,5.9l0.4,2c0.8-0.5,1.3-0.8,1.5-1l4.7-2.7l3.1,1.8L739.3,528.7z"/>
		<path class="st9" d="M750.4,522.3l-2.7-1.6l-1.4-5.8c-0.2-0.9-0.4-1.6-0.4-2.1c-0.3,0.2-0.8,0.5-1.3,0.8l-4,2.4l-2.9-1.7l9.5-5.5
			l2.5,1.4l1.5,5.9l0.4,2c0.8-0.5,1.3-0.8,1.5-1l4.7-2.7l3.1,1.8L750.4,522.3z"/>
		<path class="st9" d="M765.1,508.9l3.6-1.4c0.9,1,1.3,1.9,1.1,2.8c-0.2,0.9-0.9,1.7-2.1,2.4c-2,1.2-4.2,1.6-6.7,1.3
			c-2-0.3-3.9-0.9-5.7-2c-2.2-1.3-3.4-2.6-3.7-3.8c-0.2-1.3,0.4-2.4,1.9-3.3c1.7-1,3.7-1.4,6-1.2c2.3,0.2,4.8,1.1,7.4,2.6l-7.6,4.4
			c1.1,0.6,2.1,0.9,3.2,1c1,0.1,1.9-0.1,2.6-0.5c0.5-0.3,0.7-0.6,0.8-1C765.8,509.8,765.6,509.4,765.1,508.9z M761.7,506.7
			c-1-0.6-2-0.9-3-0.9c-1-0.1-1.8,0.1-2.4,0.5c-0.7,0.4-0.9,0.9-0.8,1.4s0.7,1.1,1.6,1.7L761.7,506.7z"/>
		<path class="st9" d="M777.9,506.4l-3,1.8l-13.3-7.7l2.8-1.6l1.9,1.1c-0.4-0.8-0.6-1.4-0.5-1.8c0.1-0.4,0.4-0.7,0.9-1
			c0.7-0.4,1.6-0.7,2.7-0.8l2.1,2.3c-0.9,0.1-1.6,0.2-2,0.5c-0.4,0.2-0.6,0.5-0.7,0.9s0.2,0.7,0.8,1.3s1.9,1.4,4.2,2.7L777.9,506.4z
			"/>
		<path class="st9" d="M781.8,488.8l2.8,1.6l-2.1,1.2l5.4,3.1c1.1,0.6,1.7,1,2,1.1c0.2,0.1,0.5,0.1,0.7,0.1c0.3,0,0.5-0.1,0.7-0.2
			c0.3-0.2,0.6-0.5,0.9-0.9l3,1.4c-0.4,0.6-1,1.2-1.9,1.7c-0.5,0.3-1.1,0.5-1.8,0.7c-0.7,0.1-1.3,0.2-1.8,0.1s-1.1-0.3-1.8-0.5
			c-0.5-0.2-1.3-0.7-2.6-1.4l-5.8-3.3l-1.4,0.8l-2.8-1.6l1.4-0.8l-2.6-1.5l1-2.9l4.7,2.7L781.8,488.8z"/>
		<path class="st9" d="M789.6,491.7c-1.2-0.7-2-1.5-2.6-2.4c-0.6-0.9-0.7-1.8-0.4-2.7c0.3-0.9,1.1-1.6,2.2-2.3
			c1.7-1,3.8-1.5,6.2-1.3c2.4,0.1,4.6,0.7,6.6,1.9c2,1.2,3.1,2.4,3.3,3.9c0.2,1.4-0.6,2.6-2.3,3.6c-1.1,0.6-2.3,1-3.8,1.3
			s-3,0.2-4.6-0.1C792.7,493.2,791.2,492.6,789.6,491.7z M792.9,490c1.3,0.8,2.6,1.2,3.8,1.3c1.2,0.1,2.3-0.1,3.1-0.6
			c0.8-0.5,1.1-1,0.9-1.8c-0.2-0.7-0.9-1.5-2.2-2.2c-1.3-0.8-2.6-1.2-3.8-1.3c-1.2-0.1-2.3,0.1-3,0.5s-1.1,1-1,1.8
			C790.9,488.5,791.6,489.3,792.9,490z"/>
		<path class="st9" d="M803.2,483.9c-1.2-0.7-2-1.5-2.6-2.4s-0.7-1.8-0.4-2.7c0.3-0.9,1.1-1.6,2.2-2.3c1.7-1,3.8-1.5,6.2-1.3
			c2.4,0.1,4.6,0.7,6.6,1.9c2,1.2,3.1,2.4,3.3,3.9s-0.6,2.6-2.3,3.6c-1.1,0.6-2.3,1-3.8,1.3c-1.5,0.2-3,0.2-4.6-0.1
			C806.2,485.4,804.7,484.8,803.2,483.9z M806.5,482.2c1.3,0.8,2.6,1.2,3.8,1.3c1.2,0.1,2.3-0.1,3.1-0.5s1.1-1,0.9-1.8
			c-0.2-0.7-0.9-1.5-2.2-2.2c-1.3-0.8-2.6-1.2-3.8-1.3c-1.2-0.1-2.3,0.1-3,0.5c-0.8,0.5-1.1,1-1,1.8
			C804.4,480.7,805.2,481.4,806.5,482.2z"/>
		<path class="st9" d="M824.2,479.6L805.9,469l3-1.8l18.3,10.6L824.2,479.6z"/>
		<path class="st9" d="M830.3,476.1L812,465.5l3-1.8l9.7,5.6l-1.1-4.8l3.7-2.2l0.9,5.1l12.6,2.4l-3.3,1.9l-8.9-1.8l0.3,1.8l4.2,2.5
			L830.3,476.1z"/>
		<path class="st9" d="M827.7,460.2l-3.2-1.9l3-1.8l3.2,1.9L827.7,460.2z M842.7,468.9l-13.3-7.7l3-1.8l13.3,7.7L842.7,468.9z"/>
		<path class="st9" d="M840.9,454.7l2.8,1.6l-2.1,1.2l5.4,3.1c1.1,0.6,1.7,1,2,1.1c0.2,0.1,0.5,0.1,0.7,0.1c0.3,0,0.5-0.1,0.7-0.2
			c0.3-0.2,0.6-0.5,0.9-0.9l3,1.4c-0.4,0.6-1,1.2-1.9,1.7c-0.5,0.3-1.1,0.5-1.8,0.7c-0.7,0.1-1.3,0.2-1.8,0.1
			c-0.5-0.1-1.1-0.3-1.8-0.5c-0.5-0.2-1.3-0.7-2.6-1.4l-5.8-3.3l-1.4,0.8l-2.8-1.6l1.4-0.8l-2.6-1.5l1-2.9l4.7,2.7L840.9,454.7z"/>
	</g>
	<polygon class="st10" points="911.5,389.4 1078.4,293.4 832,151 665.6,247.7 	"/>
	<g>
		<g>
			<g>
				<polygon class="st11" points="870.4,259.1 870.4,294 952.2,341 952.2,306.1 942.1,288.7 880.5,253.3 				"/>
				<polygon class="st12" points="962.4,288.7 982.5,277 992.5,282.8 992.5,317.7 952.3,341 952.3,306.1 				"/>
				<polygon class="st13" points="880.5,253.3 942.1,288.7 962.3,288.7 982.4,277 982.4,265.4 920.8,230.1 900.6,230.1 880.5,241.7 
									"/>
				<polygon class="st13" points="942.7,288.7 962.8,288.7 952.8,306.1 				"/>
				<polygon class="st11" points="880.7,241.3 880.7,252.9 870.6,258.7 				"/>
				<polygon class="st11" points="982.4,276.6 982.4,265 992.5,282.4 				"/>
				<polygon class="st14" points="942.3,288.7 962.5,288.7 952.4,306.1 				"/>
				<polygon class="st14" points="870.4,259.1 870.4,294 952.2,341 952.2,306.1 942.1,288.7 880.5,253.3 				"/>
				<polygon class="st14" points="962.5,288.6 982.6,277 992.7,282.8 992.7,317.7 952.5,340.9 952.5,306.1 				"/>
				<polygon class="st14" points="880.5,253.3 942.1,288.7 962.3,288.7 982.4,277 982.4,265.4 920.8,230.1 900.6,230.1 880.5,241.7 
									"/>
				<polygon class="st15" points="870.8,294 870.8,259.1 880.9,241.7 901,230.1 921.2,230.1 982.8,265.4 992.9,282.8 992.9,317.7 
					952.6,341 				"/>
			</g>
		</g>
		<g>
			<path class="st16" d="M915.2,255.9l12.4-7.2l2.9,1.7l-12.4,7.2L915.2,255.9z"/>
			<path class="st16" d="M926.4,255.3c1.3-0.7,2.5-1.2,3.8-1.5c1-0.2,2-0.2,3-0.2c1.1,0,2.1,0.2,3,0.4c1.2,0.3,2.4,0.8,3.6,1.5
				c2.1,1.2,3.2,2.5,3.4,3.9c0.1,1.4-0.8,2.7-2.8,3.8c-2,1.2-4.2,1.7-6.6,1.6c-2.4-0.1-4.6-0.7-6.7-1.9c-2.1-1.2-3.3-2.5-3.4-3.9
				C923.5,257.7,924.4,256.4,926.4,255.3z M929.4,256.9c-1.4,0.8-2.1,1.6-2.1,2.5s0.6,1.6,1.8,2.3c1.2,0.7,2.5,1,3.9,1
				s2.9-0.4,4.3-1.2c1.4-0.8,2.1-1.6,2.1-2.5c0-0.8-0.6-1.6-1.8-2.3c-1.2-0.7-2.5-1-3.9-1C932.3,255.7,930.9,256.1,929.4,256.9z"/>
		</g>
	</g>
	<polygon class="st17" points="1100.2,281.5 1099.1,304.1 931.7,401.8 891.2,402.3 643.3,259.1 642.6,235.6 810.9,138.5 
		852.8,137.8 	"/>
	<g>
		<path class="st18" d="M781.3,300.3l9.9-5.7l8.5,4.9l-1.7,1l-6.2-3.6l-2.2,1.3l5.8,3.3l-1.7,1l-5.8-3.3l-2.7,1.6l6.4,3.7l-1.7,1
			L781.3,300.3z"/>
		<path class="st18" d="M802.9,304.5l-1.5,0.9l-1.5-0.9l-2.9,1.7c-0.6,0.3-0.9,0.5-1,0.6c-0.1,0.1-0.1,0.2,0,0.3
			c0,0.1,0.1,0.2,0.3,0.3c0.2,0.1,0.6,0.3,1.1,0.4l-1.3,1c-0.7-0.2-1.4-0.5-2-0.8c-0.4-0.2-0.7-0.5-0.9-0.7
			c-0.2-0.2-0.3-0.5-0.3-0.7c0-0.2,0.2-0.4,0.4-0.6c0.2-0.2,0.6-0.4,1.3-0.8l3.1-1.8l-1-0.6l1.5-0.9l1,0.6l1.4-0.8l3.3,0.6l-2.5,1.5
			L802.9,304.5z"/>
		<path class="st18" d="M809.4,305.1l-3.6,2.1c1.4,0,2.6,0.3,3.6,0.8c0.5,0.3,0.9,0.6,1.1,0.9c0.2,0.3,0.3,0.6,0.3,0.9
			c0,0.3-0.2,0.5-0.4,0.7c-0.2,0.2-0.7,0.5-1.3,0.9l-4.2,2.4l-2.2-1.3l3.8-2.2c0.8-0.4,1.2-0.7,1.3-0.9s0.1-0.3,0-0.5
			c-0.1-0.2-0.3-0.4-0.6-0.6c-0.4-0.2-0.8-0.4-1.2-0.4c-0.4-0.1-0.9-0.1-1.3,0c-0.4,0.1-1,0.3-1.6,0.7l-3.6,2.1l-2.2-1.3l9.9-5.7
			L809.4,305.1z"/>
		<path class="st18" d="M814.1,316.6l1.9,1.4c-1,0.2-1.9,0.3-2.9,0.1c-1-0.1-1.9-0.5-2.8-1c-1.4-0.8-2.1-1.7-2-2.6
			c0.1-0.7,0.7-1.3,1.7-1.9c1.2-0.7,2.5-1,3.9-1c1.4,0,2.6,0.4,3.7,1c1.2,0.7,1.9,1.5,1.9,2.3c0,0.8-0.7,1.6-2.2,2.5l-5.5-3.2
			c-0.5,0.3-0.8,0.7-0.8,1.1c0,0.4,0.3,0.7,0.8,1c0.3,0.2,0.7,0.3,1.1,0.4C813.2,316.8,813.7,316.8,814.1,316.6z M816.2,315.6
			c0.5-0.3,0.8-0.7,0.8-1c0-0.3-0.3-0.6-0.7-0.9c-0.5-0.3-1-0.4-1.6-0.4c-0.6,0-1.2,0.1-1.7,0.4L816.2,315.6z"/>
		<path class="st18" d="M818,321.5l-2.2-1.3l7.2-4.1l2,1.2l-1,0.6c0.8-0.1,1.5-0.1,1.9,0c0.4,0.1,0.8,0.2,1.2,0.4
			c0.5,0.3,0.9,0.6,1.1,1l-2.3,0.6c-0.2-0.3-0.4-0.6-0.7-0.8c-0.3-0.2-0.6-0.3-1-0.3c-0.4,0-0.8,0-1.3,0.2s-1.4,0.6-2.6,1.3
			L818,321.5z"/>
		<path class="st18" d="M833.2,326l1.6,1.6c-1.4,0.4-2.8,0.6-4.1,0.4c-1.3-0.2-2.6-0.6-3.8-1.3c-1.5-0.9-2.3-1.9-2.4-2.9
			c-0.1-1.1,0.7-2.1,2.2-3c1.7-1,3.4-1.4,5.3-1.4s3.6,0.5,5.3,1.5c1.4,0.8,2.2,1.7,2.3,2.6c0.1,0.5-0.1,1.1-0.7,1.7l-2.8-1
			c0.4-0.4,0.5-0.8,0.4-1.2s-0.5-0.8-1.1-1.2c-0.8-0.5-1.8-0.7-2.9-0.7c-1.1,0-2.2,0.3-3.4,1c-1.3,0.7-1.9,1.4-1.9,2
			c0,0.6,0.4,1.2,1.2,1.6c0.6,0.4,1.3,0.6,2.1,0.6C831.4,326.5,832.2,326.3,833.2,326z"/>
		<path class="st18" d="M844.1,336.5l-2.5-1.5l1.3-1.9l-4.6-2.6l-3.2,0.8l-2.5-1.4l14.4-3.2l2.4,1.4L844.1,336.5z M843.7,331.8
			l2.1-3l-5.2,1.2L843.7,331.8z"/>
		<path class="st18" d="M847.9,338.7l8.2-4.8l-3.4-2l1.7-1l9.1,5.3l-1.7,1l-3.4-2l-8.2,4.8L847.9,338.7z"/>
		<path class="st18" d="M859.5,345.5l9.9-5.7l2.3,1.3l-1.9,6.5l6.6-3.8l2.1,1.2l-9.9,5.7l-2.3-1.3l1.8-6.4l-6.5,3.7L859.5,345.5z"/>
		<path class="st18" d="M878.1,353.6l1.9,1.4c-1,0.2-1.9,0.3-2.9,0.1c-1-0.1-1.9-0.5-2.8-1c-1.4-0.8-2.1-1.7-2-2.6
			c0.1-0.7,0.7-1.3,1.7-1.9c1.2-0.7,2.5-1,3.9-1c1.4,0,2.6,0.4,3.7,1c1.2,0.7,1.9,1.5,1.9,2.3c0,0.8-0.7,1.6-2.2,2.5l-5.5-3.2
			c-0.5,0.3-0.8,0.7-0.8,1.1c0,0.4,0.3,0.7,0.8,1c0.3,0.2,0.7,0.3,1.1,0.4C877.2,353.8,877.7,353.7,878.1,353.6z M880.2,352.5
			c0.5-0.3,0.8-0.7,0.8-1c0-0.3-0.3-0.6-0.7-0.9c-0.5-0.3-1-0.4-1.6-0.4c-0.6,0-1.2,0.1-1.7,0.4L880.2,352.5z"/>
		<path class="st18" d="M890.9,355.3l-1.5,0.9l-1.5-0.9L885,357c-0.6,0.3-0.9,0.5-1,0.6c-0.1,0.1-0.1,0.2,0,0.3
			c0,0.1,0.1,0.2,0.3,0.3c0.2,0.1,0.6,0.3,1.1,0.4l-1.3,1c-0.7-0.2-1.4-0.5-2-0.8c-0.4-0.2-0.7-0.5-0.9-0.7s-0.3-0.5-0.3-0.7
			c0-0.2,0.2-0.4,0.4-0.6c0.2-0.2,0.6-0.4,1.3-0.8l3.1-1.8l-1-0.6l1.5-0.9l1,0.6l1.4-0.8l3.3,0.6l-2.5,1.5L890.9,355.3z"/>
		<path class="st18" d="M886.8,361.2l4.6-5.7l2.1,1.2l-3.2,3.6l6.1-1.9l2.1,1.2l-3.3,3.5l6.3-1.8l2.2,1.2l-9.8,2.6l-2.1-1.2l3.2-3.5
			l-6,1.9L886.8,361.2z"/>
		<path class="st18" d="M900.9,365.1c0.6-0.4,1.4-0.6,2.4-0.7s1.9-0.1,2.9,0.1c1,0.2,1.9,0.5,2.7,1c1.3,0.7,1.9,1.5,2,2.4
			c0.1,0.9-0.4,1.6-1.5,2.2c-1.1,0.6-2.4,0.9-3.9,0.9c-1.5-0.1-2.9-0.4-4.1-1.1c-0.8-0.4-1.3-0.9-1.7-1.5s-0.5-1.1-0.3-1.7
			C899.6,366.1,900.1,365.6,900.9,365.1z M903.1,366.4c-0.7,0.4-1.1,0.8-1.1,1.3c0,0.4,0.3,0.8,0.9,1.2c0.6,0.3,1.2,0.5,2,0.5
			c0.8,0,1.5-0.2,2.2-0.6c0.7-0.4,1.1-0.8,1-1.3c0-0.4-0.3-0.8-0.9-1.2c-0.6-0.3-1.2-0.5-2-0.5C904.5,365.8,903.8,366,903.1,366.4z"
			/>
		<path class="st18" d="M909.6,374.4l-2.2-1.3l7.2-4.1l2,1.2l-1,0.6c0.8-0.1,1.5-0.1,1.9,0c0.4,0.1,0.8,0.2,1.2,0.4
			c0.5,0.3,0.9,0.6,1.1,1l-2.3,0.6c-0.2-0.3-0.4-0.6-0.7-0.8c-0.3-0.2-0.6-0.3-1-0.3c-0.4,0-0.8,0-1.3,0.2c-0.5,0.2-1.4,0.6-2.6,1.3
			L909.6,374.4z"/>
		<path class="st18" d="M913.7,376.7l9.9-5.7l2.2,1.3l-5.3,3l5.1,0l2.7,1.6l-5.5-0.1l-1.5,4.4l-2.4-1.4l1.1-3.1l-2-0.1l-2.3,1.3
			L913.7,376.7z"/>
	</g>
	<g>
		<g>
			<polygon class="st13" points="580.7,295.5 785.1,413.9 826,390.3 621.6,271.9 			"/>
			<polygon class="st11" points="580.7,295.3 580.7,318.9 785.1,437.3 785.1,413.7 			"/>
			<polygon class="st12" points="785.5,413.8 826.3,390.2 826.3,413.8 785.5,437.3 			"/>
			<polygon class="st19" points="580.8,295.3 580.8,318.9 785.2,437.3 785.2,413.7 			"/>
			<polygon class="st19" points="785.4,413.9 826.3,390.3 826.3,413.9 785.4,437.5 			"/>
			<polygon class="st20" points="581,318.9 581,295.4 621.9,271.8 826.3,390.2 826.3,413.7 785.4,437.3 			"/>
		</g>
		<g>
			<path class="st16" d="M607,289.2l9.9-5.7l8.5,4.9l-1.7,1l-6.2-3.6l-2.2,1.3l5.8,3.3l-1.7,1l-5.8-3.3l-2.7,1.6l6.4,3.7l-1.7,1
				L607,289.2z"/>
			<path class="st16" d="M628.6,293.4l-1.5,0.9l-1.5-0.9l-2.9,1.7c-0.6,0.3-0.9,0.5-1,0.6c-0.1,0.1-0.1,0.2,0,0.3
				c0,0.1,0.1,0.2,0.3,0.3c0.2,0.1,0.6,0.3,1.1,0.4l-1.3,1c-0.7-0.2-1.4-0.5-2-0.8c-0.4-0.2-0.7-0.5-0.9-0.7
				c-0.2-0.2-0.3-0.5-0.3-0.7c0-0.2,0.2-0.4,0.4-0.6c0.2-0.2,0.6-0.4,1.3-0.8l3.1-1.8l-1-0.6l1.5-0.9l1,0.6l1.4-0.8l3.3,0.6
				l-2.5,1.5L628.6,293.4z"/>
			<path class="st16" d="M635.1,293.9l-3.6,2.1c1.4,0,2.6,0.3,3.6,0.8c0.5,0.3,0.9,0.6,1.1,0.9s0.3,0.6,0.3,0.9
				c0,0.3-0.2,0.5-0.4,0.7c-0.2,0.2-0.7,0.5-1.3,0.9l-4.2,2.4l-2.2-1.3l3.8-2.2c0.8-0.4,1.2-0.7,1.3-0.9c0.1-0.2,0.1-0.3,0-0.5
				c-0.1-0.2-0.3-0.4-0.6-0.6c-0.4-0.2-0.8-0.4-1.2-0.4c-0.4-0.1-0.9-0.1-1.3,0c-0.4,0.1-1,0.3-1.6,0.7l-3.6,2.1l-2.2-1.3l9.9-5.7
				L635.1,293.9z"/>
			<path class="st16" d="M639.8,305.5l1.9,1.4c-1,0.2-1.9,0.3-2.9,0.1c-1-0.1-1.9-0.5-2.8-1c-1.4-0.8-2.1-1.7-2-2.6
				c0.1-0.7,0.7-1.3,1.7-1.9c1.2-0.7,2.5-1,3.9-1c1.4,0,2.6,0.4,3.7,1c1.2,0.7,1.9,1.5,1.9,2.3c0,0.8-0.7,1.6-2.2,2.5l-5.5-3.2
				c-0.5,0.3-0.8,0.7-0.8,1.1c0,0.4,0.3,0.7,0.8,1c0.3,0.2,0.7,0.3,1.1,0.4C638.9,305.7,639.3,305.6,639.8,305.5z M641.9,304.5
				c0.5-0.3,0.8-0.7,0.8-1c0-0.3-0.3-0.6-0.7-0.9c-0.5-0.3-1-0.4-1.6-0.4c-0.6,0-1.2,0.1-1.7,0.4L641.9,304.5z"/>
			<path class="st16" d="M643.7,310.4l-2.2-1.3l7.2-4.1l2,1.2l-1,0.6c0.8-0.1,1.5-0.1,1.9,0c0.4,0.1,0.8,0.2,1.2,0.4
				c0.5,0.3,0.9,0.6,1.1,1l-2.3,0.6c-0.2-0.3-0.4-0.6-0.7-0.8c-0.3-0.2-0.6-0.3-1-0.3c-0.4,0-0.8,0-1.3,0.2
				c-0.5,0.2-1.4,0.6-2.6,1.3L643.7,310.4z"/>
			<path class="st16" d="M658.8,314.9l1.6,1.6c-1.4,0.4-2.8,0.6-4.1,0.4c-1.3-0.2-2.6-0.6-3.8-1.3c-1.5-0.9-2.3-1.9-2.4-2.9
				c-0.1-1.1,0.7-2.1,2.2-3c1.7-1,3.4-1.4,5.3-1.4c1.9,0,3.6,0.5,5.3,1.5c1.4,0.8,2.2,1.7,2.3,2.6c0.1,0.5-0.1,1.1-0.7,1.7l-2.8-1
				c0.4-0.4,0.5-0.8,0.4-1.2c-0.1-0.4-0.5-0.8-1.1-1.2c-0.8-0.5-1.8-0.7-2.9-0.7c-1.1,0-2.2,0.3-3.4,1c-1.3,0.7-1.9,1.4-1.9,2
				c0,0.6,0.4,1.2,1.2,1.6c0.6,0.4,1.3,0.6,2.1,0.6C657.1,315.3,657.9,315.2,658.8,314.9z"/>
			<path class="st16" d="M669.7,325.4l-2.5-1.5l1.3-1.9l-4.6-2.6l-3.2,0.8l-2.5-1.4l14.4-3.2l2.4,1.4L669.7,325.4z M669.4,320.7
				l2.1-3l-5.2,1.2L669.4,320.7z"/>
			<path class="st16" d="M673.5,327.6l8.2-4.8l-3.4-2l1.7-1l9.1,5.3l-1.7,1l-3.4-2l-8.2,4.8L673.5,327.6z"/>
			<path class="st16" d="M692.2,330.1l2,1.2l-1,0.6c1.5,0,2.7,0.3,3.7,0.8c0.5,0.3,0.9,0.6,1.1,1c0.2,0.3,0.2,0.7,0.1,1.1
				c0.7,0,1.4,0.1,2,0.2c0.6,0.1,1.2,0.3,1.6,0.6c0.6,0.4,1,0.7,1.2,1.1c0.2,0.4,0.2,0.7,0,1.1c-0.2,0.3-0.6,0.6-1.3,1l-4.6,2.7
				L695,340l4.1-2.4c0.7-0.4,1.1-0.7,1.2-0.9c0.1-0.3-0.1-0.5-0.5-0.8c-0.3-0.2-0.7-0.3-1.1-0.4c-0.4-0.1-0.9,0-1.3,0.1
				c-0.4,0.1-1,0.4-1.7,0.8l-3.5,2l-2.2-1.3l3.9-2.3c0.7-0.4,1.1-0.7,1.2-0.8c0.1-0.2,0.2-0.3,0.1-0.5c-0.1-0.2-0.2-0.3-0.5-0.5
				c-0.3-0.2-0.7-0.3-1.2-0.4c-0.4-0.1-0.9,0-1.3,0.1s-1,0.4-1.7,0.8l-3.5,2l-2.2-1.3L692.2,330.1z"/>
			<path class="st16" d="M706,340.6l-1.7-1.3c0.9-0.3,1.8-0.3,2.7-0.2s1.9,0.5,2.9,1.1c1,0.6,1.6,1,1.9,1.4c0.3,0.4,0.4,0.7,0.2,1
				c-0.1,0.3-0.6,0.7-1.4,1.2l-2.2,1.3c-0.6,0.4-1.1,0.7-1.3,0.9s-0.4,0.5-0.6,0.8l-2.2-1.3c0.1-0.1,0.2-0.3,0.4-0.4
				c0.1-0.1,0.1-0.1,0.1-0.2c-0.7,0-1.3-0.1-1.9-0.3c-0.6-0.2-1.1-0.4-1.6-0.7c-0.9-0.5-1.3-1-1.4-1.5s0.2-1,0.8-1.3
				c0.4-0.2,0.9-0.4,1.4-0.4c0.5-0.1,1.1,0,1.7,0.1c0.6,0.1,1.3,0.4,2.2,0.8c1.2,0.5,2.1,0.8,2.6,1l0.2-0.1c0.4-0.2,0.5-0.4,0.5-0.6
				c-0.1-0.2-0.4-0.5-0.9-0.8c-0.4-0.2-0.8-0.4-1.1-0.4C706.9,340.5,706.5,340.5,706,340.6z M707.4,343.2c-0.4-0.1-0.9-0.3-1.6-0.6
				c-0.7-0.3-1.2-0.5-1.5-0.5c-0.5-0.1-0.8,0-1.1,0.1c-0.3,0.2-0.4,0.4-0.3,0.6c0,0.2,0.2,0.5,0.6,0.7c0.4,0.2,0.9,0.4,1.5,0.5
				c0.4,0.1,0.8,0,1.2-0.1c0.2-0.1,0.6-0.2,1-0.5L707.4,343.2z"/>
			<path class="st16" d="M709.6,346l2.5,1.1c-0.3,0.3-0.4,0.5-0.3,0.8c0.1,0.3,0.4,0.6,0.9,0.9c0.6,0.3,1.1,0.5,1.6,0.6
				c0.3,0,0.6,0,0.8-0.1c0.1-0.1,0.2-0.2,0.2-0.3c0-0.1-0.2-0.3-0.5-0.6c-1.4-1.2-2.2-2-2.4-2.5c-0.3-0.6-0.1-1.1,0.6-1.5
				c0.6-0.4,1.4-0.5,2.4-0.4s2.1,0.5,3.3,1.2c1.1,0.7,1.8,1.2,2.1,1.7c0.2,0.5,0.1,1-0.3,1.5l-2.4-1c0.2-0.2,0.2-0.4,0.1-0.7
				c-0.1-0.2-0.4-0.5-0.8-0.7c-0.6-0.3-1.1-0.5-1.5-0.6c-0.3,0-0.5,0-0.6,0.1c-0.1,0.1-0.2,0.2-0.1,0.3c0.1,0.2,0.6,0.7,1.5,1.5
				c0.9,0.8,1.5,1.4,1.6,1.9c0.1,0.5-0.1,0.9-0.7,1.2c-0.7,0.4-1.5,0.5-2.7,0.4c-1.1-0.1-2.3-0.5-3.5-1.2c-1.1-0.7-1.8-1.3-2.1-1.9
				C709,347.1,709.1,346.6,709.6,346z"/>
			<path class="st16" d="M728.2,350.9l-1.5,0.9l-1.5-0.9l-2.9,1.7c-0.6,0.3-0.9,0.5-1,0.6c-0.1,0.1-0.1,0.2,0,0.3
				c0,0.1,0.1,0.2,0.3,0.3c0.2,0.1,0.6,0.3,1.1,0.4l-1.3,1c-0.7-0.2-1.4-0.5-2-0.8c-0.4-0.2-0.7-0.5-0.9-0.7
				c-0.2-0.2-0.3-0.5-0.3-0.7c0-0.2,0.2-0.4,0.4-0.6c0.2-0.2,0.6-0.4,1.3-0.8l3.1-1.8l-1-0.6l1.5-0.9l1,0.6l1.4-0.8l3.3,0.6
				l-2.5,1.5L728.2,350.9z"/>
			<path class="st16" d="M729.6,357.3l1.9,1.4c-1,0.2-1.9,0.3-2.9,0.1c-1-0.1-1.9-0.5-2.8-1c-1.4-0.8-2.1-1.7-2-2.6
				c0.1-0.7,0.7-1.3,1.7-1.9c1.2-0.7,2.5-1,3.9-1c1.4,0,2.6,0.4,3.7,1c1.2,0.7,1.9,1.5,1.9,2.3c0,0.8-0.7,1.6-2.2,2.5l-5.5-3.2
				c-0.5,0.3-0.8,0.7-0.8,1.1c0,0.4,0.3,0.7,0.8,1c0.3,0.2,0.7,0.3,1.1,0.4C728.7,357.5,729.1,357.5,729.6,357.3z M731.7,356.3
				c0.5-0.3,0.8-0.7,0.8-1c0-0.3-0.3-0.6-0.7-0.9c-0.5-0.3-1-0.4-1.6-0.4c-0.6,0-1.2,0.1-1.7,0.4L731.7,356.3z"/>
			<path class="st16" d="M733.5,362.2l-2.2-1.3l7.2-4.1l2,1.2l-1,0.6c0.8-0.1,1.5-0.1,1.9,0c0.4,0.1,0.8,0.2,1.2,0.4
				c0.5,0.3,0.9,0.6,1.1,1l-2.3,0.6c-0.2-0.3-0.4-0.6-0.7-0.8c-0.3-0.2-0.6-0.3-1-0.3c-0.4,0-0.8,0-1.3,0.2
				c-0.5,0.2-1.4,0.6-2.6,1.3L733.5,362.2z"/>
			<path class="st16" d="M742.8,371l-1.5-0.9c0.2-1.1,0.7-2,1.4-2.9c0.7-0.9,1.6-1.6,2.6-2.2c1.3-0.8,2.8-1.3,4.5-1.7
				c1.5-0.3,3-0.5,4.5-0.6l1.5,0.9c-2.1,0.4-3.7,0.8-5,1.2c-1.2,0.4-2.4,0.9-3.5,1.5c-0.7,0.4-1.4,0.9-2,1.5
				c-0.6,0.5-1.1,1.1-1.6,1.7C743.6,369.6,743.2,370.2,742.8,371z"/>
			<path class="st16" d="M756.4,371.2l1.7-1l5,2.9l-4,2.3c-0.9,0-2-0.2-3.2-0.6c-1.2-0.4-2.3-0.8-3.3-1.3c-1.2-0.7-2-1.4-2.5-2.2
				c-0.5-0.8-0.5-1.5-0.1-2.2c0.4-0.7,1-1.4,2-1.9c1-0.6,2.2-1,3.5-1.2c1.3-0.2,2.7-0.1,4,0.2c1.1,0.2,2.1,0.7,3.2,1.3
				c1.4,0.8,2.3,1.6,2.6,2.4c0.3,0.8,0.1,1.5-0.6,2.1l-2.7-1.1c0.3-0.4,0.4-0.8,0.2-1.2c-0.2-0.4-0.6-0.8-1.2-1.2
				c-1-0.6-2.1-0.9-3.2-0.9c-1.2,0-2.3,0.3-3.4,0.9c-1.2,0.7-1.8,1.4-1.7,2.1c0,0.7,0.5,1.3,1.5,1.9c0.5,0.3,1.1,0.5,1.7,0.7
				c0.7,0.2,1.3,0.3,1.9,0.4l1.3-0.7L756.4,371.2z"/>
			<path class="st16" d="M769.8,371.7l4.6,2.6c0.9,0.5,1.5,0.9,1.9,1.2c0.4,0.3,0.6,0.6,0.8,0.9c0.1,0.3,0.2,0.7,0.1,1
				c-0.1,0.3-0.4,0.6-0.8,0.9c-0.5,0.3-1,0.4-1.7,0.5c-0.7,0.1-1.4,0-2-0.2c0.5,0.5,0.8,1,0.7,1.4c0,0.5-0.4,0.9-0.9,1.2
				c-0.5,0.3-1,0.4-1.7,0.6c-0.7,0.1-1.3,0.1-2,0c-0.7-0.1-1.3-0.3-2-0.6c-0.4-0.2-1.4-0.7-2.9-1.6l-3.9-2.2L769.8,371.7z
				 M766.5,376.3l-2.7,1.5l2.1,1.2c0.8,0.5,1.4,0.8,1.6,0.9c0.4,0.2,0.8,0.3,1.2,0.3c0.4,0,0.8-0.1,1.2-0.3c0.3-0.2,0.5-0.4,0.5-0.6
				s0-0.4-0.3-0.7c-0.2-0.2-0.9-0.7-1.9-1.3L766.5,376.3z M770.5,374l-2.3,1.3l1.5,0.9c0.9,0.5,1.5,0.8,1.7,1
				c0.4,0.2,0.9,0.3,1.3,0.3s0.8-0.1,1.1-0.3c0.3-0.2,0.5-0.4,0.5-0.6c0-0.2-0.2-0.5-0.5-0.7c-0.2-0.1-0.9-0.5-1.9-1.2L770.5,374z"
				/>
			<path class="st16" d="M771.4,384.1l9.9-5.7l8.5,4.9l-1.7,1l-6.2-3.6l-2.2,1.3l5.8,3.3l-1.7,1l-5.8-3.3l-2.7,1.6l6.4,3.7l-1.7,1
				L771.4,384.1z"/>
			<path class="st16" d="M782.1,390.3l9.9-5.7l3.5,2l-4.7,5.1l8.8-2.7l3.5,2l-9.9,5.7l-2.1-1.2l7.8-4.5l-10.1,3.2l-2.2-1.3l5.5-5.8
				l-7.8,4.5L782.1,390.3z"/>
			<path class="st16" d="M791.9,399.3c1.2-0.2,2.2-0.4,2.8-0.5s1.3-0.3,2-0.6c0.7-0.2,1.4-0.5,1.9-0.7c0.6-0.2,1.1-0.5,1.7-0.8
				c1.1-0.6,2-1.3,2.6-2s1.4-1.7,2-2.9l1.5,0.9c-0.2,1-0.6,2-1.3,2.8c-0.7,0.9-1.5,1.6-2.7,2.3c-0.9,0.5-2.1,1-3.5,1.5
				c-1.6,0.5-3.4,0.8-5.5,1L791.9,399.3z"/>
		</g>
	</g>
	<g>
		<g>
			<polygon class="st13" points="475.8,356.3 680.8,474.4 721.7,450.8 516.7,332.7 			"/>
			<polygon class="st11" points="475.8,356.2 475.8,379.8 680.8,497.9 680.8,474.3 			"/>
			<polygon class="st12" points="681.1,474.3 722,450.7 722,474.3 681.1,497.9 			"/>
			<polygon class="st19" points="475.9,356.2 475.9,379.8 680.9,497.9 680.9,474.3 			"/>
			<polygon class="st19" points="681.1,474.4 721.9,450.8 721.9,474.4 681.1,498 			"/>
			<polygon class="st20" points="476.1,379.8 476.1,356.2 517,332.6 722,450.7 722,474.3 681.1,497.9 			"/>
		</g>
		<g>
			<path class="st16" d="M508.2,356.2l9.9-5.7l4.9,2.8c1.2,0.7,2,1.3,2.4,1.7c0.4,0.4,0.5,0.9,0.4,1.3c-0.1,0.5-0.5,0.9-1.1,1.2
				c-0.7,0.4-1.6,0.6-2.6,0.6c-1,0-2.1-0.3-3.2-0.8c0.2,0.4,0.4,0.8,0.4,1.2c0,0.4-0.1,0.9-0.3,1.7l-0.5,1.9l-2.8-1.6l0.5-2.2
				c0.2-0.8,0.3-1.3,0.2-1.5c0-0.2-0.1-0.5-0.3-0.6c-0.2-0.2-0.5-0.4-1.1-0.7l-0.5-0.3l-4.1,2.4L508.2,356.2z M516.2,354.2l1.7,1
				c1.1,0.6,1.8,1,2.2,1.1c0.4,0.1,0.7,0.2,1.1,0.1c0.4,0,0.7-0.1,1-0.3c0.3-0.2,0.5-0.4,0.5-0.6c0-0.2-0.2-0.5-0.5-0.7
				c-0.2-0.1-0.7-0.5-1.7-1l-1.8-1L516.2,354.2z"/>
			<path class="st16" d="M526.8,364.3l1.9,1.4c-1,0.2-1.9,0.3-2.9,0.1s-1.9-0.5-2.8-1c-1.4-0.8-2.1-1.7-2-2.6
				c0.1-0.7,0.7-1.3,1.7-1.9c1.2-0.7,2.5-1,3.9-1c1.4,0,2.6,0.4,3.7,1c1.2,0.7,1.9,1.5,1.9,2.3c0,0.8-0.7,1.6-2.2,2.5l-5.5-3.2
				c-0.5,0.3-0.8,0.7-0.8,1.1c0,0.4,0.3,0.7,0.8,1c0.3,0.2,0.7,0.3,1.1,0.4C525.9,364.5,526.3,364.5,526.8,364.3z M528.8,363.3
				c0.5-0.3,0.8-0.7,0.8-1c0-0.3-0.3-0.6-0.7-0.9c-0.5-0.3-1-0.4-1.6-0.4s-1.2,0.1-1.7,0.4L528.8,363.3z"/>
			<path class="st16" d="M535.2,366.1l-1.7-1.3c0.9-0.3,1.8-0.3,2.7-0.2c0.9,0.1,1.9,0.5,2.9,1.1c1,0.6,1.6,1,1.9,1.4s0.4,0.7,0.2,1
				c-0.1,0.3-0.6,0.7-1.4,1.2l-2.2,1.3c-0.6,0.4-1.1,0.7-1.3,0.9s-0.4,0.5-0.6,0.8l-2.2-1.3c0.1-0.1,0.2-0.3,0.4-0.4
				c0.1-0.1,0.1-0.1,0.1-0.2c-0.7,0-1.3-0.1-1.9-0.3c-0.6-0.2-1.1-0.4-1.6-0.7c-0.9-0.5-1.3-1-1.4-1.5c-0.1-0.5,0.2-1,0.8-1.3
				c0.4-0.2,0.9-0.4,1.4-0.4c0.5-0.1,1.1,0,1.7,0.1c0.6,0.1,1.3,0.4,2.2,0.8c1.2,0.5,2.1,0.8,2.6,1l0.2-0.1c0.4-0.2,0.5-0.4,0.5-0.6
				c-0.1-0.2-0.4-0.5-0.9-0.8c-0.4-0.2-0.8-0.4-1.1-0.4C536.1,365.9,535.7,365.9,535.2,366.1z M536.6,368.6
				c-0.4-0.1-0.9-0.3-1.6-0.6c-0.7-0.3-1.2-0.5-1.5-0.5c-0.5-0.1-0.8,0-1.1,0.1c-0.3,0.2-0.4,0.4-0.3,0.6c0,0.2,0.2,0.5,0.6,0.7
				c0.4,0.2,0.9,0.4,1.5,0.5c0.4,0.1,0.8,0,1.2-0.1c0.2-0.1,0.6-0.2,1-0.5L536.6,368.6z"/>
			<path class="st16" d="M537.5,373.1l9.9-5.7l2.2,1.3l-9.9,5.7L537.5,373.1z"/>
			<path class="st16" d="M544.3,374l1.9-1.1l4.3,2.5l-1.9,1.1L544.3,374z"/>
			<path class="st16" d="M558.3,376.8l-1.5,0.9l-1.5-0.9l-2.9,1.7c-0.6,0.3-0.9,0.5-1,0.6c-0.1,0.1-0.1,0.2,0,0.3
				c0,0.1,0.1,0.2,0.3,0.3c0.2,0.1,0.6,0.3,1.1,0.4l-1.3,1c-0.7-0.2-1.4-0.5-2-0.8c-0.4-0.2-0.7-0.5-0.9-0.7
				c-0.2-0.2-0.3-0.5-0.3-0.7c0-0.2,0.2-0.4,0.4-0.6c0.2-0.2,0.6-0.4,1.3-0.8l3.1-1.8l-1-0.6l1.5-0.9l1,0.6l1.4-0.8l3.3,0.6
				l-2.5,1.5L558.3,376.8z"/>
			<path class="st16" d="M552.6,381.9l7.2-4.1l2.2,1.3l-7.2,4.1L552.6,381.9z M560.8,377.1l1.8-1l2.2,1.3l-1.8,1L560.8,377.1z"/>
			<path class="st16" d="M564.1,380.2l2,1.2l-1,0.6c1.5,0,2.7,0.3,3.7,0.8c0.5,0.3,0.9,0.6,1.1,1s0.2,0.7,0.1,1.1
				c0.7,0,1.4,0.1,2,0.2c0.6,0.1,1.2,0.3,1.6,0.6c0.6,0.4,1,0.7,1.2,1.1c0.2,0.4,0.2,0.7,0,1.1c-0.2,0.3-0.6,0.6-1.3,1l-4.6,2.7
				l-2.2-1.3l4.1-2.4c0.7-0.4,1.1-0.7,1.2-0.9c0.1-0.3-0.1-0.5-0.5-0.8c-0.3-0.2-0.7-0.3-1.1-0.4c-0.4-0.1-0.9,0-1.3,0.1
				c-0.4,0.1-1,0.4-1.7,0.8l-3.5,2l-2.2-1.3l3.9-2.3c0.7-0.4,1.1-0.7,1.2-0.8c0.1-0.2,0.2-0.3,0.1-0.5c-0.1-0.2-0.2-0.3-0.5-0.5
				c-0.3-0.2-0.7-0.3-1.2-0.4c-0.4-0.1-0.9,0-1.3,0.1c-0.4,0.1-1,0.4-1.7,0.8l-3.5,2l-2.2-1.3L564.1,380.2z"/>
			<path class="st16" d="M578.4,394.1l1.9,1.4c-1,0.2-1.9,0.3-2.9,0.1c-1-0.1-1.9-0.5-2.8-1c-1.4-0.8-2.1-1.7-2-2.6
				c0.1-0.7,0.7-1.3,1.7-1.9c1.2-0.7,2.5-1,3.9-1c1.4,0,2.6,0.4,3.7,1c1.2,0.7,1.9,1.5,1.9,2.3s-0.7,1.6-2.2,2.5l-5.5-3.2
				c-0.5,0.3-0.8,0.7-0.8,1.1c0,0.4,0.3,0.7,0.8,1c0.3,0.2,0.7,0.3,1.1,0.4C577.5,394.3,577.9,394.2,578.4,394.1z M580.4,393
				c0.5-0.3,0.8-0.7,0.8-1c0-0.3-0.3-0.6-0.7-0.9c-0.5-0.3-1-0.4-1.6-0.4s-1.2,0.1-1.7,0.4L580.4,393z"/>
			<path class="st16" d="M596.9,401.6l-2.5-1.1c0.3-0.3,0.4-0.5,0.3-0.8s-0.3-0.5-0.7-0.7c-0.5-0.3-1.1-0.5-1.8-0.5
				c-0.7,0-1.4,0.2-2.1,0.7c-0.9,0.5-1.3,0.9-1.3,1.3c0,0.4,0.2,0.8,0.8,1.1c0.4,0.2,0.9,0.4,1.3,0.4c0.5,0,1-0.1,1.6-0.3l1.8,1.4
				c-1.1,0.4-2.2,0.5-3.2,0.4c-1.1-0.1-2.1-0.5-3.2-1.1c-1.2-0.7-1.9-1.5-1.9-2.2s0.5-1.5,1.7-2.2c1.2-0.7,2.5-1,3.9-1
				c1.4,0,2.7,0.4,3.9,1.1c1,0.6,1.6,1.2,1.8,1.7C597.6,400.4,597.4,401,596.9,401.6z"/>
			<path class="st16" d="M596.7,403c0.6-0.4,1.4-0.6,2.4-0.7c1-0.1,1.9-0.1,2.9,0.1c1,0.2,1.9,0.5,2.7,1c1.3,0.7,1.9,1.5,2,2.4
				c0.1,0.9-0.4,1.6-1.5,2.2c-1.1,0.6-2.4,0.9-3.9,0.9c-1.5-0.1-2.9-0.4-4.1-1.1c-0.8-0.4-1.3-0.9-1.7-1.5c-0.4-0.6-0.5-1.1-0.3-1.7
				C595.4,404,595.9,403.5,596.7,403z M598.9,404.4c-0.7,0.4-1.1,0.8-1.1,1.3c0,0.4,0.3,0.8,0.9,1.2c0.6,0.3,1.2,0.5,2,0.5
				c0.8,0,1.5-0.2,2.2-0.6c0.7-0.4,1.1-0.8,1-1.3c0-0.4-0.3-0.8-0.9-1.2c-0.6-0.3-1.2-0.5-2-0.5C600.3,403.8,599.6,404,598.9,404.4z
				"/>
			<path class="st16" d="M610.8,415.5l-2.2-1.3l3.7-2.1c0.8-0.4,1.2-0.8,1.4-1c0.1-0.2,0.2-0.4,0.1-0.6c-0.1-0.2-0.3-0.4-0.6-0.5
				c-0.4-0.2-0.8-0.4-1.3-0.4s-0.9-0.1-1.3,0.1c-0.4,0.1-1,0.4-1.8,0.9l-3.3,1.9l-2.2-1.3l7.2-4.1l2,1.2l-1.1,0.6
				c1.5-0.1,2.9,0.2,4,0.9c0.5,0.3,0.9,0.6,1.1,0.9c0.2,0.3,0.4,0.6,0.3,0.9c0,0.3-0.2,0.5-0.4,0.7c-0.2,0.2-0.6,0.5-1.2,0.8
				L610.8,415.5z"/>
			<path class="st16" d="M624.1,414.8l-1.5,0.9l-1.5-0.9l-2.9,1.7c-0.6,0.3-0.9,0.5-1,0.6c-0.1,0.1-0.1,0.2,0,0.3
				c0,0.1,0.1,0.2,0.3,0.3c0.2,0.1,0.6,0.3,1.1,0.4l-1.3,1c-0.7-0.2-1.4-0.5-2-0.8c-0.4-0.2-0.7-0.5-0.9-0.7
				c-0.2-0.2-0.3-0.5-0.3-0.7c0-0.2,0.2-0.4,0.4-0.6c0.2-0.2,0.6-0.4,1.3-0.8l3.1-1.8l-1-0.6l1.5-0.9l1,0.6l1.4-0.8l3.3,0.6
				l-2.5,1.5L624.1,414.8z"/>
			<path class="st16" d="M620.5,421l-2.2-1.3l7.2-4.1l2,1.2l-1,0.6c0.8-0.1,1.5-0.1,1.9,0c0.4,0.1,0.8,0.2,1.2,0.4
				c0.5,0.3,0.9,0.6,1.1,1l-2.3,0.6c-0.2-0.3-0.4-0.6-0.7-0.8c-0.3-0.2-0.6-0.3-1-0.3c-0.4,0-0.8,0-1.3,0.2s-1.4,0.6-2.6,1.3
				L620.5,421z"/>
			<path class="st16" d="M627.8,421c0.6-0.4,1.4-0.6,2.4-0.7c1-0.1,1.9-0.1,2.9,0.1c1,0.2,1.9,0.5,2.7,1c1.3,0.7,1.9,1.5,2,2.4
				c0.1,0.9-0.4,1.6-1.5,2.2c-1.1,0.6-2.4,0.9-3.9,0.9c-1.5-0.1-2.9-0.4-4.1-1.1c-0.8-0.4-1.3-0.9-1.7-1.5c-0.4-0.6-0.5-1.1-0.3-1.7
				C626.5,422,627,421.5,627.8,421z M630,422.4c-0.7,0.4-1.1,0.8-1.1,1.3s0.3,0.8,0.9,1.2c0.6,0.3,1.2,0.5,2,0.5
				c0.8,0,1.5-0.2,2.2-0.6c0.7-0.4,1.1-0.8,1-1.3c0-0.4-0.3-0.8-0.9-1.2c-0.6-0.3-1.2-0.5-2-0.5S630.7,422,630,422.4z"/>
			<path class="st16" d="M634.4,429.1l9.9-5.7l2.2,1.3l-9.9,5.7L634.4,429.1z"/>
			<path class="st16" d="M644,438l-1.5-0.9c0.2-1.1,0.7-2,1.4-2.9c0.7-0.9,1.6-1.6,2.6-2.2c1.3-0.8,2.8-1.3,4.5-1.7
				c1.5-0.3,3-0.5,4.5-0.6l1.5,0.9c-2.1,0.4-3.7,0.8-5,1.2c-1.2,0.4-2.4,0.9-3.5,1.5c-0.7,0.4-1.4,0.9-2,1.5
				c-0.6,0.5-1.1,1.1-1.6,1.7C644.8,436.7,644.4,437.2,644,438z"/>
			<path class="st16" d="M657.6,438.3l1.7-1l5,2.9l-4,2.3c-0.9,0-1.9-0.2-3.2-0.6c-1.2-0.4-2.3-0.8-3.3-1.3c-1.2-0.7-2-1.4-2.5-2.2
				c-0.5-0.8-0.5-1.5-0.1-2.2c0.4-0.7,1-1.4,2-1.9c1-0.6,2.2-1,3.5-1.2s2.6-0.1,4,0.2c1.1,0.2,2.1,0.7,3.2,1.3
				c1.4,0.8,2.3,1.6,2.6,2.4c0.3,0.8,0.1,1.5-0.6,2.1l-2.7-1.1c0.3-0.4,0.4-0.8,0.2-1.2c-0.2-0.4-0.6-0.8-1.2-1.2
				c-1-0.6-2.1-0.9-3.2-0.9s-2.3,0.3-3.4,0.9c-1.2,0.7-1.8,1.4-1.7,2.1c0,0.7,0.5,1.3,1.5,1.9c0.5,0.3,1.1,0.5,1.7,0.7
				c0.7,0.2,1.3,0.3,1.9,0.4l1.3-0.7L657.6,438.3z"/>
			<path class="st16" d="M671,438.8l4.6,2.6c0.9,0.5,1.5,0.9,1.9,1.2s0.6,0.6,0.8,0.9c0.1,0.3,0.2,0.7,0,1c-0.1,0.3-0.4,0.6-0.8,0.9
				c-0.5,0.3-1,0.4-1.7,0.5c-0.7,0.1-1.4,0-2-0.2c0.5,0.5,0.8,1,0.7,1.4c0,0.5-0.4,0.9-0.9,1.2c-0.5,0.3-1,0.4-1.7,0.5
				c-0.7,0.1-1.3,0.1-2,0c-0.7-0.1-1.3-0.3-2-0.6c-0.4-0.2-1.4-0.7-2.9-1.6l-3.9-2.3L671,438.8z M667.7,443.3l-2.7,1.5l2.1,1.2
				c0.8,0.5,1.4,0.8,1.6,0.9c0.4,0.2,0.8,0.3,1.2,0.3c0.4,0,0.8-0.1,1.2-0.3c0.3-0.2,0.5-0.4,0.5-0.6c0-0.2,0-0.4-0.3-0.7
				c-0.2-0.2-0.9-0.7-1.9-1.3L667.7,443.3z M671.7,441l-2.3,1.3l1.5,0.9c0.9,0.5,1.5,0.8,1.7,1c0.4,0.2,0.9,0.3,1.3,0.3
				s0.8-0.1,1.1-0.3c0.3-0.2,0.5-0.4,0.5-0.6c0-0.2-0.2-0.5-0.5-0.7c-0.2-0.1-0.9-0.5-1.9-1.2L671.7,441z"/>
			<path class="st16" d="M683.6,453.3l1.6,1.6c-1.4,0.4-2.8,0.6-4.1,0.4c-1.3-0.2-2.6-0.6-3.8-1.3c-1.5-0.9-2.3-1.9-2.4-2.9
				c-0.1-1.1,0.7-2.1,2.2-3c1.7-1,3.4-1.4,5.3-1.4s3.6,0.5,5.3,1.5c1.4,0.8,2.2,1.7,2.3,2.6c0.1,0.5-0.1,1.1-0.7,1.7l-2.8-1
				c0.4-0.4,0.5-0.8,0.4-1.2c-0.1-0.4-0.5-0.8-1.1-1.2c-0.8-0.5-1.8-0.7-2.9-0.7c-1.1,0-2.2,0.3-3.4,1c-1.3,0.7-1.9,1.4-1.9,2
				c0,0.6,0.4,1.2,1.2,1.6c0.6,0.4,1.3,0.6,2.1,0.6C681.8,453.7,682.7,453.6,683.6,453.3z"/>
			<path class="st16" d="M680.6,459.1c1.2-0.2,2.2-0.4,2.8-0.5c0.6-0.1,1.3-0.3,2-0.6c0.7-0.2,1.4-0.5,1.9-0.7
				c0.6-0.2,1.1-0.5,1.7-0.8c1.1-0.6,2-1.3,2.6-2c0.7-0.7,1.4-1.7,2-2.9l1.5,0.9c-0.2,1-0.6,2-1.3,2.8c-0.7,0.9-1.5,1.6-2.7,2.3
				c-0.9,0.5-2.1,1-3.5,1.5c-1.6,0.5-3.4,0.8-5.5,1L680.6,459.1z"/>
		</g>
	</g>
	<g>
		<line class="st6" x1="563.1" y1="448.5" x2="538.5" y2="462.7"/>
		<polygon class="st7" points="563.2,453.1 559.2,450.8 555.2,448.4 562.8,446.3 570.4,444.3 566.8,448.7 		"/>
		<polygon class="st8" points="563.2,453.1 559.2,450.8 555.2,448.4 562.8,446.3 570.4,444.3 566.8,448.7 		"/>
		<path class="st7" d="M541.8,464.3c-0.7,0.4-1.7,0.6-2.8,0.6c-1.1,0-2.1-0.3-2.9-0.8c-0.9-0.5-1.3-1.1-1.4-1.7
			c-0.1-0.6,0.2-1.2,1-1.6c0.7-0.4,1.7-0.6,2.8-0.6c1.1,0,2.1,0.3,3,0.8c0.8,0.5,1.3,1.1,1.4,1.7
			C542.9,463.4,542.6,463.9,541.8,464.3z"/>
	</g>
	<g>
		<g>
			<polygon class="st13" points="371.4,416.2 576.3,534.3 617.2,510.7 412.2,392.6 			"/>
			<polygon class="st11" points="371.4,416.1 371.4,439.6 576.3,557.8 576.3,534.2 			"/>
			<polygon class="st12" points="576.7,534.2 617.5,510.6 617.5,534.2 576.7,557.8 			"/>
			<polygon class="st19" points="371.4,416 371.4,439.6 576.4,557.7 576.4,534.2 			"/>
			<polygon class="st19" points="576.6,534.3 617.5,510.7 617.5,534.3 576.6,557.9 			"/>
			<polygon class="st20" points="371.7,439.7 371.7,416.1 412.5,392.5 617.5,510.6 617.5,534.2 576.6,557.8 			"/>
		</g>
		<g>
			<path class="st16" d="M406.3,415.8l9.9-5.7l4.9,2.8c1.2,0.7,2,1.3,2.4,1.7c0.4,0.4,0.5,0.9,0.4,1.3c-0.1,0.5-0.5,0.9-1.1,1.2
				c-0.7,0.4-1.6,0.6-2.6,0.6c-1,0-2.1-0.3-3.2-0.8c0.2,0.4,0.4,0.8,0.4,1.2c0,0.4-0.1,0.9-0.3,1.7l-0.5,1.9l-2.8-1.6l0.5-2.2
				c0.2-0.8,0.3-1.3,0.2-1.5c0-0.2-0.1-0.5-0.3-0.6c-0.2-0.2-0.5-0.4-1.1-0.7l-0.5-0.3l-4.1,2.4L406.3,415.8z M414.3,413.8l1.7,1
				c1.1,0.6,1.8,1,2.2,1.1c0.4,0.1,0.7,0.2,1.1,0.1c0.4,0,0.7-0.1,1-0.3c0.3-0.2,0.5-0.4,0.5-0.6c0-0.2-0.2-0.5-0.5-0.7
				c-0.2-0.1-0.7-0.5-1.7-1l-1.8-1L414.3,413.8z"/>
			<path class="st16" d="M424.9,423.9l1.9,1.4c-1,0.2-1.9,0.3-2.9,0.1s-1.9-0.5-2.8-1c-1.4-0.8-2.1-1.7-2-2.6
				c0.1-0.7,0.7-1.3,1.7-1.9c1.2-0.7,2.5-1,3.9-1c1.4,0,2.6,0.4,3.7,1c1.2,0.7,1.9,1.5,1.9,2.3c0,0.8-0.7,1.6-2.2,2.5l-5.5-3.2
				c-0.5,0.3-0.8,0.7-0.8,1.1c0,0.4,0.3,0.7,0.8,1c0.3,0.2,0.7,0.3,1.1,0.4C424,424.1,424.4,424,424.9,423.9z M426.9,422.9
				c0.5-0.3,0.8-0.7,0.8-1c0-0.3-0.3-0.6-0.7-0.9c-0.5-0.3-1-0.4-1.6-0.4s-1.2,0.1-1.7,0.4L426.9,422.9z"/>
			<path class="st16" d="M433.3,425.6l-1.7-1.3c0.9-0.3,1.8-0.3,2.7-0.2c0.9,0.1,1.9,0.5,2.9,1.1c1,0.6,1.6,1,1.9,1.4s0.4,0.7,0.2,1
				c-0.1,0.3-0.6,0.7-1.4,1.2l-2.2,1.3c-0.6,0.4-1.1,0.7-1.3,0.9s-0.4,0.5-0.6,0.8l-2.2-1.3c0.1-0.1,0.2-0.3,0.4-0.4
				c0.1-0.1,0.1-0.1,0.1-0.2c-0.7,0-1.3-0.1-1.9-0.3c-0.6-0.2-1.1-0.4-1.6-0.7c-0.9-0.5-1.3-1-1.4-1.5c-0.1-0.5,0.2-1,0.8-1.3
				c0.4-0.2,0.9-0.4,1.4-0.4c0.5-0.1,1.1,0,1.7,0.1c0.6,0.1,1.3,0.4,2.2,0.8c1.2,0.5,2.1,0.8,2.6,1l0.2-0.1c0.4-0.2,0.5-0.4,0.5-0.6
				c-0.1-0.2-0.4-0.5-0.9-0.8c-0.4-0.2-0.8-0.4-1.1-0.4C434.2,425.5,433.8,425.5,433.3,425.6z M434.7,428.2
				c-0.4-0.1-0.9-0.3-1.6-0.6c-0.7-0.3-1.2-0.5-1.5-0.5c-0.5-0.1-0.8,0-1.1,0.1c-0.3,0.2-0.4,0.4-0.3,0.6c0,0.2,0.2,0.5,0.6,0.7
				c0.4,0.2,0.9,0.4,1.5,0.5c0.4,0.1,0.8,0,1.2-0.1c0.2-0.1,0.6-0.2,1-0.5L434.7,428.2z"/>
			<path class="st16" d="M447.9,434l-2.5-1.1c0.3-0.3,0.4-0.5,0.3-0.8c-0.1-0.3-0.3-0.5-0.7-0.7c-0.5-0.3-1.1-0.5-1.8-0.5
				c-0.7,0-1.4,0.2-2.1,0.7c-0.9,0.5-1.3,0.9-1.3,1.3c0,0.4,0.2,0.8,0.8,1.1c0.4,0.2,0.9,0.4,1.3,0.4c0.5,0,1-0.1,1.6-0.3l1.8,1.4
				c-1.1,0.4-2.2,0.5-3.2,0.4c-1.1-0.1-2.1-0.5-3.2-1.1c-1.2-0.7-1.8-1.5-1.9-2.2c-0.1-0.8,0.5-1.5,1.7-2.2c1.2-0.7,2.5-1,3.9-1
				c1.4,0,2.7,0.4,3.9,1.1c1,0.6,1.6,1.2,1.8,1.7C448.5,432.8,448.4,433.4,447.9,434z"/>
			<path class="st16" d="M455.5,435.9l-1.5,0.9l-1.5-0.9l-2.9,1.7c-0.6,0.3-0.9,0.5-1,0.6c-0.1,0.1-0.1,0.2,0,0.3
				c0,0.1,0.1,0.2,0.3,0.3c0.2,0.1,0.6,0.3,1.1,0.4l-1.3,1c-0.7-0.2-1.4-0.5-2-0.8c-0.4-0.2-0.7-0.5-0.9-0.7
				c-0.2-0.2-0.3-0.5-0.3-0.7c0-0.2,0.2-0.4,0.4-0.6c0.2-0.2,0.6-0.4,1.3-0.8l3.1-1.8l-1-0.6l1.5-0.9l1,0.6l1.4-0.8l3.3,0.6L454,435
				L455.5,435.9z"/>
			<path class="st16" d="M466.5,444.7l-2.5-1.1c0.3-0.3,0.4-0.5,0.3-0.8s-0.3-0.5-0.7-0.7c-0.5-0.3-1.1-0.5-1.8-0.5
				c-0.7,0-1.4,0.2-2.1,0.7c-0.9,0.5-1.3,0.9-1.3,1.3c0,0.4,0.2,0.8,0.8,1.1c0.4,0.2,0.9,0.4,1.3,0.4c0.5,0,1-0.1,1.6-0.3l1.8,1.4
				c-1.1,0.4-2.2,0.5-3.2,0.4c-1.1-0.1-2.1-0.5-3.2-1.1c-1.2-0.7-1.9-1.5-1.9-2.2s0.5-1.5,1.7-2.2c1.2-0.7,2.5-1,3.9-1
				c1.4,0,2.7,0.4,3.9,1.1c1,0.6,1.6,1.2,1.8,1.7C467.2,443.6,467.1,444.1,466.5,444.7z"/>
			<path class="st16" d="M466.3,446.2c0.6-0.4,1.4-0.6,2.4-0.7c1-0.1,1.9-0.1,2.9,0.1c1,0.2,1.9,0.5,2.7,1c1.3,0.7,1.9,1.5,2,2.4
				c0.1,0.9-0.4,1.6-1.5,2.2c-1.1,0.6-2.4,0.9-3.9,0.9c-1.5-0.1-2.9-0.4-4.1-1.1c-0.8-0.4-1.3-0.9-1.7-1.5c-0.4-0.6-0.5-1.1-0.3-1.7
				C465,447.2,465.5,446.7,466.3,446.2z M468.5,447.6c-0.7,0.4-1.1,0.8-1.1,1.3c0,0.4,0.3,0.8,0.9,1.2c0.6,0.3,1.2,0.5,2,0.5
				c0.8,0,1.5-0.2,2.2-0.6c0.7-0.4,1.1-0.8,1-1.3c0-0.4-0.3-0.8-0.9-1.2c-0.6-0.3-1.2-0.5-2-0.5
				C469.9,446.9,469.2,447.1,468.5,447.6z"/>
			<path class="st16" d="M479.9,450l2,1.2l-1,0.6c1.5,0,2.7,0.3,3.7,0.8c0.5,0.3,0.9,0.6,1.1,1s0.2,0.7,0.1,1.1c0.7,0,1.4,0.1,2,0.2
				c0.6,0.1,1.2,0.3,1.6,0.6c0.6,0.4,1,0.7,1.2,1.1c0.2,0.4,0.2,0.7,0,1.1c-0.2,0.3-0.6,0.6-1.3,1l-4.6,2.7l-2.2-1.3l4.1-2.4
				c0.7-0.4,1.1-0.7,1.2-0.9c0.1-0.3-0.1-0.5-0.5-0.8c-0.3-0.2-0.7-0.3-1.1-0.4c-0.4-0.1-0.9,0-1.3,0.1c-0.4,0.1-1,0.4-1.7,0.8
				l-3.5,2l-2.2-1.3l3.9-2.3c0.7-0.4,1.1-0.7,1.2-0.8c0.1-0.2,0.2-0.3,0.1-0.5c-0.1-0.2-0.2-0.3-0.5-0.5c-0.3-0.2-0.7-0.3-1.2-0.4
				c-0.4-0.1-0.9,0-1.3,0.1c-0.4,0.1-1,0.4-1.7,0.8l-3.5,2l-2.2-1.3L479.9,450z"/>
			<path class="st16" d="M494.3,458.3l2,1.2l-1.1,0.6c0.6-0.1,1.3,0,2,0.1c0.7,0.1,1.3,0.4,1.8,0.7c1,0.6,1.5,1.2,1.5,2
				c0,0.8-0.6,1.5-1.7,2.2c-1.2,0.7-2.5,1-3.8,1c-1.3,0-2.5-0.3-3.5-0.8c-0.5-0.3-0.8-0.5-1-0.9c-0.2-0.3-0.3-0.7-0.4-1.1l-3.6,2.1
				l-2.2-1.3L494.3,458.3z M493,461.6c-0.8,0.5-1.2,0.9-1.2,1.4c0,0.4,0.2,0.8,0.8,1.1c0.5,0.3,1.1,0.4,1.8,0.4
				c0.7,0,1.4-0.2,2.2-0.7c0.8-0.4,1.1-0.9,1.2-1.3c0-0.4-0.2-0.8-0.7-1.1c-0.5-0.3-1.2-0.5-1.9-0.5
				C494.4,460.9,493.7,461.2,493,461.6z"/>
			<path class="st16" d="M500.1,465.7c0.6-0.4,1.4-0.6,2.4-0.7c1-0.1,1.9-0.1,2.9,0.1c1,0.2,1.9,0.5,2.7,1c1.3,0.7,1.9,1.5,2,2.4
				c0.1,0.9-0.4,1.6-1.5,2.2c-1.1,0.6-2.4,0.9-3.9,0.9c-1.5-0.1-2.9-0.4-4.1-1.1c-0.8-0.4-1.3-0.9-1.7-1.5c-0.4-0.6-0.5-1.1-0.3-1.7
				C498.8,466.7,499.3,466.2,500.1,465.7z M502.3,467.1c-0.7,0.4-1.1,0.8-1.1,1.3c0,0.4,0.3,0.8,0.9,1.2c0.6,0.3,1.2,0.5,2,0.5
				c0.8,0,1.5-0.2,2.2-0.6c0.7-0.4,1.1-0.8,1-1.3c0-0.4-0.3-0.8-0.9-1.2c-0.6-0.3-1.2-0.5-2-0.5C503.7,466.4,503,466.6,502.3,467.1z
				"/>
			<path class="st16" d="M514.2,478.1l-2.2-1.3l3.7-2.1c0.8-0.4,1.2-0.8,1.4-1c0.1-0.2,0.2-0.4,0.1-0.6c-0.1-0.2-0.3-0.4-0.6-0.5
				c-0.4-0.2-0.8-0.4-1.3-0.4s-0.9-0.1-1.3,0.1c-0.4,0.1-1,0.4-1.8,0.9l-3.3,1.9l-2.2-1.3l7.2-4.1l2,1.2l-1.1,0.6
				c1.5-0.1,2.9,0.2,4,0.9c0.5,0.3,0.9,0.6,1.1,0.9c0.2,0.3,0.4,0.6,0.3,0.9c0,0.3-0.2,0.5-0.4,0.7c-0.2,0.2-0.6,0.5-1.2,0.8
				L514.2,478.1z"/>
			<path class="st16" d="M523.6,480.9l1.9,1.4c-1,0.2-1.9,0.3-2.9,0.1s-1.9-0.5-2.8-1c-1.4-0.8-2.1-1.7-2-2.6
				c0.1-0.7,0.7-1.3,1.7-1.9c1.2-0.7,2.5-1,3.9-1c1.4,0,2.6,0.4,3.7,1c1.2,0.7,1.9,1.5,1.9,2.3s-0.7,1.6-2.2,2.5l-5.5-3.2
				c-0.5,0.3-0.8,0.7-0.8,1.1c0,0.4,0.3,0.7,0.8,1c0.3,0.2,0.7,0.3,1.1,0.4C522.6,481.1,523.1,481,523.6,480.9z M525.6,479.8
				c0.5-0.3,0.8-0.7,0.8-1c0-0.3-0.3-0.6-0.7-0.9c-0.5-0.3-1-0.4-1.6-0.4s-1.2,0.1-1.7,0.4L525.6,479.8z"/>
			<path class="st16" d="M532.9,488.9l-2.2-1.3l3.7-2.1c0.8-0.4,1.2-0.8,1.4-1c0.1-0.2,0.2-0.4,0.1-0.6c-0.1-0.2-0.3-0.4-0.6-0.5
				c-0.4-0.2-0.8-0.4-1.3-0.4s-0.9-0.1-1.3,0.1c-0.4,0.1-1,0.4-1.8,0.9l-3.3,1.9l-2.2-1.3l7.2-4.1l2,1.2l-1.1,0.6
				c1.5-0.1,2.9,0.2,4,0.9c0.5,0.3,0.9,0.6,1.1,0.9s0.4,0.6,0.3,0.9c0,0.3-0.2,0.5-0.4,0.7c-0.2,0.2-0.6,0.5-1.2,0.8L532.9,488.9z"
				/>
			<path class="st16" d="M546.1,488.2l-1.5,0.9l-1.5-0.9l-2.9,1.7c-0.6,0.3-0.9,0.5-1,0.6s-0.1,0.2,0,0.3c0,0.1,0.1,0.2,0.3,0.3
				c0.2,0.1,0.6,0.3,1.1,0.4l-1.3,1c-0.7-0.2-1.4-0.5-2-0.8c-0.4-0.2-0.7-0.5-0.9-0.7c-0.2-0.2-0.3-0.5-0.3-0.7
				c0-0.2,0.2-0.4,0.4-0.6c0.2-0.2,0.6-0.4,1.3-0.8l3.1-1.8l-1-0.6l1.5-0.9l1,0.6l1.4-0.8l3.3,0.6l-2.5,1.5L546.1,488.2z"/>
			<path class="st16" d="M541.7,491.6l2.5,1.1c-0.3,0.3-0.4,0.5-0.3,0.8c0.1,0.3,0.4,0.6,0.9,0.9c0.6,0.3,1.1,0.5,1.6,0.6
				c0.3,0,0.6,0,0.8-0.1c0.1-0.1,0.2-0.2,0.2-0.3c0-0.1-0.2-0.3-0.5-0.6c-1.4-1.2-2.2-2-2.4-2.5c-0.3-0.6-0.1-1.1,0.6-1.5
				c0.6-0.4,1.4-0.5,2.4-0.4c1,0.1,2.1,0.5,3.3,1.2c1.1,0.7,1.8,1.2,2.1,1.7c0.2,0.5,0.1,1-0.3,1.5l-2.4-1c0.2-0.2,0.2-0.4,0.1-0.7
				c-0.1-0.2-0.4-0.5-0.8-0.7c-0.6-0.3-1.1-0.5-1.5-0.6c-0.3,0-0.5,0-0.6,0.1c-0.1,0.1-0.2,0.2-0.1,0.3c0.1,0.2,0.6,0.7,1.5,1.5
				c0.9,0.8,1.5,1.4,1.6,1.9c0.1,0.5-0.1,0.9-0.7,1.2c-0.7,0.4-1.5,0.5-2.7,0.4c-1.1-0.1-2.3-0.5-3.5-1.2c-1.1-0.7-1.8-1.3-2.1-1.9
				S541.3,492.1,541.7,491.6z"/>
			<path class="st16" d="M554.5,504.8l-1.5-0.9c0.2-1.1,0.7-2,1.4-2.9c0.7-0.9,1.6-1.6,2.6-2.2c1.3-0.8,2.8-1.3,4.5-1.7
				c1.5-0.3,3-0.5,4.5-0.6l1.5,0.9c-2.1,0.4-3.7,0.8-5,1.2c-1.2,0.4-2.4,0.9-3.5,1.5c-0.7,0.4-1.4,0.9-2,1.5
				c-0.6,0.5-1.1,1.1-1.6,1.7C555.3,503.4,554.9,504,554.5,504.8z"/>
			<path class="st16" d="M559.2,504.1l9.9-5.7l7.9,4.5l-1.7,1l-5.5-3.2l-2.3,1.4l4.8,2.8l-1.7,1l-4.8-2.8l-4.2,2.4L559.2,504.1z"/>
			<path class="st16" d="M568.9,509.7l9.9-5.7l8.5,4.9l-1.7,1l-6.2-3.6l-2.2,1.3l5.8,3.3l-1.7,1l-5.8-3.3l-2.7,1.6l6.4,3.7l-1.7,1
				L568.9,509.7z"/>
			<path class="st16" d="M576.1,517.2c1.2-0.2,2.2-0.4,2.8-0.5c0.6-0.1,1.3-0.3,2-0.6s1.4-0.5,1.9-0.7c0.6-0.2,1.1-0.5,1.7-0.8
				c1.1-0.6,2-1.3,2.6-2c0.7-0.7,1.4-1.7,2-2.9l1.5,0.9c-0.2,1-0.6,2-1.3,2.8c-0.7,0.9-1.5,1.6-2.7,2.3c-0.9,0.5-2.1,1-3.5,1.5
				c-1.6,0.5-3.4,0.8-5.5,1L576.1,517.2z"/>
		</g>
	</g>
	<g>
		<line class="st6" x1="670.1" y1="387.1" x2="645.6" y2="401.2"/>
		<polygon class="st7" points="670.2,391.6 666.2,389.3 662.2,387 669.8,384.9 677.5,382.8 673.9,387.2 		"/>
		<polygon class="st8" points="670.2,391.6 666.2,389.3 662.2,387 669.8,384.9 677.5,382.8 673.9,387.2 		"/>
		<path class="st7" d="M648.9,402.9c-0.7,0.4-1.7,0.6-2.8,0.6c-1.1,0-2.1-0.3-2.9-0.8c-0.9-0.5-1.3-1.1-1.4-1.7
			c-0.1-0.6,0.2-1.2,1-1.6c0.7-0.4,1.7-0.6,2.8-0.6c1.1,0,2.1,0.3,3,0.8c0.8,0.5,1.3,1.1,1.4,1.7
			C649.9,401.9,649.6,402.5,648.9,402.9z"/>
	</g>
	<g>
		<line class="st6" x1="772.6" y1="326.9" x2="748.1" y2="341.1"/>
		<polygon class="st7" points="772.7,331.5 768.7,329.2 764.7,326.8 772.3,324.8 780,322.7 776.4,327.1 		"/>
		<polygon class="st8" points="772.7,331.5 768.7,329.2 764.7,326.8 772.3,324.8 780,322.7 776.4,327.1 		"/>
		<path class="st7" d="M751.4,342.7c-0.7,0.4-1.7,0.6-2.8,0.6c-1.1,0-2.1-0.3-2.9-0.8c-0.9-0.5-1.3-1.1-1.4-1.7
			c-0.1-0.6,0.2-1.2,1-1.6c0.7-0.4,1.7-0.6,2.8-0.6c1.1,0,2.1,0.3,3,0.8c0.8,0.5,1.3,1.1,1.4,1.7
			C752.4,341.8,752.1,342.3,751.4,342.7z"/>
	</g>
	<g>
		<g>
			<g>
				<polygon class="st11" points="749.3,188.4 749.3,223.3 831.1,270.2 831.1,235.4 821,217.9 759.4,182.6 				"/>
				<polygon class="st12" points="841.2,217.9 861.4,206.3 871.4,212.1 871.4,247 831.2,270.2 831.2,235.4 				"/>
				<polygon class="st13" points="759.4,182.6 821,217.9 841.1,217.9 861.3,206.3 861.3,194.7 799.6,159.3 779.5,159.3 759.4,171 
									"/>
				<polygon class="st13" points="821.6,217.9 841.7,217.9 831.6,235.4 				"/>
				<polygon class="st11" points="759.5,170.5 759.5,182.1 749.5,188 				"/>
				<polygon class="st11" points="861.3,205.9 861.3,194.2 871.3,211.7 				"/>
				<polygon class="st14" points="821.2,217.9 841.3,217.9 831.3,235.4 				"/>
				<polygon class="st14" points="749.3,188.4 749.3,223.3 831.1,270.2 831.1,235.4 821,217.9 759.4,182.6 				"/>
				<polygon class="st14" points="841.4,217.9 861.5,206.3 871.6,212.1 871.6,247 831.3,270.2 831.3,235.4 				"/>
				<polygon class="st14" points="759.4,182.6 821,217.9 841.1,217.9 861.3,206.3 861.3,194.7 799.6,159.3 779.5,159.3 759.4,171 
									"/>
				<polygon class="st15" points="749.7,223.3 749.7,188.4 759.8,171 779.9,159.3 800,159.3 861.7,194.7 871.7,212.1 871.7,247 
					831.5,270.2 				"/>
			</g>
		</g>
		<g>
			<path class="st16" d="M773.6,173.8l12.4-7.2l4.3,2.5l-5.9,6.4l11-3.4l4.3,2.5l-12.4,7.2l-2.7-1.6l9.8-5.6l-12.6,4l-2.8-1.6
				l6.9-7.3l-9.8,5.6L773.6,173.8z"/>
			<path class="st16" d="M794.3,180.4c0.8-0.5,1.8-0.8,3-0.9c1.2-0.2,2.4-0.1,3.6,0.1c1.2,0.3,2.3,0.7,3.3,1.3
				c1.6,0.9,2.4,1.9,2.5,3c0.1,1.1-0.5,2-1.8,2.8c-1.4,0.8-3,1.1-4.9,1.1c-1.9-0.1-3.6-0.5-5.2-1.4c-1-0.5-1.7-1.2-2.2-1.9
				s-0.6-1.4-0.3-2.1C792.6,181.6,793.2,181,794.3,180.4z M797,182.1c-0.9,0.5-1.3,1-1.3,1.6c0,0.6,0.4,1,1.1,1.5
				c0.7,0.4,1.6,0.6,2.5,0.6c1,0,1.9-0.3,2.8-0.8c0.9-0.5,1.3-1,1.3-1.6c0-0.6-0.4-1-1.1-1.5c-0.7-0.4-1.6-0.6-2.5-0.6
				C798.8,181.3,797.9,181.5,797,182.1z"/>
			<path class="st16" d="M816.2,188l-1.9,1.1l-1.9-1.1l-3.6,2.1c-0.7,0.4-1.1,0.7-1.2,0.8s-0.1,0.2-0.1,0.3c0,0.1,0.2,0.2,0.3,0.3
				c0.3,0.1,0.7,0.3,1.3,0.5l-1.6,1.2c-0.9-0.2-1.7-0.6-2.5-1c-0.5-0.3-0.9-0.6-1.1-0.9c-0.3-0.3-0.4-0.6-0.3-0.8s0.2-0.5,0.5-0.8
				c0.2-0.2,0.7-0.5,1.6-1l3.9-2.3l-1.3-0.7l1.9-1.1l1.3,0.7l1.8-1l4.1,0.8l-3.2,1.8L816.2,188z"/>
			<path class="st16" d="M813.2,191.3c0.8-0.5,1.8-0.8,3-0.9s2.4-0.1,3.6,0.1s2.3,0.7,3.3,1.3c1.6,0.9,2.4,1.9,2.5,3
				c0.1,1.1-0.5,2-1.8,2.8c-1.4,0.8-3,1.1-4.9,1.1c-1.9-0.1-3.6-0.5-5.2-1.4c-1-0.5-1.7-1.2-2.2-1.9c-0.5-0.7-0.6-1.4-0.3-2.1
				C811.5,192.5,812.1,191.9,813.2,191.3z M815.8,193c-0.9,0.5-1.3,1-1.3,1.6c0,0.6,0.4,1,1.1,1.5c0.7,0.4,1.6,0.6,2.5,0.6
				c1,0,1.9-0.3,2.8-0.8c0.9-0.5,1.3-1,1.3-1.6c0-0.6-0.4-1-1.1-1.5c-0.7-0.4-1.6-0.6-2.5-0.6C817.7,192.2,816.7,192.4,815.8,193z"
				/>
			<path class="st16" d="M824,202.9l-2.7-1.6l9-5.2l2.5,1.5l-1.3,0.7c1-0.1,1.8-0.1,2.4,0c0.5,0.1,1,0.3,1.5,0.5
				c0.6,0.4,1.1,0.8,1.4,1.3l-2.9,0.7c-0.2-0.4-0.5-0.7-0.9-1c-0.4-0.2-0.8-0.4-1.2-0.4c-0.5,0-1,0-1.6,0.2s-1.7,0.7-3.2,1.6
				L824,202.9z"/>
			<path class="st16" d="M830.8,203.8l3.1,1.4c-0.3,0.3-0.5,0.7-0.3,1c0.1,0.3,0.5,0.7,1.1,1.1c0.7,0.4,1.4,0.7,1.9,0.7
				c0.4,0,0.7,0,1-0.2c0.2-0.1,0.3-0.2,0.3-0.4c0-0.1-0.2-0.4-0.6-0.7c-1.8-1.5-2.8-2.6-3-3.1c-0.3-0.8-0.1-1.4,0.8-1.9
				c0.8-0.4,1.8-0.6,3-0.5c1.2,0.1,2.6,0.6,4.1,1.4c1.4,0.8,2.3,1.5,2.6,2.2c0.3,0.6,0.2,1.2-0.4,1.8l-3-1.3
				c0.2-0.3,0.3-0.5,0.2-0.8c-0.1-0.3-0.5-0.6-1-0.9c-0.7-0.4-1.3-0.7-1.8-0.7c-0.3,0-0.6,0-0.8,0.1c-0.2,0.1-0.2,0.2-0.2,0.4
				c0.1,0.2,0.7,0.9,1.9,1.9c1.2,1,1.8,1.8,2,2.4c0.1,0.6-0.2,1.1-0.9,1.5c-0.8,0.5-1.9,0.7-3.3,0.5c-1.4-0.1-2.9-0.6-4.4-1.5
				c-1.4-0.8-2.3-1.6-2.6-2.4C830,205.1,830.2,204.4,830.8,203.8z"/>
		</g>
	</g>
	<g>
	</g>
	<g>
	</g>
	<g>
	</g>
	<g>
	</g>
	<g>
	</g>
	<g>
	</g>
	<g>
	</g>
	<g>
	</g>
	<g>
	</g>
	<g>
	</g>
	<g>
	</g>
	<g>
	</g>
	<g>
	</g>
	<g>
	</g>
	<g>
	</g>
</g>
</svg>
