<svg xmlns="http://www.w3.org/2000/svg" xmlns:xlink="http://www.w3.org/1999/xlink" version="1.0" style="enable-background:new 0 0 20.1 29.4;" xml:space="preserve" width="20"
     height="20"><rect id="backgroundrect" width="100%" height="100%" x="0" y="0" fill="none" stroke="none" class="" style=""/>
    <style type="text/css">
	.st0{fill:#19969B;}
	.st1{fill:#D3E85E;}
</style>


    <g class="currentLayer" style=""><title>Layer 1</title>
        <g id="svg_1" class="">
	<polygon class="st0"
             points="15.100000381469727,17.68163299560547 5,17.68163299560547 0,8.981632232666016 5,0.2816324234008789 15.100000381469727,0.2816324234008789 20.100000381469727,8.981632232666016 "
             id="svg_2"/>
            <g id="svg_3">
		<path class="st1"
              d="M13.4,3.881632614135743 l-1.2,5 c1.4,-1.2 2.5,-1.8 3,-1.8 c0.1,0 0.30000000000000004,0.1 0.4,0.2 c0.1,0.1 0.2,0.30000000000000004 0.2,0.5 c0,0.2 -0.2,0.4 -0.5,0.6000000000000001 c-1.6,0.9 -2.8,1.5 -3.4,2 c-0.5,2.3 -1.1,3.8 -1.7000000000000002,4.5 c-0.8,0.9 -1.7000000000000002,1.4 -2.6,1.4 c-1.2,0 -1.7000000000000002,-0.5 -1.7000000000000002,-1.4 c0,-0.30000000000000004 0,-0.5 0.1,-0.7000000000000001 c0,-0.1 0.1,-0.2 0.1,-0.30000000000000004 c0,-0.1 0.1,-0.2 0.2,-0.30000000000000004 c0.1,-0.1 0.1,-0.2 0.2,-0.30000000000000004 c0,-0.1 0.1,-0.2 0.2,-0.30000000000000004 S7,12.781632614135741 7,12.681632614135744 s0.1,-0.1 0.2,-0.2 c0.1,-0.1 0.30000000000000004,-0.30000000000000004 0.5,-0.5 s0.6000000000000001,-0.6000000000000001 1.2,-1 c0.2,-0.2 0.5,-0.4 0.9,-0.7000000000000001 c0.4,-0.30000000000000004 0.6000000000000001,-0.5 0.8,-0.6000000000000001 l0.2,-1 c-0.2,0.30000000000000004 -0.5,0.5 -0.8,0.7000000000000001 c-0.4,0.2 -0.7000000000000001,0.30000000000000004 -1.1,0.30000000000000004 c-0.6000000000000001,0 -1.1,-0.2 -1.4,-0.6000000000000001 C7.2,8.581632614135742 7,8.081632614135742 7,7.581632614135742 c0,-1.3 0.4,-2.4 1.3,-3.4 c0.9,-1 1.9,-1.5 3,-1.5 h0.1 c0.2,0 0.4,0.1 0.5,0.2 s0.2,0.2 0.2,0.30000000000000004 c0.1,-0.1 0.30000000000000004,-0.1 0.5,-0.1 s0.4,0.1 0.5,0.2 c0.1,0.1 0.2,0.30000000000000004 0.2,0.5 L13.4,3.881632614135743 zM7.6,15.081632614135742 c0.7000000000000001,0 1.3,-0.5 1.9,-1.4 c0.5,-0.9 0.9,-1.9 1.1,-2.8 c-0.1,0.1 -0.4,0.30000000000000004 -0.7000000000000001,0.6000000000000001 c-0.30000000000000004,0.30000000000000004 -0.5,0.4 -0.7000000000000001,0.6000000000000001 c-0.2,0.1 -0.4,0.30000000000000004 -0.6000000000000001,0.5 c-0.2,0.2 -0.4,0.4 -0.6000000000000001,0.5 c-0.1,0.1 -0.30000000000000004,0.4 -0.5,0.6000000000000001 s-0.30000000000000004,0.6000000000000001 -0.30000000000000004,0.9 C7.3,14.881632614135743 7.4,15.081632614135742 7.6,15.081632614135742 zM9.4,8.181632614135744 c0.8,0 1.4,-0.7000000000000001 1.8,-2 l0.6000000000000001,-2.1 c-0.8,0 -1.6,0.4 -2.2,1.1 c-0.6000000000000001,0.7000000000000001 -0.9,1.4 -0.9,2.1 S8.9,8.181632614135744 9.4,8.181632614135744 z"
              id="svg_4"/>
	</g>
</g>
        <g id="svg_5" class="">
</g>
        <g id="svg_6" class="">
</g>
        <g id="svg_7" class="">
</g>
        <g id="svg_8" class="">
</g>
        <g id="svg_9" class="">
</g>
        <g id="svg_10" class="">
</g></g></svg>
