<?xml version="1.0" encoding="utf-8"?>
<!-- Generator: Adobe Illustrator 25.2.1, SVG Export Plug-In . SVG Version: 6.00 Build 0)  -->
<svg version="1.0" id="Layer_1" xmlns="http://www.w3.org/2000/svg" xmlns:xlink="http://www.w3.org/1999/xlink" x="0px" y="0px"
	 viewBox="0 0 144.4 67.5" style="enable-background:new 0 0 144.4 67.5;" xml:space="preserve">
<style type="text/css">
	.st0{fill:#BADF36;}
	.st1{fill:#A0D020;}
	.st2{fill:#31AFBB;}
	.st3{fill:#1EA7B6;}
	.st4{fill:#19969B;}
	.st5{fill:#7CB31C;}
</style>
<g>
	<polygon class="st0" points="15.1,57.4 5,57.4 0,48.7 5,39.9 15.1,39.9 20.1,48.7 	"/>
	<polygon class="st1" points="33.4,67.5 23.4,67.5 18.4,58.8 23.4,50.1 33.4,50.1 38.5,58.8 	"/>
	<polygon class="st2" points="33.4,25.5 23.4,25.5 18.4,16.8 23.4,8.1 33.4,8.1 38.5,16.8 	"/>
	<polygon class="st3" points="15.1,36.4 5,36.4 0,27.7 5,18.9 15.1,18.9 20.1,27.7 	"/>
	<polygon class="st4" points="33.1,47.4 23,47.4 18,38.7 23,29.9 33.1,29.9 38.1,38.7 	"/>
	<polygon class="st5" points="52.1,57.4 42,57.4 37,48.7 42,39.9 52.1,39.9 57.1,48.7 	"/>
	<g>
		<path class="st4" d="M50.2,17.4l-1.7,7.3c2.1-1.7,3.6-2.6,4.5-2.6c0.2,0,0.4,0.1,0.6,0.3c0.2,0.2,0.3,0.5,0.3,0.8
			c0,0.3-0.2,0.6-0.7,0.8c-2.4,1.3-4.1,2.3-5,2.9c-0.7,3.4-1.6,5.6-2.5,6.7c-1.2,1.3-2.4,2-3.8,2c-1.7,0-2.6-0.7-2.6-2.1
			c0-0.4,0.1-0.7,0.2-1c0.1-0.2,0.1-0.3,0.2-0.4c0.1-0.1,0.1-0.3,0.2-0.4s0.2-0.3,0.3-0.4c0.1-0.1,0.2-0.2,0.3-0.4
			c0.1-0.2,0.2-0.3,0.3-0.4s0.2-0.2,0.3-0.4c0.2-0.2,0.4-0.4,0.7-0.8c0.3-0.4,0.9-0.9,1.8-1.6c0.3-0.3,0.8-0.6,1.3-1s1-0.7,1.2-0.9
			l0.3-1.5c-0.3,0.4-0.7,0.7-1.2,1s-1.1,0.4-1.6,0.4c-0.9,0-1.6-0.3-2.1-0.9c-0.5-0.6-0.8-1.3-0.8-2.1c0-1.9,0.7-3.6,2-5
			c1.3-1.4,2.8-2.2,4.5-2.2h0.1c0.4,0,0.6,0.1,0.8,0.2c0.2,0.2,0.3,0.3,0.3,0.5c0.2-0.1,0.4-0.1,0.7-0.1c0.3,0,0.5,0.1,0.8,0.3
			c0.2,0.2,0.3,0.4,0.3,0.7L50.2,17.4z M41.7,33.9c1.1,0,2-0.7,2.8-2.1s1.3-2.8,1.6-4.1c-0.2,0.2-0.5,0.5-1,0.8
			c-0.4,0.4-0.8,0.7-1,0.9c-0.2,0.2-0.5,0.5-0.9,0.8c-0.4,0.3-0.6,0.6-0.8,0.8c-0.2,0.2-0.4,0.5-0.7,0.9c-0.3,0.4-0.4,0.8-0.4,1.3
			C41.3,33.7,41.4,33.9,41.7,33.9z M44.4,23.8c1.2,0,2.1-1,2.7-3l0.8-3.2c-1.2,0-2.3,0.5-3.2,1.6s-1.4,2.1-1.4,3.1
			C43.3,23.3,43.6,23.8,44.4,23.8z"/>
		<path class="st4" d="M55.4,25.9c-1,0-1.8-0.4-2.4-1.3s-0.8-2-0.8-3.4c0-0.4,0-0.8,0-1c0.3-3,1.1-6.1,2.4-9.4C55.2,9.3,56,8,57,7
			c1-1,2-1.5,3-1.5c0.6,0,1.1,0.2,1.5,0.6S62,7,62,7.6v0.2c-0.2,2.1-1.1,4.3-2.5,6.5c-1.5,2.3-3.1,4.1-4.9,5.5
			c-0.1,0.7-0.1,1.2-0.1,1.5c0,1.7,0.5,2.5,1.5,2.5c1,0,2.2-0.7,3.4-2.2c0.1-0.1,0.3-0.2,0.5-0.2c0.2,0,0.4,0.1,0.6,0.3
			c0.2,0.2,0.3,0.4,0.3,0.7s-0.1,0.5-0.4,0.8C58.9,25,57.2,25.9,55.4,25.9z M59.2,8c-0.9,0-1.7,1.1-2.6,3.3
			c-0.9,2.2-1.5,4.3-1.8,6.3c1.2-1.4,2.3-2.9,3.4-4.6c1-1.7,1.5-3.2,1.6-4.3C59.7,8.2,59.6,8,59.2,8z"/>
		<path class="st4" d="M62.3,25.9c-1,0-1.9-0.4-2.5-1.1s-1-1.7-1-2.8c0-1.7,0.6-3.2,1.7-4.5c1.1-1.3,2.4-2,3.9-2
			c0.9,0,1.6,0.3,2.2,0.9c0.6,0.6,0.9,1.4,0.9,2.4c0,0.2,0,0.5-0.1,1c1.3-0.2,2.7-1.1,4-2.6c0.1-0.1,0.2-0.1,0.3-0.1
			c0.1,0,0.3,0.1,0.4,0.3c0.1,0.2,0.2,0.4,0.2,0.6c0,0.2,0,0.3-0.1,0.4c-1.4,1.7-3.1,2.9-5.1,3.4C66.3,24.6,64.7,25.9,62.3,25.9z
			 M62.8,24c0.5,0,1-0.3,1.5-0.9c0.5-0.6,0.7-1.2,0.8-1.8c-0.8-0.3-1.1-0.8-1.1-1.3s0.3-1,0.8-1.6c0-0.3-0.1-0.5-0.2-0.6
			c-0.1-0.1-0.3-0.2-0.5-0.2c-0.8,0-1.5,0.5-2,1.4c-0.6,0.9-0.8,1.9-0.8,2.9C61.2,23.3,61.7,24,62.8,24z"/>
		<path class="st4" d="M85.5,20.5c-0.8,1.9-1.9,3.3-3.2,4.4c-1,0.8-2.1,1.3-3.2,1.3c-1.4,0-2.3-0.8-2.6-2.5
			c-1.1,1.7-2.3,2.5-3.6,2.5c-1,0-1.8-0.3-2.4-1c-0.6-0.7-0.9-1.6-0.9-2.8s0.3-2.3,0.8-3.3c0.2-0.5,0.5-0.9,0.7-1.2
			c0.2-0.3,0.4-0.7,0.7-1c0.2-0.4,0.4-0.6,0.4-0.6c0.4-0.5,0.7-0.8,1.1-0.8s0.7,0.1,0.9,0.3c0.2,0.2,0.4,0.4,0.4,0.5
			c0,0.1,0,0.2-0.1,0.3c-0.2,0.3-0.4,0.5-0.5,0.7c-0.1,0.2-0.3,0.4-0.4,0.6c-1,1.4-1.5,2.9-1.5,4.3c0,1.3,0.4,2,1.2,2
			c1,0,2.2-1.4,3.4-4.2l0.5-1.1c0.5-1.8,1-2.8,1.6-2.8h0.1c0.7,0,1.1,0.2,1.1,0.7c0,0.3-0.2,1-0.7,2c-0.6,1.3-1,2.5-1,3.6
			c0,1.2,0.4,1.9,1.3,1.9c0.7,0,1.4-0.3,2.1-1c0.7-0.7,1.3-1.5,1.7-2.6c0.1-0.1,0.2-0.3,0.3-0.6c-0.7-0.4-1.3-0.9-1.8-1.5
			c-0.4-0.6-0.6-1.3-0.6-2s0.2-1.3,0.7-1.8c0.5-0.5,1.2-0.7,2.1-0.7c0.7,0,1.3,0.3,1.8,0.9c0.4,0.5,0.7,1.2,0.7,2
			c0,0.8-0.1,1.5-0.2,2c0.9,0,1.9-0.2,3-0.6c0.2-0.1,0.3-0.2,0.5-0.2c0.2,0,0.3,0.1,0.5,0.3c0.1,0.2,0.2,0.4,0.2,0.7
			s-0.2,0.5-0.5,0.6c-1.4,0.6-2.6,0.9-3.8,0.9L85.5,20.5z M82.9,16.8c0,0.7,0.4,1.3,1.1,1.7c0.2-0.7,0.4-1.3,0.4-1.7
			c0-0.7-0.2-1.1-0.7-1.1c-0.2,0-0.4,0.1-0.6,0.3C83,16.3,82.9,16.5,82.9,16.8z"/>
		<path class="st4" d="M97,8.2c-0.1,1.2-0.7,2.7-1.7,4.5c-1,1.8-2,3.1-3.1,3.9l0.3-0.2c0.6-0.4,1.3-0.6,2.2-0.6
			c0.5,0,0.9,0.3,1.4,0.8c0.4,0.5,0.7,1.2,0.7,2.1c0,0.6,0,1.1-0.1,1.6c0.6-0.1,1.2-0.3,1.9-0.8s1.1-0.7,1.1-0.7
			c0.5,0,0.7,0.3,0.7,0.8c0,0.3-0.1,0.6-0.4,0.8c-0.8,0.8-2.1,1.3-3.7,1.5c-0.8,2.7-2.5,4-4.9,4c-1.3,0-2.3-0.4-3.1-1.2
			c-0.8-0.8-1.2-1.8-1.2-3.1v-0.2c0.1-2.3,0.5-4.7,1.1-7.1c0.7-2.4,1.6-4.5,2.8-6.2c1.2-1.7,2.5-2.6,4-2.6c0.7,0,1.2,0.2,1.5,0.7
			c0.3,0.4,0.5,1,0.5,1.7L97,8.2z M94.2,8c-0.6,0-1.2,0.6-1.9,1.9c-0.7,1.3-1.2,2.6-1.7,4.1c-0.4,1.4-0.7,2.7-0.8,3.6
			c0.5-0.7,1-1.3,1.3-1.7c0.1-0.2,0.4-0.5,0.7-0.9c0.3-0.4,0.6-0.8,0.7-1c0.1-0.2,0.4-0.6,0.6-1c1-1.5,1.5-2.9,1.5-4V8.7
			C94.7,8.2,94.5,8,94.2,8z M91.8,23.9c1.1,0,1.8-0.7,2.4-2.2c-0.6-0.2-0.9-0.7-0.9-1.4c0-0.3,0.1-0.6,0.4-0.8
			c0.2-0.3,0.5-0.4,0.9-0.5v-0.1c0-0.4-0.1-0.8-0.3-1c-0.2-0.2-0.6-0.3-1.1-0.3c-0.9,0-1.6,0.4-2.2,1.2c-0.6,0.8-0.9,1.7-0.9,2.7
			C89.9,23.1,90.5,23.9,91.8,23.9z"/>
		<path class="st4" d="M108.1,16.6c-0.7,2.2-1.2,4.2-1.4,6.2l0,0.4c0,0.5,0.1,0.7,0.4,0.7c0.7,0,1.5-0.6,2.6-1.8
			c0.3-0.2,0.5-0.3,0.7-0.3s0.4,0.1,0.6,0.4c0.2,0.2,0.4,0.5,0.4,0.7c0,0.5-0.6,1.1-1.9,1.9c-1.3,0.8-2.3,1.2-3.1,1.2
			c-1.2,0-1.8-0.6-1.9-1.8l0.1-1c-0.2,0.6-0.7,1.3-1.3,1.9s-1.4,0.9-2.3,0.9s-1.6-0.3-2-0.9c-0.4-0.6-0.7-1.4-0.7-2.3
			c0-1.2,0.2-2.5,0.6-3.9s0.8-2.2,1-2.7c0.2-0.4,0.6-0.6,1-0.6c0.4,0,0.7,0.1,0.9,0.2c0.2,0.2,0.3,0.3,0.3,0.4
			c0,0.1-0.2,0.9-0.7,2.3c-0.5,1.4-0.8,2.6-0.9,3.7v0.2c0,1,0.4,1.5,1.1,1.5c0.6,0,1.1-0.3,1.7-1c0.6-0.7,1-1.5,1.4-2.7l0.8-3.1
			c0.2-0.7,0.4-1.1,0.6-1.3c0.2-0.2,0.5-0.3,0.8-0.3s0.6,0.1,0.8,0.3c0.2,0.2,0.3,0.4,0.3,0.6L108.1,16.6z"/>
		<path class="st4" d="M115.4,16c0.3,0,0.6,0.1,0.8,0.3c0.2,0.2,0.3,0.4,0.3,0.6c0,0.7-0.1,1.3-0.4,1.6c-0.3,0.3-2,1.9-5.3,4.8
			c0,0.2,0.1,0.5,0.4,0.6c0.3,0.2,0.6,0.2,1.1,0.2c1.3,0,3.1-0.6,5.2-1.9c0,0,0.1,0,0.2,0c0.1,0,0.2,0.1,0.3,0.3
			c0.1,0.2,0.1,0.4,0.1,0.7s-0.1,0.5-0.3,0.7c-1.9,1.4-3.9,2.2-5.8,2.2c-1,0-1.8-0.2-2.4-0.6c-0.6-0.4-0.9-1-0.9-1.7
			c0-0.7,0.4-1.4,1.2-2.1l4.6-3.9c-2.1,0.2-3.6,0.2-4.5,0.2c-0.1,0-0.2-0.1-0.4-0.4c-0.1-0.2-0.2-0.5-0.2-0.8c0-0.5,0.3-0.8,0.8-0.8
			L115.4,16z"/>
		<path class="st4" d="M122.7,16c0.3,0,0.6,0.1,0.8,0.3c0.2,0.2,0.3,0.4,0.3,0.6c0,0.7-0.1,1.3-0.4,1.6c-0.3,0.3-2,1.9-5.3,4.8
			c0,0.2,0.1,0.5,0.4,0.6c0.3,0.2,0.6,0.2,1.1,0.2c1.3,0,3.1-0.6,5.2-1.9c0,0,0.1,0,0.2,0c0.1,0,0.2,0.1,0.3,0.3
			c0.1,0.2,0.1,0.4,0.1,0.7s-0.1,0.5-0.3,0.7c-1.9,1.4-3.9,2.2-5.8,2.2c-1,0-1.8-0.2-2.4-0.6c-0.6-0.4-0.9-1-0.9-1.7
			c0-0.7,0.4-1.4,1.2-2.1l4.6-3.9c-2.1,0.2-3.6,0.2-4.5,0.2c-0.1,0-0.2-0.1-0.4-0.4c-0.1-0.2-0.2-0.5-0.2-0.8c0-0.5,0.3-0.8,0.8-0.8
			L122.7,16z"/>
		<path class="st4" d="M123.8,21.8c0-1.5,0.5-2.9,1.5-4.3c1-1.3,2.2-2,3.6-2c0.8,0,1.5,0.2,2.1,0.7c0.6,0.5,0.8,1.1,0.8,1.9
			c0,1.1-0.5,2.1-1.4,2.8s-2.3,1.3-4.2,1.6c0.3,0.9,1,1.3,2.2,1.3c1.7,0,3.2-0.7,4.7-2.1c0.1-0.1,0.2-0.1,0.4-0.1
			c0.2,0,0.3,0.1,0.5,0.2c0.2,0.1,0.2,0.3,0.2,0.5c0,0.2-0.1,0.4-0.2,0.6c-0.5,0.7-1.3,1.4-2.4,2c-1.1,0.6-2.3,0.9-3.5,0.9
			c-1.2,0-2.2-0.4-3.1-1.1C124.3,24.2,123.8,23.2,123.8,21.8z M129,17.6c-0.7,0-1.3,0.4-1.9,1.2c-0.6,0.8-0.9,1.6-0.9,2.5
			c2.6-0.9,3.9-1.8,3.9-2.8C130,17.9,129.7,17.6,129,17.6z"/>
		<path class="st4" d="M135.3,21.9c0.4-1.2,1.1-2.5,2.1-4c1-1.5,1.9-2.3,2.5-2.3c0.9,0,1.4,0.4,1.4,1.1c0,0.5-0.1,1-0.3,1.6
			s-0.3,0.9-0.3,1.1c0,0.3,0.2,0.5,0.7,0.5s1.2-0.3,2.2-0.9c0,0,0.1,0,0.2,0s0.3,0.1,0.5,0.3s0.3,0.4,0.3,0.6s0,0.3-0.1,0.4
			c-1.2,1.1-2.4,1.7-3.6,1.7c-1.4,0-2.1-0.6-2.1-1.8c0,0,0.2-0.7,0.5-2c0,0-0.2,0.2-0.5,0.7c-1,1.6-1.9,3.7-2.9,6.2
			c-0.3,0.5-0.7,0.8-1.3,0.8c-0.8,0-1.3-0.7-1.3-2v-0.2c0-2.2,0.3-4.4,1-6.5c0.3-0.9,0.8-1.4,1.5-1.4c0.3,0,0.5,0.1,0.7,0.2
			c0.2,0.2,0.2,0.4,0.2,0.6L135.3,21.9z"/>
	</g>
</g>
<g>
</g>
<g>
</g>
<g>
</g>
<g>
</g>
<g>
</g>
<g>
</g>
</svg>
