<?xml version="1.0" encoding="utf-8"?>
<!-- Generator: Adobe Illustrator 27.0.0, SVG Export Plug-In . SVG Version: 6.00 Build 0)  -->
<svg version="1.1" id="Layer_1" xmlns="http://www.w3.org/2000/svg" xmlns:xlink="http://www.w3.org/1999/xlink" x="0px" y="0px"
	 viewBox="0 0 376.08 112.32" style="enable-background:new 0 0 376.08 112.32;" xml:space="preserve">
<g>
	<path d="M46.9,58.9c0.4,0.67,0.6,1.52,0.6,2.54c0,1.24-0.19,2.2-0.56,2.9c-0.38,0.7-0.97,1.32-1.77,1.85
		c-4.62,3.11-8,5.42-10.14,6.93l-5.15,3.46c-2.04,11.11-4.71,19.85-8.01,26.21c-3.3,6.36-7.5,9.54-12.6,9.54
		c-2.74,0-4.97-0.85-6.68-2.54c-1.72-1.69-2.58-3.9-2.58-6.64c0-3.81,1.5-7.91,4.51-12.28c3.01-4.38,8.64-9.76,16.91-16.14
		l0.48-3.14c-0.91,1.45-2.11,2.56-3.58,3.34c-1.48,0.78-2.94,1.17-4.39,1.17c-3.33,0-5.99-1.21-7.97-3.62
		c-1.99-2.41-2.98-5.58-2.98-9.5c0-4.29,0.99-8.36,2.98-12.2c1.99-3.84,4.63-6.92,7.93-9.26c3.3-2.34,6.8-3.5,10.51-3.5
		c1.18,0,1.97,0.23,2.38,0.69c0.4,0.46,0.74,1.28,1.01,2.46c1.02-0.21,2.2-0.32,3.54-0.32c1.34,0,2.29,0.2,2.86,0.6
		c0.56,0.4,0.85,1.2,0.85,2.38c0,0.64-0.03,1.15-0.08,1.53c-0.21,1.66-0.89,5.88-2.01,12.64c-0.21,1.29-0.44,2.7-0.68,4.23
		c-0.24,1.53-0.5,3.15-0.76,4.87c4.13-3.22,8.1-6.07,11.92-8.54c0.7-0.43,1.32-0.64,1.85-0.64C45.95,57.89,46.5,58.23,46.9,58.9z
		 M14.69,99.68c1.69-3.22,3.31-8.35,4.87-15.38c-4.13,3.54-7.11,6.74-8.94,9.58c-1.83,2.84-2.74,5.34-2.74,7.49
		c0,0.91,0.17,1.66,0.52,2.25c0.35,0.59,0.93,0.89,1.73,0.89C11.49,104.51,13,102.9,14.69,99.68z M20.37,65.7
		c1.13-1.5,1.93-3.65,2.42-6.44l2.58-13.77c-2.2,0.05-4.24,0.9-6.12,2.54c-1.88,1.64-3.38,3.8-4.51,6.48
		c-1.13,2.69-1.69,5.53-1.69,8.54c0,1.66,0.34,2.9,1.01,3.7c0.67,0.8,1.6,1.21,2.78,1.21C18.06,67.96,19.24,67.2,20.37,65.7z"/>
	<path d="M74.76,58.7c0.4,0.64,0.6,1.53,0.6,2.66c0,2.15-0.51,3.81-1.53,4.99c-2.31,2.85-4.82,5.18-7.53,7
		c-2.71,1.83-5.79,2.74-9.22,2.74c-4.72,0-8.23-2.15-10.51-6.44c-2.28-4.29-3.42-9.85-3.42-16.67c0-6.55,0.85-14.01,2.54-22.38
		c1.69-8.37,4.19-15.57,7.49-21.58C56.48,3.01,60.41,0,64.98,0c2.58,0,4.6,1.2,6.08,3.58c1.48,2.39,2.21,5.81,2.21,10.26
		c0,6.39-1.77,13.8-5.31,22.22c-3.54,8.43-8.35,16.78-14.41,25.04c0.38,2.2,0.99,3.77,1.85,4.71c0.86,0.94,1.99,1.41,3.38,1.41
		c2.2,0,4.13-0.63,5.8-1.89c1.66-1.26,3.78-3.42,6.36-6.48c0.64-0.75,1.37-1.13,2.17-1.13C73.8,57.73,74.36,58.05,74.76,58.7z
		 M59.02,14.65c-1.56,4.46-2.93,9.98-4.11,16.59c-1.18,6.6-1.83,12.94-1.93,19c3.81-6.28,6.84-12.57,9.1-18.88
		c2.25-6.31,3.38-12.06,3.38-17.27c0-4.08-0.75-6.12-2.25-6.12C61.97,7.97,60.57,10.2,59.02,14.65z"/>
	<path d="M111.51,52.01c0.37,0.7,0.56,1.58,0.56,2.66c0,2.58-0.78,4.11-2.33,4.59c-3.22,1.13-6.76,1.77-10.63,1.93
		c-1.02,4.51-3.03,8.12-6.04,10.83c-3.01,2.71-6.42,4.07-10.23,4.07c-3.22,0-5.97-0.78-8.25-2.34c-2.28-1.56-4.01-3.62-5.19-6.2
		c-1.18-2.58-1.77-5.37-1.77-8.37c0-4.08,0.78-7.72,2.34-10.91c1.56-3.19,3.7-5.69,6.44-7.49c2.74-1.8,5.77-2.7,9.1-2.7
		c4.08,0,7.37,1.41,9.86,4.23c2.5,2.82,3.96,6.29,4.39,10.43c2.52-0.16,5.53-0.7,9.02-1.61c0.43-0.11,0.81-0.16,1.13-0.16
		C110.6,50.97,111.14,51.32,111.51,52.01z M87.96,65.46c1.26-1.39,2.11-3.41,2.54-6.04c-1.66-1.13-2.94-2.6-3.83-4.43
		c-0.89-1.82-1.33-3.76-1.33-5.8c0-0.86,0.08-1.72,0.24-2.58h-0.4c-2.15,0-3.93,1.03-5.35,3.1c-1.42,2.07-2.13,4.98-2.13,8.74
		c0,2.95,0.58,5.21,1.73,6.76c1.15,1.56,2.51,2.34,4.07,2.34C85.21,67.55,86.7,66.86,87.96,65.46z"/>
	<path d="M166.82,51.13c0.8,0,1.42,0.27,1.85,0.81c0.43,0.54,0.64,1.26,0.64,2.17c0,1.66-0.32,2.97-0.97,3.91
		c-0.64,0.94-1.61,1.62-2.9,2.05c-2.47,0.8-5.1,1.21-7.89,1.21c-2.36,0-4.59-0.32-6.68-0.97c-1.56,2.52-3.27,5.13-5.15,7.81
		c-2.15,3.06-3.99,5.15-5.52,6.28c-1.53,1.13-3.26,1.69-5.19,1.69c-2.15,0-3.77-0.83-4.87-2.5c-1.1-1.66-1.78-4.4-2.05-8.21
		l-0.4-5.88c-1.66,4.51-3.15,7.94-4.47,10.31c-1.32,2.36-2.63,4-3.95,4.91c-1.32,0.91-2.86,1.37-4.63,1.37
		c-2.2,0-3.93-0.86-5.19-2.58c-1.26-1.72-2.05-4.43-2.38-8.13c-0.64-7.51-0.97-14.09-0.97-19.73v-2.82c0.05-1.77,0.54-3.01,1.45-3.7
		c0.91-0.7,2.28-1.05,4.11-1.05c1.4,0,2.43,0.31,3.1,0.93c0.67,0.62,1.01,1.65,1.01,3.1c0,6.17,0.38,14.2,1.13,24.07
		c3.65-7.68,7-15.67,10.06-23.99c0.59-1.61,1.3-2.7,2.13-3.26c0.83-0.56,1.84-0.85,3.02-0.85c1.45,0,2.46,0.3,3.02,0.89
		c0.56,0.59,0.85,1.64,0.85,3.14c0,6.17,0.38,14.2,1.13,24.07c3.22-4.78,5.64-8.59,7.25-11.43c-0.8-1.56-1.21-3.41-1.21-5.56
		c0-1.82,0.4-3.6,1.21-5.31c0.8-1.72,1.9-3.11,3.3-4.19c1.39-1.07,2.98-1.61,4.75-1.61c1.56,0,2.82,0.55,3.78,1.65
		c0.97,1.1,1.45,2.7,1.45,4.79c0,2.42-0.64,5.18-1.93,8.29c2.04-0.11,4.75-0.51,8.13-1.21l2.17-0.4
		C166.18,51.16,166.45,51.13,166.82,51.13z"/>
	<path d="M206.76,52.01c0.37,0.7,0.56,1.58,0.56,2.66c0,1.34-0.19,2.38-0.56,3.1c-0.38,0.72-0.97,1.22-1.77,1.49
		c-3.22,1.13-6.76,1.77-10.63,1.93c-1.07,4.46-3.1,8.05-6.08,10.79c-2.98,2.74-6.27,4.11-9.86,4.11c-5.42,0-9.37-2.07-11.84-6.2
		c-2.47-4.13-3.7-10.12-3.7-17.95c0-6.93,0.86-14.45,2.58-22.58c1.72-8.13,4.23-15.06,7.53-20.77c3.3-5.72,7.23-8.58,11.8-8.58
		c2.47,0,4.45,1.06,5.96,3.18c1.5,2.12,2.25,4.87,2.25,8.25c0,4.4-0.83,8.78-2.5,13.12c-1.66,4.35-4.43,8.91-8.29,13.69
		c3.6,0.27,6.52,1.76,8.78,4.47c2.25,2.71,3.6,6.05,4.03,10.02c2.52-0.16,5.53-0.7,9.02-1.61c0.32-0.11,0.7-0.16,1.13-0.16
		C205.85,50.97,206.38,51.32,206.76,52.01z M183.17,65.46c1.29-1.39,2.15-3.41,2.58-6.04c-1.66-1.13-2.94-2.6-3.82-4.43
		c-0.89-1.82-1.33-3.76-1.33-5.8c0-0.75,0.11-1.77,0.32-3.06h-0.24c-2.2,0-4.04,1.09-5.52,3.26s-2.21,5.09-2.21,8.74
		c0,3.06,0.58,5.39,1.73,7c1.15,1.61,2.51,2.42,4.07,2.42C180.4,67.55,181.88,66.86,183.17,65.46z M179.42,12.76
		c-1.26,3.19-2.43,7.53-3.5,13c-1.07,5.47-1.88,11.46-2.42,17.95c3.54-6.49,6.37-12.22,8.49-17.19c2.12-4.96,3.18-9.38,3.18-13.24
		c0-1.72-0.2-3.03-0.6-3.95c-0.4-0.91-0.95-1.37-1.65-1.37C181.85,7.97,180.68,9.57,179.42,12.76z"/>
	<path d="M202.69,72.75c-1.53-2.23-2.29-5-2.29-8.33c0-4.03,0.27-7.72,0.8-11.07c0.54-3.35,1.42-6.91,2.66-10.67
		c0.54-1.61,1.29-2.76,2.25-3.46c0.97-0.7,2.5-1.05,4.59-1.05c1.18,0,2,0.19,2.46,0.56c0.46,0.38,0.69,0.94,0.69,1.69
		c0,0.43-0.3,1.88-0.89,4.35c-0.54,1.99-0.97,3.78-1.29,5.39c-1.07,5.64-1.61,9.39-1.61,11.27c0,1.13,0.13,1.92,0.4,2.38
		c0.27,0.46,0.7,0.68,1.29,0.68c0.8,0,1.81-0.8,3.02-2.41c1.21-1.61,2.5-4.05,3.86-7.33c1.37-3.27,2.7-7.3,3.99-12.08
		c0.43-1.61,1.09-2.76,1.97-3.46c0.89-0.7,2.21-1.05,3.99-1.05c1.23,0,2.09,0.15,2.58,0.44c0.48,0.3,0.72,0.85,0.72,1.65
		c0,1.34-0.67,5.02-2.01,11.03c-1.5,6.87-2.25,11.11-2.25,12.72c0,1.02,0.21,1.81,0.64,2.37c0.43,0.56,0.99,0.85,1.69,0.85
		c1.07,0,2.35-0.66,3.82-1.97c1.48-1.31,3.45-3.45,5.92-6.4c0.64-0.75,1.37-1.13,2.17-1.13c0.7,0,1.25,0.32,1.65,0.97
		c0.4,0.64,0.6,1.53,0.6,2.66c0,2.15-0.51,3.81-1.53,4.99c-2.31,2.85-4.79,5.18-7.45,7c-2.66,1.83-5.68,2.74-9.06,2.74
		c-2.58,0-4.47-0.99-5.68-2.98c-1.21-1.99-1.81-4.78-1.81-8.37c-0.91,3.65-2.28,6.46-4.11,8.41c-1.83,1.96-3.78,2.94-5.88,2.94
		C206.19,76.09,204.22,74.97,202.69,72.75z"/>
	<path d="M277.81,58.7c0.4,0.64,0.6,1.53,0.6,2.66c0,1.99-0.51,3.65-1.53,4.99c-2.52,3.27-5.65,5.85-9.38,7.73
		c-3.73,1.88-7.93,2.82-12.6,2.82c-3.65,0-6.82-0.55-9.5-1.65c-2.69-1.1-4.74-2.6-6.16-4.51c-1.42-1.9-2.13-4.04-2.13-6.4
		c0-3.54,1.42-6.68,4.27-9.42c2.84-2.74,6.92-5.37,12.24-7.89l-13.2,0.32c-1.18,0.05-2.08-0.36-2.7-1.25
		c-0.62-0.89-0.93-1.94-0.93-3.18c0-1.29,0.31-2.43,0.93-3.42c0.62-0.99,1.46-1.49,2.54-1.49c2.47,0,5.77,0.19,9.9,0.56
		c0.86,0.05,2.43,0.16,4.71,0.32c2.28,0.16,4.2,0.24,5.76,0.24c0.54,0,1.56-0.21,3.06-0.64c0.27-0.05,0.79-0.19,1.57-0.4
		c0.78-0.21,1.44-0.32,1.97-0.32c0.86,0,1.57,0.38,2.13,1.13s0.85,1.91,0.85,3.46c0,1.72-0.4,3.06-1.21,4.03
		c-0.8,0.97-2.07,1.83-3.78,2.58c-4.88,2.09-8.94,4.33-12.16,6.72c-3.22,2.39-4.83,4.76-4.83,7.13c0,1.5,0.7,2.74,2.09,3.7
		c1.39,0.97,3.46,1.45,6.2,1.45c3.01,0,6.05-0.75,9.14-2.25c3.09-1.5,5.86-3.78,8.33-6.84c0.64-0.75,1.37-1.13,2.17-1.13
		C276.86,57.73,277.41,58.05,277.81,58.7z"/>
	<path d="M313.64,58.7c0.4,0.64,0.6,1.53,0.6,2.66c0,1.99-0.51,3.65-1.53,4.99c-2.52,3.27-5.65,5.85-9.38,7.73
		c-3.73,1.88-7.93,2.82-12.6,2.82c-3.65,0-6.82-0.55-9.5-1.65c-2.69-1.1-4.74-2.6-6.16-4.51c-1.42-1.9-2.13-4.04-2.13-6.4
		c0-3.54,1.42-6.68,4.27-9.42c2.84-2.74,6.92-5.37,12.24-7.89l-13.2,0.32c-1.18,0.05-2.08-0.36-2.7-1.25
		c-0.62-0.89-0.93-1.94-0.93-3.18c0-1.29,0.31-2.43,0.93-3.42c0.62-0.99,1.46-1.49,2.54-1.49c2.47,0,5.77,0.19,9.9,0.56
		c0.86,0.05,2.43,0.16,4.71,0.32c2.28,0.16,4.2,0.24,5.76,0.24c0.54,0,1.56-0.21,3.06-0.64c0.27-0.05,0.79-0.19,1.57-0.4
		c0.78-0.21,1.44-0.32,1.97-0.32c0.86,0,1.57,0.38,2.13,1.13s0.85,1.91,0.85,3.46c0,1.72-0.4,3.06-1.21,4.03
		c-0.8,0.97-2.07,1.83-3.78,2.58c-4.88,2.09-8.94,4.33-12.16,6.72c-3.22,2.39-4.83,4.76-4.83,7.13c0,1.5,0.7,2.74,2.09,3.7
		c1.39,0.97,3.46,1.45,6.2,1.45c3.01,0,6.05-0.75,9.14-2.25c3.09-1.5,5.86-3.78,8.33-6.84c0.64-0.75,1.37-1.13,2.17-1.13
		C312.69,57.73,313.24,58.05,313.64,58.7z"/>
	<path d="M345.2,58.7c0.4,0.64,0.6,1.53,0.6,2.66c0,2.15-0.51,3.81-1.53,4.99c-1.99,2.42-4.79,4.64-8.41,6.68
		c-3.62,2.04-7.5,3.06-11.63,3.06c-5.64,0-10.01-1.53-13.12-4.59c-3.11-3.06-4.67-7.25-4.67-12.56c0-3.7,0.78-7.15,2.34-10.35
		c1.56-3.19,3.72-5.73,6.48-7.61c2.76-1.88,5.89-2.82,9.38-2.82c3.11,0,5.61,0.93,7.49,2.78c1.88,1.85,2.82,4.36,2.82,7.53
		c0,3.7-1.33,6.88-3.99,9.54c-2.66,2.66-7.15,4.76-13.49,6.32c1.34,2.47,3.89,3.7,7.65,3.7c2.41,0,5.16-0.85,8.25-2.54
		c3.09-1.69,5.76-3.9,8.01-6.64c0.64-0.75,1.37-1.13,2.17-1.13C344.25,57.73,344.8,58.05,345.2,58.7z M318.23,49.52
		c-1.37,2.31-2.05,5.1-2.05,8.37v0.16c3.17-0.75,5.66-1.88,7.49-3.38c1.82-1.5,2.74-3.25,2.74-5.23c0-1.02-0.28-1.84-0.85-2.46
		c-0.56-0.62-1.33-0.93-2.29-0.93C321.28,46.05,319.6,47.21,318.23,49.52z"/>
	<path d="M374.83,50.44c0.83,0.83,1.25,1.87,1.25,3.1c0,0.7-0.16,1.45-0.48,2.25c-0.86,1.99-2.07,3.65-3.62,4.99
		c-1.56,1.34-3.27,2.01-5.15,2.01c-1.5,0-2.78-0.54-3.82-1.61c-1.05-1.07-1.57-2.52-1.57-4.35c0-1.02,0.05-2.12,0.16-3.3
		c0.11-0.86,0.16-1.45,0.16-1.77c0-0.43-0.09-0.75-0.28-0.97c-0.19-0.21-0.42-0.32-0.68-0.32c-0.75,0-1.77,0.9-3.06,2.7
		c-1.29,1.8-2.58,4.17-3.86,7.13c-1.29,2.95-2.34,6.07-3.14,9.34c-0.59,2.58-1.26,4.3-2.01,5.15c-0.75,0.86-1.99,1.29-3.7,1.29
		c-2.04,0-3.48-1.07-4.31-3.22c-0.83-2.15-1.25-5.58-1.25-10.31c0-6.98,0.99-13.61,2.98-19.89c0.48-1.56,1.27-2.7,2.38-3.42
		c1.1-0.72,2.64-1.09,4.63-1.09c1.07,0,1.82,0.13,2.25,0.4c0.43,0.27,0.64,0.78,0.64,1.53c0,0.86-0.4,2.79-1.21,5.8
		c-0.54,2.15-0.97,4.03-1.29,5.64c-0.32,1.61-0.59,3.6-0.81,5.96c1.77-4.62,3.76-8.37,5.96-11.27c2.2-2.9,4.35-4.96,6.44-6.2
		c2.09-1.23,4-1.85,5.72-1.85c1.56,0,2.75,0.44,3.58,1.33c0.83,0.89,1.25,2.19,1.25,3.9c0,1.02-0.3,2.95-0.89,5.8h0.72
		C372.99,49.19,374,49.61,374.83,50.44z"/>
</g>
<g>
</g>
<g>
</g>
<g>
</g>
<g>
</g>
<g>
</g>
<g>
</g>
</svg>
