<svg viewBox="0 0 100 100" xmlns="http://www.w3.org/2000/svg">
    <path
        d="M50,5A45,45,0,1,0,94.99994,50,45.00023,45.00023,0,0,0,50,5ZM92.8382,46.39551c-.00684-.00556-.00977-.01392-.01679-.01935a13.19586,13.19586,0,0,0-1.82416-1.15936,1,1,0,1,0-.94458,1.76288A11.22,11.22,0,0,1,91.6001,47.96a.9923.9923,0,0,0,1.34491-.13129Q92.99865,48.90762,93,50a2.04376,2.04376,0,0,1-.63708,1.34625,13.40075,13.40075,0,0,1-5.08326,2.90253,73.774,73.774,0,0,1-15.50787,3.43475c-3.4502.451-7.20978.79407-11.17859,1.0185a.9816.9816,0,0,0-.76617-.44922.99622.99622,0,0,0-.93122.5401C56.02344,58.92773,53.04944,59.00006,50,59c-3.01379.00024-5.95642-.06921-8.7981-.20111-.13189-2.842-.202-5.78412-.202-8.79889-.001-12.087,1.117-23.03278,2.90423-30.891a38.14773,38.14773,0,0,1,3.08442-9.17792,8.544,8.544,0,0,1,1.66528-2.294A2.04265,2.04265,0,0,1,50,7a1.8888,1.8888,0,0,1,1.17792.4939.992.992,0,0,0,1.54693-.399A42.96111,42.96111,0,0,1,92.8382,46.39551Zm-73.2439-26.801A42.853,42.853,0,0,1,46.4071,7.161a18.52789,18.52789,0,0,0-2.52893,4.85876,75.61365,75.61365,0,0,0-3.5448,15.94947A172.65054,172.65054,0,0,0,39,50c.00024,2.9762.06812,5.8819.19543,8.69391a126.19042,126.19042,0,0,1-20.0866-2.598A38.14593,38.14593,0,0,1,9.931,53.0116a8.54533,8.54533,0,0,1-2.294-1.66535,2.04341,2.04341,0,0,1-.63708-1.34607L7,50H6.99994a1.8895,1.8895,0,0,1,.4939-1.178,1,1,0,0,0-.155-1.40564.969.969,0,0,0-.24506-.1264A42.85228,42.85228,0,0,1,19.5943,19.59448ZM7.162,53.60712a18.72529,18.72529,0,0,0,4.8576,2.51489A75.60842,75.60842,0,0,0,27.969,59.66669c3.50489.45794,7.31336.80536,11.32886,1.03228a128.59255,128.59255,0,0,0,2.65607,20.63544,39.96489,39.96489,0,0,0,3.27289,9.68121,13.012,13.012,0,0,0,1.17364,1.82294A42.95576,42.95576,0,0,1,7.162,53.60712Zm73.24365,26.7984A42.85323,42.85323,0,0,1,53.60449,92.8382c.0055-.00678.01374-.00965.01911-.01661a13.20487,13.20487,0,0,0,1.1593-1.82415,1,1,0,1,0-1.76282-.94458L53.02,90.0528a11.23,11.23,0,0,1-.98029,1.54748.99232.99232,0,0,0,.13105,1.34479Q51.0921,92.99871,50,93a2.04294,2.04294,0,0,1-1.34613-.63708,13.40174,13.40174,0,0,1-2.90247-5.08326,73.76921,73.76921,0,0,1-3.43487-15.50787c-.443-3.389-.78247-7.07556-1.00714-10.96643,2.811.12726,5.71612.19458,8.69061.19464,2.97583-.00024,5.8811-.068,8.69281-.19537-.00739.12762-.01324.25781-.02087.385a1,1,0,1,0,1.99633.11963c.012-.20063.02155-.40552.033-.60724A128.58306,128.58306,0,0,0,81.33441,58.0462a39.963,39.963,0,0,0,9.68121-3.27282A12.80856,12.80856,0,0,0,92.83893,53.595,42.85362,42.85362,0,0,1,80.40564,80.40552Z"/>
    <path
        d="M35.342,41.57153h.00006q.98089-.07928,1.98316-.14807a1,1,0,0,0-.137-1.9953q-1.01394.06959-2.00726.14984a1,1,0,0,0,.161,1.99353Z"/>
    <path
        d="M27.44092,42.42181q.96827-.13275,1.96918-.25439a1,1,0,0,0-.24122-1.98541q-1.0155.1234-1.99957.2583a1,1,0,1,0,.27161,1.9815Z"/>
    <path
        d="M19.63739,43.78589h.00006q.94024-.20655,1.9361-.40058a1,1,0,0,0-.38233-1.96307q-1.01769.19821-1.98291.41022a1,1,0,1,0,.42908,1.95343Z"/>
    <path
        d="M12.11975,45.983q.85053-.339,1.82581-.664a1,1,0,0,0-.632-1.89752q-1.023.34076-1.93445.70367a1,1,0,1,0,.7406,1.85785Z"/>
    <path
        d="M45.22626,39.05786q-1.01222.02472-2.01044.05963a1,1,0,1,0,.06995,1.99878q.98748-.03451,1.98919-.059a1,1,0,1,0-.0487-1.99939Z"/>
    <path
        d="M53.26929,39.027q-.99948-.01657-2.01087-.02307a1,1,0,0,0-.01269,2v-.00006q1.00094.00641,1.99035.02282a1,1,0,0,0,.03321-1.99969Z"/>
    <path
        d="M82.764,44.35724h.00006q.98748.25452,1.894.52331a1,1,0,0,0,.5686-1.91754q-.94308-.27951-1.96337-.54248a1,1,0,1,0-.49927,1.93671Z"/>
    <path
        d="M75.01581,42.78473h.00006q.99838.15856,1.95434.3291a1,1,0,0,0,.3512-1.96893q-.97494-.174-1.99188-.33545a1,1,0,1,0-.31372,1.97528Z"/>
    <path
        d="M67.13672,41.79144h.00006q1.00158.097,1.97668.20478a1,1,0,0,0,.21985-1.98786q-.98868-.1093-2.00372-.20764a1,1,0,1,0-.19287,1.99072Z"/>
    <path
        d="M54.01672,12.11993q.33912.85053.664,1.82581a1,1,0,0,0,1.89746-.632q-.34068-1.023-.70362-1.93439a1,1,0,1,0-1.85779.74054Z"/>
    <path
        d="M56.21393,19.6377l-.00006-.00007q.20662.94035.40057,1.9361a1,1,0,1,0,1.96314-.38232q-.19822-1.01771-.41028-1.98291a1,1,0,1,0-1.95337.4292Z"/>
    <path
        d="M57.57806,27.44116q.13266.96817.25434,1.96912a1,1,0,0,0,1.98547-.24115q-.12341-1.01559-.25836-1.99964a1,1,0,1,0-1.98145.27167Z"/>
    <path
        d="M59.96674,46.25049a1.00008,1.00008,0,0,0,.97534-1.02411q-.02463-1.01211-.05963-2.01038a1,1,0,0,0-1.99878.06995q.03451.98739.059,1.9892A1,1,0,0,0,59.96674,46.25049Z"/>
    <path
        d="M58.42834,35.34229h.00007q.07919.9809.14807,1.98315a1,1,0,1,0,1.99524-.137q-.06949-1.014-.14984-2.00727a1,1,0,0,0-1.99354.16108Z"/>
    <path
        d="M58.3595,74.18524a1,1,0,0,0-1.14441.83075q-.15856.99847-.32916,1.95441a1,1,0,0,0,1.969.35126q.17386-.975.33539-1.99195A1,1,0,0,0,58.3595,74.18524Z"/>
    <path
        d="M60.00232,50.25226a1,1,0,0,0-1.00635.99365H58.996q-.0064,1.00095-.02282,1.99036a1,1,0,1,0,1.99975.0332q.01657-.99948.023-2.01086A1.0001,1.0001,0,0,0,60.00232,50.25226Z"/>
    <path
        d="M59.30017,66.238a.99993.99993,0,0,0-1.09173.89892q-.097,1.00159-.20484,1.97669a1,1,0,1,0,1.98792.21979q.10921-.98859.20764-2.00367A1,1,0,0,0,59.30017,66.238Z"/>
    <path
        d="M56.86041,82.04553a1,1,0,0,0-1.21789.71875h-.00006q-.25452.98741-.52332,1.894a1,1,0,0,0,1.91748.56855q.2796-.943.54254-1.96338A1,1,0,0,0,56.86041,82.04553Z"/>
</svg>
