<svg viewBox="0 0 100 100" xmlns="http://www.w3.org/2000/svg">
    <path
        d="M42.34 0v3.553h9.498l-9.78 11.828v2.844h15.883v-3.551H47.883l9.777-11.83V0H42.34zm5.16 22.5v32.158L16.748 73.404l2.604 4.27L50 58.99l30.648 18.684l2.604-4.27L52.5 54.658V22.5h-5zM0 81.775l6.945 10.547V100h4.701v-7.678l6.946-10.547h-5.153L9.29 88.27l-4.15-6.495H0zm81.945 0l6.08 8.922L81.701 100h4.92l4.225-6.227l4.26 6.227H100l-6.322-9.303l6.078-8.922h-4.932l-3.978 5.871l-3.992-5.87h-4.909z"
        fill="black"/>
</svg>
