<?xml version="1.0" encoding="utf-8"?>
<!-- Generator: Adobe Illustrator 25.4.1, SVG Export Plug-In . SVG Version: 6.00 Build 0)  -->
<svg version="1.1" id="Layer_1" xmlns="http://www.w3.org/2000/svg" xmlns:xlink="http://www.w3.org/1999/xlink" x="0px" y="0px"
	 viewBox="0 0 111.4 106.1" style="enable-background:new 0 0 111.4 106.1;" xml:space="preserve">
<style type="text/css">
	.Graphic_x0020_Style_x0020_5{fill:url(#SVGID_1_);}
	.Graphic_x0020_Style{fill:url(#SVGID_00000161618725852302208740000011358194100117607085_);}
	.st0{opacity:0.3;fill:#D9CDC1;}
	.st1{enable-background:new    ;}
	.st2{fill:#E8E9FC;}
	.st3{fill:#817AC4;}
	.st4{fill:#ADB2CC;}
	.st5{fill:#4C1F8C;}
	.st6{fill:#1F0159;}
	.st7{fill:#7350BA;}
	.st8{fill:#DDDEFA;}
	.st9{fill:#C9C9EC;}
	.st10{fill:#FFFFFF;}
	.st11{fill:url(#SVGID_00000173866565197955995890000014657013467269565373_);}
	.st12{opacity:0.5;}
	.st13{opacity:1.000000e-02;fill:#CF6BFD;}
	.st14{opacity:2.064516e-02;fill:#CE6BFC;}
	.st15{opacity:3.129032e-02;fill:#CD6AFC;}
	.st16{opacity:4.193548e-02;fill:#CC6AFB;}
	.st17{opacity:5.258064e-02;fill:#CB6AFA;}
	.st18{opacity:6.322581e-02;fill:#CA6AF9;}
	.st19{opacity:7.387096e-02;fill:#C969F9;}
	.st20{opacity:8.451613e-02;fill:#C869F8;}
	.st21{opacity:9.516129e-02;fill:#C769F7;}
	.st22{opacity:0.1058;fill:#C668F7;}
	.st23{opacity:0.1165;fill:#C568F6;}
	.st24{opacity:0.1271;fill:#C468F5;}
	.st25{opacity:0.1377;fill:#C368F4;}
	.st26{opacity:0.1484;fill:#C267F4;}
	.st27{opacity:0.159;fill:#C167F3;}
	.st28{opacity:0.1697;fill:#C067F2;}
	.st29{opacity:0.1803;fill:#BF66F1;}
	.st30{opacity:0.191;fill:#BE66F1;}
	.st31{opacity:0.2016;fill:#BD66F0;}
	.st32{opacity:0.2123;fill:#BC65EF;}
	.st33{opacity:0.2229;fill:#BB65EF;}
	.st34{opacity:0.2335;fill:#BA65EE;}
	.st35{opacity:0.2442;fill:#B965ED;}
	.st36{opacity:0.2548;fill:#B864EC;}
	.st37{opacity:0.2655;fill:#B764EC;}
	.st38{opacity:0.2761;fill:#B664EB;}
	.st39{opacity:0.2868;fill:#B563EA;}
	.st40{opacity:0.2974;fill:#B463EA;}
	.st41{opacity:0.3081;fill:#B363E9;}
	.st42{opacity:0.3187;fill:#B263E8;}
	.st43{opacity:0.3294;fill:#B162E7;}
	.st44{opacity:0.34;fill:#B062E7;}
	.st45{opacity:0.3506;fill:#AF62E6;}
	.st46{opacity:0.3613;fill:#AE61E5;}
	.st47{opacity:0.3719;fill:#AD61E5;}
	.st48{opacity:0.3826;fill:#AC61E4;}
	.st49{opacity:0.3932;fill:#AB61E3;}
	.st50{opacity:0.4039;fill:#AA60E2;}
	.st51{opacity:0.4145;fill:#A960E2;}
	.st52{opacity:0.4252;fill:#A860E1;}
	.st53{opacity:0.4358;fill:#A75FE0;}
	.st54{opacity:0.4465;fill:#A65FDF;}
	.st55{opacity:0.4571;fill:#A55FDF;}
	.st56{opacity:0.4677;fill:#A45FDE;}
	.st57{opacity:0.4784;fill:#A35EDD;}
	.st58{opacity:0.489;fill:#A25EDD;}
	.st59{opacity:0.4997;fill:#A15EDC;}
	.st60{opacity:0.5103;fill:#A15DDB;}
	.st61{opacity:0.521;fill:#A05DDA;}
	.st62{opacity:0.5316;fill:#9F5DDA;}
	.st63{opacity:0.5423;fill:#9E5CD9;}
	.st64{opacity:0.5529;fill:#9D5CD8;}
	.st65{opacity:0.5635;fill:#9C5CD8;}
	.st66{opacity:0.5742;fill:#9B5CD7;}
	.st67{opacity:0.5848;fill:#9A5BD6;}
	.st68{opacity:0.5955;fill:#995BD5;}
	.st69{opacity:0.6061;fill:#985BD5;}
	.st70{opacity:0.6168;fill:#975AD4;}
	.st71{opacity:0.6274;fill:#965AD3;}
	.st72{opacity:0.6381;fill:#955AD2;}
	.st73{opacity:0.6487;fill:#945AD2;}
	.st74{opacity:0.6594;fill:#9359D1;}
	.st75{opacity:0.67;fill:#9259D0;}
	.st76{opacity:0.6806;fill:#9159D0;}
	.st77{opacity:0.6913;fill:#9058CF;}
	.st78{opacity:0.7019;fill:#8F58CE;}
	.st79{opacity:0.7126;fill:#8E58CD;}
	.st80{opacity:0.7232;fill:#8D58CD;}
	.st81{opacity:0.7339;fill:#8C57CC;}
	.st82{opacity:0.7445;fill:#8B57CB;}
	.st83{opacity:0.7552;fill:#8A57CB;}
	.st84{opacity:0.7658;fill:#8956CA;}
	.st85{opacity:0.7765;fill:#8856C9;}
	.st86{opacity:0.7871;fill:#8756C8;}
	.st87{opacity:0.7977;fill:#8656C8;}
	.st88{opacity:0.8084;fill:#8555C7;}
	.st89{opacity:0.819;fill:#8455C6;}
	.st90{opacity:0.8297;fill:#8355C6;}
	.st91{opacity:0.8403;fill:#8254C5;}
	.st92{opacity:0.851;fill:#8154C4;}
	.st93{opacity:0.8616;fill:#8054C3;}
	.st94{opacity:0.8723;fill:#7F53C3;}
	.st95{opacity:0.8829;fill:#7E53C2;}
	.st96{opacity:0.8935;fill:#7D53C1;}
	.st97{opacity:0.9042;fill:#7C53C0;}
	.st98{opacity:0.9148;fill:#7B52C0;}
	.st99{opacity:0.9255;fill:#7A52BF;}
	.st100{opacity:0.9361;fill:#7952BE;}
	.st101{opacity:0.9468;fill:#7851BE;}
	.st102{opacity:0.9574;fill:#7751BD;}
	.st103{opacity:0.9681;fill:#7651BC;}
	.st104{opacity:0.9787;fill:#7551BB;}
	.st105{opacity:0.9894;fill:#7450BB;}
	.st106{fill:url(#SVGID_00000090986060955475495670000008705955968447626146_);}
	.st107{opacity:0.3;fill:#4C1F8C;}
	.st108{fill:#F8F9FC;}
	.st109{clip-path:url(#SVGID_00000181078851688796335860000004023846959824770485_);enable-background:new    ;}
	.st110{clip-path:url(#SVGID_00000121240065722389957380000010609689094180034749_);enable-background:new    ;}
	.st111{clip-path:url(#SVGID_00000099664589515225543600000008666730160434428322_);enable-background:new    ;}
	.st112{clip-path:url(#SVGID_00000163767945742499176280000012727091392354888328_);enable-background:new    ;}
	.st113{fill:#AC44EE;}
</style>
<linearGradient id="SVGID_1_" gradientUnits="userSpaceOnUse" x1="-544.9507" y1="131.8415" x2="-544.4507" y2="132.7075">
	<stop  offset="0" style="stop-color:#AC44EE"/>
	<stop  offset="0.3072" style="stop-color:#8334C4"/>
	<stop  offset="0.5912" style="stop-color:#6529A6"/>
	<stop  offset="0.8318" style="stop-color:#532293"/>
	<stop  offset="1" style="stop-color:#4C1F8C"/>
</linearGradient>
<linearGradient id="SVGID_00000023995005685617261840000013331772576424992406_" gradientUnits="userSpaceOnUse" x1="-544.9507" y1="131.8415" x2="-544.4507" y2="132.7075">
	<stop  offset="0" style="stop-color:#AC44EE"/>
	<stop  offset="0.3072" style="stop-color:#8334C4"/>
	<stop  offset="0.5912" style="stop-color:#6529A6"/>
	<stop  offset="0.8318" style="stop-color:#532293"/>
	<stop  offset="1" style="stop-color:#4C1F8C"/>
</linearGradient>
<g>
	<polygon class="st0" points="58.3,85.9 65.4,85.9 92.7,70.1 68.8,56 51.6,65.4 	"/>
	<g>
		<g>
			<g>
				<g class="st1">
					<g>
						<polygon class="st2" points="32.2,64.1 33.5,63.3 35.2,64.3 33.9,65.1 						"/>
					</g>
					<g>
						<polygon class="st3" points="35.5,63.5 36.7,62.8 35.4,64.9 34.1,65.6 						"/>
					</g>
					<g>
						<polygon class="st4" points="38.5,64.8 39.7,64.1 39.7,64.5 38.5,65.2 						"/>
					</g>
					<g>
						<polygon class="st2" points="35.2,62.9 36.5,62.2 39.7,64.1 38.5,64.8 						"/>
					</g>
					<g>
						<polygon class="st4" points="38.5,64.8 38.5,65.2 35.5,63.5 34.1,65.6 32.2,64.5 32.2,64.1 33.9,65.1 35.2,62.9 						"/>
					</g>
				</g>
			</g>
			<g>
				<g class="st1">
					<g>
						<polygon class="st2" points="36.9,61.4 38.2,60.6 39.9,61.6 38.6,62.4 						"/>
					</g>
					<g>
						<polygon class="st3" points="40.2,60.8 41.5,60.1 40.1,62.2 38.9,62.9 						"/>
					</g>
					<g>
						<polygon class="st4" points="43.2,62.1 44.5,61.4 44.5,61.8 43.2,62.6 						"/>
					</g>
					<g>
						<polygon class="st2" points="39.9,60.2 41.2,59.5 44.5,61.4 43.2,62.1 						"/>
					</g>
					<g>
						<polygon class="st4" points="43.2,62.1 43.2,62.6 40.2,60.8 38.9,62.9 36.9,61.8 36.9,61.4 38.6,62.4 39.9,60.2 						"/>
					</g>
				</g>
			</g>
			<g>
				<g class="st1">
					<g>
						<polygon class="st2" points="41.4,58.7 42.7,57.9 44.4,58.9 43.2,59.7 						"/>
					</g>
					<g>
						<polygon class="st3" points="44.7,58.1 46,57.4 44.7,59.5 43.4,60.2 						"/>
					</g>
					<g>
						<polygon class="st4" points="47.7,59.4 49,58.7 49,59.1 47.7,59.9 						"/>
					</g>
					<g>
						<polygon class="st2" points="44.5,57.5 45.7,56.8 49,58.7 47.7,59.4 						"/>
					</g>
					<g>
						<polygon class="st4" points="47.7,59.4 47.7,59.9 44.7,58.1 43.4,60.2 41.4,59.1 41.4,58.7 43.2,59.7 44.5,57.5 						"/>
					</g>
				</g>
			</g>
			<g>
				<g class="st1">
					<g>
						<polygon class="st2" points="27.5,67 28.8,66.3 30.5,67.3 29.2,68 						"/>
					</g>
					<g>
						<polygon class="st3" points="30.8,66.4 32,65.7 30.7,67.8 29.5,68.6 						"/>
					</g>
					<g>
						<polygon class="st4" points="33.8,67.7 35.1,67 35.1,67.4 33.8,68.2 						"/>
					</g>
					<g>
						<polygon class="st2" points="30.5,65.9 31.8,65.1 35.1,67 33.8,67.7 						"/>
					</g>
					<g>
						<polygon class="st4" points="33.8,67.7 33.8,68.2 30.8,66.4 29.5,68.6 27.5,67.4 27.5,67 29.2,68 30.5,65.9 						"/>
					</g>
				</g>
			</g>
			<g>
				<g class="st1">
					<g>
						<polygon class="st2" points="46.5,55.8 47.8,55.1 49.5,56.1 48.2,56.8 						"/>
					</g>
					<g>
						<polygon class="st3" points="49.7,55.3 51,54.5 49.7,56.7 48.4,57.4 						"/>
					</g>
					<g>
						<polygon class="st4" points="52.8,56.6 54,55.8 54,56.3 52.8,57 						"/>
					</g>
					<g>
						<polygon class="st2" points="49.5,54.7 50.8,54 54,55.8 52.8,56.6 						"/>
					</g>
					<g>
						<polygon class="st4" points="52.8,56.6 52.8,57 49.7,55.3 48.4,57.4 46.5,56.3 46.5,55.8 48.2,56.8 49.5,54.7 						"/>
					</g>
				</g>
			</g>
			<g>
				<g class="st1">
					<g>
						<polygon class="st2" points="51.3,53.1 52.6,52.3 54.3,53.3 53,54.1 						"/>
					</g>
					<g>
						<polygon class="st3" points="54.6,52.5 55.9,51.8 54.6,53.9 53.3,54.7 						"/>
					</g>
					<g>
						<polygon class="st4" points="57.6,53.8 58.9,53.1 58.9,53.5 57.6,54.3 						"/>
					</g>
					<g>
						<polygon class="st2" points="54.3,51.9 55.6,51.2 58.9,53.1 57.6,53.8 						"/>
					</g>
					<g>
						<polygon class="st4" points="57.6,53.8 57.6,54.3 54.6,52.5 53.3,54.7 51.3,53.5 51.3,53.1 53,54.1 54.3,51.9 						"/>
					</g>
				</g>
			</g>
		</g>
		<g>
			<g>
				<g class="st1">
					<g>
						<polygon class="st2" points="84,64.1 82.7,63.4 81,64.4 82.3,65.1 						"/>
					</g>
					<g>
						<polygon class="st3" points="80.8,63.6 79.5,62.8 80.8,65 82.1,65.7 						"/>
					</g>
					<g>
						<polygon class="st4" points="77.7,64.9 76.5,64.1 76.5,64.6 77.7,65.3 						"/>
					</g>
					<g>
						<polygon class="st2" points="81,63 79.7,62.3 76.5,64.1 77.7,64.9 						"/>
					</g>
					<g>
						<polygon class="st4" points="77.7,64.9 77.7,65.3 80.8,63.6 82.1,65.7 84,64.6 84,64.1 82.3,65.1 81,63 						"/>
					</g>
				</g>
			</g>
			<g>
				<g class="st1">
					<g>
						<polygon class="st2" points="79.3,61.4 78,60.7 76.3,61.7 77.6,62.4 						"/>
					</g>
					<g>
						<polygon class="st3" points="76,60.9 74.8,60.1 76.1,62.3 77.3,63 						"/>
					</g>
					<g>
						<polygon class="st4" points="73,62.2 71.7,61.4 71.7,61.9 73,62.6 						"/>
					</g>
					<g>
						<polygon class="st2" points="76.3,60.3 75,59.6 71.7,61.4 73,62.2 						"/>
					</g>
					<g>
						<polygon class="st4" points="73,62.2 73,62.6 76,60.9 77.3,63 79.3,61.9 79.3,61.4 77.6,62.4 76.3,60.3 						"/>
					</g>
				</g>
			</g>
			<g>
				<g class="st1">
					<g>
						<polygon class="st2" points="74.8,58.7 73.5,58 71.8,59 73,59.7 						"/>
					</g>
					<g>
						<polygon class="st3" points="71.5,58.2 70.2,57.4 71.5,59.6 72.8,60.3 						"/>
					</g>
					<g>
						<polygon class="st4" points="68.5,59.5 67.2,58.7 67.2,59.2 68.5,59.9 						"/>
					</g>
					<g>
						<polygon class="st2" points="71.7,57.6 70.5,56.9 67.2,58.7 68.5,59.5 						"/>
					</g>
					<g>
						<polygon class="st4" points="68.5,59.5 68.5,59.9 71.5,58.2 72.8,60.3 74.8,59.2 74.8,58.7 73,59.7 71.7,57.6 						"/>
					</g>
				</g>
			</g>
			<g>
				<g class="st1">
					<g>
						<polygon class="st2" points="88.7,67.1 87.4,66.3 85.7,67.3 87,68.1 						"/>
					</g>
					<g>
						<polygon class="st3" points="85.4,66.5 84.2,65.8 85.5,67.9 86.7,68.6 						"/>
					</g>
					<g>
						<polygon class="st4" points="82.4,67.8 81.1,67.1 81.1,67.5 82.4,68.2 						"/>
					</g>
					<g>
						<polygon class="st2" points="85.7,65.9 84.4,65.2 81.1,67.1 82.4,67.8 						"/>
					</g>
					<g>
						<polygon class="st4" points="82.4,67.8 82.4,68.2 85.4,66.5 86.7,68.6 88.7,67.5 88.7,67.1 87,68.1 85.7,65.9 						"/>
					</g>
				</g>
			</g>
			<g>
				<g class="st1">
					<g>
						<polygon class="st2" points="69.7,55.9 68.4,55.2 66.7,56.2 68,56.9 						"/>
					</g>
					<g>
						<polygon class="st3" points="66.5,55.3 65.2,54.6 66.5,56.7 67.8,57.5 						"/>
					</g>
					<g>
						<polygon class="st4" points="63.4,56.6 62.2,55.9 62.2,56.3 63.4,57.1 						"/>
					</g>
					<g>
						<polygon class="st2" points="66.7,54.8 65.4,54 62.2,55.9 63.4,56.6 						"/>
					</g>
					<g>
						<polygon class="st4" points="63.4,56.6 63.4,57.1 66.5,55.3 67.8,57.5 69.7,56.3 69.7,55.9 68,56.9 66.7,54.8 						"/>
					</g>
				</g>
			</g>
			<g>
				<g class="st1">
					<g>
						<polygon class="st2" points="64.9,53.1 63.6,52.4 61.9,53.4 63.2,54.1 						"/>
					</g>
					<g>
						<polygon class="st3" points="61.6,52.6 60.3,51.9 61.7,54 62.9,54.7 						"/>
					</g>
					<g>
						<polygon class="st4" points="58.6,53.9 57.3,53.1 57.3,53.6 58.6,54.3 						"/>
					</g>
					<g>
						<polygon class="st2" points="61.9,52 60.6,51.3 57.3,53.1 58.6,53.9 						"/>
					</g>
					<g>
						<polygon class="st4" points="58.6,53.9 58.6,54.3 61.6,52.6 62.9,54.7 64.9,53.6 64.9,53.1 63.2,54.1 61.9,52 						"/>
					</g>
				</g>
			</g>
		</g>
		<g>
			<g class="st1">
				<g>
					<polygon class="st5" points="85.6,67 85.6,70.1 58.3,85.9 58.3,82.9 					"/>
				</g>
				<g>
					<polygon class="st6" points="58.3,82.9 58.3,85.9 30.8,70.1 30.8,67 					"/>
				</g>
				<g>
					<polygon class="st7" points="85.6,67 58.3,82.9 30.8,67 58.1,51.2 					"/>
				</g>
			</g>
		</g>
		<g>
			<g>
				<polygon class="st8" points="79.1,66.2 79.1,67.8 58.3,79.8 58.3,78.3 				"/>
			</g>
			<g>
				<polygon class="st9" points="58.3,78.3 58.3,79.8 37.4,67.8 37.4,66.2 				"/>
			</g>
			<g>
				<polygon class="st10" points="79.1,66.2 58.3,78.3 37.4,66.2 58.2,54.2 				"/>
			</g>
		</g>
		<g>
			<g>
				<g class="st1">
					<g>
						<polygon class="st9" points="28.6,74.9 27.3,74.1 28.6,70.5 29.9,71.2 						"/>
					</g>
					<g>
						<polygon class="st2" points="29.9,71.2 28.6,70.5 31.9,68.6 33.1,69.4 						"/>
					</g>
					<g>
						<polygon class="st2" points="26.9,75.9 25.6,75.1 27.3,74.1 28.6,74.9 						"/>
					</g>
					<g>
						<polygon class="st3" points="26.9,76.3 25.6,75.6 25.6,75.1 26.9,75.9 						"/>
					</g>
					<g>
						<polygon class="st4" points="33.1,69.4 33.1,69.8 30.1,71.6 28.8,75.2 26.9,76.3 26.9,75.9 28.6,74.9 29.9,71.2 						"/>
					</g>
				</g>
			</g>
			<g>
				<g class="st1">
					<g>
						<polygon class="st9" points="33.4,77.6 32.1,76.9 33.4,73.2 34.7,74 						"/>
					</g>
					<g>
						<polygon class="st2" points="34.7,74 33.4,73.2 36.7,71.4 37.9,72.1 						"/>
					</g>
					<g>
						<polygon class="st2" points="31.7,78.6 30.4,77.9 32.1,76.9 33.4,77.6 						"/>
					</g>
					<g>
						<polygon class="st3" points="31.7,79.1 30.4,78.3 30.4,77.9 31.7,78.6 						"/>
					</g>
					<g>
						<polygon class="st4" points="37.9,72.1 37.9,72.6 34.9,74.3 33.6,77.9 31.7,79.1 31.7,78.6 33.4,77.6 34.7,74 						"/>
					</g>
				</g>
			</g>
			<g>
				<g class="st1">
					<g>
						<polygon class="st9" points="38.1,80.4 36.9,79.6 38.2,76 39.4,76.8 						"/>
					</g>
					<g>
						<polygon class="st2" points="39.4,76.8 38.2,76 41.4,74.1 42.7,74.9 						"/>
					</g>
					<g>
						<polygon class="st2" points="36.4,81.4 35.1,80.6 36.9,79.6 38.1,80.4 						"/>
					</g>
					<g>
						<polygon class="st3" points="36.4,81.8 35.1,81.1 35.1,80.6 36.4,81.4 						"/>
					</g>
					<g>
						<polygon class="st4" points="42.7,74.9 42.7,75.3 39.7,77.1 38.4,80.7 36.4,81.8 36.4,81.4 38.1,80.4 39.4,76.8 						"/>
					</g>
				</g>
			</g>
			<g>
				<g class="st1">
					<g>
						<polygon class="st9" points="42.9,83.1 41.6,82.4 42.9,78.8 44.2,79.5 						"/>
					</g>
					<g>
						<polygon class="st2" points="44.2,79.5 42.9,78.8 46.1,76.9 47.4,77.6 						"/>
					</g>
					<g>
						<polygon class="st2" points="41.2,84.1 39.9,83.4 41.6,82.4 42.9,83.1 						"/>
					</g>
					<g>
						<polygon class="st3" points="41.2,84.6 39.9,83.8 39.9,83.4 41.2,84.1 						"/>
					</g>
					<g>
						<polygon class="st4" points="47.4,77.6 47.4,78.1 44.4,79.8 43.1,83.4 41.2,84.6 41.2,84.1 42.9,83.1 44.2,79.5 						"/>
					</g>
				</g>
			</g>
			<g>
				<g class="st1">
					<g>
						<polygon class="st9" points="47.7,85.9 46.4,85.1 47.7,81.5 49,82.2 						"/>
					</g>
					<g>
						<polygon class="st2" points="49,82.2 47.7,81.5 51,79.6 52.2,80.4 						"/>
					</g>
					<g>
						<polygon class="st2" points="46,86.9 44.7,86.1 46.4,85.1 47.7,85.9 						"/>
					</g>
					<g>
						<polygon class="st3" points="46,87.3 44.7,86.6 44.7,86.1 46,86.9 						"/>
					</g>
					<g>
						<polygon class="st4" points="52.2,80.4 52.2,80.8 49.2,82.5 47.9,86.2 46,87.3 46,86.9 47.7,85.9 49,82.2 						"/>
					</g>
				</g>
			</g>
			<g>
				<g class="st1">
					<g>
						<polygon class="st9" points="52.4,88.6 51.1,87.9 52.4,84.2 53.7,85 						"/>
					</g>
					<g>
						<polygon class="st2" points="53.7,85 52.4,84.2 55.7,82.4 56.9,83.1 						"/>
					</g>
					<g>
						<polygon class="st2" points="50.7,89.6 49.4,88.9 51.1,87.9 52.4,88.6 						"/>
					</g>
					<g>
						<polygon class="st3" points="50.7,90 49.4,89.3 49.4,88.9 50.7,89.6 						"/>
					</g>
					<g>
						<polygon class="st4" points="56.9,83.1 56.9,83.6 53.9,85.3 52.6,88.9 50.7,90 50.7,89.6 52.4,88.6 53.7,85 						"/>
					</g>
				</g>
			</g>
		</g>
		<g>
			<g>
				<g class="st1">
					<g>
						<polygon class="st9" points="87.9,74.9 89.2,74.2 87.9,70.6 86.6,71.3 						"/>
					</g>
					<g>
						<polygon class="st2" points="86.6,71.3 87.9,70.6 84.7,68.7 83.4,69.4 						"/>
					</g>
					<g>
						<polygon class="st2" points="89.7,75.9 90.9,75.2 89.2,74.2 87.9,74.9 						"/>
					</g>
					<g>
						<polygon class="st3" points="89.7,76.4 90.9,75.6 90.9,75.2 89.7,75.9 						"/>
					</g>
					<g>
						<polygon class="st4" points="83.4,69.4 83.4,69.9 86.4,71.6 87.7,75.2 89.7,76.4 89.7,75.9 87.9,74.9 86.6,71.3 						"/>
					</g>
				</g>
			</g>
			<g>
				<g class="st1">
					<g>
						<polygon class="st9" points="83.1,77.7 84.4,76.9 83.1,73.3 81.9,74 						"/>
					</g>
					<g>
						<polygon class="st2" points="81.9,74 83.1,73.3 79.9,71.4 78.6,72.2 						"/>
					</g>
					<g>
						<polygon class="st2" points="84.9,78.7 86.1,77.9 84.4,76.9 83.1,77.7 						"/>
					</g>
					<g>
						<polygon class="st3" points="84.9,79.1 86.1,78.4 86.1,77.9 84.9,78.7 						"/>
					</g>
					<g>
						<polygon class="st4" points="78.6,72.2 78.6,72.6 81.6,74.3 82.9,78 84.9,79.1 84.9,78.7 83.1,77.7 81.9,74 						"/>
					</g>
				</g>
			</g>
			<g>
				<g class="st1">
					<g>
						<polygon class="st9" points="78.4,80.4 79.7,79.7 78.4,76.1 77.1,76.8 						"/>
					</g>
					<g>
						<polygon class="st2" points="77.1,76.8 78.4,76.1 75.1,74.2 73.9,74.9 						"/>
					</g>
					<g>
						<polygon class="st2" points="80.1,81.4 81.4,80.7 79.7,79.7 78.4,80.4 						"/>
					</g>
					<g>
						<polygon class="st3" points="80.1,81.9 81.4,81.1 81.4,80.7 80.1,81.4 						"/>
					</g>
					<g>
						<polygon class="st4" points="73.9,74.9 73.9,75.4 76.9,77.1 78.2,80.7 80.1,81.9 80.1,81.4 78.4,80.4 77.1,76.8 						"/>
					</g>
				</g>
			</g>
			<g>
				<g class="st1">
					<g>
						<polygon class="st9" points="73.6,83.2 74.9,82.4 73.6,78.8 72.4,79.6 						"/>
					</g>
					<g>
						<polygon class="st2" points="72.4,79.6 73.6,78.8 70.4,76.9 69.1,77.7 						"/>
					</g>
					<g>
						<polygon class="st2" points="75.4,84.2 76.6,83.4 74.9,82.4 73.6,83.2 						"/>
					</g>
					<g>
						<polygon class="st3" points="75.4,84.6 76.6,83.9 76.6,83.4 75.4,84.2 						"/>
					</g>
					<g>
						<polygon class="st4" points="69.1,77.7 69.1,78.1 72.1,79.9 73.4,83.5 75.4,84.6 75.4,84.2 73.6,83.2 72.4,79.6 						"/>
					</g>
				</g>
			</g>
			<g>
				<g class="st1">
					<g>
						<polygon class="st9" points="68.8,85.9 70.1,85.2 68.8,81.5 67.6,82.3 						"/>
					</g>
					<g>
						<polygon class="st2" points="67.6,82.3 68.8,81.5 65.6,79.7 64.3,80.4 						"/>
					</g>
					<g>
						<polygon class="st2" points="70.6,86.9 71.8,86.2 70.1,85.2 68.8,85.9 						"/>
					</g>
					<g>
						<polygon class="st3" points="70.6,87.3 71.8,86.6 71.8,86.2 70.6,86.9 						"/>
					</g>
					<g>
						<polygon class="st4" points="64.3,80.4 64.3,80.9 67.3,82.6 68.6,86.2 70.6,87.3 70.6,86.9 68.8,85.9 67.6,82.3 						"/>
					</g>
				</g>
			</g>
			<g>
				<g class="st1">
					<g>
						<polygon class="st9" points="64.1,88.7 65.4,87.9 64.1,84.3 62.8,85 						"/>
					</g>
					<g>
						<polygon class="st2" points="62.8,85 64.1,84.3 60.9,82.4 59.6,83.2 						"/>
					</g>
					<g>
						<polygon class="st2" points="65.9,89.7 67.1,88.9 65.4,87.9 64.1,88.7 						"/>
					</g>
					<g>
						<polygon class="st3" points="65.9,90.1 67.1,89.4 67.1,88.9 65.9,89.7 						"/>
					</g>
					<g>
						<polygon class="st4" points="59.6,83.2 59.6,83.6 62.6,85.3 63.9,89 65.9,90.1 65.9,89.7 64.1,88.7 62.8,85 						"/>
					</g>
				</g>
			</g>
		</g>
		<g>
			<g>
				<polygon class="st8" points="44.6,66.2 45.6,66.8 58.2,74.1 58.2,58.3 				"/>
				<polygon class="st9" points="58.2,58.3 58.2,74.1 58.3,74.1 70.8,66.8 71.8,66.2 				"/>
			</g>
			
				<linearGradient id="SVGID_00000065759100887475672400000010254121774391982226_" gradientUnits="userSpaceOnUse" x1="54.3172" y1="60.0643" x2="61.5241" y2="72.5469">
				<stop  offset="0" style="stop-color:#AC44EE"/>
				<stop  offset="0.3072" style="stop-color:#8334C4"/>
				<stop  offset="0.5912" style="stop-color:#6529A6"/>
				<stop  offset="0.8318" style="stop-color:#532293"/>
				<stop  offset="1" style="stop-color:#4C1F8C"/>
			</linearGradient>
			<polygon style="fill:url(#SVGID_00000065759100887475672400000010254121774391982226_);" points="70.8,66.8 58.3,74.1 45.6,66.8 
				58.2,59.5 			"/>
		</g>
		<g class="st12">
			<path class="st13" d="M90.6,20.8l-32,18.6c-0.2,0.1-0.4,0.1-0.6,0L25.8,20.8c-0.4-0.2-0.4-0.9,0-1.1l32-18.6
				C58,1,58.2,1,58.4,1.2l32.2,18.6C91,20,91,20.6,90.6,20.8z"/>
			<path class="st14" d="M90.4,21.3L58.7,39.8c-0.2,0.1-0.4,0.1-0.6,0L26,21.3c-0.4-0.2-0.4-0.8,0-1.1L57.8,1.8
				c0.2-0.1,0.4-0.1,0.6,0l32,18.5C90.8,20.5,90.8,21.1,90.4,21.3z"/>
			<path class="st15" d="M90.2,21.8L58.7,40.2c-0.2,0.1-0.4,0.1-0.6,0L26.3,21.8c-0.4-0.2-0.4-0.8,0-1.1L57.8,2.4
				c0.2-0.1,0.4-0.1,0.6,0l31.8,18.3C90.6,21,90.6,21.6,90.2,21.8z"/>
			<path class="st16" d="M90,22.3L58.6,40.5c-0.2,0.1-0.4,0.1-0.6,0L26.5,22.3c-0.4-0.2-0.4-0.8,0-1.1L57.8,3c0.2-0.1,0.4-0.1,0.6,0
				L90,21.3C90.4,21.5,90.4,22.1,90,22.3z"/>
			<path class="st17" d="M89.7,22.8L58.6,40.9c-0.2,0.1-0.4,0.1-0.6,0L26.7,22.8c-0.4-0.2-0.4-0.8,0-1.1L57.8,3.7
				c0.2-0.1,0.4-0.1,0.6,0l31.3,18.1C90.2,22,90.2,22.6,89.7,22.8z"/>
			<path class="st18" d="M89.5,23.3L58.6,41.3c-0.2,0.1-0.4,0.1-0.6,0l-31.1-18c-0.4-0.2-0.4-0.8,0-1.1L57.8,4.3
				c0.2-0.1,0.4-0.1,0.6,0l31.1,18C89.9,22.5,89.9,23.1,89.5,23.3z"/>
			<path class="st19" d="M89.3,23.8L58.6,41.6c-0.2,0.1-0.4,0.1-0.6,0L27.1,23.8c-0.4-0.2-0.4-0.8,0-1.1L57.8,4.9
				c0.2-0.1,0.4-0.1,0.6,0l30.9,17.8C89.7,23,89.7,23.6,89.3,23.8z"/>
			<path class="st20" d="M89.1,24.3L58.6,42c-0.2,0.1-0.4,0.1-0.6,0L27.4,24.3c-0.4-0.2-0.4-0.8,0-1.1L57.8,5.6
				c0.2-0.1,0.4-0.1,0.6,0l30.7,17.7C89.5,23.5,89.5,24.1,89.1,24.3z"/>
			<path class="st21" d="M88.9,24.8L58.6,42.4c-0.2,0.1-0.4,0.1-0.6,0L27.6,24.8c-0.4-0.2-0.4-0.8,0-1.1L57.8,6.2
				c0.2-0.1,0.4-0.1,0.6,0l30.4,17.6C89.3,24,89.3,24.6,88.9,24.8z"/>
			<path class="st22" d="M88.6,25.3l-30,17.4c-0.2,0.1-0.4,0.1-0.6,0L27.8,25.3c-0.4-0.2-0.4-0.8,0-1.1l30-17.4
				c0.2-0.1,0.4-0.1,0.6,0l30.2,17.4C89,24.5,89,25.1,88.6,25.3z"/>
			<path class="st23" d="M88.4,25.8L58.6,43.1c-0.2,0.1-0.4,0.1-0.6,0L28,25.8c-0.4-0.2-0.4-0.8,0-1.1L57.8,7.5
				c0.2-0.1,0.4-0.1,0.6,0l30,17.3C88.8,25,88.8,25.6,88.4,25.8z"/>
			<path class="st24" d="M88.2,26.3L58.6,43.5c-0.2,0.1-0.4,0.1-0.6,0L28.3,26.3c-0.4-0.2-0.4-0.8,0-1.1L57.8,8.1
				C58,8,58.2,8,58.4,8.1l29.8,17.2C88.6,25.5,88.6,26.1,88.2,26.3z"/>
			<path class="st25" d="M88,26.8l-29.3,17c-0.2,0.1-0.4,0.1-0.6,0L28.5,26.8c-0.4-0.2-0.4-0.8,0-1.1l29.3-17c0.2-0.1,0.4-0.1,0.6,0
				L88,25.8C88.4,26,88.4,26.6,88,26.8z"/>
			<path class="st26" d="M87.7,27.3L58.6,44.2c-0.2,0.1-0.4,0.1-0.6,0L28.7,27.3c-0.4-0.2-0.4-0.8,0-1.1L57.8,9.3
				c0.2-0.1,0.4-0.1,0.6,0l29.3,16.9C88.2,26.5,88.2,27.1,87.7,27.3z"/>
			<path class="st27" d="M87.5,27.8L58.6,44.6c-0.2,0.1-0.4,0.1-0.6,0L28.9,27.8c-0.4-0.2-0.4-0.8,0-1.1L57.8,10
				c0.2-0.1,0.4-0.1,0.6,0l29.1,16.8C87.9,27,87.9,27.6,87.5,27.8z"/>
			<path class="st28" d="M87.3,28.3L58.6,45c-0.2,0.1-0.4,0.1-0.6,0L29.1,28.3c-0.4-0.2-0.4-0.8,0-1.1l28.7-16.7
				c0.2-0.1,0.4-0.1,0.6,0l28.9,16.7C87.7,27.5,87.7,28.1,87.3,28.3z"/>
			<path class="st29" d="M87.1,28.8L58.6,45.4c-0.2,0.1-0.4,0.1-0.6,0L29.4,28.8c-0.4-0.2-0.4-0.8,0-1.1l28.5-16.5
				c0.2-0.1,0.4-0.1,0.6,0l28.7,16.5C87.5,28,87.5,28.6,87.1,28.8z"/>
			<path class="st30" d="M86.9,29.3L58.6,45.7c-0.2,0.1-0.4,0.1-0.6,0L29.6,29.3c-0.4-0.2-0.4-0.8,0-1.1l28.2-16.4
				c0.2-0.1,0.4-0.1,0.6,0l28.4,16.4C87.3,28.5,87.3,29.1,86.9,29.3z"/>
			<path class="st31" d="M86.6,29.8l-28,16.3c-0.2,0.1-0.4,0.1-0.6,0L29.8,29.8c-0.4-0.2-0.4-0.8,0-1l28-16.3c0.2-0.1,0.4-0.1,0.6,0
				l28.2,16.3C87,29,87,29.6,86.6,29.8z"/>
			<path class="st32" d="M86.4,30.3L58.6,46.5c-0.2,0.1-0.4,0.1-0.6,0L30,30.3c-0.4-0.2-0.4-0.8,0-1l27.8-16.2
				c0.2-0.1,0.4-0.1,0.6,0l28,16.2C86.8,29.5,86.8,30.1,86.4,30.3z"/>
			<path class="st33" d="M86.2,30.8l-27.6,16c-0.2,0.1-0.4,0.1-0.6,0l-27.8-16c-0.4-0.2-0.4-0.8,0-1l27.6-16c0.2-0.1,0.4-0.1,0.6,0
				l27.8,16C86.6,30,86.6,30.6,86.2,30.8z"/>
			<path class="st34" d="M86,31.3L58.6,47.2c-0.2,0.1-0.4,0.1-0.6,0L30.5,31.3c-0.4-0.2-0.4-0.8,0-1l27.4-15.9
				c0.2-0.1,0.4-0.1,0.6,0L86,30.3C86.4,30.5,86.4,31.1,86,31.3z"/>
			<path class="st35" d="M85.8,31.8L58.6,47.6c-0.2,0.1-0.4,0.1-0.6,0L30.7,31.8c-0.4-0.2-0.4-0.8,0-1L57.8,15
				c0.2-0.1,0.4-0.1,0.6,0l27.3,15.8C86.2,31,86.2,31.6,85.8,31.8z"/>
			<path class="st36" d="M85.5,32.3L58.6,48c-0.2,0.1-0.4,0.1-0.6,0L30.9,32.3c-0.4-0.2-0.4-0.8,0-1l26.9-15.6
				c0.2-0.1,0.4-0.1,0.6,0l27.1,15.7C85.9,31.5,85.9,32.1,85.5,32.3z"/>
			<path class="st37" d="M85.3,32.8L58.6,48.3c-0.2,0.1-0.4,0.1-0.6,0L31.1,32.8c-0.4-0.2-0.4-0.8,0-1l26.7-15.5
				c0.2-0.1,0.4-0.1,0.6,0l26.9,15.5C85.7,32,85.7,32.6,85.3,32.8z"/>
			<path class="st38" d="M85.1,33.3L58.6,48.7c-0.2,0.1-0.4,0.1-0.6,0L31.3,33.3c-0.4-0.2-0.4-0.8,0-1l26.5-15.4
				c0.2-0.1,0.4-0.1,0.6,0l26.7,15.4C85.5,32.5,85.5,33.1,85.1,33.3z"/>
			<path class="st39" d="M84.9,33.8L58.6,49.1c-0.2,0.1-0.4,0.1-0.6,0L31.6,33.8c-0.4-0.2-0.4-0.8,0-1l26.3-15.3
				c0.2-0.1,0.4-0.1,0.6,0l26.5,15.3C85.3,33,85.3,33.6,84.9,33.8z"/>
			<path class="st40" d="M84.7,34.3l-26,15.1c-0.2,0.1-0.4,0.1-0.6,0L31.8,34.3c-0.4-0.2-0.4-0.8,0-1l26-15.1c0.2-0.1,0.4-0.1,0.6,0
				l26.2,15.1C85.1,33.5,85.1,34.1,84.7,34.3z"/>
			<path class="st41" d="M84.4,34.8l-25.8,15c-0.2,0.1-0.4,0.1-0.6,0l-26-15c-0.4-0.2-0.4-0.8,0-1l25.8-15c0.2-0.1,0.4-0.1,0.6,0
				l26,15C84.8,34,84.8,34.6,84.4,34.8z"/>
			<path class="st42" d="M84.2,35.3L58.6,50.2c-0.2,0.1-0.4,0.1-0.6,0L32.2,35.3c-0.4-0.2-0.4-0.8,0-1l25.6-14.9
				c0.2-0.1,0.4-0.1,0.6,0l25.8,14.9C84.6,34.5,84.6,35.1,84.2,35.3z"/>
			<path class="st43" d="M84,35.8L58.6,50.6c-0.2,0.1-0.4,0.1-0.6,0L32.4,35.8c-0.4-0.2-0.4-0.8,0-1L57.8,20c0.2-0.1,0.4-0.1,0.6,0
				L84,34.8C84.4,35,84.4,35.6,84,35.8z"/>
			<path class="st44" d="M83.8,36.3L58.6,50.9c-0.2,0.1-0.4,0.1-0.6,0L32.7,36.3c-0.4-0.2-0.4-0.8,0-1l25.2-14.6
				c0.2-0.1,0.4-0.1,0.6,0l25.4,14.6C84.2,35.5,84.2,36.1,83.8,36.3z"/>
			<path class="st45" d="M83.6,36.8l-25,14.5c-0.2,0.1-0.4,0.1-0.6,0L32.9,36.8c-0.4-0.2-0.4-0.8,0-1l24.9-14.5
				c0.2-0.1,0.4-0.1,0.6,0l25.1,14.5C83.9,36,83.9,36.6,83.6,36.8z"/>
			<path class="st46" d="M83.3,37.3L58.6,51.7c-0.2,0.1-0.4,0.1-0.6,0L33.1,37.3c-0.4-0.2-0.4-0.8,0-1l24.7-14.4
				c0.2-0.1,0.4-0.1,0.6,0l24.9,14.4C83.7,36.5,83.7,37.1,83.3,37.3z"/>
			<path class="st47" d="M83.1,37.8L58.6,52.1c-0.2,0.1-0.4,0.1-0.6,0L33.3,37.8c-0.4-0.2-0.4-0.8,0-1l24.5-14.2
				c0.2-0.1,0.4-0.1,0.6,0l24.7,14.3C83.5,37,83.5,37.6,83.1,37.8z"/>
			<path class="st48" d="M82.9,38.3L58.6,52.4c-0.2,0.1-0.4,0.1-0.6,0L33.5,38.3c-0.4-0.2-0.4-0.8,0-1l24.3-14.1
				c0.2-0.1,0.4-0.1,0.6,0l24.5,14.1C83.3,37.5,83.3,38.1,82.9,38.3z"/>
			<path class="st49" d="M82.7,38.8l-24.1,14c-0.2,0.1-0.4,0.1-0.6,0l-24.2-14c-0.4-0.2-0.4-0.8,0-1l24.1-14c0.2-0.1,0.4-0.1,0.6,0
				l24.3,14C83.1,38,83.1,38.6,82.7,38.8z"/>
			<path class="st50" d="M82.5,39.3L58.6,53.2c-0.2,0.1-0.4,0.1-0.6,0L34,39.3c-0.4-0.2-0.4-0.8,0-1l23.9-13.9
				c0.2-0.1,0.4-0.1,0.6,0l24,13.9C82.8,38.5,82.8,39.1,82.5,39.3z"/>
			<path class="st51" d="M82.2,39.8L58.6,53.5c-0.2,0.1-0.4,0.1-0.6,0L34.2,39.8c-0.4-0.2-0.4-0.8,0-1l23.6-13.7
				c0.2-0.1,0.4-0.1,0.6,0l23.8,13.7C82.6,39,82.6,39.6,82.2,39.8z"/>
			<path class="st52" d="M82,40.3L58.6,53.9c-0.2,0.1-0.4,0.1-0.6,0L34.4,40.3c-0.4-0.2-0.4-0.8,0-1l23.4-13.6
				c0.2-0.1,0.4-0.1,0.6,0L82,39.3C82.4,39.5,82.4,40.1,82,40.3z"/>
			<path class="st53" d="M81.8,40.8L58.6,54.3c-0.2,0.1-0.4,0.1-0.6,0L34.7,40.8c-0.4-0.2-0.4-0.8,0-1l23.2-13.5
				c0.2-0.1,0.4-0.1,0.6,0l23.4,13.5C82.2,40,82.2,40.6,81.8,40.8z"/>
			<path class="st54" d="M81.6,41.3l-23,13.4c-0.2,0.1-0.4,0.1-0.6,0L34.9,41.3c-0.4-0.2-0.4-0.8,0-1l23-13.4c0.2-0.1,0.4-0.1,0.6,0
				l23.1,13.4C81.9,40.5,81.9,41.1,81.6,41.3z"/>
			<path class="st55" d="M81.3,41.8L58.6,55c-0.2,0.1-0.4,0.1-0.6,0L35.1,41.8c-0.4-0.2-0.4-0.8,0-1l22.8-13.2
				c0.2-0.1,0.4-0.1,0.6,0l22.9,13.2C81.7,41,81.7,41.6,81.3,41.8z"/>
			<path class="st56" d="M81.1,42.3L58.6,55.4c-0.2,0.1-0.4,0.1-0.6,0L35.3,42.3c-0.4-0.2-0.4-0.8,0-1l22.5-13.1
				c0.2-0.1,0.4-0.1,0.6,0l22.7,13.1C81.5,41.5,81.5,42.1,81.1,42.3z"/>
			<path class="st57" d="M80.9,42.8l-22.3,13c-0.2,0.1-0.4,0.1-0.6,0l-22.5-13c-0.4-0.2-0.4-0.8,0-1l22.3-13c0.2-0.1,0.4-0.1,0.6,0
				l22.5,13C81.3,42,81.3,42.6,80.9,42.8z"/>
			<path class="st58" d="M80.7,43.3L58.6,56.1c-0.2,0.1-0.4,0.1-0.6,0L35.8,43.3c-0.4-0.2-0.4-0.8,0-1l22.1-12.8
				c0.2-0.1,0.4-0.1,0.6,0l22.3,12.9C81.1,42.5,81.1,43.1,80.7,43.3z"/>
			<path class="st59" d="M80.5,43.8L58.6,56.5c-0.2,0.1-0.4,0.1-0.6,0L36,43.8c-0.4-0.2-0.4-0.8,0-1l21.9-12.7
				c0.2-0.1,0.4-0.1,0.6,0l22,12.7C80.8,43,80.8,43.6,80.5,43.8z"/>
			<path class="st60" d="M80.2,44.3L58.6,56.9c-0.2,0.1-0.4,0.1-0.6,0L36.2,44.3c-0.4-0.2-0.4-0.8,0-1l21.7-12.6
				c0.2-0.1,0.4-0.1,0.6,0l21.8,12.6C80.6,43.5,80.6,44.1,80.2,44.3z"/>
			<path class="st61" d="M80,44.8L58.6,57.3c-0.2,0.1-0.4,0.1-0.6,0L36.4,44.8c-0.4-0.2-0.4-0.8,0-1l21.4-12.5
				c0.2-0.1,0.4-0.1,0.6,0L80,43.8C80.4,44,80.4,44.6,80,44.8z"/>
			<path class="st62" d="M79.8,45.3L58.6,57.6c-0.2,0.1-0.4,0.1-0.6,0L36.6,45.3c-0.4-0.2-0.4-0.8,0-1L57.9,32
				c0.2-0.1,0.4-0.1,0.6,0l21.4,12.3C80.2,44.5,80.2,45.1,79.8,45.3z"/>
			<path class="st63" d="M79.6,45.8L58.6,58c-0.2,0.1-0.4,0.1-0.6,0L36.9,45.8c-0.4-0.2-0.4-0.7,0-1l21-12.2c0.2-0.1,0.4-0.1,0.6,0
				l21.2,12.2C80,45,80,45.6,79.6,45.8z"/>
			<path class="st64" d="M79.4,46.3L58.6,58.4c-0.2,0.1-0.4,0.1-0.6,0L37.1,46.3c-0.4-0.2-0.4-0.7,0-1l20.8-12.1
				c0.2-0.1,0.4-0.1,0.6,0l20.9,12.1C79.7,45.5,79.7,46.1,79.4,46.3z"/>
			<path class="st65" d="M79.1,46.8l-20.6,12c-0.2,0.1-0.4,0.1-0.6,0l-20.7-12c-0.4-0.2-0.4-0.7,0-1l20.6-12c0.2-0.1,0.4-0.1,0.6,0
				l20.7,12C79.5,46,79.5,46.6,79.1,46.8z"/>
			<path class="st66" d="M78.9,47.3L58.6,59.1c-0.2,0.1-0.4,0.1-0.6,0L37.5,47.3c-0.4-0.2-0.4-0.7,0-1l20.3-11.8
				c0.2-0.1,0.4-0.1,0.6,0l20.5,11.8C79.3,46.5,79.3,47.1,78.9,47.3z"/>
			<path class="st67" d="M78.7,47.8L58.6,59.5c-0.2,0.1-0.4,0.1-0.6,0L37.7,47.8c-0.4-0.2-0.4-0.7,0-1l20.1-11.7
				c0.2-0.1,0.4-0.1,0.6,0l20.3,11.7C79.1,47,79.1,47.6,78.7,47.8z"/>
			<path class="st68" d="M78.5,48.3L58.6,59.9c-0.2,0.1-0.4,0.1-0.6,0L38,48.3c-0.4-0.2-0.4-0.7,0-1l19.9-11.6
				c0.2-0.1,0.4-0.1,0.6,0l20.1,11.6C78.8,47.5,78.8,48.1,78.5,48.3z"/>
			<path class="st69" d="M78.3,48.8L58.6,60.2c-0.2,0.1-0.4,0.1-0.5,0L38.2,48.8c-0.4-0.2-0.4-0.7,0-0.9l19.7-11.4
				c0.2-0.1,0.4-0.1,0.5,0l19.8,11.5C78.6,48.1,78.6,48.6,78.3,48.8z"/>
			<path class="st70" d="M78,49.3L58.6,60.6c-0.2,0.1-0.4,0.1-0.5,0L38.4,49.3c-0.4-0.2-0.4-0.7,0-0.9L57.9,37
				c0.2-0.1,0.4-0.1,0.5,0L78,48.3C78.4,48.6,78.4,49.1,78,49.3z"/>
			<path class="st71" d="M77.8,49.8L58.6,61c-0.2,0.1-0.4,0.1-0.5,0L38.6,49.8c-0.4-0.2-0.4-0.7,0-0.9l19.3-11.2
				c0.2-0.1,0.4-0.1,0.5,0l19.4,11.2C78.2,49.1,78.2,49.6,77.8,49.8z"/>
			<path class="st72" d="M77.6,50.3l-19,11.1c-0.2,0.1-0.4,0.1-0.5,0L38.8,50.3c-0.4-0.2-0.4-0.7,0-0.9l19-11.1
				c0.2-0.1,0.4-0.1,0.5,0l19.2,11.1C78,49.6,78,50.1,77.6,50.3z"/>
			<path class="st73" d="M77.4,50.8L58.6,61.7c-0.2,0.1-0.4,0.1-0.5,0l-19-10.9c-0.4-0.2-0.4-0.7,0-0.9l18.8-10.9
				c0.2-0.1,0.4-0.1,0.5,0l19,10.9C77.7,50.1,77.7,50.6,77.4,50.8z"/>
			<path class="st74" d="M77.2,51.3L58.6,62.1c-0.2,0.1-0.4,0.1-0.5,0L39.3,51.3c-0.4-0.2-0.4-0.7,0-0.9l18.6-10.8
				c0.2-0.1,0.4-0.1,0.5,0l18.7,10.8C77.5,50.6,77.5,51.1,77.2,51.3z"/>
			<path class="st75" d="M76.9,51.8L58.6,62.5c-0.2,0.1-0.4,0.1-0.5,0L39.5,51.8c-0.4-0.2-0.4-0.7,0-0.9l18.4-10.7
				c0.2-0.1,0.4-0.1,0.5,0l18.5,10.7C77.3,51.1,77.3,51.6,76.9,51.8z"/>
			<path class="st76" d="M76.7,52.3L58.6,62.8c-0.2,0.1-0.4,0.1-0.5,0L39.7,52.3c-0.4-0.2-0.4-0.7,0-0.9l18.2-10.6
				c0.2-0.1,0.4-0.1,0.5,0l18.3,10.6C77.1,51.6,77.1,52.1,76.7,52.3z"/>
			<path class="st77" d="M76.5,52.8L58.6,63.2c-0.2,0.1-0.4,0.1-0.5,0L39.9,52.8c-0.4-0.2-0.4-0.7,0-0.9l17.9-10.4
				c0.2-0.1,0.4-0.1,0.5,0l18.1,10.4C76.8,52.1,76.8,52.6,76.5,52.8z"/>
			<path class="st78" d="M76.3,53.3L58.6,63.6c-0.2,0.1-0.4,0.1-0.5,0L40.2,53.3c-0.4-0.2-0.4-0.7,0-0.9l17.7-10.3
				c0.2-0.1,0.4-0.1,0.5,0l17.8,10.3C76.6,52.6,76.6,53.1,76.3,53.3z"/>
			<path class="st79" d="M76.1,53.8L58.6,63.9c-0.2,0.1-0.4,0.1-0.5,0L40.4,53.8c-0.4-0.2-0.4-0.7,0-0.9l17.5-10.2
				c0.2-0.1,0.4-0.1,0.5,0L76,52.9C76.4,53.1,76.4,53.6,76.1,53.8z"/>
			<path class="st80" d="M75.8,54.3l-17.3,10c-0.2,0.1-0.4,0.1-0.5,0L40.6,54.3c-0.4-0.2-0.4-0.7,0-0.9l17.3-10
				c0.2-0.1,0.4-0.1,0.5,0l17.4,10.1C76.2,53.6,76.2,54.1,75.8,54.3z"/>
			<path class="st81" d="M75.6,54.8l-17.1,9.9c-0.2,0.1-0.4,0.1-0.5,0l-17.2-9.9c-0.4-0.2-0.4-0.7,0-0.9l17.1-9.9
				c0.2-0.1,0.4-0.1,0.5,0l17.2,9.9C76,54.1,76,54.6,75.6,54.8z"/>
			<path class="st82" d="M75.4,55.3l-16.8,9.8c-0.2,0.1-0.4,0.1-0.5,0l-17-9.8c-0.4-0.2-0.4-0.7,0-0.9l16.8-9.8
				c0.2-0.1,0.4-0.1,0.5,0l17,9.8C75.7,54.6,75.7,55.1,75.4,55.3z"/>
			<path class="st83" d="M75.2,55.8l-16.6,9.7c-0.2,0.1-0.4,0.1-0.5,0l-16.7-9.7c-0.4-0.2-0.4-0.7,0-0.9l16.6-9.7
				c0.2-0.1,0.4-0.1,0.5,0l16.7,9.7C75.5,55.1,75.5,55.6,75.2,55.8z"/>
			<path class="st84" d="M74.9,56.3l-16.4,9.5c-0.2,0.1-0.4,0.1-0.5,0l-16.5-9.5c-0.3-0.2-0.4-0.7,0-0.9l16.4-9.5
				c0.2-0.1,0.4-0.1,0.5,0l16.5,9.5C75.3,55.6,75.3,56.1,74.9,56.3z"/>
			<path class="st85" d="M74.7,56.8l-16.2,9.4c-0.2,0.1-0.4,0.1-0.5,0l-16.3-9.4c-0.3-0.2-0.3-0.7,0-0.9l16.2-9.4
				c0.2-0.1,0.4-0.1,0.5,0l16.3,9.4C75.1,56.1,75.1,56.6,74.7,56.8z"/>
			<path class="st86" d="M74.5,57.3l-16,9.3c-0.2,0.1-0.4,0.1-0.5,0l-16.1-9.3c-0.3-0.2-0.3-0.7,0-0.9l16-9.3c0.2-0.1,0.4-0.1,0.5,0
				l16.1,9.3C74.9,56.6,74.9,57.1,74.5,57.3z"/>
			<path class="st87" d="M74.3,57.8l-15.7,9.2c-0.2,0.1-0.4,0.1-0.5,0l-15.9-9.2c-0.3-0.2-0.3-0.7,0-0.9l15.7-9.2
				c0.2-0.1,0.4-0.1,0.5,0l15.9,9.2C74.6,57.1,74.6,57.6,74.3,57.8z"/>
			<path class="st88" d="M74.1,58.3l-15.5,9c-0.2,0.1-0.4,0.1-0.5,0l-15.6-9c-0.3-0.2-0.3-0.7,0-0.9l15.5-9c0.2-0.1,0.4-0.1,0.5,0
				l15.6,9C74.4,57.6,74.4,58.1,74.1,58.3z"/>
			<path class="st89" d="M73.8,58.8l-15.3,8.9c-0.2,0.1-0.4,0.1-0.5,0l-15.4-8.9c-0.3-0.2-0.3-0.7,0-0.9L57.9,49
				c0.2-0.1,0.4-0.1,0.5,0l15.4,8.9C74.2,58.1,74.2,58.6,73.8,58.8z"/>
			<path class="st90" d="M73.6,59.3L58.5,68c-0.2,0.1-0.4,0.1-0.5,0l-15.2-8.8c-0.3-0.2-0.3-0.7,0-0.9l15.1-8.8
				c0.2-0.1,0.4-0.1,0.5,0l15.2,8.8C74,58.6,74,59.1,73.6,59.3z"/>
			<path class="st91" d="M73.4,59.8l-14.9,8.6c-0.2,0.1-0.4,0.1-0.5,0l-15-8.6c-0.3-0.2-0.3-0.7,0-0.9l14.9-8.6
				c0.2-0.1,0.4-0.1,0.5,0l15,8.6C73.7,59.1,73.7,59.6,73.4,59.8z"/>
			<path class="st92" d="M73.2,60.3l-14.6,8.5c-0.2,0.1-0.4,0.1-0.5,0l-14.8-8.5c-0.3-0.2-0.3-0.7,0-0.9l14.6-8.5
				c0.2-0.1,0.4-0.1,0.5,0l14.8,8.5C73.5,59.6,73.5,60.1,73.2,60.3z"/>
			<path class="st93" d="M73,60.8l-14.4,8.4c-0.2,0.1-0.4,0.1-0.5,0l-14.5-8.4c-0.3-0.2-0.3-0.7,0-0.9l14.4-8.4
				c0.2-0.1,0.4-0.1,0.5,0L73,59.9C73.3,60.1,73.3,60.6,73,60.8z"/>
			<path class="st94" d="M72.7,61.3l-14.2,8.3c-0.2,0.1-0.4,0.1-0.5,0l-14.3-8.3c-0.3-0.2-0.3-0.7,0-0.9l14.2-8.3
				c0.2-0.1,0.4-0.1,0.5,0l14.3,8.3C73.1,60.6,73.1,61.1,72.7,61.3z"/>
			<path class="st95" d="M72.5,61.8l-14,8.1c-0.2,0.1-0.4,0.1-0.5,0l-14.1-8.1c-0.3-0.2-0.3-0.7,0-0.9l14-8.1c0.2-0.1,0.4-0.1,0.5,0
				l14.1,8.1C72.9,61.1,72.9,61.6,72.5,61.8z"/>
			<path class="st96" d="M72.3,62.3l-13.8,8c-0.2,0.1-0.4,0.1-0.5,0l-13.9-8c-0.3-0.2-0.3-0.7,0-0.9l13.8-8c0.2-0.1,0.4-0.1,0.5,0
				l13.9,8C72.6,61.6,72.6,62.1,72.3,62.3z"/>
			<path class="st97" d="M72.1,62.8l-13.6,7.9c-0.2,0.1-0.4,0.1-0.5,0l-13.7-7.9c-0.3-0.2-0.3-0.7,0-0.9L57.9,54
				c0.2-0.1,0.4-0.1,0.5,0l13.7,7.9C72.4,62.1,72.4,62.6,72.1,62.8z"/>
			<path class="st98" d="M71.9,63.3L58.5,71c-0.2,0.1-0.3,0.1-0.5,0l-13.4-7.8c-0.3-0.2-0.3-0.7,0-0.9l13.3-7.7
				c0.2-0.1,0.3-0.1,0.5,0l13.4,7.8C72.2,62.6,72.2,63.1,71.9,63.3z"/>
			<path class="st99" d="M71.6,63.8l-13.1,7.6c-0.2,0.1-0.3,0.1-0.5,0l-13.2-7.6c-0.3-0.2-0.3-0.7,0-0.9l13.1-7.6
				c0.2-0.1,0.3-0.1,0.5,0l13.2,7.6C72,63.1,72,63.6,71.6,63.8z"/>
			<path class="st100" d="M71.4,64.3l-12.9,7.5c-0.2,0.1-0.3,0.1-0.5,0l-13-7.5c-0.3-0.2-0.3-0.7,0-0.9l12.9-7.5
				c0.2-0.1,0.3-0.1,0.5,0l13,7.5C71.7,63.6,71.7,64.1,71.4,64.3z"/>
			<path class="st101" d="M71.2,64.8l-12.7,7.4c-0.2,0.1-0.3,0.1-0.5,0l-12.8-7.4c-0.3-0.2-0.3-0.7,0-0.9l12.7-7.4
				c0.2-0.1,0.3-0.1,0.5,0l12.8,7.4C71.5,64.1,71.5,64.6,71.2,64.8z"/>
			<path class="st102" d="M71,65.3l-12.5,7.2c-0.2,0.1-0.3,0.1-0.5,0l-12.6-7.2c-0.3-0.2-0.3-0.7,0-0.9l12.5-7.2
				c0.2-0.1,0.3-0.1,0.5,0L71,64.4C71.3,64.6,71.3,65.1,71,65.3z"/>
			<path class="st103" d="M70.8,65.8l-12.2,7.1c-0.2,0.1-0.3,0.1-0.5,0l-12.3-7.1c-0.3-0.2-0.3-0.7,0-0.9l12.2-7.1
				c0.2-0.1,0.3-0.1,0.5,0l12.3,7.1C71.1,65.1,71.1,65.6,70.8,65.8z"/>
			<path class="st104" d="M70.5,66.3l-12,7c-0.2,0.1-0.3,0.1-0.5,0l-12.1-7c-0.3-0.2-0.3-0.7,0-0.9l12-7c0.2-0.1,0.3-0.1,0.5,0
				l12.1,7C70.9,65.6,70.9,66.1,70.5,66.3z"/>
			<path class="st105" d="M70.3,66.8l-11.8,6.9c-0.2,0.1-0.3,0.1-0.5,0l-11.9-6.9c-0.3-0.2-0.3-0.7,0-0.9L57.9,59
				c0.2-0.1,0.3-0.1,0.5,0l11.9,6.9C70.6,66.1,70.6,66.6,70.3,66.8z"/>
			<path class="st7" d="M70.1,67.3L58.5,74c-0.2,0.1-0.3,0.1-0.5,0l-11.7-6.7c-0.3-0.2-0.3-0.7,0-0.9l11.6-6.7
				c0.2-0.1,0.3-0.1,0.5,0l11.7,6.7C70.4,66.6,70.4,67.1,70.1,67.3z"/>
		</g>
		
			<linearGradient id="SVGID_00000084503501496566969390000002316315261112232613_" gradientUnits="userSpaceOnUse" x1="54.3172" y1="60.0643" x2="61.5241" y2="72.5469">
			<stop  offset="0" style="stop-color:#AC44EE"/>
			<stop  offset="0.3072" style="stop-color:#8334C4"/>
			<stop  offset="0.5912" style="stop-color:#6529A6"/>
			<stop  offset="0.8318" style="stop-color:#532293"/>
			<stop  offset="1" style="stop-color:#4C1F8C"/>
		</linearGradient>
		<polygon style="fill:url(#SVGID_00000084503501496566969390000002316315261112232613_);" points="70.8,66.8 58.3,74.1 45.6,66.8 
			58.2,59.5 		"/>
		<g>
			<g>
				<path class="st5" d="M85.3,29.8c0,0.2-0.1,0.4-0.2,0.7c-0.1,0.2-0.1,0.4-0.2,0.5c-0.2,0.4-0.4,0.8-0.7,1.2
					c-0.1,0.1-0.1,0.2-0.2,0.4c0,0,0,0,0,0c0,0,0.1,0.1,0.1,0.2c0.1,0.3,0.1,0.7,0.1,1.3c0,0.4-0.1,0.8-0.3,1.2
					c-0.1,0.3-0.2,0.5-0.3,0.8c-0.4,0.8-1.1,1.6-2.2,2.3c-0.4,0.2-1.2,0.3-2,0.4c-0.2,0-0.4,0-0.6,0c-0.8,0-1.5,0-1.5,0
					s-0.3,0.1-0.7,0.3c-0.3,0.1-0.8,0.3-1.3,0.5c-2.2,0.9-5.5,2-5.7,1c-3.5,1.6-4.7-0.4-4.5-1.9c-1.2,1.5-3.6,0.8-3.8-1.1
					c-3.7-0.6-3.3-3-3.3-3c-3.4,2-5.7-0.5-5.5-1.7c-1.4,0.6-3,0.2-4.2-0.7c-0.5-0.3-0.7-2-0.7-2s-0.4-0.1-1-0.4
					c-1.1-0.5-2.1-1.3-2.7-2.4c-0.7-1.3-0.8-2.9-0.3-4.3C42.9,22.7,42.2,22,42,21c-0.1-0.6,0-1.4,0.3-1.9c0.2-0.3,0.6-0.7,0.6-1
					c0-0.3-0.5-0.9-0.7-1.2c-0.4-0.9-0.6-1.8-0.8-2.7c-0.1-0.7-0.1-1,0.4-1.5c0.5-0.6,1.1-1.1,1.5-1.7c0.1-0.1,0.1-0.2,0.1-0.4
					c0-0.1-0.1-0.2-0.1-0.4c-0.7-1.6,0-3.6,1.4-4.8c0.9-0.8,2.1-1.2,3.3-1.4c0.2,0,0.5,0,0.9,0c0.3,0,0.6,0,0.8-0.1c0,0,0,0,0,0
					C50,3.8,50,3.1,50.2,2.8c0.3-0.5,0.7-0.9,1.2-1.3c0.8-0.6,1.7-0.9,2.6-1.2C54.5,0.1,55,0,55.6,0c0.3,0,0.5,0,0.8,0.1
					c0,0,0,0,0,0c0.1,0,0.2,0.1,0.3,0.1c0.5,0.2,1,0.5,1.4,0.8c0,0,0.1,0.1,0.1,0.1c0.1,0.1,0.2,0.1,0.3,0.1c0,0,0,0,0,0
					c0,0,0,0,0,0c0.1,0,0.2-0.1,0.3-0.1c0,0,0.1,0,0.1-0.1c0.7-0.4,1.5-0.6,2.3-0.6c0.2,0,0.3,0,0.5,0c0.1,0,0.1,0,0.2,0
					c0.7,0.1,1.4,0.5,1.8,1c0.1,0.1,0.2,0.2,0.3,0.4c0.1,0.2,0.2,0.4,0.3,0.6c0.9-0.4,2-0.4,2.9,0.1c0.8,0.5,1.3,1.4,1.4,2.3
					c0,0,0,0.1,0,0.1c0,0,0,0,0,0.1c0,0,0.2-0.1,0.5-0.1c0.1,0,0.1,0,0.2,0c0.7,0,1.7,0.2,2.5,1.1c0.7,0.7,1,1.5,1.2,2.4
					c0,0.2,0.1,0.3,0.1,0.5c0.1,0,0.1,0,0.2,0c0.7,0,1.4,0,2.1,0.2c0.4,0.1,0.8,0.3,1.2,0.6c0.9,0.8,1,2.1,1,3.2
					c0.9,0.1,1.7,0.8,2.1,1.7c0.2,0.5,0.3,1,0.3,1.5c0,0.2-0.1,0.5-0.1,0.7c0,0.4-0.1,0.3,0.2,0.5c0.4,0.2,0.9,0.3,1.3,0.6
					c0.4,0.3,0.7,0.6,0.9,1c0.2,0.2,0.3,0.5,0.3,0.8c0,0,0,0,0,0c0,0.2,0.1,0.3,0.1,0.5c0,0.3-0.1,0.8-0.1,1.2v0c0,0.1,0,0.3,0,0.4
					c0,0.1,0.1,0.1,0.1,0.2c0,0,0,0,0,0c0.1,0.1,0.1,0.1,0.2,0.1c0.2,0.1,0.5,0.2,0.7,0.3c0.4,0.3,0.7,0.7,0.9,1.2
					c0.2,0.6,0.3,1.2,0.2,1.9c0,0.2-0.1,0.5-0.2,0.7c0,0.1-0.1,0.3-0.1,0.4c0,0.1,0,0.2,0.1,0.4c0.1,0.4,0.6,0.8,0.8,1.2
					C85.3,28.6,85.4,29.3,85.3,29.8z"/>
				<g>
					<g>
						<g>
							<path class="st2" d="M65.6,27.5c-0.1,0-0.1,0.1-0.2,0.2c-0.1,0.1-0.1,0.1-0.2,0.2c-0.8,0.6-2,1.4-4,1.4c-0.1,0-0.2,0-0.3,0
								c-2-0.1-3.6-0.6-4.7-1.6c-1.4-1.2-2.2-3-3-4.7c-0.5-1-1-2.1-1.6-3c-1-1.4-2.3-2.5-3.7-3c-1.3-0.5-2.7-0.5-3.9-0.1
								c0-0.1-0.1-0.3-0.1-0.4c1.3-0.5,2.8-0.4,4.2,0.1c0.6,0.2,1.1,0.5,1.6,0.8c0.2,0.1,0.3,0.2,0.5,0.3c0.7,0.5,1.3,1.2,1.8,2
								c0.6,1,1.1,2.1,1.6,3.1c0.8,1.7,1.5,3.3,2.9,4.5c1.1,0.9,2.6,1.4,4.4,1.5c1.9,0.1,3.2-0.7,4-1.3c0.1-0.1,0.2-0.1,0.2-0.2
								c0.1-0.1,0.2-0.1,0.2-0.2c0.1-0.1,0.2,0,0.3,0C65.7,27.2,65.7,27.4,65.6,27.5z"/>
						</g>
						<g>
							<path class="st2" d="M58.9,1.1c-0.1,1.5-0.7,3.1-1.8,4.5c-0.6,0.9-1.4,1.6-2.2,2.3c0,0,0,0,0,0c-0.2,0.1-0.4,0.3-0.5,0.4
								c0,0,0,0,0,0c-0.7,0.5-1.3,1-2,1.4l-0.1,0.1c-0.4,0.3-0.9,0.6-1.3,0.9c-1,0.9-1.5,2.1-1.6,3.4v0c0,0.3,0,0.5,0,0.8
								c0,0.1-0.1,0.2-0.2,0.3c0,0,0,0,0,0c-0.1,0-0.2-0.1-0.2-0.2c0-0.3-0.1-0.5-0.1-0.8c0-1.4,0.6-2.9,1.7-3.8
								c0.4-0.4,0.9-0.7,1.4-1l0.1-0.1c1.6-1,3.4-2.3,4.7-3.9c1-1.3,1.6-2.7,1.7-4.1c0,0,0,0,0,0c0,0,0,0,0,0c0.1,0,0.2-0.1,0.3-0.1
								C58.9,1.1,58.9,1.1,58.9,1.1z"/>
						</g>
						<g>
							<path class="st2" d="M56.9,14.6c-0.4,0-0.7-0.3-0.9-0.7c-0.4-0.8-0.4-1.8-0.4-2.7l0-0.3c0-0.8,0-1.9-0.6-2.6
								c-0.1-0.1-0.3-0.2-0.4-0.2c-0.1,0.1-0.2,0-0.3-0.1c-0.1-0.1,0-0.2,0.1-0.3c0.3-0.2,0.7,0,1,0.2c0.7,0.8,0.8,1.9,0.8,2.9
								l0,0.3c0,0.9-0.1,1.7,0.3,2.5c0.1,0.1,0.3,0.5,0.5,0.5c0,0,0,0,0,0c0.1,0,0.2,0.1,0.2,0.2C57.1,14.5,57,14.6,56.9,14.6
								C56.9,14.6,56.9,14.6,56.9,14.6z"/>
						</g>
						<g>
							<path class="st2" d="M50.5,2.3c0.2,0.7,0.3,1.4,0.3,2.1c0,1.2-0.3,2.2-1,2.9c-0.2,0.2-0.5,0.5-0.7,0.6
								C49,8,48.9,8.1,48.8,8.2c0,0-0.1,0-0.1,0c-0.1,0-0.1,0-0.2-0.1c-0.1-0.1-0.1-0.2,0-0.3c0.1-0.1,0.3-0.2,0.4-0.3
								c0.2-0.2,0.4-0.3,0.6-0.5c0.5-0.6,0.8-1.6,0.8-2.6c0-0.5-0.1-1.1-0.2-1.6L50.5,2.3z"/>
						</g>
						<g>
							<path class="st2" d="M73.9,36.8c0,0.1-0.1,0.1-0.2,0.1c0,0-0.1,0-0.1,0c-1.8-0.8-3-2.9-2.8-4.9c0.1-1,0.5-1.9,0.9-2.7
								l0.1-0.3c0.9-2,1.3-3.6,1.3-5.1c0.2-4.5-1.7-6.1-3.5-7.7c-1.2-1-2.4-2.1-3-3.9c-0.7-2.1,0-5.2,1.5-7c0.1-0.1,0.2-0.2,0.3-0.3
								c0,0,0,0.1,0,0.1c0,0,0,0,0,0.1c0,0,0.2-0.1,0.5-0.1c-0.2,0.2-0.4,0.3-0.5,0.5c-1.4,1.7-2.1,4.7-1.4,6.6
								c0.6,1.7,1.7,2.7,2.8,3.7c0.4,0.4,0.9,0.8,1.3,1.2l0,0c0.1,0.1,0.2,0.2,0.3,0.3c0,0,0,0,0,0c1.2,1.4,2.2,3.2,2.1,6.6
								c-0.1,1.6-0.5,3.2-1.4,5.3l-0.1,0.3c-0.4,0.8-0.7,1.7-0.8,2.6c-0.2,1.8,0.9,3.7,2.6,4.4C73.9,36.5,74,36.6,73.9,36.8z"/>
						</g>
						<g>
							<path class="st2" d="M54.7,32.6c0,0.7-0.1,1.2-0.2,1.7c-0.1-0.1-0.3-0.2-0.4-0.4c0.1-0.4,0.1-0.9,0.1-1.4
								c0.1-2.3-0.6-4.4-1.7-5.9c-0.5-0.7-1.1-1.2-1.8-1.8c-0.8-0.7-1.7-1.5-2.2-2.5c-0.2-0.3-0.3-0.6-0.3-0.8c0-0.2,0-0.4,0-0.6
								c0-0.1,0.2-0.2,0.3-0.2c0.1,0,0.2,0.2,0.2,0.3c0,0.1,0,0.3,0,0.5c0,0.2,0.1,0.4,0.3,0.6c0.5,0.9,1.3,1.6,2.2,2.4
								c0.6,0.6,1.3,1.2,1.8,1.9C54.1,28,54.7,30.2,54.7,32.6z"/>
						</g>
						<g>
							<path class="st2" d="M82.9,31.3c0,1-0.3,2-0.8,3.1c-0.5,1.1-1.1,2.2-2,3.5c-0.1,0.1-0.2,0.2-0.3,0.4
								c-0.1,0.2-0.3,0.4-0.4,0.5c-0.2,0-0.4,0-0.6,0c0.2-0.3,0.4-0.6,0.6-0.8c0.1-0.1,0.2-0.2,0.3-0.4c0.9-1.3,1.5-2.3,2-3.4
								c0.5-1.1,0.7-2.1,0.7-3c0-0.9-0.1-1.7-0.5-2.4c-0.1-0.2-0.2-0.3-0.3-0.5c-0.1-0.1,0-0.2,0.1-0.3c0.1-0.1,0.2,0,0.3,0.1
								c0.1,0.2,0.2,0.4,0.3,0.6C82.7,29.5,82.9,30.3,82.9,31.3z"/>
						</g>
						<g>
							<path class="st2" d="M76.8,34c-0.1,0-0.1,0-0.2-0.1c-1.2-1.8-1.6-3.8-1.2-5.5c0.1-0.5,0.4-1,0.6-1.5l0.1-0.2
								c0.6-1.3,1.2-3,1.2-4.8c0-1.8-0.6-3.4-1.7-4.4c-0.3-0.3-0.6-0.4-0.9-0.6c-0.4-0.1-0.8-0.2-1.1-0.2c-0.4,0-1,0-1.5,0.2
								c-0.3,0.1-0.5,0.2-0.7,0.4c-0.1,0.1-0.2,0.1-0.3,0c-0.1-0.1-0.1-0.2,0-0.3c0.2-0.2,0.5-0.4,0.8-0.5c0.5-0.2,1.1-0.2,1.6-0.2
								c0.4,0,0.9,0,1.3,0.2c0.3,0.1,0.7,0.3,1,0.6c1.2,1.1,1.9,2.8,1.9,4.8c0,1.9-0.7,3.6-1.3,5l-0.1,0.2c-0.2,0.5-0.4,1-0.6,1.5
								c-0.4,1.6,0,3.4,1.1,5.1c0.1,0.1,0,0.2-0.1,0.3C76.9,34,76.8,34,76.8,34z"/>
						</g>
						<g>
							<path class="st2" d="M47.2,14.6c0,0.3-0.2,0.5-0.4,0.5c0,0,0,0-0.1,0c-0.1,0-0.2-0.1-0.2-0.3c0-0.1,0.1-0.2,0.2-0.2
								c0,0,0-0.1,0-0.1c0.2-1.3,0.2-2.5,0.1-3.5c-0.2-1.2-0.6-2.2-1.3-3.1c0.1-0.1,0.1-0.1,0.2-0.2c0.1-0.1,0.1-0.1,0.2-0.1
								c0.7,0.9,1.2,2,1.4,3.3C47.4,12,47.4,13.2,47.2,14.6z"/>
						</g>
						<g>
							<path class="st2" d="M64,1.8c-0.4,0.4-0.9,0.9-1.2,1.6c-0.8,1.5-1.2,3.3-1.1,4.8c0,0.1-0.1,0.2-0.2,0.2c0,0,0,0,0,0
								c-0.1,0-0.2-0.1-0.2-0.2c-0.2-1.7,0.2-3.5,1.1-5.1c0.4-0.7,0.9-1.3,1.3-1.7C63.8,1.6,63.9,1.7,64,1.8z"/>
						</g>
						<g>
							<path class="st2" d="M68.8,29.2c-0.4,1.9-1.8,3.6-3.6,4.3c-0.8,0.3-1.6,0.5-2.5,0.5c-0.9,0-1.9-0.2-3.1-0.5
								c-1.5-0.4-2.6-1-3.4-1.7c-0.2-0.2-0.4-0.4-0.5-0.6c-0.1-0.1-0.1-0.2,0-0.3c0.1-0.1,0.2-0.1,0.3,0c0.1,0.2,0.3,0.4,0.5,0.5
								c0.7,0.7,1.8,1.2,3.2,1.6c2.1,0.6,3.8,0.6,5.3,0c1.6-0.7,2.9-2.2,3.3-4c0.4-1.7-0.2-3.7-1.4-5c-0.9-1-2.2-1.7-3.4-2.3
								c-1.2-0.7-2.5-1.4-3.5-2.4c-1.1-1.3-1.8-3.1-1.9-5.1c0-0.2,0-0.4,0-0.6c0-0.1,0-0.1,0-0.2c0-1.6,0.3-3.2,0.6-4.7
								c0.6-2.7,1.3-5.6,2.4-8.3c0.2,0,0.3,0,0.5,0c-1.2,2.7-1.9,5.6-2.5,8.4c-0.3,1.5-0.6,3-0.6,4.6c0,0.2,0,0.4,0,0.5
								c0,0.1,0,0.1,0,0.2c0.1,2,0.7,3.7,1.8,4.9c0.9,1,2.2,1.7,3.4,2.3c1.2,0.7,2.5,1.3,3.5,2.4c0.6,0.7,1.1,1.6,1.4,2.5
								c0,0.2,0.1,0.3,0.1,0.5C68.9,27.5,68.9,28.3,68.8,29.2z"/>
						</g>
						<g>
							<path class="st2" d="M59.9,14.3c-0.6,0-1.2-0.2-1.6-0.6c-0.1-0.1-0.1-0.2,0-0.3c0.1-0.1,0.2-0.1,0.3,0
								c0.7,0.6,1.8,0.5,2.6,0.2c0.7-0.4,1.4-1,2-2c1.6-2.4,2.3-5.5,1.9-8.3C65,3.1,65.1,3,65.2,3c0.1,0,0.2,0.1,0.2,0.2
								c0.3,3-0.4,6.1-2,8.6c-0.7,1.1-1.4,1.8-2.2,2.1C60.8,14.1,60.3,14.3,59.9,14.3z"/>
						</g>
						<g>
							<path class="st2" d="M68.6,26.8c-0.1,0-0.1,0-0.2-0.1c-0.1-0.1,0-0.2,0.1-0.3c0.8-0.5,1.3-1.4,1.3-2.5c0-0.9-0.3-1.9-0.8-2.8
								c-0.6-0.9-1.3-1.7-2-2.3c-0.6-0.6-1.4-1.4-2.3-2c-0.1-0.1-0.1-0.2,0-0.3c0.1-0.1,0.2-0.1,0.3,0c0.9,0.6,1.7,1.4,2.3,2
								c0.7,0.7,1.5,1.5,2,2.4c0.6,1,0.9,2.1,0.9,3.1c0,1.2-0.6,2.3-1.5,2.8C68.6,26.8,68.6,26.8,68.6,26.8z"/>
						</g>
						<g>
							<path class="st2" d="M71.2,38.8C71.2,38.8,71.2,38.8,71.2,38.8c-0.5,0-0.9-0.3-1.3-0.7c-1.2-1.1-1.8-2.9-1.6-4.5
								c0-0.1,0.1-0.2,0.3-0.2c0.1,0,0.2,0.1,0.2,0.3c-0.2,1.5,0.4,3.1,1.4,4.1c0.4,0.4,0.7,0.5,1,0.6c0.1,0,0.2,0.1,0.2,0.2
								C71.4,38.7,71.3,38.8,71.2,38.8z"/>
						</g>
						<g>
							<path class="st2" d="M60.2,26.3c-0.7,0-1.5-0.2-2.2-0.6c-0.9-0.5-1.6-1.3-2.2-2.3c-0.1-0.1,0-0.2,0.1-0.3
								c0.1-0.1,0.2,0,0.3,0.1c0.5,0.9,1.2,1.7,2,2.1c0.9,0.5,1.9,0.7,2.8,0.4c0.1,0,0.2,0,0.3,0.2c0,0.1,0,0.2-0.2,0.3
								C60.8,26.3,60.5,26.3,60.2,26.3z"/>
						</g>
						<g>
							<path class="st2" d="M51.3,30.1c-0.1,0-0.2-0.1-0.2-0.2c-0.6-2.1-2.3-3.8-4.3-4.6c-0.1,0-0.2-0.2-0.1-0.3
								c0-0.1,0.2-0.2,0.3-0.1c2.2,0.8,3.9,2.7,4.6,4.9C51.5,29.9,51.4,30,51.3,30.1C51.3,30.1,51.3,30.1,51.3,30.1z"/>
						</g>
						<g>
							<path class="st2" d="M78.9,18.1c0,0.1-0.1,0.2-0.2,0.2c0,0,0,0,0,0c-0.1,0-0.2-0.1-0.2-0.2c0-0.2,0-0.4,0-0.6v0
								c-0.1-0.4-0.2-0.8-0.4-1.2c-0.6-1.3-1.9-2.2-2.9-2.8l-0.2-0.1c-0.5-0.3-1-0.6-1.5-1.1c-0.3-0.3-0.5-0.7-0.7-1.1
								c-0.2-0.6-0.3-1.1-0.3-1.6c0-0.4,0.2-0.8,0.4-1.2c0,0.2,0.1,0.3,0.1,0.5c0.1,0,0.1,0,0.2,0C73,9.1,73,9.4,73,9.6
								c0,0.4,0.1,0.8,0.3,1.4c0.2,0.4,0.4,0.7,0.6,1c0.4,0.4,0.9,0.7,1.3,1l0.2,0.1c1.1,0.7,2.4,1.6,3.1,3c0.2,0.4,0.3,0.9,0.4,1.4
								v0C78.9,17.7,78.9,17.9,78.9,18.1z"/>
						</g>
						<g>
							<path class="st2" d="M70.2,13c0,0,0.1-0.1,0.1-0.1c0.5-1,0.6-2.1,0.3-3.2c-0.3-1.1-1-2-1.9-2.6c-0.4-0.3-0.9-0.4-1.2-0.4
								c-0.1,0-0.2,0.1-0.2,0.2c0,0.1,0.1,0.2,0.2,0.2c0.3,0,0.6,0.1,1,0.3c0.8,0.5,1.4,1.4,1.7,2.3c0.3,1,0.2,2-0.3,2.9
								c-0.1,0.1,0,0.2,0.1,0.3C70.1,13,70.1,13,70.2,13z"/>
						</g>
						<g>
							<path class="st2" d="M62.7,23.6C62.7,23.6,62.7,23.6,62.7,23.6c-1.5-0.1-3-0.7-4.1-1.8c-0.6-0.6-1.2-1.4-1.7-2.2
								c-0.7-1.1-1.4-2.1-2.5-2.7c-0.5-0.3-1.1-0.5-1.8-0.6c-0.5-0.1-1.2-0.2-1.7,0.1c-0.5,0.2-0.9,0.7-0.8,1.2
								c0,0.1-0.1,0.2-0.2,0.3c-0.1,0-0.2-0.1-0.3-0.2c-0.1-0.8,0.4-1.5,1.1-1.7c0.7-0.3,1.4-0.2,2-0.1c0.8,0.1,1.4,0.4,2,0.7
								c1.2,0.7,1.9,1.8,2.6,2.9c0.5,0.7,1,1.5,1.6,2.1c1,1,2.4,1.6,3.8,1.7c0.1,0,0.2,0.1,0.2,0.2C62.9,23.6,62.8,23.6,62.7,23.6z"
								/>
						</g>
						<g>
							<path class="st2" d="M76,39.4c-0.1,0-0.1,0-0.2-0.1c-0.1-0.1-0.1-0.2,0-0.3c0.4-0.4,0.5-1.2,0.3-1.9
								c-0.2-0.7-0.7-1.3-1.2-1.8c-0.1-0.1-0.2-0.2-0.2-0.3c-0.4-0.5-0.9-1-1.2-1.5c-0.5-0.9-0.7-2-0.4-2.9c0.3-1.2,1.2-2.1,2.3-2.5
								c0.1,0,0.2,0,0.3,0.1c0,0.1,0,0.2-0.1,0.3c-1,0.3-1.8,1.2-2,2.2c-0.2,0.8-0.1,1.8,0.4,2.6c0.3,0.5,0.7,1,1.1,1.5
								c0.1,0.1,0.2,0.2,0.2,0.3c0.5,0.6,1,1.2,1.2,2c0.3,0.9,0.1,1.8-0.4,2.3C76.1,39.4,76.1,39.4,76,39.4z"/>
						</g>
						<g>
							<path class="st2" d="M84.3,26.1c0,0.1-0.1,0.3-0.1,0.4c-1-0.1-2-0.4-2.8-1c-1.2-0.8-2.1-2-2.5-3.3c0-0.1,0-0.2,0.2-0.3
								c0.1,0,0.2,0,0.3,0.1c0.4,1.2,1.2,2.4,2.3,3.1c0.1,0.1,0.2,0.1,0.3,0.2c0.1,0.1,0.3,0.1,0.4,0.2C83,25.8,83.6,26,84.3,26.1z"
								/>
						</g>
						<g>
							<path class="st2" d="M78,36c-0.1,0-0.1,0-0.2-0.1c-0.1-0.1-0.1-0.2,0-0.3c1-0.8,1.7-2.1,1.8-3.6c0.1-1.3-0.2-2.6-0.8-4
								c0,0,0,0,0,0c-0.1,0-0.1,0-0.2-0.1c-0.1-0.1-0.1-0.2,0-0.3c0.1-0.1,0.2-0.1,0.3-0.1c0.2,0,0.3,0.2,0.3,0.3
								c0.7,1.5,1,2.9,0.9,4.3c-0.1,1.6-0.9,3-2,3.9C78.1,36,78,36,78,36z"/>
						</g>
						<g>
							<path class="st2" d="M56.7,0.2c-0.2,1-0.4,1.8-0.7,2.6c-0.5,1.2-1.3,2.2-2.2,2.8c0,0-0.1,0-0.1,0c-0.1,0-0.1,0-0.2-0.1
								c-0.1-0.1,0-0.2,0.1-0.3c0.9-0.6,1.6-1.5,2.1-2.6c0.3-0.7,0.5-1.5,0.7-2.4C56.4,0.1,56.6,0.1,56.7,0.2z"/>
						</g>
						<g>
							<path class="st2" d="M44.5,22.8C44.5,22.8,44.5,22.8,44.5,22.8c0.2-0.4,0.3-0.8,0.6-1.2c0.5-0.9,1.2-1.6,1.9-2
								c0.4-0.2,0.8-0.4,1.2-0.5c0.1,0,0.2-0.1,0.2-0.3c0-0.1-0.1-0.2-0.3-0.2c-0.4,0.1-0.9,0.2-1.3,0.5c-0.8,0.5-1.5,1.2-2.1,2.2
								c-0.2,0.3-0.3,0.5-0.4,0.8L44.5,22.8z"/>
						</g>
					</g>
					<g>
						<path class="st2" d="M65.7,35.5c0,1.2-0.6,2.4-1.6,3.3c-0.2,0.2-0.4,0.3-0.5,0.4c-0.1-0.1-0.2-0.1-0.4-0.2c0,0,0,0,0,0
							c0.2-0.1,0.4-0.3,0.6-0.5c0.7-0.6,1.5-1.7,1.5-2.9c0-0.2,0-0.4,0-0.6c0-0.1,0.1-0.2,0.2-0.3c0.1,0,0.2,0.1,0.3,0.2
							C65.7,35.1,65.7,35.3,65.7,35.5z"/>
					</g>
					<g>
						<path class="st2" d="M52.3,14.8c-0.1,0-0.2-0.1-0.2-0.2c0-1.1,0.2-2.2,0.7-3.2c0.1-0.2,0.3-0.5,0.6-0.6c0.1,0,0.2,0.1,0.3,0.2
							c0,0.1-0.1,0.2-0.2,0.3c-0.1,0-0.2,0.1-0.3,0.3c-0.5,0.9-0.7,2-0.7,3C52.5,14.7,52.4,14.8,52.3,14.8
							C52.3,14.8,52.3,14.8,52.3,14.8z"/>
					</g>
					<g>
						<path class="st2" d="M64.5,20.2c-0.1,0-0.1,0-0.2-0.1c-0.9-1.4-2.1-2.6-3.6-3.4c-0.1-0.1-0.1-0.2-0.1-0.3
							c0.1-0.1,0.2-0.1,0.3-0.1c1.5,0.9,2.8,2.1,3.7,3.6c0.1,0.1,0,0.2-0.1,0.3C64.6,20.2,64.6,20.2,64.5,20.2z"/>
					</g>
					<path class="st2" d="M64.9,17.3c-0.4,0-0.8-0.3-0.8-0.7c0-0.4,0.3-0.8,0.7-0.8c0.4,0,0.8,0.3,0.8,0.7
						C65.6,16.9,65.3,17.2,64.9,17.3z"/>
					<path class="st2" d="M65.5,27.9c-0.4,0-0.8-0.3-0.8-0.7c0-0.4,0.3-0.8,0.7-0.8c0.4,0,0.8,0.3,0.8,0.7
						C66.3,27.5,65.9,27.9,65.5,27.9z"/>
					<path class="st2" d="M56,31.8c-0.4,0-0.8-0.3-0.8-0.7c0-0.4,0.3-0.8,0.7-0.8c0.4,0,0.8,0.3,0.8,0.7
						C56.7,31.5,56.4,31.8,56,31.8z"/>
					<path class="st2" d="M48.4,21.6c-0.4,0-0.8-0.3-0.8-0.7c0-0.4,0.3-0.8,0.7-0.8c0.4,0,0.8,0.3,0.8,0.7
						C49.1,21.2,48.8,21.5,48.4,21.6z"/>
					<path class="st2" d="M49.3,15.6c-0.4,0-0.8-0.3-0.8-0.7c0-0.4,0.3-0.8,0.7-0.8c0.4,0,0.8,0.3,0.8,0.7
						C50,15.2,49.7,15.6,49.3,15.6z"/>
					<path class="st2" d="M62.8,24.1c-0.4,0-0.8-0.3-0.8-0.7c0-0.4,0.3-0.8,0.7-0.8c0.4,0,0.8,0.3,0.8,0.7S63.2,24.1,62.8,24.1z"/>
					<path class="st2" d="M78.7,19c-0.4,0-0.8-0.3-0.8-0.7c0-0.4,0.3-0.8,0.7-0.8c0.4,0,0.8,0.3,0.8,0.7
						C79.4,18.6,79.1,18.9,78.7,19z"/>
					<path class="st2" d="M70,13.5c-0.4,0-0.8-0.3-0.8-0.7c0-0.4,0.3-0.8,0.7-0.8c0.4,0,0.8,0.3,0.8,0.7
						C70.8,13.1,70.5,13.4,70,13.5z"/>
					<path class="st2" d="M76,39.9c-0.4,0-0.8-0.3-0.8-0.7c0-0.4,0.3-0.8,0.7-0.8c0.4,0,0.8,0.3,0.8,0.7
						C76.7,39.6,76.4,39.9,76,39.9z"/>
					<path class="st2" d="M65.4,35.6c-0.4,0-0.8-0.3-0.8-0.7c0-0.4,0.3-0.8,0.7-0.8c0.4,0,0.8,0.3,0.8,0.7
						C66.1,35.2,65.8,35.6,65.4,35.6z"/>
					<path class="st2" d="M79,28.5c-0.4,0-0.8-0.3-0.8-0.7c0-0.4,0.3-0.8,0.7-0.8c0.4,0,0.8,0.3,0.8,0.7
						C79.7,28.1,79.4,28.5,79,28.5z"/>
					<path class="st2" d="M49.3,8.9c-0.4,0-0.8-0.3-0.8-0.7c0-0.4,0.3-0.8,0.7-0.8c0.4,0,0.8,0.3,0.8,0.7C50,8.5,49.7,8.8,49.3,8.9z
						"/>
				</g>
			</g>
			<path class="st107" d="M43.7,6.6L43.7,6.6C43.7,6.6,43.7,6.7,43.7,6.6C43.7,6.7,43.7,6.7,43.7,6.6L43.7,6.6
				c-0.1,0.1-0.1,0.1-0.1,0.1c-0.1,0.3-0.3,0.5-0.3,0.8c0,0,0,0.1,0,0.1c-0.1,0.2-0.1,0.4-0.1,0.5c0,0,0,0.1,0,0.1c0,0,0,0.1,0,0.1
				c0,0,0,0.1,0,0.1c0,0,0,0.1,0,0.1c0,0,0,0.1,0,0.1c0,0,0,0.1,0,0.1c0,0.1,0,0.2,0,0.3c0,0.1,0,0.1,0,0.2c0,0.1,0,0.2,0.1,0.3
				c0,0.2,0.1,0.3,0.2,0.5c0,0,0,0,0,0c0,0,0,0,0,0c0,0,0,0,0,0.1c0,0,0,0.1,0,0.1c0,0,0,0.1,0,0.1c0,0,0,0,0,0.1c0,0,0,0,0,0.1
				c0,0,0,0.1,0,0.1c0,0.1-0.1,0.1-0.1,0.2c-0.1,0.1-0.2,0.2-0.2,0.4c-0.4,0.5-0.8,0.9-1.2,1.4c-0.4,0.5-0.4,0.8-0.4,1.5
				c0,0.2,0,0.4,0.1,0.5c0,0.1,0,0.2,0.1,0.3c0.1,0.3,0.1,0.6,0.2,0.9c0,0.1,0.1,0.2,0.1,0.3c0.1,0.2,0.2,0.4,0.3,0.7
				c0,0,0,0.1,0.1,0.1c0.1,0.2,0.3,0.4,0.4,0.6c0,0,0,0.1,0,0.1c0,0.1,0.1,0.1,0.1,0.2c0,0.1,0.1,0.2,0.1,0.2c0,0,0,0.1,0,0.1
				c0,0,0,0.1,0,0.1c0,0,0,0,0,0c-0.1,0.1-0.2,0.3-0.2,0.4c0,0,0,0.1-0.1,0.1c0,0-0.1,0.1-0.1,0.1c0,0,0,0,0,0.1c0,0,0,0,0,0
				c0,0,0,0,0,0.1c0,0,0,0.1,0,0.1c0,0.1-0.1,0.2-0.1,0.2c0,0.1-0.1,0.2-0.1,0.3c0,0.1,0,0.1,0,0.2c0,0.1,0,0.2-0.1,0.3
				c0,0.1,0,0.1,0,0.2c0,0.2,0,0.5,0.1,0.7c0,0.2,0.1,0.4,0.2,0.6c0,0.1,0.1,0.1,0.1,0.2c0,0,0,0.1,0,0.1c0,0.1,0.1,0.1,0.1,0.2
				c0,0,0,0,0,0.1c0,0,0.1,0.1,0.1,0.1c0.1,0.1,0.2,0.2,0.3,0.3c0.2,0.3,0.5,0.5,0.8,0.6c-0.5,1.4-0.4,3,0.3,4.3
				c0.6,1.2,1.5,1.9,2.7,2.4c0.4,0.2,0.8,0.3,0.9,0.3c0,0,0,0,0.1,0c0,0,0,0,0,0c0,0,0,0,0,0s0,0.1,0,0.2c0,0,0,0,0,0c0,0,0,0,0,0.1
				c0,0,0,0,0,0c0,0,0,0,0,0.1c0,0,0,0,0,0c0,0,0,0,0,0.1c0,0,0,0,0,0c0,0,0,0,0,0.1c0.1,0.5,0.3,1.1,0.6,1.4c0,0,0,0,0,0
				c0.1,0.1,0.2,0.1,0.3,0.2c0.1,0,0.1,0.1,0.2,0.1c0.4,0.2,0.8,0.4,1.2,0.5c0.4,0.1,0.9,0.2,1.4,0.1c0.1,0,0.2,0,0.4,0
				c0.1,0,0.1,0,0.2,0c0.1,0,0.1,0,0.2,0c0.2,0,0.3-0.1,0.5-0.1c0,0.2,0,0.4,0.1,0.6c0,0.1,0,0.1,0.1,0.2c0,0.1,0.1,0.2,0.2,0.3
				c0.6,0.9,2,1.8,3.9,1.2c0.1,0,0.2-0.1,0.3-0.1c0.1,0,0.2-0.1,0.3-0.1c0.2-0.1,0.4-0.2,0.7-0.3c0,0,0,0,0,0c0,0-0.2,1.3,1,2.2
				c0,0,0.1,0.1,0.1,0.1c0,0,0.1,0.1,0.1,0.1c0,0,0.1,0.1,0.2,0.1c0.5,0.2,1.1,0.5,1.9,0.6c0.2,1.9,2.5,2.6,3.8,1.1
				c-0.1,0.7,0.1,1.5,0.7,2c0.1,0,0.1,0.1,0.2,0.1c0.1,0.1,0.3,0.1,0.4,0.2c0.4,0.2,0.9,0.2,1.5,0.1c0,0,0.1,0,0.1,0
				c0.1,0,0.2,0,0.3-0.1c0,0,0.1,0,0.1,0c0.1,0,0.2-0.1,0.3-0.1c0.2-0.1,0.4-0.2,0.7-0.2c0.1,0,0.1,0,0.2-0.1c0,0.1,0.1,0.2,0.1,0.2
				c0.2,0.2,0.6,0.2,1,0.2c0.1,0,0.2,0,0.3,0c0.1,0,0.2,0,0.3,0c0,0,0,0,0,0c0.3-0.1,0.6-0.1,0.9-0.2c0,0,0,0,0,0c0,0,0.1,0,0.1,0
				c0.1,0,0.1,0,0.2,0c0.1,0,0.1,0,0.2,0c0.1,0,0.2-0.1,0.3-0.1c0.1,0,0.2-0.1,0.3-0.1c0.1,0,0.1,0,0.2-0.1c0.1,0,0.1,0,0.2-0.1
				c0.1,0,0.1,0,0.2-0.1c0.1,0,0.1,0,0.2-0.1c0.1,0,0.2-0.1,0.3-0.1c0,0,0.1,0,0.1-0.1c0,0,0.1,0,0.1-0.1c0.2-0.1,0.4-0.1,0.5-0.2
				c0.1-0.1,0.3-0.1,0.4-0.1c0.1,0,0.1,0,0.2-0.1c0.2-0.1,0.4-0.1,0.5-0.2c0.2-0.1,0.3-0.1,0.5-0.2c0.1,0,0.2-0.1,0.2-0.1
				c0,0,0,0,0.1,0c0.1,0,0.2-0.1,0.3-0.1c0,0,0,0,0,0c0,0,0,0,0,0s0,0,0.1,0c0,0,0.1,0,0.1,0c0.3,0,0.8,0,1.3,0
				c0.1-0.2,0.2-0.4,0.2-0.6c0.2-0.6-0.1-1-0.1-1.5c0-0.4,0.4-0.6,0.6-0.9c0.5-0.8,0.7-1.7,0.6-2.6c-0.1-1-0.5-1.9-1.2-2.5
				c-0.2-0.1-0.3-0.3-0.6-0.3c-0.1,0-0.1,0-0.2,0c0.1-0.2,0.2-0.5,0.3-0.8c0.2-0.8,0.2-1.6-0.1-2.3c-0.2-0.5-0.5-0.9-0.9-1.2
				c-0.3-0.2-0.8-0.3-1-0.7c-0.1-0.4,0.1-1.1,0.1-1.6c-0.1-0.5-0.2-0.9-0.4-1.3c-0.5-0.9-1.5-1.6-2.6-1.6c0.2-0.8,0.1-1.7-0.4-2.4
				c-0.3-0.5-0.8-0.7-1.1-1.1c-0.1-0.1-0.3-0.2-0.4-0.4c-0.1-0.1-0.2-0.3-0.2-0.5c-0.2-1.1-0.4-2.1-1.2-2.9
				c-0.3-0.3-0.7-0.6-1.1-0.8c-0.6-0.3-1.2-0.5-1.9-0.5c-0.1,0-0.2,0-0.4,0c0-0.3,0-0.6-0.1-0.9c0,0,0,0,0,0
				c-0.2-0.8-0.6-1.6-1.1-2.2c-1-1.1-2.3-1.1-3-1.1c-0.3,0-0.5,0.1-0.5,0.1s0,0,0-0.1c-0.1-0.3-0.7-1.4-1.9-2.1
				c-1.3-0.8-3.1-0.7-3.1-0.7s-1.3-1.3-2-1.5c-0.8-0.2-1.6-0.2-2.3,0c-0.5,0.1-1.4,0.7-1.4,0.7s0,0-0.1,0c-0.1,0-0.3-0.1-0.6-0.2
				c-0.5-0.1-1.1-0.3-1.5-0.4L43.7,6.6z"/>
			<path class="st7" d="M78.4,36.9c-0.1,0.2-0.2,0.3-0.4,0.5c-0.1,0.1-0.2,0.3-0.2,0.4c0,0,0,0,0,0.1c-0.1,0.5,0.2,1,0.1,1.5
				c-0.2,0.6-0.5,1-0.9,1.5c-0.2,0.2-0.4,0.4-0.7,0.6c-0.3,0.1-0.6,0.2-0.8,0c0,0.1,0,0.2,0,0.3c0,0,0,0,0,0c0,0.2-0.1,0.5-0.2,0.7
				c-0.3,0.6-0.7,1.1-1.3,1.4c-0.5,0.3-1.1,0.4-1.7,0.4c-0.4,0-0.9-0.1-1.3-0.1c-0.1,0-0.2,0-0.3,0.1c-0.1,0-0.2,0.1-0.3,0.2
				c0,0,0,0,0,0c0,0,0,0,0,0c-0.1,0.1-0.1,0.1-0.2,0.2c-0.2,0.2-0.5,0.5-0.7,0.7c-0.5,0.4-1,0.7-1.6,0.8c-0.9,0.1-1.7-0.4-2.5-0.8
				c-1,0.9-2.7,0.9-3.6-0.1c-0.7,0.5-1.6,0.6-2.4,0.3c-0.4-0.1-0.7-0.3-1-0.6c-0.1-0.1-0.2-0.3-0.4-0.5c-0.1-0.2-0.2-0.3-0.3-0.4
				c0,0-0.1,0-0.1,0c-0.4,0-1.1,0.6-1.5,0.6c-0.4,0-0.8,0-1.2-0.2c-0.1-0.1-0.2-0.1-0.4-0.2c0,0,0,0,0,0c-0.1-0.1-0.4-0.6-0.6-1
				c0,0,0,0,0,0c-0.1-0.3-0.2-0.5-0.2-0.5c-0.1,0-0.1,0-0.2,0c-3.6-0.7-3.1-3.1-3.1-3.1c-2,1.2-3.7,0.8-4.6,0
				c-0.1-0.1-0.3-0.2-0.4-0.4c-0.1-0.1-0.2-0.2-0.3-0.3c-0.2-0.3-0.3-0.6-0.3-0.8c0-0.1,0-0.2,0-0.3c-1.4,0.5-3.1,0.2-4.3-0.7
				c-0.5-0.4-0.7-2-0.7-2s-0.4-0.1-1-0.4c-1.1-0.5-2.1-1.3-2.7-2.5c-0.6-1.2-0.7-2.7-0.3-4.1c0,0,0,0,0,0c0-0.1,0.1-0.2,0.1-0.4
				c-0.1-0.1-0.2-0.1-0.4-0.2c-0.7-0.5-1.2-1.2-1.4-2c-0.1-0.7,0-1.4,0.3-2c0.2-0.4,0.6-1,0.8-1.2c0,0,0-0.1,0-0.1s0-0.1,0-0.2
				c0-0.1-0.1-0.3-0.1-0.4c0,0,0-0.1,0-0.1c-0.1-0.4-0.3-0.8-0.4-1c-0.9-1.7-0.7-3.9,0.3-5.5c0.4-0.6,1.3-1.5,1.8-1.9
				c0.1-0.1,0.1-0.1,0.2-0.2c0.1-0.1,0.1-0.1,0.2-0.1c0,0,0,0,0,0s0-0.1,0.1-0.4c0.2-0.7,0.6-2.4,1.3-3.2c0.9-1,2.3-1.6,3.6-1.2
				c0,0,0.1,0,0.1,0c0.1,0,0.1,0,0.2,0.1c0-0.2,0.1-0.3,0.2-0.5c0,0,0,0,0,0l0,0c0.5-1.1,1.7-1.8,2.9-2.1c0.7-0.2,1.4-0.2,2-0.2
				c0.2,0,0.3,0,0.4,0c0,0,0,0,0,0c0.4,0.1,1.2,0.3,1.7,0.4c0,0,0,0,0,0c0.2,0.1,0.3,0.1,0.5,0.1c0,0,0,0,0.1,0c0.1,0,0.1,0,0.1,0
				s0.9-0.5,1.4-0.7c0.3-0.1,0.6-0.1,1-0.2c0.2,0,0.3,0,0.5,0c0.3,0,0.6,0.1,0.8,0.1c0.4,0.1,1.1,0.6,1.5,1c0.1,0.1,0.3,0.2,0.3,0.3
				c0.1,0.1,0.1,0.1,0.1,0.1s1.8-0.1,3.1,0.7c0.9,0.6,1.5,1.3,1.7,1.8c0.1,0.1,0.1,0.2,0.1,0.3c0,0,0,0.1,0,0.1s0.1,0,0.3,0
				c0.1,0,0.1,0,0.2,0c0.7-0.1,2,0,3,1.1c0.6,0.6,1,1.4,1.1,2.2c0,0,0,0,0,0.1c0,0,0,0,0,0c0,0.2,0.1,0.4,0.1,0.6c0,0.1,0,0.1,0,0.2
				c0.1,0,0.2,0,0.4,0c0.6,0,1.3,0.2,1.9,0.5c0.4,0.2,0.8,0.5,1.1,0.8c0.8,0.8,1.1,1.8,1.2,2.9c0,0.2,0.1,0.4,0.2,0.5
				c0.1,0.2,0.2,0.3,0.4,0.4c0.4,0.3,0.8,0.6,1.1,1.1c0.4,0.7,0.6,1.6,0.4,2.4c1.1,0.1,2,0.7,2.6,1.6c0.2,0.4,0.4,0.9,0.4,1.3
				c0.1,0.4-0.2,1.2-0.1,1.6c0.1,0.4,0.7,0.5,1,0.7c0.4,0.3,0.7,0.7,0.9,1.2c0.3,0.7,0.3,1.5,0.1,2.3c0,0.1-0.1,0.2-0.1,0.4
				c0,0.1-0.1,0.3-0.2,0.4c0.1,0,0.2,0,0.2,0c0,0,0,0,0,0c0,0,0,0,0,0c0.2,0.1,0.4,0.2,0.5,0.3c0.7,0.6,1.2,1.5,1.2,2.5
				C79.1,35.2,78.9,36.1,78.4,36.9z"/>
			<g>
				<g>
					<g>
						<path class="st2" d="M56.9,32.5c-0.1,0-0.1,0.1-0.2,0.2c-0.1,0.1-0.1,0.1-0.2,0.2c-0.8,0.6-2,1.4-4,1.4c-0.1,0-0.2,0-0.3,0
							c-2-0.1-3.6-0.6-4.7-1.6c-1.4-1.2-2.2-3-3-4.7c-0.5-1-1-2.1-1.6-3c-1-1.4-2.3-2.5-3.7-3c-1.3-0.5-2.7-0.5-3.9-0.1
							c0-0.1-0.1-0.3-0.1-0.4c1.3-0.5,2.8-0.4,4.2,0.1c0.6,0.2,1.1,0.5,1.6,0.8c0.2,0.1,0.3,0.2,0.5,0.3c0.7,0.5,1.3,1.2,1.8,2
							c0.6,1,1.1,2.1,1.6,3.1c0.8,1.7,1.5,3.3,2.9,4.5c1.1,0.9,2.6,1.4,4.4,1.5c1.9,0.1,3.2-0.7,4-1.3c0.1-0.1,0.2-0.1,0.2-0.2
							c0.1-0.1,0.2-0.1,0.2-0.2c0.1-0.1,0.2,0,0.3,0C57,32.3,57,32.4,56.9,32.5z"/>
					</g>
					<g>
						<path class="st2" d="M50.3,5.7c0,1.6-0.6,3.4-1.8,4.9c-0.7,0.9-1.4,1.6-2.2,2.3c-0.2,0.1-0.4,0.3-0.5,0.4
							c-0.7,0.5-1.3,1-2,1.4l-0.1,0.1c-0.4,0.3-0.9,0.6-1.3,0.9c-1,0.9-1.5,2.1-1.6,3.4c0,0.3,0,0.5,0,0.8c0,0.1-0.1,0.2-0.2,0.3
							c0,0,0,0,0,0c-0.1,0-0.2-0.1-0.2-0.2c0-0.3-0.1-0.5-0.1-0.8c0-1.4,0.6-2.9,1.7-3.8c0.4-0.4,0.9-0.7,1.4-1l0.1-0.1
							c1.6-1,3.4-2.3,4.7-3.9c1.1-1.5,1.7-3.2,1.7-4.7C50,5.7,50.2,5.7,50.3,5.7z"/>
					</g>
					<g>
						<path class="st2" d="M48.2,19.7c-0.4,0-0.7-0.3-0.9-0.7c-0.4-0.8-0.4-1.8-0.4-2.7l0-0.3c0-0.8,0-1.9-0.6-2.6
							c-0.1-0.1-0.3-0.2-0.4-0.2c-0.1,0.1-0.2,0-0.3-0.1c-0.1-0.1,0-0.2,0.1-0.3c0.3-0.2,0.7,0,1,0.2c0.7,0.8,0.8,1.9,0.8,2.9l0,0.3
							c0,0.9-0.1,1.7,0.3,2.5c0.1,0.1,0.3,0.5,0.5,0.5c0,0,0,0,0,0c0.1,0,0.2,0.1,0.2,0.2C48.5,19.5,48.4,19.7,48.2,19.7
							C48.2,19.7,48.2,19.7,48.2,19.7z"/>
					</g>
					<g>
						<path class="st2" d="M42.7,7.3c0.2,0.7,0.3,1.4,0.3,2.1c0,1.2-0.3,2.2-1,2.9c-0.2,0.2-0.5,0.5-0.7,0.6
							c-0.1,0.1-0.2,0.2-0.3,0.3c0,0-0.1,0-0.1,0c-0.1,0-0.1,0-0.2-0.1c-0.1-0.1-0.1-0.2,0-0.3c0.1-0.1,0.3-0.2,0.4-0.3
							c0.2-0.2,0.4-0.3,0.6-0.5c0.5-0.6,0.8-1.6,0.8-2.6c0-0.5-0.1-1.1-0.2-1.6L42.7,7.3z"/>
					</g>
					<g>
						<path class="st2" d="M65.3,41.8c0,0.1-0.1,0.1-0.2,0.1c0,0-0.1,0-0.1,0c-1.8-0.8-3-2.9-2.8-4.9c0.1-1,0.5-1.9,0.9-2.7l0.1-0.3
							c0.9-2,1.3-3.6,1.3-5.1c0.2-4.5-1.7-6.1-3.5-7.7c-1.2-1-2.4-2.1-3-3.9c-0.7-2.1,0-5.2,1.5-7C60,9.7,60.4,9.3,60.9,9
							C61,9.1,61,9.2,61.1,9.3c0,0,0,0.1,0,0.1s0.1,0,0.3,0c-0.6,0.3-1.1,0.7-1.5,1.2c-1.4,1.7-2.1,4.7-1.4,6.6
							c0.6,1.7,1.7,2.7,2.8,3.7c0.4,0.4,0.9,0.8,1.3,1.2c0.1,0.1,0.2,0.2,0.3,0.3c1.2,1.4,2.2,3.2,2.1,6.6c-0.1,1.6-0.5,3.2-1.4,5.3
							l-0.1,0.3c-0.4,0.8-0.7,1.7-0.8,2.6c-0.2,1.8,0.9,3.7,2.6,4.4C65.3,41.5,65.3,41.7,65.3,41.8z"/>
					</g>
					<g>
						<path class="st2" d="M46,37.6c0,0.7-0.1,1.2-0.2,1.7c-0.1-0.1-0.3-0.2-0.4-0.4c0.1-0.4,0.1-0.9,0.1-1.4
							c0.1-2.3-0.6-4.4-1.7-5.9c-0.5-0.7-1.1-1.2-1.8-1.8c-0.8-0.7-1.7-1.5-2.2-2.5c-0.2-0.3-0.3-0.6-0.3-0.8c0-0.2,0-0.4,0-0.6
							c0-0.1,0.2-0.2,0.3-0.2c0.1,0,0.2,0.2,0.2,0.3c0,0.1,0,0.3,0,0.5c0,0.2,0.1,0.4,0.3,0.6c0.5,0.9,1.3,1.6,2.2,2.4
							c0.6,0.6,1.3,1.2,1.8,1.9C45.4,33,46.1,35.2,46,37.6z"/>
					</g>
					<g>
						<path class="st2" d="M74.2,36.3c0,1-0.3,2-0.8,3.1c-0.5,1.1-1.1,2.2-2,3.5c-0.1,0.1-0.2,0.2-0.3,0.4c-0.3,0.4-0.5,0.7-0.7,1.1
							c0,0,0,0,0,0c0,0,0,0,0,0c-0.1,0.1-0.1,0.1-0.2,0.2c-0.2,0.2-0.5,0.5-0.7,0.7c0.1-0.2,0.1-0.3,0.2-0.5
							c0.3-0.6,0.7-1.2,1.1-1.7c0.1-0.1,0.2-0.2,0.3-0.4c0.9-1.3,1.5-2.3,2-3.4c0.5-1.1,0.7-2.1,0.7-3c0-0.9-0.1-1.7-0.5-2.4
							c-0.1-0.2-0.2-0.4-0.3-0.5c-0.1-0.1,0-0.2,0.1-0.3c0.1-0.1,0.2,0,0.3,0.1c0.1,0.2,0.2,0.4,0.3,0.6
							C74.1,34.5,74.2,35.4,74.2,36.3z"/>
					</g>
					<g>
						<path class="st2" d="M68.1,39.1c-0.1,0-0.1,0-0.2-0.1c-1.2-1.8-1.6-3.8-1.2-5.5c0.1-0.5,0.4-1,0.6-1.5l0.1-0.2
							c0.6-1.3,1.2-3,1.2-4.8c0-1.8-0.6-3.4-1.7-4.4c-0.3-0.3-0.6-0.4-0.9-0.6c-0.4-0.1-0.8-0.2-1.1-0.2c-0.4,0-1,0-1.5,0.2
							c-0.3,0.1-0.5,0.2-0.7,0.4c-0.1,0.1-0.2,0.1-0.3,0c-0.1-0.1-0.1-0.2,0-0.3c0.2-0.2,0.5-0.4,0.8-0.5c0.5-0.2,1.1-0.2,1.6-0.2
							c0.4,0,0.9,0,1.3,0.2c0.3,0.1,0.7,0.3,1,0.6c1.2,1.1,1.9,2.8,1.9,4.8c0,1.9-0.7,3.6-1.3,5l-0.1,0.2c-0.2,0.5-0.4,1-0.6,1.5
							c-0.4,1.6,0,3.4,1.1,5.1c0.1,0.1,0,0.2-0.1,0.3C68.2,39,68.2,39.1,68.1,39.1z"/>
					</g>
					<g>
						<path class="st2" d="M38.5,19.6c0,0.3-0.2,0.5-0.4,0.5c0,0,0,0-0.1,0c-0.1,0-0.2-0.1-0.2-0.3c0-0.1,0.1-0.2,0.2-0.2
							c0,0,0-0.1,0-0.1c0.2-1.3,0.2-2.5,0.1-3.5c-0.2-1.2-0.6-2.2-1.3-3.1c0.1-0.1,0.1-0.1,0.2-0.2c0.1-0.1,0.1-0.1,0.2-0.1
							c0.7,0.9,1.2,2,1.4,3.3C38.8,17,38.7,18.2,38.5,19.6z"/>
					</g>
					<g>
						<path class="st2" d="M56,6.4c-0.7,0.3-1.3,1-1.8,2c-0.8,1.5-1.2,3.3-1.1,4.8c0,0.1-0.1,0.2-0.2,0.2c0,0,0,0,0,0
							c-0.1,0-0.2-0.1-0.2-0.2c-0.2-1.7,0.2-3.5,1.1-5.1c0.5-1,1.2-1.7,1.9-2.1C55.8,6.2,55.9,6.4,56,6.4z"/>
					</g>
					<g>
						<path class="st2" d="M54.1,38.9c-0.9,0-1.9-0.2-3.1-0.5c-1.9-0.5-3.1-1.2-3.9-2.2c-0.1-0.1-0.1-0.2,0-0.3
							c0.1-0.1,0.2-0.1,0.3,0c0.7,0.9,1.9,1.6,3.7,2.1c2.1,0.6,3.8,0.6,5.3,0c1.6-0.7,2.9-2.2,3.3-4c0.4-1.7-0.2-3.7-1.4-5
							c-0.9-1-2.1-1.7-3.3-2.3c-1.2-0.7-2.5-1.4-3.5-2.4c-1.1-1.3-1.8-3.1-1.9-5.1c-0.1-1.8,0.3-3.7,0.6-5.4c0.6-2.9,1.4-6,2.7-8.9
							c0.1-0.1,0.2-0.2,0.3-0.1c0.1,0.1,0.2,0.2,0.1,0.3c-1.3,2.8-2.1,5.9-2.7,8.8c-0.4,1.7-0.7,3.5-0.6,5.3c0.1,2,0.7,3.7,1.8,4.9
							c0.9,1,2.2,1.7,3.4,2.3c1.2,0.7,2.5,1.3,3.5,2.4c1.3,1.4,1.9,3.5,1.5,5.4c-0.4,1.9-1.8,3.6-3.6,4.3
							C55.8,38.8,55,38.9,54.1,38.9z"/>
					</g>
					<g>
						<path class="st2" d="M51.2,19.3c-0.6,0-1.2-0.2-1.6-0.6c-0.1-0.1-0.1-0.2,0-0.3c0.1-0.1,0.2-0.1,0.3,0
							c0.7,0.6,1.8,0.5,2.6,0.2c0.7-0.4,1.4-1,2-2c1.6-2.4,2.3-5.5,1.9-8.3c0-0.1,0.1-0.2,0.2-0.2c0.1,0,0.2,0.1,0.2,0.2
							c0.3,3-0.4,6.1-2,8.6c-0.7,1.1-1.4,1.8-2.2,2.1C52.2,19.2,51.7,19.3,51.2,19.3z"/>
					</g>
					<g>
						<path class="st2" d="M59.9,31.8c-0.1,0-0.1,0-0.2-0.1c-0.1-0.1,0-0.2,0.1-0.3c0.8-0.5,1.3-1.4,1.3-2.5c0-0.9-0.3-1.9-0.8-2.8
							c-0.6-0.9-1.3-1.7-2-2.3c-0.6-0.6-1.4-1.4-2.3-2c-0.1-0.1-0.1-0.2,0-0.3c0.1-0.1,0.2-0.1,0.3,0c0.9,0.6,1.7,1.4,2.3,2
							c0.7,0.7,1.5,1.5,2,2.4c0.6,1,0.9,2.1,0.9,3.1c0,1.2-0.6,2.3-1.5,2.8C60,31.8,59.9,31.8,59.9,31.8z"/>
					</g>
					<g>
						<path class="st2" d="M62.5,43.8C62.5,43.8,62.5,43.8,62.5,43.8c-0.5,0-0.9-0.3-1.3-0.7c-1.2-1.1-1.8-2.9-1.6-4.5
							c0-0.1,0.1-0.2,0.3-0.2c0.1,0,0.2,0.1,0.2,0.3c-0.2,1.5,0.4,3.1,1.4,4.1c0.4,0.4,0.7,0.5,1,0.6c0.1,0,0.2,0.1,0.2,0.2
							C62.7,43.7,62.6,43.8,62.5,43.8z"/>
					</g>
					<g>
						<path class="st2" d="M51.5,31.3c-0.7,0-1.5-0.2-2.2-0.6c-0.9-0.5-1.6-1.3-2.2-2.3c-0.1-0.1,0-0.2,0.1-0.3
							c0.1-0.1,0.2,0,0.3,0.1c0.5,0.9,1.2,1.7,2,2.1c0.9,0.5,1.9,0.7,2.8,0.4c0.1,0,0.2,0,0.3,0.2c0,0.1,0,0.2-0.2,0.3
							C52.2,31.3,51.8,31.3,51.5,31.3z"/>
					</g>
					<g>
						<path class="st2" d="M42.6,35.1c-0.1,0-0.2-0.1-0.2-0.2c-0.6-2.1-2.3-3.8-4.3-4.6c-0.1,0-0.2-0.2-0.1-0.3
							c0-0.1,0.2-0.2,0.3-0.1c2.2,0.8,3.9,2.7,4.6,4.9C42.8,34.9,42.8,35,42.6,35.1C42.6,35.1,42.6,35.1,42.6,35.1z"/>
					</g>
					<g>
						<path class="st2" d="M70.9,23.4c0,0.1-0.1,0.2-0.2,0.2c0,0,0,0,0,0c-0.1,0-0.2-0.1-0.2-0.2c0-0.2,0-0.4,0-0.6
							c-0.1-0.4-0.2-0.8-0.4-1.2c-0.6-1.3-1.9-2.2-2.9-2.8l-0.2-0.1c-0.5-0.3-1-0.6-1.5-1.1c-0.2-0.3-0.5-0.7-0.7-1.1
							c-0.2-0.6-0.3-1.1-0.3-1.6c0.1-0.9,0.5-1.6,1.1-2.3c0,0.2,0.1,0.4,0.1,0.6c-0.4,0.5-0.7,1.1-0.8,1.7c0,0.4,0.1,0.8,0.3,1.4
							c0.2,0.4,0.4,0.7,0.6,1c0.4,0.4,0.9,0.7,1.3,1l0.2,0.1c1.1,0.7,2.4,1.6,3.1,3c0.2,0.4,0.3,0.9,0.4,1.4
							C70.9,22.9,70.9,23.2,70.9,23.4z"/>
					</g>
					<g>
						<path class="st2" d="M62,18.6c0,0-0.1,0-0.1-0.1c-0.8-0.7-1.4-1.7-1.6-2.8c-0.2-1.1,0.1-2.2,0.7-3.2c0.3-0.4,0.6-0.7,1-0.9
							c0.1,0,0.2,0,0.3,0.1c0,0.1,0,0.2-0.1,0.3c-0.3,0.1-0.5,0.3-0.8,0.7c-0.5,0.8-0.8,1.9-0.6,2.8c0.2,1,0.7,1.9,1.4,2.5
							c0.1,0.1,0.1,0.2,0,0.3C62.1,18.6,62.1,18.6,62,18.6z"/>
					</g>
					<g>
						<path class="st2" d="M54.1,28.7C54,28.7,54,28.7,54.1,28.7c-1.5-0.1-3-0.7-4.1-1.8c-0.6-0.6-1.2-1.4-1.7-2.2
							c-0.7-1.1-1.4-2.1-2.5-2.7c-0.5-0.3-1.1-0.5-1.8-0.6c-0.5-0.1-1.2-0.2-1.7,0.1c-0.5,0.2-0.9,0.7-0.8,1.2
							c0,0.1-0.1,0.2-0.2,0.3c-0.1,0-0.2-0.1-0.3-0.2c-0.1-0.8,0.4-1.5,1.1-1.7c0.7-0.3,1.4-0.2,2-0.1c0.8,0.1,1.4,0.4,2,0.7
							c1.2,0.7,1.9,1.8,2.6,2.9c0.5,0.7,1,1.5,1.6,2.1c1,1,2.4,1.6,3.8,1.7c0.1,0,0.2,0.1,0.2,0.2C54.3,28.6,54.2,28.7,54.1,28.7z"
							/>
					</g>
					<g>
						<path class="st2" d="M67.3,44.4c-0.1,0-0.1,0-0.2-0.1c-0.1-0.1-0.1-0.2,0-0.3c0.4-0.4,0.5-1.2,0.3-1.9
							c-0.2-0.7-0.7-1.3-1.2-1.8c-0.1-0.1-0.2-0.2-0.2-0.3c-0.4-0.5-0.9-1-1.2-1.5c-0.5-0.9-0.7-2-0.4-2.9c0.3-1.2,1.2-2.1,2.3-2.5
							c0.1,0,0.2,0,0.3,0.1c0,0.1,0,0.2-0.1,0.3c-1,0.3-1.8,1.2-2,2.2c-0.2,0.8-0.1,1.8,0.4,2.6c0.3,0.5,0.7,1,1.1,1.5
							c0.1,0.1,0.2,0.2,0.2,0.3c0.5,0.6,1,1.2,1.2,2c0.3,0.9,0.1,1.8-0.4,2.3C67.5,44.4,67.4,44.4,67.3,44.4z"/>
					</g>
					<g>
						<path class="st2" d="M77.2,31.4c-0.1,0-0.2,0-0.4,0.1c-0.2,0-0.5,0-0.7,0c-1.2,0-2.3-0.3-3.3-1c-1.2-0.8-2.1-2-2.5-3.3
							c0-0.1,0-0.2,0.2-0.3c0.1,0,0.2,0,0.3,0.1c0.4,1.2,1.2,2.4,2.3,3.1c0.1,0.1,0.2,0.1,0.3,0.2c0.1,0.1,0.3,0.1,0.4,0.2
							c0.9,0.4,2,0.6,3.1,0.5c0.1,0,0.2,0,0.3-0.1c0,0.1-0.1,0.3-0.2,0.4C77.1,31.4,77.1,31.4,77.2,31.4
							C77.2,31.4,77.2,31.4,77.2,31.4z"/>
					</g>
					<g>
						<path class="st2" d="M69.3,41c-0.1,0-0.1,0-0.2-0.1c-0.1-0.1-0.1-0.2,0-0.3c1-0.8,1.7-2.1,1.8-3.6c0.1-1.2-0.2-2.5-0.8-3.9
							c0-0.1-0.3-0.4-0.2-0.5c0.1-0.1,0.2-0.1,0.2-0.1c0.2,0,0.3,0.2,0.3,0.3c0.7,1.5,1,2.9,0.9,4.3c-0.1,1.6-0.9,3-2,3.9
							C69.4,41,69.4,41,69.3,41z"/>
					</g>
					<g>
						<path class="st2" d="M48,5.2c-0.2,1-0.4,1.8-0.7,2.6c-0.5,1.2-1.3,2.2-2.2,2.8c0,0-0.1,0-0.1,0c-0.1,0-0.1,0-0.2-0.1
							c-0.1-0.1,0-0.2,0.1-0.3c0.9-0.6,1.6-1.5,2.1-2.6c0.3-0.7,0.5-1.5,0.7-2.4C47.7,5.1,47.9,5.1,48,5.2z"/>
					</g>
					<g>
						<path class="st2" d="M35.8,27.8C35.8,27.8,35.8,27.8,35.8,27.8c0.2-0.4,0.3-0.8,0.6-1.2c0.5-0.9,1.2-1.6,1.9-2
							c0.4-0.2,0.8-0.4,1.2-0.5c0.1,0,0.2-0.1,0.2-0.3c0-0.1-0.1-0.2-0.3-0.2c-0.4,0.1-0.9,0.2-1.3,0.5c-0.8,0.5-1.5,1.2-2.1,2.2
							c-0.2,0.3-0.3,0.5-0.4,0.8L35.8,27.8z"/>
					</g>
					<g>
						<path class="st2" d="M78.1,37.4c-0.1,0.1-0.2,0.3-0.2,0.4c-0.8-0.5-1.4-1.3-1.8-2.2c-0.3-0.6-0.4-1.1-0.3-1.6
							c0-0.1,0.1-0.2,0.3-0.2c0.1,0,0.2,0.1,0.2,0.3c-0.1,0.4,0,0.8,0.2,1.3C76.8,36.2,77.4,36.9,78.1,37.4z"/>
					</g>
				</g>
				<g>
					<path class="st2" d="M57,40.5c0,1.2-0.6,2.4-1.6,3.3c-0.2,0.2-0.4,0.3-0.5,0.4c-0.1-0.1-0.2-0.1-0.4-0.2c0,0,0,0,0,0
						c0.2-0.1,0.4-0.3,0.6-0.5c0.7-0.6,1.5-1.7,1.5-2.9c0-0.2,0-0.4,0-0.6c0-0.1,0.1-0.2,0.2-0.3c0.1,0,0.2,0.1,0.3,0.2
						C57,40.1,57,40.3,57,40.5z"/>
				</g>
				<g>
					<path class="st2" d="M73.4,30.8c-0.1,0-0.1,0-0.2-0.1c-0.1-0.1-0.1-0.2,0-0.3c0.2-0.2,0.3-0.5,0.3-0.9c0.2-1.5-0.1-3.1-0.9-4.5
						c-0.1-0.1,0-0.2,0.1-0.3c0.1-0.1,0.2,0,0.3,0.1c0.8,1.4,1.1,3.1,0.9,4.7c0,0.4-0.1,0.9-0.5,1.2C73.5,30.7,73.5,30.8,73.4,30.8z
						"/>
				</g>
				<g>
					<path class="st2" d="M43.6,19.8c-0.1,0-0.2-0.1-0.2-0.2c0-1.1,0.2-2.2,0.7-3.2c0.1-0.2,0.3-0.5,0.6-0.6c0.1,0,0.2,0.1,0.3,0.2
						c0,0.1-0.1,0.2-0.2,0.3c-0.1,0-0.2,0.1-0.3,0.3c-0.5,0.9-0.7,2-0.7,3C43.8,19.7,43.7,19.8,43.6,19.8
						C43.6,19.8,43.6,19.8,43.6,19.8z"/>
				</g>
				<g>
					<path class="st2" d="M55.9,25.2c-0.1,0-0.1,0-0.2-0.1c-0.9-1.4-2.1-2.6-3.6-3.4C52,21.6,52,21.5,52,21.3
						c0.1-0.1,0.2-0.1,0.3-0.1c1.5,0.9,2.8,2.1,3.7,3.6c0.1,0.1,0,0.2-0.1,0.3C55.9,25.2,55.9,25.2,55.9,25.2z"/>
				</g>
				<g>
					<path class="st2" d="M75.5,41.8C75.5,41.8,75.5,41.8,75.5,41.8c0,0.2-0.1,0.5-0.2,0.7c-0.2-0.4-0.3-0.7-0.4-1
						c-0.2-0.7-0.2-1.5-0.2-2.2c0-0.2,0-0.5,0.1-0.7c0-0.1,0.1-0.2,0.3-0.2c0.1,0,0.2,0.1,0.2,0.3c0,0.2-0.1,0.5-0.1,0.7
						c0,0.7,0,1.4,0.2,2C75.4,41.5,75.5,41.6,75.5,41.8z"/>
				</g>
				<path class="st2" d="M56.2,22.3c-0.4,0-0.8-0.3-0.8-0.7c0-0.4,0.3-0.8,0.7-0.8c0.4,0,0.8,0.3,0.8,0.7
					C57,21.9,56.6,22.3,56.2,22.3z"/>
				<path class="st2" d="M56.9,32.9c-0.4,0-0.8-0.3-0.8-0.7c0-0.4,0.3-0.8,0.7-0.8c0.4,0,0.8,0.3,0.8,0.7
					C57.6,32.5,57.3,32.9,56.9,32.9z"/>
				<path class="st2" d="M47.3,36.8c-0.4,0-0.8-0.3-0.8-0.7c0-0.4,0.3-0.8,0.7-0.8c0.4,0,0.8,0.3,0.8,0.7
					C48,36.5,47.7,36.8,47.3,36.8z"/>
				<path class="st2" d="M39.7,26.6c-0.4,0-0.8-0.3-0.8-0.7c0-0.4,0.3-0.8,0.7-0.8c0.4,0,0.8,0.3,0.8,0.7
					C40.5,26.2,40.1,26.5,39.7,26.6z"/>
				<path class="st2" d="M40.7,20.6c-0.4,0-0.8-0.3-0.8-0.7c0-0.4,0.3-0.8,0.7-0.8c0.4,0,0.8,0.3,0.8,0.7
					C41.4,20.2,41.1,20.6,40.7,20.6z"/>
				<path class="st2" d="M54.1,29.2c-0.4,0-0.8-0.3-0.8-0.7c0-0.4,0.3-0.8,0.7-0.8c0.4,0,0.8,0.3,0.8,0.7
					C54.8,28.8,54.5,29.1,54.1,29.2z"/>
				<path class="st2" d="M56.6,9c-0.4,0-0.8-0.3-0.8-0.7c0-0.4,0.3-0.8,0.7-0.8c0.4,0,0.8,0.3,0.8,0.7C57.3,8.6,57,9,56.6,9z"/>
				<path class="st2" d="M70.7,24.2c-0.4,0-0.8-0.3-0.8-0.7c0-0.4,0.3-0.8,0.7-0.8c0.4,0,0.8,0.3,0.8,0.7
					C71.4,23.8,71.1,24.2,70.7,24.2z"/>
				<path class="st2" d="M67.3,44.9c-0.4,0-0.8-0.3-0.8-0.7c0-0.4,0.3-0.8,0.7-0.8c0.4,0,0.8,0.3,0.8,0.7
					C68,44.6,67.7,44.9,67.3,44.9z"/>
				<path class="st2" d="M56.7,40.6c-0.4,0-0.8-0.3-0.8-0.7c0-0.4,0.3-0.8,0.7-0.8c0.4,0,0.8,0.3,0.8,0.7
					C57.4,40.2,57.1,40.6,56.7,40.6z"/>
				<path class="st2" d="M73.3,33.9c-0.4,0-0.8-0.3-0.8-0.7c0-0.4,0.3-0.8,0.7-0.8c0.4,0,0.8,0.3,0.8,0.7
					C74,33.5,73.7,33.9,73.3,33.9z"/>
				<path class="st2" d="M75.2,39.3c-0.4,0-0.8-0.3-0.8-0.7c0-0.4,0.3-0.8,0.7-0.8c0.4,0,0.8,0.3,0.8,0.7
					C75.9,38.9,75.6,39.3,75.2,39.3z"/>
				<path class="st2" d="M40.6,13.9c-0.4,0-0.8-0.3-0.8-0.7c0-0.4,0.3-0.8,0.7-0.8s0.8,0.3,0.8,0.7C41.3,13.5,41,13.8,40.6,13.9z"/>
			</g>
		</g>
		<g>
			<g class="st1">
				<g>
					<polygon class="st8" points="65,65.7 65,66.5 63.5,67.4 63.5,66.6 					"/>
				</g>
				<g>
					<polygon class="st9" points="63.5,66.6 63.5,67.4 56.9,63.5 56.9,62.8 					"/>
				</g>
				<g>
					<polygon class="st108" points="65,65.7 63.5,66.6 56.9,62.8 58.3,61.9 					"/>
				</g>
			</g>
			<g class="st1">
				<g class="st1">
					<defs>
						<path id="SVGID_00000018234701395849769050000016198565578098671034_" class="st1" d="M57.6,67l0,0.8
							c-0.4-0.1-0.8-0.2-1.1-0.3c-0.4-0.1-0.7-0.2-1-0.3c-0.3-0.1-0.6-0.1-0.8-0.2c-0.2-0.1-0.4-0.1-0.5-0.1l0-0.8
							c0.1,0,0.3,0.1,0.5,0.1c0.2,0.1,0.5,0.1,0.8,0.2c0.3,0.1,0.6,0.2,1,0.3C56.8,66.8,57.2,66.9,57.6,67z"/>
					</defs>
					<clipPath id="SVGID_00000106859775887711978510000005861360049884691847_">
						<use xlink:href="#SVGID_00000018234701395849769050000016198565578098671034_"  style="overflow:visible;"/>
					</clipPath>
					<g style="clip-path:url(#SVGID_00000106859775887711978510000005861360049884691847_);enable-background:new    ;">
						<path class="st9" d="M57.6,67l0,0.8c-0.4-0.1-0.8-0.2-1.1-0.3c-0.4-0.1-0.7-0.2-1-0.3c-0.3-0.1-0.6-0.1-0.8-0.2
							c-0.2-0.1-0.4-0.1-0.5-0.1l0-0.8c0.1,0,0.3,0.1,0.5,0.1c0.2,0.1,0.5,0.1,0.8,0.2c0.3,0.1,0.6,0.2,1,0.3
							C56.8,66.8,57.2,66.9,57.6,67L57.6,67z"/>
					</g>
				</g>
				<g class="st1">
					<defs>
						<path id="SVGID_00000081621953720683578990000011663943055186904758_" class="st1" d="M60.1,67.8l0,0.8
							c-0.3-0.1-0.7-0.2-1-0.3l0-0.8C59.5,67.6,59.8,67.7,60.1,67.8z"/>
					</defs>
					<clipPath id="SVGID_00000062180406150577977290000014546288789122549412_">
						<use xlink:href="#SVGID_00000081621953720683578990000011663943055186904758_"  style="overflow:visible;"/>
					</clipPath>
					<g style="clip-path:url(#SVGID_00000062180406150577977290000014546288789122549412_);enable-background:new    ;">
						<path class="st9" d="M60.1,67.8l0,0.8c-0.3-0.1-0.7-0.2-1-0.3l0-0.8C59.5,67.6,59.8,67.7,60.1,67.8L60.1,67.8z"/>
					</g>
				</g>
				<g class="st1">
					<defs>
						<path id="SVGID_00000036242184462036791910000008149584289096234886_" class="st1" d="M61.1,68l0,0.8c-0.3-0.1-0.6-0.2-1-0.3
							l0-0.8C60.5,67.8,60.8,67.9,61.1,68z"/>
					</defs>
					<clipPath id="SVGID_00000037665529033772151250000018101855681674871999_">
						<use xlink:href="#SVGID_00000036242184462036791910000008149584289096234886_"  style="overflow:visible;"/>
					</clipPath>
					<g style="clip-path:url(#SVGID_00000037665529033772151250000018101855681674871999_);enable-background:new    ;">
						<path class="st9" d="M61.1,68l0,0.8c-0.3-0.1-0.6-0.2-1-0.3l0-0.8C60.5,67.8,60.8,67.9,61.1,68L61.1,68z"/>
					</g>
				</g>
				<g>
					<polygon class="st8" points="62.7,67.1 62.7,67.9 61.1,68.8 61.1,68 					"/>
				</g>
				<g>
					<polygon class="st8" points="59.1,67.5 59.1,68.2 56.6,69.7 56.6,69 					"/>
				</g>
				<g class="st1">
					<defs>
						<path id="SVGID_00000091696365831866647060000016991636737077891738_" class="st1" d="M56,71l0,0.8c-0.5-0.6-0.9-1.1-1.3-1.6
							c-0.4-0.5-0.7-0.9-1.1-1.4c-0.3-0.4-0.6-0.9-0.9-1.3c-0.3-0.4-0.5-0.8-0.8-1.2l0-0.8c0.2,0.4,0.5,0.8,0.8,1.2
							c0.3,0.4,0.6,0.8,0.9,1.3c0.3,0.4,0.7,0.9,1.1,1.4C55.1,69.9,55.5,70.4,56,71z"/>
					</defs>
					<clipPath id="SVGID_00000124878454793970900460000016629239863047131313_">
						<use xlink:href="#SVGID_00000091696365831866647060000016991636737077891738_"  style="overflow:visible;"/>
					</clipPath>
					<g style="clip-path:url(#SVGID_00000124878454793970900460000016629239863047131313_);enable-background:new    ;">
						<path class="st9" d="M56,71l0,0.8c-0.5-0.6-0.9-1.1-1.3-1.6c-0.4-0.5-0.7-0.9-1.1-1.4c-0.3-0.4-0.6-0.9-0.9-1.3
							c-0.3-0.4-0.5-0.8-0.8-1.2l0-0.8c0.2,0.4,0.5,0.8,0.8,1.2c0.3,0.4,0.6,0.8,0.9,1.3c0.3,0.4,0.7,0.9,1.1,1.4
							C55.1,69.9,55.5,70.4,56,71L56,71z"/>
					</g>
				</g>
				<g>
					<polygon class="st8" points="57.5,70.1 57.5,70.9 56,71.8 56,71 					"/>
				</g>
				<g>
					<path class="st108" d="M60.1,67.8c-0.3-0.1-0.7-0.2-1-0.3L56.6,69c0.2,0.2,0.3,0.4,0.5,0.6c0.2,0.2,0.3,0.4,0.5,0.5L56,71
						c-0.5-0.6-0.9-1.1-1.3-1.6c-0.4-0.5-0.7-0.9-1.1-1.4c-0.3-0.4-0.6-0.9-0.9-1.3c-0.3-0.4-0.5-0.8-0.8-1.2l1.4-0.8
						c0.7,0.1,1.4,0.3,2.1,0.4c0.7,0.2,1.4,0.3,2.2,0.5c0.8,0.2,1.5,0.4,2.4,0.6c0.8,0.2,1.7,0.5,2.7,0.7L61.1,68
						C60.8,67.9,60.5,67.8,60.1,67.8z M55.7,68.1l1.9-1.1c-0.4-0.1-0.8-0.2-1.1-0.3c-0.4-0.1-0.7-0.2-1-0.3
						c-0.3-0.1-0.6-0.1-0.8-0.2c-0.2-0.1-0.4-0.1-0.5-0.1c0.1,0.1,0.1,0.2,0.2,0.3s0.2,0.3,0.4,0.5c0.1,0.2,0.3,0.4,0.4,0.6
						C55.3,67.7,55.5,67.9,55.7,68.1L55.7,68.1z"/>
				</g>
			</g>
		</g>
	</g>
	<g>
		<g>
			<path class="st113" d="M58.4,98L13.2,71.9l44.9-26.1l45.1,26.1L58.4,98z M14.4,71.9l43.9,25.4L102,71.9L58.1,46.5L14.4,71.9z"/>
		</g>
	</g>
	<g>
		<g>
			<g>
				<path class="st113" d="M20.2,75.6l-3.3,1.9c0,0-0.1,0-0.2,0l-3.4-2L2.2,82l-1,0.6c0,0-0.1,0-0.1,0c-0.1,0-0.1,0-0.1-0.1
					c0-0.1,0-0.2,0.1-0.2l0.9-0.5l11.4-6.6c0,0,0.1,0,0.2,0l3.4,2l3.1-1.8L20.2,75.6z"/>
			</g>
			<g>
				<path class="st113" d="M47.1,90.8l-0.5,0.3l-3,1.8c0,0-0.1,0-0.2,0l-3.4-2l-4.3,2.5l-0.3,0.2l-6.6,3.8l-0.9,0.5c0,0-0.1,0-0.1,0
					c-0.1,0-0.1,0-0.1-0.1c0-0.1,0-0.2,0.1-0.2l0.8-0.5l6.5-3.8l0.3-0.2l4.6-2.6c0,0,0.1,0,0.2,0l3.4,2l2.8-1.6l0.5-0.3L47.1,90.8z"
					/>
			</g>
			<g>
				<path class="st113" d="M36.8,84.8l-0.5,0.3l-3,1.7c0,0-0.1,0-0.2,0l-3.4-2l-4.4,2.5L25,87.6l-6.3,3.6l-1.1,0.6c0,0-0.1,0-0.1,0
					c-0.1,0-0.1,0-0.1-0.1c0-0.1,0-0.2,0.1-0.2l1-0.6l6.2-3.6l0.3-0.2l4.6-2.7c0,0,0.1,0,0.2,0l3.4,2l2.7-1.6l0.5-0.3L36.8,84.8z"/>
			</g>
			<g>
				<path class="st113" d="M28.5,80l-0.5,0.3l-11.2,6.4l-0.8,0.5c0,0-0.1,0-0.1,0c-0.1,0-0.1,0-0.1-0.1c0-0.1,0-0.2,0.1-0.2l0.7-0.4
					l11.1-6.4l0.5-0.3L28.5,80z"/>
			</g>
			<g>
				<path class="st113" d="M51,93l-0.5,0.3l-11,6.4l-0.9,0.5c0,0-0.1,0-0.1,0c-0.1,0-0.1,0-0.1-0.1c0-0.1,0-0.2,0.1-0.2l0.7-0.4
					l11-6.4l0.5-0.3L51,93z"/>
			</g>
			<g>
				<path class="st113" d="M40.3,86.9l-0.5,0.3l-7.4,4.3L32,91.7l-3.4,1.9c0,0,0,0,0,0l-0.9,0.5c0,0-0.1,0-0.1,0
					c-0.1,0-0.1,0-0.1-0.1c0-0.1,0-0.2,0.1-0.2l0.7-0.4l3.4-1.9l0.3-0.2l7.4-4.3l0.5-0.3L40.3,86.9z"/>
			</g>
			<g>
				<polygon class="st113" points="40.1,96 36,98.4 36,98.4 34.8,99.1 34.6,98.8 35.7,98.2 39.5,96 35.4,93.6 35,93.4 32,91.7 
					31.7,91.5 25,87.6 24.7,87.4 21.9,85.8 29.6,81.3 30.1,81 30.5,81.2 29.9,81.5 22.5,85.8 25,87.2 25.3,87.4 32,91.3 32.3,91.5 
					35.4,93.2 35.7,93.4 				"/>
			</g>
			<g>
				<path class="st113" d="M2.1,81.9c0.5,0.3,0.5,0.7,0,1c-0.5,0.3-1.2,0.3-1.7,0c-0.5-0.3-0.5-0.7,0-1C0.8,81.6,1.6,81.6,2.1,81.9z
					"/>
			</g>
			<g>
				<g>
					<path class="st113" d="M22.8,81.4c0,0.1,0,0.1-0.1,0.1L13.1,87l-0.9,0.5c0,0-0.1,0-0.1,0c-0.1,0-0.1,0-0.1-0.1
						c0-0.1,0-0.2,0.1-0.2l0.7-0.4l9.5-5.5l-3.5-2c0,0-0.1-0.1-0.1-0.1c0-0.1,0-0.1,0.1-0.1l3.5-2l0.5-0.3l0.3,0.2l-0.5,0.3l-3.4,2
						l3.5,2C22.7,81.3,22.8,81.3,22.8,81.4z"/>
				</g>
				<g>
					<ellipse class="st113" cx="12.1" cy="87.4" rx="1.2" ry="0.7"/>
				</g>
			</g>
			<g>
				<g>
					<path class="st113" d="M53,98.6c0,0.1,0,0.1-0.1,0.1l-9.3,5.4l-1.1,0.6c0,0-0.1,0-0.1,0c-0.1,0-0.1,0-0.1-0.1
						c0-0.1,0-0.2,0.1-0.2l1-0.6l9.2-5.3l-3.5-2c0,0-0.1-0.1-0.1-0.1s0-0.1,0.1-0.1l3.3-1.9l0.5-0.3l0.3,0.2l-0.5,0.3l-3.2,1.9
						l3.5,2C53,98.5,53,98.6,53,98.6z"/>
				</g>
				<g>
					<ellipse class="st113" cx="42.6" cy="104.5" rx="1.2" ry="0.7"/>
				</g>
			</g>
			<g>
				<path class="st113" d="M16.6,86.7c0.5,0.3,0.5,0.7,0,1c-0.5,0.3-1.2,0.3-1.7,0c-0.5-0.3-0.5-0.7,0-1
					C15.4,86.4,16.1,86.4,16.6,86.7z"/>
			</g>
			<g>
				<ellipse class="st113" cx="17.6" cy="91.5" rx="1.2" ry="0.7"/>
			</g>
			<g>
				<path class="st113" d="M28.5,93.5c0.5,0.3,0.5,0.7,0,1c-0.5,0.3-1.2,0.3-1.7,0c-0.5-0.3-0.5-0.7,0-1
					C27.3,93.2,28,93.2,28.5,93.5z"/>
			</g>
			<g>
				<path class="st113" d="M28.5,97.2c0.5,0.3,0.5,0.7,0,1c-0.5,0.3-1.2,0.3-1.7,0c-0.5-0.3-0.5-0.7,0-1
					C27.3,96.9,28.1,96.9,28.5,97.2z"/>
			</g>
			<g>
				<ellipse class="st113" cx="34.9" cy="98.7" rx="1.2" ry="0.7"/>
			</g>
			<g>
				<path class="st113" d="M39.3,99.6c0.5,0.3,0.5,0.7,0,1c-0.5,0.3-1.2,0.3-1.7,0c-0.5-0.3-0.5-0.7,0-1
					C38.1,99.3,38.8,99.3,39.3,99.6z"/>
			</g>
		</g>
		<g>
			<g>
				<path class="st113" d="M105.7,86.5c0,0.1-0.1,0.1-0.1,0.1c0,0-0.1,0-0.1,0l-1-0.6l-9.5-5.5c0,0-0.1-0.1-0.1-0.1
					c0-0.1,0-0.1,0.1-0.1l3.5-2l-3.2-1.8l-0.5-0.3l0.3-0.2l0.5,0.3l3.2,1.9c0,0,0.1,0.1,0.1,0.1c0,0.1,0,0.1-0.1,0.1l-3.5,2l9.4,5.5
					l0.8,0.4C105.7,86.3,105.8,86.4,105.7,86.5z"/>
			</g>
			<g>
				<path class="st113" d="M73,105.4c0,0.1-0.1,0.1-0.1,0.1c0,0-0.1,0-0.1,0l-0.9-0.5l-9.5-5.5c0,0-0.1-0.1-0.1-0.1
					c0-0.1,0-0.1,0.1-0.1l3.5-2l-3.1-1.8l-0.5-0.3l0.3-0.2l0.5,0.3l3.2,1.8c0,0,0.1,0.1,0.1,0.1c0,0.1,0,0.1-0.1,0.1l-3.5,2l9.5,5.5
					l0.7,0.4C73,105.3,73,105.4,73,105.4z"/>
			</g>
			<g>
				<path class="st113" d="M89.1,95.3c0,0.1-0.1,0.1-0.1,0.1c0,0-0.1,0-0.1,0L88,94.8l-7.2-4.2c0,0-0.1-0.1-0.1-0.1
					c0-0.1,0-0.1,0.1-0.1l2.7-1.5l-2.4-1.4l-0.3-0.2l-2-1.2l-0.5-0.3l0.3-0.2l0.5,0.3l2,1.2l0.3,0.2l2.5,1.5c0,0,0.1,0.1,0.1,0.1
					c0,0.1,0,0.1-0.1,0.1l-2.7,1.5l7.2,4.2c0,0,0,0,0,0L89,95C89.1,95.1,89.2,95.2,89.1,95.3z"/>
			</g>
			<g>
				<path class="st113" d="M102.2,94.8c0,0.1-0.1,0.1-0.1,0.1c0,0-0.1,0-0.1,0l-0.9-0.5l-13.1-7.6c0,0-0.1-0.1-0.1-0.1
					c0-0.1,0-0.1,0.1-0.1l4.8-2.8l-5-2.9l-0.5-0.3l0.3-0.2l0.5,0.3l5.1,2.9c0,0,0.1,0.1,0.1,0.1c0,0.1,0,0.1-0.1,0.1l-4.8,2.8
					l13.1,7.6l0.7,0.4C102.2,94.7,102.2,94.8,102.2,94.8z"/>
			</g>
			<g>
				<path class="st113" d="M88.1,98.8c0,0.1-0.1,0.1-0.1,0.1c0,0-0.1,0-0.1,0l-0.8-0.5L77.8,93l-5.1,3c0,0-0.1,0-0.2,0l-5.4-3.1
					l-0.5-0.3l0.3-0.2l0.5,0.3l5.2,3l5.1-3c0,0,0.1,0,0.2,0l9.5,5.5l0.6,0.4C88.1,98.6,88.1,98.7,88.1,98.8z"/>
			</g>
			<g>
				<path class="st113" d="M102,86.2c0,0.1-0.1,0.1-0.1,0.1c0,0-0.1,0-0.1,0l-0.9-0.5l-10.8-6.3l-0.5-0.3l0.3-0.2l0.5,0.3l10.9,6.3
					L102,86C102.1,86,102.1,86.1,102,86.2z"/>
			</g>
			<g>
				<path class="st113" d="M110.4,81.3c0,0.1-0.1,0.1-0.1,0.1c0,0-0.1,0-0.1,0l-1-0.6l-10.7-6.2L98,74.3l0.3-0.2l0.5,0.3l10.7,6.2
					l0.8,0.5C110.4,81.1,110.5,81.2,110.4,81.3z"/>
			</g>
			<g>
				<path class="st113" d="M92.3,91.8c0,0.1-0.1,0.1-0.1,0.1c0,0-0.1,0-0.1,0l-1-0.6l-8.3-4.8l-0.3-0.2l-2-1.2l-0.5-0.3l0.3-0.2
					l0.5,0.3l2,1.2l0.3,0.2l8.3,4.8l0.9,0.5C92.3,91.6,92.3,91.7,92.3,91.8z"/>
			</g>
			<g>
				<path class="st113" d="M76.6,100.9c0,0.1-0.1,0.1-0.1,0.1c0,0-0.1,0-0.1,0l-0.9-0.5c0,0,0,0,0,0l-10.8-6.2l-0.5-0.3l0.3-0.2
					l0.5,0.3l10.8,6.2l0.7,0.4C76.6,100.7,76.6,100.8,76.6,100.9z"/>
			</g>
			<g>
				<polygon class="st113" points="88.2,83.3 83.1,86.3 82.8,86.4 81.4,87.3 81.1,87.4 74.7,91.1 73.8,91.6 73.6,91.4 74.5,90.9 
					80.8,87.2 81.1,87.1 82.5,86.3 82.8,86.1 87.5,83.3 85.5,82.2 85,81.9 85.3,81.7 85.8,82 				"/>
			</g>
			<g>
				<ellipse class="st113" cx="72.7" cy="105.4" rx="1.2" ry="0.7"/>
			</g>
			<g>
				<path class="st113" d="M77.2,100.4c0.5,0.3,0.5,0.7,0,1c-0.5,0.3-1.2,0.3-1.7,0c-0.5-0.3-0.5-0.7,0-1
					C76,100.1,76.8,100.1,77.2,100.4z"/>
			</g>
			<g>
				<ellipse class="st113" cx="73.6" cy="91.4" rx="1.2" ry="0.7"/>
			</g>
			<g>
				<ellipse class="st113" cx="88.1" cy="98.8" rx="1.2" ry="0.7"/>
			</g>
			<g>
				<path class="st113" d="M89.6,94.9c0.5,0.3,0.5,0.7,0,1c-0.5,0.3-1.2,0.3-1.7,0c-0.5-0.3-0.5-0.7,0-1
					C88.4,94.6,89.1,94.6,89.6,94.9z"/>
			</g>
			<g>
				<path class="st113" d="M93,91.1c0.5,0.3,0.5,0.7,0,1c-0.5,0.3-1.2,0.3-1.7,0c-0.5-0.3-0.5-0.7,0-1C91.8,90.8,92.5,90.8,93,91.1z
					"/>
			</g>
			<g>
				<ellipse class="st113" cx="101.9" cy="94.8" rx="1.2" ry="0.7"/>
			</g>
			<g>
				<path class="st113" d="M102.7,85.7c0.5,0.3,0.5,0.7,0,1c-0.5,0.3-1.2,0.3-1.7,0c-0.5-0.3-0.5-0.7,0-1
					C101.5,85.4,102.2,85.4,102.7,85.7z"/>
			</g>
			<g>
				<ellipse class="st113" cx="105.4" cy="86.4" rx="1.2" ry="0.7"/>
			</g>
			<g>
				<path class="st113" d="M111.1,80.7c0.5,0.3,0.5,0.7,0,1c-0.5,0.3-1.2,0.3-1.7,0c-0.5-0.3-0.5-0.7,0-1
					C109.8,80.4,110.6,80.4,111.1,80.7z"/>
			</g>
		</g>
		<g>
			<g>
				<path class="st113" d="M46.7,42.6c0,0.1,0,0.1-0.1,0.1l-2.5,1.5l-0.3,0.2l-3.1,1.9l-0.3,0.2l-2.9,1.8l8.3,4.8l0.5,0.3l-0.3,0.2
					l-0.5-0.3L37,48.4c0,0-0.1-0.1-0.1-0.1c0-0.1,0-0.1,0.1-0.1l3-1.8l0.3-0.2l3.1-1.9l0.3-0.2l2.4-1.5L41.6,40l-0.8-0.5
					c-0.1,0-0.1-0.1-0.1-0.2c0-0.1,0.1-0.1,0.2-0.1l0.9,0.5l4.7,2.7C46.6,42.5,46.7,42.6,46.7,42.6z"/>
			</g>
			<g>
				<path class="st113" d="M18.4,69.3l-8.1-4.7l3.5-2c0,0,0.1-0.1,0.1-0.1c0-0.1,0-0.1-0.1-0.1L9,59.5L8.1,59c-0.1,0-0.2,0-0.2,0.1
					c0,0.1,0,0.2,0.1,0.2l0.7,0.4l4.8,2.7l-3.5,2c0,0-0.1,0.1-0.1,0.1c0,0.1,0,0.1,0.1,0.1l8.2,4.7L18.4,69.3z"/>
			</g>
			<g>
				<path class="st113" d="M34.9,59.9l-0.3,0.2l-0.5-0.3l-5.7-3.3c0,0-0.1-0.1-0.1-0.1c0-0.1,0-0.1,0.1-0.1l2.7-1.5l-6.5-3.8
					l-0.6-0.4c-0.1,0-0.1-0.1-0.1-0.2c0-0.1,0.1-0.1,0.2-0.1l0.8,0.5h0l6.6,3.9c0,0,0.1,0.1,0.1,0.1c0,0.1,0,0.1-0.1,0.1l-2.7,1.5
					l5.6,3.2L34.9,59.9z"/>
			</g>
			<g>
				<path class="st113" d="M42,55.8L41.7,56l-0.5-0.3l-8.8-5.1c0,0-0.1-0.1-0.1-0.1c0-0.1,0-0.1,0.1-0.1l3.9-2.2l-4.9-2.9l-1-0.6
					c-0.1,0-0.1-0.1-0.1-0.2c0-0.1,0.1-0.1,0.2-0.1l1.2,0.7l5,2.9c0,0,0.1,0.1,0.1,0.1c0,0.1,0,0.1-0.1,0.1l-3.9,2.2l8.7,5L42,55.8z
					"/>
			</g>
			<g>
				<path class="st113" d="M30.9,62.3l-0.3,0.2l-0.5-0.3l-5.7-3.3l-4.1,2.4c0,0-0.1,0-0.2,0L14.5,58l-0.7-0.4
					c-0.1,0-0.1-0.1-0.1-0.2c0-0.1,0.1-0.1,0.2-0.1l0.8,0.5l5.3,3.1l4.1-2.4c0,0,0.1,0,0.2,0l6,3.5L30.9,62.3z"/>
			</g>
			<g>
				<path class="st113" d="M49.5,51.5l-0.3,0.2l-0.5-0.3l-8.3-4.8L40,46.3l-2.6-1.5c0,0,0,0,0,0l-0.7-0.4c-0.1,0-0.1-0.1-0.1-0.2
					c0-0.1,0.1-0.1,0.2-0.1l0.9,0.5l2.5,1.5l0.3,0.2l8.3,4.8L49.5,51.5z"/>
			</g>
			<g>
				<path class="st113" d="M53,49.4l-0.3,0.2l-0.5-0.3l-8.4-4.8l-0.3-0.2l-9.7-5.6l-0.5-0.3c-0.1,0-0.1-0.1-0.1-0.2
					c0-0.1,0.1-0.1,0.2-0.1l0.7,0.4l9.6,5.5l0.3,0.2l8.4,4.8L53,49.4z"/>
			</g>
			<g>
				<path class="st113" d="M40.3,56.8L40,57l-0.5-0.3l-11.1-6.4c0,0,0,0,0,0l-0.7-0.4c-0.1,0-0.1-0.1-0.1-0.2c0-0.1,0.1-0.1,0.2-0.1
					l0.9,0.5l11.1,6.4L40.3,56.8z"/>
			</g>
			<g>
				<path class="st113" d="M24.6,65.9l-0.3,0.2l-0.5-0.3l-5-2.9l-1.2-0.7c-0.1,0-0.1-0.1-0.1-0.2c0-0.1,0.1-0.1,0.2-0.1l1.4,0.8
					l4.9,2.9L24.6,65.9z"/>
			</g>
			<g>
				<path class="st113" d="M8.9,58.5c0.5,0.3,0.5,0.7,0,1c-0.5,0.3-1.2,0.3-1.7,0c-0.5-0.3-0.5-0.7,0-1C7.7,58.2,8.5,58.2,8.9,58.5z
					"/>
			</g>
			<g>
				<ellipse class="st113" cx="18.2" cy="62.3" rx="1.2" ry="0.7"/>
			</g>
			<g>
				<ellipse class="st113" cx="13.8" cy="57.4" rx="1.2" ry="0.7"/>
			</g>
			<g>
				<path class="st113" d="M24.8,49.8c0.5,0.3,0.5,0.7,0,1c-0.5,0.3-1.2,0.3-1.7,0c-0.5-0.3-0.5-0.7,0-1
					C23.5,49.5,24.3,49.5,24.8,49.8z"/>
			</g>
			<g>
				<path class="st113" d="M16.5,54.6c0.5,0.3,0.5,0.7,0,1c-0.5,0.3-1.2,0.3-1.7,0c-0.5-0.3-0.5-0.7,0-1
					C15.2,54.3,16,54.3,16.5,54.6z"/>
			</g>
			<g>
				<path class="st113" d="M33,61l-0.3,0.2l-0.5-0.3L19,53.3l-2.4,1.4l-0.9,0.5c-0.1,0-0.2,0-0.2-0.1c0-0.1,0-0.2,0.1-0.2l0.7-0.4
					l2.6-1.5c0,0,0.1,0,0.2,0l13.4,7.7L33,61z"/>
			</g>
			<g>
				<path class="st113" d="M55,48.3l-0.3,0.2l-0.5-0.3l-5.7-3.3c0,0-0.1-0.1-0.1-0.1c0-0.1,0-0.1,0.1-0.1l2.7-1.5l-6.5-3.8h0
					L44,38.8c-0.1,0-0.1-0.1-0.1-0.2c0-0.1,0.1-0.1,0.2-0.1l0.8,0.5l6.6,3.9c0,0,0.1,0.1,0.1,0.1c0,0.1,0,0.1-0.1,0.1l-2.7,1.5
					l5.6,3.3L55,48.3z"/>
			</g>
			<g>
				<ellipse class="st113" cx="44" cy="38.6" rx="1.2" ry="0.7"/>
			</g>
			<g>
				<ellipse class="st113" cx="27.7" cy="49.7" rx="1.2" ry="0.7"/>
			</g>
			<g>
				<path class="st113" d="M31.4,44.2c0.5,0.3,0.5,0.7,0,1c-0.5,0.3-1.2,0.3-1.7,0c-0.5-0.3-0.5-0.7,0-1
					C30.2,43.9,31,43.9,31.4,44.2z"/>
			</g>
			<g>
				<ellipse class="st113" cx="33.4" cy="38" rx="1.2" ry="0.7"/>
			</g>
			<g>
				<path class="st113" d="M41.7,38.9c0.5,0.3,0.5,0.7,0,1c-0.5,0.3-1.2,0.3-1.7,0c-0.5-0.3-0.5-0.7,0-1
					C40.5,38.6,41.2,38.6,41.7,38.9z"/>
			</g>
			<g>
				<ellipse class="st113" cx="36.9" cy="44.2" rx="1.2" ry="0.7"/>
			</g>
		</g>
		<g>
			<g>
				<path class="st113" d="M99.9,60.8c0,0.1,0,0.1-0.1,0.1L92,65.4l-0.5,0.3l-0.3-0.2l0.5-0.3l7.8-4.5l-7.1-4.3L92,56.3l-1.8-1.1
					c0,0-0.1-0.1-0.1-0.1c0-0.1,0-0.1,0.1-0.1l4.7-2.7l0.9-0.5c0.1,0,0.2,0,0.2,0.1c0,0.1,0,0.2-0.1,0.2l-0.8,0.5l-4.6,2.7l1.7,1
					l0.3,0.2l7.2,4.3C99.9,60.7,99.9,60.7,99.9,60.8z"/>
			</g>
			<g>
				<path class="st113" d="M92.4,50.8l-0.6,0.4L85.3,55l2.7,1.5c0,0,0.1,0.1,0.1,0.1c0,0.1,0,0.1-0.1,0.1L82.5,60L82,60.3l-0.3-0.2
					l0.5-0.3l5.4-3.1l-2.7-1.5c0,0-0.1-0.1-0.1-0.1c0-0.1,0-0.1,0.1-0.1l6.6-3.9l0.8-0.5c0.1,0,0.2,0,0.2,0.1
					C92.5,50.7,92.5,50.8,92.4,50.8z"/>
			</g>
			<g>
				<path class="st113" d="M85.7,43.9l-1,0.6l-5.1,2.9l4,2.3c0,0,0.1,0.1,0.1,0.1c0,0.1,0,0.1-0.1,0.1l-9.1,5.3l-0.5,0.3l-0.3-0.2
					l0.5-0.3l9-5.2l-4-2.3c0,0-0.1-0.1-0.1-0.1c0-0.1,0-0.1,0.1-0.1l5.2-3l1.1-0.7c0.1,0,0.2,0,0.2,0.1
					C85.8,43.8,85.7,43.9,85.7,43.9z"/>
			</g>
			<g>
				<path class="st113" d="M108.4,63.9l-0.7,0.4l-4.6,2.6c0,0-0.1,0-0.2,0l-3.5-2l-4.2,2.4l-0.5,0.3l-0.3-0.2l0.5-0.3l4.5-2.6
					c0,0,0.1,0,0.2,0l3.5,2l4.3-2.5l0.9-0.5c0.1,0,0.2,0,0.2,0.1C108.5,63.8,108.5,63.9,108.4,63.9z"/>
			</g>
			<g>
				<path class="st113" d="M79.2,44.8l-0.7,0.4c0,0,0,0,0,0l-10.8,6.3l-0.5,0.3l-0.3-0.2l0.5-0.3L78.2,45l0.9-0.5
					c0.1,0,0.2,0,0.2,0.1C79.3,44.7,79.3,44.8,79.2,44.8z"/>
			</g>
			<g>
				<path class="st113" d="M83.1,38.7L82.6,39L64.3,49.5l-0.5,0.3l-0.3-0.2l0.5-0.3l18.2-10.5l0.7-0.4c0.1,0,0.2,0,0.2,0.1
					C83.2,38.5,83.1,38.6,83.1,38.7z"/>
			</g>
			<g>
				<path class="st113" d="M88.8,50.1L88,50.6l-10.9,6.3l-0.5,0.3L76.3,57l0.5-0.3l10.9-6.3l0.9-0.5c0.1,0,0.2,0,0.2,0.1
					C88.9,50,88.8,50.1,88.8,50.1z"/>
			</g>
			<g>
				<path class="st113" d="M76.9,50l-1.2,0.7l-4.7,2.7l-0.5,0.3l-0.3-0.2l0.5-0.3l4.7-2.7l1.4-0.8c0.1,0,0.2,0,0.2,0.1
					C77,49.8,77,49.9,76.9,50z"/>
			</g>
			<g>
				<path class="st113" d="M75.5,49.6c-0.5,0.3-0.5,0.7,0,1c0.5,0.3,1.2,0.3,1.7,0c0.5-0.3,0.5-0.7,0-1C76.8,49.3,76,49.3,75.5,49.6
					z"/>
			</g>
			<g>
				<path class="st113" d="M107.5,63.2c-0.5,0.3-0.5,0.7,0,1c0.5,0.3,1.2,0.3,1.7,0c0.5-0.3,0.5-0.7,0-1
					C108.7,62.9,107.9,62.9,107.5,63.2z"/>
			</g>
			<g>
				<ellipse class="st113" cx="92.4" cy="50.6" rx="1.2" ry="0.7"/>
			</g>
			<g>
				<ellipse class="st113" cx="100.7" cy="55.4" rx="1.2" ry="0.7"/>
			</g>
			<g>
				<path class="st113" d="M100.8,55.4c0,0.1-0.1,0.1-0.2,0.1L99.7,55l-2.4-1.4l-4.7,2.7l-0.3,0.2l-7.9,4.6l-0.5,0.3l-0.3-0.2
					l0.5-0.3l7.9-4.6l0.3-0.2l4.9-2.8c0,0,0.1,0,0.2,0l2.6,1.5h0l0.7,0.4C100.8,55.3,100.9,55.4,100.8,55.4z"/>
			</g>
			<g>
				<path class="st113" d="M72.4,39.1l-0.6,0.4l-6.5,3.8l2.7,1.5c0,0,0.1,0.1,0.1,0.1c0,0.1,0,0.1-0.1,0.1l-5.6,3.2l-0.5,0.3l-2,1.1
					c0,0-0.1,0-0.1,0c-0.1,0-0.1,0-0.1-0.1c0-0.1,0-0.2,0.1-0.2l1.8-1.1l0.5-0.3l5.5-3.2l-2.7-1.5c0,0-0.1-0.1-0.1-0.1
					c0-0.1,0-0.1,0.1-0.1l6.6-3.9l0.8-0.5c0.1,0,0.2,0,0.2,0.1C72.5,38.9,72.4,39,72.4,39.1z"/>
			</g>
			<g>
				<path class="st113" d="M71.5,38.4c-0.5,0.3-0.5,0.7,0,1c0.5,0.3,1.2,0.3,1.7,0c0.5-0.3,0.5-0.7,0-1C72.8,38.1,72,38.1,71.5,38.4
					z"/>
			</g>
			<g>
				<ellipse class="st113" cx="88.6" cy="49.9" rx="1.2" ry="0.7"/>
			</g>
			<g>
				<path class="st113" d="M84.6,43.5c-0.5,0.3-0.5,0.7,0,1c0.5,0.3,1.2,0.3,1.7,0c0.5-0.3,0.5-0.7,0-1
					C85.8,43.2,85.1,43.2,84.6,43.5z"/>
			</g>
			<g>
				<path class="st113" d="M82.1,37.8c-0.5,0.3-0.5,0.7,0,1c0.5,0.3,1.2,0.3,1.7,0c0.5-0.3,0.5-0.7,0-1
					C83.4,37.5,82.6,37.5,82.1,37.8z"/>
			</g>
			<g>
				<ellipse class="st113" cx="96" cy="51.9" rx="1.2" ry="0.7"/>
			</g>
			<g>
				<path class="st113" d="M78.3,44.1c-0.5,0.3-0.5,0.7,0,1c0.5,0.3,1.2,0.3,1.7,0c0.5-0.3,0.5-0.7,0-1
					C79.5,43.8,78.8,43.8,78.3,44.1z"/>
			</g>
		</g>
	</g>
</g>
</svg>
