<?xml version="1.0" encoding="utf-8"?>
<!-- Generator: Adobe Illustrator 25.4.1, SVG Export Plug-In . SVG Version: 6.00 Build 0)  -->
<svg version="1.1" id="Layer_1" xmlns="http://www.w3.org/2000/svg" xmlns:xlink="http://www.w3.org/1999/xlink" x="0px" y="0px"
	 viewBox="0 0 88.1 110.3" style="enable-background:new 0 0 88.1 110.3;" xml:space="preserve">
<style type="text/css">
	.st0{opacity:0.3;fill:#D9CDC1;}
	.st1{fill:#C9C9EC;}
	.st2{fill:#1F0159;}
	.st3{fill:#4C1F8C;}
	.st4{clip-path:url(#SVGID_00000036226396439519179320000001399753214383360687_);enable-background:new    ;}
	.st5{fill:#7350BA;}
	.st6{clip-path:url(#SVGID_00000115479308064210610190000012358899226888395695_);enable-background:new    ;}
	.st7{fill:#DDDEFA;}
	.st8{clip-path:url(#SVGID_00000023994884852383033120000016600116726405047221_);enable-background:new    ;}
	.st9{clip-path:url(#SVGID_00000100366255633759358700000006960461619587809699_);enable-background:new    ;}
	.st10{enable-background:new    ;}
	.st11{fill:url(#SVGID_00000127004361407693411540000003574603513871786383_);}
	.st12{fill:url(#SVGID_00000107569615071704204280000004161540867918044815_);}
	.st13{fill:#E8E9FC;}
	.st14{clip-path:url(#SVGID_00000084513990837551747960000015899671531875327137_);enable-background:new    ;}
	.st15{clip-path:url(#SVGID_00000091697302754323308070000001562999934208971947_);enable-background:new    ;}
	.st16{fill:url(#SVGID_00000155139643246613219310000007026402108532909759_);}
	.st17{fill:url(#SVGID_00000067937377534335890690000012420559571427932088_);}
	.st18{fill:url(#SVGID_00000006709289819053115430000003944995562663479217_);}
	.st19{clip-path:url(#SVGID_00000031920485421911729830000007886484307864744585_);enable-background:new    ;}
	.st20{clip-path:url(#SVGID_00000061466829737262954720000011643956476769113753_);enable-background:new    ;}
	.st21{clip-path:url(#SVGID_00000058563078510700476970000006222153342861877908_);enable-background:new    ;}
	.st22{clip-path:url(#SVGID_00000065063346077928185130000009612917443596005256_);enable-background:new    ;}
	.st23{fill:#AC44EE;}
	.st24{opacity:0.8;}
	.st25{fill:#ADB2CC;}
	.st26{fill:#F1F1F9;}
	.st27{clip-path:url(#SVGID_00000160184968534722931040000001469319440637336725_);enable-background:new    ;}
	.st28{clip-path:url(#SVGID_00000136386328213060482080000002660848981914407576_);enable-background:new    ;}
</style>
<g>
	<path class="st0" d="M47.4,78.4L37.6,84c-4.6,2.7-12.2,2.7-16.8,0l0,0c-4.6-2.7-4.6-7,0-9.7l9.8-5.7c4.6-2.7,12.2-2.7,16.8,0v0
		C52.1,71.3,52.1,75.7,47.4,78.4z"/>
	<polygon class="st0" points="65,96.6 67.1,96.6 77.8,90.4 68.4,84.9 61.6,88.6 	"/>
	<polygon class="st0" points="34.5,101.6 37.9,101.6 53.4,92.7 39.8,84.7 30.1,90 	"/>
	<polygon class="st0" points="55.1,90.5 58.9,90.5 76,80.6 61,71.8 50.3,77.7 	"/>
	<g>
		<path class="st1" d="M49.8,23.1c1.1-0.2,2.2-0.5,3.3-0.5c0.4,0,0.8,0.1,1.2,0.2c0.1,0,0.3,0.1,0.4,0.2c0.1,0.1,0.2,0.2,0.3,0.4
			c0,0.2-0.1,0.4-0.2,0.4c0.2,0.1,0.3,0.4,0.3,0.6c0,0.2-0.1,0.5-0.3,0.6c0.2,0.1,0.3,0.4,0.3,0.7c0,0.3-0.2,0.5-0.5,0.5
			c0.2,0.2,0.1,0.5,0,0.7c-0.2,0.2-0.4,0.2-0.6,0.3c-1.8,0.2-3.2-0.7-5.1-0.9c-0.1-0.4-0.3-0.6-0.1-0.9c0.2-0.4,0.3-0.8,0.3-1.2
			L49.8,23.1z"/>
		<path class="st1" d="M53.6,22.6c1.3,0.1,2.9,0.4,4.1,0.7c0.1,0,0.3,0.1,0.4,0.2c0.1,0.1,0.2,0.2,0.2,0.3c0,0.1-0.1,0.2-0.1,0.2
			c-0.2,0.2-0.6,0.1-0.9,0.1c-1.1-0.1-2-0.3-3-0.5c-0.1,0-0.1,0.1-0.2,0.1c-0.1-0.1-0.1-0.4,0.1-0.5c0.1-0.1,0.3-0.2,0.4-0.2
			L53.6,22.6z"/>
		<path class="st1" d="M51.2,22.1C51.4,22,51.7,22,52,22c0.4,0.1,0.8,0.4,1.1,0.7c-0.3,0.2-0.6,0.3-1,0.4c-0.4,0.1-0.7,0.1-1.1,0.1
			c-0.3,0-0.5,0.1-0.8,0.1c-0.1,0-1.1,0.6-1.2,0.5c-0.1-0.2,0.1-0.6,0.2-0.6C49.6,22.9,50.7,22.3,51.2,22.1z"/>
		<path class="st2" d="M40.2,23.2c-0.4-1.9-0.8-3.7-0.8-3.9c0-0.1-0.3-1.8-0.5-1.7l-4.8,0.5c0.1,0.7,0.3,1.5,0.4,2.1
			c0.1,0.6,0.7,3.9,2.8,5.3C37.3,25.5,39.3,24.7,40.2,23.2z"/>
		<path class="st1" d="M34.5,10.8c1.7-0.6,2.7,1.1,3.3,2.2c0.8,1.6,1.3,3.4,1.5,5.2c0,0.4,0.1,0.9-0.1,1.3c-0.1,0.4-0.3,0.7-0.5,1
			c-0.5,0.7-1.2,1.5-2.1,1.6c-0.3,0-0.6,0-0.8,0c-0.4-0.1-0.8-0.1-1.1-0.4c-0.5-0.4-0.8-1-0.9-1.6c-0.5-1.5-0.9-3.1-1.1-4.7
			C32.5,13.7,32.3,11.6,34.5,10.8z"/>
		<path class="st1" d="M48.9,26.3c1.9,0,2.4-2.7-0.1-3.4c-2.7-0.7-4.7-0.9-7-1.5c-0.5-0.1-1.6-0.5-2.1-0.3c-0.6,0.2-0.1,1.1-0.5,1.6
			c-0.2,0.2-1,0.5-1.2,0.6c-0.8,0.3-1.4,1.6-0.8,2.1C38.1,26.3,45.9,26.4,48.9,26.3z"/>
		<path class="st3" d="M47.8,26.3c0.4,0,0.6,0,0.9,0c1,0,1.4-0.9,1.4-1.7c0-0.7-0.1-1.4-1.3-1.7c-0.3-0.1-0.6-0.1-0.9-0.2
			C48.6,23.6,48.4,25.2,47.8,26.3z"/>
	</g>
	<g>
		<g>
			<g>
				<g>
					<defs>
						<path id="SVGID_1_" d="M36.2,53.3l0.4-0.2c0.3-0.1,0.6-0.1,1,0.1l-0.4,0.2C36.9,53.2,36.5,53.2,36.2,53.3z"/>
					</defs>
					<use xlink:href="#SVGID_1_"  style="overflow:visible;fill:#7350BA;"/>
					<clipPath id="SVGID_00000064340992073478383300000005250211659954612884_">
						<use xlink:href="#SVGID_1_"  style="overflow:visible;"/>
					</clipPath>
					<g style="clip-path:url(#SVGID_00000064340992073478383300000005250211659954612884_);enable-background:new    ;">
						<path class="st5" d="M36.2,53.3l0.4-0.2C36.7,53,36.9,53,37,53l-0.4,0.2C36.5,53.2,36.4,53.2,36.2,53.3L36.2,53.3z"/>
						<path class="st5" d="M36.7,53.2L37,53c0.1,0,0.2,0,0.3,0.1L37,53.3C36.9,53.3,36.8,53.2,36.7,53.2L36.7,53.2z"/>
						<path class="st5" d="M37,53.3l0.4-0.2c0.1,0,0.2,0.1,0.3,0.1l-0.4,0.2C37.2,53.4,37.1,53.3,37,53.3L37,53.3z"/>
					</g>
				</g>
				<g>
					<defs>
						<path id="SVGID_00000176724493728163201810000013513487833040064695_" d="M38.5,56.7l-0.4,0.2c0.3-0.1,0.4-0.5,0.5-0.9
							c0-0.9-0.6-2-1.3-2.5l0.4-0.2c0.8,0.5,1.4,1.6,1.3,2.5C38.9,56.2,38.8,56.5,38.5,56.7z"/>
					</defs>
					<use xlink:href="#SVGID_00000176724493728163201810000013513487833040064695_"  style="overflow:visible;fill:#7350BA;"/>
					<clipPath id="SVGID_00000034780808842771268180000016442863906489898890_">
						<use xlink:href="#SVGID_00000176724493728163201810000013513487833040064695_"  style="overflow:visible;"/>
					</clipPath>
					<g style="clip-path:url(#SVGID_00000034780808842771268180000016442863906489898890_);enable-background:new    ;">
						<path class="st5" d="M37.2,53.4l0.4-0.2c0,0,0,0,0,0L37.2,53.4C37.3,53.4,37.3,53.4,37.2,53.4L37.2,53.4z"/>
						<path class="st5" d="M37.3,53.4l0.4-0.2c0.1,0.1,0.2,0.1,0.3,0.2l-0.4,0.2C37.5,53.6,37.4,53.5,37.3,53.4L37.3,53.4z"/>
						<path class="st5" d="M37.6,53.7l0.4-0.2c0.1,0.1,0.2,0.2,0.3,0.3L37.9,54C37.8,53.9,37.7,53.8,37.6,53.7L37.6,53.7z"/>
						<path class="st5" d="M37.9,54l0.4-0.2c0.2,0.3,0.4,0.6,0.5,0.9l-0.4,0.2C38.2,54.6,38.1,54.3,37.9,54L37.9,54z"/>
						<path class="st5" d="M38.4,54.9l0.4-0.2c0,0.1,0.1,0.2,0.1,0.4l-0.4,0.2C38.5,55.1,38.4,55,38.4,54.9L38.4,54.9z"/>
						<path class="st5" d="M38.5,55.2l0.4-0.2c0,0.1,0.1,0.3,0.1,0.4l-0.4,0.2C38.6,55.5,38.5,55.4,38.5,55.2L38.5,55.2z"/>
						<path class="st5" d="M38.6,55.6l0.4-0.2c0,0.1,0,0.2,0,0.3c0,0,0,0,0,0L38.6,56c0,0,0,0,0,0C38.6,55.9,38.6,55.7,38.6,55.6
							L38.6,55.6z"/>
						<path class="st5" d="M38.6,56l0.4-0.2c0,0.1,0,0.2-0.1,0.3l-0.4,0.2C38.6,56.2,38.6,56.1,38.6,56L38.6,56z"/>
						<path class="st5" d="M38.9,55.4l0.4-0.2c-0.1,0.3-0.2,0.4-0.4,0.5l-0.4,0.2C38.6,55.8,38.8,55.6,38.9,55.4L38.9,55.4z"/>
					</g>
				</g>
				<g>
					<path class="st7" d="M37.2,53.4c0.8,0.5,1.4,1.6,1.3,2.5c0,0.9-0.7,1.3-1.5,0.8c-0.8-0.5-1.4-1.6-1.3-2.5
						C35.8,53.3,36.5,52.9,37.2,53.4z"/>
				</g>
			</g>
			<g>
				<path class="st5" d="M37.2,53.9c0.6,0.4,1,1.2,1,1.9c0,0.7-0.5,0.9-1.1,0.6c-0.6-0.4-1-1.2-1-1.9C36.1,53.7,36.6,53.5,37.2,53.9
					z"/>
			</g>
			<g>
				<g>
					<path class="st7" d="M37.1,54.4c0.3,0.2,0.6,0.7,0.6,1.1c0,0.4-0.3,0.5-0.6,0.3c-0.3-0.2-0.6-0.7-0.6-1.1
						C36.5,54.3,36.8,54.2,37.1,54.4z"/>
				</g>
			</g>
		</g>
		<g>
			<g>
				<g>
					<defs>
						<path id="SVGID_00000106136829105038583300000011795728305756149436_" d="M25.8,56.8l0.4-0.2c0.3-0.1,0.6-0.1,1,0.1l-0.4,0.2
							C26.4,56.7,26.1,56.7,25.8,56.8z"/>
					</defs>
					<use xlink:href="#SVGID_00000106136829105038583300000011795728305756149436_"  style="overflow:visible;fill:#7350BA;"/>
					<clipPath id="SVGID_00000164500642932341361530000011600400654002645144_">
						<use xlink:href="#SVGID_00000106136829105038583300000011795728305756149436_"  style="overflow:visible;"/>
					</clipPath>
					<g style="clip-path:url(#SVGID_00000164500642932341361530000011600400654002645144_);enable-background:new    ;">
						<path class="st5" d="M25.8,56.8l0.4-0.2c0.1-0.1,0.3-0.1,0.4-0.1l-0.4,0.2C26.1,56.7,25.9,56.7,25.8,56.8L25.8,56.8z"/>
						<path class="st5" d="M26.2,56.7l0.4-0.2c0.1,0,0.2,0,0.3,0.1l-0.4,0.2C26.4,56.8,26.3,56.7,26.2,56.7L26.2,56.7z"/>
						<path class="st5" d="M26.5,56.8l0.4-0.2c0.1,0,0.2,0.1,0.3,0.1l-0.4,0.2C26.7,56.9,26.6,56.8,26.5,56.8L26.5,56.8z"/>
					</g>
				</g>
				<g>
					<defs>
						<path id="SVGID_00000058555652404740047470000017030391078291428994_" d="M28.1,60.2l-0.4,0.2c0.3-0.1,0.4-0.5,0.5-0.9
							c0-0.9-0.6-2-1.3-2.5l0.4-0.2c0.8,0.5,1.4,1.6,1.3,2.5C28.5,59.7,28.3,60.1,28.1,60.2z"/>
					</defs>
					<use xlink:href="#SVGID_00000058555652404740047470000017030391078291428994_"  style="overflow:visible;fill:#7350BA;"/>
					<clipPath id="SVGID_00000128481837410120008290000001271184782694522030_">
						<use xlink:href="#SVGID_00000058555652404740047470000017030391078291428994_"  style="overflow:visible;"/>
					</clipPath>
					<g style="clip-path:url(#SVGID_00000128481837410120008290000001271184782694522030_);enable-background:new    ;">
						<path class="st5" d="M26.8,56.9l0.4-0.2c0,0,0,0,0,0L26.8,56.9C26.8,57,26.8,57,26.8,56.9L26.8,56.9z"/>
						<path class="st5" d="M26.8,57l0.4-0.2c0.1,0.1,0.2,0.1,0.3,0.2l-0.4,0.2C27,57.1,26.9,57,26.8,57L26.8,57z"/>
						<path class="st5" d="M27.1,57.2l0.4-0.2c0.1,0.1,0.2,0.2,0.3,0.3l-0.4,0.2C27.3,57.4,27.2,57.3,27.1,57.2L27.1,57.2z"/>
						<path class="st5" d="M27.4,57.5l0.4-0.2c0.2,0.3,0.4,0.6,0.5,0.9l-0.4,0.2C27.8,58.1,27.6,57.8,27.4,57.5L27.4,57.5z"/>
						<path class="st5" d="M27.9,58.4l0.4-0.2c0,0.1,0.1,0.2,0.1,0.4l-0.4,0.2C28,58.6,28,58.5,27.9,58.4L27.9,58.4z"/>
						<path class="st5" d="M28.1,58.8l0.4-0.2c0,0.1,0.1,0.3,0.1,0.4l-0.4,0.2C28.1,59,28.1,58.9,28.1,58.8L28.1,58.8z"/>
						<path class="st5" d="M28.1,59.1l0.4-0.2c0,0.1,0,0.2,0,0.3c0,0,0,0,0,0l-0.4,0.2c0,0,0,0,0,0C28.2,59.4,28.1,59.3,28.1,59.1
							L28.1,59.1z"/>
						<path class="st5" d="M28.1,59.5l0.4-0.2c0,0.1,0,0.2-0.1,0.3l-0.4,0.2C28.1,59.7,28.1,59.6,28.1,59.5L28.1,59.5z"/>
						<path class="st5" d="M28.4,58.9l0.4-0.2c-0.1,0.3-0.2,0.4-0.4,0.5L28,59.4C28.2,59.3,28.3,59.1,28.4,58.9L28.4,58.9z"/>
					</g>
				</g>
				<g>
					<path class="st7" d="M26.8,56.9c0.8,0.5,1.4,1.6,1.3,2.5c0,0.9-0.7,1.3-1.5,0.8c-0.8-0.5-1.4-1.6-1.3-2.5
						C25.4,56.8,26,56.5,26.8,56.9z"/>
				</g>
			</g>
			<g>
				<path class="st5" d="M26.7,57.4c0.6,0.4,1,1.2,1,1.9c0,0.7-0.5,0.9-1.1,0.6c-0.6-0.4-1-1.2-1-1.9C25.7,57.3,26.2,57,26.7,57.4z"
					/>
			</g>
			<g>
				<g>
					<path class="st7" d="M26.7,57.9c0.3,0.2,0.6,0.7,0.6,1.1c0,0.4-0.3,0.5-0.6,0.3c-0.3-0.2-0.6-0.7-0.6-1.1
						C26.1,57.8,26.4,57.7,26.7,57.9z"/>
				</g>
			</g>
		</g>
		<path class="st2" d="M37.6,73.8c1.2,0.9,3.7,2.2,3.7,3.6c0,0.3-1.7,2.3-2.6,2.5c-1.4,0.3-3-1.6-4-2.6c-1-0.9-2.8-1.3-3-2.9
			c0-0.4,0.1-0.8,0.2-1.1c0.2-0.5,0.5-1,1-1.2c0.5-0.3,1.1-0.3,1.7-0.3c0.3,0,0.6,0.1,0.9,0.2C36.1,72.3,37,73.3,37.6,73.8z"/>
		<path class="st7" d="M37.6,73.7c1.2,0.9,3.6,2.1,3.5,3.4c0,0.3-1.6,2.2-2.5,2.4c-1.4,0.3-2.9-1.5-3.8-2.4
			c-0.9-0.9-2.7-1.2-2.8-2.7c0-0.4,0.1-0.7,0.2-1c0.2-0.5,0.5-0.9,0.9-1.2c0.5-0.3,1-0.3,1.6-0.3c0.3,0,0.6,0.1,0.8,0.2
			C36.1,72.2,36.9,73.2,37.6,73.7z"/>
		<path class="st2" d="M33.2,69.3c-0.1,0-0.2,0.1-0.3,0.2c-0.2,0.1-0.3,0.3-0.4,0.5c-0.2,0.4-0.2-0.8-0.3-0.3
			c-0.1,0.3,0.3,3.2,0.4,3.6c0.1,0.6,0.6,1,2.2,0.9c0.8,0,1.2-0.5,1.2-1.3c0-1,0.3-2.4-0.2-3.1c-0.3-0.4-0.8-0.6-1.2-0.7
			c-0.4-0.1-0.8,0-1.2,0.1C33.3,69.3,33.3,69.3,33.2,69.3z"/>
		<path class="st2" d="M33.7,51c-0.2,0.1-0.4,0.1-0.6,0.2c-0.3,0.2-0.5,0.4-0.7,0.7c-0.5,0.6-0.9-0.5-1.1,0.3
			c-0.2,0.5,0.3,4.2,0.3,4.9c0.1,1,0.4,1.3,1,1.9c0.7,0.8,1.6,1.2,2.5,1c0.2,0,0.3-0.1,0.5-0.2c1-0.5,1.4-0.9,1.6-2.1
			c0.2-1.7,0.9-3.9,0.3-5.3c-0.4-0.7-1.1-1.2-1.8-1.5c-0.6-0.2-1.3-0.2-1.9-0.1C33.8,51,33.8,51,33.7,51z"/>
		<path class="st2" d="M28,37c0,0.4,0,0.9,0,1.3c0,0.7-0.1,1.3,0.1,1.9c0.5,1.6,2.1,1.9,2.5,3.5c0.4,1.5,1.2,9.8,2.1,11
			c0.4,0.6-0.7-4.3-0.2-3.9c0.2,0.2,0.5,0.4,0.8,0.4c0.5,0.1,0.9-0.2,1.3-0.5c0.4-0.3,0.6-0.7,0.9-1.1c1.3-1.5,1.1,0.8,1.5-2.2
			c0.7-5.7,0.4-8.2-0.1-10.6H28z"/>
		<path class="st1" d="M31,51.7c0.2,1,0.3,1.2,0.4,2.2c0.1,1,0.6,2.2,1.3,2.9c0.8,0.8,2.2,1.2,3.2,1c2.2-0.4,2.3-3,2.5-5.1
			c0.2-1.3,0.2-2.6,0.2-3.9c0-1.5-0.1-3.1-0.2-4.6c0-0.6-0.1-1.3-0.2-1.9c0-0.3,0-1.4-0.4-1.4c-0.2,0-0.4,0.2-0.5,0.4
			c-0.1,0.2-0.2,0.4-0.3,0.5c-0.5,0.9-1.7,1.9-2.5,2.5C30.7,47.5,29.7,43.5,31,51.7z"/>
		<path class="st1" d="M36.4,68.3c-0.1,1.1-0.2,2.2-0.2,3.3c-0.1,0.9-0.4,1.7-1.5,1.9c-0.8,0.1-1.6-0.3-2.1-0.8
			c-0.5-0.6-1.8-7.2-2-9c-0.2-1.3-0.2-2.5-0.1-3.5c0.3-2.3,1.1-3.5,1.1-3.6c0,0,0,0.1,0.1,0.3c0.2,0.6,0.8,1.7,2.1,1.9
			c1.4,0.2,2.7,0.1,3.5-1.2C37.6,59.8,36.6,66,36.4,68.3z"/>
		<g id="VR_x5F_back_12_">
			<g class="st10">
				<defs>
					<path id="SVGID_00000052786855247888315060000016175490034981426840_" class="st10" d="M33.8,3L34,5.6c0,0,0,0.1,0.1,0.1
						c0.7,0.4,1.1,0.9,1.1,1.4L35,4.5C35,4,34.6,3.5,33.8,3C33.9,3.1,33.8,3,33.8,3z"/>
				</defs>
				<use xlink:href="#SVGID_00000052786855247888315060000016175490034981426840_"  style="overflow:visible;fill:#F1F1F9;"/>
				<clipPath id="SVGID_00000060737730042343920140000017800289598829895840_">
					<use xlink:href="#SVGID_00000052786855247888315060000016175490034981426840_"  style="overflow:visible;"/>
				</clipPath>
			</g>
			<path class="st3" d="M34.9,4.8c0-0.5-0.4-1-1-1.3c-0.1,0-0.1-0.1,0-0.2c0.1-0.1,0.2-0.1,0.3,0c1,0.5,1.4,1.4,1.1,2.1
				c-0.1-0.1-0.2-0.2-0.4-0.2C34.9,5.1,34.9,4.9,34.9,4.8z"/>
		</g>
		
			<linearGradient id="SVGID_00000070799225639445739820000008996039380616113282_" gradientUnits="userSpaceOnUse" x1="26.7844" y1="15.6662" x2="34.2076" y2="43.4244">
			<stop  offset="0" style="stop-color:#AC44EE"/>
			<stop  offset="0.3072" style="stop-color:#8334C4"/>
			<stop  offset="0.5912" style="stop-color:#6529A6"/>
			<stop  offset="0.8318" style="stop-color:#532293"/>
			<stop  offset="1" style="stop-color:#4C1F8C"/>
		</linearGradient>
		<path style="fill:url(#SVGID_00000070799225639445739820000008996039380616113282_);" d="M37.2,27.2c0-0.3,0.4-7.5,0.5-7.9
			l-16-3.9c0,0-1.1,1.1-1.4,1.6c-1.8,2.7-0.4,6.4,0.6,9.1c0.7,1.9,3.2,10.8,2.6,13c-0.1,0.5-0.1,1.7,0.3,2c0.3,0.3,0.6,0.5,0.9,0.7
			c0.7,0.4,1.4,0.6,2.1,0.7c1.8,0.3,3.6,0,5.2-0.5c0.9-0.3,1.7-0.6,2.5-1c0.5-0.2,0.7-0.4,0.9-0.8c0.2-0.4,0.4-0.8,0.5-1.3
			c0.1-0.4,0.4-1.6,0.5-2c0-0.4,0.3-0.6,0.3-0.9c0-0.2-0.2-0.5-0.2-0.7C36.8,32.6,36.8,30,37.2,27.2z"/>
		
			<linearGradient id="SVGID_00000009557951878550521490000004341706502288507545_" gradientUnits="userSpaceOnUse" x1="21.9141" y1="15.0082" x2="37.7768" y2="23.2502">
			<stop  offset="0" style="stop-color:#E8E9FC"/>
			<stop  offset="1" style="stop-color:#D3D4EC"/>
		</linearGradient>
		<path style="fill:url(#SVGID_00000009557951878550521490000004341706502288507545_);" d="M25.9,26.9c-2.2-2.2-2.7-3.5-2.8-4.3
			c-0.1-0.5,0.8-0.4,0.7-0.9c-0.2-0.8,0-1.7-0.2-2.6c-0.2-0.7-0.6-1.5-1.4-1.6c-0.1,0-0.2,0-0.2,0c-0.4,0-0.8,0.2-1.2,0.2
			c-0.2,0-1.1,0.1-1.1,0.1s0-0.6,1.2-1.7c0.5-0.5,1.2-0.8,1.7-1.2c1.6-1.1,4.8-2.5,8-3.5c4.4-1.4,5,0.2,6.3,3.7
			c0.7,1.9,0.8,3.9,0.8,5.9c0,1.8-1.2,4.6-1.2,4.6s-0.5,0.6-1,0.9c-5.1,3.1-6.2,2.8-6.2,2.8C27.8,28.6,27,28,25.9,26.9z"/>
		<path class="st3" d="M25.6,14.2c0.1,3.6,7.2,4.4,6.6,0c-0.7-4.6-0.8-5.2-3-5.8c-0.6-0.2-1.2-0.3-1.9-0.3c-2.3,0.1-1.4,1.2-1.2,2
			C26.4,12.6,25.6,12.9,25.6,14.2z"/>
		<g>
			<path class="st13" d="M34,2.5c0.5,0.7,0.8,1.6,0.9,2.5c0,0.4,0,0.8-0.1,1.2c-0.1,0.4-0.3,0.7-0.3,1.1c0,0.5,0.4,1,0.5,1.4
				c0.2,0.4,0.3,0.8,0.1,1.2c-0.1,0.2-0.2,0.4-0.3,0.6c-0.6,1,0.1,2.4-0.9,3.1c-0.3,0.2-0.6,0.2-0.9,0.3c-0.4,0-2.2-0.4-2.9-0.6
				c-0.8-0.3-1.7-0.6-2.3-1.2c-0.4-0.5-0.8-1.2-1.2-2.4c0,0-0.9,0.1-1.5-0.8c-0.9-1.3-1.1-2.3-1.1-3.5c0-1.1,0.1-2.1,0.8-3.1
				c0.5-0.7,1.3-1.4,2.1-1.7c1.3-0.5,2.8-0.6,4.1-0.2C32.1,0.6,33.2,1.4,34,2.5z"/>
		</g>
		<path class="st3" d="M26.7,2.6c0.7-1.2,2.9-2.1,4.5-2.2c-2.3-0.7-3.6-0.3-4.4,0.1c-0.8,0.4-1.6,1-2.1,1.7c-0.7,1-0.8,2-0.8,3.1
			c0,1.2,0.3,2.3,1.1,3.5c0.6,0.9,1.5,0.8,1.5,0.8c0,0.1,0,0.1,0.1,0.2c0-0.4-0.2-0.8-0.3-1.2C25.1,6.6,25.6,4.5,26.7,2.6z"/>
		<g id="VR_12_">
			<g class="st10">
				<g>
					<path class="st3" d="M28.9,6.5c0.1-0.1,0.2-0.1,0.3,0c0.7,0.3,1.5,0.5,2.4,0.5c0.9,0,1.7-0.3,2.3-0.7c0.5-0.3,0.8-0.7,0.9-1.1
						c0.1,0.1,0.3,0.2,0.4,0.2c-0.2,0.4-0.5,0.7-0.9,1c-1.4,0.9-3.9,1-5.4,0.3C28.8,6.6,28.8,6.5,28.9,6.5z"/>
				</g>
			</g>
		</g>
		<g>
			<g>
				<g>
					<defs>
						<path id="SVGID_00000120528444851763639090000013610446618905455036_" d="M24.6,6.8L25,6.6c0.3-0.2,0.7-0.1,1.1,0.2l-0.4,0.2
							C25.2,6.6,24.9,6.6,24.6,6.8z"/>
					</defs>
					<use xlink:href="#SVGID_00000120528444851763639090000013610446618905455036_"  style="overflow:visible;fill:#7350BA;"/>
					<clipPath id="SVGID_00000107547587097681360690000008042947287190504859_">
						<use xlink:href="#SVGID_00000120528444851763639090000013610446618905455036_"  style="overflow:visible;"/>
					</clipPath>
					<g style="clip-path:url(#SVGID_00000107547587097681360690000008042947287190504859_);enable-background:new    ;">
						<path class="st5" d="M24.6,6.8L25,6.6c0.1-0.1,0.3-0.1,0.5-0.1L25,6.7C24.9,6.7,24.7,6.7,24.6,6.8L24.6,6.8z"/>
						<path class="st5" d="M25,6.7l0.4-0.2c0.1,0,0.2,0,0.3,0.1l-0.4,0.2C25.3,6.7,25.2,6.7,25,6.7L25,6.7z"/>
						<path class="st5" d="M25.4,6.8l0.4-0.2c0.1,0,0.2,0.1,0.3,0.2l-0.4,0.2C25.6,6.8,25.5,6.8,25.4,6.8L25.4,6.8z"/>
					</g>
				</g>
				<g>
					<defs>
						<path id="SVGID_00000014602510453320706810000012583035260140657545_" d="M27,10.5l-0.4,0.2c0.3-0.2,0.5-0.5,0.5-1
							c0-1-0.6-2.2-1.5-2.8l0.4-0.2c0.9,0.5,1.5,1.8,1.5,2.8C27.5,10,27.3,10.3,27,10.5z"/>
					</defs>
					<use xlink:href="#SVGID_00000014602510453320706810000012583035260140657545_"  style="overflow:visible;fill:#7350BA;"/>
					<clipPath id="SVGID_00000003785613077377336480000007006245349464115112_">
						<use xlink:href="#SVGID_00000014602510453320706810000012583035260140657545_"  style="overflow:visible;"/>
					</clipPath>
					<g style="clip-path:url(#SVGID_00000003785613077377336480000007006245349464115112_);enable-background:new    ;">
						<path class="st5" d="M25.7,6.9l0.4-0.2c0,0,0,0,0,0L25.7,6.9C25.7,6.9,25.7,6.9,25.7,6.9L25.7,6.9z"/>
						<path class="st5" d="M25.7,6.9l0.4-0.2c0.1,0.1,0.2,0.2,0.3,0.3L26,7.2C25.9,7.1,25.8,7,25.7,6.9L25.7,6.9z"/>
						<path class="st5" d="M26,7.2L26.4,7c0.1,0.1,0.2,0.2,0.3,0.3l-0.4,0.2C26.2,7.4,26.1,7.3,26,7.2L26,7.2z"/>
						<path class="st5" d="M26.3,7.5l0.4-0.2c0.2,0.3,0.4,0.6,0.6,1l-0.4,0.2C26.8,8.1,26.6,7.8,26.3,7.5L26.3,7.5z"/>
						<path class="st5" d="M26.9,8.5l0.4-0.2c0.1,0.1,0.1,0.3,0.1,0.4L27,8.9C27,8.8,27,8.6,26.9,8.5L26.9,8.5z"/>
						<path class="st5" d="M27,8.9l0.4-0.2c0,0.1,0.1,0.3,0.1,0.4l-0.4,0.2C27.1,9.2,27.1,9,27,8.9L27,8.9z"/>
						<path class="st5" d="M27.1,9.3l0.4-0.2c0,0.1,0,0.3,0,0.4c0,0,0,0,0,0l-0.4,0.2c0,0,0,0,0,0C27.1,9.6,27.1,9.4,27.1,9.3
							L27.1,9.3z"/>
						<path class="st5" d="M27.1,9.7l0.4-0.2c0,0.1,0,0.3-0.1,0.4l-0.4,0.2C27.1,10,27.1,9.8,27.1,9.7L27.1,9.7z"/>
						<path class="st5" d="M27.4,9l0.4-0.2c-0.1,0.3-0.3,0.5-0.5,0.6L27,9.6C27.2,9.5,27.3,9.3,27.4,9L27.4,9z"/>
					</g>
				</g>
				<g>
					<path class="st7" d="M25.7,6.9c0.9,0.5,1.5,1.8,1.5,2.8c0,1-0.8,1.4-1.6,0.8C24.7,10,24,8.7,24.1,7.8
						C24.1,6.8,24.8,6.4,25.7,6.9z"/>
				</g>
			</g>
			<g>
				<path class="st5" d="M25.6,7.4c0.6,0.4,1.1,1.3,1.1,2.1c0,0.7-0.6,1-1.2,0.6c-0.6-0.4-1.1-1.3-1.1-2.1C24.4,7.3,25,7,25.6,7.4z"
					/>
			</g>
			<g>
				<g>
					<path class="st7" d="M25.6,8c0.4,0.2,0.6,0.8,0.6,1.2c0,0.4-0.3,0.6-0.7,0.4c-0.4-0.2-0.6-0.8-0.6-1.2
						C24.9,7.9,25.2,7.7,25.6,8z"/>
				</g>
			</g>
		</g>
		
			<linearGradient id="SVGID_00000093168128084384498610000014738514729474157448_" gradientUnits="userSpaceOnUse" x1="21.1613" y1="17.1699" x2="28.5845" y2="44.9283">
			<stop  offset="0" style="stop-color:#AC44EE"/>
			<stop  offset="0.3072" style="stop-color:#8334C4"/>
			<stop  offset="0.5912" style="stop-color:#6529A6"/>
			<stop  offset="0.8318" style="stop-color:#532293"/>
			<stop  offset="1" style="stop-color:#4C1F8C"/>
		</linearGradient>
		<path style="fill:url(#SVGID_00000093168128084384498610000014738514729474157448_);" d="M23.1,17c1.1,0.9,1.2,2.2,1.2,3.7
			c0.1,2-0.2,5.3-0.4,7.3c0,0.3-0.4-0.8-0.7-0.7c-0.1,0.1-0.3,0-0.5,0c-0.6-0.2-0.9-0.8-1.2-1.3c-1.1-2-3.1-6.4-1.8-8.5
			C20.7,16.1,22.7,16.6,23.1,17z"/>
		<path class="st7" d="M35.1,42.6c-1.4,1.3-3,2.2-4.5,2.5c-2.3,0.5-4.8-0.2-6.6-1.7c-0.8-0.7-1.4-0.9-1.8-1.9c-0.3-0.7,1-4,1.4-3.6
			c0.5,0.3,1,0.6,1.5,0.9c2.6,1.5,6.8,1.3,9.5,0c2.1-1,2-3.5,2-3.5S38.7,39.1,35.1,42.6z"/>
		<g class="st10">
			<defs>
				<path id="SVGID_00000183227550372986340460000015245024699116894864_" class="st10" d="M28.8,6.6L29,9.1c0,0,0,0.1,0.1,0.1
					c1.5,0.8,3.9,0.7,5.4-0.3c0.7-0.5,1.1-1.1,1-1.6l-0.1-2.5c0,0.6-0.3,1.2-1,1.6C32.8,7.3,30.4,7.5,28.8,6.6
					C28.9,6.7,28.8,6.6,28.8,6.6z"/>
			</defs>
			<use xlink:href="#SVGID_00000183227550372986340460000015245024699116894864_"  style="overflow:visible;fill:#F8F9FC;"/>
			<clipPath id="SVGID_00000001622732532816378370000003633765896651363721_">
				<use xlink:href="#SVGID_00000183227550372986340460000015245024699116894864_"  style="overflow:visible;"/>
			</clipPath>
		</g>
		<g class="st10">
			<path class="st1" d="M29.6,7.7l0,1c1.5,0.5,3.5,0.3,4.8-0.5c0.5-0.3,0.8-0.7,0.9-1c0.1-0.2,0.1-0.4,0.1-0.6l-0.1-1
				c0,0.6-0.3,1.2-1,1.6c-1.2,0.8-3.1,1-4.6,0.6C29.7,7.7,29.6,7.7,29.6,7.7z"/>
		</g>
		<g>
			<path class="st3" d="M29.7,7.7l0,0.9c1.5,0.5,3.5,0.2,4.8-0.6c0.4-0.2,0.6-0.5,0.8-0.9c0.1-0.2,0.1-0.4,0.1-0.6l-0.1-1
				c0,0.6-0.3,1.2-1,1.6C33.1,7.9,31.2,8.1,29.7,7.7z"/>
		</g>
		<g>
			<path class="st2" d="M26.2,78.5c1.1,1.1,3.5,2.8,3.3,4.1c-0.1,0.3-2.1,2.1-3.1,2.2c-1.5,0.1-2.9-2-3.8-3.1
				c-0.8-1.1-2.7-1.7-2.6-3.3c0-0.4,0.2-0.7,0.4-1.1c0.3-0.5,0.7-0.9,1.2-1.1c0.6-0.2,1.2-0.2,1.8-0.1c0.3,0.1,0.6,0.1,0.9,0.3
				C24.9,76.7,25.6,77.8,26.2,78.5z"/>
			<path class="st7" d="M26.2,78.2c1.1,1.1,3.4,2.7,3.1,4c-0.1,0.3-2,2-2.9,2.1c-1.4,0.1-2.7-2-3.6-3.1c-0.8-1.1-2.6-1.7-2.5-3.2
				c0-0.4,0.2-0.7,0.4-1c0.3-0.5,0.6-0.9,1.2-1.1c0.5-0.2,1.1-0.2,1.7-0.1c0.3,0.1,0.6,0.1,0.8,0.3C25,76.4,25.6,77.6,26.2,78.2z"/>
			<path class="st3" d="M22,73.2c-0.1,0-0.3,0.1-0.4,0.2c-0.2,0.1-0.3,0.3-0.5,0.4c-0.3,0.4-0.5-0.8-0.6-0.3c-0.1,0.3,0.2,3,0.2,3.5
				c0.1,0.6,0.7,1.5,2.4,1.4c0.8,0,1.3-0.4,1.4-1.2c0.1-1,0.5-2.4,0.1-3.2c-0.3-0.4-0.8-0.7-1.2-0.8c-0.4-0.1-0.9-0.1-1.3,0
				C22,73.2,22,73.2,22,73.2z"/>
			<path class="st3" d="M23.9,53.8c-0.2,0-0.4,0.1-0.6,0.2c-0.3,0.1-0.6,0.3-0.8,0.6c-0.5,0.5-0.9-0.6-1.2,0.1
				c-0.2,0.5-0.2,4.1-0.2,4.8c0,1,0.3,1.3,0.8,2c0.6,0.9,1.6,1.4,2.5,1.3c0.2,0,0.4,0,0.5-0.1c1.1-0.3,1.6-0.6,1.9-1.7
				c0.4-1.6,1.3-3.8,0.8-5.2c-0.3-0.8-1-1.3-1.7-1.6c-0.6-0.3-1.3-0.4-2-0.3C24.1,53.7,24,53.8,23.9,53.8z"/>
			<path class="st3" d="M28.8,45.4c0,0.6-0.1,1.2-0.2,1.8c-0.2,2-0.4,4.1-0.7,6.2c-0.2,1.2-0.3,3.1-1.1,4c-0.8,0.9-1.9,1.3-3,1.1
				c-0.3-0.1-0.7-0.2-0.9-0.5c-0.6-0.6-1.1-0.5-1.1-1.4c-0.2-8.2,0-7,0.4-10.1c0.1-0.7-0.6-2.2-0.4-3.3c0.2-1.3,0.5-2.6,0.9-3.2
				C24.8,37.4,28.7,41.4,28.8,45.4z"/>
			
				<linearGradient id="SVGID_00000071536630544761676520000012983040332002837662_" gradientUnits="userSpaceOnUse" x1="22.8272" y1="32.8003" x2="26.0991" y2="59.8042">
				<stop  offset="0" style="stop-color:#E8E9FC"/>
				<stop  offset="1" style="stop-color:#D3D4EC"/>
			</linearGradient>
			<path style="fill:url(#SVGID_00000071536630544761676520000012983040332002837662_);" d="M21.4,43.6c-0.2,2.8-0.9,5.8-0.8,8.5
				c0.1,1.8,0.4,5,0.4,5c0,0.8,0.6,1.8,1.1,2.3c0.7,0.8,2.2,1.3,3.3,1.2c2.3-0.2,2.5-2.8,2.9-4.8c1.7-9.2,1.3-7.9,0.3-9.2
				c-0.5-0.6-0.7-1.4-1.1-2.1C26.5,43,21.7,39.3,21.4,43.6z"/>
			
				<linearGradient id="SVGID_00000150817511923632607110000015432068355339907744_" gradientUnits="userSpaceOnUse" x1="22.5751" y1="61.689" x2="25.2932" y2="76.4297">
				<stop  offset="0" style="stop-color:#E8E9FC"/>
				<stop  offset="1" style="stop-color:#D3D4EC"/>
			</linearGradient>
			<path style="fill:url(#SVGID_00000150817511923632607110000015432068355339907744_);" d="M24.8,75.7c-0.3,2.5-2.8,2.2-3.8,0.8
				c-0.5-0.6-0.4-1.3-0.5-2c-0.2-1.4-0.7-3.8-1-7.5c-0.1-0.7-0.1-1.3,0-1.9c0.2-3.1,1.5-4.9,1.7-5.2c0,0,0-0.1,0-0.1
				c0,0,0,0.1,0,0.1c0.1,0.3,0.4,1.1,0.9,1.4c0,0,0.1,0.1,0.1,0.1c1.4,0.8,3.8,1,4.7-0.6C27.3,63.4,25.6,69.2,24.8,75.7z"/>
		</g>
		<polygon class="st3" points="33.3,23.1 31.8,26.8 34.7,25.1 		"/>
		<polygon class="st7" points="34.5,27.6 32.3,28.8 30.7,30.3 30.7,31.2 32.3,30.9 34.5,29.6 36,28.1 36,27.3 		"/>
		<polygon class="st7" points="34.9,30.1 33.1,31.1 31.9,32.3 31.9,33 33.1,32.7 34.9,31.7 36.1,30.5 36.1,29.9 		"/>
		<polygon class="st7" points="34.9,32.6 33.4,33.4 32.5,34.3 32.5,34.9 33.4,34.7 34.9,33.9 35.9,32.9 35.9,32.4 		"/>
		<path class="st3" d="M22.3,61v2.4L20.6,65h-1.2c0.2-3.1,1.5-5,1.8-5.3L22.3,61z"/>
		<path class="st2" d="M31.7,56.9v2l-1.2,1.2c0.3-2.3,1.1-3.5,1.1-3.6C31.6,56.6,31.6,56.7,31.7,56.9z"/>
		<g>
			<g>
				<g>
					<defs>
						<path id="SVGID_00000145760905700442287150000004331229585461226152_" d="M20.3,58.1l0.4-0.2c0.3-0.1,0.6-0.1,1,0.1l-0.4,0.2
							C21,58,20.6,58,20.3,58.1z"/>
					</defs>
					<use xlink:href="#SVGID_00000145760905700442287150000004331229585461226152_"  style="overflow:visible;fill:#7350BA;"/>
					<clipPath id="SVGID_00000035512506285761985750000014496083001593613964_">
						<use xlink:href="#SVGID_00000145760905700442287150000004331229585461226152_"  style="overflow:visible;"/>
					</clipPath>
					<g style="clip-path:url(#SVGID_00000035512506285761985750000014496083001593613964_);enable-background:new    ;">
						<path class="st5" d="M20.3,58.1l0.4-0.2c0.1-0.1,0.3-0.1,0.4-0.1l-0.4,0.2C20.6,58.1,20.5,58.1,20.3,58.1L20.3,58.1z"/>
						<path class="st5" d="M20.8,58.1l0.4-0.2c0.1,0,0.2,0,0.3,0.1l-0.4,0.2C21,58.1,20.9,58.1,20.8,58.1L20.8,58.1z"/>
						<path class="st5" d="M21.1,58.1l0.4-0.2c0.1,0,0.2,0.1,0.3,0.1l-0.4,0.2C21.3,58.2,21.2,58.2,21.1,58.1L21.1,58.1z"/>
					</g>
				</g>
				<g>
					<defs>
						<path id="SVGID_00000094594934709364243940000006093702724128660615_" d="M22.6,61.5l-0.4,0.2c0.3-0.1,0.4-0.5,0.5-0.9
							c0-0.9-0.6-2-1.3-2.5l0.4-0.2c0.8,0.5,1.4,1.6,1.3,2.5C23,61.1,22.9,61.4,22.6,61.5z"/>
					</defs>
					<use xlink:href="#SVGID_00000094594934709364243940000006093702724128660615_"  style="overflow:visible;fill:#7350BA;"/>
					<clipPath id="SVGID_00000157989271124329128480000017037536868280582058_">
						<use xlink:href="#SVGID_00000094594934709364243940000006093702724128660615_"  style="overflow:visible;"/>
					</clipPath>
					<g style="clip-path:url(#SVGID_00000157989271124329128480000017037536868280582058_);enable-background:new    ;">
						<path class="st5" d="M21.4,58.3l0.4-0.2c0,0,0,0,0,0L21.4,58.3C21.4,58.3,21.4,58.3,21.4,58.3L21.4,58.3z"/>
						<path class="st5" d="M21.4,58.3l0.4-0.2c0.1,0.1,0.2,0.1,0.3,0.2l-0.4,0.2C21.6,58.4,21.5,58.4,21.4,58.3L21.4,58.3z"/>
						<path class="st5" d="M21.7,58.5l0.4-0.2c0.1,0.1,0.2,0.2,0.3,0.3L22,58.8C21.9,58.7,21.8,58.6,21.7,58.5L21.7,58.5z"/>
						<path class="st5" d="M22,58.8l0.4-0.2c0.2,0.3,0.4,0.6,0.5,0.9l-0.4,0.2C22.4,59.4,22.2,59.1,22,58.8L22,58.8z"/>
						<path class="st5" d="M22.5,59.7l0.4-0.2c0,0.1,0.1,0.2,0.1,0.4l-0.4,0.2C22.6,60,22.5,59.9,22.5,59.7L22.5,59.7z"/>
						<path class="st5" d="M22.6,60.1l0.4-0.2c0,0.1,0.1,0.3,0.1,0.4l-0.4,0.2C22.7,60.4,22.6,60.2,22.6,60.1L22.6,60.1z"/>
						<path class="st5" d="M22.7,60.5l0.4-0.2c0,0.1,0,0.2,0,0.3c0,0,0,0,0,0l-0.4,0.2c0,0,0,0,0,0C22.7,60.7,22.7,60.6,22.7,60.5
							L22.7,60.5z"/>
						<path class="st5" d="M22.7,60.8l0.4-0.2c0,0.1,0,0.2-0.1,0.3l-0.4,0.2C22.7,61.1,22.7,61,22.7,60.8L22.7,60.8z"/>
						<path class="st5" d="M23,60.2l0.4-0.2c-0.1,0.3-0.2,0.4-0.4,0.5l-0.4,0.2C22.7,60.7,22.9,60.5,23,60.2L23,60.2z"/>
					</g>
				</g>
				<g>
					<path class="st7" d="M21.4,58.3c0.8,0.5,1.4,1.6,1.3,2.5c0,0.9-0.7,1.3-1.5,0.8c-0.8-0.5-1.4-1.6-1.3-2.5
						C19.9,58.1,20.6,57.8,21.4,58.3z"/>
				</g>
			</g>
			<g>
				<path class="st5" d="M21.3,58.7c0.6,0.4,1,1.2,1,1.9c0,0.7-0.5,0.9-1.1,0.6c-0.6-0.4-1-1.2-1-1.9C20.2,58.6,20.7,58.3,21.3,58.7
					z"/>
			</g>
			<g>
				<g>
					<path class="st7" d="M21.3,59.2c0.3,0.2,0.6,0.7,0.6,1.1c0,0.4-0.3,0.5-0.6,0.3c-0.3-0.2-0.6-0.7-0.6-1.1
						C20.6,59.2,20.9,59,21.3,59.2z"/>
				</g>
			</g>
		</g>
		<g>
			<g>
				<g>
					<defs>
						<path id="SVGID_00000072248266851027260170000014696048765658121636_" d="M30.5,54.9l0.4-0.2c0.3-0.1,0.6-0.1,1,0.1L31.6,55
							C31.2,54.8,30.8,54.7,30.5,54.9z"/>
					</defs>
					<use xlink:href="#SVGID_00000072248266851027260170000014696048765658121636_"  style="overflow:visible;fill:#7350BA;"/>
					<clipPath id="SVGID_00000111878264554231183920000006320217489930372271_">
						<use xlink:href="#SVGID_00000072248266851027260170000014696048765658121636_"  style="overflow:visible;"/>
					</clipPath>
					<g style="clip-path:url(#SVGID_00000111878264554231183920000006320217489930372271_);enable-background:new    ;">
						<path class="st5" d="M30.5,54.9l0.4-0.2c0.1-0.1,0.3-0.1,0.4-0.1L31,54.8C30.8,54.8,30.7,54.8,30.5,54.9L30.5,54.9z"/>
						<path class="st5" d="M31,54.8l0.4-0.2c0.1,0,0.2,0,0.3,0.1l-0.4,0.2C31.2,54.8,31.1,54.8,31,54.8L31,54.8z"/>
						<path class="st5" d="M31.3,54.9l0.4-0.2c0.1,0,0.2,0.1,0.3,0.1L31.6,55C31.5,55,31.4,54.9,31.3,54.9L31.3,54.9z"/>
					</g>
				</g>
				<g>
					<defs>
						<path id="SVGID_00000125588523631050967130000015089599979026821002_" d="M32.8,58.3l-0.4,0.2c0.3-0.1,0.4-0.5,0.5-0.9
							c0-0.9-0.6-2-1.3-2.5l0.4-0.2c0.8,0.5,1.4,1.6,1.3,2.5C33.2,57.8,33.1,58.1,32.8,58.3z"/>
					</defs>
					<use xlink:href="#SVGID_00000125588523631050967130000015089599979026821002_"  style="overflow:visible;fill:#7350BA;"/>
					<clipPath id="SVGID_00000103958241067550793190000011638637396876258727_">
						<use xlink:href="#SVGID_00000125588523631050967130000015089599979026821002_"  style="overflow:visible;"/>
					</clipPath>
					<g style="clip-path:url(#SVGID_00000103958241067550793190000011638637396876258727_);enable-background:new    ;">
						<path class="st5" d="M31.6,55l0.4-0.2c0,0,0,0,0,0L31.6,55C31.6,55,31.6,55,31.6,55L31.6,55z"/>
						<path class="st5" d="M31.6,55l0.4-0.2c0.1,0.1,0.2,0.1,0.3,0.2l-0.4,0.2C31.8,55.2,31.7,55.1,31.6,55L31.6,55z"/>
						<path class="st5" d="M31.9,55.3l0.4-0.2c0.1,0.1,0.2,0.2,0.3,0.3l-0.4,0.2C32.1,55.5,32,55.4,31.9,55.3L31.9,55.3z"/>
						<path class="st5" d="M32.2,55.6l0.4-0.2c0.2,0.3,0.4,0.6,0.5,0.9l-0.4,0.2C32.6,56.2,32.4,55.8,32.2,55.6L32.2,55.6z"/>
						<path class="st5" d="M32.7,56.5l0.4-0.2c0,0.1,0.1,0.2,0.1,0.4l-0.4,0.2C32.8,56.7,32.7,56.6,32.7,56.5L32.7,56.5z"/>
						<path class="st5" d="M32.8,56.8l0.4-0.2c0,0.1,0.1,0.3,0.1,0.4l-0.4,0.2C32.9,57.1,32.8,57,32.8,56.8L32.8,56.8z"/>
						<path class="st5" d="M32.9,57.2l0.4-0.2c0,0.1,0,0.2,0,0.3c0,0,0,0,0,0l-0.4,0.2c0,0,0,0,0,0C32.9,57.5,32.9,57.3,32.9,57.2
							L32.9,57.2z"/>
						<path class="st5" d="M32.9,57.6l0.4-0.2c0,0.1,0,0.2-0.1,0.3l-0.4,0.2C32.9,57.8,32.9,57.7,32.9,57.6L32.9,57.6z"/>
						<path class="st5" d="M33.2,57l0.4-0.2c-0.1,0.3-0.2,0.4-0.4,0.5l-0.4,0.2C32.9,57.4,33.1,57.2,33.2,57L33.2,57z"/>
					</g>
				</g>
				<g>
					<path class="st7" d="M31.6,55c0.8,0.5,1.4,1.6,1.3,2.5c0,0.9-0.7,1.3-1.5,0.8c-0.8-0.5-1.4-1.6-1.3-2.5
						C30.1,54.9,30.8,54.5,31.6,55z"/>
				</g>
			</g>
			<g>
				<path class="st5" d="M31.5,55.4c0.6,0.4,1,1.2,1,1.9c0,0.7-0.5,0.9-1.1,0.6c-0.6-0.4-1-1.2-1-1.9C30.4,55.3,30.9,55.1,31.5,55.4
					z"/>
			</g>
			<g>
				<g>
					<path class="st7" d="M31.5,56c0.3,0.2,0.6,0.7,0.6,1.1c0,0.4-0.3,0.5-0.6,0.3c-0.3-0.2-0.6-0.7-0.6-1.1
						C30.8,55.9,31.1,55.8,31.5,56z"/>
				</g>
			</g>
		</g>
		<path class="st3" d="M26.8,61.1v-5.2c0-0.5-0.4-1-1-1c-0.5,0-1,0.4-1,1v5.2H26.8z"/>
		<path class="st2" d="M36,58.3v-5.1c0-0.5,0.3-1,0.7-1.3c0.4-0.2,0.7,0,0.7,0.4l0,4.4L37,57.5L36,58.3z"/>
		<path class="st3" d="M23.6,44c0,0.4-0.3,0.6-0.7,0.4c-0.4-0.2-0.7-0.8-0.7-1.2c0-0.4,0.3-0.6,0.7-0.4C23.3,43.1,23.6,43.6,23.6,44
			z"/>
		<path class="st3" d="M23.6,46.4c0,0.4-0.3,0.6-0.7,0.4c-0.4-0.2-0.7-0.8-0.7-1.2c0-0.4,0.3-0.6,0.7-0.4
			C23.3,45.4,23.6,45.9,23.6,46.4z"/>
		<path class="st3" d="M23.2,75.2c0,0.4,0.3,0.6,0.7,0.4c0.4-0.2,0.7-0.8,0.7-1.2c0-0.4-0.3-0.6-0.7-0.4S23.2,74.8,23.2,75.2z"/>
		<path class="st2" d="M34.6,71c0,0.4,0.3,0.6,0.7,0.4c0.4-0.2,0.7-0.8,0.7-1.2c0-0.4-0.3-0.6-0.7-0.4C34.9,70.1,34.6,70.6,34.6,71z
			"/>
	</g>
	<g>
		<path class="st23" d="M44.9,110.3L16.6,94l40.2-23.2l28.3,16.3L44.9,110.3z M17.8,94l27.1,15.7l39-22.5L56.7,71.5L17.8,94z"/>
	</g>
	<g class="st24">
		<g>
			<g class="st10">
				<g>
					<polygon class="st1" points="67.5,70.3 67.5,83.3 55.1,90.5 55.2,77.5 					"/>
				</g>
				<g>
					<polygon class="st25" points="55.2,77.5 55.1,90.5 42.7,83.3 42.7,70.3 					"/>
				</g>
				<g>
					<polygon class="st26" points="67.5,70.3 55.2,77.5 42.7,70.3 55.1,63.1 					"/>
				</g>
			</g>
		</g>
	</g>
	<g class="st24">
		<g>
			<g class="st10">
				<g>
					<polygon class="st1" points="63.2,40.8 63.2,50.3 54.1,55.6 54.1,46.1 					"/>
				</g>
				<g>
					<polygon class="st25" points="54.1,46.1 54.1,55.6 44.9,50.3 44.9,40.8 					"/>
				</g>
				<g>
					<polygon class="st26" points="63.2,40.8 54.1,46.1 44.9,40.8 54,35.4 					"/>
				</g>
			</g>
		</g>
	</g>
	<g class="st24">
		<g>
			<g class="st10">
				<g>
					<polygon class="st1" points="82.5,56.9 82.4,67.7 72.2,73.7 72.2,62.9 					"/>
				</g>
				<g>
					<polygon class="st25" points="72.2,62.9 72.2,73.7 61.8,67.7 61.9,56.9 					"/>
				</g>
				<g>
					<polygon class="st26" points="82.5,56.9 72.2,62.9 61.9,56.9 72.1,50.9 					"/>
				</g>
			</g>
		</g>
	</g>
	<g class="st24">
		<g>
			<g class="st10">
				<g>
					<polygon class="st1" points="20.6,39.7 20.6,50.4 10.3,56.4 10.4,45.7 					"/>
				</g>
				<g>
					<polygon class="st25" points="10.4,45.7 10.3,56.4 0,50.4 0,39.7 					"/>
				</g>
				<g>
					<polygon class="st26" points="20.6,39.7 10.4,45.7 0,39.7 10.3,33.7 					"/>
				</g>
			</g>
		</g>
	</g>
	<g>
		<g>
			<g class="st10">
				<g>
					<polygon class="st1" points="88.1,30.3 88.1,41.8 77.1,48.2 77.1,36.7 					"/>
				</g>
				<g>
					<polygon class="st25" points="77.1,36.7 77.1,48.2 66.1,41.8 66.1,30.3 					"/>
				</g>
				<g>
					<polygon class="st26" points="88.1,30.3 77.1,36.7 66.1,30.3 77.1,23.9 					"/>
				</g>
			</g>
		</g>
	</g>
	<g class="st24">
		<g>
			<g class="st10">
				<g>
					<polygon class="st3" points="51.5,52.7 51.5,63.5 41.2,69.4 41.3,58.7 					"/>
				</g>
				<g>
					<polygon class="st2" points="41.3,58.7 41.2,69.4 30.9,63.5 30.9,52.7 					"/>
				</g>
				<g>
					<polygon class="st5" points="51.5,52.7 41.3,58.7 30.9,52.7 41.2,46.7 					"/>
				</g>
			</g>
		</g>
	</g>
	<g class="st24">
		<g>
			<g class="st10">
				<g>
					<polygon class="st3" points="65,23.1 65,30.3 58.1,34.3 58.1,27.1 					"/>
				</g>
				<g>
					<polygon class="st2" points="58.1,27.1 58.1,34.3 51.2,30.3 51.2,23.1 					"/>
				</g>
				<g>
					<polygon class="st5" points="65,23.1 58.1,27.1 51.2,23.1 58.1,19 					"/>
				</g>
			</g>
		</g>
	</g>
	<g class="st24">
		<g>
			<g class="st10">
				<g>
					<polygon class="st3" points="77.1,44.5 77.1,51.7 70.2,55.7 70.2,48.5 					"/>
				</g>
				<g>
					<polygon class="st2" points="70.2,48.5 70.2,55.7 63.3,51.7 63.3,44.5 					"/>
				</g>
				<g>
					<polygon class="st5" points="77.1,44.5 70.2,48.5 63.3,44.5 70.2,40.4 					"/>
				</g>
			</g>
		</g>
	</g>
	<g>
		<g>
			<g class="st10">
				<g>
					<polygon class="st1" points="44.8,84.9 44.8,95.6 34.5,101.6 34.5,90.9 					"/>
				</g>
				<g>
					<polygon class="st25" points="34.5,90.9 34.5,101.6 24.2,95.6 24.2,84.9 					"/>
				</g>
				<g>
					<polygon class="st26" points="44.8,84.9 34.5,90.9 24.2,84.9 34.5,78.9 					"/>
				</g>
			</g>
		</g>
	</g>
	<g class="st24">
		<g>
			<g class="st10">
				<g>
					<polygon class="st3" points="71.9,85.4 71.9,92.6 65,96.6 65,89.4 					"/>
				</g>
				<g>
					<polygon class="st2" points="65,89.4 65,96.6 58.1,92.6 58.1,85.4 					"/>
				</g>
				<g>
					<polygon class="st5" points="71.9,85.4 65,89.4 58.1,85.4 65,81.4 					"/>
				</g>
			</g>
		</g>
	</g>
	<g>
		<g>
			<path class="st5" d="M18.8,32.4c0.7-0.6,2.8-7.6,2.9-8c0-0.1,0.5-1.5,0.4-1.6c0,0-3.9-1.5-3.9-1.5c-0.2,0.6-0.4,1.3-0.6,1.8
				c-0.3,0.9-2.9,8.7-2.4,9.5C15.9,33.9,17.7,33.3,18.8,32.4z"/>
			<path class="st13" d="M22.4,17c1.8,0.5,1.7,2.4,1.5,3.7c-0.2,1.8-0.8,3.5-1.7,5.1c-0.2,0.4-0.5,0.8-0.8,1.1
				c-0.3,0.2-0.6,0.4-1,0.5c-0.8,0.3-1.8,0.5-2.6,0.1c-0.2-0.1-0.5-0.3-0.7-0.5c-0.3-0.3-0.5-0.5-0.7-0.9c-0.2-0.6,0-1.3,0.1-1.9
				c0.5-1.5,1-3,1.8-4.5C19.2,18.3,20.2,16.5,22.4,17z"/>
			<g>
				<path class="st13" d="M26.8,39.2c1.8,0.7,3.3-1.5,1.3-3.1c-2.2-1.7-5.2-3.6-7-5.1c-0.4-0.3-1.2-1.1-1.8-1.1
					c-0.6,0-0.5,1-1.1,1.2c-0.3,0.1-1.1,0.1-1.4,0.1c-0.8,0-1.9,0.9-1.6,1.6C15.7,34,24,38,26.8,39.2z"/>
				<path class="st3" d="M25.7,38.7c0.4,0.2,0.7,0.3,1,0.4c1.8,0.7,3.3-1.5,1.3-3.1c-0.2-0.2-0.5-0.4-0.7-0.6
					C27.6,36.6,26.7,37.9,25.7,38.7z"/>
				<g>
					<path class="st26" d="M27.8,37c-0.4,0.5-0.4,1.3-0.9,1.7c-0.1,0.1-0.2,0.1-0.3,0.2c-0.2,0.3,0.2,0.5,0.4,0.7
						c0.3,0.3,0.6,0.5,0.9,0.8c0.7,0.5,1.5,0.9,2.3,1.1c0.2,0.1,0.4,0.1,0.6-0.1c0.1-0.1,0-0.3,0.1-0.4c0.2-0.2,0.5,0,0.7,0
						c0.4,0,0.7-0.5,0.4-0.8c0.3,0.1,0.7,0.1,1-0.1c0.3-0.2,0.4-0.6,0.1-0.8c0.3,0.2,0.8,0,0.9-0.3s0-0.8-0.3-0.9
						c-0.2-0.1-0.5-0.1-0.8-0.1c-1-0.1-1.6-1.3-2.6-1.7c-0.4-0.2-0.9-0.3-1.3-0.2C28.6,36.3,28.1,36.6,27.8,37
						C27.8,36.9,27.8,36.9,27.8,37z"/>
					<path class="st26" d="M28.9,36.3c1-0.3,2.7-0.3,3.6,0.2c0.1,0.1,0.3,0.2,0.4,0.3c0.1,0.1,0.1,0.3,0,0.5
						c-0.1,0.1-0.3,0.2-0.4,0.2c-0.2,0-0.3-0.1-0.5-0.2c0,0-0.1-0.1-0.1-0.1c-0.7,0.1-1.3,0.3-2,0.4L28.9,36.3z"/>
				</g>
			</g>
		</g>
		<g>
			<g>
				<g>
					<defs>
						<path id="SVGID_00000113323648158495308510000004739668210600687293_" d="M14.8,31.1l0.3-0.2c0.2-0.1,0.5-0.1,0.9,0.1
							l-0.3,0.2C15.3,31,15,30.9,14.8,31.1z"/>
					</defs>
					<use xlink:href="#SVGID_00000113323648158495308510000004739668210600687293_"  style="overflow:visible;fill:#7350BA;"/>
					<clipPath id="SVGID_00000102508584321385952100000007585771427414674311_">
						<use xlink:href="#SVGID_00000113323648158495308510000004739668210600687293_"  style="overflow:visible;"/>
					</clipPath>
					<g style="clip-path:url(#SVGID_00000102508584321385952100000007585771427414674311_);enable-background:new    ;">
						<path class="st5" d="M14.8,31.1l0.3-0.2c0.1-0.1,0.2-0.1,0.4-0.1L15.2,31C15,31,14.9,31,14.8,31.1L14.8,31.1z"/>
						<path class="st5" d="M15.2,31l0.3-0.2c0.1,0,0.2,0,0.3,0.1L15.4,31C15.3,31,15.2,31,15.2,31L15.2,31z"/>
						<path class="st5" d="M15.4,31l0.3-0.2c0.1,0,0.2,0.1,0.2,0.1l-0.3,0.2C15.6,31.1,15.5,31.1,15.4,31L15.4,31z"/>
					</g>
				</g>
				<g>
					<defs>
						<path id="SVGID_00000011011502520557134060000009487784880448710818_" d="M16.8,33.9l-0.3,0.2c0.2-0.1,0.4-0.4,0.4-0.8
							c0-0.8-0.5-1.7-1.2-2.1L16,31c0.7,0.4,1.2,1.4,1.2,2.1C17.1,33.5,17,33.8,16.8,33.9z"/>
					</defs>
					<use xlink:href="#SVGID_00000011011502520557134060000009487784880448710818_"  style="overflow:visible;fill:#7350BA;"/>
					<clipPath id="SVGID_00000005946900811602846770000011220275326398912671_">
						<use xlink:href="#SVGID_00000011011502520557134060000009487784880448710818_"  style="overflow:visible;"/>
					</clipPath>
					<g style="clip-path:url(#SVGID_00000005946900811602846770000011220275326398912671_);enable-background:new    ;">
						<path class="st5" d="M15.7,31.2L16,31c0,0,0,0,0,0L15.7,31.2C15.7,31.2,15.7,31.2,15.7,31.2L15.7,31.2z"/>
						<path class="st5" d="M15.7,31.2L16,31c0.1,0.1,0.2,0.1,0.3,0.2l-0.3,0.2C15.8,31.3,15.8,31.2,15.7,31.2L15.7,31.2z"/>
						<path class="st5" d="M15.9,31.4l0.3-0.2c0.1,0.1,0.2,0.2,0.3,0.3l-0.3,0.2C16.1,31.5,16,31.4,15.9,31.4L15.9,31.4z"/>
						<path class="st5" d="M16.2,31.6l0.3-0.2c0.2,0.2,0.3,0.5,0.5,0.8l-0.3,0.2C16.5,32.1,16.4,31.8,16.2,31.6L16.2,31.6z"/>
						<path class="st5" d="M16.6,32.4l0.3-0.2c0,0.1,0.1,0.2,0.1,0.3l-0.3,0.2C16.7,32.6,16.7,32.5,16.6,32.4L16.6,32.4z"/>
						<path class="st5" d="M16.7,32.7l0.3-0.2c0,0.1,0.1,0.2,0.1,0.3L16.8,33C16.8,32.9,16.8,32.8,16.7,32.7L16.7,32.7z"/>
						<path class="st5" d="M16.8,33l0.3-0.2c0,0.1,0,0.2,0,0.3c0,0,0,0,0,0l-0.3,0.2c0,0,0,0,0,0C16.8,33.2,16.8,33.1,16.8,33
							L16.8,33z"/>
						<path class="st5" d="M16.8,33.3l0.3-0.2c0,0.1,0,0.2,0,0.3l-0.3,0.2C16.8,33.5,16.8,33.4,16.8,33.3L16.8,33.3z"/>
						<path class="st5" d="M17,32.8l0.3-0.2c-0.1,0.2-0.2,0.4-0.4,0.5l-0.3,0.2C16.9,33.2,17,33,17,32.8L17,32.8z"/>
					</g>
				</g>
				<g>
					<path class="st7" d="M15.7,31.2c0.7,0.4,1.2,1.4,1.2,2.1c0,0.8-0.6,1.1-1.2,0.7c-0.7-0.4-1.2-1.4-1.2-2.1
						C14.4,31.1,15,30.8,15.7,31.2z"/>
				</g>
			</g>
			<g>
				<path class="st5" d="M15.6,31.5c0.5,0.3,0.9,1,0.9,1.6c0,0.6-0.4,0.8-0.9,0.5c-0.5-0.3-0.9-1-0.9-1.6
					C14.7,31.4,15.1,31.2,15.6,31.5z"/>
			</g>
			<g>
				<g>
					<path class="st7" d="M15.6,32c0.3,0.2,0.5,0.6,0.5,0.9c0,0.3-0.2,0.5-0.5,0.3c-0.3-0.2-0.5-0.6-0.5-0.9
						C15.1,31.9,15.3,31.8,15.6,32z"/>
				</g>
			</g>
		</g>
		<polygon class="st3" points="18.8,23 19.5,26.4 17.2,24.6 		"/>
	</g>
</g>
</svg>
