<?xml version="1.0" encoding="utf-8"?>
<!-- Generator: Adobe Illustrator 25.4.1, SVG Export Plug-In . SVG Version: 6.00 Build 0)  -->
<svg version="1.1" id="Layer_1" xmlns="http://www.w3.org/2000/svg" xmlns:xlink="http://www.w3.org/1999/xlink" x="0px" y="0px"
	 viewBox="0 0 80.2 112.1" style="enable-background:new 0 0 80.2 112.1;" xml:space="preserve">
<style type="text/css">
	.st0{opacity:0.3;fill:#D9CDC1;}
	.st1{fill:#1F0159;}
	.st2{fill:#E8E9FC;}
	.st3{fill:#C9C9EC;}
	.st4{fill:#4C1F8C;}
	.st5{clip-path:url(#SVGID_00000041982513688821420620000015755306166161927850_);enable-background:new    ;}
	.st6{fill:#7350BA;}
	.st7{clip-path:url(#SVGID_00000083807264610440091700000011846406278762993282_);enable-background:new    ;}
	.st8{fill:#DDDEFA;}
	.st9{clip-path:url(#SVGID_00000002381556706844903740000009859036439284257707_);enable-background:new    ;}
	.st10{clip-path:url(#SVGID_00000163775037711190827740000006327318490559746188_);enable-background:new    ;}
	.st11{enable-background:new    ;}
	.st12{fill:url(#SVGID_00000032628735359122008410000004580971474822503318_);}
	.st13{clip-path:url(#SVGID_00000101085253916157952590000002365990353292851595_);enable-background:new    ;}
	.st14{clip-path:url(#SVGID_00000078004311581540858970000012202844145509326475_);enable-background:new    ;}
	.st15{fill:url(#SVGID_00000107583434687778677830000000053551296890826381_);}
	.st16{fill:url(#SVGID_00000000938269137427595520000017413871089719369377_);}
	.st17{fill:#F1F1F9;}
	.st18{clip-path:url(#SVGID_00000011015592128415489170000008906210725710009513_);enable-background:new    ;}
	.st19{clip-path:url(#SVGID_00000172430801886473296630000017233807085782638244_);enable-background:new    ;}
	.st20{clip-path:url(#SVGID_00000159431709918116008050000018024552295901216654_);enable-background:new    ;}
	.st21{clip-path:url(#SVGID_00000045585365263105562190000001792445027475860099_);enable-background:new    ;}
	.st22{clip-path:url(#SVGID_00000019665361339954913590000016022419365175245238_);enable-background:new    ;}
	.st23{clip-path:url(#SVGID_00000100380988079065869920000017226873421042032289_);enable-background:new    ;}
	.st24{fill:#817AC4;}
	.st25{fill:#F8F9FC;}
	.st26{fill:#ADB2CC;}
	.st27{fill:#411778;}
	.st28{fill:#FFC400;}
	.st29{fill:#FFB700;}
	.st30{fill:#FFDE38;}
	.st31{opacity:0.8;}
	.st32{opacity:0.4;fill:#7D53C1;}
	.st33{opacity:0.7;fill:#4C1F8C;}
	.st34{fill:#FFFFFF;}
</style>
<g>
	<path class="st0" d="M30.1,80.8l-9.8,5.7c-4.6,2.7-12.2,2.7-16.8,0l0,0c-4.6-2.7-4.6-7,0-9.7l9.8-5.7c4.6-2.7,12.2-2.7,16.8,0v0
		C34.7,73.8,34.7,78.2,30.1,80.8z"/>
	<polygon class="st0" points="49.6,101.6 55.9,101.6 80.2,87.6 27.3,57 43.6,83.4 	"/>
	<polygon class="st0" points="60.1,112.1 64.1,112.1 79.3,103.3 46.1,84.1 56.4,100.6 	"/>
	<polygon class="st0" points="31.5,110.2 35.6,110.2 51.2,101.2 17.3,81.5 27.7,98.5 	"/>
	<g>
		<g>
			<path class="st1" d="M24,30.9c0.5-0.8,0.4-9,0.4-9.5c0-0.1,0-1.8-0.1-1.8l-4.8-0.5c-0.1,0.7,0,1.5,0,2.1c0,1.1,0.1,9.7,0.5,10.8
				C21,34.4,23.1,32.2,24,30.9z"/>
			<path class="st2" d="M21.4,12c1.8-0.3,2.5,1.6,2.8,2.8c0.5,1.7,0.6,3.6,0.4,5.4c0,0.4-0.1,0.9-0.3,1.3c-0.2,0.3-0.4,0.6-0.7,0.9
				c-0.6,0.6-1.4,1.2-2.3,1.1c-0.3,0-0.5-0.1-0.8-0.2c-0.4-0.1-0.7-0.3-1-0.6c-0.5-0.5-0.5-1.1-0.6-1.8c-0.1-1.6-0.2-3.2-0.1-4.8
				C18.9,14.5,19.1,12.4,21.4,12z"/>
			<path class="st3" d="M22,41.5c0.6,1.8,3.3,1.5,3.2-1.1c-0.1-2.8-0.6-6.2-0.7-8.6c0-0.5,0-1.6-0.3-2.1c-0.4-0.5-1.1,0.2-1.6,0
				c-0.3-0.1-0.7-0.8-0.9-1c-0.5-0.6-1.9-0.9-2.2-0.2C18.9,29.7,21.1,38.6,22,41.5z"/>
			<path class="st4" d="M21.7,40.4c0.1,0.4,0.2,0.8,0.3,1.1c0.6,1.8,3.3,1.5,3.2-1.1c0-0.3,0-0.6,0-0.9
				C24.5,40.4,22.9,40.6,21.7,40.4z"/>
			<g>
				<path class="st3" d="M24.4,40.8c-0.7,0.1-1.3,0.5-1.9,0.4c-0.1,0-0.2-0.1-0.3-0.1c-0.3,0-0.3,0.5-0.3,0.7
					c-0.1,0.4-0.1,0.8,0,1.2c0.1,0.9,0.3,1.7,0.7,2.5c0.1,0.2,0.2,0.4,0.4,0.4c0.1,0,0.2-0.1,0.4-0.1c0.3,0,0.3,0.4,0.4,0.6
					c0.2,0.3,0.9,0.2,0.9-0.2c0.2,0.3,0.4,0.6,0.7,0.7c0.3,0.1,0.7-0.1,0.7-0.4c0.1,0.4,0.5,0.6,0.8,0.5c0.4-0.1,0.6-0.5,0.5-0.8
					c-0.1-0.3-0.3-0.5-0.4-0.7c-0.6-0.9-0.1-2.1-0.4-3.1c-0.1-0.4-0.3-0.8-0.7-1.1C25.5,41,24.9,40.8,24.4,40.8
					C24.4,40.8,24.4,40.8,24.4,40.8z"/>
				<path class="st3" d="M25.7,41.3c0.9,0.6,1.9,1.9,2.2,2.9c0,0.2,0.1,0.3,0,0.5c0,0.2-0.2,0.3-0.3,0.3c-0.2,0-0.3-0.1-0.4-0.2
					c-0.1-0.1-0.1-0.3-0.2-0.5c0,0,0-0.1,0-0.1c-0.5-0.4-1.1-0.8-1.6-1.2L25.7,41.3z"/>
			</g>
		</g>
		<g>
			<g>
				<g>
					<defs>
						<path id="SVGID_1_" d="M22.3,53.8l0.4-0.2c0.3-0.1,0.6-0.1,1,0.1l-0.4,0.2C22.9,53.6,22.5,53.6,22.3,53.8z"/>
					</defs>
					<use xlink:href="#SVGID_1_"  style="overflow:visible;fill:#7350BA;"/>
					<clipPath id="SVGID_00000111897122245923465100000007997305127149953451_">
						<use xlink:href="#SVGID_1_"  style="overflow:visible;"/>
					</clipPath>
					<g style="clip-path:url(#SVGID_00000111897122245923465100000007997305127149953451_);enable-background:new    ;">
						<path class="st6" d="M22.3,53.8l0.4-0.2c0.1-0.1,0.3-0.1,0.4-0.1l-0.4,0.2C22.5,53.7,22.4,53.7,22.3,53.8L22.3,53.8z"/>
						<path class="st6" d="M22.7,53.7l0.4-0.2c0.1,0,0.2,0,0.3,0.1L23,53.8C22.9,53.7,22.8,53.7,22.7,53.7L22.7,53.7z"/>
						<path class="st6" d="M23,53.8l0.4-0.2c0.1,0,0.2,0.1,0.3,0.1l-0.4,0.2C23.2,53.8,23.1,53.8,23,53.8L23,53.8z"/>
					</g>
				</g>
				<g>
					<defs>
						<path id="SVGID_00000027581267960407747500000007061279953707473599_" d="M24.5,57.1l-0.4,0.2c0.3-0.1,0.4-0.5,0.5-0.9
							c0-0.9-0.6-2-1.3-2.5l0.4-0.2c0.8,0.5,1.4,1.6,1.3,2.5C25,56.7,24.8,57,24.5,57.1z"/>
					</defs>
					<use xlink:href="#SVGID_00000027581267960407747500000007061279953707473599_"  style="overflow:visible;fill:#7350BA;"/>
					<clipPath id="SVGID_00000126297020896429905830000007790127739144019358_">
						<use xlink:href="#SVGID_00000027581267960407747500000007061279953707473599_"  style="overflow:visible;"/>
					</clipPath>
					<g style="clip-path:url(#SVGID_00000126297020896429905830000007790127739144019358_);enable-background:new    ;">
						<path class="st6" d="M23.3,53.9l0.4-0.2c0,0,0,0,0,0L23.3,53.9C23.3,53.9,23.3,53.9,23.3,53.9L23.3,53.9z"/>
						<path class="st6" d="M23.3,53.9l0.4-0.2c0.1,0.1,0.2,0.1,0.3,0.2l-0.4,0.2C23.5,54,23.4,54,23.3,53.9L23.3,53.9z"/>
						<path class="st6" d="M23.6,54.1l0.4-0.2c0.1,0.1,0.2,0.2,0.3,0.3l-0.4,0.2C23.8,54.3,23.7,54.2,23.6,54.1L23.6,54.1z"/>
						<path class="st6" d="M23.9,54.4l0.4-0.2c0.2,0.3,0.4,0.6,0.5,0.9l-0.4,0.2C24.3,55,24.1,54.7,23.9,54.4L23.9,54.4z"/>
						<path class="st6" d="M24.4,55.3l0.4-0.2c0,0.1,0.1,0.2,0.1,0.4l-0.4,0.2C24.5,55.6,24.5,55.5,24.4,55.3L24.4,55.3z"/>
						<path class="st6" d="M24.5,55.7l0.4-0.2c0,0.1,0.1,0.3,0.1,0.4l-0.4,0.2C24.6,56,24.6,55.8,24.5,55.7L24.5,55.7z"/>
						<path class="st6" d="M24.6,56.1l0.4-0.2c0,0.1,0,0.2,0,0.3c0,0,0,0,0,0l-0.4,0.2c0,0,0,0,0,0C24.6,56.3,24.6,56.2,24.6,56.1
							L24.6,56.1z"/>
						<path class="st6" d="M24.6,56.4l0.4-0.2c0,0.1,0,0.2-0.1,0.3l-0.4,0.2C24.6,56.7,24.6,56.6,24.6,56.4L24.6,56.4z"/>
						<path class="st6" d="M24.9,55.8l0.4-0.2c-0.1,0.3-0.2,0.4-0.4,0.5l-0.4,0.2C24.7,56.3,24.8,56.1,24.9,55.8L24.9,55.8z"/>
					</g>
				</g>
				<g>
					<path class="st8" d="M23.3,53.9c0.8,0.5,1.4,1.6,1.3,2.5c0,0.9-0.7,1.3-1.5,0.8c-0.8-0.5-1.4-1.6-1.3-2.5
						C21.8,53.7,22.5,53.4,23.3,53.9z"/>
				</g>
			</g>
			<g>
				<path class="st6" d="M23.2,54.3c0.6,0.4,1,1.2,1,1.9c0,0.7-0.5,0.9-1.1,0.6c-0.6-0.4-1-1.2-1-1.9C22.1,54.2,22.6,53.9,23.2,54.3
					z"/>
			</g>
			<g>
				<g>
					<path class="st8" d="M23.2,54.8c0.3,0.2,0.6,0.7,0.6,1.1c0,0.4-0.3,0.5-0.6,0.3c-0.3-0.2-0.6-0.7-0.6-1.1
						C22.6,54.8,22.9,54.6,23.2,54.8z"/>
				</g>
			</g>
		</g>
		<g>
			<g>
				<g>
					<defs>
						<path id="SVGID_00000065053861480096711340000006499408425075984062_" d="M11.8,57.3l0.4-0.2c0.3-0.1,0.6-0.1,1,0.1l-0.4,0.2
							C12.5,57.2,12.1,57.1,11.8,57.3z"/>
					</defs>
					<use xlink:href="#SVGID_00000065053861480096711340000006499408425075984062_"  style="overflow:visible;fill:#7350BA;"/>
					<clipPath id="SVGID_00000147202431282148258970000000715198311465116313_">
						<use xlink:href="#SVGID_00000065053861480096711340000006499408425075984062_"  style="overflow:visible;"/>
					</clipPath>
					<g style="clip-path:url(#SVGID_00000147202431282148258970000000715198311465116313_);enable-background:new    ;">
						<path class="st6" d="M11.8,57.3l0.4-0.2c0.1-0.1,0.3-0.1,0.4-0.1l-0.4,0.2C12.1,57.2,12,57.2,11.8,57.3L11.8,57.3z"/>
						<path class="st6" d="M12.3,57.2l0.4-0.2c0.1,0,0.2,0,0.3,0.1l-0.4,0.2C12.5,57.2,12.4,57.2,12.3,57.2L12.3,57.2z"/>
						<path class="st6" d="M12.6,57.3l0.4-0.2c0.1,0,0.2,0.1,0.3,0.1l-0.4,0.2C12.8,57.3,12.7,57.3,12.6,57.3L12.6,57.3z"/>
					</g>
				</g>
				<g>
					<defs>
						<path id="SVGID_00000120526576283991436540000002059191344706715782_" d="M14.1,60.7l-0.4,0.2c0.3-0.1,0.4-0.5,0.5-0.9
							c0-0.9-0.6-2-1.3-2.5l0.4-0.2c0.8,0.5,1.4,1.6,1.3,2.5C14.5,60.2,14.4,60.5,14.1,60.7z"/>
					</defs>
					<use xlink:href="#SVGID_00000120526576283991436540000002059191344706715782_"  style="overflow:visible;fill:#7350BA;"/>
					<clipPath id="SVGID_00000124143313781806181640000011761835708797386911_">
						<use xlink:href="#SVGID_00000120526576283991436540000002059191344706715782_"  style="overflow:visible;"/>
					</clipPath>
					<g style="clip-path:url(#SVGID_00000124143313781806181640000011761835708797386911_);enable-background:new    ;">
						<path class="st6" d="M12.8,57.4l0.4-0.2c0,0,0,0,0,0L12.8,57.4C12.9,57.4,12.9,57.4,12.8,57.4L12.8,57.4z"/>
						<path class="st6" d="M12.9,57.4l0.4-0.2c0.1,0.1,0.2,0.1,0.3,0.2l-0.4,0.2C13.1,57.6,13,57.5,12.9,57.4L12.9,57.4z"/>
						<path class="st6" d="M13.2,57.6l0.4-0.2c0.1,0.1,0.2,0.2,0.3,0.3L13.5,58C13.4,57.8,13.3,57.7,13.2,57.6L13.2,57.6z"/>
						<path class="st6" d="M13.5,58l0.4-0.2c0.2,0.3,0.4,0.6,0.5,0.9L14,58.9C13.9,58.5,13.7,58.2,13.5,58L13.5,58z"/>
						<path class="st6" d="M14,58.9l0.4-0.2c0,0.1,0.1,0.2,0.1,0.4l-0.4,0.2C14.1,59.1,14,59,14,58.9L14,58.9z"/>
						<path class="st6" d="M14.1,59.2l0.4-0.2c0,0.1,0.1,0.3,0.1,0.4l-0.4,0.2C14.2,59.5,14.1,59.3,14.1,59.2L14.1,59.2z"/>
						<path class="st6" d="M14.2,59.6l0.4-0.2c0,0.1,0,0.2,0,0.3c0,0,0,0,0,0l-0.4,0.2c0,0,0,0,0,0C14.2,59.8,14.2,59.7,14.2,59.6
							L14.2,59.6z"/>
						<path class="st6" d="M14.2,59.9l0.4-0.2c0,0.1,0,0.2-0.1,0.3l-0.4,0.2C14.2,60.2,14.2,60.1,14.2,59.9L14.2,59.9z"/>
						<path class="st6" d="M14.5,59.3l0.4-0.2c-0.1,0.3-0.2,0.4-0.4,0.5L14,59.9C14.2,59.8,14.4,59.6,14.5,59.3L14.5,59.3z"/>
					</g>
				</g>
				<g>
					<path class="st8" d="M12.8,57.4c0.8,0.5,1.4,1.6,1.3,2.5c0,0.9-0.7,1.3-1.5,0.8c-0.8-0.5-1.4-1.6-1.3-2.5
						C11.4,57.3,12.1,56.9,12.8,57.4z"/>
				</g>
			</g>
			<g>
				<path class="st6" d="M12.8,57.8c0.6,0.4,1,1.2,1,1.9c0,0.7-0.5,0.9-1.1,0.6c-0.6-0.4-1-1.2-1-1.9C11.7,57.7,12.2,57.5,12.8,57.8
					z"/>
			</g>
			<g>
				<g>
					<path class="st8" d="M12.7,58.4c0.3,0.2,0.6,0.7,0.6,1.1c0,0.4-0.3,0.5-0.6,0.3c-0.3-0.2-0.6-0.7-0.6-1.1
						C12.1,58.3,12.4,58.1,12.7,58.4z"/>
				</g>
			</g>
		</g>
		<path class="st1" d="M23.7,74.3c1.2,0.9,3.7,2.2,3.7,3.6c0,0.3-1.7,2.3-2.6,2.5c-1.4,0.3-3-1.6-4-2.6c-1-0.9-2.8-1.3-3-2.9
			c0-0.4,0.1-0.8,0.2-1.1c0.2-0.5,0.5-1,1-1.2c0.5-0.3,1.1-0.3,1.7-0.3c0.3,0,0.6,0.1,0.9,0.2C22.2,72.8,23,73.8,23.7,74.3z"/>
		<path class="st8" d="M23.6,74.1c1.2,0.9,3.6,2.1,3.5,3.4c0,0.3-1.6,2.2-2.5,2.4c-1.4,0.3-2.9-1.5-3.8-2.4
			c-0.9-0.9-2.7-1.2-2.8-2.7c0-0.4,0.1-0.7,0.2-1c0.2-0.5,0.5-0.9,0.9-1.2c0.5-0.3,1-0.3,1.6-0.3c0.3,0,0.6,0.1,0.8,0.2
			C22.2,72.7,22.9,73.6,23.6,74.1z"/>
		<path class="st1" d="M19.3,69.8c-0.1,0-0.2,0.1-0.3,0.2c-0.2,0.1-0.3,0.3-0.4,0.5c-0.2,0.4-0.2-0.8-0.3-0.3
			c-0.1,0.3,0.3,3.2,0.4,3.6c0.1,0.6,0.6,1,2.2,0.9c0.8,0,1.2-0.5,1.2-1.3c0-1,0.3-2.4-0.2-3.1c-0.3-0.4-0.8-0.6-1.2-0.7
			c-0.4-0.1-0.8,0-1.2,0.1C19.3,69.8,19.3,69.8,19.3,69.8z"/>
		<path class="st1" d="M19.8,51.5c-0.2,0.1-0.4,0.1-0.6,0.2c-0.3,0.2-0.5,0.4-0.7,0.7c-0.5,0.6-0.9-0.5-1.1,0.3
			c-0.2,0.5,0.3,4.2,0.3,4.9c0.1,1,0.4,1.3,1,1.9c0.7,0.8,1.6,1.2,2.5,1c0.2,0,0.3-0.1,0.5-0.2c1-0.5,1.4-0.9,1.6-2.1
			c0.2-1.7,0.9-3.9,0.3-5.3c-0.4-0.7-1.1-1.2-1.8-1.5c-0.6-0.2-1.3-0.2-1.9-0.1C19.9,51.4,19.8,51.4,19.8,51.5z"/>
		<path class="st1" d="M14,37.5c0,0.4,0,0.9,0,1.3c0,0.7-0.1,1.3,0.1,1.9c0.5,1.6,2.1,1.9,2.5,3.5c0.4,1.5,1.2,9.8,2.1,11
			c0.4,0.6-0.7-4.3-0.2-3.9c0.2,0.2,0.5,0.4,0.8,0.4c0.5,0.1,0.9-0.2,1.3-0.5c0.4-0.3,0.6-0.7,0.9-1.1c1.3-1.5,1.1,0.8,1.5-2.2
			c0.7-5.7,0.4-8.2-0.1-10.6H14z"/>
		<path class="st3" d="M17,52.2c0.2,1,0.3,1.2,0.4,2.2c0.1,1,0.6,2.2,1.3,2.9c0.8,0.8,2.2,1.2,3.2,1c2.2-0.4,2.3-3,2.5-5.1
			c0.2-1.3,0.2-2.6,0.2-3.9c0-1.5-0.1-3.1-0.2-4.6c0-0.6-0.1-1.3-0.2-1.9c0-0.3,0-1.4-0.4-1.4c-0.2,0-0.4,0.2-0.5,0.4
			c-0.1,0.2-0.2,0.4-0.3,0.5c-0.5,0.9-1.7,1.9-2.5,2.5C16.7,48,15.7,43.9,17,52.2z"/>
		<path class="st3" d="M22.5,68.8c-0.1,1.1-0.2,2.2-0.2,3.3c-0.1,0.9-0.4,1.7-1.5,1.9c-0.8,0.1-1.6-0.3-2.1-0.8
			c-0.5-0.6-1.8-7.2-2-9c-0.2-1.3-0.2-2.5-0.1-3.5c0.3-2.3,1.1-3.5,1.1-3.6c0,0,0,0.1,0.1,0.3c0.2,0.6,0.8,1.7,2.1,1.9
			c1.4,0.2,2.7,0.1,3.5-1.2C23.7,60.3,22.7,66.5,22.5,68.8z"/>
		<g id="VR_x5F_back_13_">
			<g class="st11">
				<defs>
					<path id="SVGID_00000154418866838011546240000000029861388445341857_" class="st11" d="M19.9,3.5L20,6.1c0,0,0,0.1,0.1,0.1
						c0.7,0.4,1.1,0.9,1.1,1.4L21,4.9C21,4.4,20.6,3.9,19.9,3.5C19.9,3.5,19.9,3.5,19.9,3.5z"/>
				</defs>
				<use xlink:href="#SVGID_00000154418866838011546240000000029861388445341857_"  style="overflow:visible;fill:#F1F1F9;"/>
				<clipPath id="SVGID_00000084511722876648582110000000424518903823720617_">
					<use xlink:href="#SVGID_00000154418866838011546240000000029861388445341857_"  style="overflow:visible;"/>
				</clipPath>
			</g>
			<path class="st4" d="M20.9,5.3c0-0.5-0.4-1-1-1.3c-0.1,0-0.1-0.1,0-0.2c0.1-0.1,0.2-0.1,0.3,0c1,0.5,1.4,1.4,1.1,2.1
				c-0.1-0.1-0.2-0.2-0.4-0.2C20.9,5.5,20.9,5.4,20.9,5.3z"/>
		</g>
		<path class="st4" d="M23.2,27.6c0-0.3,0.4-7.5,0.5-7.9l-16-3.9c0,0-1.1,1.1-1.4,1.6c-1.8,2.7-0.4,6.4,0.6,9.1
			c0.7,1.9,3.2,10.8,2.6,13c-0.1,0.5-0.1,1.7,0.3,2c0.3,0.3,0.6,0.5,0.9,0.7c0.7,0.4,1.4,0.6,2.1,0.7c1.8,0.3,3.6,0,5.2-0.5
			c0.9-0.3,1.7-0.6,2.5-1c0.5-0.2,0.7-0.4,0.9-0.8c0.2-0.4,0.4-0.8,0.5-1.3c0.1-0.4,0.4-1.6,0.5-2c0-0.4,0.3-0.6,0.3-0.9
			c0-0.2-0.2-0.5-0.2-0.7C22.8,33,22.8,30.5,23.2,27.6z"/>
		
			<linearGradient id="SVGID_00000054957173177614103440000015388056491416875694_" gradientUnits="userSpaceOnUse" x1="7.9505" y1="15.4666" x2="23.8133" y2="23.7086">
			<stop  offset="0" style="stop-color:#E8E9FC"/>
			<stop  offset="1" style="stop-color:#D3D4EC"/>
		</linearGradient>
		<path style="fill:url(#SVGID_00000054957173177614103440000015388056491416875694_);" d="M11.9,27.3c-2.2-2.2-2.7-3.5-2.8-4.3
			c-0.1-0.5,0.8-0.4,0.7-0.9c-0.2-0.8,0-1.7-0.2-2.6C9.5,18.8,9,18,8.2,17.8c-0.1,0-0.2,0-0.2,0c-0.4,0-0.8,0.2-1.2,0.2
			c-0.2,0-1.1,0.1-1.1,0.1s0-0.6,1.2-1.7c0.5-0.5,1.2-0.8,1.7-1.2c1.6-1.1,4.8-2.5,8-3.5c4.4-1.4,5,0.2,6.3,3.7
			c0.7,1.9,0.8,3.9,0.8,5.9c0,1.8-1.2,4.6-1.2,4.6s-0.5,0.6-1,0.9c-5.1,3.1-6.2,2.8-6.2,2.8C13.8,29.1,13,28.4,11.9,27.3z"/>
		<path class="st4" d="M11.6,14.7c0.1,3.6,7.2,4.4,6.6,0c-0.7-4.6-0.8-5.2-3-5.8c-0.6-0.2-1.2-0.3-1.9-0.3c-2.3,0.1-1.4,1.2-1.2,2
			C12.5,13,11.6,13.4,11.6,14.7z"/>
		<g>
			<path class="st2" d="M20,3c0.5,0.7,0.8,1.6,0.9,2.5c0,0.4,0,0.8-0.1,1.2c-0.1,0.4-0.3,0.7-0.3,1.1c0,0.5,0.4,1,0.5,1.4
				c0.2,0.4,0.3,0.8,0.1,1.2c-0.1,0.2-0.2,0.4-0.3,0.6c-0.6,1,0.1,2.4-0.9,3.1c-0.3,0.2-0.6,0.2-0.9,0.3c-0.4,0-2.2-0.4-2.9-0.6
				c-0.8-0.3-1.7-0.6-2.3-1.2c-0.4-0.5-0.8-1.2-1.2-2.4c0,0-0.9,0.1-1.5-0.8C10.1,8,9.9,7,9.9,5.7c0-1.1,0.1-2.1,0.8-3.1
				c0.5-0.7,1.3-1.4,2.1-1.7c1.3-0.5,2.8-0.6,4.1-0.2C18.1,1.1,19.3,1.9,20,3z"/>
		</g>
		<g>
			<path class="st4" d="M12.7,3c0.7-1.2,2.9-2.1,4.5-2.2c-2.3-0.7-3.6-0.3-4.4,0.1c-0.8,0.4-1.6,1-2.1,1.7c-0.7,1-0.8,2-0.8,3.1
				C9.9,7,10.1,8,11,9.3c0.6,0.9,1.5,0.8,1.5,0.8c0,0.1,0,0.1,0.1,0.2c0-0.4-0.2-0.8-0.3-1.2C11.2,7.1,11.6,5,12.7,3z"/>
		</g>
		<g id="VR_13_">
			<g class="st11">
				<g>
					<path class="st4" d="M14.9,6.9c0.1-0.1,0.2-0.1,0.3,0c0.7,0.3,1.5,0.5,2.4,0.5c0.9,0,1.7-0.3,2.3-0.7c0.5-0.3,0.8-0.7,0.9-1.1
						c0.1,0.1,0.3,0.2,0.4,0.2c-0.2,0.4-0.5,0.7-0.9,1c-1.4,0.9-3.9,1-5.4,0.3C14.9,7.1,14.8,7,14.9,6.9z"/>
				</g>
			</g>
		</g>
		<g>
			<g>
				<g>
					<defs>
						<path id="SVGID_00000112625100905235632240000006592909485643693216_" d="M10.6,7.2L11,7c0.3-0.2,0.7-0.1,1.1,0.2l-0.4,0.2
							C11.3,7.1,10.9,7.1,10.6,7.2z"/>
					</defs>
					<use xlink:href="#SVGID_00000112625100905235632240000006592909485643693216_"  style="overflow:visible;fill:#7350BA;"/>
					<clipPath id="SVGID_00000017484129164794738290000008480617726365184933_">
						<use xlink:href="#SVGID_00000112625100905235632240000006592909485643693216_"  style="overflow:visible;"/>
					</clipPath>
					<g style="clip-path:url(#SVGID_00000017484129164794738290000008480617726365184933_);enable-background:new    ;">
						<path class="st6" d="M10.6,7.2L11,7c0.1-0.1,0.3-0.1,0.5-0.1l-0.4,0.2C10.9,7.1,10.7,7.1,10.6,7.2L10.6,7.2z"/>
						<path class="st6" d="M11.1,7.1l0.4-0.2c0.1,0,0.2,0,0.3,0.1l-0.4,0.2C11.3,7.2,11.2,7.1,11.1,7.1L11.1,7.1z"/>
						<path class="st6" d="M11.4,7.2L11.8,7c0.1,0,0.2,0.1,0.3,0.2l-0.4,0.2C11.6,7.3,11.5,7.3,11.4,7.2L11.4,7.2z"/>
					</g>
				</g>
				<g>
					<defs>
						<path id="SVGID_00000125596989124108228370000003670672120838791821_" d="M13.1,10.9l-0.4,0.2c0.3-0.2,0.5-0.5,0.5-1
							c0-1-0.6-2.2-1.5-2.8l0.4-0.2c0.9,0.5,1.5,1.8,1.5,2.8C13.6,10.4,13.4,10.8,13.1,10.9z"/>
					</defs>
					<use xlink:href="#SVGID_00000125596989124108228370000003670672120838791821_"  style="overflow:visible;fill:#7350BA;"/>
					<clipPath id="SVGID_00000120528328619686392360000002885557463740293302_">
						<use xlink:href="#SVGID_00000125596989124108228370000003670672120838791821_"  style="overflow:visible;"/>
					</clipPath>
					<g style="clip-path:url(#SVGID_00000120528328619686392360000002885557463740293302_);enable-background:new    ;">
						<path class="st6" d="M11.7,7.4l0.4-0.2c0,0,0,0,0,0L11.7,7.4C11.7,7.4,11.7,7.4,11.7,7.4L11.7,7.4z"/>
						<path class="st6" d="M11.7,7.4l0.4-0.2c0.1,0.1,0.2,0.2,0.3,0.3l-0.4,0.2C12,7.5,11.8,7.5,11.7,7.4L11.7,7.4z"/>
						<path class="st6" d="M12.1,7.6l0.4-0.2c0.1,0.1,0.2,0.2,0.3,0.3L12.4,8C12.3,7.9,12.2,7.7,12.1,7.6L12.1,7.6z"/>
						<path class="st6" d="M12.4,8l0.4-0.2c0.2,0.3,0.4,0.6,0.6,1L13,9C12.8,8.6,12.6,8.3,12.4,8L12.4,8z"/>
						<path class="st6" d="M13,9l0.4-0.2c0.1,0.1,0.1,0.3,0.1,0.4l-0.4,0.2C13,9.2,13,9.1,13,9L13,9z"/>
						<path class="st6" d="M13.1,9.4l0.4-0.2c0,0.1,0.1,0.3,0.1,0.4l-0.4,0.2C13.1,9.6,13.1,9.5,13.1,9.4L13.1,9.4z"/>
						<path class="st6" d="M13.2,9.8l0.4-0.2c0,0.1,0,0.3,0,0.4c0,0,0,0,0,0l-0.4,0.2c0,0,0,0,0,0C13.2,10,13.2,9.9,13.2,9.8
							L13.2,9.8z"/>
						<path class="st6" d="M13.2,10.2l0.4-0.2c0,0.1,0,0.3-0.1,0.4l-0.4,0.2C13.2,10.4,13.2,10.3,13.2,10.2L13.2,10.2z"/>
						<path class="st6" d="M13.5,9.5l0.4-0.2c-0.1,0.3-0.3,0.5-0.5,0.6L13,10.1C13.2,10,13.4,9.8,13.5,9.5L13.5,9.5z"/>
					</g>
				</g>
				<g>
					<path class="st8" d="M11.7,7.4c0.9,0.5,1.5,1.8,1.5,2.8c0,1-0.8,1.4-1.6,0.8c-0.8-0.5-1.5-1.8-1.5-2.8
						C10.1,7.2,10.9,6.8,11.7,7.4z"/>
				</g>
			</g>
			<g>
				<path class="st6" d="M11.6,7.8c0.6,0.4,1.1,1.3,1.1,2.1c0,0.7-0.6,1-1.2,0.6c-0.6-0.4-1.1-1.3-1.1-2.1C10.5,7.7,11,7.4,11.6,7.8
					z"/>
			</g>
			<g>
				<g>
					<path class="st8" d="M11.6,8.4c0.4,0.2,0.6,0.8,0.6,1.2c0,0.4-0.3,0.6-0.7,0.4c-0.4-0.2-0.6-0.8-0.6-1.2
						C10.9,8.3,11.2,8.2,11.6,8.4z"/>
				</g>
			</g>
		</g>
		<path class="st4" d="M9.2,17.5c1.1,0.9,1.2,2.2,1.2,3.7c0.1,2-0.2,5.3-0.4,7.3c0,0.3-0.4-0.8-0.7-0.7c-0.1,0.1-0.3,0-0.5,0
			C8.3,27.6,8,27,7.7,26.5c-1.1-2-3.1-6.4-1.8-8.5C6.7,16.6,8.8,17.1,9.2,17.5z"/>
		<path class="st8" d="M21.2,43.1c-1.4,1.3-3,2.2-4.5,2.5c-2.3,0.5-4.8-0.2-6.6-1.7c-0.8-0.7-1.4-0.9-1.8-1.9c-0.3-0.7,1-4,1.4-3.6
			c0.5,0.3,1,0.6,1.5,0.9c2.6,1.5,6.8,1.3,9.5,0c2.1-1,2-3.5,2-3.5S24.7,39.5,21.2,43.1z"/>
		<g class="st11">
			<defs>
				<path id="SVGID_00000047033755495673250640000009045628027265794239_" class="st11" d="M14.9,7L15,9.5c0,0,0,0.1,0.1,0.1
					c1.5,0.8,3.9,0.7,5.4-0.3c0.7-0.5,1.1-1.1,1-1.6l-0.1-2.5c0,0.6-0.3,1.2-1,1.6C18.9,7.8,16.5,7.9,14.9,7
					C14.9,7.1,14.9,7.1,14.9,7z"/>
			</defs>
			<use xlink:href="#SVGID_00000047033755495673250640000009045628027265794239_"  style="overflow:visible;fill:#F8F9FC;"/>
			<clipPath id="SVGID_00000155830705456495245220000010891883623306210494_">
				<use xlink:href="#SVGID_00000047033755495673250640000009045628027265794239_"  style="overflow:visible;"/>
			</clipPath>
		</g>
		<g class="st11">
			<path class="st3" d="M15.6,8.1l0,1c1.5,0.5,3.5,0.3,4.8-0.5c0.5-0.3,0.8-0.7,0.9-1c0.1-0.2,0.1-0.4,0.1-0.6l-0.1-1
				c0,0.6-0.3,1.2-1,1.6c-1.2,0.8-3.1,1-4.6,0.6C15.7,8.1,15.7,8.1,15.6,8.1z"/>
		</g>
		<g>
			<path class="st4" d="M15.7,8.2l0,0.9c1.5,0.5,3.5,0.2,4.8-0.6c0.4-0.2,0.6-0.5,0.8-0.9c0.1-0.2,0.1-0.4,0.1-0.6l-0.1-1
				c0,0.6-0.3,1.2-1,1.6C19.1,8.4,17.2,8.6,15.7,8.2z"/>
		</g>
		<g>
			<path class="st1" d="M12.2,79.4c1,1.3,3.1,3.2,2.7,4.5c-0.1,0.3-2.4,1.8-3.4,1.7c-1.5-0.1-2.6-2.4-3.3-3.6
				c-0.7-1.2-2.5-2.1-2.1-3.6c0.1-0.4,0.3-0.7,0.5-1C7,76.9,7.5,76.5,8,76.4c0.6-0.1,1.2,0,1.8,0.2c0.3,0.1,0.6,0.2,0.8,0.4
				C11.2,77.4,11.7,78.7,12.2,79.4z"/>
			<path class="st8" d="M12.2,79.1c0.9,1.2,2.9,3.2,2.5,4.4c-0.1,0.3-2.2,1.7-3.2,1.7c-1.4-0.1-2.4-2.4-3.1-3.6
				c-0.6-1.2-2.3-2-2-3.6c0.1-0.4,0.3-0.7,0.5-1c0.4-0.4,0.8-0.8,1.3-0.9c0.6-0.1,1.1,0,1.7,0.2c0.3,0.1,0.6,0.2,0.8,0.4
				C11.2,77.2,11.7,78.4,12.2,79.1z"/>
			<path class="st4" d="M8,73.6c-0.1,0-0.3,0.1-0.4,0.2c-0.2,0.1-0.3,0.3-0.5,0.4c-0.3,0.4-0.5-0.8-0.6-0.3c-0.1,0.3,0.2,3,0.2,3.5
				c0.1,0.6,0.7,1.5,2.4,1.4c0.8,0,1.3-0.4,1.4-1.2c0.1-1,0.5-2.4,0.1-3.2c-0.3-0.4-0.8-0.7-1.2-0.8c-0.4-0.1-0.9-0.1-1.3,0
				C8.1,73.6,8,73.6,8,73.6z"/>
			<path class="st4" d="M10,54.2c-0.2,0-0.4,0.1-0.6,0.2c-0.3,0.1-0.6,0.3-0.8,0.6c-0.5,0.5-0.9-0.6-1.2,0.1
				c-0.2,0.5-0.2,4.1-0.2,4.8c0,1,0.3,1.3,0.8,2c0.6,0.9,1.6,1.4,2.5,1.3c0.2,0,0.4,0,0.5-0.1c1.1-0.3,1.6-0.6,1.9-1.7
				c0.4-1.6,1.3-3.8,0.8-5.2c-0.3-0.8-1-1.3-1.7-1.6c-0.6-0.3-1.3-0.4-2-0.3C10.1,54.2,10,54.2,10,54.2z"/>
			<path class="st4" d="M14.8,45.8c0,0.6-0.1,1.2-0.2,1.8c-0.2,2-0.4,4.1-0.7,6.2c-0.2,1.2-0.3,3.1-1.1,4c-0.8,0.9-1.9,1.3-3,1.1
				c-0.3-0.1-0.7-0.2-0.9-0.5c-0.6-0.6-1.1-0.5-1.1-1.4c-0.2-8.2,0-7,0.4-10.1c0.1-0.7-0.6-2.2-0.4-3.3c0.2-1.3,0.5-2.6,0.9-3.2
				C10.8,37.8,14.7,41.8,14.8,45.8z"/>
			
				<linearGradient id="SVGID_00000034795652514624932840000005197264952255688093_" gradientUnits="userSpaceOnUse" x1="8.8637" y1="33.2587" x2="12.1356" y2="60.2626">
				<stop  offset="0" style="stop-color:#E8E9FC"/>
				<stop  offset="1" style="stop-color:#D3D4EC"/>
			</linearGradient>
			<path style="fill:url(#SVGID_00000034795652514624932840000005197264952255688093_);" d="M7.5,44.1c-0.2,2.8-0.9,5.8-0.8,8.5
				c0.1,1.8,0.4,5,0.4,5c0,0.8,0.6,1.8,1.1,2.3c0.7,0.8,2.2,1.3,3.3,1.2c2.3-0.2,2.5-2.8,2.9-4.8c1.7-9.2,1.3-7.9,0.3-9.2
				c-0.5-0.6-0.7-1.4-1.1-2.1C12.5,43.5,7.7,39.8,7.5,44.1z"/>
			
				<linearGradient id="SVGID_00000021101187222035962820000001081341645413078196_" gradientUnits="userSpaceOnUse" x1="8.6116" y1="62.1473" x2="11.3297" y2="76.888">
				<stop  offset="0" style="stop-color:#E8E9FC"/>
				<stop  offset="1" style="stop-color:#D3D4EC"/>
			</linearGradient>
			<path style="fill:url(#SVGID_00000021101187222035962820000001081341645413078196_);" d="M10.8,76.2C10.5,78.7,8,78.4,6.9,77
				c-0.5-0.6-0.4-1.3-0.5-2c-0.2-1.4-0.7-3.8-1-7.5c-0.1-0.7-0.1-1.3,0-1.9c0.2-3.1,1.5-4.9,1.7-5.2c0,0,0-0.1,0-0.1
				c0,0,0,0.1,0,0.1c0.1,0.3,0.4,1.1,0.9,1.4c0,0,0.1,0.1,0.1,0.1c1.4,0.8,3.8,1,4.7-0.6C13.3,63.8,11.7,69.6,10.8,76.2z"/>
		</g>
		<g>
			<path class="st6" d="M6.8,36.1c0.6-0.7,1.7-8.9,1.7-9.3c0-0.1,0.3-1.8,0.1-1.8c0,0-4.7-1.1-4.7-1.1c-0.2,0.7-0.2,1.5-0.3,2.1
				c-0.2,1.1-1.2,9.7-0.9,10.7C3.4,39.3,5.8,37.4,6.8,36.1z"/>
			<path class="st2" d="M8,17.5c1.8,0.2,2,2.2,2,3.4c0.1,1.8-0.3,3.6-0.9,5.3C9,26.6,8.8,27,8.5,27.4c-0.3,0.3-0.6,0.5-0.9,0.7
				c-0.8,0.4-1.7,0.8-2.5,0.5c-0.3-0.1-0.5-0.2-0.7-0.4C4,28,3.7,27.7,3.5,27.4c-0.3-0.6-0.2-1.2-0.1-1.9C3.6,24,4,22.4,4.5,20.9
				C5,19.2,5.7,17.2,8,17.5z"/>
			<path class="st2" d="M3,46.1c0.3,1.9,3,2,3.4-0.5c0.4-2.7,0.4-6.3,0.7-8.6c0.1-0.5,0.3-1.6,0-2.1c-0.3-0.5-1.1,0-1.6-0.3
				c-0.3-0.2-0.6-0.9-0.8-1.2c-0.4-0.7-1.7-1.2-2.2-0.5C1.7,33.9,2.6,43.1,3,46.1z"/>
			<path class="st4" d="M2.9,45C2.9,45.4,3,45.8,3,46.1c0.3,1.9,3,2,3.4-0.5c0-0.3,0.1-0.6,0.1-0.9C5.6,45.4,4.1,45.4,2.9,45z"/>
			<g>
				<path class="st17" d="M5.5,45.8c-0.7,0-1.3,0.3-2,0.1c-0.1,0-0.2-0.1-0.3-0.1c-0.3,0-0.3,0.5-0.4,0.7c-0.1,0.4-0.2,0.8-0.2,1.2
					c0,0.9,0,1.7,0.3,2.5c0.1,0.2,0.2,0.4,0.4,0.4c0.1,0,0.3-0.1,0.4-0.1c0.3,0,0.2,0.4,0.3,0.6c0.2,0.4,0.8,0.3,0.9-0.1
					c0.1,0.3,0.3,0.6,0.6,0.8c0.3,0.1,0.7,0,0.7-0.3c0,0.4,0.4,0.7,0.7,0.7c0.4,0,0.7-0.4,0.6-0.7c0-0.3-0.2-0.5-0.3-0.7
					c-0.4-0.9,0.2-2,0.1-3.1c-0.1-0.4-0.2-0.9-0.5-1.2C6.5,46.1,6,45.9,5.5,45.8C5.5,45.8,5.5,45.8,5.5,45.8z"/>
				<path class="st17" d="M6.7,46.4c0.8,0.7,1.6,2.1,1.7,3.2c0,0.2,0,0.3-0.1,0.5c-0.1,0.2-0.2,0.3-0.4,0.3c-0.2,0-0.3-0.1-0.4-0.3
					c-0.1-0.1-0.1-0.3-0.1-0.5c0,0,0-0.1,0-0.1c-0.5-0.5-0.9-1-1.4-1.5L6.7,46.4z"/>
			</g>
		</g>
		<g>
			<g>
				<g>
					<defs>
						<path id="SVGID_00000134240636755226025880000016587960445789509031_" d="M2.3,33.1l0.3-0.2c0.2-0.1,0.5-0.1,0.9,0.1l-0.3,0.2
							C2.8,33,2.5,33,2.3,33.1z"/>
					</defs>
					<use xlink:href="#SVGID_00000134240636755226025880000016587960445789509031_"  style="overflow:visible;fill:#7350BA;"/>
					<clipPath id="SVGID_00000051372132190931473870000012192852730198297483_">
						<use xlink:href="#SVGID_00000134240636755226025880000016587960445789509031_"  style="overflow:visible;"/>
					</clipPath>
					<g style="clip-path:url(#SVGID_00000051372132190931473870000012192852730198297483_);enable-background:new    ;">
						<path class="st6" d="M2.3,33.1l0.3-0.2c0.1-0.1,0.2-0.1,0.4-0.1L2.7,33C2.6,33,2.4,33,2.3,33.1L2.3,33.1z"/>
						<path class="st6" d="M2.7,33L3,32.9c0.1,0,0.2,0,0.3,0.1l-0.3,0.2C2.9,33.1,2.8,33,2.7,33L2.7,33z"/>
						<path class="st6" d="M2.9,33.1l0.3-0.2c0.1,0,0.2,0.1,0.2,0.1l-0.3,0.2C3.1,33.2,3,33.1,2.9,33.1L2.9,33.1z"/>
					</g>
				</g>
				<g>
					<defs>
						<path id="SVGID_00000040539026717328523760000011034545392954048899_" d="M4.2,36l-0.3,0.2c0.2-0.1,0.4-0.4,0.4-0.8
							c0-0.8-0.5-1.7-1.1-2.2l0.3-0.2c0.7,0.4,1.2,1.4,1.1,2.2C4.6,35.6,4.5,35.9,4.2,36z"/>
					</defs>
					<use xlink:href="#SVGID_00000040539026717328523760000011034545392954048899_"  style="overflow:visible;fill:#7350BA;"/>
					<clipPath id="SVGID_00000139996899809085117300000007753131280852535220_">
						<use xlink:href="#SVGID_00000040539026717328523760000011034545392954048899_"  style="overflow:visible;"/>
					</clipPath>
					<g style="clip-path:url(#SVGID_00000139996899809085117300000007753131280852535220_);enable-background:new    ;">
						<path class="st6" d="M3.2,33.2l0.3-0.2c0,0,0,0,0,0L3.2,33.2C3.2,33.2,3.2,33.2,3.2,33.2L3.2,33.2z"/>
						<path class="st6" d="M3.2,33.2l0.3-0.2c0.1,0.1,0.2,0.1,0.3,0.2l-0.3,0.2C3.4,33.4,3.3,33.3,3.2,33.2L3.2,33.2z"/>
						<path class="st6" d="M3.5,33.4l0.3-0.2c0.1,0.1,0.2,0.2,0.2,0.3l-0.3,0.2C3.6,33.6,3.5,33.5,3.5,33.4L3.5,33.4z"/>
						<path class="st6" d="M3.7,33.7L4,33.5c0.2,0.2,0.3,0.5,0.4,0.8l-0.3,0.2C4,34.2,3.9,33.9,3.7,33.7L3.7,33.7z"/>
						<path class="st6" d="M4.1,34.5l0.3-0.2c0,0.1,0.1,0.2,0.1,0.3l-0.3,0.2C4.2,34.7,4.2,34.6,4.1,34.5L4.1,34.5z"/>
						<path class="st6" d="M4.2,34.8l0.3-0.2c0,0.1,0,0.2,0.1,0.3l-0.3,0.2C4.3,35,4.3,34.9,4.2,34.8L4.2,34.8z"/>
						<path class="st6" d="M4.3,35.1l0.3-0.2c0,0.1,0,0.2,0,0.3c0,0,0,0,0,0l-0.3,0.2c0,0,0,0,0,0C4.3,35.3,4.3,35.2,4.3,35.1
							L4.3,35.1z"/>
						<path class="st6" d="M4.3,35.4l0.3-0.2c0,0.1,0,0.2,0,0.3l-0.3,0.2C4.3,35.6,4.3,35.5,4.3,35.4L4.3,35.4z"/>
						<path class="st6" d="M4.6,34.9l0.3-0.1c-0.1,0.2-0.2,0.4-0.4,0.5l-0.3,0.1C4.4,35.2,4.5,35.1,4.6,34.9L4.6,34.9z"/>
					</g>
				</g>
				<g>
					<path class="st8" d="M3.2,33.2c0.7,0.4,1.2,1.4,1.1,2.2c0,0.8-0.6,1.1-1.3,0.7c-0.7-0.4-1.2-1.4-1.1-2.2
						C2,33.1,2.5,32.8,3.2,33.2z"/>
				</g>
			</g>
			<g>
				<path class="st6" d="M3.1,33.6c0.5,0.3,0.9,1,0.8,1.6c0,0.6-0.4,0.8-0.9,0.5c-0.5-0.3-0.9-1-0.8-1.6C2.2,33.5,2.6,33.3,3.1,33.6
					z"/>
			</g>
			<g>
				<g>
					<path class="st8" d="M3.1,34c0.3,0.2,0.5,0.6,0.5,0.9c0,0.3-0.3,0.5-0.5,0.3c-0.3-0.2-0.5-0.6-0.5-0.9C2.6,34,2.8,33.9,3.1,34z
						"/>
				</g>
			</g>
		</g>
		<polygon class="st4" points="19.3,23.5 17.8,27.3 20.7,25.6 		"/>
		<polygon class="st4" points="5.3,23.9 6.6,27.2 4,25.7 		"/>
		<polygon class="st8" points="20.5,28 18.3,29.3 16.8,30.8 16.8,31.6 18.3,31.3 20.5,30 22.1,28.6 22.1,27.7 		"/>
		<polygon class="st8" points="20.9,30.6 19.2,31.6 17.9,32.8 17.9,33.4 19.2,33.2 20.9,32.2 22.2,31 22.2,30.3 		"/>
		<polygon class="st8" points="20.9,33 19.5,33.8 18.5,34.8 18.5,35.3 19.5,35.1 20.9,34.3 21.9,33.4 21.9,32.8 		"/>
		<path class="st4" d="M8.4,61.4v2.4l-1.7,1.7H5.5c0.2-3.1,1.5-5,1.8-5.3L8.4,61.4z"/>
		<path class="st1" d="M17.7,57.4v2l-1.2,1.2c0.3-2.3,1.1-3.5,1.1-3.6C17.6,57,17.6,57.2,17.7,57.4z"/>
		<g>
			<g>
				<g>
					<defs>
						<path id="SVGID_00000043431431701360537390000004357976428582578869_" d="M6.4,58.6l0.4-0.2c0.3-0.1,0.6-0.1,1,0.1l-0.4,0.2
							C7,58.5,6.6,58.5,6.4,58.6z"/>
					</defs>
					<use xlink:href="#SVGID_00000043431431701360537390000004357976428582578869_"  style="overflow:visible;fill:#7350BA;"/>
					<clipPath id="SVGID_00000173162278771498988170000016454467546500718767_">
						<use xlink:href="#SVGID_00000043431431701360537390000004357976428582578869_"  style="overflow:visible;"/>
					</clipPath>
					<g style="clip-path:url(#SVGID_00000173162278771498988170000016454467546500718767_);enable-background:new    ;">
						<path class="st6" d="M6.4,58.6l0.4-0.2c0.1-0.1,0.3-0.1,0.4-0.1l-0.4,0.2C6.7,58.5,6.5,58.5,6.4,58.6L6.4,58.6z"/>
						<path class="st6" d="M6.8,58.5l0.4-0.2c0.1,0,0.2,0,0.3,0.1l-0.4,0.2C7,58.6,6.9,58.5,6.8,58.5L6.8,58.5z"/>
						<path class="st6" d="M7.1,58.6l0.4-0.2c0.1,0,0.2,0.1,0.3,0.1l-0.4,0.2C7.3,58.7,7.2,58.6,7.1,58.6L7.1,58.6z"/>
					</g>
				</g>
				<g>
					<defs>
						<path id="SVGID_00000089549496504744702040000001387205450951448987_" d="M8.6,62l-0.4,0.2c0.3-0.1,0.4-0.5,0.5-0.9
							c0-0.9-0.6-2-1.3-2.5l0.4-0.2c0.8,0.5,1.4,1.6,1.3,2.5C9.1,61.5,8.9,61.9,8.6,62z"/>
					</defs>
					<use xlink:href="#SVGID_00000089549496504744702040000001387205450951448987_"  style="overflow:visible;fill:#7350BA;"/>
					<clipPath id="SVGID_00000142880134797213784840000012329820817885389497_">
						<use xlink:href="#SVGID_00000089549496504744702040000001387205450951448987_"  style="overflow:visible;"/>
					</clipPath>
					<g style="clip-path:url(#SVGID_00000142880134797213784840000012329820817885389497_);enable-background:new    ;">
						<path class="st6" d="M7.4,58.7l0.4-0.2c0,0,0,0,0,0L7.4,58.7C7.4,58.8,7.4,58.7,7.4,58.7L7.4,58.7z"/>
						<path class="st6" d="M7.4,58.8l0.4-0.2c0.1,0.1,0.2,0.1,0.3,0.2L7.7,59C7.6,58.9,7.5,58.8,7.4,58.8L7.4,58.8z"/>
						<path class="st6" d="M7.7,59l0.4-0.2c0.1,0.1,0.2,0.2,0.3,0.3L8,59.3C7.9,59.2,7.8,59.1,7.7,59L7.7,59z"/>
						<path class="st6" d="M8,59.3l0.4-0.2c0.2,0.3,0.4,0.6,0.5,0.9l-0.4,0.2C8.4,59.9,8.2,59.6,8,59.3L8,59.3z"/>
						<path class="st6" d="M8.5,60.2L8.9,60c0,0.1,0.1,0.2,0.1,0.4l-0.4,0.2C8.6,60.4,8.6,60.3,8.5,60.2L8.5,60.2z"/>
						<path class="st6" d="M8.6,60.6L9,60.4c0,0.1,0.1,0.3,0.1,0.4l-0.4,0.2C8.7,60.8,8.7,60.7,8.6,60.6L8.6,60.6z"/>
						<path class="st6" d="M8.7,60.9l0.4-0.2c0,0.1,0,0.2,0,0.3c0,0,0,0,0,0l-0.4,0.2c0,0,0,0,0,0C8.7,61.2,8.7,61.1,8.7,60.9
							L8.7,60.9z"/>
						<path class="st6" d="M8.7,61.3l0.4-0.2c0,0.1,0,0.2-0.1,0.3l-0.4,0.2C8.7,61.5,8.7,61.4,8.7,61.3L8.7,61.3z"/>
						<path class="st6" d="M9,60.7l0.4-0.2c-0.1,0.3-0.2,0.4-0.4,0.5l-0.4,0.2C8.8,61.1,8.9,60.9,9,60.7L9,60.7z"/>
					</g>
				</g>
				<g>
					<path class="st8" d="M7.4,58.7c0.8,0.5,1.4,1.6,1.3,2.5c0,0.9-0.7,1.3-1.5,0.8c-0.8-0.5-1.4-1.6-1.3-2.5
						C6,58.6,6.6,58.3,7.4,58.7z"/>
				</g>
			</g>
			<g>
				<path class="st6" d="M7.3,59.2c0.6,0.4,1,1.2,1,1.9c0,0.7-0.5,0.9-1.1,0.6c-0.6-0.4-1-1.2-1-1.9C6.2,59.1,6.7,58.8,7.3,59.2z"/>
			</g>
			<g>
				<g>
					<path class="st8" d="M7.3,59.7c0.3,0.2,0.6,0.7,0.6,1.1c0,0.4-0.3,0.5-0.6,0.3c-0.3-0.2-0.6-0.7-0.6-1.1
						C6.7,59.6,7,59.5,7.3,59.7z"/>
				</g>
			</g>
		</g>
		<g>
			<g>
				<g>
					<defs>
						<path id="SVGID_00000178205470577387245360000006158395910629850559_" d="M16.6,55.3l0.4-0.2c0.3-0.1,0.6-0.1,1,0.1l-0.4,0.2
							C17.2,55.2,16.8,55.2,16.6,55.3z"/>
					</defs>
					<use xlink:href="#SVGID_00000178205470577387245360000006158395910629850559_"  style="overflow:visible;fill:#7350BA;"/>
					<clipPath id="SVGID_00000175285454859585591740000016316431105192455342_">
						<use xlink:href="#SVGID_00000178205470577387245360000006158395910629850559_"  style="overflow:visible;"/>
					</clipPath>
					<g style="clip-path:url(#SVGID_00000175285454859585591740000016316431105192455342_);enable-background:new    ;">
						<path class="st6" d="M16.6,55.3l0.4-0.2c0.1-0.1,0.3-0.1,0.4-0.1L17,55.3C16.9,55.3,16.7,55.3,16.6,55.3L16.6,55.3z"/>
						<path class="st6" d="M17,55.3l0.4-0.2c0.1,0,0.2,0,0.3,0.1l-0.4,0.2C17.2,55.3,17.1,55.3,17,55.3L17,55.3z"/>
						<path class="st6" d="M17.3,55.3l0.4-0.2c0.1,0,0.2,0.1,0.3,0.1l-0.4,0.2C17.5,55.4,17.4,55.4,17.3,55.3L17.3,55.3z"/>
					</g>
				</g>
				<g>
					<defs>
						<path id="SVGID_00000039091793035213877440000005266947484424366986_" d="M18.8,58.7l-0.4,0.2c0.3-0.1,0.4-0.5,0.5-0.9
							c0-0.9-0.6-2-1.3-2.5l0.4-0.2c0.8,0.5,1.4,1.6,1.3,2.5C19.3,58.3,19.1,58.6,18.8,58.7z"/>
					</defs>
					<use xlink:href="#SVGID_00000039091793035213877440000005266947484424366986_"  style="overflow:visible;fill:#7350BA;"/>
					<clipPath id="SVGID_00000031183129782184491230000005348712284693987242_">
						<use xlink:href="#SVGID_00000039091793035213877440000005266947484424366986_"  style="overflow:visible;"/>
					</clipPath>
					<g style="clip-path:url(#SVGID_00000031183129782184491230000005348712284693987242_);enable-background:new    ;">
						<path class="st6" d="M17.6,55.5l0.4-0.2c0,0,0,0,0,0L17.6,55.5C17.6,55.5,17.6,55.5,17.6,55.5L17.6,55.5z"/>
						<path class="st6" d="M17.6,55.5l0.4-0.2c0.1,0.1,0.2,0.1,0.3,0.2l-0.4,0.2C17.8,55.6,17.7,55.6,17.6,55.5L17.6,55.5z"/>
						<path class="st6" d="M17.9,55.7l0.4-0.2c0.1,0.1,0.2,0.2,0.3,0.3L18.2,56C18.1,55.9,18,55.8,17.9,55.7L17.9,55.7z"/>
						<path class="st6" d="M18.2,56l0.4-0.2c0.2,0.3,0.4,0.6,0.5,0.9l-0.4,0.2C18.6,56.6,18.4,56.3,18.2,56L18.2,56z"/>
						<path class="st6" d="M18.7,56.9l0.4-0.2c0,0.1,0.1,0.2,0.1,0.4l-0.4,0.2C18.8,57.2,18.8,57.1,18.7,56.9L18.7,56.9z"/>
						<path class="st6" d="M18.8,57.3l0.4-0.2c0,0.1,0.1,0.3,0.1,0.4l-0.4,0.2C18.9,57.5,18.9,57.4,18.8,57.3L18.8,57.3z"/>
						<path class="st6" d="M18.9,57.7l0.4-0.2c0,0.1,0,0.2,0,0.3c0,0,0,0,0,0L18.9,58c0,0,0,0,0,0C18.9,57.9,18.9,57.8,18.9,57.7
							L18.9,57.7z"/>
						<path class="st6" d="M18.9,58l0.4-0.2c0,0.1,0,0.2-0.1,0.3l-0.4,0.2C18.9,58.3,18.9,58.2,18.9,58L18.9,58z"/>
						<path class="st6" d="M19.2,57.4l0.4-0.2c-0.1,0.3-0.2,0.4-0.4,0.5l-0.4,0.2C19,57.9,19.1,57.7,19.2,57.4L19.2,57.4z"/>
					</g>
				</g>
				<g>
					<path class="st8" d="M17.6,55.5c0.8,0.5,1.4,1.6,1.3,2.5c0,0.9-0.7,1.3-1.5,0.8c-0.8-0.5-1.4-1.6-1.3-2.5
						C16.2,55.3,16.8,55,17.6,55.5z"/>
				</g>
			</g>
			<g>
				<path class="st6" d="M17.5,55.9c0.6,0.4,1,1.2,1,1.9c0,0.7-0.5,0.9-1.1,0.6c-0.6-0.4-1-1.2-1-1.9C16.4,55.8,16.9,55.5,17.5,55.9
					z"/>
			</g>
			<g>
				<g>
					<path class="st8" d="M17.5,56.4c0.3,0.2,0.6,0.7,0.6,1.1c0,0.4-0.3,0.5-0.6,0.3c-0.3-0.2-0.6-0.7-0.6-1.1
						C16.9,56.4,17.2,56.2,17.5,56.4z"/>
				</g>
			</g>
		</g>
		<path class="st4" d="M12.8,61.5v-5.2c0-0.5-0.4-1-1-1c-0.5,0-1,0.4-1,1v5.2H12.8z"/>
		<path class="st1" d="M22,58.7v-5.1c0-0.5,0.3-1,0.7-1.3c0.4-0.2,0.7,0,0.7,0.4l0,4.4L23.1,58L22,58.7z"/>
		<path class="st4" d="M9.6,44.5c0,0.4-0.3,0.6-0.7,0.4c-0.4-0.2-0.7-0.8-0.7-1.2s0.3-0.6,0.7-0.4S9.6,44.1,9.6,44.5z"/>
		<path class="st4" d="M9.6,46.8c0,0.4-0.3,0.6-0.7,0.4C8.6,47,8.2,46.5,8.2,46c0-0.4,0.3-0.6,0.7-0.4C9.3,45.8,9.6,46.4,9.6,46.8z"
			/>
		<path class="st4" d="M9.2,75.7c0,0.4,0.3,0.6,0.7,0.4c0.4-0.2,0.7-0.8,0.7-1.2c0-0.4-0.3-0.6-0.7-0.4C9.6,74.7,9.2,75.2,9.2,75.7z
			"/>
		<path class="st1" d="M20.7,71.5c0,0.4,0.3,0.6,0.7,0.4c0.4-0.2,0.7-0.8,0.7-1.2c0-0.4-0.3-0.6-0.7-0.4
			C21,70.5,20.7,71.1,20.7,71.5z"/>
	</g>
	<g>
		<g>
			<g>
				<g class="st11">
					<g>
						<polygon class="st3" points="70.3,67.2 70.2,89 49.4,101.1 49.4,79.3 						"/>
					</g>
					<g>
						<polygon class="st24" points="49.4,79.3 49.4,101.1 28.4,89 28.5,67.2 						"/>
					</g>
					<g>
						<polygon class="st25" points="70.3,67.2 49.4,79.3 28.5,67.2 49.3,55 						"/>
						<g>
							<polygon class="st26" points="49.3,55.8 49.3,78.4 49.4,78.5 64.1,70 68.9,67.2 							"/>
							<polygon class="st3" points="29.9,67.2 34.7,70 49.3,78.4 49.3,55.8 							"/>
						</g>
						<polygon class="st17" points="64.1,70 49.4,78.5 34.7,70 49.3,61.5 						"/>
						<g>
							<g>
								<path class="st2" d="M36.4,66.4c0.2,0.1,0.3,0.3,0.5,0.5c0.2,0.2,0.4,0.3,0.6,0.2c0.3-0.1,0.4-0.5,0.7-0.7
									c0.2-0.1,0.5-0.1,0.7,0.1c0.2,0.3,0,0.7-0.2,1c-0.2,0.3-0.5,0.6-0.5,1c0,0.2,0.1,0.4,0.1,0.5c0.1,0.4,0,0.8-0.2,1.1
									c-0.1,0.2-0.3,0.4-0.6,0.4c-0.3,0-0.5-0.2-0.7-0.4c-0.2-0.2-0.3-0.4-0.5-0.6c-0.2-0.2-0.5-0.2-0.7-0.1
									c-0.1,0.1-0.2,0.3-0.3,0.4c-0.3,0.3-0.8,0.2-1.1-0.1c-0.6-0.8,0.3-1.6,0.6-2.2C35.1,67,35.6,65.9,36.4,66.4z"/>
								<path class="st26" d="M36.8,69.6C36.8,69.6,36.8,69.7,36.8,69.6c0,0.1,0.1,0.1,0.2,0.1c0.1,0,0.2,0,0.3,0
									c0.2,0,0.4,0,0.4-0.2c0-0.1,0-0.1,0-0.2c0-0.1,0-0.3,0-0.4c0-0.1,0-0.1,0-0.2c0-0.1-0.1-0.1-0.2-0.1
									C36.9,68.6,36.7,69,36.8,69.6z"/>
								<path class="st26" d="M34.5,68.3c-0.1,0.2-0.3,0.4-0.3,0.6c0,0.2,0.1,0.4,0.2,0.5c0.2,0.1,0.4,0.1,0.5,0
									c0.1-0.1,0.2-0.2,0.3-0.4c0.2-0.3,0.7-0.4,1.1-0.3c0.1,0,0.2,0,0.2,0c0.2,0,0.3-0.3,0.3-0.5c0-0.2,0.1-0.4-0.1-0.6
									c-0.1-0.1-0.2-0.1-0.3-0.1c-0.2,0-0.4-0.1-0.5-0.1C35.2,67.3,34.9,67.7,34.5,68.3z"/>
							</g>
							<g>
								<path class="st2" d="M57.3,65.1c0.2,0.1,0.3,0.3,0.5,0.5c0.2,0.2,0.4,0.3,0.6,0.2c0.3-0.1,0.4-0.5,0.7-0.7
									c0.2-0.1,0.5-0.1,0.7,0.1c0.2,0.3,0,0.7-0.2,1c-0.2,0.3-0.5,0.6-0.5,1c0,0.2,0.1,0.4,0.1,0.5c0.1,0.4,0,0.8-0.2,1.1
									c-0.1,0.2-0.3,0.4-0.6,0.4c-0.3,0-0.5-0.2-0.7-0.4c-0.2-0.2-0.3-0.4-0.5-0.6c-0.2-0.2-0.5-0.2-0.7-0.1
									c-0.1,0.1-0.2,0.3-0.3,0.4c-0.3,0.3-0.8,0.2-1.1-0.1c-0.6-0.8,0.3-1.6,0.6-2.2C55.9,65.8,56.5,64.6,57.3,65.1z"/>
								<path class="st26" d="M57.6,68.4C57.6,68.4,57.6,68.4,57.6,68.4c0,0.1,0.1,0.1,0.2,0.1c0.1,0,0.2,0,0.3,0
									c0.2,0,0.4,0,0.4-0.2c0-0.1,0-0.1,0-0.2c0-0.1,0-0.3,0-0.4c0-0.1,0-0.1,0-0.2c0-0.1-0.1-0.1-0.2-0.1
									C57.7,67.4,57.6,67.8,57.6,68.4z"/>
								<path class="st26" d="M55.4,67c-0.1,0.2-0.3,0.4-0.3,0.6c0,0.2,0.1,0.4,0.2,0.5c0.2,0.1,0.4,0.1,0.5,0
									c0.1-0.1,0.2-0.2,0.3-0.4c0.2-0.3,0.7-0.4,1.1-0.3c0.1,0,0.2,0,0.2,0c0.2,0,0.3-0.3,0.3-0.5c0-0.2,0.1-0.4-0.1-0.6
									c-0.1-0.1-0.2-0.1-0.3-0.1c-0.2,0-0.4-0.1-0.5-0.1C56.1,66,55.8,66.5,55.4,67z"/>
							</g>
							<g>
								<path class="st2" d="M45,72.7c0.2,0.1,0.3,0.3,0.5,0.5c0.2,0.2,0.4,0.3,0.6,0.2c0.3-0.1,0.4-0.5,0.7-0.7
									c0.2-0.1,0.5-0.1,0.7,0.1c0.2,0.3,0,0.7-0.2,1c-0.2,0.3-0.5,0.6-0.5,1c0,0.2,0.1,0.4,0.1,0.5c0.1,0.4,0,0.8-0.2,1.1
									c-0.1,0.2-0.3,0.4-0.6,0.4c-0.3,0-0.5-0.2-0.7-0.4c-0.2-0.2-0.3-0.4-0.5-0.6c-0.2-0.2-0.5-0.2-0.7-0.1
									c-0.1,0.1-0.2,0.3-0.3,0.4c-0.3,0.3-0.8,0.2-1.1-0.1c-0.6-0.8,0.3-1.6,0.6-2.2C43.6,73.3,44.1,72.2,45,72.7z"/>
								<path class="st26" d="M45.3,75.9C45.3,76,45.3,76,45.3,75.9c0,0.1,0.1,0.1,0.2,0.1c0.1,0,0.2,0,0.3,0c0.2,0,0.4,0,0.4-0.2
									c0-0.1,0-0.1,0-0.2c0-0.1,0-0.3,0-0.4c0-0.1,0-0.1,0-0.2c0-0.1-0.1-0.1-0.2-0.1C45.4,75,45.2,75.4,45.3,75.9z"/>
								<path class="st26" d="M43.1,74.6c-0.1,0.2-0.3,0.4-0.3,0.6c0,0.2,0.1,0.4,0.2,0.5c0.1,0.1,0.4,0.1,0.5,0
									c0.1-0.1,0.2-0.2,0.3-0.4c0.2-0.3,0.7-0.4,1.1-0.3c0.1,0,0.2,0,0.2,0c0.2,0,0.3-0.3,0.3-0.5c0-0.2,0.1-0.4-0.1-0.6
									c-0.1-0.1-0.2-0.1-0.4-0.1c-0.2,0-0.4-0.1-0.5-0.1C43.8,73.6,43.4,74.1,43.1,74.6z"/>
							</g>
							<g>
								<path class="st2" d="M50.1,69.7c0.2,0.1,0.3,0.3,0.5,0.5c0.2,0.2,0.4,0.3,0.6,0.2c0.3-0.1,0.4-0.5,0.7-0.7
									c0.2-0.1,0.5-0.1,0.7,0.1c0.2,0.3,0,0.7-0.2,1c-0.2,0.3-0.5,0.6-0.5,1c0,0.2,0.1,0.4,0.1,0.5c0.1,0.4,0,0.8-0.2,1.1
									c-0.1,0.2-0.3,0.4-0.6,0.4c-0.3,0-0.5-0.2-0.7-0.4c-0.2-0.2-0.3-0.4-0.5-0.6c-0.2-0.2-0.5-0.2-0.7-0.1
									c-0.1,0.1-0.2,0.3-0.3,0.4c-0.3,0.3-0.8,0.2-1.1-0.1c-0.6-0.8,0.3-1.6,0.6-2.2C48.7,70.3,49.2,69.2,50.1,69.7z"/>
								<path class="st26" d="M50.4,73C50.4,73,50.4,73,50.4,73c0,0.1,0.1,0.1,0.2,0.1c0.1,0,0.2,0,0.3,0c0.2,0,0.4,0,0.4-0.2
									c0-0.1,0-0.1,0-0.2c0-0.1,0-0.3,0-0.4c0-0.1,0-0.1,0-0.2c0-0.1-0.1-0.1-0.2-0.1C50.5,72,50.3,72.4,50.4,73z"/>
								<path class="st26" d="M48.2,71.6c-0.1,0.2-0.3,0.4-0.3,0.6c0,0.2,0.1,0.4,0.2,0.5c0.2,0.1,0.4,0.1,0.5,0
									c0.1-0.1,0.2-0.2,0.3-0.4c0.2-0.3,0.7-0.4,1.1-0.3c0.1,0,0.2,0,0.2,0c0.2,0,0.3-0.3,0.3-0.5c0-0.2,0.1-0.4-0.1-0.6
									c-0.1-0.1-0.2-0.1-0.3-0.1c-0.2,0-0.4-0.1-0.6-0.1C48.9,70.6,48.6,71.1,48.2,71.6z"/>
							</g>
							<g>
								<path class="st2" d="M39.6,65c-0.2,0.5-0.3,1.1-0.1,1.6c0.2,0.5,0.8,0.9,1.3,0.7c0.5-0.2,0.7-0.8,1-1.2
									c0.3-0.3,0.7-0.5,1.1-0.5c0.1,0,0.2,0,0.4,0c0.2-0.1,0.3-0.2,0.4-0.4c0.4-0.8,0.3-1.8-0.2-2.5c-0.2,0-0.5,0-0.7,0
									c-0.8,0-1.4,0.3-1.9,0.8C40.3,64,39.9,64.2,39.6,65z"/>
								<path class="st26" d="M40,66.5c0,0.1,0,0.1,0.1,0.2c0.1,0,0.1,0,0.2,0c0.1,0,0.1-0.1,0.1-0.2c0.1-0.2,0.2-0.3,0.3-0.5
									c0.1-0.1,0.3-0.3,0.5-0.3c0.2,0,0.4,0,0.6-0.1c0.2-0.1,0.3-0.3,0.2-0.5c0-0.2-0.2-0.4-0.3-0.5c-0.2-0.1-0.4-0.1-0.6-0.2
									c-0.5-0.1-1,0.1-1.3,0.5C39.8,65.4,39.9,66.1,40,66.5z"/>
							</g>
							<g>
								<path class="st2" d="M56.8,68.5c-0.2,0.5-0.3,1.1-0.1,1.6c0.2,0.5,0.8,0.9,1.3,0.7c0.5-0.2,0.7-0.8,1-1.2
									c0.3-0.3,0.7-0.5,1.1-0.5c0.1,0,0.2,0,0.4,0c0.2-0.1,0.3-0.2,0.4-0.4c0.4-0.8,0.3-1.8-0.2-2.5c-0.2,0-0.5,0-0.7,0
									c-0.8,0-1.4,0.3-1.9,0.8C57.6,67.5,57.1,67.8,56.8,68.5z"/>
								<path class="st26" d="M57.3,70c0,0.1,0,0.1,0.1,0.2c0.1,0,0.1,0,0.2,0c0.1,0,0.1-0.1,0.1-0.2c0.1-0.2,0.2-0.3,0.3-0.5
									s0.3-0.3,0.5-0.3c0.2,0,0.4,0,0.6-0.1c0.2-0.1,0.3-0.3,0.2-0.5c0-0.2-0.2-0.4-0.3-0.5c-0.2-0.1-0.4-0.1-0.6-0.2
									c-0.5-0.1-1,0.1-1.3,0.5C57.1,68.9,57.2,69.6,57.3,70z"/>
							</g>
							<g>
								<path class="st2" d="M49.7,74.3c-0.2,0.5-0.3,1.1-0.1,1.6c0.2,0.5,0.8,0.9,1.3,0.7c0.5-0.2,0.7-0.8,1-1.2
									c0.3-0.3,0.7-0.5,1.1-0.5c0.1,0,0.2,0,0.4,0c0.2-0.1,0.3-0.2,0.4-0.4c0.4-0.8,0.3-1.8-0.2-2.5c-0.2,0-0.5,0-0.7,0
									c-0.8,0-1.4,0.3-1.9,0.8C50.4,73.3,50,73.6,49.7,74.3z"/>
								<path class="st26" d="M50.1,75.8c0,0.1,0,0.1,0.1,0.2c0.1,0,0.1,0,0.2,0c0.1,0,0.1-0.1,0.1-0.2c0.1-0.2,0.2-0.3,0.3-0.5
									c0.1-0.1,0.3-0.3,0.5-0.3c0.2,0,0.4,0,0.6-0.1c0.2-0.1,0.3-0.3,0.2-0.5c0-0.2-0.2-0.4-0.3-0.5c-0.2-0.1-0.4-0.1-0.6-0.2
									c-0.5-0.1-1,0.1-1.3,0.5C49.9,74.8,50,75.4,50.1,75.8z"/>
							</g>
							<path class="st26" d="M42.2,74.6c0,0.2,0,0.4,0.1,0.5c0,0.1,0.1,0.1,0.2,0.2c0.1,0,0.1,0,0.2,0c0.2,0,0.4-0.2,0.6-0.3
								c0,0,0.1-0.1,0.1-0.1c0,0,0-0.1,0.1-0.2c0-0.3-0.3-0.7-0.6-0.8C42.5,73.9,42.2,74.4,42.2,74.6z"/>
							<g>
								<path class="st2" d="M54.6,72.8c0.1,0.4,0.4,0.7,0.8,0.6c0.2,0,0.4-0.2,0.5-0.3c0.3-0.3,0.5-0.7,0.9-1
									c0.3-0.3,0.8-0.5,1.2-0.3c0.3,0.1,0.5,0.4,0.9,0.4c0.4,0.1,0.8-0.2,0.9-0.6c0.1-0.4,0-0.8-0.3-1.1c-0.3-0.3-0.7-0.4-1.1-0.5
									c-0.2,0-0.5,0-0.7,0.1c-0.3,0.1-0.5,0.4-0.8,0.6c-0.4,0.2-1,0.2-1.4,0.4C54.9,71.5,54.5,72.2,54.6,72.8z"/>
								<path class="st26" d="M55.5,71.6c-0.2,0.2-0.4,0.4-0.5,0.6c0,0.1-0.1,0.2,0,0.3c0,0.1,0.1,0.2,0.2,0.3c0.1,0,0.2,0,0.3-0.1
									c0.1-0.1,0.2-0.2,0.2-0.3c0.1-0.2,0.3-0.3,0.4-0.4c0.1-0.1,0.2-0.2,0.4-0.2c0.1,0,0.2,0,0.2-0.1c0,0,0-0.1,0-0.2
									c0-0.1-0.1-0.1-0.1-0.1c-0.1-0.1-0.3-0.2-0.5-0.2C56,71.3,55.6,71.4,55.5,71.6z"/>
								<path class="st26" d="M58.1,70.9C58,71,58,71.2,58,71.4c0.1,0.2,0.3,0.3,0.5,0.3c0.2,0,0.4-0.1,0.5-0.2c0,0,0.1-0.1,0.1-0.1
									c0.1-0.1,0-0.3-0.1-0.4c-0.1-0.1-0.2-0.2-0.3-0.2c-0.2-0.1-0.5-0.1-0.7-0.2c-0.1,0-0.3,0-0.4,0.1L58.1,70.9z"/>
							</g>
							<g>
								<path class="st2" d="M45.1,71c-0.4,0.5-0.7,1.1-1.1,1.7c0.2,0.4,0.5,0.9,1,1.1c0.4,0.2,0.9,0.2,1.3,0
									c0.4-0.2,0.8-0.5,1.1-0.8c0.2-0.2,0.3-0.4,0.2-0.6c0-0.1-0.1-0.2-0.2-0.3c-0.1-0.2,0-0.5,0.2-0.7c0.2-0.2,0.5-0.2,0.7-0.3
									c0.2-0.1,0.5-0.2,0.6-0.5c0.1-0.3-0.1-0.7-0.3-0.9c-0.3-0.2-0.6-0.2-1-0.3c-0.1,0-0.3,0-0.4,0c-0.2,0.1-0.2,0.3-0.4,0.4
									c-0.2,0.1-0.4,0.1-0.6,0.2C45.7,70.3,45.4,70.6,45.1,71z"/>
								<path class="st26" d="M44.8,73.1c0,0.1,0,0.2,0.1,0.3c0.1,0.1,0.4,0.1,0.5-0.1c0.2-0.1,0.3-0.3,0.5-0.3c0.1,0,0.3,0,0.4-0.1
									c0.1-0.1,0.2-0.2,0.2-0.4c0-0.3-0.1-0.6-0.4-0.8C45.3,71.3,44.7,72.5,44.8,73.1z"/>
								<path class="st26" d="M46.6,70.8c0,0,0,0.1,0,0.1c0,0.1,0.2,0.1,0.3,0.1c0.4,0,0.8-0.2,1.1-0.4c0.3-0.3-0.2-0.6-0.5-0.6
									C47.2,70.1,46.7,70.5,46.6,70.8z"/>
							</g>
							<g>
								<path class="st2" d="M59.7,69.9c-0.4,0.5-0.7,1.1-1.1,1.7c0.2,0.4,0.5,0.9,1,1.1c0.4,0.2,0.9,0.2,1.3,0
									c0.4-0.2,0.8-0.5,1.1-0.8c0.2-0.2,0.3-0.4,0.2-0.6c0-0.1-0.1-0.2-0.2-0.3c-0.1-0.2,0-0.5,0.2-0.7c0.2-0.2,0.5-0.2,0.7-0.3
									c0.2-0.1,0.5-0.2,0.6-0.5c0.1-0.3-0.1-0.7-0.3-0.9c-0.3-0.2-0.6-0.2-1-0.3c-0.1,0-0.3,0-0.4,0c-0.2,0.1-0.2,0.3-0.4,0.4
									c-0.2,0.1-0.4,0.1-0.6,0.2C60.3,69.2,60,69.5,59.7,69.9z"/>
								<path class="st26" d="M59.4,72c0,0.1,0,0.2,0.1,0.3c0.1,0.1,0.4,0.1,0.5-0.1c0.2-0.1,0.3-0.3,0.5-0.3c0.1,0,0.3,0,0.4-0.1
									c0.1-0.1,0.2-0.2,0.2-0.4c0-0.3-0.1-0.6-0.4-0.8C59.9,70.2,59.3,71.3,59.4,72z"/>
								<path class="st26" d="M61.2,69.7c0,0,0,0.1,0,0.1c0,0.1,0.2,0.1,0.3,0.1c0.4,0,0.8-0.2,1.1-0.4c0.3-0.3-0.2-0.6-0.5-0.6
									C61.8,69,61.3,69.3,61.2,69.7z"/>
							</g>
							<g>
								<path class="st2" d="M47.8,63.9c-0.4,0.5-0.7,1.1-1.1,1.7c0.2,0.4,0.5,0.9,1,1.1c0.4,0.2,0.9,0.2,1.3,0
									c0.4-0.2,0.8-0.5,1.1-0.8c0.2-0.2,0.3-0.4,0.2-0.6c0-0.1-0.1-0.2-0.2-0.3c-0.1-0.2,0-0.5,0.2-0.7c0.2-0.2,0.5-0.2,0.7-0.3
									c0.2-0.1,0.5-0.2,0.6-0.5c0.1-0.3-0.1-0.7-0.3-0.9c-0.3-0.2-0.6-0.2-1-0.3c-0.1,0-0.3,0-0.4,0c-0.2,0.1-0.2,0.3-0.4,0.4
									C49.2,63,49,63,48.8,63.1C48.4,63.3,48.1,63.6,47.8,63.9z"/>
								<path class="st26" d="M47.5,66.1c0,0.1,0,0.2,0.1,0.3c0.1,0.1,0.4,0.1,0.5-0.1c0.2-0.1,0.3-0.3,0.5-0.3c0.1,0,0.3,0,0.4-0.1
									c0.1-0.1,0.2-0.2,0.2-0.4c0-0.3-0.1-0.6-0.4-0.8C47.9,64.2,47.4,65.4,47.5,66.1z"/>
								<path class="st26" d="M49.3,63.8c0,0,0,0.1,0,0.1c0,0.1,0.2,0.1,0.3,0.1c0.4,0,0.8-0.2,1.1-0.4c0.3-0.3-0.2-0.6-0.5-0.6
									C49.9,63.1,49.4,63.4,49.3,63.8z"/>
							</g>
							<g>
								<path class="st2" d="M42.9,66.8c0.1,0,0.2,0,0.3,0.1c0.1,0.1,0.1,0.3,0.1,0.4c-0.1,0.3-0.1,0.7-0.2,1c0,0.1,0,0.2,0,0.3
									c0.1,0.2,0.4,0.2,0.6,0.2c0.5,0,1.1,0.2,1.3,0.6c0.2,0.5,0,1-0.3,1.4c-0.2,0.2-0.3,0.5-0.6,0.6c-0.2,0.2-0.5,0.2-0.8,0.1
									c-0.7-0.3-0.7-1.5-1.4-1.7c-0.4-0.1-0.8,0.2-1,0.6c-0.1,0.2-0.3,0.5-0.6,0.4c-0.1,0-0.1-0.1-0.2-0.1
									c-0.5-0.4-0.7-1.1-0.5-1.6c0.2-0.7,0.9-0.8,1.4-1.1C41.8,67.5,42,66.9,42.9,66.8z"/>
								<path class="st26" d="M40.2,69.7c0,0.1,0,0.2,0.1,0.3c0.1,0.1,0.2,0.1,0.3,0c0.3-0.1,0.5-0.4,0.7-0.5c0.1,0,0.1,0,0.2-0.1
									c0.1,0,0.1-0.1,0.1-0.2c0-0.1-0.1-0.2-0.2-0.2c-0.2-0.1-0.6-0.3-0.9-0.2C40.3,69.1,40.2,69.5,40.2,69.7z"/>
								<path class="st26" d="M42.9,70.2c0.2,0.1,0.4,0.3,0.4,0.5c0.4,0.1,0.8-0.1,1.1-0.4c0.1-0.1,0.2-0.3,0.2-0.4
									c0-0.2-0.2-0.5-0.4-0.6s-0.4-0.2-0.7-0.3c-0.4-0.1-1.2-0.4-1.4,0.2C41.9,69.7,42.5,70,42.9,70.2z"/>
							</g>
							<g>
								<path class="st2" d="M43.7,66.4c0,0.2,0,0.3,0.1,0.4c0.1,0,0.1,0,0.2,0.1c0.5,0,1-0.1,1.4,0.1c0.4,0.1,0.7,0.5,0.9,0.9
									c0.2,0.4,0.3,0.8,0.5,1.2c0.1,0.2,0.1,0.3,0.3,0.4c0.2,0.2,0.5,0.2,0.8,0.2c0.6-0.1,1.1-0.6,1.3-1.2
									c0.2-0.6,0.3-1.2,0.3-1.8c0-0.1,0-0.3,0-0.4c-0.1-0.2-0.2-0.3-0.4-0.4c-0.5-0.3-1.1-0.3-1.6-0.4c-0.2,0-0.5,0-0.7,0.1
									c-0.1,0.1-0.1,0.2-0.2,0.3c-0.2,0.2-0.6,0.1-0.8,0c-0.3-0.1-0.5-0.3-0.8-0.4C44.4,65.2,43.7,65.9,43.7,66.4z"/>
								<path class="st26" d="M46.8,66.7c-0.2,0.4,0.3,0.4,0.4,0.8c0,0.2-0.1,0.3-0.1,0.5c-0.1,0.2-0.1,0.3-0.1,0.5
									c0,0.2,0.2,0.3,0.3,0.4c0.2,0.1,0.4,0.1,0.5,0c0.1,0,0.1,0,0.2-0.1c0.1,0,0.1-0.1,0.2-0.2c0.2-0.2,0.3-0.5,0.4-0.8
									c0.1-0.2,0.3-0.5,0.3-0.7c0-0.2-0.1-0.3-0.1-0.5c-0.2-0.4-0.6-0.6-1.1-0.6C47.3,66.1,47,66.3,46.8,66.7z"/>
								<path class="st26" d="M47.7,67.9c-0.1,0.1-0.3,0.2-0.4,0.4c0,0.1,0,0.2,0.1,0.3c0.1,0.1,0.2,0.1,0.3,0.1
									c0.2,0,0.5-0.1,0.7-0.3c0.2-0.2,0.2-0.4,0.3-0.7c0-0.1,0-0.3-0.1-0.4c-0.1-0.2-0.5-0.4-0.7-0.2c-0.1,0.1,0,0.3,0,0.4
									C47.9,67.6,47.8,67.8,47.7,67.9z"/>
								<path class="st26" d="M45.1,66.4c0.1,0,0.2-0.1,0.3-0.2c0.2-0.3-0.4-0.4-0.6-0.3c-0.2,0-0.4,0.1-0.6,0.3
									C43.7,66.7,44.9,66.5,45.1,66.4z"/>
							</g>
							<g>
								<path class="st2" d="M44.1,74.3c0,0.2,0,0.3,0.1,0.4c0.1,0,0.1,0,0.2,0.1c0.5,0,1-0.1,1.4,0.1c0.4,0.1,0.7,0.5,0.9,0.9
									c0.2,0.4,0.3,0.8,0.5,1.2c0.1,0.2,0.1,0.3,0.3,0.4c0.2,0.2,0.5,0.2,0.8,0.2c0.6-0.1,1.1-0.6,1.3-1.2
									c0.2-0.6,0.3-1.2,0.3-1.8c0-0.1,0-0.3,0-0.4c-0.1-0.2-0.2-0.3-0.4-0.4c-0.5-0.3-1.1-0.3-1.6-0.4c-0.2,0-0.5,0-0.7,0.1
									c-0.1,0.1-0.1,0.2-0.2,0.3c-0.2,0.2-0.6,0.1-0.8,0c-0.3-0.1-0.5-0.3-0.8-0.4C44.9,73,44.2,73.7,44.1,74.3z"/>
								<path class="st26" d="M47.2,74.6c-0.2,0.4,0.3,0.4,0.4,0.8c0,0.2-0.1,0.3-0.1,0.5c-0.1,0.2-0.1,0.3-0.1,0.5
									c0,0.2,0.2,0.3,0.3,0.4c0.2,0.1,0.4,0.1,0.5,0c0.1,0,0.1,0,0.2-0.1c0.1,0,0.1-0.1,0.2-0.2c0.2-0.2,0.3-0.5,0.4-0.8
									c0.1-0.2,0.3-0.5,0.3-0.7c0-0.2-0.1-0.3-0.1-0.5C49,74.2,48.6,74,48.2,74C47.7,73.9,47.4,74.2,47.2,74.6z"/>
								<path class="st26" d="M48.1,75.7c-0.1,0.1-0.3,0.2-0.4,0.4c0,0.1,0,0.2,0.1,0.3c0.1,0.1,0.2,0.1,0.3,0.1
									c0.2,0,0.5-0.1,0.7-0.3c0.2-0.2,0.2-0.4,0.3-0.7c0-0.1,0-0.3-0.1-0.4c-0.1-0.2-0.5-0.4-0.7-0.2c-0.1,0.1,0,0.3,0,0.4
									C48.3,75.5,48.2,75.6,48.1,75.7z"/>
								<path class="st26" d="M45.6,74.3c0.1,0,0.2-0.1,0.3-0.2c0.2-0.3-0.4-0.4-0.6-0.3c-0.2,0-0.4,0.1-0.6,0.3
									C44.2,74.6,45.3,74.4,45.6,74.3z"/>
							</g>
							<g>
								<path class="st2" d="M31.9,68.7c0,0.2,0,0.3,0.1,0.4c0.1,0,0.1,0,0.2,0.1c0.5,0,1-0.1,1.4,0.1c0.4,0.1,0.7,0.5,0.9,0.9
									c0.2,0.4,0.3,0.8,0.5,1.2c0.1,0.2,0.1,0.3,0.3,0.4c0.2,0.2,0.5,0.2,0.8,0.2c0.6-0.1,1.1-0.6,1.3-1.2
									c0.2-0.6,0.3-1.2,0.3-1.8c0-0.1,0-0.3,0-0.4c-0.1-0.2-0.2-0.3-0.4-0.4c-0.5-0.3-1.1-0.3-1.6-0.4c-0.2,0-0.5,0-0.7,0.1
									c-0.1,0.1-0.1,0.2-0.2,0.3c-0.2,0.2-0.6,0.1-0.8,0c-0.3-0.1-0.5-0.3-0.8-0.4C32.7,67.4,32,68.1,31.9,68.7z"/>
								<path class="st26" d="M35,69c-0.2,0.4,0.3,0.4,0.4,0.8c0,0.2-0.1,0.3-0.1,0.5c-0.1,0.2-0.1,0.3-0.1,0.5
									c0,0.2,0.2,0.3,0.3,0.4c0.2,0.1,0.4,0.1,0.5,0c0.1,0,0.1,0,0.2-0.1c0.1,0,0.1-0.1,0.2-0.2c0.2-0.2,0.3-0.5,0.4-0.8
									c0.1-0.2,0.3-0.5,0.3-0.7c0-0.2-0.1-0.3-0.1-0.5c-0.2-0.4-0.6-0.6-1.1-0.6C35.5,68.3,35.2,68.6,35,69z"/>
								<path class="st26" d="M35.9,70.1c-0.1,0.1-0.3,0.2-0.4,0.4c0,0.1,0,0.2,0.1,0.3c0.1,0.1,0.2,0.1,0.3,0.1
									c0.2,0,0.5-0.1,0.7-0.3c0.2-0.2,0.2-0.4,0.3-0.7c0-0.1,0-0.3-0.1-0.4c-0.1-0.2-0.5-0.4-0.7-0.2c-0.1,0.1,0,0.3,0,0.4
									C36.1,69.9,36,70,35.9,70.1z"/>
								<path class="st26" d="M33.3,68.7c0.1,0,0.2-0.1,0.3-0.2c0.2-0.3-0.4-0.4-0.6-0.3c-0.2,0-0.4,0.1-0.6,0.3
									C32,69,33.1,68.7,33.3,68.7z"/>
							</g>
							<g>
								<path class="st2" d="M45.9,66.3c0,0.2,0,0.3,0.1,0.4c0.1,0,0.1,0,0.2,0.1c0.5,0,1-0.1,1.4,0.1c0.4,0.1,0.7,0.5,0.9,0.9
									c0.2,0.4,0.3,0.8,0.5,1.2c0.1,0.2,0.1,0.3,0.3,0.4c0.2,0.2,0.5,0.2,0.8,0.2c0.6-0.1,1.1-0.6,1.3-1.2
									c0.2-0.6,0.3-1.2,0.3-1.8c0-0.1,0-0.3,0-0.4c-0.1-0.2-0.2-0.3-0.4-0.4c-0.5-0.3-1.1-0.3-1.6-0.4c-0.2,0-0.5,0-0.7,0.1
									c-0.1,0.1-0.1,0.2-0.2,0.3c-0.2,0.2-0.6,0.1-0.8,0c-0.3-0.1-0.5-0.3-0.8-0.4C46.7,65,46,65.7,45.9,66.3z"/>
								<path class="st26" d="M49,66.6c-0.2,0.4,0.3,0.4,0.4,0.8c0,0.2-0.1,0.3-0.1,0.5c-0.1,0.2-0.1,0.3-0.1,0.5
									c0,0.2,0.2,0.3,0.3,0.4c0.2,0.1,0.4,0.1,0.5,0c0.1,0,0.1,0,0.2-0.1c0.1,0,0.1-0.1,0.2-0.2c0.2-0.2,0.3-0.5,0.4-0.8
									c0.1-0.2,0.3-0.5,0.3-0.7c0-0.2-0.1-0.3-0.1-0.5C50.8,66.2,50.4,66,50,66C49.5,65.9,49.2,66.2,49,66.6z"/>
								<path class="st26" d="M49.9,67.7c-0.1,0.1-0.3,0.2-0.4,0.4c0,0.1,0,0.2,0.1,0.3c0.1,0.1,0.2,0.1,0.3,0.1
									c0.2,0,0.5-0.1,0.7-0.3c0.2-0.2,0.2-0.4,0.3-0.7c0-0.1,0-0.3-0.1-0.4c-0.1-0.2-0.5-0.4-0.7-0.2c-0.1,0.1,0,0.3,0,0.4
									C50.1,67.5,50,67.6,49.9,67.7z"/>
								<path class="st26" d="M47.4,66.3c0.1,0,0.2-0.1,0.3-0.2c0.2-0.3-0.4-0.4-0.6-0.3c-0.2,0-0.4,0.1-0.6,0.3
									C46,66.6,47.1,66.4,47.4,66.3z"/>
							</g>
							<g>
								<path class="st2" d="M51,63.4c0,0.2,0,0.3,0.1,0.4c0.1,0,0.1,0,0.2,0.1c0.5,0,1-0.1,1.4,0.1c0.4,0.1,0.7,0.5,0.9,0.9
									c0.2,0.4,0.3,0.8,0.5,1.2c0.1,0.2,0.1,0.3,0.3,0.4c0.2,0.2,0.5,0.2,0.8,0.2c0.6-0.1,1.1-0.6,1.3-1.2
									c0.2-0.6,0.3-1.2,0.3-1.8c0-0.1,0-0.3,0-0.4c-0.1-0.2-0.2-0.3-0.4-0.4c-0.5-0.3-1.1-0.3-1.6-0.4c-0.2,0-0.5,0-0.7,0.1
									c-0.1,0.1-0.1,0.2-0.2,0.3c-0.2,0.2-0.6,0.1-0.8,0c-0.3-0.1-0.5-0.3-0.8-0.4C51.8,62.2,51.1,62.9,51,63.4z"/>
								<path class="st26" d="M54.2,63.8c-0.2,0.4,0.3,0.4,0.4,0.8c0,0.2-0.1,0.3-0.1,0.5c-0.1,0.2-0.1,0.3-0.1,0.5
									c0,0.2,0.2,0.3,0.3,0.4c0.2,0.1,0.4,0.1,0.5,0c0.1,0,0.1,0,0.2-0.1c0.1,0,0.1-0.1,0.2-0.2c0.2-0.2,0.3-0.5,0.4-0.8
									c0.1-0.2,0.3-0.5,0.3-0.7c0-0.2-0.1-0.3-0.1-0.5c-0.2-0.4-0.6-0.6-1.1-0.6C54.6,63.1,54.3,63.3,54.2,63.8z"/>
								<path class="st26" d="M55.1,64.9c-0.1,0.1-0.3,0.2-0.4,0.4c0,0.1,0,0.2,0.1,0.3c0.1,0.1,0.2,0.1,0.3,0.1
									c0.2,0,0.5-0.1,0.7-0.3c0.2-0.2,0.2-0.4,0.3-0.7c0-0.1,0-0.3-0.1-0.4c-0.1-0.2-0.5-0.4-0.7-0.2c-0.1,0.1,0,0.3,0,0.4
									C55.2,64.6,55.2,64.8,55.1,64.9z"/>
								<path class="st26" d="M52.5,63.4c0.1,0,0.2-0.1,0.3-0.2c0.2-0.3-0.4-0.4-0.6-0.3c-0.2,0-0.4,0.1-0.6,0.3
									C51.1,63.7,52.3,63.5,52.5,63.4z"/>
							</g>
							<g>
								<path class="st2" d="M39.2,71c0,0.2,0,0.3,0.1,0.4c0.1,0,0.1,0,0.2,0.1c0.5,0,1-0.1,1.4,0.1c0.4,0.1,0.7,0.5,0.9,0.9
									c0.2,0.4,0.3,0.8,0.5,1.2c0.1,0.2,0.1,0.3,0.3,0.4c0.2,0.2,0.5,0.2,0.8,0.2c0.6-0.1,1.1-0.6,1.3-1.2
									c0.2-0.6,0.3-1.2,0.3-1.8c0-0.1,0-0.3,0-0.4c-0.1-0.2-0.2-0.3-0.4-0.4c-0.5-0.3-1.1-0.3-1.6-0.4c-0.2,0-0.5,0-0.7,0.1
									c-0.1,0.1-0.1,0.2-0.2,0.3c-0.2,0.2-0.6,0.1-0.8,0c-0.3-0.1-0.5-0.3-0.8-0.4C40,69.8,39.3,70.5,39.2,71z"/>
								<path class="st26" d="M42.4,71.4c-0.2,0.4,0.3,0.4,0.4,0.8c0,0.2-0.1,0.3-0.1,0.5c-0.1,0.2-0.1,0.3-0.1,0.5
									c0,0.2,0.2,0.3,0.3,0.4c0.2,0.1,0.4,0.1,0.5,0c0.1,0,0.1,0,0.2-0.1c0.1,0,0.1-0.1,0.2-0.2c0.2-0.2,0.3-0.5,0.4-0.8
									c0.1-0.2,0.3-0.5,0.3-0.7c0-0.2-0.1-0.3-0.1-0.5c-0.2-0.4-0.6-0.6-1.1-0.6C42.8,70.7,42.6,71,42.4,71.4z"/>
								<path class="st26" d="M43.3,72.5c-0.1,0.1-0.3,0.2-0.4,0.4c0,0.1,0,0.2,0.1,0.3c0.1,0.1,0.2,0.1,0.3,0.1
									c0.2,0,0.5-0.1,0.7-0.3s0.2-0.4,0.3-0.7c0-0.1,0-0.3-0.1-0.4c-0.1-0.2-0.5-0.4-0.7-0.2c-0.1,0.1,0,0.3,0,0.4
									C43.4,72.3,43.4,72.4,43.3,72.5z"/>
								<path class="st26" d="M40.7,71.1c0.1,0,0.2-0.1,0.3-0.2c0.2-0.3-0.4-0.4-0.6-0.3c-0.2,0-0.4,0.1-0.6,0.3
									C39.3,71.4,40.5,71.1,40.7,71.1z"/>
							</g>
							<g>
								<path class="st2" d="M45.6,61.4c0,0.2,0,0.3,0.1,0.4c0.1,0,0.1,0,0.2,0.1c0.5,0,1-0.1,1.4,0.1c0.4,0.1,0.7,0.5,0.9,0.9
									c0.2,0.4,0.3,0.8,0.5,1.2c0.1,0.2,0.1,0.3,0.3,0.4c0.2,0.2,0.5,0.2,0.8,0.2c0.6-0.1,1.1-0.6,1.3-1.2
									c0.2-0.6,0.3-1.2,0.3-1.8c0-0.1,0-0.3,0-0.4c-0.1-0.2-0.2-0.3-0.4-0.4c-0.5-0.3-1.1-0.3-1.6-0.4c-0.2,0-0.5,0-0.7,0.1
									c-0.1,0.1-0.1,0.2-0.2,0.3c-0.2,0.2-0.6,0.1-0.8,0c-0.3-0.1-0.5-0.3-0.8-0.4C46.4,60.1,45.7,60.9,45.6,61.4z"/>
								<path class="st26" d="M48.8,61.7c-0.2,0.4,0.3,0.4,0.4,0.8c0,0.2-0.1,0.3-0.1,0.5c-0.1,0.2-0.1,0.3-0.1,0.5
									c0,0.2,0.2,0.3,0.3,0.4c0.2,0.1,0.4,0.1,0.5,0c0.1,0,0.1,0,0.2-0.1c0.1,0,0.1-0.1,0.2-0.2c0.2-0.2,0.3-0.5,0.4-0.8
									c0.1-0.2,0.3-0.5,0.3-0.7c0-0.2-0.1-0.3-0.1-0.5c-0.2-0.4-0.6-0.6-1.1-0.6C49.2,61.1,48.9,61.3,48.8,61.7z"/>
								<path class="st26" d="M49.7,62.9c-0.1,0.1-0.3,0.2-0.4,0.4c0,0.1,0,0.2,0.1,0.3c0.1,0.1,0.2,0.1,0.3,0.1
									c0.2,0,0.5-0.1,0.7-0.3c0.2-0.2,0.2-0.4,0.3-0.7c0-0.1,0-0.3-0.1-0.4c-0.1-0.2-0.5-0.4-0.7-0.2c-0.1,0.1,0,0.3,0,0.4
									C49.8,62.6,49.8,62.7,49.7,62.9z"/>
								<path class="st26" d="M47.1,61.4c0.1,0,0.2-0.1,0.3-0.2c0.2-0.3-0.4-0.4-0.6-0.3c-0.2,0-0.4,0.1-0.6,0.3
									C45.7,61.7,46.9,61.5,47.1,61.4z"/>
							</g>
							<g>
								<path class="st2" d="M41.3,72.1c0.5,0.2,0.7,0.7,1.2,0.9c0.4,0.1,0.8,0,1.1,0.2c0.4,0.2,0.5,0.8,0.5,1.2
									c0,0.5,0,1.1-0.4,1.4c-0.1,0.1-0.3,0.2-0.5,0.2c-0.6,0.1-1.2,0-1.5-0.5c-0.2-0.3-0.2-0.6-0.5-0.8c-0.3-0.3-0.9-0.2-1.2-0.5
									c-0.2-0.3-0.5-1.2-0.4-1.6C40,72,40.8,72.1,41.3,72.1z"/>
								<path class="st26" d="M40.5,73.7c0,0.1,0.1,0.1,0.2,0.2c0.1,0,0.2,0,0.3,0c0.3,0,0.7,0,1,0c0,0,0.1,0,0.1,0
									c0.1,0,0.1-0.1,0-0.2c-0.1-0.6-0.5-1.1-1.1-1.3c-0.2-0.1-0.6,0-0.8,0.2C40.1,72.9,40.4,73.5,40.5,73.7z"/>
							</g>
							<g>
								<path class="st2" d="M48.3,75c0.1,0,0.2-0.1,0.3,0c0.2,0,0.3,0.4,0.3,0.6c0,0.5,0.3,1,0.5,1.5c0.2,0.5,0.2,1.1-0.2,1.5
									c-0.4,0.3-1,0.2-1.4,0.1c-0.2-0.1-0.4-0.1-0.5-0.1c-0.4,0.1-0.5,0.6-0.9,0.7c-0.4,0.2-0.8-0.2-1.1-0.6
									c-0.1-0.1-0.2-0.2-0.2-0.3c0-0.2,0-0.3,0.1-0.4c0.4-0.7,1.2-1,1.9-1c0.2,0,0.3,0,0.5-0.1c0.2-0.1,0.3-0.4,0.3-0.6
									c-0.1-0.3-0.6-0.7-0.4-1C47.5,74.9,48,75.1,48.3,75z"/>
								<path class="st26" d="M48.8,77.4c-0.1-0.3-0.6-0.4-0.9-0.4c-0.4,0-0.9,0.1-1.3,0.1c-0.6,0.1-1.1,0.3-1.4,0.8
									c-0.1,0.3-0.1,0.4,0.1,0.6c0.2,0.2,0.5,0.3,0.8,0.2c0.3-0.1,0.4-0.4,0.6-0.5c0.3-0.2,0.6-0.2,0.9-0.1
									c0.2,0.1,0.4,0.3,0.6,0.2c0.2,0,0.3-0.2,0.4-0.4C48.9,77.8,48.9,77.6,48.8,77.4z"/>
								<path class="st26" d="M46,78.2c0.2-0.2,0.5-0.3,0.8-0.3c0.2,0,0.4,0.1,0.6,0.1c0.3,0,0.5-0.1,0.8-0.2
									c-0.1-0.1-0.3-0.2-0.4-0.2c-0.3-0.1-0.7,0-1,0c-0.2,0-0.4,0-0.6,0c-0.2,0-0.3,0.2-0.4,0.3C45.5,78.2,45.7,78.4,46,78.2z"/>
							</g>
							<g>
								<path class="st2" d="M48.6,70.6c0.1,0,0.2-0.1,0.3,0c0.2,0,0.3,0.4,0.3,0.6c0,0.5,0.3,1,0.5,1.5c0.2,0.5,0.2,1.1-0.2,1.5
									c-0.4,0.3-1,0.2-1.4,0.1c-0.2-0.1-0.4-0.1-0.5-0.1c-0.4,0.1-0.5,0.6-0.9,0.7c-0.4,0.2-0.8-0.2-1.1-0.6
									c-0.1-0.1-0.2-0.2-0.2-0.3c0-0.2,0-0.3,0.1-0.4c0.4-0.7,1.2-1,1.9-1c0.2,0,0.3,0,0.5-0.1c0.2-0.1,0.3-0.4,0.3-0.6
									c-0.1-0.3-0.6-0.7-0.4-1C47.8,70.5,48.4,70.7,48.6,70.6z"/>
								<path class="st26" d="M49.2,73c-0.1-0.3-0.6-0.4-0.9-0.4c-0.4,0-0.9,0.1-1.3,0.1c-0.6,0.1-1.1,0.3-1.4,0.8
									c-0.1,0.3-0.1,0.4,0.1,0.6c0.2,0.2,0.5,0.3,0.8,0.2c0.3-0.1,0.4-0.4,0.6-0.5c0.3-0.2,0.6-0.2,0.9-0.1
									c0.2,0.1,0.4,0.3,0.6,0.2c0.2,0,0.3-0.2,0.4-0.4C49.2,73.4,49.3,73.2,49.2,73z"/>
								<path class="st26" d="M46.4,73.8c0.2-0.2,0.5-0.3,0.8-0.3c0.2,0,0.4,0.1,0.6,0.1c0.3,0,0.5-0.1,0.8-0.2
									c-0.1-0.1-0.3-0.2-0.4-0.2c-0.3-0.1-0.7,0-1,0c-0.2,0-0.4,0-0.6,0c-0.2,0-0.3,0.2-0.4,0.3C45.9,73.8,46.1,74,46.4,73.8z"/>
							</g>
							<g>
								<path class="st2" d="M54.2,68.2c0,0.4,0.3,0.7,0.7,0.8c0.4,0.1,0.8-0.1,1-0.4c0.1-0.2,0.2-0.4,0.3-0.5
									c0.2-0.2,0.7-0.2,0.9,0c0.3,0.2,0.4,0.5,0.6,0.8c0.1,0.2,0.2,0.4,0.1,0.6c0,0.2-0.2,0.3-0.4,0.4c-0.7,0.4-1.8,0-2.4,0.5
									c-0.4,0.3-0.5,0.9-0.4,1.3c0,0.5,0.2,1,0.1,1.5c-0.4,0.1-0.9,0.1-1.3-0.2c-0.3-0.3-0.5-0.7-0.5-1.2c0-0.2,0.1-0.5,0-0.7
									c-0.1-0.1-0.2-0.1-0.3-0.2c-0.7-0.2-1.7,0.5-2.3-0.2c-0.6-0.7,0.1-1.5,0.7-1.9c0.3-0.2,0.6-0.2,0.8-0.4
									c0.4-0.2,0.5-0.6,0.8-0.9c0.3-0.3,0.8-0.6,1.2-0.5C54.4,67.3,54.2,67.8,54.2,68.2z"/>
								<path class="st26" d="M52.9,68.7c-0.2,0.2-0.3,0.4-0.5,0.6c-0.1,0.1-0.2,0.2-0.3,0.3c-0.1,0.1-0.3,0.1-0.4,0.1
									c-0.2,0-0.4,0-0.6-0.1c-0.2-0.1-0.4-0.1-0.5-0.1c-0.1,0-0.2,0.1-0.2,0.2c-0.1,0.3,0,0.7,0.2,0.9c0.2,0.2,0.6,0.3,0.9,0.2
									c0.3,0,0.6-0.2,0.9-0.3c0.2-0.1,0.4-0.2,0.7-0.3c0.2,0,0.4,0,0.6,0.1c0.1,0,0.2,0.1,0.3,0c0.1,0,0.1-0.1,0.1-0.1
									c0.1-0.3,0.2-0.6,0-0.9c-0.1-0.3-0.4-0.6-0.6-0.9c-0.1-0.2-0.1-0.3-0.3-0.2C53.2,68.3,53,68.5,52.9,68.7z"/>
								<path class="st26" d="M51.6,70c-0.1,0-0.2,0-0.3-0.1c-0.1,0-0.2,0-0.3,0c-0.1,0-0.2,0.2-0.1,0.3c0,0.1,0.1,0.1,0.2,0.1
									c0.7,0.1,1.3-0.3,2-0.3c0.2,0,0.3,0.1,0.4-0.1c0.1-0.1,0.1-0.3,0.1-0.4c0,0,0-0.1,0-0.1c0,0-0.1,0-0.1,0
									c-0.4-0.1-0.9,0-1.3,0.3L51.6,70z"/>
								<path class="st26" d="M53.5,72.3c0,0.1,0,0.2,0.1,0.3c0.1,0.1,0.1,0.2,0.3,0.2c0,0,0.1,0,0.1,0c0,0,0,0,0-0.1
									c0.2-0.4,0.2-0.8,0.1-1.3c-0.1-0.3-0.4-0.5-0.6-0.2C53.3,71.5,53.4,72,53.5,72.3z"/>
							</g>
							<g>
								<path class="st2" d="M53.6,65.1c0,0.4,0.3,0.7,0.7,0.8c0.4,0.1,0.8-0.1,1-0.4c0.1-0.2,0.2-0.4,0.3-0.5
									c0.2-0.2,0.7-0.2,0.9,0c0.3,0.2,0.4,0.5,0.6,0.8c0.1,0.2,0.2,0.4,0.1,0.6c0,0.2-0.2,0.3-0.4,0.4c-0.7,0.4-1.8,0-2.4,0.5
									c-0.4,0.3-0.5,0.9-0.4,1.3c0,0.5,0.2,1,0.1,1.5c-0.4,0.1-0.9,0.1-1.3-0.2c-0.3-0.3-0.5-0.7-0.5-1.2c0-0.2,0.1-0.5,0-0.7
									C52.2,68,52.1,68,52,67.9c-0.7-0.2-1.7,0.5-2.3-0.2c-0.6-0.7,0.1-1.5,0.7-1.9c0.3-0.2,0.6-0.2,0.8-0.4
									c0.4-0.2,0.5-0.6,0.8-0.9c0.3-0.3,0.8-0.6,1.2-0.5C53.7,64.2,53.6,64.6,53.6,65.1z"/>
								<path class="st26" d="M52.3,65.5c-0.2,0.2-0.3,0.4-0.5,0.6c-0.1,0.1-0.2,0.2-0.3,0.3c-0.1,0.1-0.3,0.1-0.4,0.1
									c-0.2,0-0.4,0-0.6-0.1c-0.2-0.1-0.4-0.1-0.5-0.1c-0.1,0-0.2,0.1-0.2,0.2c-0.1,0.3,0,0.7,0.2,0.9c0.2,0.2,0.6,0.3,0.9,0.2
									c0.3,0,0.6-0.2,0.9-0.3c0.2-0.1,0.4-0.2,0.7-0.3c0.2,0,0.4,0,0.6,0.1c0.1,0,0.2,0.1,0.3,0c0.1,0,0.1-0.1,0.1-0.1
									c0.1-0.3,0.2-0.6,0-0.9c-0.1-0.3-0.4-0.6-0.6-0.9c-0.1-0.2-0.1-0.3-0.3-0.2C52.5,65.2,52.4,65.4,52.3,65.5z"/>
								<path class="st26" d="M51,66.8c-0.1,0-0.2,0-0.3-0.1c-0.1,0-0.2,0-0.3,0s-0.2,0.2-0.1,0.3c0,0.1,0.1,0.1,0.2,0.1
									c0.7,0.1,1.3-0.3,2-0.3c0.2,0,0.3,0.1,0.4-0.1c0.1-0.1,0.1-0.3,0.1-0.4c0,0,0-0.1,0-0.1c0,0-0.1,0-0.1,0
									c-0.4-0.1-0.9,0-1.3,0.3L51,66.8z"/>
								<path class="st26" d="M52.8,69.1c0,0.1,0,0.2,0.1,0.3c0.1,0.1,0.1,0.2,0.3,0.2c0,0,0.1,0,0.1,0c0,0,0,0,0-0.1
									c0.2-0.4,0.2-0.8,0.1-1.3c-0.1-0.3-0.4-0.5-0.6-0.2C52.7,68.4,52.8,68.9,52.8,69.1z"/>
							</g>
							<g>
								<path class="st26" d="M48.8,76.8c-0.2,0.2-0.3,0.4-0.5,0.6c-0.1,0.1-0.2,0.2-0.3,0.3c-0.1,0.1-0.3,0.1-0.4,0.1
									c-0.2,0-0.4,0-0.6-0.1c-0.2-0.1-0.4-0.1-0.5-0.1c-0.1,0-0.2,0.1-0.2,0.2c-0.1,0.3,0,0.7,0.2,0.9c0.2,0.2,0.6,0.3,0.9,0.2
									c0.3,0,0.6-0.2,0.9-0.3c0.2-0.1,0.4-0.2,0.7-0.3c0.2,0,0.4,0,0.6,0.1c0.1,0,0.2,0.1,0.3,0c0.1,0,0.1-0.1,0.1-0.1
									c0.1-0.3,0.2-0.6,0-0.9c-0.1-0.3-0.4-0.6-0.6-0.9c-0.1-0.2-0.1-0.3-0.3-0.2C49,76.5,48.9,76.7,48.8,76.8z"/>
								<path class="st26" d="M47.5,78.1c-0.1,0-0.2,0-0.3-0.1c-0.1,0-0.2,0-0.3,0c-0.1,0-0.2,0.2-0.1,0.3c0,0.1,0.1,0.1,0.2,0.1
									c0.7,0.1,1.3-0.3,2-0.3c0.2,0,0.3,0.1,0.4-0.1c0.1-0.1,0.1-0.3,0.1-0.4c0,0,0-0.1,0-0.1c0,0-0.1,0-0.1,0
									c-0.4-0.1-0.9,0-1.3,0.3L47.5,78.1z"/>
							</g>
							<g>
								<path class="st2" d="M45.9,62c0,0.4,0.3,0.7,0.7,0.8c0.4,0.1,0.8-0.1,1-0.4c0.1-0.2,0.2-0.4,0.3-0.5c0.2-0.2,0.7-0.2,0.9,0
									c0.3,0.2,0.4,0.5,0.6,0.8c0.1,0.2,0.2,0.4,0.1,0.6c0,0.2-0.2,0.3-0.4,0.4c-0.7,0.4-1.8,0-2.4,0.5c-0.4,0.3-0.5,0.9-0.4,1.3
									c0,0.5,0.2,1,0.1,1.5c-0.4,0.1-0.9,0.1-1.3-0.2c-0.3-0.3-0.5-0.7-0.5-1.2c0-0.2,0.1-0.5,0-0.7c-0.1-0.1-0.2-0.1-0.3-0.2
									c-0.7-0.2-1.7,0.5-2.3-0.2c-0.6-0.7,0.1-1.5,0.7-1.9c0.3-0.2,0.6-0.2,0.8-0.4c0.4-0.2,0.5-0.6,0.8-0.9
									c0.3-0.3,0.8-0.6,1.2-0.5C46,61.2,45.8,61.6,45.9,62z"/>
								<path class="st26" d="M44.6,62.5c-0.2,0.2-0.3,0.4-0.5,0.6c-0.1,0.1-0.2,0.2-0.3,0.3c-0.1,0.1-0.3,0.1-0.4,0.1
									c-0.2,0-0.4,0-0.6-0.1c-0.2-0.1-0.4-0.1-0.5-0.1c-0.1,0-0.2,0.1-0.2,0.2c-0.1,0.3,0,0.7,0.2,0.9c0.2,0.2,0.6,0.3,0.9,0.2
									c0.3,0,0.6-0.2,0.9-0.3c0.2-0.1,0.4-0.2,0.7-0.3c0.2,0,0.4,0,0.6,0.1c0.1,0,0.2,0.1,0.3,0c0.1,0,0.1-0.1,0.1-0.1
									c0.1-0.3,0.2-0.6,0-0.9c-0.1-0.3-0.4-0.6-0.6-0.9c-0.1-0.2-0.1-0.3-0.3-0.2C44.8,62.2,44.7,62.4,44.6,62.5z"/>
								<path class="st26" d="M43.2,63.8c-0.1,0-0.2,0-0.3-0.1c-0.1,0-0.2,0-0.3,0c-0.1,0-0.2,0.2-0.1,0.3c0,0.1,0.1,0.1,0.2,0.1
									c0.7,0.1,1.3-0.3,2-0.3c0.2,0,0.3,0.1,0.4-0.1c0.1-0.1,0.1-0.3,0.1-0.4c0,0,0-0.1,0-0.1c0,0-0.1,0-0.1,0
									c-0.4-0.1-0.9,0-1.3,0.3L43.2,63.8z"/>
								<path class="st26" d="M45.1,66.1c0,0.1,0,0.2,0.1,0.3c0.1,0.1,0.1,0.2,0.3,0.2c0,0,0.1,0,0.1,0c0,0,0,0,0-0.1
									c0.2-0.4,0.2-0.8,0.1-1.3c-0.1-0.3-0.4-0.5-0.6-0.2C45,65.4,45.1,65.9,45.1,66.1z"/>
							</g>
							<g>
								<path class="st2" d="M51.5,73.8c0.3,0.1,0.6,0.4,0.6,0.7c0,0.3-0.3,0.5-0.6,0.6c-0.2,0.1-0.5,0.3-0.7,0.5
									c-0.4,0.3-0.8,0.7-0.8,1.1c0.1,0.5,0.7,0.8,1.2,0.8c0.7-0.1,1.4-0.5,1.7-1.2c0.2-0.4,0.3-1,0.7-1.3c0.2-0.2,0.5-0.2,0.7-0.5
									c0.2-0.3,0-0.7-0.3-0.9s-0.7-0.2-1-0.2c-0.4,0-0.8-0.1-1.1-0.3c-0.6-0.4-0.2-0.7-0.3-1.1c0-0.5-0.4-0.5-0.8-0.2
									c-0.3,0.3-0.6,0.9-0.5,1.3C50.6,73.6,51.1,73.7,51.5,73.8z"/>
								<path class="st26" d="M52.6,75c-0.1,0-0.2,0-0.4,0.1c-0.3,0.1-0.4,0.3-0.6,0.5c-0.3,0.3-0.6,0.7-0.7,1.1c0,0.1,0,0.3,0,0.4
									c0.1,0.1,0.2,0.2,0.3,0.2c0.1,0,0.2-0.1,0.2-0.1c0.5-0.5,0.8-1.3,1.4-1.7c0.2-0.1,0.4-0.2,0.5-0.3c0.2-0.1,0.2-0.4,0.3-0.6
									c0-0.1,0.1-0.3,0-0.5c-0.1-0.1-0.2-0.2-0.3-0.2c-0.1,0.1-0.1,0.3-0.2,0.4C53.1,74.6,52.9,74.9,52.6,75z"/>
								<path class="st26" d="M51.1,76.3c-0.1,0.1-0.2,0.1-0.3,0.2c-0.1,0.1-0.1,0.2-0.1,0.3c0,0.1,0.1,0.1,0.2,0.2c0,0,0,0,0.1,0
									c0,0,0.1,0,0.1,0c0.2-0.1,0.3-0.2,0.5-0.3c0.1-0.1,0.3-0.2,0.4-0.4c0.1-0.1,0.1-0.3,0-0.3C51.7,75.8,51.3,76.2,51.1,76.3z"
									/>
							</g>
							<g>
								<path class="st2" d="M49.6,65.4c-0.1,0.3-0.1,0.5-0.1,0.8c0,0.3,0.2,0.5,0.4,0.7c0.3,0.1,0.6,0,0.7-0.2
									c0.1-0.2,0-0.3,0.1-0.5c0.1-0.2,0.3-0.4,0.6-0.5c0.5-0.1,1,0,1.3,0.3c0.2,0.2,0.5,0.5,0.8,0.5c0.3,0,0.5-0.3,0.6-0.5
									c0.2-0.4,0.1-0.9-0.1-1.3c-0.2-0.4-0.6-0.7-1.1-0.8c-0.3-0.1-0.7,0-0.9-0.3c-0.1-0.1-0.1-0.3-0.2-0.5
									c-0.2-0.5-0.7-0.7-1.2-0.6s-0.9,0.4-1.3,0.7c-0.1,0.1-0.2,0.2-0.2,0.3c0,0.2,0.1,0.3,0.3,0.4c0.2,0.2,0.6,0.4,0.6,0.7
									C50,64.8,49.7,65.1,49.6,65.4z"/>
								<path class="st26" d="M51.4,64.1c0.1,0,0.2,0,0.3-0.1c0.1-0.1,0.1-0.1,0.1-0.2c0-0.1,0-0.2,0-0.3c0,0-0.1-0.1-0.1-0.1
									c-0.4-0.3-1.1-0.6-1.6-0.1c-0.1,0.1-0.2,0.3-0.2,0.4c0,0.2,0.3,0.2,0.4,0.3C50.6,64.1,51,64.1,51.4,64.1z"/>
								<path class="st26" d="M53.1,65.6c0.1,0,0.2,0,0.3,0c0.1,0,0.2,0,0.3-0.1c0.1-0.1,0.1-0.1,0.1-0.2c0-0.2,0-0.4-0.1-0.6
									c-0.3-0.3-1-0.4-1.4-0.3c0,0-0.1,0-0.1,0.1c0,0,0,0.1,0,0.1c0,0.1-0.1,0.3,0,0.4c0,0.2,0.1,0.3,0.2,0.5
									c0,0.1,0.1,0.1,0.2,0.1C52.6,65.7,52.9,65.6,53.1,65.6z"/>
								<path class="st26" d="M49.8,65.8c0,0.1,0,0.3,0,0.4c0,0,0,0.1,0,0.1c0,0.1,0.1,0.1,0.2,0.1c0.2,0,0.3-0.1,0.4-0.2
									c0.1-0.1,0.2-0.2,0.3-0.3c0.1-0.1,0.2-0.3,0.2-0.4c-0.1-0.2-0.4-0.3-0.6-0.2C50,65.3,49.9,65.6,49.8,65.8z"/>
								<path class="st26" d="M53.1,64.9C53.1,64.9,53.1,64.8,53.1,64.9C53.1,64.8,53.1,64.8,53.1,64.9c-0.2-0.1-0.3-0.2-0.5-0.1
									c-0.1,0.1-0.2,0.3-0.1,0.4c0,0.1,0.1,0.1,0.2,0.1c0.3,0.1,0.6-0.1,0.7-0.3c0,0,0-0.1,0-0.1c0,0-0.1-0.1-0.1-0.1
									c-0.1,0-0.2,0-0.3,0L53.1,64.9z"/>
							</g>
							<g>
								<path class="st2" d="M37.2,68.2c-0.1,0.3-0.1,0.5-0.1,0.8c0,0.3,0.2,0.5,0.4,0.7c0.3,0.1,0.6,0,0.7-0.2
									c0.1-0.2,0-0.3,0.1-0.5c0.1-0.2,0.3-0.4,0.6-0.5c0.5-0.1,1,0,1.3,0.3c0.2,0.2,0.5,0.5,0.8,0.5c0.3,0,0.5-0.3,0.6-0.5
									c0.2-0.4,0.1-0.9-0.1-1.3c-0.2-0.4-0.6-0.7-1.1-0.8c-0.3-0.1-0.7,0-0.9-0.3c-0.1-0.1-0.1-0.3-0.2-0.5
									c-0.2-0.5-0.7-0.7-1.2-0.6c-0.5,0.1-0.9,0.4-1.3,0.7c-0.1,0.1-0.2,0.2-0.2,0.3c0,0.2,0.1,0.3,0.3,0.4
									c0.2,0.2,0.6,0.4,0.6,0.7C37.5,67.6,37.2,68,37.2,68.2z"/>
								<path class="st26" d="M38.9,66.9c0.1,0,0.2,0,0.3-0.1c0.1-0.1,0.1-0.1,0.1-0.2c0-0.1,0-0.2,0-0.3c0,0-0.1-0.1-0.1-0.1
									c-0.4-0.3-1.1-0.6-1.6-0.1c-0.1,0.1-0.2,0.3-0.2,0.4c0,0.2,0.3,0.2,0.4,0.3C38.2,66.9,38.5,66.9,38.9,66.9z"/>
								<path class="st26" d="M40.6,68.5c0.1,0,0.2,0,0.3,0c0.1,0,0.2,0,0.3-0.1c0.1-0.1,0.1-0.1,0.1-0.2c0-0.2,0-0.4-0.1-0.6
									c-0.3-0.3-1-0.4-1.4-0.3c0,0-0.1,0-0.1,0.1c0,0,0,0.1,0,0.1c0,0.1-0.1,0.3,0,0.4c0,0.2,0.1,0.3,0.2,0.5
									c0,0.1,0.1,0.1,0.2,0.1C40.1,68.5,40.4,68.5,40.6,68.5z"/>
								<path class="st26" d="M37.4,68.7c0,0.1,0,0.3,0,0.4c0,0,0,0.1,0,0.1c0,0.1,0.1,0.1,0.2,0.1c0.2,0,0.3-0.1,0.4-0.2
									c0.1-0.1,0.2-0.2,0.3-0.3c0.1-0.1,0.2-0.3,0.2-0.4c-0.1-0.2-0.4-0.3-0.6-0.2C37.5,68.1,37.4,68.5,37.4,68.7z"/>
								<path class="st26" d="M40.6,67.7C40.6,67.7,40.7,67.7,40.6,67.7C40.6,67.6,40.6,67.6,40.6,67.7c-0.2-0.1-0.3-0.2-0.5-0.1
									C40,67.7,39.9,67.9,40,68c0,0.1,0.1,0.1,0.2,0.1c0.3,0.1,0.6-0.1,0.7-0.3c0,0,0-0.1,0-0.1c0,0-0.1-0.1-0.1-0.1
									c-0.1,0-0.2,0-0.3,0L40.6,67.7z"/>
							</g>
							<g>
								<path class="st2" d="M54.7,73.9c-0.1,0.3-0.1,0.5-0.1,0.8c0,0.3,0.2,0.5,0.4,0.7c0.3,0.1,0.6,0,0.7-0.2
									c0.1-0.2,0-0.3,0.1-0.5c0.1-0.2,0.3-0.4,0.6-0.5c0.5-0.1,1,0,1.3,0.3c0.2,0.2,0.5,0.5,0.8,0.5c0.3,0,0.5-0.3,0.6-0.5
									c0.2-0.4,0.1-0.9-0.1-1.3c-0.2-0.4-0.6-0.7-1.1-0.8c-0.3-0.1-0.7,0-0.9-0.3C57,71.9,57,71.7,57,71.5
									c-0.2-0.5-0.7-0.7-1.2-0.6c-0.5,0.1-0.9,0.4-1.3,0.7c-0.1,0.1-0.2,0.2-0.2,0.3c0,0.2,0.1,0.3,0.3,0.4
									c0.2,0.2,0.6,0.4,0.6,0.7C55.1,73.3,54.8,73.6,54.7,73.9z"/>
								<path class="st26" d="M56.5,72.6c0.1,0,0.2,0,0.3-0.1c0.1-0.1,0.1-0.1,0.1-0.2c0-0.1,0-0.2,0-0.3c0,0-0.1-0.1-0.1-0.1
									c-0.4-0.3-1.1-0.6-1.6-0.1c-0.1,0.1-0.2,0.3-0.2,0.4c0,0.2,0.3,0.2,0.4,0.3C55.7,72.6,56.1,72.6,56.5,72.6z"/>
								<path class="st26" d="M58.2,74.1c0.1,0,0.2,0,0.3,0c0.1,0,0.2,0,0.3-0.1c0.1-0.1,0.1-0.1,0.1-0.2c0-0.2,0-0.4-0.1-0.6
									c-0.3-0.3-1-0.4-1.4-0.3c0,0-0.1,0-0.1,0.1c0,0,0,0.1,0,0.1c0,0.1-0.1,0.3,0,0.4c0,0.2,0.1,0.3,0.2,0.5
									c0,0.1,0.1,0.1,0.2,0.1C57.7,74.2,58,74.1,58.2,74.1z"/>
								<path class="st26" d="M54.9,74.3c0,0.1,0,0.3,0,0.4c0,0,0,0.1,0,0.1c0,0.1,0.1,0.1,0.2,0.1c0.2,0,0.3-0.1,0.4-0.2
									c0.1-0.1,0.2-0.2,0.3-0.3c0.1-0.1,0.2-0.3,0.2-0.4c-0.1-0.2-0.4-0.3-0.6-0.2C55.1,73.8,55,74.1,54.9,74.3z"/>
								<path class="st26" d="M58.2,73.3C58.2,73.4,58.2,73.3,58.2,73.3C58.2,73.3,58.2,73.3,58.2,73.3c-0.2-0.1-0.3-0.2-0.5-0.1
									c-0.1,0.1-0.2,0.3-0.1,0.4c0,0.1,0.1,0.1,0.2,0.1c0.3,0.1,0.6-0.1,0.7-0.3c0,0,0-0.1,0-0.1c0,0-0.1-0.1-0.1-0.1
									c-0.1,0-0.2,0-0.3,0L58.2,73.3z"/>
							</g>
							<g>
								<path class="st2" d="M45.6,64.2c0.3,0.1,0.6-0.1,0.9,0c0.2,0,0.4,0.2,0.6,0.3c0.2,0.1,0.4,0.2,0.6,0.1
									c0.3-0.1,0.3-0.4,0.4-0.7c0.1-0.2,0.1-0.5,0.1-0.7c0-0.2-0.1-0.5-0.3-0.6c-0.2-0.1-0.5-0.1-0.7-0.2
									c-0.6-0.2-1.2-0.5-1.7,0.1C45.1,62.8,45,64,45.6,64.2z"/>
								<path class="st26" d="M45.5,63.4c0,0.1,0,0.1,0,0.2c0.1,0.1,0.2,0.1,0.3,0.1c0.1,0,0.3,0,0.4,0c0.1,0,0.3,0,0.4-0.1
									c0.2-0.1,0.2-0.4,0.4-0.5c0.1,0,0.2,0,0.3,0c0.1,0,0.2-0.1,0.2-0.2c0-0.1-0.1-0.1-0.2-0.1c-0.3-0.1-0.5-0.2-0.8-0.2
									c-0.1,0-0.2-0.1-0.3-0.1C45.8,62.5,45.5,63,45.5,63.4z"/>
								<path class="st26" d="M47.3,63.5c-0.1,0.1-0.2,0.2-0.3,0.4c0,0.1-0.1,0.2,0,0.2c0,0,0,0,0.1,0c0.1,0,0.2,0.1,0.4,0.1
									c0.1,0,0.2,0,0.2-0.1c0.1-0.1,0.1-0.2,0.1-0.3c0-0.1,0-0.2,0-0.3c0-0.1-0.1-0.1-0.2-0.2C47.5,63.3,47.4,63.4,47.3,63.5
									L47.3,63.5z"/>
							</g>
							<g>
								<path class="st2" d="M44.1,69.3c0.3,0.1,0.6-0.1,0.9,0c0.2,0,0.4,0.2,0.6,0.3c0.2,0.1,0.4,0.2,0.6,0.1
									c0.3-0.1,0.3-0.4,0.4-0.7c0.1-0.2,0.1-0.5,0.1-0.7c0-0.2-0.1-0.5-0.3-0.6c-0.2-0.1-0.5-0.1-0.7-0.2
									c-0.6-0.2-1.2-0.5-1.7,0.1C43.6,67.9,43.5,69.1,44.1,69.3z"/>
								<path class="st26" d="M44,68.5c0,0.1,0,0.1,0,0.2c0.1,0.1,0.2,0.1,0.3,0.1c0.1,0,0.3,0,0.4,0c0.1,0,0.3,0,0.4-0.1
									c0.2-0.1,0.2-0.4,0.4-0.5c0.1,0,0.2,0,0.3,0c0.1,0,0.2-0.1,0.2-0.2c0-0.1-0.1-0.1-0.2-0.1c-0.3-0.1-0.5-0.2-0.8-0.2
									c-0.1,0-0.2-0.1-0.3-0.1C44.3,67.6,44,68.1,44,68.5z"/>
								<path class="st26" d="M45.8,68.5c-0.1,0.1-0.2,0.2-0.3,0.4c0,0.1-0.1,0.2,0,0.2c0,0,0,0,0.1,0c0.1,0,0.2,0.1,0.4,0.1
									c0.1,0,0.2,0,0.2-0.1c0.1-0.1,0.1-0.2,0.1-0.3c0-0.1,0-0.2,0-0.3c0-0.1-0.1-0.1-0.2-0.2C46,68.4,45.9,68.4,45.8,68.5
									L45.8,68.5z"/>
							</g>
							<g>
								<path class="st2" d="M37.8,70.9c0.3,0.1,0.6-0.1,0.9,0c0.2,0,0.4,0.2,0.6,0.3c0.2,0.1,0.4,0.2,0.6,0.1
									c0.3-0.1,0.3-0.4,0.4-0.7c0.1-0.2,0.1-0.5,0.1-0.7c0-0.2-0.1-0.5-0.3-0.6c-0.2-0.1-0.5-0.1-0.7-0.2
									c-0.6-0.2-1.2-0.5-1.7,0.1C37.3,69.6,37.3,70.7,37.8,70.9z"/>
								<path class="st26" d="M37.7,70.1c0,0.1,0,0.1,0,0.2c0.1,0.1,0.2,0.1,0.3,0.1c0.1,0,0.3,0,0.4,0c0.1,0,0.3,0,0.4-0.1
									c0.2-0.1,0.2-0.5,0.4-0.5c0.1,0,0.2,0,0.3,0c0.1,0,0.2-0.1,0.2-0.2c0-0.1-0.1-0.1-0.2-0.1c-0.3-0.1-0.5-0.2-0.8-0.2
									c-0.1,0-0.2-0.1-0.3-0.1C38,69.3,37.8,69.8,37.7,70.1z"/>
								<path class="st26" d="M39.6,70.2c-0.1,0.1-0.2,0.2-0.3,0.4c0,0.1-0.1,0.2,0,0.2c0,0,0,0,0.1,0c0.1,0,0.2,0.1,0.4,0.1
									c0.1,0,0.2,0,0.2-0.1c0.1-0.1,0.1-0.2,0.1-0.3c0-0.1,0-0.2,0-0.3c0-0.1-0.1-0.1-0.2-0.2C39.7,70,39.6,70.1,39.6,70.2
									L39.6,70.2z"/>
							</g>
							<g>
								<path class="st2" d="M43.7,65.2c0.3,0.1,0.6-0.1,0.9,0c0.2,0,0.4,0.2,0.6,0.3c0.2,0.1,0.4,0.2,0.6,0.1
									c0.3-0.1,0.3-0.4,0.4-0.7c0.1-0.2,0.1-0.5,0.1-0.7c0-0.2-0.1-0.5-0.3-0.6c-0.2-0.1-0.5-0.1-0.7-0.2
									c-0.6-0.2-1.2-0.5-1.7,0.1C43.2,63.8,43.2,65,43.7,65.2z"/>
								<path class="st26" d="M43.6,64.4c0,0.1,0,0.1,0,0.2c0,0.1,0.2,0.2,0.3,0.2c0.4,0.1,1,0,1.4,0.3c0.1,0.1,0.2,0.1,0.3,0.1
									c0.2,0,0.3-0.1,0.4-0.2c0.2-0.3,0.2-0.8-0.1-1c-0.1-0.1-0.3-0.1-0.4-0.1c-0.2,0-0.5-0.2-0.8-0.2c-0.1,0-0.2-0.1-0.3-0.1
									C43.9,63.5,43.7,64.1,43.6,64.4z"/>
							</g>
							<g>
								<path class="st2" d="M55.6,70.7c0.2,0.1,0.3,0,0.5,0c0.1,0,0.2,0.1,0.3,0.2c0.1,0.1,0.2,0.1,0.3,0.1
									c0.1-0.1,0.2-0.2,0.2-0.4c0-0.1,0.1-0.3,0-0.4c0-0.1-0.1-0.3-0.2-0.3c-0.1-0.1-0.3-0.1-0.4-0.1c-0.3-0.1-0.7-0.3-1,0
									C55.3,69.9,55.3,70.6,55.6,70.7z"/>
								<path class="st26" d="M55.5,70.2c0,0,0,0.1,0,0.1c0,0,0.1,0.1,0.2,0.1c0.3,0.1,0.5,0,0.8,0.1c0.1,0,0.1,0.1,0.2,0.1
									c0.1,0,0.2-0.1,0.2-0.1c0.1-0.2,0.1-0.4-0.1-0.6c-0.1-0.1-0.2,0-0.2,0c-0.1,0-0.3-0.1-0.4-0.1c-0.1,0-0.1,0-0.2,0
									C55.7,69.7,55.5,70,55.5,70.2z"/>
							</g>
							<g>
								<path class="st2" d="M45.4,70.7c0.2,0.1,0.3,0,0.5,0c0.1,0,0.2,0.1,0.3,0.2c0.1,0.1,0.2,0.1,0.3,0.1
									c0.1-0.1,0.2-0.2,0.2-0.4c0-0.1,0.1-0.3,0-0.4c0-0.1-0.1-0.3-0.2-0.3c-0.1-0.1-0.3-0.1-0.4-0.1c-0.3-0.1-0.7-0.3-1,0
									C45.1,70,45.1,70.6,45.4,70.7z"/>
								<path class="st26" d="M45.3,70.3c0,0,0,0.1,0,0.1c0,0,0.1,0.1,0.2,0.1c0.3,0.1,0.5,0,0.8,0.1c0.1,0,0.1,0.1,0.2,0.1
									c0.1,0,0.2-0.1,0.2-0.1c0.1-0.2,0.1-0.4-0.1-0.6c-0.1-0.1-0.2,0-0.2,0c-0.1,0-0.3-0.1-0.4-0.1c-0.1,0-0.1,0-0.2,0
									C45.5,69.8,45.4,70.1,45.3,70.3z"/>
							</g>
							<g>
								<path class="st2" d="M38.3,65.8c0.2,0.1,0.3,0,0.5,0c0.1,0,0.2,0.1,0.3,0.2c0.1,0.1,0.2,0.1,0.3,0.1
									c0.1-0.1,0.2-0.2,0.2-0.4c0-0.1,0.1-0.3,0-0.4c0-0.1-0.1-0.3-0.2-0.3c-0.1-0.1-0.3-0.1-0.4-0.1c-0.3-0.1-0.7-0.3-1,0
									C38.1,65,38,65.7,38.3,65.8z"/>
								<path class="st26" d="M38.3,65.3c0,0,0,0.1,0,0.1c0,0,0.1,0.1,0.2,0.1c0.3,0.1,0.5,0,0.8,0.1c0.1,0,0.1,0.1,0.2,0.1
									c0.1,0,0.2-0.1,0.2-0.1c0.1-0.2,0.1-0.4-0.1-0.6c-0.1-0.1-0.2,0-0.2,0c-0.1,0-0.3-0.1-0.4-0.1c-0.1,0-0.1,0-0.2,0
									C38.4,64.8,38.3,65.1,38.3,65.3z"/>
							</g>
							<g>
								<path class="st2" d="M42.2,66.8c0.2,0.1,0.3,0,0.5,0c0.1,0,0.2,0.1,0.3,0.2c0.1,0.1,0.2,0.1,0.3,0.1
									c0.1-0.1,0.2-0.2,0.2-0.4c0-0.1,0.1-0.3,0-0.4c0-0.1-0.1-0.3-0.2-0.3c-0.1-0.1-0.3-0.1-0.4-0.1c-0.3-0.1-0.7-0.3-1,0
									C41.9,66,41.9,66.7,42.2,66.8z"/>
								<path class="st26" d="M42.1,66.3c0,0,0,0.1,0,0.1c0,0,0.1,0.1,0.2,0.1c0.3,0.1,0.5,0,0.8,0.1c0.1,0,0.1,0.1,0.2,0.1
									c0.1,0,0.2-0.1,0.2-0.1c0.1-0.2,0.1-0.4-0.1-0.6c-0.1-0.1-0.2,0-0.2,0c-0.1,0-0.3-0.1-0.4-0.1c-0.1,0-0.1,0-0.2,0
									C42.3,65.8,42.2,66.1,42.1,66.3z"/>
							</g>
							<g>
								<path class="st2" d="M37.8,71.7c0.2,0.1,0.3,0,0.5,0c0.1,0,0.2,0.1,0.3,0.2c0.1,0.1,0.2,0.1,0.3,0.1
									c0.1-0.1,0.2-0.2,0.2-0.4c0-0.1,0.1-0.3,0-0.4c0-0.1-0.1-0.3-0.2-0.3c-0.1-0.1-0.3-0.1-0.4-0.1c-0.3-0.1-0.7-0.3-1,0
									C37.5,70.9,37.5,71.5,37.8,71.7z"/>
								<path class="st26" d="M37.7,71.2c0,0,0,0.1,0,0.1c0,0,0.1,0.1,0.2,0.1c0.3,0.1,0.5,0,0.8,0.1c0.1,0,0.1,0.1,0.2,0.1
									c0.1,0,0.2-0.1,0.2-0.1c0.1-0.2,0.1-0.4-0.1-0.6c-0.1-0.1-0.2,0-0.2,0c-0.1,0-0.3-0.1-0.4-0.1c-0.1,0-0.1,0-0.2,0
									C37.9,70.7,37.8,71,37.7,71.2z"/>
							</g>
							<g>
								<path class="st2" d="M54,68c0.3,0.1,0.6-0.1,0.9,0c0.2,0,0.4,0.2,0.6,0.3c0.2,0.1,0.4,0.2,0.6,0.1c0.3-0.1,0.3-0.4,0.4-0.7
									c0.1-0.2,0.1-0.5,0.1-0.7c0-0.2-0.1-0.5-0.3-0.6c-0.2-0.1-0.5-0.1-0.7-0.2c-0.6-0.2-1.2-0.5-1.7,0.1
									C53.5,66.7,53.4,67.8,54,68z"/>
								<path class="st26" d="M53.8,67.2c0,0.1,0,0.1,0,0.2c0.1,0.1,0.2,0.1,0.3,0.1c0.1,0,0.3,0,0.4,0c0.1,0,0.3,0,0.4-0.1
									c0.2-0.1,0.2-0.4,0.4-0.5c0.1,0,0.2,0,0.3,0c0.1,0,0.2-0.1,0.2-0.2c0-0.1-0.1-0.1-0.2-0.1c-0.3-0.1-0.5-0.2-0.8-0.2
									c-0.1,0-0.2-0.1-0.3-0.1C54.2,66.4,53.9,66.9,53.8,67.2z"/>
								<path class="st26" d="M55.7,67.3c-0.1,0.1-0.2,0.2-0.3,0.4c0,0.1-0.1,0.2,0,0.2c0,0,0,0,0.1,0c0.1,0,0.2,0.1,0.4,0.1
									c0.1,0,0.2,0,0.2-0.1c0.1-0.1,0.1-0.2,0.1-0.3c0-0.1,0-0.2,0-0.3c0-0.1-0.1-0.1-0.2-0.2C55.8,67.1,55.7,67.2,55.7,67.3
									L55.7,67.3z"/>
							</g>
						</g>
					</g>
				</g>
			</g>
		</g>
		<g>
			<polygon class="st2" points="70.3,67.2 76.2,76.1 55.3,88.2 49.4,79.3 			"/>
		</g>
		<g>
			<polygon class="st2" points="43.4,46.1 49.3,55 28.5,67.2 22.6,58.3 			"/>
		</g>
		<g>
			<polygon class="st2" points="55.2,46.1 49.3,55 70.3,67.2 76,58.3 			"/>
		</g>
		<path class="st25" d="M49.3,55L28.5,67.2l21,12.1l20.8-12.1L49.3,55z M49.4,78.5l-0.1-0.1L34.7,70l-4.8-2.8l19.5-11.4l19.6,11.4
			L64.1,70L49.4,78.5z"/>
		<g>
			<polygon class="st8" points="28.5,67.2 18.4,67.9 39.2,80 49.4,79.3 			"/>
		</g>
	</g>
	<g>
		<g class="st11">
			<g>
				<polygon class="st3" points="44.5,92.9 44.4,102.7 31.5,110.2 31.6,100.4 				"/>
			</g>
			<polygon class="st24" points="38,96.7 38,99.4 39,98.8 39,96.1 			"/>
			<g>
				<polygon class="st24" points="31.6,100.4 31.5,110.2 6.2,95.5 6.2,85.7 				"/>
			</g>
			<g>
				<polygon class="st2" points="44.5,92.9 39,96.1 38,96.7 31.6,100.4 6.2,85.7 12.6,82 13.6,81.5 19.1,78.3 				"/>
			</g>
			<g>
				<polygon class="st3" points="39,96.1 38,96.7 12.6,82 13.6,81.5 				"/>
			</g>
		</g>
	</g>
	<g>
		<g class="st11">
			<g>
				<polygon class="st4" points="75.9,98 75.8,102.9 60.1,112.1 60.1,107.2 				"/>
			</g>
			<g>
				<polygon class="st27" points="60.1,107.2 60.1,112.1 49,105.7 49,100.8 				"/>
			</g>
			<g>
				<polygon class="st1" points="53.9,103.6 54.9,104.2 54.9,106.9 53.9,106.4 				"/>
			</g>
			<g>
				<polygon class="st6" points="75.9,98.1 60.1,107.2 54.9,104.2 53.9,103.6 49,100.8 64.8,91.7 69.7,94.5 70.7,95.1 				"/>
			</g>
			<g>
				<polygon class="st27" points="70.7,95.1 54.9,104.2 53.9,103.6 69.7,94.5 				"/>
			</g>
		</g>
	</g>
	<g>
		<g>
			<g class="st11">
				<g>
					<polygon class="st28" points="42.6,83 42.6,92.8 34.3,97.6 34.4,87.8 					"/>
				</g>
				<g>
					<polygon class="st29" points="39.1,85.1 38.1,85.6 38.1,88.4 39.1,87.8 					"/>
				</g>
				<g>
					<polygon class="st29" points="34.4,87.8 34.4,97.6 21.4,90.1 21.4,80.3 					"/>
				</g>
				<g>
					<polygon class="st30" points="42.6,83 39.1,85.1 38.1,85.6 34.4,87.8 21.4,80.3 25.1,78.2 26.1,77.6 29.6,75.5 					"/>
				</g>
			</g>
		</g>
		<g>
			<polygon class="st28" points="39.1,85.1 38.1,85.6 25.1,78.2 26.1,77.6 			"/>
		</g>
	</g>
	<g id="virtual_3_" class="st31">
		<polygon id="light_5_" class="st32" points="20.5,7 58,0 58.2,41.3 34.2,55.2 		"/>
	</g>
	<polygon class="st33" points="34.2,55.2 58.2,41.3 58,0 34.1,13.9 	"/>
	<g>
		<g>
			<polygon class="st4" points="37.6,14.4 35,16 35,19 37.6,17.5 			"/>
			<polygon class="st4" points="39.2,13.5 39.2,16.5 57,6.2 57,3.1 			"/>
			<polygon class="st4" points="37.6,19.7 35,21.3 35,24.3 37.6,22.8 			"/>
			<polygon class="st4" points="39.2,18.8 39.2,21.8 57,11.5 57,8.4 			"/>
			<polygon class="st4" points="37.6,24.8 35,26.3 35,29.4 37.6,27.8 			"/>
			<polygon class="st4" points="39.2,23.8 39.2,26.9 57,16.5 57,13.5 			"/>
		</g>
		<g>
			<polygon class="st4" points="37.6,29.4 35,30.9 35,33.9 37.6,32.4 			"/>
			<polygon class="st4" points="39.2,28.4 39.2,31.5 57,21.1 57,18.1 			"/>
			<polygon class="st4" points="37.6,34.7 35,36.2 35,39.2 37.6,37.7 			"/>
			<polygon class="st4" points="39.2,33.7 39.2,36.8 57,26.4 57,23.4 			"/>
			<polygon class="st4" points="37.6,39.7 35,41.3 35,44.3 37.6,42.8 			"/>
			<polygon class="st4" points="39.2,38.8 39.2,41.8 57,31.5 57,28.4 			"/>
		</g>
		<g>
			<path class="st4" d="M50,41.3c0-1.8-1.3-2.5-2.8-1.6c-1.5,0.9-2.8,3.1-2.8,4.8c0,1.8,1.3,2.5,2.8,1.6C48.7,45.3,50,43.1,50,41.3z
				"/>
			<g>
				<path class="st34" d="M46.6,45.8c-0.1,0-0.2-0.1-0.3-0.1l-1.1-1.6c-0.1-0.2-0.1-0.4,0.1-0.5c0.2-0.1,0.4-0.1,0.5,0.1l0.8,1
					l1.9-4.7c0.1-0.2,0.3-0.3,0.5-0.2c0.2,0.1,0.3,0.3,0.2,0.5L47,45.6C46.9,45.7,46.8,45.8,46.6,45.8
					C46.7,45.8,46.7,45.8,46.6,45.8z"/>
			</g>
		</g>
	</g>
</g>
</svg>
