<?xml version="1.0" encoding="utf-8"?>
<!-- Generator: Adobe Illustrator 25.4.1, SVG Export Plug-In . SVG Version: 6.00 Build 0)  -->
<svg version="1.1" id="Layer_1" xmlns="http://www.w3.org/2000/svg" xmlns:xlink="http://www.w3.org/1999/xlink" x="0px" y="0px"
	 viewBox="0 0 114.7 116.7" style="enable-background:new 0 0 114.7 116.7;" xml:space="preserve">
<style type="text/css">
	.Graphic_x0020_Style{fill:url(#SVGID_1_);}
	.st0{opacity:0.3;fill:#D9CDC1;}
	.st1{opacity:0.3;}
	.st2{fill:#AC44EE;}
	.st3{fill:#4C1F8C;}
	.st4{fill:#7350BA;}
	.st5{fill:#ADB2CC;}
	.st6{fill:#C9C9EC;}
	.st7{fill:#F1F1F9;}
	.st8{fill:#411778;}
	.st9{fill:#FF445F;}
	.st10{enable-background:new    ;}
	.st11{fill:#FFB700;}
	.st12{clip-path:url(#SVGID_00000002349228418428925730000009143321332894116024_);}
	.st13{clip-path:url(#SVGID_00000025416827076773859390000015339827112803743138_);enable-background:new    ;}
	.st14{clip-path:url(#SVGID_00000100348529546189688870000006689895384530822309_);enable-background:new    ;}
	.st15{clip-path:url(#SVGID_00000134941390582598185530000016904697459777692802_);}
	.st16{clip-path:url(#SVGID_00000027585345124043672320000009785979829666251160_);}
	.st17{clip-path:url(#SVGID_00000039815842834120924430000013495450265103303070_);enable-background:new    ;}
	.st18{fill:#FFDE38;}
	.st19{fill:#1F0159;}
	.st20{clip-path:url(#SVGID_00000163769280768834553790000006483031546703250069_);}
	.st21{clip-path:url(#SVGID_00000052810704990368934430000005420489551270198952_);}
	.st22{clip-path:url(#SVGID_00000128450600985309390710000009444186313414955938_);}
	.st23{clip-path:url(#SVGID_00000095305770979015116890000017877355870607431299_);}
	.st24{fill:#FFC400;}
	.st25{fill:#E8E9FC;}
	.st26{clip-path:url(#SVGID_00000127001886728945156100000007443404213133363611_);enable-background:new    ;}
	.st27{clip-path:url(#SVGID_00000176009844838914012070000005912437392533043626_);enable-background:new    ;}
	.st28{fill:#817AC4;}
	.st29{clip-path:url(#SVGID_00000150787140297470985840000001779209277567822732_);enable-background:new    ;}
	.st30{clip-path:url(#SVGID_00000113353189117804139540000004076467018308148906_);enable-background:new    ;}
	.st31{fill:#DDDEFA;}
	.st32{fill:url(#SVGID_00000118364738817742883040000006127164304713179530_);}
	.st33{fill:url(#SVGID_00000155831394641747594200000000802866965132486292_);}
	.st34{fill:url(#SVGID_00000011714445876739299860000007704585842462979462_);}
	.st35{fill:url(#SVGID_00000040561593285637443500000005088249664547951797_);}
	.st36{clip-path:url(#SVGID_00000152949802783165204850000012612144418957591457_);enable-background:new    ;}
	.st37{clip-path:url(#SVGID_00000136387104543122106860000006332850194146142878_);enable-background:new    ;}
	.st38{clip-path:url(#SVGID_00000167370769781066506280000000371042872636487041_);}
	.st39{clip-path:url(#SVGID_00000033365483768947939990000015195894974029999247_);enable-background:new    ;}
	.st40{clip-path:url(#SVGID_00000132071680378008254410000004622827307433387937_);enable-background:new    ;}
	.st41{clip-path:url(#SVGID_00000116926595026498320090000008713841624043618234_);enable-background:new    ;}
	.st42{clip-path:url(#SVGID_00000081648981186185573490000009650364384262374532_);enable-background:new    ;}
	.st43{clip-path:url(#SVGID_00000143581383117121539530000000325219384608010673_);enable-background:new    ;}
	.st44{clip-path:url(#SVGID_00000133502664156830586540000008385933545538420126_);enable-background:new    ;}
</style>
<linearGradient id="SVGID_1_" gradientUnits="userSpaceOnUse" x1="-541.4999" y1="145.0044" x2="-540.9999" y2="145.8704">
	<stop  offset="0" style="stop-color:#AC44EE"/>
	<stop  offset="0.3072" style="stop-color:#8334C4"/>
	<stop  offset="0.5912" style="stop-color:#6529A6"/>
	<stop  offset="0.8318" style="stop-color:#532293"/>
	<stop  offset="1" style="stop-color:#4C1F8C"/>
</linearGradient>
<g>
	<path class="st0" d="M88.8,105.2l-9.8,5.7c-4.6,2.7-12.2,2.7-16.8,0h0c-4.6-2.7-4.6-7,0-9.7l9.8-5.7c4.6-2.7,12.2-2.7,16.8,0l0,0
		C93.4,98.2,93.4,102.5,88.8,105.2z"/>
	<g id="grid_4_">
		<g class="st1">
			<g>
				<path class="st2" d="M3.7,92V56L72,16.5v36L3.7,92z M3.9,56.1v35.5l67.8-39.2V16.9L3.9,56.1z"/>
			</g>
			<g>
				
					<rect x="-1.5" y="64.8" transform="matrix(0.8661 -0.4999 0.4999 0.8661 -27.4051 27.6142)" class="st2" width="78.6" height="0.2"/>
			</g>
			<g>
				
					<rect x="-1.5" y="57.7" transform="matrix(0.8661 -0.4999 0.4999 0.8661 -23.8349 26.6608)" class="st2" width="78.6" height="0.2"/>
			</g>
			<g>
				
					<rect x="-1.5" y="50.6" transform="matrix(0.8661 -0.4999 0.4999 0.8661 -20.2621 25.7024)" class="st2" width="78.6" height="0.2"/>
			</g>
			<g>
				
					<rect x="-1.5" y="43.4" transform="matrix(0.8661 -0.4999 0.4999 0.8661 -16.6904 24.7466)" class="st2" width="78.6" height="0.2"/>
			</g>
			<g>
				<polygon class="st2" points="3.8,56.1 3.8,56.1 3.8,56 3.7,55.9 71.8,16.6 71.9,16.8 				"/>
			</g>
			<g>
				<rect x="65.6" y="20.3" class="st2" width="0.2" height="35.7"/>
			</g>
			<g>
				<rect x="59.4" y="23.9" class="st2" width="0.2" height="35.7"/>
			</g>
			<g>
				<rect x="53.2" y="27.4" class="st2" width="0.2" height="35.7"/>
			</g>
			<g>
				<rect x="47" y="31" class="st2" width="0.2" height="35.7"/>
			</g>
			<g>
				<rect x="40.8" y="34.6" class="st2" width="0.2" height="35.7"/>
			</g>
			<g>
				<rect x="34.6" y="38.2" class="st2" width="0.2" height="35.7"/>
			</g>
			<g>
				<rect x="28.4" y="41.7" class="st2" width="0.2" height="35.7"/>
			</g>
			<g>
				<rect x="22.3" y="45.3" class="st2" width="0.2" height="35.7"/>
			</g>
			<g>
				<rect x="16.1" y="48.9" class="st2" width="0.2" height="35.7"/>
			</g>
			<g>
				<rect x="9.9" y="52.5" class="st2" width="0.2" height="35.7"/>
			</g>
		</g>
		<g class="st1">
			<g>
				<path class="st2" d="M29.3,111.1l-25-14.4l68.3-39.4l25,14.4L29.3,111.1z M4.8,96.6l24.5,14.2l67.8-39.2L72.6,57.5L4.8,96.6z"/>
			</g>
			<g>
				
					<rect x="24.1" y="91.2" transform="matrix(0.8661 -0.4999 0.4999 0.8661 -37.1444 43.8953)" class="st2" width="78.6" height="0.2"/>
			</g>
			<g>
				
					<rect x="17.9" y="87.6" transform="matrix(0.866 -0.5001 0.5001 0.866 -36.1975 40.344)" class="st2" width="78.6" height="0.2"/>
			</g>
			<g>
				
					<rect x="11.7" y="84" transform="matrix(0.866 -0.5001 0.5001 0.866 -35.2401 36.7705)" class="st2" width="78.6" height="0.2"/>
			</g>
			<g>
				
					<rect x="5.5" y="80.4" transform="matrix(0.8661 -0.4999 0.4999 0.8661 -34.2718 33.1789)" class="st2" width="78.6" height="0.2"/>
			</g>
			<g>
				<rect x="78.7" y="53.8" transform="matrix(0.5 -0.866 0.866 0.5 -19.5231 102.2937)" class="st2" width="0.2" height="28.6"/>
			</g>
			<g>
				<rect x="72.5" y="57.3" transform="matrix(0.5 -0.866 0.866 0.5 -25.7098 98.7248)" class="st2" width="0.2" height="28.6"/>
			</g>
			<g>
				<rect x="66.3" y="60.9" transform="matrix(0.5 -0.866 0.866 0.5 -31.8986 95.1519)" class="st2" width="0.2" height="28.6"/>
			</g>
			<g>
				<rect x="60.2" y="64.5" transform="matrix(0.5 -0.866 0.866 0.5 -38.087 91.5778)" class="st2" width="0.2" height="28.6"/>
			</g>
			<g>
				<rect x="54" y="68.1" transform="matrix(0.5 -0.866 0.866 0.5 -44.2757 88.0031)" class="st2" width="0.2" height="28.6"/>
			</g>
			<g>
				<rect x="47.8" y="71.6" transform="matrix(0.5 -0.866 0.866 0.5 -50.4643 84.4303)" class="st2" width="0.2" height="28.6"/>
			</g>
			<g>
				<rect x="41.6" y="75.2" transform="matrix(0.5 -0.866 0.866 0.5 -56.653 80.8575)" class="st2" width="0.2" height="28.6"/>
			</g>
			<g>
				<rect x="35.4" y="78.8" transform="matrix(0.5 -0.866 0.866 0.5 -62.8401 77.2846)" class="st2" width="0.2" height="28.6"/>
			</g>
			<g>
				<rect x="29.2" y="82.3" transform="matrix(0.5 -0.866 0.866 0.5 -69.0288 73.712)" class="st2" width="0.2" height="28.6"/>
			</g>
			<g>
				<rect x="23" y="85.9" transform="matrix(0.5 -0.866 0.866 0.5 -75.2174 70.1388)" class="st2" width="0.2" height="28.6"/>
			</g>
		</g>
	</g>
	<polygon class="st0" points="67.7,56.6 41.7,65.1 41.7,80.3 18.8,80.3 25.4,100.6 34.9,100.6 89.3,69.2 	"/>
	<g>
		<g>
			<g>
				<polygon class="st3" points="55.6,46 55.8,70.6 66.5,76.8 66.3,52.2 				"/>
			</g>
			<g>
				<polygon class="st3" points="66.3,52.2 66.5,76.8 77.3,70.6 77.2,46 				"/>
			</g>
			<g>
				<polygon class="st4" points="55.6,46 66.3,52.2 77.2,46 66.4,39.8 				"/>
			</g>
		</g>
		<g>
			<g>
				<polygon class="st5" points="41.9,30.1 42.1,78.5 52.8,84.8 52.6,36.4 				"/>
			</g>
			<g>
				<polygon class="st6" points="52.6,36.4 52.8,84.8 63.6,78.5 63.5,30.1 				"/>
			</g>
			<g>
				<polygon class="st7" points="41.9,30.1 52.6,36.4 63.5,30.1 52.7,23.9 				"/>
			</g>
		</g>
		<g>
			<g>
				<polygon class="st8" points="28.2,43.3 28.4,86.4 39.1,92.7 38.9,49.5 				"/>
			</g>
			<g>
				<polygon class="st3" points="38.9,49.5 39.1,92.7 49.9,86.4 49.8,43.3 				"/>
			</g>
			<g>
				<polygon class="st4" points="28.2,43.3 38.9,49.5 49.8,43.3 39,37 				"/>
			</g>
		</g>
		<g>
			<g>
				<polygon class="st5" points="14.5,76.8 14.7,94.3 25.4,100.6 25.3,83.1 				"/>
			</g>
			<g>
				<polygon class="st6" points="25.3,83.1 25.4,100.6 36.2,94.3 36.1,76.8 				"/>
			</g>
			<g>
				<polygon class="st7" points="14.5,76.8 25.3,83.1 36.1,76.8 25.3,70.6 				"/>
			</g>
		</g>
	</g>
	<g>
		<g>
			<g>
				<path class="st9" d="M23.9,65.8L23.9,65.8c0,0.4-0.1,0.7-0.3,0.9c0.2,0,0.3,0.1,0.3,0.5v0.2c0,0.5-0.2,0.9-0.6,1.2
					c-0.4,0.2-0.6,0-0.6-0.5v-0.2l0.3-0.2V68c0,0.3,0.1,0.4,0.3,0.3c0.2-0.1,0.3-0.4,0.3-0.7v-0.2c0-0.3-0.1-0.4-0.3-0.3l-0.2,0.1
					v-0.3l0.2-0.1c0.2-0.1,0.3-0.4,0.3-0.6V66c0-0.3-0.1-0.4-0.3-0.3c-0.2,0.1-0.3,0.4-0.3,0.7v0.2l-0.3,0.2v-0.1
					c0-0.5,0.2-0.9,0.6-1.2C23.7,65.1,23.9,65.3,23.9,65.8z"/>
				<path class="st9" d="M24.5,66c0.1-0.2,0.2-0.4,0.4-0.5c0.4-0.2,0.5,0,0.5,0.5v0.6c0,0.5-0.2,0.9-0.6,1.2c-0.4,0.2-0.6,0-0.6-0.5
					v-0.2l0.3-0.2v0.2c0,0.3,0.1,0.4,0.3,0.3c0.2-0.1,0.3-0.4,0.3-0.7v-0.6c0-0.3-0.1-0.4-0.3-0.3c-0.2,0.1-0.3,0.3-0.3,0.5v0.1
					l-0.3,0.2l0.1-1.8l1.1-0.6l0,0.3l-0.8,0.5L24.5,66z"/>
				<path class="st9" d="M26.5,64v1c0,0.3-0.1,0.6-0.4,0.7c-0.3,0.2-0.4,0-0.4-0.3v-1c0-0.3,0.1-0.6,0.4-0.7
					C26.4,63.5,26.5,63.7,26.5,64z M25.9,64.3v1c0,0.2,0.1,0.3,0.2,0.2c0.1-0.1,0.2-0.2,0.2-0.4v-1c0-0.2-0.1-0.3-0.2-0.2
					C26,64,25.9,64.2,25.9,64.3z M27.4,63l-1.1,3.8l-0.2,0.1l1.1-3.8L27.4,63z M27.9,64.4v1c0,0.3-0.1,0.6-0.4,0.7
					c-0.3,0.2-0.4,0-0.4-0.3v-1c0-0.3,0.1-0.6,0.4-0.7C27.7,64,27.9,64.1,27.9,64.4z M27.3,64.7v1c0,0.2,0.1,0.3,0.2,0.2
					c0.1-0.1,0.2-0.2,0.2-0.4v-1c0-0.2-0.1-0.3-0.2-0.2C27.3,64.4,27.3,64.6,27.3,64.7z"/>
			</g>
		</g>
		<g>
			<g>
				<path class="st9" d="M66.7,35.3L66.7,35.3c0,0.4-0.1,0.7-0.3,0.9c0.2,0,0.3,0.1,0.3,0.5V37c0,0.5-0.2,0.9-0.6,1.2
					c-0.4,0.2-0.6,0-0.6-0.5v-0.2l0.3-0.2v0.2c0,0.3,0.1,0.4,0.3,0.3c0.2-0.1,0.3-0.4,0.3-0.7v-0.2c0-0.3-0.1-0.4-0.4-0.3l-0.2,0.1
					v-0.3l0.2-0.1c0.2-0.1,0.3-0.4,0.3-0.6v-0.1c0-0.3-0.1-0.4-0.3-0.3c-0.2,0.1-0.3,0.4-0.3,0.7V36l-0.3,0.2V36
					c0-0.5,0.2-0.9,0.6-1.2C66.5,34.6,66.7,34.8,66.7,35.3z"/>
				<path class="st9" d="M68.2,34.4v1.6c0,0.5-0.2,0.9-0.6,1.2c-0.4,0.2-0.6,0-0.6-0.4v-0.1l0.3-0.2v0.1c0,0.3,0.1,0.4,0.3,0.3
					c0.2-0.1,0.3-0.4,0.3-0.7v-0.7c-0.1,0.3-0.2,0.5-0.4,0.6c-0.4,0.2-0.5,0-0.5-0.5v-0.5c0-0.5,0.2-0.9,0.6-1.2
					C68,33.7,68.2,33.9,68.2,34.4z M67.3,35v0.5c0,0.3,0.1,0.4,0.3,0.3c0.2-0.1,0.3-0.4,0.3-0.7v-0.5c0-0.3-0.1-0.4-0.3-0.3
					C67.4,34.4,67.3,34.7,67.3,35z"/>
				<path class="st9" d="M69.3,33.5v1c0,0.3-0.1,0.6-0.4,0.7c-0.3,0.2-0.4,0-0.4-0.3v-1c0-0.3,0.1-0.6,0.4-0.7
					C69.2,33.1,69.3,33.2,69.3,33.5z M68.7,33.9v1c0,0.2,0.1,0.3,0.2,0.2c0.1-0.1,0.2-0.2,0.2-0.4v-1c0-0.2-0.1-0.3-0.2-0.2
					C68.8,33.5,68.7,33.7,68.7,33.9z M70.2,32.5l-1.1,3.8l-0.2,0.1l1.1-3.8L70.2,32.5z M70.7,33.9v1c0,0.3-0.1,0.6-0.4,0.7
					c-0.3,0.2-0.4,0-0.4-0.3v-1c0-0.3,0.1-0.6,0.4-0.7C70.5,33.5,70.7,33.6,70.7,33.9z M70.1,34.3v1c0,0.2,0.1,0.3,0.2,0.2
					c0.1-0.1,0.2-0.2,0.2-0.4v-1c0-0.2-0.1-0.3-0.2-0.2C70.1,33.9,70.1,34.1,70.1,34.3z"/>
			</g>
		</g>
		<g>
			<g>
				<path class="st9" d="M36.2,34.1c0.1-0.2,0.2-0.4,0.4-0.5c0.4-0.2,0.5,0,0.5,0.5v0.6c0,0.5-0.2,0.9-0.6,1.2
					c-0.4,0.2-0.6,0-0.6-0.5v-0.2l0.3-0.2v0.2c0,0.3,0.1,0.4,0.3,0.3c0.2-0.1,0.3-0.4,0.3-0.7v-0.6c0-0.3-0.1-0.4-0.3-0.3
					c-0.2,0.1-0.3,0.3-0.3,0.5v0.1l-0.3,0.2l0.1-1.8l1.1-0.6v0.3l-0.8,0.5L36.2,34.1z"/>
				<path class="st9" d="M38.7,32.2c0,1-0.9,1.9-0.9,2.6v0.1l0.9-0.5v0.3l-1.2,0.7V35c0-1,0.9-1.8,0.9-2.7c0-0.3-0.1-0.5-0.3-0.3
					c-0.2,0.1-0.3,0.4-0.3,0.7V33l-0.3,0.2v-0.3c0-0.5,0.2-0.9,0.6-1.2C38.5,31.5,38.7,31.7,38.7,32.2z"/>
				<path class="st9" d="M39.7,31.3v1c0,0.3-0.1,0.6-0.4,0.7c-0.3,0.2-0.4,0-0.4-0.3v-1c0-0.3,0.1-0.6,0.4-0.7
					C39.6,30.8,39.7,31,39.7,31.3z M39.1,31.6v1c0,0.2,0.1,0.3,0.2,0.2c0.1-0.1,0.2-0.2,0.2-0.4v-1c0-0.2-0.1-0.3-0.2-0.2
					C39.2,31.3,39.1,31.4,39.1,31.6z M40.7,30.2l-1.1,3.8l-0.2,0.1l1.1-3.8L40.7,30.2z M41.1,31.7v1c0,0.3-0.1,0.6-0.4,0.7
					c-0.3,0.2-0.4,0-0.4-0.3v-1c0-0.3,0.1-0.6,0.4-0.7C41,31.2,41.1,31.4,41.1,31.7z M40.5,32v1c0,0.2,0.1,0.3,0.2,0.2
					c0.1-0.1,0.2-0.2,0.2-0.4v-1c0-0.2-0.1-0.3-0.2-0.2C40.6,31.7,40.5,31.8,40.5,32z"/>
			</g>
		</g>
		<g>
			<g>
				<path class="st9" d="M51,20L51,20l-0.3,0.2v-0.1c0-0.3-0.1-0.4-0.3-0.3c-0.2,0.1-0.3,0.4-0.3,0.7v0.7c0.1-0.3,0.2-0.5,0.4-0.6
					c0.4-0.2,0.5,0,0.5,0.5v0.5c0,0.5-0.2,0.9-0.6,1.2c-0.4,0.2-0.6,0-0.6-0.4v-1.6c0-0.5,0.2-0.9,0.6-1.2C50.8,19.3,51,19.5,51,20z
					 M50.1,21.8v0.5c0,0.3,0.1,0.4,0.3,0.3c0.2-0.1,0.3-0.4,0.3-0.7v-0.5c0-0.3-0.1-0.4-0.3-0.3C50.2,21.2,50.1,21.5,50.1,21.8z"/>
				<path class="st9" d="M52.5,21v0.6l-0.3,0.2l0-0.6l-0.9,0.5v-0.3l0.9-2.7l0.3-0.2v2.2l0.2-0.1v0.3L52.5,21z M51.5,21.2l0.6-0.4
					v-1.6L51.5,21.2z"/>
				<path class="st9" d="M53.7,18.2v1c0,0.3-0.1,0.6-0.4,0.7c-0.3,0.2-0.4,0-0.4-0.3v-1c0-0.3,0.1-0.6,0.4-0.7
					C53.6,17.8,53.7,17.9,53.7,18.2z M53.1,18.5v1c0,0.2,0.1,0.3,0.2,0.2c0.1-0.1,0.2-0.2,0.2-0.4v-1c0-0.2-0.1-0.3-0.2-0.2
					C53.2,18.2,53.1,18.4,53.1,18.5z M54.6,17.2L53.5,21l-0.2,0.1l1.1-3.8L54.6,17.2z M55.1,18.6v1c0,0.3-0.1,0.6-0.4,0.7
					c-0.3,0.2-0.4,0-0.4-0.3v-1c0-0.3,0.1-0.6,0.4-0.7C54.9,18.2,55.1,18.3,55.1,18.6z M54.5,18.9v1c0,0.2,0.1,0.3,0.2,0.2
					c0.1-0.1,0.2-0.2,0.2-0.4v-1c0-0.2-0.1-0.3-0.2-0.2C54.5,18.6,54.5,18.8,54.5,18.9z"/>
			</g>
		</g>
		<g>
			<g>
				<path class="st9" d="M26,75.3c-0.1,0-0.2-0.1-0.2-0.2l0-6.3c0-0.1,0.1-0.2,0.2-0.2c0.1,0,0.2,0.1,0.2,0.2l0,6.3
					C26.1,75.3,26.1,75.3,26,75.3z"/>
			</g>
			<path class="st9" d="M26.8,74.9c0-0.5-0.4-0.7-0.8-0.5c-0.4,0.3-0.8,0.9-0.8,1.4c0,0.5,0.4,0.7,0.8,0.5
				C26.4,76,26.8,75.4,26.8,74.9z"/>
		</g>
		<g>
			<g>
				<path class="st9" d="M38.7,42.2c-0.1,0-0.2-0.1-0.2-0.2l0-6.3c0-0.1,0.1-0.2,0.2-0.2c0.1,0,0.2,0.1,0.2,0.2l0,6.3
					C38.9,42.1,38.8,42.2,38.7,42.2z"/>
			</g>
			<g>
				<path class="st9" d="M39.5,41.8c0-0.5-0.4-0.7-0.8-0.5c-0.4,0.3-0.8,0.9-0.8,1.4c0,0.5,0.4,0.7,0.8,0.5
					C39.2,42.9,39.5,42.3,39.5,41.8z"/>
			</g>
		</g>
		<g>
			<g>
				<path class="st9" d="M52.5,29.2c-0.1,0-0.2-0.1-0.2-0.2l0-6.3c0-0.1,0.1-0.2,0.2-0.2s0.2,0.1,0.2,0.2l0,6.3
					C52.7,29.1,52.6,29.2,52.5,29.2z"/>
			</g>
			<g>
				<path class="st9" d="M53.3,28.8c0-0.5-0.4-0.7-0.8-0.5c-0.4,0.3-0.8,0.9-0.8,1.4s0.4,0.7,0.8,0.5C52.9,29.9,53.3,29.3,53.3,28.8
					z"/>
			</g>
		</g>
		<g>
			<g>
				<path class="st9" d="M68.1,44.5c-0.1,0-0.2-0.1-0.2-0.2l0-6.3c0-0.1,0.1-0.2,0.2-0.2s0.2,0.1,0.2,0.2l0,6.3
					C68.3,44.4,68.2,44.5,68.1,44.5z"/>
			</g>
			<g>
				<path class="st9" d="M68.9,44c0-0.5-0.4-0.7-0.8-0.5c-0.4,0.3-0.8,0.9-0.8,1.4c0,0.5,0.4,0.7,0.8,0.5
					C68.6,45.2,68.9,44.5,68.9,44z"/>
			</g>
		</g>
	</g>
	<polygon class="st0" points="107.3,56.7 107.3,56.7 100.5,52.7 89.1,54.9 92.2,64.2 95.4,64.2 97.4,63 99,68.2 102.3,68.2 
		114.7,61 	"/>
	<g>
		<g>
			<ellipse class="st0" cx="44.3" cy="108.3" rx="14.5" ry="8.4"/>
			<g class="st10">
				<g>
					<polygon class="st11" points="55.3,101.5 55.3,105.6 50.1,106.4 50.1,102.3 					"/>
				</g>
				<g class="st10">
					<defs>
						<path id="SVGID_00000170974989711039923560000005095932723914033037_" class="st10" d="M50.1,102.3l0,4.1
							c-0.4-0.8-1.1-1.5-2.1-2.1l0-4.1C49.1,100.8,49.8,101.5,50.1,102.3z"/>
					</defs>
					<clipPath id="SVGID_00000146497488696427132050000010970037083263945118_">
						<use xlink:href="#SVGID_00000170974989711039923560000005095932723914033037_"  style="overflow:visible;"/>
					</clipPath>
					<g style="clip-path:url(#SVGID_00000146497488696427132050000010970037083263945118_);">
						<path class="st11" d="M50.1,102.3l0,4.1c-0.4-0.8-1.1-1.5-2.1-2.1l0-4.1C49.1,100.8,49.8,101.5,50.1,102.3L50.1,102.3z"/>
					</g>
				</g>
				<g class="st10">
					<defs>
						<path id="SVGID_00000103232767023471509560000018038950589378369461_" class="st10" d="M50.4,103.5l0,4.1
							c0-0.4-0.1-0.8-0.3-1.3l0-4.1C50.3,102.7,50.4,103.1,50.4,103.5z"/>
					</defs>
					<clipPath id="SVGID_00000092424755693162431470000002723041518713380519_">
						<use xlink:href="#SVGID_00000103232767023471509560000018038950589378369461_"  style="overflow:visible;"/>
					</clipPath>
					<g style="clip-path:url(#SVGID_00000092424755693162431470000002723041518713380519_);enable-background:new    ;">
						<path class="st11" d="M50.4,103.5l0,4.1c0-0.4-0.1-0.8-0.3-1.3l0-4.1C50.3,102.7,50.4,103.1,50.4,103.5L50.4,103.5z"/>
					</g>
				</g>
				<g>
					<defs>
						<path id="SVGID_00000108993719038652237570000004505722450105796791_" d="M34.1,107.6l0-4.1c0-1.2,0.8-2.4,2.4-3.3
							c3.2-1.8,8.3-1.8,11.5,0l0,4.1c-3.2-1.8-8.3-1.8-11.5,0C34.9,105.2,34.1,106.4,34.1,107.6z"/>
					</defs>
					<use xlink:href="#SVGID_00000108993719038652237570000004505722450105796791_"  style="overflow:visible;fill:#4C1F8C;"/>
					<clipPath id="SVGID_00000183952074208107118550000015232950742612303784_">
						<use xlink:href="#SVGID_00000108993719038652237570000004505722450105796791_"  style="overflow:visible;"/>
					</clipPath>
					<g style="clip-path:url(#SVGID_00000183952074208107118550000015232950742612303784_);enable-background:new    ;">
						<path class="st3" d="M48,100.2l0,4.1c-3.2-1.8-8.3-1.8-11.5,0c-1.6,0.9-2.4,2.1-2.4,3.3l0-4.1c0-1.2,0.8-2.4,2.4-3.3
							C39.7,98.3,44.8,98.3,48,100.2L48,100.2z"/>
					</g>
				</g>
				<g>
					<path class="st4" d="M51.8,98l-3.8,2.2c-3.2-1.8-8.3-1.8-11.5,0c-2.1,1.2-2.8,3-2.1,4.5l-5.2,0.8c-2-4.2,2.3-8.5,9.5-9.6
						C43.5,95.2,48.3,95.9,51.8,98z"/>
				</g>
				<g class="st10">
					<defs>
						<path id="SVGID_00000104668336167487120170000002172047564425327016_" class="st10" d="M28.8,107.6l0-4.1
							c0,0.7,0.2,1.4,0.5,2.1l0,4.1C28.9,108.9,28.8,108.2,28.8,107.6z"/>
					</defs>
					<clipPath id="SVGID_00000075120088305314143220000017785529924953599162_">
						<use xlink:href="#SVGID_00000104668336167487120170000002172047564425327016_"  style="overflow:visible;"/>
					</clipPath>
					<g style="clip-path:url(#SVGID_00000075120088305314143220000017785529924953599162_);">
						<path class="st3" d="M29.3,105.5l0,4.1c-0.3-0.7-0.5-1.4-0.5-2.1l0-4.1C28.8,104.1,28.9,104.8,29.3,105.5L29.3,105.5z"/>
					</g>
				</g>
				<g>
					<path class="st7" d="M40.2,108.1l-1.4,3c-2.4-0.4-4.5-1.1-6.1-2c-1.6-0.9-2.8-2.1-3.5-3.5l5.2-0.8c0.4,0.8,1.1,1.5,2.1,2.1
						C37.6,107.4,38.9,107.9,40.2,108.1z"/>
				</g>
				<g class="st10">
					<defs>
						<path id="SVGID_00000103255249511417142760000009784896599360739222_" class="st10" d="M38.8,111l0,4.1
							c-2.4-0.4-4.5-1.1-6.1-2c-1.6-0.9-2.8-2.1-3.5-3.5l0-4.1c0.7,1.4,1.8,2.6,3.5,3.5C34.4,110,36.4,110.7,38.8,111z"/>
					</defs>
					<clipPath id="SVGID_00000097496109119072578960000009143636937048810898_">
						<use xlink:href="#SVGID_00000103255249511417142760000009784896599360739222_"  style="overflow:visible;"/>
					</clipPath>
					<g style="clip-path:url(#SVGID_00000097496109119072578960000009143636937048810898_);">
						<path class="st6" d="M38.8,111l0,4.1c-2.4-0.4-4.5-1.1-6.1-2c-1.6-0.9-2.8-2.1-3.5-3.5l0-4.1c0.7,1.4,1.8,2.6,3.5,3.5
							C34.4,110,36.4,110.7,38.8,111L38.8,111z"/>
					</g>
				</g>
				<g class="st10">
					<defs>
						<path id="SVGID_00000120560603333482731950000010649193570475144073_" class="st10" d="M55.8,103.5l0,4.1c0,3.4-4,6.6-10,7.5
							c-2.4,0.4-4.6,0.4-7,0l0-4.1c2.4,0.4,4.6,0.4,7,0C51.8,110.1,55.8,107,55.8,103.5z"/>
					</defs>
					<clipPath id="SVGID_00000175300600277025951660000006159734641723280007_">
						<use xlink:href="#SVGID_00000120560603333482731950000010649193570475144073_"  style="overflow:visible;"/>
					</clipPath>
					<g style="clip-path:url(#SVGID_00000175300600277025951660000006159734641723280007_);enable-background:new    ;">
						<path class="st11" d="M55.8,103.5l0,4.1c0,3.4-4,6.6-10,7.5c-2.4,0.4-4.6,0.4-7,0l0-4.1c2.4,0.4,4.6,0.4,7,0
							C51.8,110.1,55.8,107,55.8,103.5L55.8,103.5z"/>
					</g>
				</g>
				<path class="st18" d="M55.3,101.5c-0.7-1.4-1.8-2.5-3.5-3.5l-3.8,2.2c1,0.6,1.8,1.3,2.1,2.1c0.7,1.6,0,3.3-2.1,4.6
					c-2.1,1.2-5.1,1.6-7.8,1.2l-1.4,3c2.4,0.4,4.6,0.4,7,0C53,109.9,57.3,105.6,55.3,101.5z"/>
			</g>
		</g>
		<g>
			<ellipse class="st0" cx="95.6" cy="82.9" rx="16.9" ry="9.7"/>
			<g>
				<g class="st10">
					<g>
						<polygon class="st3" points="103.7,73.7 103.7,76.5 93.5,82.5 93.5,79.6 						"/>
					</g>
					<g>
						<polygon class="st19" points="93.5,79.6 93.5,82.5 79.5,84.5 79.5,81.7 						"/>
					</g>
					<g class="st10">
						<defs>
							<path id="SVGID_00000054242515186171570930000010261797064779512967_" class="st10" d="M79,82.4l0-2.8c0,0.7,0.1,1.4,0.4,2.1
								l0,2.8C79.2,83.8,79,83.1,79,82.4z"/>
						</defs>
						<clipPath id="SVGID_00000105426348136000512240000012389194270456466337_">
							<use xlink:href="#SVGID_00000054242515186171570930000010261797064779512967_"  style="overflow:visible;"/>
						</clipPath>
						<g style="clip-path:url(#SVGID_00000105426348136000512240000012389194270456466337_);">
							<path class="st3" d="M79.5,81.7l0,2.8c-0.3-0.7-0.4-1.4-0.4-2.1l0-2.8C79,80.3,79.2,81,79.5,81.7L79.5,81.7z"/>
						</g>
					</g>
					<g>
						<path class="st4" d="M103.7,73.7l-10.2,5.9l-14,2c-2-4.5,2.7-9,10.5-10.1C94.9,70.8,100,71.6,103.7,73.7z"/>
					</g>
					<g>
						<polygon class="st5" points="93.5,79.6 93.5,82.5 85.4,89.4 85.4,86.6 						"/>
					</g>
					<g class="st10">
						<defs>
							<path id="SVGID_00000078029672311707089410000005068003454125040257_" class="st10" d="M85.4,86.6l0,2.8
								c-0.9-0.3-1.6-0.7-2.3-1.1c-1.8-1-3-2.3-3.7-3.8l0-2.8c0.7,1.5,1.9,2.8,3.7,3.8C83.8,85.9,84.6,86.2,85.4,86.6z"/>
						</defs>
						<clipPath id="SVGID_00000003105523920404435010000011255409280261378987_">
							<use xlink:href="#SVGID_00000078029672311707089410000005068003454125040257_"  style="overflow:visible;"/>
						</clipPath>
						<g style="clip-path:url(#SVGID_00000003105523920404435010000011255409280261378987_);">
							<path class="st6" d="M85.4,86.6l0,2.8c-0.9-0.3-1.6-0.7-2.3-1.1c-1.8-1-3-2.3-3.7-3.8l0-2.8c0.7,1.5,1.9,2.8,3.7,3.8
								C83.8,85.9,84.6,86.2,85.4,86.6L85.4,86.6z"/>
						</g>
					</g>
					<g class="st10">
						<defs>
							<path id="SVGID_00000134942819068911083000000004121996121781532562_" class="st10" d="M107.2,82.2l0,2.8
								c-2.4,4.4-10.6,6.8-18.2,5.4c-1.3-0.3-2.5-0.6-3.6-1l0-2.8c1.2,0.5,2.3,0.8,3.6,1C96.7,89,104.8,86.6,107.2,82.2z"/>
						</defs>
						<clipPath id="SVGID_00000150791897481445089210000003113718545293481138_">
							<use xlink:href="#SVGID_00000134942819068911083000000004121996121781532562_"  style="overflow:visible;"/>
						</clipPath>
						<g style="clip-path:url(#SVGID_00000150791897481445089210000003113718545293481138_);">
							<path class="st6" d="M107.2,82.2l0,2.8c-2.4,4.4-10.6,6.8-18.2,5.4c-1.3-0.3-2.5-0.6-3.6-1l0-2.8c1.2,0.5,2.3,0.8,3.6,1
								C96.7,89,104.8,86.6,107.2,82.2L107.2,82.2z"/>
						</g>
					</g>
					<path class="st7" d="M93.5,79.6l-14,2c0.7,1.5,1.9,2.8,3.7,3.8c0.7,0.4,1.4,0.8,2.3,1.1c1.2,0.5,2.3,0.8,3.6,1
						c7.6,1.4,15.7-1,18.2-5.4L93.5,79.6z"/>
				</g>
				<g>
					<g class="st10">
						<g class="st10">
							<defs>
								<path id="SVGID_00000108987997905590101840000010901155752496406207_" class="st10" d="M112.2,75.5l0,2.8
									c0,0.9-0.2,1.8-0.7,2.7l0-2.8C112,77.3,112.2,76.4,112.2,75.5z"/>
							</defs>
							<clipPath id="SVGID_00000026878823786508717700000017870027203731650228_">
								<use xlink:href="#SVGID_00000108987997905590101840000010901155752496406207_"  style="overflow:visible;"/>
							</clipPath>
							<g style="clip-path:url(#SVGID_00000026878823786508717700000017870027203731650228_);">
								<path class="st11" d="M112.2,75.5l0,2.8c0,0.9-0.2,1.8-0.7,2.7l0-2.8C112,77.3,112.2,76.4,112.2,75.5L112.2,75.5z"/>
							</g>
						</g>
						<g>
							<polygon class="st24" points="111.5,78.2 111.5,81 97.7,78.4 97.7,75.6 							"/>
						</g>
						<g>
							<path class="st18" d="M107.9,69.7c4,2.3,5.3,5.4,3.6,8.5l-13.8-2.6L107.9,69.7z"/>
						</g>
					</g>
				</g>
			</g>
		</g>
		<g>
			<g>
				<g class="st10">
					<g>
						<polygon class="st3" points="97.7,45.4 97.6,61 92.2,64.2 92.2,48.5 						"/>
					</g>
					<g>
						<polygon class="st8" points="92.2,48.5 92.2,64.2 86.7,61 86.8,45.4 						"/>
					</g>
					<g>
						<polygon class="st4" points="97.7,45.4 92.2,48.5 86.8,45.4 92.2,42.2 						"/>
					</g>
				</g>
			</g>
			<g class="st10">
				<g>
					<polygon class="st11" points="104.5,35 104.4,65 99,68.2 99.1,38.1 					"/>
				</g>
				<g>
					<polygon class="st24" points="99.1,38.1 99,68.2 93.6,65 93.7,35 					"/>
				</g>
				<g>
					<polygon class="st18" points="104.5,35 99.1,38.1 93.7,35 99.1,31.9 					"/>
				</g>
			</g>
		</g>
	</g>
	<g>
		<g>
			<g>
				<path class="st25" d="M80,69.7c0.6,0,1.2,0.3,1.8,0.1c0.1,0,0.2-0.1,0.3-0.1c0.3,0,0.3,0.4,0.4,0.6c0.1,0.3,0.2,0.7,0.2,1.1
					c0,0.8,0,1.6-0.2,2.4c0,0.2-0.1,0.4-0.3,0.4c-0.1,0-0.2-0.1-0.4-0.1c-0.2,0-0.2,0.4-0.3,0.6c-0.2,0.3-0.8,0.3-0.8-0.1
					c-0.1,0.3-0.2,0.6-0.5,0.7c-0.3,0.1-0.7,0-0.7-0.3c0,0.3-0.3,0.6-0.7,0.6c-0.3,0-0.6-0.4-0.6-0.7c0-0.3,0.2-0.5,0.3-0.7
					c0.4-0.9-0.2-1.9-0.1-2.8c0-0.4,0.2-0.8,0.5-1.1C79,70,79.5,69.7,80,69.7C79.9,69.7,79.9,69.7,80,69.7z"/>
				<path class="st25" d="M78.9,70.3c-0.7,0.6-1.5,2-1.5,3c0,0.2,0,0.3,0.1,0.5c0.1,0.1,0.2,0.3,0.4,0.3c0.2,0,0.3-0.1,0.3-0.3
					c0.1-0.1,0.1-0.3,0.1-0.4c0,0,0-0.1,0-0.1c0.4-0.5,0.9-0.9,1.3-1.4L78.9,70.3z"/>
			</g>
			<path class="st3" d="M79.5,68.5c0,0.4,0,0.7,0,1c0,0.9,0.6,1.1,1.3,1.2c0.6,0,1.3-0.1,1.6-1.3c0.1-0.3,0.1-0.5,0.2-0.8
				C81.7,69.2,80.4,69,79.5,68.5z"/>
			<path class="st4" d="M83.1,61.7c0.4-0.8-0.4-8.3-0.5-8.8c0-0.1-0.1-1.7-0.3-1.7l-4.4,0c0,0.7,0.1,1.4,0.2,2c0.1,1,1,8.9,1.5,9.9
				C80.7,65.3,82.5,63,83.1,61.7z"/>
			<path class="st6" d="M80.2,45.8c1.7-0.2,2.3,1.5,2.6,2.6c0.4,1.6,0.5,3.3,0.3,5c0,0.4-0.1,0.8-0.3,1.2c-0.2,0.3-0.4,0.6-0.7,0.8
				c-0.6,0.6-1.3,1.1-2.2,1c-0.3,0-0.5-0.1-0.7-0.2c-0.3-0.1-0.7-0.3-0.9-0.5c-0.4-0.4-0.5-1.1-0.5-1.7c-0.1-1.5-0.2-3,0-4.4
				C77.9,48,78.1,46,80.2,45.8z"/>
			<path class="st6" d="M82.5,68.8c-0.2,0.8-0.9,0.9-1.6,0.8c-0.7-0.1-1.4-0.2-1.5-1.5c-0.2-2.5-0.2-3.5-0.4-5.7
				c0-0.5-0.2-1.5,0.1-1.9c0,0,0-0.1,0.1-0.1c0.2-0.2,0.5-0.1,0.8,0c1.5,0.2,2.1-1.7,3.3-1.5c0.4,0.1,0.3,1.6,0.3,2.1
				c0,0.5-0.1,1-0.1,1.5c-0.1,0.6-0.1,1.1-0.2,1.7c-0.1,0.6-0.2,1.1-0.3,1.7c-0.1,0.5-0.2,1.1-0.3,1.6
				C82.7,67.9,82.6,68.4,82.5,68.8z"/>
		</g>
		<g>
			<g>
				<g>
					<defs>
						<path id="SVGID_00000175296179069273945200000002574668131266265999_" d="M70.7,87.1l0.3-0.2c0.2-0.1,0.6-0.1,0.9,0.1
							l-0.3,0.2C71.2,87,70.9,87,70.7,87.1z"/>
					</defs>
					<use xlink:href="#SVGID_00000175296179069273945200000002574668131266265999_"  style="overflow:visible;fill:#4C1F8C;"/>
					<clipPath id="SVGID_00000132046648450372128550000005020456470687717248_">
						<use xlink:href="#SVGID_00000175296179069273945200000002574668131266265999_"  style="overflow:visible;"/>
					</clipPath>
					<g style="clip-path:url(#SVGID_00000132046648450372128550000005020456470687717248_);enable-background:new    ;">
						<path class="st3" d="M70.7,87.1l0.3-0.2c0.1-0.1,0.3-0.1,0.4-0.1L71.1,87C70.9,87,70.8,87,70.7,87.1L70.7,87.1z"/>
						<path class="st3" d="M71.1,87l0.3-0.2c0.1,0,0.2,0,0.3,0.1l-0.3,0.2C71.2,87.1,71.2,87.1,71.1,87L71.1,87z"/>
						<path class="st3" d="M71.3,87.1l0.3-0.2c0.1,0,0.2,0.1,0.3,0.1l-0.3,0.2C71.5,87.2,71.4,87.1,71.3,87.1L71.3,87.1z"/>
					</g>
				</g>
				<g>
					<defs>
						<path id="SVGID_00000013874952663350582200000010838341137113789082_" d="M72.7,90.3l-0.3,0.2c0.2-0.1,0.4-0.4,0.4-0.8
							c0-0.8-0.5-1.9-1.2-2.3l0.3-0.2c0.7,0.5,1.3,1.5,1.2,2.3C73.2,89.8,73,90.1,72.7,90.3z"/>
					</defs>
					<use xlink:href="#SVGID_00000013874952663350582200000010838341137113789082_"  style="overflow:visible;fill:#4C1F8C;"/>
					<clipPath id="SVGID_00000168092502943369741210000017481963092680766887_">
						<use xlink:href="#SVGID_00000013874952663350582200000010838341137113789082_"  style="overflow:visible;"/>
					</clipPath>
					<g style="clip-path:url(#SVGID_00000168092502943369741210000017481963092680766887_);enable-background:new    ;">
						<path class="st3" d="M71.6,87.2l0.3-0.2c0,0,0,0,0,0L71.6,87.2C71.6,87.2,71.6,87.2,71.6,87.2L71.6,87.2z"/>
						<path class="st3" d="M71.6,87.3l0.3-0.2c0.1,0.1,0.2,0.1,0.3,0.2l-0.3,0.2C71.8,87.4,71.7,87.3,71.6,87.3L71.6,87.3z"/>
						<path class="st3" d="M71.9,87.5l0.3-0.2c0.1,0.1,0.2,0.2,0.3,0.3l-0.3,0.2C72.1,87.7,72,87.6,71.9,87.5L71.9,87.5z"/>
						<path class="st3" d="M72.2,87.8l0.3-0.2c0.2,0.2,0.4,0.5,0.5,0.8l-0.3,0.2C72.5,88.3,72.4,88,72.2,87.8L72.2,87.8z"/>
						<path class="st3" d="M72.6,88.6l0.3-0.2c0,0.1,0.1,0.2,0.1,0.3l-0.3,0.2C72.7,88.8,72.7,88.7,72.6,88.6L72.6,88.6z"/>
						<path class="st3" d="M72.8,88.9l0.3-0.2c0,0.1,0.1,0.2,0.1,0.4l-0.3,0.2C72.8,89.2,72.8,89,72.8,88.9L72.8,88.9z"/>
						<path class="st3" d="M72.8,89.3l0.3-0.2c0,0.1,0,0.2,0,0.3c0,0,0,0,0,0l-0.3,0.2c0,0,0,0,0,0C72.8,89.5,72.8,89.4,72.8,89.3
							L72.8,89.3z"/>
						<path class="st3" d="M72.8,89.6l0.3-0.2c0,0.1,0,0.2,0,0.3l-0.3,0.2C72.8,89.8,72.8,89.7,72.8,89.6L72.8,89.6z"/>
						<path class="st3" d="M73.1,89l0.3-0.2c-0.1,0.2-0.2,0.4-0.4,0.5l-0.3,0.2C72.9,89.4,73,89.3,73.1,89L73.1,89z"/>
					</g>
				</g>
				<g>
					<path class="st28" d="M71.6,87.2c0.7,0.5,1.3,1.5,1.2,2.3c0,0.8-0.6,1.2-1.4,0.7c-0.7-0.5-1.3-1.5-1.2-2.3
						C70.3,87.1,70.9,86.8,71.6,87.2z"/>
				</g>
			</g>
			<g>
				<path class="st3" d="M71.5,87.6c0.5,0.3,0.9,1.1,0.9,1.7c0,0.6-0.5,0.9-1,0.5c-0.5-0.3-0.9-1.1-0.9-1.7
					C70.5,87.5,71,87.3,71.5,87.6z"/>
			</g>
			<g>
				<g>
					<path class="st28" d="M71.5,88.1c0.3,0.2,0.5,0.6,0.5,1c0,0.4-0.3,0.5-0.6,0.3c-0.3-0.2-0.5-0.6-0.5-1
						C70.9,88.1,71.2,87.9,71.5,88.1z"/>
				</g>
			</g>
		</g>
		<g>
			<g>
				<g>
					<defs>
						<path id="SVGID_00000137831842461588001830000006543308982773293954_" d="M78.9,83.1l0.3-0.2c0.2-0.1,0.6-0.1,0.9,0.1
							l-0.3,0.2C79.5,83,79.2,82.9,78.9,83.1z"/>
					</defs>
					<use xlink:href="#SVGID_00000137831842461588001830000006543308982773293954_"  style="overflow:visible;fill:#4C1F8C;"/>
					<clipPath id="SVGID_00000110433750277549612690000017608912698940225176_">
						<use xlink:href="#SVGID_00000137831842461588001830000006543308982773293954_"  style="overflow:visible;"/>
					</clipPath>
					<g style="clip-path:url(#SVGID_00000110433750277549612690000017608912698940225176_);enable-background:new    ;">
						<path class="st3" d="M78.9,83.1l0.3-0.2c0.1-0.1,0.3-0.1,0.4-0.1L79.3,83C79.2,83,79,83,78.9,83.1L78.9,83.1z"/>
						<path class="st3" d="M79.3,83l0.3-0.2c0.1,0,0.2,0,0.3,0.1l-0.3,0.2C79.5,83,79.4,83,79.3,83L79.3,83z"/>
						<path class="st3" d="M79.6,83.1l0.3-0.2c0.1,0,0.2,0.1,0.3,0.1l-0.3,0.2C79.8,83.2,79.7,83.1,79.6,83.1L79.6,83.1z"/>
					</g>
				</g>
				<g>
					<defs>
						<path id="SVGID_00000134236785066763132210000007192144632395743654_" d="M81,86.2l-0.3,0.2c0.2-0.1,0.4-0.4,0.4-0.8
							c0-0.8-0.5-1.9-1.2-2.3l0.3-0.2c0.7,0.5,1.3,1.5,1.2,2.3C81.4,85.8,81.3,86.1,81,86.2z"/>
					</defs>
					<use xlink:href="#SVGID_00000134236785066763132210000007192144632395743654_"  style="overflow:visible;fill:#4C1F8C;"/>
					<clipPath id="SVGID_00000089572372261072466960000003766236140783062201_">
						<use xlink:href="#SVGID_00000134236785066763132210000007192144632395743654_"  style="overflow:visible;"/>
					</clipPath>
					<g style="clip-path:url(#SVGID_00000089572372261072466960000003766236140783062201_);enable-background:new    ;">
						<path class="st3" d="M79.9,83.2l0.3-0.2c0,0,0,0,0,0L79.9,83.2C79.9,83.2,79.9,83.2,79.9,83.2L79.9,83.2z"/>
						<path class="st3" d="M79.9,83.2l0.3-0.2c0.1,0.1,0.2,0.1,0.3,0.2l-0.3,0.2C80.1,83.4,80,83.3,79.9,83.2L79.9,83.2z"/>
						<path class="st3" d="M80.2,83.4l0.3-0.2c0.1,0.1,0.2,0.2,0.3,0.3l-0.3,0.2C80.3,83.6,80.2,83.5,80.2,83.4L80.2,83.4z"/>
						<path class="st3" d="M80.4,83.7l0.3-0.2c0.2,0.2,0.4,0.5,0.5,0.8l-0.3,0.2C80.8,84.3,80.6,84,80.4,83.7L80.4,83.7z"/>
						<path class="st3" d="M80.9,84.5l0.3-0.2c0,0.1,0.1,0.2,0.1,0.3L81,84.9C81,84.8,80.9,84.7,80.9,84.5L80.9,84.5z"/>
						<path class="st3" d="M81,84.9l0.3-0.2c0,0.1,0.1,0.2,0.1,0.4l-0.3,0.2C81.1,85.1,81,85,81,84.9L81,84.9z"/>
						<path class="st3" d="M81.1,85.2l0.3-0.2c0,0.1,0,0.2,0,0.3c0,0,0,0,0,0l-0.3,0.2c0,0,0,0,0,0C81.1,85.5,81.1,85.3,81.1,85.2
							L81.1,85.2z"/>
						<path class="st3" d="M81.1,85.6l0.3-0.2c0,0.1,0,0.2,0,0.3l-0.3,0.2C81.1,85.8,81.1,85.7,81.1,85.6L81.1,85.6z"/>
						<path class="st3" d="M81.3,85l0.3-0.2c-0.1,0.2-0.2,0.4-0.4,0.5l-0.3,0.2C81.1,85.4,81.3,85.2,81.3,85L81.3,85z"/>
					</g>
				</g>
				<g>
					<path class="st28" d="M79.9,83.2c0.7,0.5,1.3,1.5,1.2,2.3c0,0.8-0.6,1.2-1.4,0.7c-0.7-0.5-1.3-1.5-1.2-2.3
						C78.5,83.1,79.1,82.8,79.9,83.2z"/>
				</g>
			</g>
			<g>
				<path class="st3" d="M79.8,83.6c0.5,0.3,0.9,1.1,0.9,1.7c0,0.6-0.5,0.9-1,0.5c-0.5-0.3-0.9-1.1-0.9-1.7
					C78.8,83.5,79.3,83.3,79.8,83.6z"/>
			</g>
			<g>
				<g>
					<path class="st31" d="M79.8,84.1c0.3,0.2,0.5,0.6,0.5,1c0,0.4-0.3,0.5-0.6,0.3c-0.3-0.2-0.5-0.6-0.5-1
						C79.2,84,79.5,83.9,79.8,84.1z"/>
				</g>
			</g>
		</g>
		<path class="st25" d="M53.5,55.4c-0.7-1-1.2-2-2.1-2.8c-0.3-0.3-0.6-0.6-1-0.8c-0.1-0.1-0.3-0.2-0.4-0.2c-0.2,0-0.3,0-0.5,0
			c-0.1,0.1-0.2,0.3-0.1,0.4c-0.2,0-0.5,0-0.6,0.1c-0.2,0.1-0.2,0.4-0.1,0.6c-0.2-0.1-0.5,0-0.6,0.2c-0.1,0.2-0.1,0.5,0,0.7
			c-0.2,0-0.4,0.2-0.4,0.5c0,0.2,0.1,0.5,0.3,0.6c1.2,1.5,2.9,2.2,4.3,3.5c0.3-0.2,0.5-0.4,0.6-0.7c0.1-0.4,0.3-0.7,0.6-1.1
			L53.5,55.4z"/>
		<path class="st25" d="M51.1,52.2c-1-0.9-2.3-1.9-3.5-2.6c-0.1-0.1-0.2-0.2-0.4-0.2c-0.1,0-0.3,0-0.4,0.1c-0.1,0.1-0.1,0.2-0.1,0.3
			c0,0.3,0.3,0.5,0.5,0.7c0.9,0.8,1.6,1.3,2.5,1.9c0.1,0,0,0.2,0.1,0.2c0.2,0,0.3-0.2,0.3-0.4c0-0.2-0.1-0.3-0.1-0.5L51.1,52.2z"/>
		<path class="st25" d="M53.2,53.7c-0.1-0.3-0.3-0.5-0.5-0.7c-0.4-0.3-0.9-0.3-1.3-0.4c0,0.4,0.2,0.7,0.4,1.1
			c0.2,0.3,0.5,0.6,0.7,0.9c0.2,0.2,0.3,0.5,0.5,0.7c0.1,0.1,0.3,1.3,0.5,1.3c0.2-0.1,0.4-0.5,0.3-0.6
			C53.8,55.5,53.4,54.1,53.2,53.7z"/>
		<path class="st3" d="M68.4,36.7c-0.3,0.2-0.5,0.3-0.7,0.5c0.1,0.1,0.3,0.2,0.4,0.2c0.2-0.2,0.4-0.4,0.7-0.5c1.4-0.8,3.7-0.8,5.1,0
			l0.4-0.2C72.7,35.8,70,35.8,68.4,36.7z"/>
		<g>
			<path class="st3" d="M73.9,37l0,1.9c-1.4-0.8-3.7-0.8-5.1,0c-0.7,0.4-1,0.9-1,1.5l0-1.9c0-0.5,0.3-1.1,1-1.5
				C70.2,36.1,72.5,36.1,73.9,37L73.9,37z"/>
		</g>
		<path class="st3" d="M78.4,80.2c0.2,0,0.4,0.1,0.5,0.2c0.3,0.1,0.5,0.4,0.7,0.6c0.4,0.5,0.9-0.4,1.1,0.2c0.1,0.5-0.3,3.6-0.3,4.2
			c-0.1,0.9-0.2,3.1-0.7,3.7c-0.7,0.7-1.8-1-2.7-1.1c-0.2,0-0.3-0.1-0.5-0.1c-0.9-0.4-1.5-0.4-1.6-1.5c-0.2-1.4-0.8-3.7-0.2-4.8
			c0.3-0.6,1.1-1,1.7-1.3c0.6-0.2,1.2-0.2,1.8-0.1C78.3,80.2,78.4,80.2,78.4,80.2z"/>
		<g>
			<g id="man_46_">
				<g>
					<g>
						<g>
							<g>
								<g>
									<path class="st19" d="M79.3,102.2c-0.2-0.6-1.2-0.3-1.7-0.5c-0.8-0.4-1.5-1.3-2.2-1.8c-0.7-0.5-1.6-0.9-2.5-1.3
										c-0.4-0.2-0.7-0.3-1.1-0.3c-1,0-1.8,1.4-1.7,2.3c0,0.5,0.3,0.9,0.7,1.3c0.5,0.5,1.3,0.9,2,1.1c0.8,0.2,1.5,0.5,2,1
										c0.8,0.7,1.3,1.4,2.3,1.6c1.1,0.2,2-0.4,2.1-1.5c0-0.4,0-0.8,0-1.2C79.4,102.6,79.4,102.4,79.3,102.2z"/>
								</g>
							</g>
						</g>
					</g>
				</g>
			</g>
			<g id="man_45_">
				<g>
					<g>
						<g>
							<path class="st6" d="M79.4,102.1c-0.1-0.6-1.2-0.3-1.6-0.5c-0.8-0.3-1.4-1.2-2.1-1.7c-0.7-0.5-1.5-0.9-2.3-1.2
								c-0.3-0.1-0.7-0.3-1.1-0.3c-1,0-1.7,1.3-1.7,2.2c0,0.5,0.3,0.9,0.7,1.2c0.5,0.5,1.3,0.9,1.9,1c0.7,0.2,1.4,0.4,2,1
								c0.7,0.7,1.2,1.3,2.2,1.5c1,0.1,1.9-0.4,2-1.5c0-0.4,0-0.8,0-1.1C79.4,102.4,79.5,102.2,79.4,102.1z"/>
						</g>
					</g>
				</g>
			</g>
			<path class="st3" d="M76.7,98.5c-0.1,0-0.2,0.1-0.3,0.2c-0.1,0.1-0.3,0.3-0.4,0.4c-0.2,0.3-0.2-0.1-0.3,0.4
				c0,0.3,0.2,2.1,0.3,2.5c0.1,0.5,0.7,1.3,2.3,1c0.7-0.1,1.1-0.5,1.1-1.2c0-0.9,0.2-2.2-0.3-2.9c-0.3-0.4-0.8-0.5-1.2-0.6
				c-0.4-0.1-0.8,0-1.1,0.1C76.8,98.5,76.8,98.5,76.7,98.5z"/>
			<path class="st6" d="M75.7,100.4c0.1,2.3,2.5,2.5,3.6,1.5c0.5-0.5,0.4-1.2,0.6-1.9c0.3-1.3,0.7-4.6,1.3-8.1
				c0.7-4.3-0.7-6.1-0.7-6.2c-0.2,0.6-0.6,1.3-1.2,1.6c-1.4,0.6-3.6,0.6-4.3-1C74.5,88.7,75.3,94.2,75.7,100.4z"/>
			<g>
				<path class="st4" d="M80.9,72.1c0,0.5,0,1.1,0,1.6c0,1.9-0.1,4.4-0.2,6.3c-0.1,1.1,0,2.9-0.7,3.8c-0.7,0.9-1.8,1.3-2.9,1.3
					c-0.3,0-0.7-0.1-1-0.3c-0.6-0.5-1.1-0.4-1.2-1.2c-0.9-7.5-0.8-6.9-0.7-9.7c0-0.6-0.5-2.1-0.4-3.2c0.1-1.2,1.4-3,1.8-3.6
					C77.5,64.4,81.1,68.1,80.9,72.1z"/>
				<path class="st6" d="M80.9,71.4c-0.4,1-2.2,2.9-3.3,3.6c-1.7,1.1-3.8,1.6-3.7,2.6c0.1,2.1,0.4,6.7,0.5,7.5
					c0.1,0.7,0.5,1.9,4,1.2c2-0.4,2.2-2.1,2.4-4C81.9,73.7,81,71.6,80.9,71.4z"/>
			</g>
		</g>
		<path class="st3" d="M79.2,86.6v3.8c0,0.4,0.3,0.5,0.6,0.3l0,0c0.3-0.2,0.6-0.7,0.6-1l0-4L79.2,86.6z"/>
		<path class="st3" d="M69.7,83.9c0.2,0,0.4,0.1,0.5,0.2c0.3,0.1,0.5,0.4,0.7,0.6c0.4,0.5,0.9-0.4,1.1,0.2c0.1,0.5-0.3,3.6-0.3,4.2
			c-0.1,0.9-0.2,3.1-0.7,3.7c-0.7,0.7-1.8-1-2.7-1.1c-0.2,0-0.3-0.1-0.5-0.1c-0.9-0.4-1.5-0.4-1.6-1.5c-0.2-1.4-0.8-3.7-0.2-4.8
			c0.3-0.6,1.1-1,1.7-1.3c0.6-0.2,1.2-0.2,1.8-0.1C69.6,83.9,69.7,83.9,69.7,83.9z"/>
		
			<linearGradient id="SVGID_00000142894921163973953000000015497433631571193265_" gradientUnits="userSpaceOnUse" x1="66.3605" y1="46.5603" x2="80.6604" y2="71.3284">
			<stop  offset="0" style="stop-color:#AC44EE"/>
			<stop  offset="0.3072" style="stop-color:#8334C4"/>
			<stop  offset="0.5912" style="stop-color:#6529A6"/>
			<stop  offset="0.8318" style="stop-color:#532293"/>
			<stop  offset="1" style="stop-color:#4C1F8C"/>
		</linearGradient>
		<path style="fill:url(#SVGID_00000142894921163973953000000015497433631571193265_);" d="M81.5,51.9c0.3-2.2,0.5-4.1-1.5-5.2
			c-2.5-1.4-5,0-7.3,0.8c-2.3,0.8-5.9,1.7-6.3,2.4c-1.7,2.6,2.5,8.9,1.4,18.6c-0.2,1.3-1.8,3.8,0.6,5.1c5.7,2.9,11.8-2.5,11.7-4.9
			C79.4,56,80.9,56.6,81.5,51.9z"/>
		
			<linearGradient id="SVGID_00000120525377906006000470000004167442943855382431_" gradientUnits="userSpaceOnUse" x1="-5548.8926" y1="48.9108" x2="-5540.5298" y2="58.6501" gradientTransform="matrix(1 0 0 1 5620.6914 0)">
			<stop  offset="0" style="stop-color:#E8E9FC"/>
			<stop  offset="1" style="stop-color:#D3D4EC"/>
		</linearGradient>
		<path style="fill:url(#SVGID_00000120525377906006000470000004167442943855382431_);" d="M70.6,52.6c-0.3-3-2.2-3-3.6-2.4
			c-0.5,0.2-0.9,0.5-0.9,0.5s0-1.1,1.3-2c0.4-0.3,2.2-1.1,2.7-1.4c0.9-0.5,1.9-0.8,2.8-1.3c1-0.5,2.1-0.9,3.3-1
			c1.6-0.2,3.2,0.1,4.4,1.2c1.1,1,1.5,3,1.3,4.4c-0.3,2.5-1.5,7.7-1.5,7.7s-0.6,0.4-1.1,0.7c-4.4,2.4-6.5,3.7-6.8,3.3
			C72.2,62,70.7,53.4,70.6,52.6z"/>
		<path class="st25" d="M78.6,72.9c-1.3,1.2-3.1,2.2-4.6,2.5c-2.1,0.4-4.3-0.3-6-1.7c-0.7-0.6-1.3-0.8-1.7-1.7
			c-0.3-0.7,1.3-3.4,1.3-3.4c0.4,0.3,0.9,0.6,1.4,0.9c2.4,1.4,6.3,1.2,8.8,0c1.9-1,2.1-3.4,2.1-3.4S81.1,70.6,78.6,72.9z"/>
		<path class="st3" d="M71.6,44.8c-0.1-0.7-0.6-0.5-0.3-1.2c0.2-0.5,0.5-1,1-1.4c0.4-0.4,1-0.6,1.5-0.5c0.2,0,0.3,0.1,0.5,0.1
			c0.5,0,1-0.1,1.6,0c0.5,0.1,1.5-0.1,1.5,0.5c0,3-0.1,2.8,0,3.9c0.1,1.1-0.9,2.9-4.3,2.4C70.5,48.2,71.9,47,71.6,44.8z"/>
		<g>
			<g id="man_44_">
				<g>
					<g>
						<g>
							<path class="st19" d="M70.5,106.3c-0.3-0.6-1.2,0-1.7-0.1c-0.8-0.1-1.7-0.8-2.5-1.1c-0.8-0.3-1.7-0.4-2.6-0.5
								c-0.4,0-0.8-0.3-1.2-0.2c-1,0.2-1.2,1.9-0.9,2.8c0.2,0.4,0.5,0.8,1,1c0.6,0.3,1.5,0.5,2.2,0.5c0.8,0,1.5,0.1,2.2,0.4
								c0.9,0.4,1.6,1,2.6,0.8c1-0.1,1.8-0.9,1.6-2c-0.1-0.4-0.2-0.7-0.3-1.1C70.7,106.7,70.6,106.5,70.5,106.3z"/>
						</g>
					</g>
				</g>
			</g>
			<g id="man_43_">
				<g>
					<g>
						<g>
							<path class="st31" d="M70.5,106c-0.3-0.6-1.2,0-1.7-0.1c-0.8-0.1-1.7-0.8-2.5-1.1c-0.8-0.3-1.7-0.4-2.6-0.5
								c-0.4,0-0.7-0.1-1.1,0c-1,0.2-1.3,1.7-1,2.6c0.2,0.4,0.5,0.8,1,1c0.6,0.3,1.4,0.5,2.1,0.5c0.7,0,1.5,0.1,2.1,0.4
								c0.9,0.4,1.5,1,2.6,0.8c1-0.1,1.7-0.9,1.6-2c-0.1-0.4-0.2-0.7-0.3-1.1C70.7,106.4,70.6,106.2,70.5,106z"/>
						</g>
					</g>
				</g>
			</g>
			<path class="st3" d="M68.1,102.4c-0.1,0-0.2,0.1-0.3,0.2c-0.1,0.1-0.3,0.3-0.4,0.4c-0.2,0.3-0.2-0.1-0.3,0.4
				c0,0.3,0.2,2.1,0.3,2.5c0.1,0.5,0.7,1.3,2.3,1c0.7-0.1,1.1-0.5,1.1-1.2c0-0.9,0.2-2.2-0.3-2.9c-0.3-0.4-0.8-0.5-1.2-0.6
				c-0.4-0.1-0.8,0-1.1,0.1C68.1,102.3,68.1,102.4,68.1,102.4z"/>
			
				<linearGradient id="SVGID_00000161625556757892588210000006861234806787645062_" gradientUnits="userSpaceOnUse" x1="-5554.7197" y1="95.374" x2="-5541.4766" y2="103.3199" gradientTransform="matrix(1 0 0 1 5620.6914 0)">
				<stop  offset="0" style="stop-color:#E8E9FC"/>
				<stop  offset="1" style="stop-color:#D3D4EC"/>
			</linearGradient>
			<path style="fill:url(#SVGID_00000161625556757892588210000006861234806787645062_);" d="M67,104.1c0.1,2.3,2.5,2.5,3.6,1.5
				c0.5-0.5,0.4-1.2,0.6-1.9c0.3-1.3,1-4.8,1.5-8.2c0.1-0.6,0.1-1.2,0.2-1.8c0.1-3-1.1-4.3-1.1-4.3c-0.2,0.6-0.6,1.3-1.2,1.6
				c-1.4,0.6-3.6,0.6-4.3-1C65.8,92.4,66.7,98,67,104.1z"/>
			<g>
				<path class="st4" d="M72.7,75.9c0,0.5-0.1,1.1-0.1,1.6c-0.1,1.9-0.2,4.4-0.4,6.3c-0.1,1.1-0.1,2.9-0.8,3.8
					c-0.7,0.9-1.7,1.3-2.7,1.2c-0.3,0-0.6-0.1-0.9-0.4c-0.6-0.5-1-0.4-1.1-1.2c-0.6-7.6-0.3-7.1-0.1-9.9c0-0.6-0.7-2-0.5-3.1
					c0.2-1.2,0.3-2.4,0.7-3C68.6,68.7,72.4,72.2,72.7,75.9z"/>
				
					<linearGradient id="SVGID_00000127751583729815650140000007696767123162380968_" gradientUnits="userSpaceOnUse" x1="-5554.7778" y1="79.8733" x2="-5546.7607" y2="86.068" gradientTransform="matrix(1 0 0 1 5620.6914 0)">
					<stop  offset="0" style="stop-color:#E8E9FC"/>
					<stop  offset="1" style="stop-color:#D3D4EC"/>
				</linearGradient>
				<path style="fill:url(#SVGID_00000127751583729815650140000007696767123162380968_);" d="M65.5,74.5c-0.6,5.5,0.2,12.9,0.2,12.9
					c0,0.7,0.4,3.2,4.1,2.5c2.1-0.4,2.3-2.1,2.6-4c1.2-8.5,0.9-7.8-0.1-9c-0.5-0.5-0.7-1.2-1.1-1.8C70.2,73.7,66,70.6,65.5,74.5z"/>
			</g>
		</g>
		<path class="st25" d="M74,33.2c-1.2,0-2.4,0.4-3.3,1V44c0.9,0.6,2.1,1,3.3,1c3.3,0,5.9-2.7,5.9-5.9C79.9,35.8,77.3,33.2,74,33.2z"
			/>
		<g>
			<path class="st25" d="M69.2,35.4c-0.5,0.7-0.8,1.5-0.8,2.4c0,0.4-0.3,4.2-0.2,4.5c0.1,0.2,0.2,2.8,1.2,3.5
				c0.2,0.2,0.5,0.2,0.8,0.2c0.4,0,2-0.3,2.7-0.6c0.7-0.3,1.6-0.6,2.1-1.1c0.4-0.4,0.7-1.1,1.1-2.2c0,0,0.8,0,1.4-0.8
				c0.8-1.2,1-2.1,1-3.3c0-1-0.1-1.9-0.7-2.8c-0.5-0.7-1.2-1.3-2-1.6c-1.2-0.5-2.5-0.5-3.8-0.2C70.9,33.7,69.8,34.4,69.2,35.4z"/>
		</g>
		<path class="st3" d="M74.9,33.2c-3.2-0.6-5.3,2.6-4.5,4.7c0.6,1.4,2.9,1.5,3.4,4.5c0.1,0.5-0.2,2.2,0,2.6c1,2.1,3.9-1.1,4.8-2.2
			c0.8-1,1.3-2.4,1.3-3.7c0-1.9-0.9-3.7-2.5-4.8C76.8,33.8,75.8,33.4,74.9,33.2z"/>
		<path class="st25" d="M73,34.8c-1.1,1.2-0.8,2.7,1.3,4.1c1.8,1.2,0.9,4.3,1.9,6.3c1-0.7,2-1.9,2.5-2.4c0.8-1,1.3-2.4,1.3-3.7
			c0-1.9-0.9-3.7-2.5-4.8c-0.5-0.4-1.2-0.7-1.9-0.9C74.6,33.6,73.7,34,73,34.8z"/>
		<g>
			<g>
				<g>
					<defs>
						<path id="SVGID_00000059287054740922501620000008693204995952373150_" d="M71.4,39.8l0.4-0.2c0.3-0.1,0.6-0.1,1,0.1L72.5,40
							C72.1,39.7,71.7,39.7,71.4,39.8z"/>
					</defs>
					<use xlink:href="#SVGID_00000059287054740922501620000008693204995952373150_"  style="overflow:visible;fill:#7350BA;"/>
					<clipPath id="SVGID_00000109732500801248997860000003890032930587898020_">
						<use xlink:href="#SVGID_00000059287054740922501620000008693204995952373150_"  style="overflow:visible;"/>
					</clipPath>
					<g style="clip-path:url(#SVGID_00000109732500801248997860000003890032930587898020_);enable-background:new    ;">
						<path class="st4" d="M71.4,39.8l0.4-0.2c0.1-0.1,0.3-0.1,0.5-0.1l-0.4,0.2C71.7,39.7,71.6,39.7,71.4,39.8L71.4,39.8z"/>
						<path class="st4" d="M71.9,39.7l0.4-0.2c0.1,0,0.2,0,0.3,0.1l-0.4,0.2C72.1,39.8,72,39.7,71.9,39.7L71.9,39.7z"/>
						<path class="st4" d="M72.2,39.8l0.4-0.2c0.1,0,0.2,0.1,0.3,0.1L72.5,40C72.4,39.9,72.3,39.8,72.2,39.8L72.2,39.8z"/>
					</g>
				</g>
				<g>
					<defs>
						<path id="SVGID_00000052795507515929706680000000208439178950479026_" d="M73.7,43.3l-0.4,0.2c0.3-0.1,0.4-0.5,0.5-0.9
							c0-0.9-0.6-2.1-1.4-2.6l0.4-0.2c0.8,0.5,1.4,1.6,1.4,2.6C74.2,42.8,74,43.1,73.7,43.3z"/>
					</defs>
					<use xlink:href="#SVGID_00000052795507515929706680000000208439178950479026_"  style="overflow:visible;fill:#7350BA;"/>
					<clipPath id="SVGID_00000070798844839786477240000000957397833939673476_">
						<use xlink:href="#SVGID_00000052795507515929706680000000208439178950479026_"  style="overflow:visible;"/>
					</clipPath>
					<g style="clip-path:url(#SVGID_00000070798844839786477240000000957397833939673476_);enable-background:new    ;">
						<path class="st4" d="M72.5,40l0.4-0.2c0,0,0,0,0,0L72.5,40C72.5,40,72.5,40,72.5,40L72.5,40z"/>
						<path class="st4" d="M72.5,40l0.4-0.2c0.1,0.1,0.2,0.1,0.3,0.2l-0.4,0.2C72.7,40.1,72.6,40,72.5,40L72.5,40z"/>
						<path class="st4" d="M72.8,40.2l0.4-0.2c0.1,0.1,0.2,0.2,0.3,0.3l-0.4,0.2C73,40.4,72.9,40.3,72.8,40.2L72.8,40.2z"/>
						<path class="st4" d="M73.1,40.5l0.4-0.2c0.2,0.3,0.4,0.6,0.5,0.9l-0.4,0.2C73.5,41.1,73.3,40.8,73.1,40.5L73.1,40.5z"/>
						<path class="st4" d="M73.6,41.4l0.4-0.2c0,0.1,0.1,0.2,0.1,0.4l-0.4,0.2C73.7,41.7,73.7,41.5,73.6,41.4L73.6,41.4z"/>
						<path class="st4" d="M73.7,41.8l0.4-0.2c0,0.1,0.1,0.3,0.1,0.4l-0.4,0.2C73.8,42,73.8,41.9,73.7,41.8L73.7,41.8z"/>
						<path class="st4" d="M73.8,42.2l0.4-0.2c0,0.1,0,0.2,0,0.4c0,0,0,0,0,0l-0.4,0.2c0,0,0,0,0,0C73.8,42.4,73.8,42.3,73.8,42.2
							L73.8,42.2z"/>
						<path class="st4" d="M73.8,42.5l0.4-0.2c0,0.1,0,0.2-0.1,0.3l-0.4,0.2C73.8,42.8,73.8,42.7,73.8,42.5L73.8,42.5z"/>
						<path class="st4" d="M74.1,41.9l0.4-0.2c-0.1,0.3-0.2,0.5-0.4,0.5l-0.4,0.2C73.9,42.4,74,42.2,74.1,41.9L74.1,41.9z"/>
					</g>
				</g>
				<g>
					<path class="st31" d="M72.5,40c0.8,0.5,1.4,1.6,1.4,2.6c0,0.9-0.7,1.3-1.5,0.8c-0.8-0.5-1.4-1.6-1.4-2.6
						C71,39.8,71.7,39.5,72.5,40z"/>
				</g>
			</g>
			<g>
				<path class="st4" d="M72.4,40.4c0.6,0.4,1,1.2,1,1.9c0,0.7-0.5,0.9-1.1,0.6c-0.6-0.4-1-1.2-1-1.9C71.3,40.3,71.8,40,72.4,40.4z"
					/>
			</g>
			<g>
				<g>
					<path class="st31" d="M72.4,40.9c0.3,0.2,0.6,0.7,0.6,1.1c0,0.4-0.3,0.5-0.6,0.3c-0.3-0.2-0.6-0.7-0.6-1.1
						C71.8,40.9,72,40.7,72.4,40.9z"/>
				</g>
			</g>
		</g>
		<path class="st3" d="M55,56.6c-0.3-0.2-0.7-0.4-0.9-0.5c-0.8-0.5-1.3,0-1.7,0.5c-0.4,0.6-0.6,1.3,0.3,2.1c0.2,0.2,0.4,0.4,0.6,0.6
			C53.2,58.3,54,57.2,55,56.6z"/>
		<path class="st4" d="M63.3,64.9c1-0.8,3.6-6.7,3.8-7.1c0.1-0.1,0.8-1.4,0.7-1.5l-3.7-2.5c-0.4,0.5-0.6,1.2-0.9,1.7
			c-0.5,0.9-2.6,6.5-2.8,7.6C60.1,65.5,62.2,65.9,63.3,64.9z"/>
		<path class="st25" d="M69.2,50.6c1.6,0.8,1.1,2.5,0.7,3.7c-0.5,1.6-1.4,3-2.5,4.3c-0.3,0.3-0.6,0.6-1,0.8c-0.3,0.2-0.7,0.2-1,0.3
			c-0.8,0.1-1.8,0.1-2.4-0.4c-0.2-0.2-0.4-0.4-0.5-0.6C62.2,58.4,62,58,62,57.7c-0.1-0.6,0.2-1.2,0.5-1.7c0.7-1.3,1.5-2.5,2.5-3.7
			C65.9,51.1,67.2,49.6,69.2,50.6z"/>
		<path class="st25" d="M53.1,59.2c-0.7-0.6-0.3-1.3,0.1-1.9c0.4-0.6,1-1.1,2.1-0.6c2.5,1.1,3.3,1.7,5.4,2.7
			c0.5,0.2,1.5,0.6,1.7,1.1c0.3,0.5-0.6,0.9-0.6,1.5c0,0.3,0.4,1,0.6,1.2c0.4,0.7,0,2-0.7,2.1C60.3,65.3,55.3,61.1,53.1,59.2z"/>
		<g>
			<g class="st10">
				<g class="st10">
					<defs>
						<path id="SVGID_00000152260706437198017260000016519219377149186454_" class="st10" d="M67.7,40.3l0-1.9c0-0.5,0.3-1.1,1-1.5
							c1.4-0.8,3.7-0.8,5.1,0l0,1.9c-1.4-0.8-3.7-0.8-5.1,0C68.1,39.2,67.7,39.7,67.7,40.3z"/>
					</defs>
					<clipPath id="SVGID_00000101819394496694981810000005592814606757002683_">
						<use xlink:href="#SVGID_00000152260706437198017260000016519219377149186454_"  style="overflow:visible;"/>
					</clipPath>
				</g>
				<g>
					<polygon class="st6" points="68.9,40 68.9,41.8 68.5,42.1 68.5,40.2 					"/>
				</g>
				<g class="st10">
					<defs>
						<path id="SVGID_00000080896560051103007450000000748776446182753426_" class="st10" d="M67.2,40.3l0-1.9
							c0,0.6,0.4,1.2,1.2,1.7c0,0,0.1,0,0.1,0.1l0,1.9c0,0-0.1,0-0.1-0.1C67.6,41.5,67.2,40.9,67.2,40.3z"/>
					</defs>
					<clipPath id="SVGID_00000114061630546016220530000014703736888814428345_">
						<use xlink:href="#SVGID_00000080896560051103007450000000748776446182753426_"  style="overflow:visible;"/>
					</clipPath>
					<g style="clip-path:url(#SVGID_00000114061630546016220530000014703736888814428345_);">
						<g>
							<path class="st25" d="M68.5,40.2l0,1.9c0,0-0.1,0-0.1-0.1c-0.8-0.5-1.2-1.1-1.2-1.7l0-1.9c0,0.6,0.4,1.2,1.2,1.7
								C68.4,40.2,68.5,40.2,68.5,40.2L68.5,40.2z"/>
						</g>
					</g>
				</g>
				<g>
					<path class="st3" d="M68.4,40.1c0,0,0.1,0,0.1,0.1l0.4-0.2c0,0-0.1,0-0.1-0.1c-1.1-0.7-1.4-1.6-0.7-2.4
						c-0.1-0.1-0.3-0.2-0.4-0.2C66.8,38.2,67.1,39.4,68.4,40.1z"/>
				</g>
			</g>
		</g>
		<path class="st3" d="M70.5,90.4l0,3.8c0,0.4,0.3,0.5,0.6,0.3l0,0c0.3-0.2,0.6-0.7,0.6-1l0-4L70.5,90.4z"/>
		<path class="st3" d="M70.7,105.5v-2.6c0-0.3-0.2-0.4-0.4-0.2l0,0c-0.2,0.1-0.4,0.5-0.4,0.7l0,2.8l0.5-0.2L70.7,105.5z"/>
		<path class="st3" d="M79.4,101.8l0-2.4c0-0.2-0.2-0.3-0.4-0.2l0,0c-0.2,0.1-0.4,0.4-0.4,0.7l0,2.5l0.5-0.2L79.4,101.8z"/>
		<g>
			<g>
				<g>
					<defs>
						<path id="SVGID_00000112618578861764609700000013845185034724628121_" d="M65.3,88.7l0.4-0.2c0.3-0.1,0.6-0.1,1,0.1l-0.4,0.2
							C66,88.6,65.6,88.6,65.3,88.7z"/>
					</defs>
					<use xlink:href="#SVGID_00000112618578861764609700000013845185034724628121_"  style="overflow:visible;fill:#4C1F8C;"/>
					<clipPath id="SVGID_00000181799664665925365510000000804533139942428831_">
						<use xlink:href="#SVGID_00000112618578861764609700000013845185034724628121_"  style="overflow:visible;"/>
					</clipPath>
					<g style="clip-path:url(#SVGID_00000181799664665925365510000000804533139942428831_);enable-background:new    ;">
						<path class="st3" d="M65.3,88.7l0.4-0.2c0.1-0.1,0.3-0.1,0.4-0.1l-0.4,0.2C65.6,88.6,65.5,88.7,65.3,88.7L65.3,88.7z"/>
						<path class="st3" d="M65.8,88.7l0.4-0.2c0.1,0,0.2,0,0.3,0.1l-0.4,0.2C66,88.7,65.9,88.7,65.8,88.7L65.8,88.7z"/>
						<path class="st3" d="M66.1,88.7l0.4-0.2c0.1,0,0.2,0.1,0.3,0.1l-0.4,0.2C66.3,88.8,66.2,88.8,66.1,88.7L66.1,88.7z"/>
					</g>
				</g>
				<g>
					<defs>
						<path id="SVGID_00000137117746944986457550000017836915737399251354_" d="M67.6,92.1l-0.4,0.2c0.3-0.1,0.4-0.5,0.5-0.9
							c0-0.9-0.6-2.1-1.3-2.5l0.4-0.2c0.8,0.5,1.4,1.6,1.3,2.5C68.1,91.7,67.9,92,67.6,92.1z"/>
					</defs>
					<use xlink:href="#SVGID_00000137117746944986457550000017836915737399251354_"  style="overflow:visible;fill:#4C1F8C;"/>
					<clipPath id="SVGID_00000173142283000459847120000005058362259545222073_">
						<use xlink:href="#SVGID_00000137117746944986457550000017836915737399251354_"  style="overflow:visible;"/>
					</clipPath>
					<g style="clip-path:url(#SVGID_00000173142283000459847120000005058362259545222073_);enable-background:new    ;">
						<path class="st3" d="M66.4,88.9l0.4-0.2c0,0,0,0,0,0L66.4,88.9C66.4,88.9,66.4,88.9,66.4,88.9L66.4,88.9z"/>
						<path class="st3" d="M66.4,88.9l0.4-0.2c0.1,0.1,0.2,0.1,0.3,0.2l-0.4,0.2C66.6,89,66.5,88.9,66.4,88.9L66.4,88.9z"/>
						<path class="st3" d="M66.7,89.1l0.4-0.2c0.1,0.1,0.2,0.2,0.3,0.3L67,89.4C66.9,89.3,66.8,89.2,66.7,89.1L66.7,89.1z"/>
						<path class="st3" d="M67,89.4l0.4-0.2c0.2,0.3,0.4,0.6,0.5,0.9l-0.4,0.2C67.4,90,67.2,89.7,67,89.4L67,89.4z"/>
						<path class="st3" d="M67.5,90.3l0.4-0.2c0,0.1,0.1,0.2,0.1,0.4l-0.4,0.2C67.6,90.6,67.6,90.4,67.5,90.3L67.5,90.3z"/>
						<path class="st3" d="M67.6,90.7l0.4-0.2c0,0.1,0.1,0.3,0.1,0.4l-0.4,0.2C67.7,90.9,67.7,90.8,67.6,90.7L67.6,90.7z"/>
						<path class="st3" d="M67.7,91.1l0.4-0.2c0,0.1,0,0.2,0,0.3c0,0,0,0,0,0l-0.4,0.2c0,0,0,0,0,0C67.7,91.3,67.7,91.2,67.7,91.1
							L67.7,91.1z"/>
						<path class="st3" d="M67.7,91.4l0.4-0.2c0,0.1,0,0.2-0.1,0.3l-0.4,0.2C67.7,91.7,67.7,91.5,67.7,91.4L67.7,91.4z"/>
						<path class="st3" d="M68,90.8l0.4-0.2c-0.1,0.3-0.2,0.4-0.4,0.5l-0.4,0.2C67.7,91.3,67.9,91.1,68,90.8L68,90.8z"/>
					</g>
				</g>
				<g>
					<path class="st7" d="M66.4,88.9c0.8,0.5,1.4,1.6,1.3,2.5c0,0.9-0.7,1.3-1.5,0.8c-0.8-0.5-1.4-1.6-1.3-2.5
						C64.9,88.7,65.6,88.4,66.4,88.9z"/>
				</g>
			</g>
			<g>
				<path class="st3" d="M66.3,89.3c0.6,0.4,1,1.2,1,1.9c0,0.7-0.5,0.9-1.1,0.6c-0.6-0.4-1-1.2-1-1.9C65.2,89.2,65.7,88.9,66.3,89.3
					z"/>
			</g>
			<g>
				<g>
					<path class="st25" d="M66.3,89.8c0.3,0.2,0.6,0.7,0.6,1.1c0,0.4-0.3,0.5-0.6,0.3c-0.3-0.2-0.6-0.7-0.6-1.1
						C65.7,89.8,65.9,89.6,66.3,89.8z"/>
				</g>
			</g>
		</g>
		<g>
			<g>
				<g>
					<defs>
						<path id="SVGID_00000106136707015724410940000002584042802036458410_" d="M59.8,61.9l0.4-0.2c0.3-0.1,0.6-0.1,1,0.1l-0.4,0.2
							C60.4,61.8,60,61.8,59.8,61.9z"/>
					</defs>
					<use xlink:href="#SVGID_00000106136707015724410940000002584042802036458410_"  style="overflow:visible;fill:#4C1F8C;"/>
					<clipPath id="SVGID_00000073717287175357844990000014533880586255424676_">
						<use xlink:href="#SVGID_00000106136707015724410940000002584042802036458410_"  style="overflow:visible;"/>
					</clipPath>
					<g style="clip-path:url(#SVGID_00000073717287175357844990000014533880586255424676_);enable-background:new    ;">
						<path class="st3" d="M59.8,61.9l0.4-0.2c0.1-0.1,0.3-0.1,0.4-0.1l-0.4,0.2C60,61.8,59.9,61.8,59.8,61.9L59.8,61.9z"/>
						<path class="st3" d="M60.2,61.8l0.4-0.2c0.1,0,0.2,0,0.3,0.1l-0.4,0.2C60.4,61.9,60.3,61.8,60.2,61.8L60.2,61.8z"/>
						<path class="st3" d="M60.5,61.9l0.4-0.2c0.1,0,0.2,0.1,0.3,0.1l-0.4,0.2C60.7,62,60.6,61.9,60.5,61.9L60.5,61.9z"/>
					</g>
				</g>
				<g>
					<defs>
						<path id="SVGID_00000101801960098715961260000008606196073265481662_" d="M62,65.3l-0.4,0.2c0.3-0.1,0.4-0.5,0.5-0.9
							c0-0.9-0.6-2.1-1.3-2.5l0.4-0.2c0.8,0.5,1.4,1.6,1.3,2.5C62.5,64.9,62.3,65.2,62,65.3z"/>
					</defs>
					<use xlink:href="#SVGID_00000101801960098715961260000008606196073265481662_"  style="overflow:visible;fill:#4C1F8C;"/>
					<clipPath id="SVGID_00000070106485984084946040000001221817447470068872_">
						<use xlink:href="#SVGID_00000101801960098715961260000008606196073265481662_"  style="overflow:visible;"/>
					</clipPath>
					<g style="clip-path:url(#SVGID_00000070106485984084946040000001221817447470068872_);enable-background:new    ;">
						<path class="st3" d="M60.8,62.1l0.4-0.2c0,0,0,0,0,0L60.8,62.1C60.8,62.1,60.8,62.1,60.8,62.1L60.8,62.1z"/>
						<path class="st3" d="M60.8,62.1l0.4-0.2c0.1,0.1,0.2,0.1,0.3,0.2l-0.4,0.2C61,62.2,60.9,62.1,60.8,62.1L60.8,62.1z"/>
						<path class="st3" d="M61.1,62.3l0.4-0.2c0.1,0.1,0.2,0.2,0.3,0.3l-0.4,0.2C61.3,62.5,61.2,62.4,61.1,62.3L61.1,62.3z"/>
						<path class="st3" d="M61.4,62.6l0.4-0.2c0.2,0.3,0.4,0.6,0.5,0.9l-0.4,0.2C61.8,63.2,61.6,62.9,61.4,62.6L61.4,62.6z"/>
						<path class="st3" d="M61.9,63.5l0.4-0.2c0,0.1,0.1,0.2,0.1,0.4L62,63.9C62,63.8,62,63.6,61.9,63.5L61.9,63.5z"/>
						<path class="st3" d="M62,63.9l0.4-0.2c0,0.1,0.1,0.3,0.1,0.4l-0.4,0.2C62.1,64.1,62.1,64,62,63.9L62,63.9z"/>
						<path class="st3" d="M62.1,64.3l0.4-0.2c0,0.1,0,0.2,0,0.3c0,0,0,0,0,0l-0.4,0.2c0,0,0,0,0,0C62.1,64.5,62.1,64.4,62.1,64.3
							L62.1,64.3z"/>
						<path class="st3" d="M62.1,64.6l0.4-0.2c0,0.1,0,0.2-0.1,0.3L62.1,65C62.1,64.8,62.1,64.7,62.1,64.6L62.1,64.6z"/>
						<path class="st3" d="M62.4,64l0.4-0.2c-0.1,0.3-0.2,0.4-0.4,0.5L62,64.5C62.2,64.4,62.3,64.3,62.4,64L62.4,64z"/>
					</g>
				</g>
				<g>
					<path class="st6" d="M60.8,62c0.8,0.5,1.4,1.6,1.3,2.5c0,0.9-0.7,1.3-1.5,0.8c-0.8-0.5-1.4-1.6-1.3-2.5
						C59.3,61.9,60,61.6,60.8,62z"/>
				</g>
			</g>
			<g>
				<path class="st3" d="M60.7,62.5c0.6,0.4,1,1.2,1,1.9c0,0.7-0.5,0.9-1.1,0.6c-0.6-0.4-1-1.2-1-1.9C59.6,62.4,60.1,62.1,60.7,62.5
					z"/>
			</g>
			<g>
				<g>
					<path class="st6" d="M60.7,63c0.3,0.2,0.6,0.7,0.6,1.1c0,0.4-0.3,0.5-0.6,0.3c-0.3-0.2-0.6-0.7-0.6-1.1
						C60.1,62.9,60.3,62.8,60.7,63z"/>
				</g>
			</g>
		</g>
		<g>
			<g>
				<g>
					<defs>
						<path id="SVGID_00000146479924648374722100000009321107840457561010_" d="M74.1,84.9l0.3-0.2c0.2-0.1,0.6-0.1,0.9,0.1L75.1,85
							C74.7,84.8,74.4,84.8,74.1,84.9z"/>
					</defs>
					<use xlink:href="#SVGID_00000146479924648374722100000009321107840457561010_"  style="overflow:visible;fill:#4C1F8C;"/>
					<clipPath id="SVGID_00000121259767895778645060000015403165241780969382_">
						<use xlink:href="#SVGID_00000146479924648374722100000009321107840457561010_"  style="overflow:visible;"/>
					</clipPath>
					<g style="clip-path:url(#SVGID_00000121259767895778645060000015403165241780969382_);enable-background:new    ;">
						<path class="st3" d="M74.1,84.9l0.3-0.2c0.1-0.1,0.3-0.1,0.4-0.1l-0.3,0.2C74.4,84.8,74.3,84.8,74.1,84.9L74.1,84.9z"/>
						<path class="st3" d="M74.5,84.8l0.3-0.2c0.1,0,0.2,0,0.3,0.1l-0.3,0.2C74.7,84.9,74.6,84.8,74.5,84.8L74.5,84.8z"/>
						<path class="st3" d="M74.8,84.9l0.3-0.2c0.1,0,0.2,0.1,0.3,0.1L75.1,85C75,85,74.9,84.9,74.8,84.9L74.8,84.9z"/>
					</g>
				</g>
				<g>
					<defs>
						<path id="SVGID_00000095314915870538603550000011889369898714305179_" d="M76.2,88l-0.3,0.2c0.2-0.1,0.4-0.4,0.4-0.8
							c0-0.8-0.5-1.9-1.2-2.3l0.3-0.2c0.7,0.5,1.3,1.5,1.2,2.3C76.6,87.6,76.5,87.9,76.2,88z"/>
					</defs>
					<use xlink:href="#SVGID_00000095314915870538603550000011889369898714305179_"  style="overflow:visible;fill:#4C1F8C;"/>
					<clipPath id="SVGID_00000018924245893621078020000002028992612018379166_">
						<use xlink:href="#SVGID_00000095314915870538603550000011889369898714305179_"  style="overflow:visible;"/>
					</clipPath>
					<g style="clip-path:url(#SVGID_00000018924245893621078020000002028992612018379166_);enable-background:new    ;">
						<path class="st3" d="M75.1,85l0.3-0.2c0,0,0,0,0,0L75.1,85C75.1,85,75.1,85,75.1,85L75.1,85z"/>
						<path class="st3" d="M75.1,85l0.3-0.2c0.1,0.1,0.2,0.1,0.3,0.2l-0.3,0.2C75.3,85.2,75.2,85.1,75.1,85L75.1,85z"/>
						<path class="st3" d="M75.4,85.3l0.3-0.2c0.1,0.1,0.2,0.2,0.3,0.3l-0.3,0.2C75.6,85.4,75.5,85.3,75.4,85.3L75.4,85.3z"/>
						<path class="st3" d="M75.6,85.5l0.3-0.2c0.2,0.2,0.4,0.5,0.5,0.8l-0.3,0.2C76,86.1,75.8,85.8,75.6,85.5L75.6,85.5z"/>
						<path class="st3" d="M76.1,86.4l0.3-0.2c0,0.1,0.1,0.2,0.1,0.3l-0.3,0.2C76.2,86.6,76.2,86.5,76.1,86.4L76.1,86.4z"/>
						<path class="st3" d="M76.2,86.7l0.3-0.2c0,0.1,0.1,0.2,0.1,0.3l-0.3,0.2C76.3,86.9,76.3,86.8,76.2,86.7L76.2,86.7z"/>
						<path class="st3" d="M76.3,87.1l0.3-0.2c0,0.1,0,0.2,0,0.3c0,0,0,0,0,0l-0.3,0.2c0,0,0,0,0,0C76.3,87.3,76.3,87.2,76.3,87.1
							L76.3,87.1z"/>
						<path class="st3" d="M76.3,87.4l0.3-0.2c0,0.1,0,0.2,0,0.3l-0.3,0.2C76.3,87.6,76.3,87.5,76.3,87.4L76.3,87.4z"/>
						<path class="st3" d="M76.6,86.8l0.3-0.2c-0.1,0.2-0.2,0.4-0.4,0.5l-0.3,0.2C76.3,87.2,76.5,87.1,76.6,86.8L76.6,86.8z"/>
					</g>
				</g>
				<g>
					<path class="st7" d="M75.1,85c0.7,0.5,1.3,1.5,1.2,2.3c0,0.8-0.6,1.2-1.4,0.7c-0.7-0.5-1.3-1.5-1.2-2.3
						C73.7,84.9,74.4,84.6,75.1,85z"/>
				</g>
			</g>
			<g>
				<path class="st3" d="M75,85.4c0.5,0.3,0.9,1.1,0.9,1.7c0,0.6-0.5,0.9-1,0.5c-0.5-0.3-0.9-1.1-0.9-1.7C74,85.3,74.5,85.1,75,85.4
					z"/>
			</g>
			<g>
				<path class="st7" d="M75,85.9c0.3,0.2,0.5,0.6,0.5,1c0,0.4-0.3,0.5-0.6,0.3c-0.3-0.2-0.5-0.6-0.5-1C74.4,85.9,74.7,85.7,75,85.9
					z"/>
			</g>
		</g>
		<polygon class="st3" points="64.4,55.7 64.8,58.7 63,56.9 		"/>
		<path class="st3" d="M75.5,51.7c0,0.7,0.5,1,1.2,0.7c0.6-0.4,1.2-1.3,1.2-2c0-0.7-0.5-1-1.2-0.7C76,50.1,75.5,51,75.5,51.7z"/>
		<path class="st3" d="M75.8,54.8c0,0.6,0.4,0.8,0.9,0.5c0.5-0.3,0.9-1,0.9-1.5c0-0.6-0.4-0.8-0.9-0.5
			C76.2,53.6,75.8,54.3,75.8,54.8z"/>
		<path class="st3" d="M76.2,57.3c0,0.3,0.2,0.5,0.5,0.3c0.3-0.2,0.5-0.6,0.5-0.9s-0.2-0.5-0.5-0.3C76.4,56.6,76.2,57,76.2,57.3z"/>
	</g>
	<g>
		<g>
			<g>
				<polygon class="st5" points="13.7,45.2 1.2,44.5 1.2,43.6 13.1,44.2 23.7,25 30.6,33.8 39.7,26.1 46.3,9.4 58.2,0 58.8,0.7 
					47,9.9 40.5,26.6 30.5,35.1 23.8,26.6 				"/>
			</g>
			<g>
				<path class="st5" d="M47.7,9.2c0,0.8-0.5,1.7-1.2,2.1c-0.7,0.4-1.2,0.1-1.2-0.7c0-0.8,0.5-1.7,1.2-2.1
					C47.2,8.1,47.7,8.4,47.7,9.2z"/>
				<path class="st5" d="M41.4,25.4c0,0.8-0.5,1.7-1.2,2.1c-0.7,0.4-1.2,0.1-1.2-0.7s0.5-1.7,1.2-2.1C40.8,24.3,41.4,24.6,41.4,25.4
					z"/>
				<path class="st5" d="M32.1,33.7c0,0.8-0.5,1.7-1.2,2.1c-0.7,0.4-1.2,0.1-1.2-0.7c0-0.8,0.5-1.7,1.2-2.1
					C31.5,32.6,32.1,32.9,32.1,33.7z"/>
				<path class="st5" d="M24.7,25.4c0,0.8-0.5,1.7-1.2,2.1c-0.7,0.4-1.2,0.1-1.2-0.7s0.5-1.7,1.2-2.1C24.2,24.3,24.7,24.6,24.7,25.4
					z"/>
				<path class="st5" d="M14.8,44.1c0,0.8-0.5,1.7-1.2,2.1c-0.7,0.4-1.2,0.1-1.2-0.7c0-0.8,0.5-1.7,1.2-2.1
					C14.2,43,14.8,43.3,14.8,44.1z"/>
				<path class="st5" d="M2.4,43.3c0,0.8-0.5,1.7-1.2,2.1C0.5,45.8,0,45.5,0,44.7C0,44,0.5,43,1.2,42.6C1.9,42.3,2.4,42.6,2.4,43.3z
					"/>
			</g>
		</g>
		<g>
			<g>
				<polygon class="st3" points="2.1,50 1.4,49.5 12.8,34.8 22.1,38.8 33.6,21.5 44.1,20.5 52.4,12.6 52.4,12.6 65.6,6.9 65.9,7.7 
					52.9,13.3 44.5,21.3 34.1,22.4 22.5,39.9 13.1,35.9 				"/>
			</g>
			<g>
				<path class="st3" d="M35,21.5c0,0.8-0.5,1.7-1.2,2.1c-0.7,0.4-1.2,0.1-1.2-0.7c0-0.8,0.5-1.7,1.2-2.1C34.4,20.4,35,20.7,35,21.5
					z"/>
				<path class="st3" d="M23.8,38.3c0,0.8-0.5,1.7-1.2,2.1c-0.7,0.4-1.2,0.1-1.2-0.7c0-0.8,0.5-1.7,1.2-2.1
					C23.2,37.2,23.8,37.5,23.8,38.3z"/>
				<path class="st3" d="M14.3,34.6c0,0.8-0.5,1.7-1.2,2.1c-0.7,0.4-1.2,0.1-1.2-0.7c0-0.8,0.5-1.7,1.2-2.1
					C13.7,33.6,14.3,33.9,14.3,34.6z"/>
				<path class="st3" d="M3.2,48.8c0,0.8-0.5,1.7-1.2,2.1c-0.7,0.4-1.2,0.1-1.2-0.7c0-0.8,0.5-1.7,1.2-2.1C2.6,47.7,3.2,48,3.2,48.8
					z"/>
				<path class="st3" d="M45.6,19.9c0,0.8-0.5,1.7-1.2,2.1c-0.7,0.4-1.2,0.1-1.2-0.7s0.5-1.7,1.2-2.1C45.1,18.8,45.6,19.2,45.6,19.9
					z"/>
				<path class="st3" d="M53.5,12.6c0,0.8-0.5,1.7-1.2,2.1c-0.7,0.4-1.2,0.1-1.2-0.7c0-0.8,0.5-1.7,1.2-2.1
					C52.9,11.5,53.5,11.8,53.5,12.6z"/>
			</g>
		</g>
	</g>
</g>
</svg>
