<?xml version="1.0" encoding="utf-8"?>
<!-- Generator: Adobe Illustrator 25.4.1, SVG Export Plug-In . SVG Version: 6.00 Build 0)  -->
<svg version="1.1" id="Layer_1" xmlns="http://www.w3.org/2000/svg" xmlns:xlink="http://www.w3.org/1999/xlink" x="0px" y="0px"
	 viewBox="0 0 108.5 138.9" style="enable-background:new 0 0 108.5 138.9;" xml:space="preserve">
<style type="text/css">
	.st0{fill:#AC44EE;}
	.st1{opacity:0.3;fill:#D9CDC1;}
	.st2{fill:#4C1F8C;}
	.st3{fill:#DDDEFA;}
	.st4{fill:#7350BA;}
	.st5{fill:#FF445F;}
	.st6{enable-background:new    ;}
	.st7{fill:#C9C9EC;}
	.st8{fill:#817AC4;}
	.st9{clip-path:url(#SVGID_00000067930178570123418960000013388418832392963988_);enable-background:new    ;}
	.st10{clip-path:url(#SVGID_00000005257199306605512340000014113341923489211294_);enable-background:new    ;}
	.st11{clip-path:url(#SVGID_00000074429957424103205210000012788705100143914664_);enable-background:new    ;}
	.st12{fill:#E8E9FC;}
	.st13{fill:#FFDE38;}
	.st14{opacity:0.5;}
	.st15{fill:#F1F1F9;}
	.st16{fill:#ADB2CC;}
	.st17{opacity:0.3;fill:#4C1F8C;}
</style>
<g>
	<g>
		<g>
			<path class="st0" d="M102.1,113.9c0,0.1-0.1,0.1-0.2,0.1c0,0-0.1,0-0.1,0l-1.1-0.7l-11.3-6.5c-0.1,0-0.1-0.1-0.1-0.2
				c0-0.1,0-0.1,0.1-0.2l4.2-2.4l-3.8-2.2l-0.6-0.4l0.4-0.2l0.6,0.4l3.9,2.2c0.1,0,0.1,0.1,0.1,0.2c0,0.1,0,0.1-0.1,0.2l-4.2,2.4
				l11.2,6.5l0.9,0.5C102.2,113.7,102.2,113.8,102.1,113.9z"/>
		</g>
		<g>
			<path class="st0" d="M62,138.1c0,0.1-0.1,0.1-0.2,0.1c0,0-0.1,0-0.1,0l-1.1-0.6L49.3,131c-0.1,0-0.1-0.1-0.1-0.2
				c0-0.1,0-0.1,0.1-0.2l4.2-2.4l-3.7-2.1l-0.6-0.4l0.4-0.2l0.6,0.4l3.8,2.2c0.1,0,0.1,0.1,0.1,0.2c0,0.1,0,0.1-0.1,0.2l-4.2,2.4
				l11.3,6.5l0.9,0.5C62,137.9,62,138,62,138.1z"/>
		</g>
		<g>
			<path class="st0" d="M81.9,126.2c0,0.1-0.1,0.1-0.2,0.1c0,0-0.1,0-0.1,0l-1-0.6l-8.6-4.9c-0.1,0-0.1-0.1-0.1-0.2
				c0-0.1,0-0.1,0.1-0.2l3.2-1.8l-2.9-1.7l-0.4-0.2l-2.4-1.4l-0.6-0.4l0.4-0.2L70,115l2.4,1.4l0.4,0.2l3,1.7c0.1,0,0.1,0.1,0.1,0.2
				c0,0.1,0,0.1-0.1,0.2l-3.2,1.8l8.6,5c0,0,0,0,0,0l0.7,0.4C81.9,126,81.9,126.1,81.9,126.2z"/>
		</g>
		<g>
			<path class="st0" d="M97.4,125.7c0,0.1-0.1,0.1-0.2,0.1c0,0-0.1,0-0.1,0l-1.1-0.6l-15.6-9c-0.1,0-0.1-0.1-0.1-0.2
				c0-0.1,0-0.1,0.1-0.2l5.7-3.3l-5.9-3.4l-0.6-0.4l0.4-0.2l0.6,0.4l6,3.5c0.1,0,0.1,0.1,0.1,0.2c0,0.1,0,0.1-0.1,0.2l-5.7,3.3
				l15.6,9l0.9,0.5C97.5,125.5,97.5,125.6,97.4,125.7z"/>
		</g>
		<g>
			<path class="st0" d="M80.7,130.4c0,0.1-0.1,0.1-0.2,0.1c0,0-0.1,0-0.1,0l-1-0.5l-11-6.4l-6.1,3.5c-0.1,0-0.1,0-0.2,0l-6.5-3.7
				l-0.6-0.4l0.4-0.2l0.6,0.4l6.2,3.6l6.1-3.5c0.1,0,0.1,0,0.2,0l11.3,6.5l0.8,0.4C80.7,130.2,80.8,130.3,80.7,130.4z"/>
		</g>
		<g>
			<path class="st0" d="M97.3,115.4c0,0.1-0.1,0.1-0.2,0.1c0,0-0.1,0-0.1,0l-1.1-0.6L83,107.4l-0.6-0.4l0.4-0.2l0.6,0.4l12.9,7.5
				l0.9,0.5C97.3,115.2,97.3,115.3,97.3,115.4z"/>
		</g>
		<g>
			<path class="st0" d="M107.2,109.5c0,0.1-0.1,0.1-0.2,0.1c0,0-0.1,0-0.1,0l-1.2-0.7l-12.8-7.4l-0.6-0.4l0.4-0.2l0.6,0.4l12.7,7.4
				l1,0.6C107.3,109.3,107.3,109.5,107.2,109.5z"/>
		</g>
		<g>
			<path class="st0" d="M85.7,122c0,0.1-0.1,0.1-0.2,0.1c0,0-0.1,0-0.1,0l-1.2-0.7l-9.9-5.7l-0.4-0.2l-2.4-1.4l-0.6-0.4l0.4-0.2
				l0.6,0.4l2.4,1.4l0.4,0.2l9.8,5.7l1,0.6C85.7,121.8,85.7,121.9,85.7,122z"/>
		</g>
		<g>
			<path class="st0" d="M67,132.9c0,0.1-0.1,0.1-0.2,0.1c0,0-0.1,0-0.1,0l-1.1-0.6c0,0,0,0,0,0l-12.8-7.4l-0.6-0.4l0.4-0.2l0.6,0.4
				l12.8,7.4l0.9,0.5C67,132.7,67,132.8,67,132.9z"/>
		</g>
		<g>
			<polygon class="st0" points="80.8,112 74.8,115.5 74.4,115.7 72.7,116.6 72.4,116.8 64.8,121.2 63.7,121.9 63.5,121.5 
				64.5,120.9 72,116.6 72.4,116.4 74,115.5 74.4,115.2 80,112 77.6,110.6 77,110.2 77.3,110 78,110.3 			"/>
		</g>
		<g>
			<path class="st0" d="M62.7,137.5c0.6,0.3,0.6,0.8,0,1.2c-0.6,0.3-1.5,0.3-2,0c-0.6-0.3-0.6-0.8,0-1.2
				C61.2,137.2,62.1,137.2,62.7,137.5z"/>
		</g>
		<g>
			<path class="st0" d="M67.8,132.3c0.6,0.3,0.6,0.8,0,1.2c-0.6,0.3-1.5,0.3-2,0c-0.6-0.3-0.6-0.8,0-1.2
				C66.3,131.9,67.2,131.9,67.8,132.3z"/>
		</g>
		<g>
			<path class="st0" d="M64.5,121c0.6,0.3,0.6,0.8,0,1.2c-0.6,0.3-1.5,0.3-2,0c-0.6-0.3-0.6-0.8,0-1.2C63,120.6,63.9,120.6,64.5,121
				z"/>
		</g>
		<g>
			<ellipse class="st0" cx="80.7" cy="130.4" rx="1.4" ry="0.8"/>
		</g>
		<g>
			<path class="st0" d="M82.5,125.7c0.6,0.3,0.6,0.8,0,1.2c-0.6,0.3-1.5,0.3-2,0c-0.6-0.3-0.6-0.8,0-1.2
				C81,125.4,81.9,125.4,82.5,125.7z"/>
		</g>
		<g>
			<path class="st0" d="M86.5,121.2c0.6,0.3,0.6,0.8,0,1.2c-0.6,0.3-1.5,0.3-2,0c-0.6-0.3-0.6-0.8,0-1.2
				C85.1,120.9,86,120.9,86.5,121.2z"/>
		</g>
		<g>
			<path class="st0" d="M98.2,125.1c0.6,0.3,0.6,0.8,0,1.2c-0.6,0.3-1.5,0.3-2,0c-0.6-0.3-0.6-0.8,0-1.2
				C96.7,124.7,97.6,124.7,98.2,125.1z"/>
		</g>
		<g>
			<path class="st0" d="M98.1,114.8c0.6,0.3,0.6,0.8,0,1.2c-0.6,0.3-1.5,0.3-2,0c-0.6-0.3-0.6-0.8,0-1.2
				C96.6,114.4,97.5,114.4,98.1,114.8z"/>
		</g>
		<g>
			<path class="st0" d="M102.8,113.2c0.6,0.3,0.6,0.8,0,1.2c-0.6,0.3-1.5,0.3-2,0s-0.6-0.8,0-1.2
				C101.4,112.9,102.3,112.9,102.8,113.2z"/>
		</g>
		<g>
			<path class="st0" d="M108,108.8c0.6,0.3,0.6,0.8,0,1.2c-0.6,0.3-1.5,0.3-2,0c-0.6-0.3-0.6-0.8,0-1.2
				C106.6,108.5,107.5,108.5,108,108.8z"/>
		</g>
	</g>
	<polygon class="st1" points="40.9,54.5 40.9,69.6 25.3,69.6 26.1,70.8 34.8,97.7 44.1,97.7 79.9,77 	"/>
	<g>
		<polygon class="st2" points="74.3,48.9 85.4,42.5 85.4,29.7 74.3,36.1 		"/>
		<polygon class="st3" points="76.5,42.1 79,43.7 83.1,35.8 85.4,39.2 85.4,42.5 74.3,48.9 74.3,45.7 		"/>
		<path class="st3" d="M76.5,38.3c0-1,0.7-2.1,1.5-2.6c0.8-0.5,1.5-0.1,1.5,0.9c0,1-0.7,2.1-1.5,2.6C77.2,39.6,76.5,39.2,76.5,38.3z
			"/>
	</g>
	<g>
		<polygon class="st4" points="0,59.9 18.6,49.2 18.6,32.1 11.2,36.4 9.5,39.8 0,45.3 		"/>
		<polygon class="st2" points="0.4,41.2 18.1,31 18.1,32.4 11.2,36.4 9.5,39.8 0.4,45 		"/>
	</g>
	<g>
		<polygon class="st4" points="64,33.2 78.6,24.8 78.6,0 64,8.4 		"/>
		<g>
			<polygon class="st3" points="69.8,9.2 75.4,5.9 75.4,4.8 69.8,8.1 			"/>
			<path class="st3" d="M76,4.7c0-0.5,0.3-1.1,0.8-1.3c0.4-0.2,0.8,0,0.8,0.4c0,0.5-0.3,1.1-0.8,1.3C76.4,5.3,76,5.1,76,4.7z"/>
			<polygon class="st3" points="65.1,18.2 75.4,12.2 75.4,11.2 65.1,17.2 			"/>
			<path class="st3" d="M76,11c0-0.5,0.3-1.1,0.8-1.3c0.4-0.2,0.8,0,0.8,0.4c0,0.5-0.3,1.1-0.8,1.3C76.4,11.7,76,11.5,76,11z"/>
			<path class="st3" d="M76,17.5c0-0.5,0.3-1.1,0.8-1.3c0.4-0.2,0.8,0,0.8,0.4c0,0.5-0.3,1.1-0.8,1.3C76.4,18.2,76,18,76,17.5z"/>
			<polygon class="st3" points="72.9,9.7 67.2,13 67.2,11.9 72.9,8.6 			"/>
			<polygon class="st3" points="77.5,8.8 67.2,14.7 67.2,13.6 77.5,7.7 			"/>
			<path class="st3" d="M66.6,12.4c0-0.5-0.3-0.7-0.8-0.4c-0.4,0.2-0.8,0.8-0.8,1.3c0,0.5,0.3,0.7,0.8,0.4
				C66.3,13.5,66.6,12.9,66.6,12.4z"/>
			<polygon class="st3" points="72.9,16.1 67.2,19.3 67.2,18.3 72.9,15 			"/>
			<polygon class="st3" points="77.5,15.1 67.2,21 67.2,20 77.5,14.1 			"/>
			<polygon class="st3" points="69.8,22.2 75.4,18.9 75.4,17.8 69.8,21.1 			"/>
			<polygon class="st3" points="65.2,26.5 75.4,20.6 75.4,19.5 65.2,25.5 			"/>
			<polygon class="st3" points="65.2,28.2 75.4,22.3 75.4,21.2 65.2,27.2 			"/>
			<path class="st3" d="M66.6,18.8c0-0.5-0.3-0.7-0.8-0.4c-0.4,0.2-0.8,0.8-0.8,1.3c0,0.5,0.3,0.7,0.8,0.4
				C66.3,19.9,66.6,19.3,66.6,18.8z"/>
			<polygon class="st3" points="72.9,26 67.2,29.3 67.2,28.2 72.9,24.9 			"/>
			<path class="st3" d="M66.6,28.7c0-0.5-0.3-0.7-0.8-0.4c-0.4,0.2-0.8,0.8-0.8,1.3c0,0.5,0.3,0.7,0.8,0.4
				C66.3,29.8,66.6,29.2,66.6,28.7z"/>
		</g>
	</g>
	<g>
		<g>
			<polygon class="st4" points="25.3,35.1 36.5,28.6 36.5,19.5 25.3,26 			"/>
			<polygon class="st2" points="36.5,19.5 25.3,26 30.9,28 			"/>
		</g>
		<g>
			<g>
				<g>
					<path class="st5" d="M29.8,18.1c0.4-0.2,0.6-0.1,0.6,0.4v0.1c0,0.3-0.1,0.5-0.3,0.7c0.2,0,0.3,0.1,0.3,0.4v0.2
						c0,0.4-0.2,0.8-0.6,1s-0.6,0.1-0.6-0.4v-0.2c0-0.3,0.1-0.5,0.3-0.8c-0.2,0-0.3-0.1-0.3-0.4v-0.1C29.2,18.6,29.4,18.3,29.8,18.1
						z M29.8,18.3c-0.2,0.1-0.3,0.3-0.3,0.6v0.1c0,0.3,0.1,0.3,0.3,0.2c0.2-0.1,0.3-0.3,0.3-0.6v-0.1C30.1,18.3,30,18.2,29.8,18.3z
						 M29.8,19.6c-0.2,0.1-0.3,0.3-0.3,0.6v0.2c0,0.3,0.1,0.4,0.3,0.3c0.2-0.1,0.3-0.3,0.3-0.6v-0.2C30.1,19.5,30,19.5,29.8,19.6z"
						/>
				</g>
			</g>
			<g>
				<path class="st5" d="M28,20.5c0-1.1,0.8-2.5,1.8-3c1-0.6,1.8-0.1,1.8,1c0,1.1-0.8,2.5-1.8,3C28.8,22.1,28,21.6,28,20.5z
					 M28.2,20.4c0,1,0.7,1.4,1.6,0.9c0.9-0.5,1.6-1.8,1.6-2.8s-0.7-1.4-1.6-0.9C28.9,18.1,28.2,19.4,28.2,20.4z"/>
			</g>
		</g>
	</g>
	<g>
		<g>
			<g class="st6">
				<g>
					<polygon class="st7" points="53.7,84.9 53.7,86.7 34.8,97.7 34.8,95.9 					"/>
				</g>
				<g>
					<polygon class="st8" points="34.8,95.9 34.8,97.7 27.6,93.5 27.6,91.7 					"/>
				</g>
				<g>
					<polygon class="st3" points="53.7,84.9 34.8,95.9 27.6,91.7 46.4,80.7 					"/>
				</g>
			</g>
		</g>
		<g>
			<g class="st6">
				<g>
					<polygon class="st8" points="36.2,91.5 33.2,89.8 36.9,68.7 39.9,70.5 					"/>
				</g>
				<g>
					<polygon class="st7" points="39.9,70.5 36.9,68.7 47.5,62.6 50.5,64.4 					"/>
				</g>
				<g>
					<polygon class="st7" points="50.5,64.4 46.8,85.4 36.2,91.5 39.9,70.5 					"/>
				</g>
			</g>
		</g>
		<g>
			<g class="st6">
				<g class="st6">
					<defs>
						<path id="SVGID_1_" class="st6" d="M69.2,14.6l2,1.2c-0.4-0.2-1-0.2-1.7,0.2l-2-1.2C68.1,14.4,68.7,14.4,69.2,14.6z"/>
					</defs>
					<use xlink:href="#SVGID_1_"  style="overflow:visible;fill:#C9C9EC;"/>
					<clipPath id="SVGID_00000134229436050843100300000011355476850048970426_">
						<use xlink:href="#SVGID_1_"  style="overflow:visible;"/>
					</clipPath>
					<g style="clip-path:url(#SVGID_00000134229436050843100300000011355476850048970426_);enable-background:new    ;">
						<path class="st7" d="M69.5,16l-2-1.2c0.7-0.4,1.2-0.4,1.7-0.2l2,1.2C70.8,15.5,70.2,15.6,69.5,16L69.5,16z"/>
					</g>
				</g>
				<g class="st6">
					<defs>
						<path id="SVGID_00000033341294175285919880000016524396244062875819_" class="st6" d="M11.8,95.6l-2-1.2
							c-0.4-0.2-0.7-0.8-0.7-1.5l2,1.2C11.1,94.9,11.4,95.4,11.8,95.6z"/>
					</defs>
					<use xlink:href="#SVGID_00000033341294175285919880000016524396244062875819_"  style="overflow:visible;fill:#C9C9EC;"/>
					<clipPath id="SVGID_00000084525295964769818010000011408259379075215747_">
						<use xlink:href="#SVGID_00000033341294175285919880000016524396244062875819_"  style="overflow:visible;"/>
					</clipPath>
					<g style="clip-path:url(#SVGID_00000084525295964769818010000011408259379075215747_);enable-background:new    ;">
						<path class="st7" d="M11.8,95.6l-2-1.2c-0.4-0.2-0.7-0.8-0.7-1.5l2,1.2C11.1,94.9,11.4,95.4,11.8,95.6L11.8,95.6z"/>
					</g>
				</g>
				<g>
					<polygon class="st7" points="11.1,94.1 9,92.9 8.9,51.3 11,52.5 					"/>
				</g>
				<g>
					<polygon class="st7" points="13.3,48.4 11.3,47.2 67.5,14.8 69.5,16 					"/>
				</g>
				<g class="st6">
					<defs>
						<path id="SVGID_00000023991050882828330790000000200905590099951277_" class="st6" d="M11,52.5l-2-1.2c0-1.5,1-3.3,2.3-4.1
							l2,1.2C12,49.2,11,51,11,52.5z"/>
					</defs>
					<use xlink:href="#SVGID_00000023991050882828330790000000200905590099951277_"  style="overflow:visible;fill:#C9C9EC;"/>
					<clipPath id="SVGID_00000164505281299272567720000001758771786837169040_">
						<use xlink:href="#SVGID_00000023991050882828330790000000200905590099951277_"  style="overflow:visible;"/>
					</clipPath>
					<g style="clip-path:url(#SVGID_00000164505281299272567720000001758771786837169040_);enable-background:new    ;">
						<path class="st7" d="M11,52.5l-2-1.2c0-1.5,1-3.3,2.3-4.1l2,1.2C12,49.2,11,51,11,52.5L11,52.5z"/>
					</g>
				</g>
				<path class="st12" d="M69.5,16c1.3-0.7,2.4-0.1,2.4,1.3L72,59c0,1.5-1,3.3-2.3,4.1L13.4,95.5c-1.3,0.7-2.4,0.1-2.4-1.3L11,52.5
					c0-1.5,1-3.3,2.3-4.1L69.5,16z"/>
			</g>
		</g>
		<g>
			<path class="st12" d="M12.3,91.3l0,2.8c0,0.2,0,0.4,0.1,0.4c0.1,0,0.2,0,0.4-0.2L69,61.9c0.9-0.5,1.7-1.9,1.7-3l0-1.4L12.3,91.3z
				"/>
			<path class="st7" d="M70.7,57.5L12.3,91.3l0-0.9l-0.1-37.9c0-1.1,0.8-2.4,1.7-3l55.8-32.2l0.4-0.2c0.2-0.1,0.3-0.2,0.4-0.2
				c0,0.1,0.1,0.2,0.1,0.4L70.7,57.5z"/>
			<path class="st13" d="M69.9,57.1L16.1,88.2l-3.7,2.2l0-9.3l0-10.7l0-8.8l0-9.1c0-1.1,0.8-2.4,1.7-3l9-5.2L33.8,38h0L45,31.6
				L61.5,22l8.2-4.7L69.9,57.1z"/>
		</g>
		<g class="st14">
			<polygon class="st15" points="33.8,38 12.3,70.4 12.3,61.5 23,44.3 			"/>
		</g>
		<g class="st14">
			<polygon class="st15" points="61.5,22 16.1,88.2 12.3,90.3 12.3,81 45,31.6 			"/>
		</g>
	</g>
	<g>
		<g class="st14">
			<polygon class="st1" points="108.2,99.8 49.7,134.2 45.3,134.2 27.2,115.5 85.3,82.6 			"/>
		</g>
		<g>
			<g class="st6">
				<g>
					<polygon class="st16" points="102.8,99.6 102.6,100.5 45.3,134.3 45.5,133.4 					"/>
				</g>
				<g>
					<polygon class="st7" points="45.5,133.4 45.3,134.3 22.4,116.4 22.7,114.2 					"/>
				</g>
				<g>
					<polygon class="st15" points="102.8,99.6 45.5,133.4 22.7,114.2 80,80.5 					"/>
				</g>
			</g>
		</g>
		<g>
			<g class="st6">
				<g>
					<polygon class="st7" points="82.1,82.8 82,83.4 78.9,85.2 79.1,84.6 					"/>
				</g>
				<g>
					<polygon class="st8" points="79.1,84.6 78.9,85.2 77.3,83.8 77.4,83.2 					"/>
				</g>
				<g>
					<polygon class="st3" points="82.1,82.8 79.1,84.6 77.4,83.2 80.5,81.4 					"/>
				</g>
			</g>
			<g class="st6">
				<g>
					<polygon class="st7" points="86.3,86.5 86.2,87.1 83.1,88.9 83.2,88.3 					"/>
				</g>
				<g>
					<polygon class="st8" points="83.2,88.3 83.1,88.9 80.1,86.4 80.2,85.8 					"/>
				</g>
				<g>
					<polygon class="st3" points="86.3,86.5 83.2,88.3 80.2,85.8 83.3,84 					"/>
				</g>
			</g>
			<g class="st6">
				<g>
					<polygon class="st7" points="78.3,85 78.1,85.6 75.1,87.4 75.2,86.8 					"/>
				</g>
				<g>
					<polygon class="st8" points="75.2,86.8 75.1,87.4 73.4,86 73.6,85.5 					"/>
				</g>
				<g>
					<polygon class="st3" points="78.3,85 75.2,86.8 73.6,85.5 76.6,83.7 					"/>
				</g>
			</g>
			<g class="st6">
				<g>
					<polygon class="st7" points="82.6,88.7 82.5,89.3 79.4,91.1 79.5,90.5 					"/>
				</g>
				<g>
					<polygon class="st8" points="79.5,90.5 79.4,91.1 76.4,88.6 76.5,88 					"/>
				</g>
				<g>
					<polygon class="st3" points="82.6,88.7 79.5,90.5 76.5,88 79.6,86.2 					"/>
				</g>
			</g>
			<g class="st6">
				<g>
					<polygon class="st7" points="74.4,87.3 74.3,87.9 71.2,89.7 71.4,89.1 					"/>
				</g>
				<g>
					<polygon class="st8" points="71.4,89.1 71.2,89.7 69.6,88.3 69.7,87.7 					"/>
				</g>
				<g>
					<polygon class="st3" points="74.4,87.3 71.4,89.1 69.7,87.7 72.8,85.9 					"/>
				</g>
			</g>
			<g class="st6">
				<g>
					<polygon class="st7" points="78.9,90.9 78.8,91.5 75.7,93.3 75.8,92.7 					"/>
				</g>
				<g>
					<polygon class="st8" points="75.8,92.7 75.7,93.3 72.7,90.7 72.8,90.2 					"/>
				</g>
				<g>
					<polygon class="st3" points="78.9,90.9 75.8,92.7 72.8,90.2 75.9,88.4 					"/>
				</g>
			</g>
			<g class="st6">
				<g>
					<polygon class="st7" points="70.6,89.6 70.4,90.2 67.4,92 67.5,91.4 					"/>
				</g>
				<g>
					<polygon class="st8" points="67.5,91.4 67.4,92 65.7,90.6 65.8,90 					"/>
				</g>
				<g>
					<polygon class="st3" points="70.6,89.6 67.5,91.4 65.8,90 68.9,88.2 					"/>
				</g>
			</g>
			<g class="st6">
				<g>
					<polygon class="st7" points="75.2,93.1 75,93.7 72,95.5 72.1,94.9 					"/>
				</g>
				<g>
					<polygon class="st8" points="72.1,94.9 72,95.5 69,92.9 69.1,92.3 					"/>
				</g>
				<g>
					<polygon class="st3" points="75.2,93.1 72.1,94.9 69.1,92.3 72.1,90.5 					"/>
				</g>
			</g>
			<g class="st6">
				<g>
					<polygon class="st7" points="71.5,95.3 71.3,95.9 68.3,97.7 68.4,97.1 					"/>
				</g>
				<g>
					<polygon class="st8" points="68.4,97.1 68.3,97.7 65.2,95.1 65.4,94.5 					"/>
				</g>
				<g>
					<polygon class="st3" points="71.5,95.3 68.4,97.1 65.4,94.5 68.4,92.7 					"/>
				</g>
			</g>
			<g class="st6">
				<g>
					<polygon class="st7" points="64.8,93 64.6,93.6 61.6,95.4 61.7,94.8 					"/>
				</g>
				<g>
					<polygon class="st8" points="61.7,94.8 61.6,95.4 59.9,94 60.1,93.4 					"/>
				</g>
				<g>
					<polygon class="st3" points="64.8,93 61.7,94.8 60.1,93.4 63.1,91.6 					"/>
				</g>
			</g>
			<g class="st6">
				<g>
					<polygon class="st7" points="67.8,97.5 67.6,98 64.6,99.8 64.7,99.3 					"/>
				</g>
				<g>
					<polygon class="st8" points="64.7,99.3 64.6,99.8 61.5,97.3 61.7,96.7 					"/>
				</g>
				<g>
					<polygon class="st3" points="67.8,97.5 64.7,99.3 61.7,96.7 64.7,94.9 					"/>
				</g>
			</g>
			<g class="st6">
				<g>
					<polygon class="st7" points="60.9,95.3 60.8,95.8 57.7,97.6 57.9,97.1 					"/>
				</g>
				<g>
					<polygon class="st8" points="57.9,97.1 57.7,97.6 56.1,96.3 56.2,95.7 					"/>
				</g>
				<g>
					<polygon class="st3" points="60.9,95.3 57.9,97.1 56.2,95.7 59.3,93.9 					"/>
				</g>
			</g>
			<g class="st6">
				<g>
					<polygon class="st7" points="64.1,99.6 63.9,100.2 60.9,102 61,101.4 					"/>
				</g>
				<g>
					<polygon class="st8" points="61,101.4 60.9,102 57.8,99.5 58,98.9 					"/>
				</g>
				<g>
					<polygon class="st3" points="64.1,99.6 61,101.4 58,98.9 61,97.1 					"/>
				</g>
			</g>
			<g class="st6">
				<g>
					<polygon class="st7" points="57.1,97.5 56.9,98.1 53.9,99.9 54,99.3 					"/>
				</g>
				<g>
					<polygon class="st8" points="54,99.3 53.9,99.9 52.2,98.5 52.3,97.9 					"/>
				</g>
				<g>
					<polygon class="st3" points="57.1,97.5 54,99.3 52.3,97.9 55.4,96.1 					"/>
				</g>
			</g>
			<g class="st6">
				<g>
					<polygon class="st7" points="60.3,101.8 60.2,102.4 57.1,104.2 57.3,103.6 					"/>
				</g>
				<g>
					<polygon class="st8" points="57.3,103.6 57.1,104.2 54.1,101.7 54.3,101.1 					"/>
				</g>
				<g>
					<polygon class="st3" points="60.3,101.8 57.3,103.6 54.3,101.1 57.3,99.3 					"/>
				</g>
			</g>
			<g class="st6">
				<g>
					<polygon class="st7" points="53.2,99.8 53.1,100.4 50,102.2 50.1,101.6 					"/>
				</g>
				<g>
					<polygon class="st8" points="50.1,101.6 50,102.2 48.3,100.8 48.5,100.2 					"/>
				</g>
				<g>
					<polygon class="st3" points="53.2,99.8 50.1,101.6 48.5,100.2 51.5,98.4 					"/>
				</g>
			</g>
			<g class="st6">
				<g>
					<polygon class="st7" points="56.6,104 56.5,104.6 53.4,106.4 53.6,105.8 					"/>
				</g>
				<g>
					<polygon class="st8" points="53.6,105.8 53.4,106.4 50.4,103.8 50.5,103.3 					"/>
				</g>
				<g>
					<polygon class="st3" points="56.6,104 53.6,105.8 50.5,103.3 53.6,101.5 					"/>
				</g>
			</g>
			<g class="st6">
				<g>
					<polygon class="st7" points="47.4,103.2 47.3,103.8 44.2,105.6 44.3,105 					"/>
				</g>
				<g>
					<polygon class="st8" points="44.3,105 44.2,105.6 42.6,104.2 42.7,103.6 					"/>
				</g>
				<g>
					<polygon class="st3" points="47.4,103.2 44.3,105 42.7,103.6 45.8,101.8 					"/>
				</g>
			</g>
			<g class="st6">
				<g>
					<polygon class="st7" points="52.9,106.2 52.8,106.8 49.7,108.6 49.9,108 					"/>
				</g>
				<g>
					<polygon class="st8" points="49.9,108 49.7,108.6 46.7,106 46.8,105.4 					"/>
				</g>
				<g>
					<polygon class="st3" points="52.9,106.2 49.9,108 46.8,105.4 49.9,103.6 					"/>
				</g>
			</g>
			<g class="st6">
				<g>
					<polygon class="st7" points="43.5,105.5 43.4,106.1 40.3,107.9 40.5,107.3 					"/>
				</g>
				<g>
					<polygon class="st8" points="40.5,107.3 40.3,107.9 38.7,106.5 38.8,105.9 					"/>
				</g>
				<g>
					<polygon class="st3" points="43.5,105.5 40.5,107.3 38.8,105.9 41.9,104.1 					"/>
				</g>
			</g>
			<g class="st6">
				<g>
					<polygon class="st7" points="49.2,108.4 49.1,109 46,110.8 46.2,110.2 					"/>
				</g>
				<g>
					<polygon class="st8" points="46.2,110.2 46,110.8 43,108.2 43.1,107.6 					"/>
				</g>
				<g>
					<polygon class="st3" points="49.2,108.4 46.2,110.2 43.1,107.6 46.2,105.8 					"/>
				</g>
			</g>
			<g class="st6">
				<g>
					<polygon class="st7" points="39.7,107.7 39.5,108.3 36.5,110.1 36.6,109.6 					"/>
				</g>
				<g>
					<polygon class="st8" points="36.6,109.6 36.5,110.1 34.8,108.7 35,108.2 					"/>
				</g>
				<g>
					<polygon class="st3" points="39.7,107.7 36.6,109.6 35,108.2 38,106.4 					"/>
				</g>
			</g>
			<g class="st6">
				<g>
					<polygon class="st7" points="45.5,110.5 45.4,111.1 42.3,112.9 42.5,112.3 					"/>
				</g>
				<g>
					<polygon class="st8" points="42.5,112.3 42.3,112.9 39.3,110.4 39.4,109.8 					"/>
				</g>
				<g>
					<polygon class="st3" points="45.5,110.5 42.5,112.3 39.4,109.8 42.5,108 					"/>
				</g>
			</g>
			<g class="st6">
				<g>
					<polygon class="st7" points="35.8,110 35.7,110.6 32.6,112.4 32.8,111.8 					"/>
				</g>
				<g>
					<polygon class="st8" points="32.8,111.8 32.6,112.4 31,111 31.1,110.4 					"/>
				</g>
				<g>
					<polygon class="st3" points="35.8,110 32.8,111.8 31.1,110.4 34.2,108.6 					"/>
				</g>
			</g>
			<g class="st6">
				<g>
					<polygon class="st7" points="41.8,112.7 41.7,113.3 38.6,115.1 38.7,114.5 					"/>
				</g>
				<g>
					<polygon class="st8" points="38.7,114.5 38.6,115.1 35.6,112.6 35.7,112 					"/>
				</g>
				<g>
					<polygon class="st3" points="41.8,112.7 38.7,114.5 35.7,112 38.8,110.2 					"/>
				</g>
			</g>
			<g class="st6">
				<g>
					<polygon class="st7" points="38.1,114.9 38,115.5 34.9,117.3 35,116.7 					"/>
				</g>
				<g>
					<polygon class="st8" points="35,116.7 34.9,117.3 31.9,114.8 32,114.2 					"/>
				</g>
				<g>
					<polygon class="st3" points="38.1,114.9 35,116.7 32,114.2 35.1,112.4 					"/>
				</g>
			</g>
			<g class="st6">
				<g>
					<polygon class="st7" points="30,113.4 29.9,114 26.8,115.8 27,115.2 					"/>
				</g>
				<g>
					<polygon class="st8" points="27,115.2 26.8,115.8 25.2,114.4 25.3,113.8 					"/>
				</g>
				<g>
					<polygon class="st3" points="30,113.4 27,115.2 25.3,113.8 28.4,112 					"/>
				</g>
			</g>
			<g class="st6">
				<g>
					<polygon class="st7" points="34.4,117.1 34.2,117.7 31.2,119.5 31.3,118.9 					"/>
				</g>
				<g>
					<polygon class="st8" points="31.3,118.9 31.2,119.5 28.2,116.9 28.3,116.4 					"/>
				</g>
				<g>
					<polygon class="st3" points="34.4,117.1 31.3,118.9 28.3,116.4 31.4,114.6 					"/>
				</g>
			</g>
			<g class="st6">
				<g>
					<polygon class="st7" points="86.9,91.4 86.7,92 84.9,93.1 85,92.5 					"/>
				</g>
				<g>
					<polygon class="st8" points="85,92.5 84.9,93.1 81.8,90.5 82,89.9 					"/>
				</g>
				<g>
					<polygon class="st7" points="93.5,92.6 93.4,93.2 90.3,95 90.5,94.4 					"/>
				</g>
				<g>
					<polygon class="st3" points="93.5,92.6 90.5,94.4 86.9,91.4 85,92.5 82,89.9 86.9,87 88,87.9 89.9,89.6 					"/>
				</g>
				<g>
					<polygon class="st8" points="90.5,94.4 90.3,95 86.7,92 86.9,91.4 					"/>
				</g>
				<g>
					<polygon class="st8" points="81.3,94.7 81.2,95.2 78.1,92.7 78.3,92.1 					"/>
				</g>
				<g>
					<polygon class="st7" points="84.4,92.9 84.2,93.4 81.2,95.2 81.3,94.7 					"/>
				</g>
				<g>
					<polygon class="st3" points="84.4,92.9 81.3,94.7 78.3,92.1 81.3,90.3 					"/>
				</g>
				<g>
					<polygon class="st7" points="89.8,94.8 89.7,95.4 86.6,97.2 86.8,96.6 					"/>
				</g>
				<g>
					<polygon class="st3" points="89.8,94.8 86.8,96.6 83.7,94.1 86.8,92.3 					"/>
				</g>
				<g>
					<polygon class="st8" points="86.8,96.6 86.6,97.2 83.6,94.6 83.7,94.1 					"/>
				</g>
			</g>
			<g class="st6">
				<g>
					<polygon class="st7" points="80.7,95 80.5,95.6 77.5,97.4 77.6,96.8 					"/>
				</g>
				<g>
					<polygon class="st8" points="77.6,96.8 77.5,97.4 74.4,94.9 74.6,94.3 					"/>
				</g>
				<g>
					<polygon class="st3" points="80.7,95 77.6,96.8 74.6,94.3 77.6,92.5 					"/>
				</g>
			</g>
			<g class="st6">
				<g>
					<polygon class="st7" points="76.9,97.2 76.8,97.8 73.7,99.6 73.9,99 					"/>
				</g>
				<g>
					<polygon class="st8" points="73.9,99 73.7,99.6 70.7,97.1 70.9,96.5 					"/>
				</g>
				<g>
					<polygon class="st3" points="76.9,97.2 73.9,99 70.9,96.5 73.9,94.7 					"/>
				</g>
			</g>
			<g class="st6">
				<g>
					<polygon class="st7" points="73.2,99.4 73.1,100 70,101.8 70.2,101.2 					"/>
				</g>
				<g>
					<polygon class="st8" points="70.2,101.2 70,101.8 67,99.2 67.1,98.7 					"/>
				</g>
				<g>
					<polygon class="st3" points="73.2,99.4 70.2,101.2 67.1,98.7 70.2,96.9 					"/>
				</g>
			</g>
			<g class="st6">
				<g>
					<polygon class="st7" points="69.5,101.6 69.4,102.2 66.3,104 66.5,103.4 					"/>
				</g>
				<g>
					<polygon class="st8" points="66.5,103.4 66.3,104 63.3,101.4 63.4,100.8 					"/>
				</g>
				<g>
					<polygon class="st3" points="69.5,101.6 66.5,103.4 63.4,100.8 66.5,99 					"/>
				</g>
			</g>
			<g class="st6">
				<g>
					<polygon class="st7" points="86.1,97 86,97.6 82.9,99.4 83.1,98.8 					"/>
				</g>
				<g>
					<polygon class="st8" points="83.1,98.8 82.9,99.4 79.9,96.8 80,96.2 					"/>
				</g>
				<g>
					<polygon class="st3" points="86.1,97 83.1,98.8 80,96.2 83.1,94.4 					"/>
				</g>
			</g>
			<g class="st6">
				<g>
					<polygon class="st7" points="82.4,99.2 82.3,99.7 79.2,101.5 79.4,101 					"/>
				</g>
				<g>
					<polygon class="st8" points="79.4,101 79.2,101.5 76.2,99 76.3,98.4 					"/>
				</g>
				<g>
					<polygon class="st3" points="82.4,99.2 79.4,101 76.3,98.4 79.4,96.6 					"/>
				</g>
			</g>
			<g class="st6">
				<g>
					<polygon class="st7" points="78.7,101.3 78.6,101.9 75.5,103.7 75.7,103.1 					"/>
				</g>
				<g>
					<polygon class="st8" points="75.7,103.1 75.5,103.7 72.5,101.2 72.6,100.6 					"/>
				</g>
				<g>
					<polygon class="st3" points="78.7,101.3 75.7,103.1 72.6,100.6 75.7,98.8 					"/>
				</g>
			</g>
			<g class="st6">
				<g>
					<polygon class="st7" points="75,103.5 74.9,104.1 71.8,105.9 71.9,105.3 					"/>
				</g>
				<g>
					<polygon class="st8" points="71.9,105.3 71.8,105.9 68.8,103.4 68.9,102.8 					"/>
				</g>
				<g>
					<polygon class="st3" points="75,103.5 71.9,105.3 68.9,102.8 72,101 					"/>
				</g>
			</g>
			<g class="st6">
				<g>
					<polygon class="st7" points="65.8,103.8 65.7,104.3 62.6,106.1 62.8,105.6 					"/>
				</g>
				<g>
					<polygon class="st8" points="62.8,105.6 62.6,106.1 59.6,103.6 59.7,103 					"/>
				</g>
				<g>
					<polygon class="st3" points="65.8,103.8 62.8,105.6 59.7,103 62.8,101.2 					"/>
				</g>
			</g>
			<g class="st6">
				<g>
					<polygon class="st7" points="71.3,105.7 71.2,106.3 68.1,108.1 68.2,107.5 					"/>
				</g>
				<g>
					<polygon class="st8" points="68.2,107.5 68.1,108.1 65.1,105.5 65.2,105 					"/>
				</g>
				<g>
					<polygon class="st3" points="71.3,105.7 68.2,107.5 65.2,105 68.3,103.2 					"/>
				</g>
			</g>
			<g class="st6">
				<g>
					<polygon class="st7" points="62.1,105.9 62,106.5 58.9,108.3 59.1,107.7 					"/>
				</g>
				<g>
					<polygon class="st8" points="59.1,107.7 58.9,108.3 55.9,105.8 56,105.2 					"/>
				</g>
				<g>
					<polygon class="st3" points="62.1,105.9 59.1,107.7 56,105.2 59.1,103.4 					"/>
				</g>
			</g>
			<g class="st6">
				<g>
					<polygon class="st7" points="67.6,107.9 67.4,108.5 64.4,110.3 64.5,109.7 					"/>
				</g>
				<g>
					<polygon class="st8" points="64.5,109.7 64.4,110.3 61.4,107.7 61.5,107.1 					"/>
				</g>
				<g>
					<polygon class="st3" points="67.6,107.9 64.5,109.7 61.5,107.1 64.6,105.3 					"/>
				</g>
			</g>
			<g class="st6">
				<g>
					<polygon class="st7" points="58.4,108.1 58.3,108.7 55.2,110.5 55.3,109.9 					"/>
				</g>
				<g>
					<polygon class="st8" points="55.3,109.9 55.2,110.5 52.2,108 52.3,107.4 					"/>
				</g>
				<g>
					<polygon class="st3" points="58.4,108.1 55.3,109.9 52.3,107.4 55.4,105.6 					"/>
				</g>
			</g>
			<g class="st6">
				<g>
					<polygon class="st7" points="63.9,110.1 63.7,110.7 60.7,112.5 60.8,111.9 					"/>
				</g>
				<g>
					<polygon class="st8" points="60.8,111.9 60.7,112.5 57.6,109.9 57.8,109.3 					"/>
				</g>
				<g>
					<polygon class="st3" points="63.9,110.1 60.8,111.9 57.8,109.3 60.8,107.5 					"/>
				</g>
			</g>
			<g class="st6">
				<g>
					<polygon class="st7" points="54.7,110.3 54.6,110.9 51.5,112.7 51.6,112.1 					"/>
				</g>
				<g>
					<polygon class="st8" points="51.6,112.1 51.5,112.7 48.5,110.2 48.6,109.6 					"/>
				</g>
				<g>
					<polygon class="st3" points="54.7,110.3 51.6,112.1 48.6,109.6 51.7,107.8 					"/>
				</g>
			</g>
			<g class="st6">
				<g>
					<polygon class="st7" points="60.2,112.3 60,112.8 57,114.6 57.1,114.1 					"/>
				</g>
				<g>
					<polygon class="st8" points="57.1,114.1 57,114.6 53.9,112.1 54.1,111.5 					"/>
				</g>
				<g>
					<polygon class="st3" points="60.2,112.3 57.1,114.1 54.1,111.5 57.1,109.7 					"/>
				</g>
			</g>
			<g class="st6">
				<g>
					<polygon class="st7" points="51,112.5 50.8,113.1 47.8,114.9 47.9,114.3 					"/>
				</g>
				<g>
					<polygon class="st8" points="47.9,114.3 47.8,114.9 44.8,112.3 44.9,111.7 					"/>
				</g>
				<g>
					<polygon class="st3" points="51,112.5 47.9,114.3 44.9,111.7 48,109.9 					"/>
				</g>
			</g>
			<g class="st6">
				<g>
					<polygon class="st7" points="56.5,114.4 56.3,115 53.3,116.8 53.4,116.2 					"/>
				</g>
				<g>
					<polygon class="st8" points="53.4,116.2 53.3,116.8 50.2,114.3 50.4,113.7 					"/>
				</g>
				<g>
					<polygon class="st3" points="56.5,114.4 53.4,116.2 50.4,113.7 53.4,111.9 					"/>
				</g>
			</g>
			<g class="st6">
				<g>
					<polygon class="st7" points="47.3,114.7 47.1,115.3 44.1,117.1 44.2,116.5 					"/>
				</g>
				<g>
					<polygon class="st8" points="44.2,116.5 44.1,117.1 41,114.5 41.2,113.9 					"/>
				</g>
				<g>
					<polygon class="st3" points="47.3,114.7 44.2,116.5 41.2,113.9 44.2,112.1 					"/>
				</g>
			</g>
			<g class="st6">
				<g>
					<polygon class="st7" points="52.7,116.6 52.6,117.2 49.6,119 49.7,118.4 					"/>
				</g>
				<g>
					<polygon class="st8" points="49.7,118.4 49.6,119 46.5,116.5 46.7,115.9 					"/>
				</g>
				<g>
					<polygon class="st3" points="52.7,116.6 49.7,118.4 46.7,115.9 49.7,114.1 					"/>
				</g>
			</g>
			<g class="st6">
				<g>
					<polygon class="st7" points="43.6,116.9 43.4,117.4 34.8,122.5 34.9,121.9 					"/>
				</g>
				<g>
					<polygon class="st8" points="34.9,121.9 34.8,122.5 31.8,120 31.9,119.4 					"/>
				</g>
				<g>
					<polygon class="st3" points="43.6,116.9 34.9,121.9 31.9,119.4 40.5,114.3 					"/>
				</g>
			</g>
			<g class="st6">
				<g>
					<polygon class="st7" points="49,118.8 48.9,119.4 45.8,121.2 46,120.6 					"/>
				</g>
				<g>
					<polygon class="st8" points="46,120.6 45.8,121.2 42.8,118.6 42.9,118.1 					"/>
				</g>
				<g>
					<polygon class="st3" points="49,118.8 46,120.6 42.9,118.1 46,116.3 					"/>
				</g>
			</g>
			<g class="st6">
				<g>
					<polygon class="st7" points="97.2,95.6 97,96.2 92.1,99.1 92.2,98.5 					"/>
				</g>
				<g>
					<polygon class="st8" points="92.2,98.5 92.1,99.1 89.1,96.6 89.2,96 					"/>
				</g>
				<g>
					<polygon class="st3" points="97.2,95.6 92.2,98.5 89.2,96 94.1,93.1 					"/>
				</g>
			</g>
			<g class="st6">
				<g>
					<polygon class="st7" points="91.6,98.9 91.5,99.5 88.4,101.3 88.5,100.7 					"/>
				</g>
				<g>
					<polygon class="st8" points="88.5,100.7 88.4,101.3 85.4,98.8 85.5,98.2 					"/>
				</g>
				<g>
					<polygon class="st3" points="91.6,98.9 88.5,100.7 85.5,98.2 88.6,96.4 					"/>
				</g>
			</g>
			<g class="st6">
				<g>
					<polygon class="st7" points="87.9,101.1 87.8,101.7 84.7,103.5 84.8,102.9 					"/>
				</g>
				<g>
					<polygon class="st8" points="84.8,102.9 84.7,103.5 81.7,100.9 81.8,100.4 					"/>
				</g>
				<g>
					<polygon class="st3" points="87.9,101.1 84.8,102.9 81.8,100.4 84.9,98.6 					"/>
				</g>
			</g>
			<g class="st6">
				<g>
					<polygon class="st7" points="84.2,103.3 84,103.9 81,105.7 81.1,105.1 					"/>
				</g>
				<g>
					<polygon class="st8" points="81.1,105.1 81,105.7 78,103.1 78.1,102.5 					"/>
				</g>
				<g>
					<polygon class="st3" points="84.2,103.3 81.1,105.1 78.1,102.5 81.2,100.7 					"/>
				</g>
			</g>
			<g class="st6">
				<g>
					<polygon class="st7" points="80.5,105.5 80.3,106.1 77.3,107.9 77.4,107.3 					"/>
				</g>
				<g>
					<polygon class="st8" points="77.4,107.3 77.3,107.9 74.2,105.3 74.4,104.7 					"/>
				</g>
				<g>
					<polygon class="st3" points="80.5,105.5 77.4,107.3 74.4,104.7 77.4,102.9 					"/>
				</g>
			</g>
			<g class="st6">
				<g>
					<polygon class="st7" points="76.8,107.7 76.6,108.2 73.6,110 73.7,109.5 					"/>
				</g>
				<g>
					<polygon class="st8" points="73.7,109.5 73.6,110 70.5,107.5 70.7,106.9 					"/>
				</g>
				<g>
					<polygon class="st3" points="76.8,107.7 73.7,109.5 70.7,106.9 73.7,105.1 					"/>
				</g>
			</g>
			<g class="st6">
				<g>
					<polygon class="st7" points="73.1,109.8 72.9,110.4 69.9,112.2 70,111.6 					"/>
				</g>
				<g>
					<polygon class="st8" points="70,111.6 69.9,112.2 66.8,109.7 67,109.1 					"/>
				</g>
				<g>
					<polygon class="st3" points="73.1,109.8 70,111.6 67,109.1 70,107.3 					"/>
				</g>
			</g>
			<g class="st6">
				<g>
					<polygon class="st7" points="69.3,112 69.2,112.6 66.1,114.4 66.3,113.8 					"/>
				</g>
				<g>
					<polygon class="st8" points="66.3,113.8 66.1,114.4 63.1,111.9 63.3,111.3 					"/>
				</g>
				<g>
					<polygon class="st3" points="69.3,112 66.3,113.8 63.3,111.3 66.3,109.5 					"/>
				</g>
			</g>
			<g class="st6">
				<g>
					<polygon class="st7" points="65.6,114.2 65.5,114.8 62.4,116.6 62.6,116 					"/>
				</g>
				<g>
					<polygon class="st8" points="62.6,116 62.4,116.6 59.4,114 59.5,113.5 					"/>
				</g>
				<g>
					<polygon class="st3" points="65.6,114.2 62.6,116 59.5,113.5 62.6,111.7 					"/>
				</g>
			</g>
			<g class="st6">
				<g>
					<polygon class="st7" points="61.9,116.4 61.8,117 58.7,118.8 58.9,118.2 					"/>
				</g>
				<g>
					<polygon class="st8" points="58.9,118.2 58.7,118.8 55.7,116.2 55.8,115.6 					"/>
				</g>
				<g>
					<polygon class="st3" points="61.9,116.4 58.9,118.2 55.8,115.6 58.9,113.8 					"/>
				</g>
			</g>
			<g class="st6">
				<g>
					<polygon class="st7" points="58.2,118.6 58.1,119.2 55,121 55.2,120.4 					"/>
				</g>
				<g>
					<polygon class="st8" points="55.2,120.4 55,121 52,118.4 52.1,117.8 					"/>
				</g>
				<g>
					<polygon class="st3" points="58.2,118.6 55.2,120.4 52.1,117.8 55.2,116 					"/>
				</g>
			</g>
			<g class="st6">
				<g>
					<polygon class="st7" points="54.5,120.7 54.4,121.3 51.3,123.1 51.5,122.5 					"/>
				</g>
				<g>
					<polygon class="st8" points="51.5,122.5 51.3,123.1 48.3,120.6 48.4,120 					"/>
				</g>
				<g>
					<polygon class="st3" points="54.5,120.7 51.5,122.5 48.4,120 51.5,118.2 					"/>
				</g>
			</g>
			<g class="st6">
				<g>
					<polygon class="st7" points="100.8,98.7 100.6,99.3 93.9,103.3 94,102.7 					"/>
				</g>
				<g>
					<polygon class="st8" points="94,102.7 93.9,103.3 90.8,100.7 91,100.1 					"/>
				</g>
				<g>
					<polygon class="st3" points="100.8,98.7 94,102.7 91,100.1 97.7,96.1 					"/>
				</g>
			</g>
			<g class="st6">
				<g>
					<polygon class="st7" points="93.4,103 93.2,103.6 90.2,105.4 90.3,104.9 					"/>
				</g>
				<g>
					<polygon class="st8" points="90.3,104.9 90.2,105.4 87.1,102.9 87.3,102.3 					"/>
				</g>
				<g>
					<polygon class="st3" points="93.4,103 90.3,104.9 87.3,102.3 90.3,100.5 					"/>
				</g>
			</g>
			<g class="st6">
				<g>
					<polygon class="st7" points="89.7,105.2 89.5,105.8 86.5,107.6 86.6,107 					"/>
				</g>
				<g>
					<polygon class="st8" points="86.6,107 86.5,107.6 83.4,105.1 83.6,104.5 					"/>
				</g>
				<g>
					<polygon class="st3" points="89.7,105.2 86.6,107 83.6,104.5 86.6,102.7 					"/>
				</g>
			</g>
			<g class="st6">
				<g>
					<polygon class="st7" points="85.9,107.4 85.8,108 60.5,122.9 60.6,122.3 					"/>
				</g>
				<g>
					<polygon class="st8" points="60.6,122.3 60.5,122.9 57.5,120.4 57.6,119.8 					"/>
				</g>
				<g>
					<polygon class="st3" points="85.9,107.4 60.6,122.3 57.6,119.8 82.9,104.9 					"/>
				</g>
			</g>
			<g class="st6">
				<g>
					<polygon class="st7" points="60,122.7 59.8,123.3 56.8,125.1 56.9,124.5 					"/>
				</g>
				<g>
					<polygon class="st8" points="56.9,124.5 56.8,125.1 53.8,122.5 53.9,121.9 					"/>
				</g>
				<g>
					<polygon class="st3" points="60,122.7 56.9,124.5 53.9,121.9 57,120.1 					"/>
				</g>
			</g>
			<g class="st6">
				<g>
					<polygon class="st7" points="45.3,121 45.2,121.6 38.4,125.6 38.6,125 					"/>
				</g>
				<g>
					<polygon class="st8" points="38.6,125 38.4,125.6 35.4,123 35.5,122.4 					"/>
				</g>
				<g>
					<polygon class="st3" points="45.3,121 38.6,125 35.5,122.4 42.3,118.4 					"/>
				</g>
			</g>
			<g class="st6">
				<g>
					<polygon class="st7" points="50.8,122.9 50.7,123.5 47.6,125.3 47.7,124.7 					"/>
				</g>
				<g>
					<polygon class="st8" points="47.7,124.7 47.6,125.3 44.6,122.8 44.7,122.2 					"/>
				</g>
				<g>
					<polygon class="st3" points="50.8,122.9 47.7,124.7 44.7,122.2 47.8,120.4 					"/>
				</g>
			</g>
			<g class="st6">
				<g>
					<polygon class="st7" points="56.3,124.9 56.1,125.5 53.1,127.3 53.2,126.7 					"/>
				</g>
				<g>
					<polygon class="st8" points="53.2,126.7 53.1,127.3 50,124.7 50.2,124.1 					"/>
				</g>
				<g>
					<polygon class="st3" points="56.3,124.9 53.2,126.7 50.2,124.1 53.2,122.3 					"/>
				</g>
			</g>
			<g class="st6">
				<g>
					<polygon class="st7" points="47.1,125.1 47,125.7 42,128.6 42.2,128 					"/>
				</g>
				<g>
					<polygon class="st8" points="42.2,128 42,128.6 39,126 39.1,125.5 					"/>
				</g>
				<g>
					<polygon class="st3" points="47.1,125.1 42.2,128 39.1,125.5 44.1,122.6 					"/>
				</g>
			</g>
			<g class="st6">
				<g>
					<polygon class="st7" points="52.6,127.1 52.4,127.6 45.7,131.6 45.8,131 					"/>
				</g>
				<g>
					<polygon class="st8" points="45.8,131 45.7,131.6 42.6,129.1 42.8,128.5 					"/>
				</g>
				<g>
					<polygon class="st3" points="52.6,127.1 45.8,131 42.8,128.5 49.5,124.5 					"/>
				</g>
			</g>
		</g>
	</g>
	<g>
		<g>
			<g>
				<polygon class="st0" points="33,101.2 32.6,100.6 45.9,92.9 45.9,70.3 46.6,70.3 46.6,93.3 46.5,93.4 				"/>
			</g>
			<g>
				<polygon class="st0" points="54.3,88.9 54.3,65.5 55,65.5 55,87.7 68,80.2 68.3,80.8 				"/>
			</g>
			<g>
				<rect x="49.5" y="72.3" class="st0" width="0.7" height="23.7"/>
			</g>
		</g>
		<g>
			<g>
				<path class="st2" d="M70.1,67c0,0.2-0.1,0.4-0.1,0.6c-0.1,0.2-0.1,0.3-0.2,0.5c-0.2,0.4-0.4,0.7-0.6,1.1
					c-0.1,0.1-0.1,0.2-0.2,0.3c0,0,0,0,0,0c0,0,0.1,0.1,0.1,0.2c0.1,0.2,0.1,0.7,0.1,1.2c0,0.3-0.1,0.7-0.2,1.1
					c-0.1,0.2-0.2,0.5-0.3,0.7c-0.4,0.7-1,1.5-2,2c-0.3,0.2-1.1,0.3-1.8,0.3c-0.2,0-0.3,0-0.5,0c-0.7,0-1.4,0-1.4,0
					s-0.2,0.1-0.6,0.3c-0.3,0.1-0.7,0.3-1.2,0.5c-2,0.8-5,1.8-5.1,0.9c-3.2,1.4-4.2-0.3-4.1-1.7c-1.1,1.3-3.2,0.7-3.4-1
					c-3.4-0.5-2.9-2.7-2.9-2.7c-3.1,1.8-5.1-0.5-4.9-1.5c-1.3,0.5-2.7,0.2-3.8-0.6c-0.4-0.3-0.7-1.8-0.7-1.8s-0.3-0.1-0.9-0.3
					c-1-0.5-1.9-1.1-2.4-2.2c-0.6-1.2-0.7-2.6-0.2-3.9c-0.7-0.4-1.3-1.1-1.5-1.9c-0.1-0.6,0-1.2,0.3-1.7c0.2-0.3,0.5-0.6,0.5-0.9
					c0-0.3-0.5-0.8-0.6-1.1c-0.3-0.8-0.6-1.6-0.7-2.4c-0.1-0.6-0.1-0.9,0.3-1.3c0.5-0.5,1-1,1.3-1.6c0.1-0.1,0.1-0.2,0.1-0.3
					c0-0.1,0-0.2-0.1-0.3c-0.6-1.5,0-3.2,1.2-4.3c0.8-0.7,1.9-1.1,3-1.2c0.2,0,0.5,0,0.8,0c0.3,0,0.5,0,0.7-0.1c0,0,0,0,0,0
					c0.3-0.2,0.3-0.8,0.5-1.1c0.3-0.4,0.6-0.8,1-1.1c0.7-0.5,1.5-0.8,2.3-1.1c0.5-0.2,1-0.3,1.5-0.3c0.2,0,0.5,0,0.7,0.1
					c0,0,0,0,0,0c0.1,0,0.2,0.1,0.3,0.1c0.4,0.2,0.9,0.4,1.3,0.7c0,0,0.1,0.1,0.1,0.1c0.1,0.1,0.1,0.1,0.2,0.1c0,0,0,0,0,0
					c0,0,0,0,0,0c0.1,0,0.2,0,0.3-0.1c0,0,0.1,0,0.1-0.1c0.6-0.3,1.3-0.5,2-0.6c0.1,0,0.3,0,0.4,0c0.1,0,0.1,0,0.2,0
					c0.6,0.1,1.2,0.4,1.6,0.9c0.1,0.1,0.2,0.2,0.2,0.3c0.1,0.2,0.2,0.3,0.2,0.5C52,42,53,42,53.8,42.5c0.7,0.4,1.2,1.2,1.2,2.1
					c0,0,0,0.1,0,0.1c0,0,0,0,0,0.1c0,0,0.2,0,0.5-0.1c0,0,0.1,0,0.1,0c0.6,0,1.5,0.1,2.3,0.9c0.6,0.6,0.9,1.4,1,2.2
					c0,0.1,0.1,0.3,0.1,0.4c0.1,0,0.1,0,0.2,0c0.6,0,1.3,0,1.8,0.2c0.4,0.1,0.8,0.3,1.1,0.6c0.8,0.7,0.9,1.9,0.9,2.9
					c0.8,0.1,1.6,0.7,1.9,1.5c0.2,0.4,0.3,0.9,0.3,1.4c0,0.2-0.1,0.4-0.1,0.7c0,0.3-0.1,0.2,0.2,0.4c0.3,0.2,0.8,0.2,1.1,0.5
					c0.3,0.2,0.6,0.5,0.8,0.9c0.1,0.2,0.2,0.5,0.3,0.7c0,0,0,0,0,0c0,0.1,0.1,0.3,0.1,0.5c0,0.3-0.1,0.7-0.1,1v0c0,0.1,0,0.2,0,0.3
					c0,0.1,0.1,0.1,0.1,0.1c0,0,0,0,0,0c0,0.1,0.1,0.1,0.2,0.1c0.2,0.1,0.4,0.2,0.6,0.3c0.3,0.3,0.6,0.6,0.8,1
					c0.2,0.5,0.2,1.1,0.2,1.7c0,0.2-0.1,0.4-0.1,0.6c0,0.1-0.1,0.3,0,0.4c0,0.1,0,0.2,0.1,0.3c0.1,0.4,0.5,0.7,0.7,1.1
					C70.1,65.9,70.2,66.5,70.1,67z"/>
				<g>
					<g>
						<g>
							<path class="st12" d="M52.4,64.9c-0.1,0-0.1,0.1-0.2,0.2c-0.1,0-0.1,0.1-0.2,0.1c-0.7,0.5-1.8,1.3-3.6,1.3
								c-0.1,0-0.2,0-0.3,0c-1.8-0.1-3.2-0.6-4.2-1.4c-1.3-1.1-2-2.7-2.7-4.2c-0.4-0.9-0.9-1.9-1.4-2.7c-0.9-1.3-2-2.2-3.3-2.7
								c-1.2-0.4-2.4-0.4-3.5,0c0-0.1-0.1-0.2-0.1-0.4c1.2-0.4,2.5-0.4,3.7,0.1c0.5,0.2,1,0.4,1.4,0.8c0.1,0.1,0.3,0.2,0.4,0.3
								c0.6,0.5,1.2,1.1,1.6,1.8c0.6,0.9,1,1.8,1.5,2.8c0.7,1.5,1.4,3,2.6,4c1,0.8,2.3,1.3,4,1.3c1.8,0.1,2.9-0.6,3.6-1.2
								c0.1-0.1,0.2-0.1,0.2-0.2c0.1-0.1,0.1-0.1,0.2-0.2c0.1-0.1,0.2,0,0.3,0C52.5,64.7,52.5,64.8,52.4,64.9z"/>
						</g>
						<g>
							<path class="st12" d="M46.4,41.2c-0.1,1.4-0.6,2.8-1.6,4.1c-0.6,0.8-1.3,1.4-2,2c0,0,0,0,0,0c-0.2,0.1-0.3,0.3-0.5,0.4
								c0,0,0,0,0,0c-0.6,0.5-1.2,0.9-1.8,1.2L40.5,49c-0.4,0.3-0.8,0.5-1.2,0.8c-0.9,0.8-1.4,1.9-1.4,3.1v0c0,0.2,0,0.5,0,0.7
								c0,0.1-0.1,0.2-0.2,0.2c0,0,0,0,0,0c-0.1,0-0.2-0.1-0.2-0.2c0-0.2-0.1-0.5,0-0.7c0-1.3,0.6-2.6,1.5-3.4
								c0.4-0.3,0.8-0.6,1.2-0.9l0.1-0.1c1.4-0.9,3-2,4.2-3.5c0.9-1.2,1.4-2.5,1.5-3.7c0,0,0,0,0,0c0,0,0,0,0,0
								C46.2,41.3,46.2,41.3,46.4,41.2C46.4,41.2,46.4,41.2,46.4,41.2z"/>
						</g>
						<g>
							<path class="st12" d="M44.6,53.4c-0.3,0-0.6-0.2-0.9-0.6c-0.4-0.7-0.4-1.6-0.3-2.4l0-0.2c0-0.8,0-1.7-0.6-2.3
								c-0.1-0.1-0.3-0.2-0.4-0.2c-0.1,0.1-0.2,0-0.3-0.1c-0.1-0.1,0-0.2,0.1-0.3c0.3-0.2,0.6,0,0.9,0.2c0.7,0.7,0.7,1.8,0.7,2.6
								l0,0.2c0,0.8-0.1,1.6,0.3,2.2c0.1,0.1,0.2,0.4,0.5,0.4c0,0,0,0,0,0c0.1,0,0.2,0.1,0.2,0.2C44.8,53.3,44.7,53.4,44.6,53.4
								C44.6,53.4,44.6,53.4,44.6,53.4z"/>
						</g>
						<g>
							<path class="st12" d="M39.6,42.3c0.1,0.6,0.2,1.2,0.2,1.9c0,1-0.3,2-0.9,2.6c-0.2,0.2-0.4,0.4-0.6,0.6
								c-0.1,0.1-0.2,0.2-0.3,0.2c0,0-0.1,0-0.1,0c-0.1,0-0.1,0-0.2-0.1c-0.1-0.1,0-0.2,0-0.3c0.1-0.1,0.2-0.2,0.3-0.3
								c0.2-0.2,0.4-0.3,0.5-0.5c0.5-0.6,0.8-1.4,0.8-2.3c0-0.5-0.1-1-0.2-1.4L39.6,42.3z"/>
						</g>
						<g>
							<path class="st12" d="M59.9,73.2c0,0.1-0.1,0.1-0.2,0.1c0,0-0.1,0-0.1,0c-1.7-0.7-2.7-2.6-2.5-4.4c0.1-0.9,0.4-1.7,0.8-2.5
								l0.1-0.3c0.8-1.8,1.1-3.3,1.2-4.6c0.2-4-1.5-5.5-3.1-6.9c-1-0.9-2.1-1.9-2.7-3.5c-0.6-1.9,0-4.7,1.4-6.3
								c0.1-0.1,0.2-0.2,0.3-0.3c0,0,0,0.1,0,0.1c0,0,0,0,0,0.1c0,0,0.2,0,0.5-0.1c-0.2,0.2-0.3,0.3-0.4,0.5
								c-1.3,1.5-1.9,4.2-1.3,5.9c0.5,1.5,1.5,2.4,2.6,3.3c0.4,0.3,0.8,0.7,1.1,1.1l0,0c0.1,0.1,0.2,0.2,0.3,0.3c0,0,0,0,0,0
								c1.1,1.2,2,2.9,1.8,5.9c-0.1,1.4-0.4,2.9-1.2,4.8l-0.1,0.3c-0.3,0.8-0.7,1.5-0.7,2.3c-0.2,1.6,0.8,3.3,2.3,4
								C59.9,73,59.9,73.1,59.9,73.2z"/>
						</g>
						<g>
							<path class="st12" d="M42.6,69.5c0,0.6-0.1,1.1-0.2,1.6c-0.1-0.1-0.2-0.2-0.3-0.3c0.1-0.4,0.1-0.8,0.1-1.3
								c0-2.1-0.5-4-1.5-5.3c-0.5-0.6-1-1.1-1.6-1.6c-0.7-0.7-1.5-1.4-2-2.2c-0.2-0.3-0.3-0.5-0.3-0.7c0-0.2,0-0.4,0-0.6
								c0-0.1,0.1-0.2,0.2-0.1c0.1,0,0.2,0.1,0.1,0.2c0,0.1,0,0.3,0,0.4c0,0.2,0.1,0.4,0.2,0.6c0.5,0.8,1.2,1.5,1.9,2.2
								c0.6,0.5,1.2,1.1,1.6,1.7C42.1,65.3,42.6,67.3,42.6,69.5z"/>
						</g>
						<g>
							<path class="st12" d="M67.9,68.3c0,0.9-0.3,1.8-0.7,2.8c-0.4,1-1,2-1.8,3.1c-0.1,0.1-0.2,0.2-0.2,0.3
								c-0.1,0.2-0.2,0.3-0.3,0.5c-0.2,0-0.3,0-0.5,0c0.2-0.3,0.3-0.5,0.5-0.8c0.1-0.1,0.2-0.2,0.2-0.3c0.8-1.1,1.3-2.1,1.8-3.1
								c0.4-1,0.6-1.9,0.7-2.7c0-0.8-0.1-1.5-0.4-2.1c-0.1-0.2-0.2-0.3-0.3-0.5c-0.1-0.1,0-0.2,0-0.3c0.1-0.1,0.2,0,0.3,0
								c0.1,0.2,0.2,0.3,0.3,0.5C67.8,66.7,67.9,67.5,67.9,68.3z"/>
						</g>
						<g>
							<path class="st12" d="M62.4,70.8c-0.1,0-0.1,0-0.2-0.1c-1.1-1.6-1.4-3.4-1-4.9c0.1-0.5,0.3-0.9,0.5-1.4l0.1-0.2
								c0.5-1.2,1.1-2.7,1.1-4.3c0-1.6-0.5-3.1-1.6-4c-0.3-0.2-0.5-0.4-0.8-0.5c-0.3-0.1-0.7-0.1-1-0.1c-0.4,0-0.9,0-1.3,0.2
								c-0.2,0.1-0.4,0.2-0.6,0.3c-0.1,0.1-0.2,0.1-0.3,0c-0.1-0.1-0.1-0.2,0-0.3c0.2-0.2,0.5-0.3,0.8-0.4c0.5-0.2,1-0.2,1.4-0.2
								c0.4,0,0.8,0,1.1,0.2c0.3,0.1,0.6,0.3,0.9,0.6c1.1,1,1.7,2.5,1.7,4.3c0,1.7-0.6,3.3-1.1,4.5l-0.1,0.2
								c-0.2,0.4-0.4,0.9-0.5,1.3c-0.4,1.4,0,3.1,1,4.6c0.1,0.1,0,0.2-0.1,0.3C62.5,70.8,62.5,70.8,62.4,70.8z"/>
						</g>
						<g>
							<path class="st12" d="M35.9,53.3c0,0.3-0.2,0.4-0.4,0.4c0,0,0,0,0,0c-0.1,0-0.2-0.1-0.2-0.2c0-0.1,0.1-0.2,0.2-0.2
								c0,0,0,0,0-0.1c0.2-1.2,0.2-2.2,0.1-3.2c-0.2-1.1-0.6-2-1.1-2.8c0.1-0.1,0.1-0.1,0.2-0.1c0.1-0.1,0.1-0.1,0.1-0.1
								c0.6,0.8,1.1,1.8,1.2,3C36.1,51,36.1,52.1,35.9,53.3z"/>
						</g>
						<g>
							<path class="st12" d="M51,41.8c-0.4,0.3-0.8,0.8-1.1,1.4c-0.8,1.4-1.1,2.9-0.9,4.4c0,0.1-0.1,0.2-0.2,0.2c0,0,0,0,0,0
								c-0.1,0-0.2-0.1-0.2-0.2c-0.2-1.5,0.2-3.1,1-4.6c0.4-0.7,0.8-1.2,1.2-1.5C50.8,41.6,50.9,41.7,51,41.8z"/>
						</g>
						<g>
							<path class="st12" d="M55.3,66.4c-0.3,1.7-1.6,3.2-3.2,3.9c-0.7,0.3-1.4,0.4-2.2,0.4c-0.8,0-1.7-0.1-2.7-0.4
								c-1.3-0.4-2.3-0.9-3.1-1.5c-0.2-0.2-0.3-0.3-0.5-0.5c-0.1-0.1-0.1-0.2,0-0.3c0.1-0.1,0.2-0.1,0.3,0c0.1,0.2,0.3,0.3,0.4,0.5
								c0.7,0.6,1.6,1.1,2.9,1.4c1.9,0.5,3.4,0.5,4.7,0c1.5-0.6,2.6-2,3-3.6c0.3-1.6-0.2-3.3-1.3-4.5c-0.8-0.9-1.9-1.5-3-2.1
								c-1.1-0.6-2.3-1.2-3.1-2.2c-1-1.1-1.6-2.8-1.7-4.6c0-0.2,0-0.4,0-0.5c0,0,0-0.1,0-0.1c0-1.4,0.3-2.9,0.6-4.2
								c0.5-2.4,1.1-5,2.2-7.5c0.1,0,0.3,0,0.4,0c-1.1,2.4-1.7,5.1-2.2,7.5c-0.3,1.3-0.5,2.7-0.6,4.1c0,0.2,0,0.3,0,0.5
								c0,0.1,0,0.1,0,0.2c0.1,1.8,0.7,3.3,1.6,4.4c0.8,0.9,1.9,1.5,3,2.1c1.1,0.6,2.3,1.2,3.1,2.2c0.6,0.6,1,1.4,1.2,2.2
								c0,0.1,0.1,0.3,0.1,0.4C55.4,64.9,55.4,65.7,55.3,66.4z"/>
						</g>
						<g>
							<path class="st12" d="M47.3,53c-0.6,0-1.1-0.2-1.5-0.5c-0.1-0.1-0.1-0.2,0-0.3c0.1-0.1,0.2-0.1,0.3,0
								c0.7,0.6,1.6,0.5,2.3,0.1c0.6-0.3,1.2-0.9,1.8-1.8c1.4-2.2,2-4.9,1.7-7.5c0-0.1,0.1-0.2,0.2-0.2c0.1,0,0.2,0.1,0.2,0.2
								c0.3,2.7-0.3,5.5-1.8,7.7c-0.6,1-1.2,1.6-2,1.9C48.1,52.9,47.7,53,47.3,53z"/>
						</g>
						<g>
							<path class="st12" d="M55.1,64.3c-0.1,0-0.1,0-0.2-0.1c-0.1-0.1,0-0.2,0.1-0.3c0.7-0.4,1.1-1.3,1.2-2.2
								c0-0.8-0.2-1.7-0.7-2.5c-0.5-0.8-1.2-1.5-1.8-2.1c-0.6-0.6-1.3-1.2-2-1.8c-0.1-0.1-0.1-0.2,0-0.3c0.1-0.1,0.2-0.1,0.3,0
								c0.8,0.6,1.5,1.2,2.1,1.8c0.6,0.6,1.3,1.3,1.8,2.2c0.6,0.9,0.8,1.9,0.8,2.8c0,1.1-0.6,2-1.3,2.5
								C55.1,64.3,55.1,64.3,55.1,64.3z"/>
						</g>
						<g>
							<path class="st12" d="M57.4,75C57.4,75,57.4,75,57.4,75c-0.4,0-0.8-0.2-1.2-0.6c-1.1-1-1.6-2.6-1.4-4c0-0.1,0.1-0.2,0.2-0.2
								c0.1,0,0.2,0.1,0.2,0.2c-0.2,1.3,0.3,2.7,1.3,3.7c0.3,0.3,0.6,0.5,0.9,0.5c0.1,0,0.2,0.1,0.2,0.2C57.6,75,57.5,75,57.4,75z"
								/>
						</g>
						<g>
							<path class="st12" d="M47.5,63.9c-0.7,0-1.3-0.2-2-0.5c-0.8-0.4-1.5-1.2-2-2.1c-0.1-0.1,0-0.2,0.1-0.3c0.1-0.1,0.2,0,0.3,0.1
								c0.5,0.8,1.1,1.5,1.8,1.9c0.8,0.5,1.7,0.6,2.5,0.4c0.1,0,0.2,0,0.2,0.1c0,0.1,0,0.2-0.1,0.2C48.1,63.8,47.8,63.9,47.5,63.9z"
								/>
						</g>
						<g>
							<path class="st12" d="M39.5,67.2c-0.1,0-0.2-0.1-0.2-0.1c-0.6-1.9-2.1-3.5-3.9-4.1c-0.1,0-0.2-0.2-0.1-0.3
								c0-0.1,0.2-0.2,0.3-0.1c2,0.7,3.5,2.4,4.1,4.4C39.7,67.1,39.7,67.2,39.5,67.2C39.6,67.2,39.5,67.2,39.5,67.2z"/>
						</g>
						<g>
							<path class="st12" d="M64.4,56.5c0,0.1-0.1,0.2-0.2,0.2c0,0,0,0,0,0c-0.1,0-0.2-0.1-0.2-0.2c0-0.2,0-0.4,0-0.6v0
								c-0.1-0.4-0.2-0.7-0.3-1.1c-0.6-1.2-1.7-2-2.6-2.5l-0.2-0.1c-0.5-0.3-0.9-0.6-1.3-1c-0.2-0.3-0.4-0.6-0.6-1
								c-0.2-0.5-0.3-1-0.3-1.4c0-0.4,0.1-0.7,0.3-1.1c0,0.1,0.1,0.3,0.1,0.4c0.1,0,0.1,0,0.2,0c-0.1,0.2-0.1,0.4-0.2,0.7
								c0,0.4,0.1,0.8,0.3,1.2c0.2,0.4,0.3,0.7,0.5,0.9c0.3,0.4,0.8,0.6,1.2,0.9l0.2,0.1c1,0.6,2.2,1.4,2.8,2.7
								c0.2,0.4,0.3,0.8,0.4,1.2v0C64.3,56.1,64.4,56.3,64.4,56.5z"/>
						</g>
						<g>
							<path class="st12" d="M56.5,51.9C56.6,51.8,56.6,51.8,56.5,51.9c0.5-1,0.6-2,0.4-3c-0.3-1-0.9-1.8-1.7-2.3
								c-0.4-0.3-0.8-0.4-1.1-0.4c-0.1,0-0.2,0.1-0.2,0.2c0,0.1,0.1,0.2,0.2,0.2c0.3,0,0.6,0.1,0.9,0.3c0.7,0.5,1.3,1.3,1.5,2.1
								c0.2,0.9,0.1,1.8-0.3,2.6c0,0.1,0,0.2,0.1,0.3C56.4,51.9,56.5,51.9,56.5,51.9z"/>
						</g>
						<g>
							<path class="st12" d="M49.8,61.4C49.8,61.4,49.8,61.4,49.8,61.4c-1.4-0.1-2.7-0.7-3.7-1.6c-0.6-0.6-1-1.3-1.5-1.9
								c-0.7-1-1.3-1.9-2.2-2.5c-0.4-0.3-1-0.4-1.7-0.6c-0.5-0.1-1.1-0.2-1.6,0.1c-0.4,0.2-0.8,0.6-0.7,1.1c0,0.1-0.1,0.2-0.2,0.2
								c-0.1,0-0.2-0.1-0.2-0.2c-0.1-0.7,0.4-1.3,1-1.5c0.6-0.2,1.3-0.2,1.8-0.1c0.7,0.1,1.3,0.3,1.8,0.6c1.1,0.6,1.7,1.6,2.4,2.6
								c0.4,0.7,0.9,1.3,1.4,1.9c0.9,0.9,2.2,1.4,3.4,1.5c0.1,0,0.2,0.1,0.2,0.2C50,61.4,49.9,61.4,49.8,61.4z"/>
						</g>
						<g>
							<path class="st12" d="M61.7,75.6c0,0-0.1,0-0.1-0.1c-0.1-0.1-0.1-0.2,0-0.3c0.4-0.4,0.5-1.1,0.3-1.7c-0.2-0.6-0.6-1.1-1-1.6
								c-0.1-0.1-0.1-0.2-0.2-0.2c-0.4-0.4-0.8-0.9-1.1-1.4c-0.5-0.8-0.6-1.8-0.4-2.6c0.3-1,1.1-1.9,2.1-2.2c0.1,0,0.2,0,0.3,0.1
								c0,0.1,0,0.2-0.1,0.3c-0.9,0.3-1.6,1.1-1.8,2c-0.2,0.7-0.1,1.6,0.3,2.3c0.3,0.5,0.6,0.9,1,1.3c0.1,0.1,0.1,0.2,0.2,0.2
								c0.5,0.5,0.9,1.1,1.1,1.8c0.3,0.8,0.1,1.6-0.3,2.1C61.9,75.6,61.8,75.6,61.7,75.6z"/>
						</g>
						<g>
							<path class="st12" d="M69.2,63.6c0,0.1-0.1,0.3,0,0.4c-0.9-0.1-1.8-0.4-2.5-0.9c-1.1-0.7-1.9-1.8-2.2-3c0-0.1,0-0.2,0.1-0.3
								c0.1,0,0.2,0,0.3,0.1c0.3,1.1,1.1,2.1,2.1,2.8c0.1,0,0.2,0.1,0.2,0.1c0.1,0.1,0.2,0.1,0.4,0.2C68,63.4,68.6,63.6,69.2,63.6z"
								/>
						</g>
						<g>
							<path class="st12" d="M63.5,72.5c-0.1,0-0.1,0-0.2-0.1c-0.1-0.1-0.1-0.2,0-0.3c0.9-0.7,1.5-1.9,1.6-3.2
								c0.1-1.1-0.2-2.4-0.7-3.6c0,0,0,0,0,0c-0.1,0-0.1,0-0.2-0.1c-0.1-0.1-0.1-0.2,0-0.3c0.1-0.1,0.2-0.1,0.2-0.1
								c0.1,0,0.2,0.1,0.3,0.2c0.6,1.3,0.9,2.6,0.8,3.8c-0.1,1.4-0.8,2.7-1.8,3.5C63.6,72.5,63.6,72.5,63.5,72.5z"/>
						</g>
						<g>
							<path class="st12" d="M44.4,40.3c-0.1,0.9-0.3,1.6-0.6,2.3c-0.5,1.1-1.2,2-2,2.5c0,0-0.1,0-0.1,0c-0.1,0-0.1,0-0.2-0.1
								c-0.1-0.1,0-0.2,0.1-0.3c0.8-0.5,1.4-1.4,1.8-2.4c0.3-0.6,0.5-1.3,0.6-2.2C44.2,40.3,44.3,40.3,44.4,40.3z"/>
						</g>
						<g>
							<path class="st12" d="M33.4,60.7C33.4,60.7,33.4,60.7,33.4,60.7c0.1-0.4,0.3-0.7,0.5-1.1c0.5-0.8,1-1.4,1.7-1.8
								c0.3-0.2,0.7-0.4,1-0.4c0.1,0,0.2-0.1,0.2-0.2c0-0.1-0.1-0.2-0.2-0.2c-0.4,0.1-0.8,0.2-1.2,0.5c-0.7,0.4-1.3,1.1-1.8,2
								c-0.1,0.2-0.3,0.5-0.4,0.7L33.4,60.7z"/>
						</g>
					</g>
					<g>
						<path class="st12" d="M52.5,72.1c0,1-0.5,2.2-1.5,3c-0.2,0.1-0.3,0.3-0.5,0.4c-0.1-0.1-0.2-0.1-0.3-0.2c0,0,0,0,0,0
							c0.2-0.1,0.4-0.3,0.6-0.4c0.7-0.6,1.3-1.5,1.3-2.6c0-0.2,0-0.3,0-0.5c0-0.1,0.1-0.2,0.2-0.2c0.1,0,0.2,0.1,0.2,0.2
							C52.5,71.7,52.5,71.9,52.5,72.1z"/>
					</g>
					<g>
						<path class="st12" d="M40.4,53.5c-0.1,0-0.2-0.1-0.2-0.2c0-1,0.2-2,0.7-2.9c0.1-0.2,0.3-0.5,0.6-0.5c0.1,0,0.2,0.1,0.2,0.2
							c0,0.1-0.1,0.2-0.2,0.2c-0.1,0-0.2,0.1-0.3,0.3c-0.4,0.8-0.6,1.8-0.6,2.7C40.7,53.4,40.6,53.5,40.4,53.5
							C40.5,53.5,40.4,53.5,40.4,53.5z"/>
					</g>
					<g>
						<path class="st12" d="M51.4,58.3c-0.1,0-0.1,0-0.2-0.1c-0.8-1.3-1.9-2.3-3.2-3.1C48,55.1,47.9,55,48,54.9
							c0.1-0.1,0.2-0.1,0.3-0.1c1.3,0.8,2.5,1.9,3.3,3.2c0.1,0.1,0,0.2-0.1,0.3C51.5,58.3,51.5,58.3,51.4,58.3z"/>
					</g>
					<path class="st12" d="M51.8,55.7c-0.4,0-0.7-0.3-0.7-0.6s0.3-0.7,0.6-0.7c0.4,0,0.7,0.3,0.7,0.6C52.4,55.4,52.1,55.7,51.8,55.7
						z"/>
					<path class="st12" d="M52.4,65.3c-0.4,0-0.7-0.3-0.7-0.6c0-0.4,0.3-0.7,0.6-0.7s0.7,0.3,0.7,0.6S52.7,65.2,52.4,65.3z"/>
					<path class="st12" d="M43.8,68.8c-0.4,0-0.7-0.3-0.7-0.6c0-0.4,0.3-0.7,0.6-0.7c0.4,0,0.7,0.3,0.7,0.6
						C44.4,68.5,44.1,68.8,43.8,68.8z"/>
					<path class="st12" d="M36.9,59.6c-0.4,0-0.7-0.3-0.7-0.6s0.3-0.7,0.6-0.7c0.4,0,0.7,0.3,0.7,0.6C37.6,59.2,37.3,59.5,36.9,59.6
						z"/>
					
						<ellipse transform="matrix(0.6735 -0.7392 0.7392 0.6735 -27.2445 45.3802)" class="st12" cx="37.8" cy="53.5" rx="0.7" ry="0.7"/>
					<path class="st12" d="M49.9,61.9c-0.4,0-0.7-0.3-0.7-0.6s0.3-0.7,0.6-0.7s0.7,0.3,0.7,0.6C50.5,61.6,50.2,61.9,49.9,61.9z"/>
					<path class="st12" d="M64.2,57.2c-0.4,0-0.7-0.3-0.7-0.6s0.3-0.7,0.6-0.7c0.4,0,0.7,0.3,0.7,0.6C64.8,56.9,64.5,57.2,64.2,57.2
						z"/>
					<path class="st12" d="M56.4,52.3c-0.4,0-0.7-0.3-0.7-0.6c0-0.4,0.3-0.7,0.6-0.7c0.4,0,0.7,0.3,0.7,0.6S56.8,52.3,56.4,52.3z"/>
					
						<ellipse transform="matrix(0.6735 -0.7392 0.7392 0.6735 -35.5906 70.2157)" class="st12" cx="61.7" cy="75.4" rx="0.7" ry="0.7"/>
					<path class="st12" d="M52.2,72.2c-0.4,0-0.7-0.3-0.7-0.6c0-0.4,0.3-0.7,0.6-0.7c0.4,0,0.7,0.3,0.7,0.6
						C52.9,71.8,52.6,72.1,52.2,72.2z"/>
					<path class="st12" d="M64.4,65.8c-0.4,0-0.7-0.3-0.7-0.6c0-0.4,0.3-0.7,0.6-0.7c0.4,0,0.7,0.3,0.7,0.6
						C65.1,65.5,64.8,65.8,64.4,65.8z"/>
					
						<ellipse transform="matrix(0.6735 -0.7392 0.7392 0.6735 -22.7914 43.3673)" class="st12" cx="37.7" cy="47.5" rx="0.7" ry="0.7"/>
				</g>
			</g>
			<path class="st17" d="M64.5,73.2c-0.1,0.5,0.2,0.9,0.1,1.4c-0.1,0.2-0.1,0.4-0.2,0.5c-0.7,0-1.3,0-1.3,0s-6.6,3-6.9,1.6
				c-3.2,1.4-4.2-0.3-4.1-1.7c-1.1,1.3-3.2,0.7-3.4-1c-3.4-0.5-2.9-2.7-2.9-2.7c-3.1,1.8-5.1-0.5-4.9-1.5c-1.3,0.5-2.7,0.2-3.8-0.6
				c-0.4-0.3-0.7-1.8-0.7-1.8s-0.3-0.1-0.9-0.3c-1-0.5-1.9-1.1-2.4-2.2c-0.6-1.2-0.7-2.6-0.2-3.9c-0.7-0.4-1.3-1.1-1.5-1.9
				c-0.1-0.6,0-1.2,0.3-1.7c0.2-0.3,0.5-0.6,0.5-0.9c0-0.3-0.5-0.8-0.6-1.1c-0.3-0.8-0.6-1.6-0.7-2.4c-0.1-0.6-0.1-0.9,0.3-1.3
				c0.5-0.5,1-1,1.3-1.6c0.1-0.1,0.1-0.2,0.1-0.3c0-0.1,0-0.2-0.1-0.3c-0.4-1-0.2-2.2,0.3-3.1c0,0,0,0,0,0c0,0,0-0.1,0-0.1
				c0-0.1,0.1-0.2,0.1-0.4c0.4-1,1.5-1.7,2.6-1.9c0.7-0.2,1.5-0.2,2.3-0.1c0.1,0,0.1,0,0.2,0c0.4,0.1,0.9,0.2,1.4,0.4
				c0.2,0.1,0.4,0.1,0.5,0.2c0,0,0.1,0,0.1,0s0.8-0.5,1.2-0.6c0.7-0.2,1.4-0.2,2.1,0c0.6,0.1,1.8,1.3,1.8,1.3s1.6-0.1,2.8,0.6
				c1.1,0.6,1.6,1.6,1.7,1.9c0,0,0,0.1,0,0.1s0.2,0,0.4-0.1c0.6-0.1,1.8,0,2.7,0.9c0.5,0.5,0.9,1.2,1,1.9c0,0,0,0,0,0
				c0.1,0.2,0.1,0.5,0.1,0.8c0.1,0,0.2,0,0.3,0c0.6,0,1.2,0.1,1.7,0.4c0.4,0.2,0.7,0.4,1,0.7c0.7,0.7,1,1.6,1.1,2.6
				c0,0.2,0.1,0.3,0.2,0.5c0.1,0.1,0.2,0.2,0.3,0.4c0.3,0.3,0.8,0.5,1,1c0.4,0.6,0.5,1.5,0.3,2.2c0.9,0.1,1.8,0.6,2.3,1.5
				c0.2,0.4,0.3,0.8,0.4,1.2c0,0.4-0.2,1.1-0.1,1.4c0.1,0.3,0.6,0.4,0.9,0.6c0.4,0.3,0.6,0.6,0.8,1.1c0.2,0.6,0.2,1.4,0.1,2
				c-0.1,0.2-0.1,0.5-0.2,0.7c0.1,0,0.1,0,0.2,0c0.2,0.1,0.3,0.2,0.5,0.3c0.6,0.6,1,1.4,1.1,2.3c0.1,0.8-0.1,1.7-0.5,2.4
				C64.8,72.6,64.5,72.9,64.5,73.2z"/>
			<path class="st4" d="M63.9,73.4c-0.1,0.1-0.2,0.3-0.3,0.4c-0.1,0.1-0.2,0.2-0.2,0.4c0,0,0,0,0,0.1c-0.1,0.5,0.2,0.9,0.1,1.4
				c-0.1,0.5-0.5,0.9-0.8,1.3c-0.2,0.2-0.4,0.4-0.6,0.5c-0.2,0.1-0.5,0.1-0.8,0c0,0.1,0,0.2,0,0.3c0,0,0,0,0,0
				c0,0.2-0.1,0.4-0.2,0.6c-0.2,0.5-0.7,1-1.2,1.2c-0.5,0.3-1,0.4-1.6,0.4c-0.4,0-0.8-0.1-1.2-0.1c-0.1,0-0.2,0-0.3,0.1
				c-0.1,0-0.2,0.1-0.2,0.2c0,0,0,0,0,0c0,0,0,0,0,0c-0.1,0.1-0.1,0.1-0.2,0.2c-0.2,0.2-0.4,0.4-0.7,0.6c-0.4,0.4-0.9,0.6-1.5,0.7
				c-0.8,0.1-1.6-0.3-2.3-0.7c-0.9,0.8-2.4,0.8-3.3-0.1c-0.6,0.4-1.4,0.5-2.1,0.3c-0.3-0.1-0.6-0.3-0.9-0.5
				c-0.1-0.1-0.2-0.3-0.3-0.5c-0.1-0.2-0.2-0.3-0.3-0.3c0,0-0.1,0-0.1,0c-0.3,0-0.9,0.5-1.3,0.5c-0.4,0-0.8,0-1.1-0.2
				c-0.1-0.1-0.2-0.1-0.3-0.2c0,0,0,0,0,0c-0.1-0.1-0.3-0.5-0.5-0.9c0,0,0,0,0,0c-0.1-0.3-0.2-0.5-0.2-0.5c-0.1,0-0.1,0-0.2,0
				c-3.2-0.6-2.8-2.8-2.8-2.8c-1.8,1-3.3,0.7-4.1,0c-0.1-0.1-0.2-0.2-0.3-0.3c-0.1-0.1-0.2-0.2-0.2-0.3c-0.2-0.3-0.3-0.5-0.3-0.8
				c0-0.1,0-0.2,0-0.3c-1.3,0.5-2.8,0.2-3.8-0.7c-0.4-0.3-0.7-1.8-0.7-1.8s-0.3-0.1-0.9-0.3c-1-0.5-1.9-1.2-2.4-2.2
				c-0.5-1.1-0.7-2.4-0.3-3.7c0,0,0,0,0,0c0-0.1,0.1-0.2,0.1-0.3c-0.1-0.1-0.2-0.1-0.3-0.2c-0.6-0.4-1.1-1.1-1.2-1.8
				c-0.1-0.6,0-1.3,0.3-1.8c0.2-0.3,0.6-0.9,0.7-1.1c0,0,0-0.1,0-0.1s0-0.1,0-0.2c0-0.1-0.1-0.2-0.1-0.4c0,0,0,0,0-0.1
				c-0.1-0.3-0.2-0.7-0.4-0.9C23.9,57,24,55,25,53.6c0.4-0.6,1.2-1.3,1.6-1.7c0.1-0.1,0.1-0.1,0.2-0.1c0.1-0.1,0.1-0.1,0.1-0.1
				c0,0,0,0,0,0s0-0.1,0.1-0.3c0.1-0.7,0.5-2.2,1.2-2.9c0.8-0.9,2.1-1.4,3.2-1.1c0,0,0.1,0,0.1,0c0.1,0,0.1,0,0.1,0.1
				c0-0.2,0.1-0.3,0.1-0.4c0,0,0,0,0,0l0,0c0.4-1,1.5-1.6,2.6-1.8c0.6-0.1,1.2-0.2,1.8-0.1c0.1,0,0.3,0,0.4,0c0,0,0,0,0,0
				c0.4,0.1,1.1,0.2,1.5,0.4c0,0,0,0,0,0c0.2,0.1,0.3,0.1,0.4,0.1c0,0,0,0,0.1,0c0,0,0.1,0,0.1,0s0.8-0.5,1.2-0.6
				c0.3-0.1,0.6-0.1,0.9-0.1c0.1,0,0.3,0,0.4,0c0.3,0,0.5,0,0.8,0.1c0.4,0.1,1,0.6,1.4,0.9c0.1,0.1,0.2,0.2,0.3,0.3
				c0.1,0.1,0.1,0.1,0.1,0.1s1.6-0.1,2.8,0.6c0.8,0.5,1.3,1.2,1.6,1.6c0.1,0.1,0.1,0.2,0.1,0.2c0,0,0,0.1,0,0.1s0.1,0,0.2,0
				c0.1,0,0.1,0,0.2,0c0.6-0.1,1.8,0,2.7,0.9c0.5,0.5,0.9,1.2,1,1.9c0,0,0,0,0,0.1c0,0,0,0,0,0c0,0.2,0.1,0.4,0.1,0.5
				c0,0.1,0,0.1,0,0.2c0.1,0,0.2,0,0.3,0c0.6,0,1.2,0.1,1.7,0.4c0.4,0.2,0.7,0.4,1,0.7c0.7,0.7,1,1.6,1.1,2.6c0,0.2,0.1,0.3,0.2,0.5
				c0.1,0.1,0.2,0.2,0.3,0.4c0.3,0.3,0.8,0.5,1,1c0.4,0.6,0.5,1.5,0.3,2.2c0.9,0.1,1.8,0.6,2.3,1.5c0.2,0.4,0.3,0.8,0.4,1.2
				c0.1,0.4-0.2,1.1-0.1,1.4c0.1,0.3,0.6,0.4,0.9,0.6c0.4,0.3,0.6,0.6,0.8,1.1c0.2,0.6,0.2,1.4,0.1,2c0,0.1-0.1,0.2-0.1,0.3
				c0,0.1-0.1,0.2-0.1,0.4c0.1,0,0.1,0,0.2,0c0,0,0,0,0,0c0,0,0,0,0,0c0.2,0.1,0.3,0.2,0.5,0.3c0.6,0.6,1,1.4,1.1,2.3
				C64.5,71.9,64.3,72.7,63.9,73.4z"/>
			<g>
				<g>
					<g>
						<path class="st12" d="M44.6,69.4c-0.1,0-0.1,0.1-0.2,0.2c-0.1,0-0.1,0.1-0.2,0.1c-0.7,0.5-1.8,1.3-3.6,1.3c-0.1,0-0.2,0-0.3,0
							c-1.8-0.1-3.2-0.6-4.2-1.4c-1.3-1.1-2-2.7-2.7-4.2c-0.4-0.9-0.9-1.9-1.4-2.7c-0.9-1.3-2-2.2-3.3-2.7c-1.2-0.4-2.4-0.4-3.5,0
							c0-0.1-0.1-0.2-0.1-0.4c1.2-0.4,2.5-0.4,3.7,0.1c0.5,0.2,1,0.4,1.4,0.8c0.1,0.1,0.3,0.2,0.4,0.3c0.6,0.5,1.2,1.1,1.6,1.8
							c0.6,0.9,1,1.8,1.5,2.8c0.7,1.5,1.4,3,2.6,4c1,0.8,2.3,1.3,4,1.3c1.8,0.1,2.9-0.6,3.6-1.2c0.1-0.1,0.2-0.1,0.2-0.2
							c0.1-0.1,0.1-0.1,0.2-0.2c0.1-0.1,0.2,0,0.3,0C44.7,69.2,44.7,69.3,44.6,69.4z"/>
					</g>
					<g>
						<path class="st12" d="M38.7,45.4c0,1.5-0.6,3-1.6,4.4c-0.6,0.8-1.3,1.4-2,2c-0.2,0.1-0.3,0.3-0.5,0.4
							c-0.6,0.5-1.2,0.9-1.8,1.2l-0.1,0.1c-0.4,0.3-0.8,0.5-1.2,0.8c-0.9,0.8-1.4,1.9-1.4,3.1c0,0.2,0,0.5,0,0.7
							c0,0.1-0.1,0.2-0.2,0.2c0,0,0,0,0,0c-0.1,0-0.2-0.1-0.2-0.2c0-0.2-0.1-0.5,0-0.7c0-1.3,0.6-2.6,1.5-3.4
							c0.4-0.3,0.8-0.6,1.2-0.9l0.1-0.1c1.4-0.9,3-2,4.2-3.5c1-1.3,1.5-2.8,1.5-4.3C38.4,45.3,38.6,45.3,38.7,45.4z"/>
					</g>
					<g>
						<path class="st12" d="M36.8,57.9c-0.3,0-0.6-0.2-0.9-0.6c-0.4-0.7-0.4-1.6-0.3-2.4l0-0.2c0-0.8,0-1.7-0.6-2.3
							c-0.1-0.1-0.3-0.2-0.4-0.2c-0.1,0.1-0.2,0-0.3-0.1c-0.1-0.1,0-0.2,0.1-0.3c0.3-0.2,0.6,0,0.9,0.2c0.7,0.7,0.7,1.8,0.7,2.6
							l0,0.2c0,0.8-0.1,1.6,0.3,2.2c0.1,0.1,0.2,0.4,0.5,0.4c0,0,0,0,0,0c0.1,0,0.2,0.1,0.2,0.2C37,57.8,36.9,57.9,36.8,57.9
							C36.8,57.9,36.8,57.9,36.8,57.9z"/>
					</g>
					<g>
						<path class="st12" d="M31.8,46.8c0.1,0.6,0.2,1.2,0.2,1.9c0,1-0.3,2-0.9,2.6c-0.2,0.2-0.4,0.4-0.6,0.6
							c-0.1,0.1-0.2,0.2-0.3,0.2c0,0-0.1,0-0.1,0c-0.1,0-0.1,0-0.2-0.1c-0.1-0.1,0-0.2,0-0.3c0.1-0.1,0.2-0.2,0.3-0.3
							c0.2-0.2,0.4-0.3,0.5-0.5c0.5-0.6,0.8-1.4,0.8-2.3c0-0.5-0.1-1-0.2-1.4L31.8,46.8z"/>
					</g>
					<g>
						<path class="st12" d="M52.1,77.7c0,0.1-0.1,0.1-0.2,0.1c0,0-0.1,0-0.1,0c-1.7-0.7-2.7-2.6-2.5-4.4c0.1-0.9,0.4-1.7,0.8-2.5
							l0.1-0.3c0.8-1.8,1.1-3.3,1.2-4.6c0.2-4-1.5-5.5-3.1-6.9c-1-0.9-2.1-1.9-2.7-3.5c-0.6-1.9,0-4.7,1.4-6.3
							c0.4-0.4,0.8-0.8,1.2-1c0.1,0.1,0.1,0.2,0.1,0.2c0,0,0,0.1,0,0.1s0.1,0,0.2,0c-0.6,0.3-1,0.7-1.3,1c-1.3,1.5-1.9,4.2-1.3,5.9
							c0.5,1.5,1.5,2.4,2.6,3.3c0.4,0.3,0.8,0.7,1.1,1.1c0.1,0.1,0.2,0.2,0.3,0.3c1.1,1.2,2,2.9,1.8,5.9c-0.1,1.4-0.4,2.9-1.2,4.8
							l-0.1,0.3c-0.3,0.8-0.7,1.5-0.7,2.3c-0.2,1.6,0.8,3.3,2.3,4C52.1,77.5,52.2,77.6,52.1,77.7z"/>
					</g>
					<g>
						<path class="st12" d="M34.8,74c0,0.6-0.1,1.1-0.2,1.6c-0.1-0.1-0.2-0.2-0.3-0.3c0.1-0.4,0.1-0.8,0.1-1.3c0-2.1-0.5-4-1.5-5.3
							c-0.5-0.6-1-1.1-1.6-1.6c-0.7-0.7-1.5-1.4-2-2.2C29.1,64.5,29,64.3,29,64c0-0.2,0-0.4,0-0.6c0-0.1,0.1-0.2,0.2-0.1
							c0.1,0,0.2,0.1,0.1,0.2c0,0.1,0,0.3,0,0.4c0,0.2,0.1,0.4,0.2,0.6c0.5,0.8,1.2,1.5,1.9,2.2c0.6,0.5,1.2,1.1,1.6,1.7
							C34.3,69.8,34.9,71.8,34.8,74z"/>
					</g>
					<g>
						<path class="st12" d="M60.1,72.8c0,0.9-0.3,1.8-0.7,2.8c-0.4,1-1,2-1.8,3.1c-0.1,0.1-0.2,0.2-0.2,0.3c-0.2,0.3-0.5,0.7-0.7,1
							c0,0,0,0,0,0c0,0,0,0,0,0c-0.1,0.1-0.1,0.1-0.2,0.2c-0.2,0.2-0.4,0.4-0.7,0.6c0.1-0.2,0.1-0.3,0.2-0.5c0.3-0.6,0.6-1.1,1-1.6
							c0.1-0.1,0.2-0.2,0.2-0.3c0.8-1.1,1.3-2.1,1.8-3.1c0.4-1,0.6-1.9,0.7-2.7c0-0.8-0.1-1.5-0.4-2.1c-0.1-0.2-0.2-0.3-0.3-0.5
							c-0.1-0.1,0-0.2,0.1-0.3c0.1-0.1,0.2,0,0.3,0.1c0.1,0.2,0.2,0.3,0.3,0.5C60,71.2,60.2,72,60.1,72.8z"/>
					</g>
					<g>
						<path class="st12" d="M54.7,75.3c-0.1,0-0.1,0-0.2-0.1c-1.1-1.6-1.4-3.4-1-4.9c0.1-0.5,0.3-0.9,0.5-1.4l0.1-0.2
							c0.5-1.2,1.1-2.7,1.1-4.3c0-1.6-0.5-3.1-1.6-4c-0.3-0.2-0.5-0.4-0.8-0.5c-0.3-0.1-0.7-0.1-1-0.1c-0.4,0-0.9,0-1.3,0.2
							c-0.2,0.1-0.4,0.2-0.6,0.3c-0.1,0.1-0.2,0.1-0.3,0s-0.1-0.2,0-0.3c0.2-0.2,0.5-0.3,0.8-0.4c0.5-0.2,1-0.2,1.4-0.2
							c0.4,0,0.8,0,1.1,0.2c0.3,0.1,0.6,0.3,0.9,0.6c1.1,1,1.7,2.5,1.7,4.3c0,1.7-0.6,3.3-1.1,4.5L54.3,69c-0.2,0.4-0.4,0.9-0.5,1.3
							c-0.4,1.4,0,3.1,1,4.6c0.1,0.1,0,0.2-0.1,0.3C54.7,75.3,54.7,75.3,54.7,75.3z"/>
					</g>
					<g>
						<path class="st12" d="M28.1,57.8c0,0.3-0.2,0.4-0.4,0.4c0,0,0,0,0,0c-0.1,0-0.2-0.1-0.2-0.2c0-0.1,0.1-0.2,0.2-0.2
							c0,0,0,0,0-0.1c0.2-1.2,0.2-2.2,0.1-3.2c-0.2-1.1-0.6-2-1.1-2.8c0.1-0.1,0.1-0.1,0.2-0.1c0.1-0.1,0.1-0.1,0.1-0.1
							c0.6,0.8,1.1,1.8,1.2,3C28.3,55.5,28.3,56.6,28.1,57.8z"/>
					</g>
					<g>
						<path class="st12" d="M43.8,46c-0.6,0.3-1.2,0.9-1.7,1.8c-0.8,1.4-1.1,2.9-0.9,4.4c0,0.1-0.1,0.2-0.2,0.2c0,0,0,0,0,0
							c-0.1,0-0.2-0.1-0.2-0.2c-0.2-1.5,0.2-3.1,1-4.6c0.5-0.9,1.1-1.5,1.7-1.9C43.6,45.8,43.7,45.9,43.8,46z"/>
					</g>
					<g>
						<path class="st12" d="M42,75.2c-0.8,0-1.7-0.1-2.7-0.4c-1.7-0.5-2.8-1.1-3.5-2c-0.1-0.1-0.1-0.2,0-0.3c0.1-0.1,0.2-0.1,0.3,0
							c0.7,0.8,1.7,1.4,3.3,1.9c1.9,0.5,3.4,0.5,4.7,0c1.5-0.6,2.6-2,3-3.6c0.3-1.6-0.2-3.3-1.3-4.5c-0.8-0.9-1.9-1.5-3-2.1
							c-1.1-0.6-2.3-1.2-3.1-2.2c-1-1.1-1.6-2.8-1.7-4.6c-0.1-1.7,0.2-3.3,0.6-4.9c0.6-2.6,1.2-5.4,2.4-8c0-0.1,0.2-0.1,0.3-0.1
							c0.1,0,0.1,0.2,0.1,0.3c-1.2,2.6-1.9,5.3-2.4,7.9c-0.3,1.5-0.6,3.2-0.6,4.8c0.1,1.8,0.7,3.3,1.6,4.4c0.8,0.9,1.9,1.5,3,2.1
							c1.1,0.6,2.3,1.2,3.1,2.2c1.2,1.3,1.7,3.1,1.4,4.8c-0.3,1.7-1.6,3.2-3.2,3.9C43.6,75,42.9,75.2,42,75.2z"/>
					</g>
					<g>
						<path class="st12" d="M39.5,57.5c-0.6,0-1.1-0.2-1.5-0.5c-0.1-0.1-0.1-0.2,0-0.3c0.1-0.1,0.2-0.1,0.3,0
							c0.7,0.6,1.6,0.5,2.3,0.1c0.6-0.3,1.2-0.9,1.8-1.8c1.4-2.2,2-4.9,1.7-7.5c0-0.1,0.1-0.2,0.2-0.2c0.1,0,0.2,0.1,0.2,0.2
							c0.3,2.7-0.3,5.5-1.8,7.7c-0.6,1-1.2,1.6-2,1.9C40.3,57.4,39.9,57.5,39.5,57.5z"/>
					</g>
					<g>
						<path class="st12" d="M47.3,68.8c-0.1,0-0.1,0-0.2-0.1c-0.1-0.1,0-0.2,0.1-0.3c0.7-0.4,1.1-1.3,1.2-2.2c0-0.8-0.2-1.7-0.7-2.5
							c-0.5-0.8-1.2-1.5-1.8-2.1c-0.6-0.6-1.3-1.2-2-1.8c-0.1-0.1-0.1-0.2,0-0.3c0.1-0.1,0.2-0.1,0.3,0c0.8,0.6,1.5,1.2,2.1,1.8
							c0.6,0.6,1.3,1.3,1.8,2.2c0.6,0.9,0.8,1.9,0.8,2.8c0,1.1-0.6,2-1.3,2.5C47.4,68.7,47.3,68.8,47.3,68.8z"/>
					</g>
					<g>
						<path class="st12" d="M49.6,79.5C49.6,79.5,49.6,79.5,49.6,79.5c-0.4,0-0.8-0.2-1.2-0.6c-1.1-1-1.6-2.6-1.4-4
							c0-0.1,0.1-0.2,0.2-0.2c0.1,0,0.2,0.1,0.2,0.2c-0.2,1.3,0.3,2.7,1.3,3.7c0.3,0.3,0.6,0.5,0.9,0.5c0.1,0,0.2,0.1,0.2,0.2
							C49.8,79.5,49.7,79.5,49.6,79.5z"/>
					</g>
					<g>
						<path class="st12" d="M39.8,68.4c-0.7,0-1.3-0.2-2-0.5c-0.8-0.4-1.5-1.2-2-2.1c-0.1-0.1,0-0.2,0.1-0.3c0.1-0.1,0.2,0,0.3,0.1
							c0.5,0.8,1.1,1.5,1.8,1.9c0.8,0.5,1.7,0.6,2.5,0.4c0.1,0,0.2,0,0.2,0.1c0,0.1,0,0.2-0.1,0.2C40.3,68.3,40.1,68.4,39.8,68.4z"
							/>
					</g>
					<g>
						<path class="st12" d="M31.7,71.7c-0.1,0-0.2-0.1-0.2-0.1c-0.6-1.9-2.1-3.5-3.9-4.1c-0.1,0-0.2-0.2-0.1-0.3
							c0-0.1,0.2-0.2,0.3-0.1c2,0.7,3.5,2.4,4.1,4.4C32,71.5,31.9,71.7,31.7,71.7C31.8,71.7,31.8,71.7,31.7,71.7z"/>
					</g>
					<g>
						<path class="st12" d="M57.2,61.2c0,0.1-0.1,0.2-0.2,0.2c0,0,0,0,0,0c-0.1,0-0.2-0.1-0.2-0.2c0-0.2,0-0.4,0-0.6
							c-0.1-0.4-0.2-0.7-0.3-1.1c-0.6-1.2-1.7-2-2.6-2.5l-0.2-0.1c-0.5-0.3-0.9-0.6-1.3-1c-0.2-0.3-0.4-0.6-0.6-1
							c-0.2-0.5-0.3-1-0.3-1.4c0.1-0.8,0.5-1.4,1-2c0,0.2,0.1,0.4,0.1,0.5c-0.4,0.5-0.7,1-0.7,1.5c0,0.4,0.1,0.8,0.3,1.2
							c0.2,0.4,0.3,0.7,0.5,0.9c0.3,0.4,0.8,0.6,1.2,0.9l0.2,0.1c1,0.6,2.2,1.4,2.8,2.7c0.2,0.4,0.3,0.8,0.4,1.2
							C57.2,60.8,57.2,61,57.2,61.2z"/>
					</g>
					<g>
						<path class="st12" d="M49.2,57c0,0-0.1,0-0.1,0c-0.8-0.6-1.3-1.5-1.4-2.5c-0.2-1,0.1-2,0.6-2.8c0.3-0.4,0.5-0.7,0.9-0.8
							c0.1,0,0.2,0,0.3,0.1c0,0.1,0,0.2-0.1,0.3c-0.2,0.1-0.5,0.3-0.7,0.6c-0.5,0.7-0.7,1.7-0.5,2.6c0.1,0.9,0.6,1.7,1.3,2.3
							c0.1,0.1,0.1,0.2,0,0.3C49.3,56.9,49.2,57,49.2,57z"/>
					</g>
					<g>
						<path class="st12" d="M42,65.9C42,65.9,42,65.9,42,65.9c-1.4-0.1-2.7-0.7-3.7-1.6c-0.6-0.6-1-1.3-1.5-1.9
							c-0.7-1-1.3-1.9-2.2-2.5c-0.4-0.3-1-0.4-1.7-0.6c-0.5-0.1-1.1-0.2-1.6,0.1c-0.4,0.2-0.8,0.6-0.7,1.1c0,0.1-0.1,0.2-0.2,0.2
							c-0.1,0-0.2-0.1-0.2-0.2c-0.1-0.7,0.4-1.3,1-1.5c0.6-0.2,1.3-0.2,1.8-0.1c0.7,0.1,1.3,0.3,1.8,0.6c1,0.6,1.7,1.6,2.4,2.6
							c0.4,0.7,0.9,1.3,1.4,1.9c0.9,0.9,2.2,1.4,3.4,1.5c0.1,0,0.2,0.1,0.2,0.2C42.2,65.9,42.1,65.9,42,65.9z"/>
					</g>
					<g>
						<path class="st12" d="M54,80.1c0,0-0.1,0-0.1-0.1c-0.1-0.1-0.1-0.2,0-0.3c0.4-0.4,0.5-1.1,0.3-1.7c-0.2-0.6-0.6-1.1-1-1.6
							c-0.1-0.1-0.1-0.2-0.2-0.2c-0.4-0.4-0.8-0.9-1.1-1.4c-0.5-0.8-0.6-1.8-0.4-2.6c0.3-1,1.1-1.9,2.1-2.2c0.1,0,0.2,0,0.3,0.1
							c0,0.1,0,0.2-0.1,0.3c-0.9,0.3-1.6,1.1-1.8,2c-0.2,0.7-0.1,1.6,0.3,2.3c0.3,0.5,0.6,0.9,1,1.3c0.1,0.1,0.1,0.2,0.2,0.2
							c0.5,0.5,0.9,1.1,1.1,1.8c0.3,0.8,0.1,1.6-0.3,2.1C54.1,80.1,54,80.1,54,80.1z"/>
					</g>
					<g>
						<path class="st12" d="M62.8,68.4c-0.1,0-0.2,0-0.3,0.1c-0.2,0-0.4,0-0.6,0c-1.1,0-2.1-0.3-3-0.9c-1.1-0.7-1.9-1.8-2.2-3
							c0-0.1,0-0.2,0.1-0.3c0.1,0,0.2,0,0.3,0.1c0.3,1.1,1.1,2.1,2.1,2.7c0.1,0.1,0.2,0.1,0.2,0.1c0.1,0.1,0.2,0.1,0.4,0.2
							c0.8,0.4,1.8,0.6,2.7,0.4c0.1,0,0.2,0,0.3-0.1c0,0.1-0.1,0.2-0.1,0.4C62.7,68.4,62.8,68.4,62.8,68.4
							C62.8,68.4,62.8,68.4,62.8,68.4z"/>
					</g>
					<g>
						<path class="st12" d="M55.7,77c-0.1,0-0.1,0-0.2-0.1c-0.1-0.1-0.1-0.2,0-0.3c0.9-0.7,1.5-1.9,1.6-3.2c0.1-1.1-0.1-2.3-0.7-3.5
							c0,0-0.3-0.3-0.2-0.5c0.1-0.1,0.1-0.1,0.2-0.1c0.1,0,0.2,0.1,0.3,0.2c0.6,1.3,0.9,2.6,0.8,3.8c-0.1,1.4-0.8,2.7-1.8,3.5
							C55.8,77,55.8,77,55.7,77z"/>
					</g>
					<g>
						<path class="st12" d="M36.6,44.8c-0.1,0.9-0.3,1.6-0.6,2.3c-0.5,1.1-1.2,2-2,2.5c0,0-0.1,0-0.1,0c-0.1,0-0.1,0-0.2-0.1
							c-0.1-0.1,0-0.2,0.1-0.3c0.8-0.5,1.4-1.4,1.8-2.4c0.3-0.6,0.5-1.3,0.6-2.2C36.4,44.8,36.5,44.8,36.6,44.8z"/>
					</g>
					<g>
						<path class="st12" d="M25.6,65.2C25.6,65.2,25.6,65.2,25.6,65.2c0.1-0.4,0.3-0.7,0.5-1.1c0.5-0.8,1-1.4,1.7-1.8
							c0.3-0.2,0.7-0.4,1-0.4c0.1,0,0.2-0.1,0.2-0.2c0-0.1-0.1-0.2-0.2-0.2c-0.4,0.1-0.8,0.2-1.2,0.5c-0.7,0.4-1.3,1.1-1.8,2
							c-0.1,0.2-0.3,0.5-0.4,0.7L25.6,65.2z"/>
					</g>
					<g>
						<path class="st12" d="M63.6,73.8c-0.1,0.1-0.2,0.2-0.2,0.4c-0.7-0.5-1.3-1.2-1.6-2c-0.2-0.5-0.3-1-0.2-1.4
							c0-0.1,0.1-0.2,0.2-0.2c0.1,0,0.2,0.1,0.2,0.2c-0.1,0.3,0,0.7,0.2,1.2C62.5,72.8,63,73.4,63.6,73.8z"/>
					</g>
				</g>
				<g>
					<path class="st12" d="M44.7,76.6c0,1-0.5,2.2-1.5,3c-0.2,0.1-0.3,0.3-0.5,0.4c-0.1-0.1-0.2-0.1-0.3-0.2c0,0,0,0,0,0
						c0.2-0.1,0.4-0.3,0.6-0.4c0.7-0.6,1.3-1.5,1.3-2.6c0-0.2,0-0.3,0-0.5c0-0.1,0.1-0.2,0.2-0.2c0.1,0,0.2,0.1,0.2,0.2
						C44.7,76.2,44.7,76.4,44.7,76.6z"/>
				</g>
				<g>
					<path class="st12" d="M59.5,67.8c-0.1,0-0.1,0-0.2-0.1c-0.1-0.1-0.1-0.2,0-0.3c0.2-0.2,0.3-0.5,0.3-0.8c0.1-1.4-0.1-2.8-0.8-4
						c-0.1-0.1,0-0.2,0.1-0.3c0.1-0.1,0.2,0,0.3,0.1c0.7,1.3,1,2.8,0.8,4.2c0,0.3-0.1,0.8-0.4,1C59.5,67.8,59.5,67.8,59.5,67.8z"/>
				</g>
				<g>
					<path class="st12" d="M32.7,58c-0.1,0-0.2-0.1-0.2-0.2c0-1,0.2-2,0.7-2.9c0.1-0.2,0.3-0.5,0.6-0.5c0.1,0,0.2,0.1,0.2,0.2
						c0,0.1-0.1,0.2-0.2,0.2c-0.1,0-0.2,0.1-0.3,0.3c-0.4,0.8-0.6,1.8-0.6,2.7C32.9,57.9,32.8,58,32.7,58C32.7,58,32.7,58,32.7,58z"
						/>
				</g>
				<g>
					<path class="st12" d="M43.7,62.8c-0.1,0-0.1,0-0.2-0.1c-0.8-1.3-1.9-2.3-3.2-3.1c-0.1-0.1-0.1-0.2-0.1-0.3
						c0.1-0.1,0.2-0.1,0.3-0.1c1.3,0.8,2.5,1.9,3.3,3.2c0.1,0.1,0,0.2-0.1,0.3C43.7,62.8,43.7,62.8,43.7,62.8z"/>
				</g>
				<g>
					<path class="st12" d="M61.3,77.7C61.3,77.7,61.3,77.7,61.3,77.7c0,0.2-0.1,0.4-0.2,0.6c-0.2-0.3-0.3-0.7-0.3-0.9
						c-0.1-0.7-0.2-1.3-0.1-2c0-0.2,0-0.4,0.1-0.7c0-0.1,0.1-0.2,0.2-0.2c0.1,0,0.2,0.1,0.2,0.2c0,0.2-0.1,0.4-0.1,0.7
						c0,0.6,0,1.2,0.1,1.8C61.3,77.5,61.3,77.6,61.3,77.7z"/>
				</g>
				<path class="st12" d="M44,60.2c-0.4,0-0.7-0.3-0.7-0.6c0-0.4,0.3-0.7,0.6-0.7c0.4,0,0.7,0.3,0.7,0.6
					C44.6,59.9,44.4,60.2,44,60.2z"/>
				<path class="st12" d="M44.6,69.8c-0.4,0-0.7-0.3-0.7-0.6c0-0.4,0.3-0.7,0.6-0.7c0.4,0,0.7,0.3,0.7,0.6
					C45.2,69.4,44.9,69.7,44.6,69.8z"/>
				
					<ellipse transform="matrix(0.6735 -0.7392 0.7392 0.6735 -41.9372 50.2776)" class="st12" cx="35.9" cy="72.6" rx="0.7" ry="0.7"/>
				<path class="st12" d="M29.2,64.1c-0.4,0-0.7-0.3-0.7-0.6c0-0.4,0.3-0.7,0.6-0.7c0.4,0,0.7,0.3,0.7,0.6
					C29.8,63.7,29.5,64,29.2,64.1z"/>
				<path class="st12" d="M30,58.7c-0.4,0-0.7-0.3-0.7-0.6c0-0.4,0.3-0.7,0.6-0.7c0.4,0,0.7,0.3,0.7,0.6
					C30.7,58.4,30.4,58.7,30,58.7z"/>
				
					<ellipse transform="matrix(0.6735 -0.7392 0.7392 0.6735 -34.8534 52.5304)" class="st12" cx="42" cy="65.7" rx="0.7" ry="0.7"/>
				<path class="st12" d="M44.3,48.3c-0.4,0-0.7-0.3-0.7-0.6c0-0.4,0.3-0.7,0.6-0.7c0.4,0,0.7,0.3,0.7,0.6
					C45,47.9,44.7,48.3,44.3,48.3z"/>
				<path class="st12" d="M57,61.9c-0.4,0-0.7-0.3-0.7-0.6s0.3-0.7,0.6-0.7c0.4,0,0.7,0.3,0.7,0.6C57.7,61.6,57.4,61.9,57,61.9z"/>
				<path class="st12" d="M53.9,80.6c-0.4,0-0.7-0.3-0.7-0.6c0-0.4,0.3-0.7,0.6-0.7c0.4,0,0.7,0.3,0.7,0.6
					C54.6,80.2,54.3,80.5,53.9,80.6z"/>
				
					<ellipse transform="matrix(0.6735 -0.7392 0.7392 0.6735 -41.6753 57.6191)" class="st12" cx="44.4" cy="76" rx="0.7" ry="0.7"/>
				<path class="st12" d="M59.3,70.7c-0.4,0-0.7-0.3-0.7-0.6c0-0.4,0.3-0.7,0.6-0.7c0.4,0,0.7,0.3,0.7,0.6
					C60,70.3,59.7,70.6,59.3,70.7z"/>
				<path class="st12" d="M61,75.5c-0.4,0-0.7-0.3-0.7-0.6c0-0.4,0.3-0.7,0.6-0.7c0.4,0,0.7,0.3,0.7,0.6
					C61.7,75.2,61.4,75.5,61,75.5z"/>
				<path class="st12" d="M29.9,52.7c-0.4,0-0.7-0.3-0.7-0.6s0.3-0.7,0.6-0.7s0.7,0.3,0.7,0.6C30.6,52.3,30.3,52.6,29.9,52.7z"/>
			</g>
		</g>
		<path class="st0" d="M34,100.2c0-0.7-0.5-1-1.2-0.7c-0.6,0.4-1.2,1.3-1.2,2c0,0.7,0.5,1,1.2,0.7C33.4,101.9,34,101,34,100.2z"/>
		<path class="st0" d="M51,95.1c0-0.7-0.5-1-1.2-0.7c-0.6,0.4-1.2,1.3-1.2,2s0.5,1,1.2,0.7C50.5,96.7,51,95.8,51,95.1z"/>
		<path class="st0" d="M69.3,79.9c0-0.7-0.5-1-1.2-0.7c-0.6,0.4-1.2,1.3-1.2,2c0,0.7,0.5,1,1.2,0.7C68.8,81.5,69.3,80.6,69.3,79.9z"
			/>
	</g>
</g>
</svg>
