<?xml version="1.0" encoding="utf-8"?>
<!-- Generator: Adobe Illustrator 25.4.1, SVG Export Plug-In . SVG Version: 6.00 Build 0)  -->
<svg version="1.1" id="Layer_1" xmlns="http://www.w3.org/2000/svg" xmlns:xlink="http://www.w3.org/1999/xlink" x="0px" y="0px"
	 viewBox="0 0 115.2 116.8" style="enable-background:new 0 0 115.2 116.8;" xml:space="preserve">
<style type="text/css">
	.st0{opacity:0.3;fill:#D9CDC1;}
	.st1{enable-background:new    ;}
	.st2{fill:#817AC4;}
	.st3{fill:#C9C9EC;}
	.st4{fill:#F1F1F9;}
	.st5{fill:#1F0159;}
	.st6{fill:#4C1F8C;}
	.st7{opacity:0.5;}
	.st8{fill:#FFC400;}
	.st9{fill:#FF445F;}
	.st10{fill:#FFFFFF;}
	.st11{opacity:0.4;}
	.st12{fill:#E8E9FC;}
	.st13{fill:#7350BA;}
	.st14{clip-path:url(#SVGID_00000178925675697302444590000011885538076303479198_);enable-background:new    ;}
	.st15{clip-path:url(#SVGID_00000079447546482431265110000003690842908537271441_);enable-background:new    ;}
	.st16{clip-path:url(#SVGID_00000070120484783608937710000004579660205291283877_);enable-background:new    ;}
	.st17{clip-path:url(#SVGID_00000033352606998774584890000018034340858594361018_);enable-background:new    ;}
	.st18{fill:#DDDEFA;}
	.st19{fill:url(#SVGID_00000173127186770636322830000004551283265741430456_);}
	.st20{fill:url(#SVGID_00000170960025112752670130000014692487919726168762_);}
	.st21{fill:url(#SVGID_00000052791103493051757150000009207226489505448085_);}
	.st22{fill:url(#SVGID_00000138538438761119241940000003429585982134093484_);}
	.st23{clip-path:url(#SVGID_00000114766044524524463860000001113405734670235778_);enable-background:new    ;}
	.st24{clip-path:url(#SVGID_00000167354617498590902530000012521682459104272815_);enable-background:new    ;}
	.st25{clip-path:url(#SVGID_00000114779209786365654520000013487353586735989128_);}
	.st26{clip-path:url(#SVGID_00000160903938747566805730000010342211442789427344_);enable-background:new    ;}
	.st27{clip-path:url(#SVGID_00000142873163683750859060000006162317961271286432_);enable-background:new    ;}
	.st28{clip-path:url(#SVGID_00000131362387692375983300000014497949579350377123_);enable-background:new    ;}
	.st29{clip-path:url(#SVGID_00000036235228234256125980000017139521697004676522_);enable-background:new    ;}
	.st30{clip-path:url(#SVGID_00000044861616540898027990000017397556453666256779_);enable-background:new    ;}
	.st31{clip-path:url(#SVGID_00000139973141629595337170000011678732683526638513_);enable-background:new    ;}
</style>
<g>
	<polygon class="st0" points="69.4,105.4 78.9,105.4 115.2,84.4 36,38.6 60.5,78.1 	"/>
	<path class="st0" d="M32.1,109.1l-9.8,5.7c-4.6,2.7-12.2,2.7-16.8,0l0,0c-4.6-2.7-4.6-7,0-9.7l9.8-5.7c4.6-2.7,12.2-2.7,16.8,0l0,0
		C36.7,102.1,36.7,106.4,32.1,109.1z"/>
	<g>
		<g class="st1">
			<g>
				<polygon class="st2" points="71.9,83 71.8,104 69.4,105.4 69.4,84.5 				"/>
			</g>
			<g>
				<polygon class="st3" points="69.4,84.5 69.4,105.4 8.2,70.1 8.2,49.1 				"/>
			</g>
			<g>
				<polygon class="st4" points="71.9,83 69.4,84.5 8.2,49.1 10.6,47.7 				"/>
			</g>
		</g>
	</g>
	<g>
		<g class="st1">
			<g>
				<polygon class="st5" points="70.6,34 70.5,82.6 68.6,83.7 68.7,35.1 				"/>
			</g>
			<g>
				<polygon class="st6" points="68.7,35.1 68.6,83.7 9.7,49.7 9.8,1.1 				"/>
			</g>
			<g class="st7">
				<polygon class="st6" points="70.6,34 68.7,35.1 9.8,1.1 11.7,0 				"/>
			</g>
		</g>
	</g>
	<g>
		<g>
			<path class="st4" d="M62.3,42.2l0.5,1.6c-0.5,0-1.1-0.2-1.7-0.5v-1.4C61.6,42,62,42.1,62.3,42.2z"/>
			<path class="st8" d="M57.4,34.6l1.1,1.2c-0.1,0.3-0.2,0.7-0.2,1.1c0,0.8,0.3,1.7,0.7,2.5l-0.9,0.4c-0.6-1.2-1-2.5-1-3.6
				C57.1,35.6,57.2,35.1,57.4,34.6z"/>
			<path class="st4" d="M61.1,41.8v1.4c-1.2-0.7-2.3-2-3-3.4l0.9-0.4C59.5,40.4,60.3,41.3,61.1,41.8z"/>
			<path class="st4" d="M63.7,41.3l1.1,1.2c-0.4,0.9-1.1,1.3-2,1.3l-0.5-1.6C62.9,42.2,63.4,41.9,63.7,41.3z"/>
			<path class="st8" d="M58.5,35.8l-1.1-1.2c0.4-0.9,1.1-1.3,2-1.3l0.5,1.6C59.3,34.9,58.8,35.3,58.5,35.8z"/>
			<path class="st8" d="M59.9,34.9l-0.5-1.6c0.5,0,1.1,0.2,1.7,0.5v1.4C60.7,35.1,60.3,35,59.9,34.9z"/>
			<path class="st4" d="M63.9,40.2c0-0.8-0.3-1.7-0.7-2.5l0.9-0.4c0.6,1.2,1,2.5,1,3.6c0,0.6-0.1,1.2-0.3,1.6l-1.1-1.2
				C63.8,41,63.9,40.6,63.9,40.2z"/>
			<path class="st8" d="M61.1,35.3v-1.4c1.2,0.7,2.3,2,3,3.4l-0.9,0.4C62.7,36.7,62,35.8,61.1,35.3z"/>
		</g>
		<g>
			<g>
				<path class="st4" d="M16.2,36.4l0.4,1.2c-0.4,0-0.9-0.1-1.3-0.4v-1.1C15.6,36.3,16,36.4,16.2,36.4z"/>
				<path class="st8" d="M12.4,30.6l0.9,0.9c-0.1,0.2-0.2,0.5-0.2,0.9c0,0.6,0.2,1.3,0.5,1.9l-0.7,0.3c-0.5-0.9-0.8-1.9-0.8-2.8
					C12.2,31.3,12.3,30.9,12.4,30.6z"/>
				<path class="st4" d="M15.3,36.1v1.1c-0.9-0.5-1.8-1.5-2.4-2.6l0.7-0.3C14.1,35,14.7,35.7,15.3,36.1z"/>
				<path class="st4" d="M17.3,35.7l0.9,0.9c-0.3,0.7-0.9,1-1.6,1l-0.4-1.2C16.7,36.4,17.1,36.1,17.3,35.7z"/>
				<path class="st8" d="M13.3,31.5l-0.9-0.9c0.3-0.7,0.9-1,1.6-1l0.4,1.2C13.9,30.8,13.5,31,13.3,31.5z"/>
				<path class="st8" d="M14.4,30.8L14,29.6c0.4,0,0.9,0.1,1.3,0.4v1.1C15,30.9,14.7,30.8,14.4,30.8z"/>
				<path class="st4" d="M17.5,34.8c0-0.6-0.2-1.3-0.5-1.9l0.7-0.3c0.5,0.9,0.8,1.9,0.8,2.8c0,0.5-0.1,0.9-0.2,1.2l-0.9-0.9
					C17.4,35.5,17.5,35.2,17.5,34.8z"/>
				<path class="st8" d="M15.3,31.1V30c0.9,0.5,1.8,1.5,2.4,2.6l-0.7,0.3C16.5,32.1,16,31.5,15.3,31.1z"/>
			</g>
			<g>
				<polygon class="st4" points="12.5,23.5 11.4,22.9 11.4,21.6 12.5,22.3 				"/>
				<polygon class="st4" points="12.5,25.3 11.4,24.6 11.4,23.4 12.5,24 				"/>
				<polygon class="st4" points="12.5,27 11.4,26.4 11.4,25.1 12.5,25.8 				"/>
				<polygon class="st4" points="20.1,27.9 13,23.8 13,22.6 20.1,26.6 				"/>
				<polygon class="st4" points="20.1,29.7 13,25.6 13,24.3 20.1,28.4 				"/>
				<polygon class="st4" points="20.1,31.4 13,27.3 13,26.1 20.1,30.1 				"/>
			</g>
		</g>
		<g>
			<g>
				<path class="st9" d="M48.8,66.9l-1.8,2.5c-1.7-2.1-2.3-4.9-1.3-6.3c0.6-0.9,1.8-1,3.1-0.3L48.8,66.9z"/>
			</g>
			<g>
				<path class="st8" d="M48.8,66.9l1.8,4.5c-1.1,0.1-2.4-0.6-3.5-2L48.8,66.9z"/>
			</g>
			<g>
				<path class="st4" d="M48.8,66.9l1.8-2.5c1.7,2.1,2.3,4.9,1.3,6.3c-0.3,0.5-0.7,0.7-1.3,0.7L48.8,66.9z"/>
			</g>
			<g>
				<path class="st4" d="M48.8,66.9l0-4.1c0.6,0.4,1.2,0.9,1.8,1.6L48.8,66.9z"/>
			</g>
		</g>
		<g>
			<g>
				<polygon class="st8" points="52.1,38.2 53.4,39 53.4,33.5 52.1,32.7 				"/>
				<polygon class="st4" points="50.1,37 51.4,37.8 51.4,28.8 50.1,28 				"/>
				<polygon class="st4" points="46,34.7 47.4,35.5 47.4,27.6 46,26.9 				"/>
				<polygon class="st9" points="48,35.8 49.4,36.6 49.4,30.1 48,29.3 				"/>
			</g>
			<g>
				<polygon class="st4" points="53.4,40.3 45.9,36 45.9,35.3 53.4,39.6 				"/>
				<polygon class="st4" points="53.4,41.5 45.9,37.2 45.9,36.6 53.4,40.9 				"/>
				<polygon class="st4" points="53.4,42.7 45.9,38.4 45.9,37.8 53.4,42.1 				"/>
			</g>
		</g>
		<polygon class="st4" points="66.8,70.9 54,63.5 54,61.3 66.8,68.7 		"/>
		<polygon class="st4" points="21.1,41.5 10.6,35.4 10.6,36.7 21.1,42.8 		"/>
		<polygon class="st4" points="21.1,43.8 10.6,37.7 10.6,39 21.1,45 		"/>
		<polygon class="st4" points="66.8,74.2 54,66.9 54,64.7 66.8,72 		"/>
		<polygon class="st4" points="66.8,77.6 54,70.3 54,68.1 66.8,75.4 		"/>
		<polygon class="st4" points="66.8,81.3 54,73.9 54,71.7 66.8,79.1 		"/>
		<g>
			<polygon class="st4" points="44.3,64.6 22.1,51.8 22.1,51 44.3,63.7 			"/>
			<polygon class="st4" points="44.3,66.2 22.1,53.5 22.1,52.6 44.3,65.4 			"/>
			<polygon class="st4" points="44.3,67.9 22.1,55.1 22.1,54.2 44.3,67 			"/>
		</g>
		<g>
			<g>
				<polygon class="st4" points="31.3,22.1 24.5,18.1 24.5,17.4 31.3,21.4 				"/>
				<path class="st4" d="M24.2,17.3c0-0.3-0.2-0.7-0.5-0.9s-0.5,0-0.5,0.3s0.2,0.7,0.5,0.9S24.2,17.7,24.2,17.3z"/>
				<path class="st4" d="M24.2,21.6c0-0.3-0.2-0.7-0.5-0.9c-0.3-0.2-0.5,0-0.5,0.3c0,0.3,0.2,0.7,0.5,0.9
					C23.9,22,24.2,21.9,24.2,21.6z"/>
				<polygon class="st4" points="26.2,16.5 30,18.6 30,17.9 26.2,15.8 				"/>
				<polygon class="st4" points="23.2,15.8 30,19.7 30,19 23.2,15.2 				"/>
				<path class="st4" d="M30.3,18.3c0-0.3,0.2-0.5,0.5-0.3c0.3,0.2,0.5,0.5,0.5,0.9c0,0.3-0.2,0.5-0.5,0.3
					C30.6,19,30.3,18.6,30.3,18.3z"/>
				<polygon class="st4" points="26.2,20.6 30,22.8 30,22.1 26.2,19.9 				"/>
				<polygon class="st4" points="23.2,20 30,23.9 30,23.2 23.2,19.3 				"/>
				<polygon class="st4" points="28.3,24.6 24.5,22.5 24.5,21.8 28.3,23.9 				"/>
				<polygon class="st4" points="31.3,27.5 24.5,23.6 24.5,22.9 31.3,26.8 				"/>
				<polygon class="st4" points="31.3,28.6 24.5,24.7 24.5,24 31.3,27.9 				"/>
				<path class="st4" d="M30.3,22.4c0-0.3,0.2-0.5,0.5-0.3c0.3,0.2,0.5,0.5,0.5,0.9c0,0.3-0.2,0.5-0.5,0.3
					C30.6,23.1,30.3,22.7,30.3,22.4z"/>
				<polygon class="st4" points="26.2,27.1 30,29.3 30,28.6 26.2,26.4 				"/>
				<path class="st4" d="M30.3,28.9c0-0.3,0.2-0.5,0.5-0.3c0.3,0.2,0.5,0.5,0.5,0.9c0,0.3-0.2,0.5-0.5,0.3S30.3,29.2,30.3,28.9z"/>
			</g>
		</g>
		<g>
			<g>
				<polygon class="st9" points="12,19 13.3,19.7 13.3,13.9 12,13.1 				"/>
				<polygon class="st8" points="16.1,21.3 17.5,22.1 17.5,12.9 16.1,12.1 				"/>
				<polygon class="st4" points="18.1,22.5 19.5,23.3 19.5,15.4 18.1,14.6 				"/>
				<polygon class="st4" points="14,20.1 15.4,20.9 15.4,13.4 14,12.6 				"/>
			</g>
			<polygon class="st4" points="13.1,8.9 18.8,12.2 18.8,11.1 13.1,7.9 			"/>
		</g>
		<g>
			<path class="st9" d="M63.7,57.6c-0.6,0.6-1.5,0.6-2.6,0v-3.7L63.7,57.6z"/>
			<path class="st8" d="M61.1,53.9l3,0.3c0.2,0.5,0.2,1,0.2,1.5c0,0.8-0.2,1.5-0.6,1.8L61.1,53.9L61.1,53.9z"/>
			<path class="st4" d="M58.6,50.2l2.6,3.7l-3-0.3c-0.2-0.5-0.2-1-0.2-1.5C57.9,51.2,58.2,50.6,58.6,50.2z"/>
			<polygon class="st3" points="61.1,53.9 61.1,53.9 61.1,53.9 			"/>
			<path class="st4" d="M61.1,53.9l-2.6-3.7c0.6-0.6,1.5-0.6,2.6,0L61.1,53.9L61.1,53.9z"/>
			<path class="st8" d="M61.1,50.2c1.3,0.8,2.5,2.4,3,4l-3-0.3L61.1,50.2z"/>
			<path class="st9" d="M61.1,53.9v3.7c-1.3-0.8-2.5-2.4-3-4L61.1,53.9L61.1,53.9z"/>
		</g>
		<g>
			<polygon class="st4" points="57.6,57.2 66.2,62.2 66.2,63 57.6,58.1 			"/>
			<polygon class="st4" points="56.8,56.8 56.8,57.7 56.1,57.2 56.1,56.3 			"/>
			<polygon class="st4" points="57.6,58.9 66.2,63.8 66.2,64.7 57.6,59.8 			"/>
			<polygon class="st4" points="56.8,58.4 56.8,59.3 56.1,58.9 56.1,58 			"/>
			<polygon class="st4" points="57.6,60.5 66.2,65.5 66.2,66.4 57.6,61.4 			"/>
			<polygon class="st4" points="56.8,60.1 56.8,61 56.1,60.6 56.1,59.7 			"/>
		</g>
		<g>
			<polygon class="st4" points="57.6,42.6 66.2,47.6 66.2,48.4 57.6,43.5 			"/>
			<polygon class="st4" points="56.8,42.2 56.8,43.1 56.1,42.6 56.1,41.8 			"/>
			<polygon class="st4" points="57.6,44.3 66.2,49.2 66.2,50.1 57.6,45.2 			"/>
			<polygon class="st4" points="56.8,43.9 56.8,44.7 56.1,44.3 56.1,43.4 			"/>
			<polygon class="st4" points="57.6,45.9 66.2,50.9 66.2,51.8 57.6,46.8 			"/>
			<polygon class="st4" points="56.8,45.5 56.8,46.4 56.1,46 56.1,45.1 			"/>
		</g>
		<g>
			<g>
				<polygon class="st4" points="52.4,48.1 53.2,48.5 53.2,45.6 52.4,45.2 				"/>
				<polygon class="st4" points="51.4,47.5 52.1,47.9 52.1,46.1 51.4,45.7 				"/>
				<polygon class="st4" points="47,44.9 47.7,45.4 47.7,43.6 47,43.2 				"/>
				<polygon class="st4" points="49.2,46.2 49.9,46.6 49.9,46 49.2,45.6 				"/>
				<polygon class="st4" points="45.9,44.3 46.7,44.7 46.7,43.3 45.9,42.9 				"/>
				<polygon class="st4" points="50.3,46.8 51,47.2 51,44.9 50.3,44.5 				"/>
				<polygon class="st4" points="48.1,45.6 48.8,46 48.8,42.9 48.1,42.5 				"/>
			</g>
			<g>
				<polygon class="st8" points="52.4,52.4 53.2,52.9 53.2,51.3 52.4,50.8 				"/>
				<polygon class="st8" points="51.4,51.8 52.1,52.2 52.1,51.7 51.4,51.3 				"/>
				<polygon class="st8" points="47,49.3 47.7,49.7 47.7,47.1 47,46.7 				"/>
				<polygon class="st8" points="49.2,50.6 49.9,51 49.9,49.8 49.2,49.4 				"/>
				<polygon class="st8" points="45.9,48.7 46.7,49.1 46.7,48.1 45.9,47.7 				"/>
				<polygon class="st8" points="50.3,51.2 51,51.6 51,48.5 50.3,48.1 				"/>
				<polygon class="st8" points="48.1,49.9 48.8,50.4 48.8,48.4 48.1,48 				"/>
			</g>
			<g>
				<polygon class="st9" points="52.4,56.7 53.2,57.1 53.2,56 52.4,55.5 				"/>
				<polygon class="st9" points="51.4,56.1 52.1,56.5 52.1,53.4 51.4,53 				"/>
				<polygon class="st9" points="47,53.6 47.7,54 47.7,53.4 47,52.9 				"/>
				<polygon class="st9" points="49.2,54.8 49.9,55.3 49.9,52.8 49.2,52.4 				"/>
				<polygon class="st9" points="45.9,53 46.7,53.4 46.7,51.9 45.9,51.5 				"/>
				<polygon class="st9" points="50.3,55.5 51,55.9 51,54.1 50.3,53.7 				"/>
				<polygon class="st9" points="48.1,54.2 48.8,54.6 48.8,53.1 48.1,52.7 				"/>
			</g>
		</g>
		<polygon class="st4" points="44.8,31.8 32.6,24.8 32.6,30.7 44.8,37.7 		"/>
		<polygon class="st4" points="39.8,23.1 32.6,19 32.6,24.1 39.8,28.2 		"/>
		<polygon class="st4" points="52.8,58.6 45.6,54.5 45.6,59.6 52.8,63.7 		"/>
		<polygon class="st4" points="40.5,23.5 40.5,28.6 44.8,31.1 44.8,26 		"/>
		<g>
			<g>
				<g>
					<path class="st10" d="M44.3,62.5L44.3,62.5L22.2,49.7l0-22.3l0.1,0.1l22,12.7L44.3,62.5z M22.4,49.7l21.8,12.6l0-22L22.4,27.6
						L22.4,49.7z"/>
				</g>
				<g>
					<rect x="33.2" y="41.8" transform="matrix(0.5 -0.866 0.866 0.5 -30.5117 56.0545)" class="st10" width="0.1" height="25.4"/>
				</g>
				<g>
					<rect x="33.2" y="40.2" transform="matrix(0.5 -0.866 0.866 0.5 -29.1395 55.2622)" class="st10" width="0.1" height="25.4"/>
				</g>
				<g>
					<rect x="33.2" y="38.6" transform="matrix(0.5 -0.866 0.866 0.5 -27.7672 54.4701)" class="st10" width="0.1" height="25.4"/>
				</g>
				<g>
					<rect x="33.2" y="37" transform="matrix(0.5 -0.866 0.866 0.5 -26.3949 53.6774)" class="st10" width="0.1" height="25.4"/>
				</g>
				<g>
					<rect x="33.2" y="35.4" transform="matrix(0.5 -0.866 0.866 0.5 -25.0225 52.8854)" class="st10" width="0.1" height="25.4"/>
				</g>
				<g>
					<rect x="33.2" y="33.9" transform="matrix(0.5 -0.866 0.866 0.5 -23.6502 52.0932)" class="st10" width="0.1" height="25.4"/>
				</g>
				<g>
					<rect x="33.2" y="32.3" transform="matrix(0.5 -0.866 0.866 0.5 -22.2779 51.3007)" class="st10" width="0.1" height="25.4"/>
				</g>
				<g>
					<rect x="33.2" y="30.7" transform="matrix(0.5 -0.866 0.866 0.5 -20.9055 50.5086)" class="st10" width="0.1" height="25.4"/>
				</g>
				<g>
					<rect x="33.2" y="29.1" transform="matrix(0.5 -0.866 0.866 0.5 -19.5333 49.7161)" class="st10" width="0.1" height="25.4"/>
				</g>
				<g>
					<rect x="33.2" y="27.5" transform="matrix(0.5 -0.866 0.866 0.5 -18.161 48.9238)" class="st10" width="0.1" height="25.4"/>
				</g>
				<g>
					<rect x="33.2" y="25.9" transform="matrix(0.5 -0.866 0.866 0.5 -16.7886 48.1316)" class="st10" width="0.1" height="25.4"/>
				</g>
				<g>
					<rect x="33.2" y="24.3" transform="matrix(0.5 -0.866 0.866 0.5 -15.4163 47.3393)" class="st10" width="0.1" height="25.4"/>
				</g>
				<g>
					<rect x="33.2" y="22.8" transform="matrix(0.5 -0.866 0.866 0.5 -14.044 46.5471)" class="st10" width="0.1" height="25.4"/>
				</g>
				<g>
					<rect x="33.2" y="21.2" transform="matrix(0.5 -0.866 0.866 0.5 -12.6717 45.7545)" class="st10" width="0.1" height="25.4"/>
				</g>
				<g>
					<rect x="42.8" y="39.4" class="st10" width="0.1" height="22.2"/>
				</g>
				<g>
					<rect x="41.5" y="38.6" class="st10" width="0.1" height="22.2"/>
				</g>
				<g>
					<rect x="40.1" y="37.8" class="st10" width="0.1" height="22.2"/>
				</g>
				<g>
					<rect x="38.7" y="37" class="st10" width="0.1" height="22.2"/>
				</g>
				<g>
					<rect x="37.3" y="36.2" class="st10" width="0.1" height="22.2"/>
				</g>
				<g>
					<rect x="36" y="35.4" class="st10" width="0.1" height="22.2"/>
				</g>
				<g>
					<rect x="34.6" y="34.6" class="st10" width="0.1" height="22.2"/>
				</g>
				<g>
					<rect x="33.2" y="33.9" class="st10" width="0.1" height="22.2"/>
				</g>
				<g>
					<rect x="31.9" y="33.1" class="st10" width="0.1" height="22.2"/>
				</g>
				<g>
					<rect x="30.5" y="32.3" class="st10" width="0.1" height="22.2"/>
				</g>
				<g>
					<rect x="29.1" y="31.5" class="st10" width="0.1" height="22.2"/>
				</g>
				<g>
					<rect x="27.7" y="30.7" class="st10" width="0.1" height="22.2"/>
				</g>
				<g>
					<rect x="26.4" y="29.9" class="st10" width="0.1" height="22.2"/>
				</g>
				<g>
					<rect x="25" y="29.1" class="st10" width="0.1" height="22.2"/>
				</g>
				<g>
					<rect x="23.6" y="28.3" class="st10" width="0.1" height="22.2"/>
				</g>
			</g>
			<polygon class="st9" points="22.3,49.7 22.3,34.5 24.7,36.4 25.1,39.3 27,38.1 29.7,39.6 31.5,38.9 33.8,39.4 35.5,41.4 
				37.2,40.5 39.5,42.5 41.9,40.3 44.3,41 44.3,62.4 			"/>
			<path class="st4" d="M44.3,43.5v5.2l0,13.6l-22-12.7c0-1.8,0-3.4,0-3.4c0-0.9,0-1.6,0-1.6c0-1.9,0-3.6,0-3.6l1,2.1l2.1,2.7
				l3.1,0.1l2.2-1.5l3.1,1.8l1.9-2.2l1.9,3.4l2.9-0.5l1.9-1.4L44.3,43.5z"/>
			<path class="st8" d="M44.3,48.7l0,13.6l-22-12.7c0-1.8,0-3.4,0-3.4l1.3,0.3l1.2,1.5l1.6,2.3l4.6,0.5l2.2-2.3l1.9,0.5l3,2l2.5-0.3
				l2-2L44.3,48.7z"/>
		</g>
		<g>
			<g>
				<g class="st11">
					<g>
						<path class="st10" d="M21.4,54.6L21.4,54.6l-11-6.4v-7.4l0,0l11,6.4L21.4,54.6z M10.4,48.2l11,6.4l0-7.3l-11-6.4V48.2z"/>
					</g>
					<g>
						<polygon class="st10" points="21.4,48.4 10.4,42.1 10.4,42.1 21.4,48.4 						"/>
					</g>
					<g>
						<polygon class="st10" points="21.4,49.7 10.4,43.3 10.4,43.3 21.4,49.7 						"/>
					</g>
					<g>
						<polygon class="st10" points="21.4,50.9 10.4,44.5 10.4,44.5 21.4,50.9 						"/>
					</g>
					<g>
						<polygon class="st10" points="21.4,52.1 10.4,45.7 10.4,45.7 21.4,52.1 						"/>
					</g>
					<g>
						<polygon class="st10" points="21.4,53.3 10.4,47 10.4,47 21.4,53.3 						"/>
					</g>
					<g>
						<rect x="11.5" y="41.5" class="st10" width="0" height="7.4"/>
					</g>
					<g>
						<rect x="12.6" y="42.1" class="st10" width="0" height="7.4"/>
					</g>
					<g>
						<rect x="13.7" y="42.7" class="st10" width="0" height="7.4"/>
					</g>
					<g>
						<rect x="14.8" y="43.4" class="st10" width="0" height="7.4"/>
					</g>
					<g>
						<rect x="15.9" y="44" class="st10" width="0" height="7.4"/>
					</g>
					<g>
						<rect x="17" y="44.7" class="st10" width="0" height="7.4"/>
					</g>
					<g>
						<rect x="18.1" y="45.3" class="st10" width="0" height="7.4"/>
					</g>
					<g>
						<rect x="19.2" y="45.9" class="st10" width="0" height="7.4"/>
					</g>
					<g>
						<rect x="20.3" y="46.6" class="st10" width="0" height="7.4"/>
					</g>
				</g>
				<polygon class="st10" points="20.3,53.9 21.4,54.6 21.4,51.2 20.3,50.5 				"/>
				<polygon class="st10" points="18.6,53 19.8,53.6 19.8,52.6 18.6,51.9 				"/>
				<polygon class="st10" points="12,49.1 13.1,49.8 13.1,44.3 12,43.6 				"/>
				<polygon class="st10" points="15.3,51.1 16.4,51.7 16.4,49.2 15.3,48.6 				"/>
				<polygon class="st10" points="10.4,48.2 11.5,48.8 11.5,46.7 10.4,46.1 				"/>
				<polygon class="st10" points="17,52 18.1,52.7 18.1,46.2 17,45.5 				"/>
				<polygon class="st10" points="13.7,50.1 14.8,50.7 14.8,46.6 13.7,45.9 				"/>
			</g>
		</g>
	</g>
	<g>
		<g>
			<g>
				<path class="st12" d="M3.8,72.8c-0.6,0-1.3,0.3-1.9,0.1c-0.1,0-0.2-0.1-0.3-0.1c-0.3,0-0.3,0.4-0.4,0.7C1.1,73.8,1,74.2,1,74.5
					c0,0.8,0,1.6,0.2,2.4c0.1,0.2,0.2,0.4,0.3,0.4c0.1,0,0.2-0.1,0.4-0.1c0.2,0,0.2,0.4,0.3,0.6c0.2,0.3,0.8,0.3,0.9-0.1
					c0.1,0.3,0.2,0.6,0.5,0.7c0.3,0.1,0.7,0,0.7-0.3c0,0.3,0.3,0.6,0.7,0.6c0.3,0,0.6-0.4,0.6-0.7c0-0.3-0.2-0.5-0.3-0.7
					c-0.4-0.9,0.2-1.9,0.1-2.9c0-0.4-0.2-0.8-0.5-1.2C4.8,73.1,4.2,72.8,3.8,72.8C3.8,72.8,3.8,72.8,3.8,72.8z"/>
				<path class="st12" d="M4.9,73.4c0.8,0.7,1.5,2,1.6,3c0,0.2,0,0.3-0.1,0.5c-0.1,0.1-0.2,0.3-0.4,0.3c-0.2,0-0.3-0.1-0.4-0.3
					c-0.1-0.1-0.1-0.3-0.1-0.5c0,0,0-0.1,0-0.1c-0.4-0.5-0.9-0.9-1.3-1.4L4.9,73.4z"/>
			</g>
			<path class="st6" d="M4.3,71.5c0,0.4,0,0.7,0,1c0,0.9-0.6,1.1-1.3,1.2c-0.7,0-1.3-0.1-1.6-1.3c-0.1-0.3-0.1-0.6-0.2-0.8
				C2,72.2,3.3,72,4.3,71.5z"/>
			<path class="st13" d="M0.5,64.6C0.1,63.8,1,56,1,55.6c0-0.1,0.1-1.7,0.3-1.7l4.6,0c0,0.7-0.2,1.4-0.2,2c-0.1,1-1.1,9.2-1.5,10.1
				C3,68.2,1.2,65.9,0.5,64.6z"/>
			<path class="st3" d="M4.6,48.1c-1.7-0.2-3.4,1.7-3.7,2.8c-0.4,1.6-0.5,3.4-0.3,5.1c0,0.4,0.1,0.9,0.3,1.2
				c0.2,0.3,0.4,0.6,0.7,0.8c0.6,0.6,1.4,1.1,2.2,1c0.3,0,0.5-0.1,0.8-0.2c0.3-0.1,0.7-0.3,0.9-0.5c0.4-0.4,0.5-1.1,0.5-1.7
				c0.1-1.5,0.2-3,0-4.6C5.9,50.5,6.7,48.4,4.6,48.1z"/>
			<path class="st3" d="M1.2,71.9c0.2,0.9,0.9,0.9,1.6,0.9c0.7-0.1,1.4-0.2,1.5-1.5c0.2-2.6,0.2-3.6,0.4-5.8c0-0.5,0.2-1.5-0.1-2
				c0,0,0-0.1-0.1-0.1c-0.2-0.2-0.6-0.1-0.8,0c-1.5,0.2-2.1-1.7-3.4-1.6C-0.1,61.8,0,63.4,0,63.8c0,0.5,0.1,1,0.1,1.6
				c0.1,0.6,0.1,1.2,0.2,1.7c0.1,0.6,0.2,1.2,0.3,1.7c0.1,0.5,0.2,1.1,0.3,1.6C1,71,1.1,71.4,1.2,71.9z"/>
		</g>
		<g>
			<g>
				<g>
					<defs>
						<path id="SVGID_1_" d="M13.3,90.7L13,90.5c-0.3-0.1-0.6-0.1-1,0.1l0.3,0.2C12.7,90.6,13.1,90.5,13.3,90.7z"/>
					</defs>
					<use xlink:href="#SVGID_1_"  style="overflow:visible;fill:#4C1F8C;"/>
					<clipPath id="SVGID_00000053541865786730297280000001027893235073387437_">
						<use xlink:href="#SVGID_1_"  style="overflow:visible;"/>
					</clipPath>
					<g style="clip-path:url(#SVGID_00000053541865786730297280000001027893235073387437_);enable-background:new    ;">
						<path class="st6" d="M13.3,90.7L13,90.5c-0.1-0.1-0.3-0.1-0.4-0.1l0.3,0.2C13.1,90.6,13.2,90.6,13.3,90.7L13.3,90.7z"/>
						<path class="st6" d="M12.9,90.6l-0.3-0.2c-0.1,0-0.2,0-0.3,0.1l0.3,0.2C12.7,90.6,12.8,90.6,12.9,90.6L12.9,90.6z"/>
						<path class="st6" d="M12.6,90.7l-0.3-0.2c-0.1,0-0.2,0.1-0.3,0.1l0.3,0.2C12.5,90.8,12.6,90.7,12.6,90.7L12.6,90.7z"/>
					</g>
				</g>
				<g>
					<defs>
						<path id="SVGID_00000034049772606003170990000006286737575762288007_" d="M11.2,93.9l0.3,0.2c-0.3-0.1-0.4-0.4-0.4-0.9
							c0-0.9,0.5-1.9,1.3-2.4L12,90.6c-0.7,0.5-1.3,1.5-1.3,2.4C10.8,93.5,10.9,93.8,11.2,93.9z"/>
					</defs>
					<use xlink:href="#SVGID_00000034049772606003170990000006286737575762288007_"  style="overflow:visible;fill:#4C1F8C;"/>
					<clipPath id="SVGID_00000073701865528333772270000008710227193548969616_">
						<use xlink:href="#SVGID_00000034049772606003170990000006286737575762288007_"  style="overflow:visible;"/>
					</clipPath>
					<g style="clip-path:url(#SVGID_00000073701865528333772270000008710227193548969616_);enable-background:new    ;">
						<path class="st6" d="M12.4,90.8L12,90.6c0,0,0,0,0,0L12.4,90.8C12.4,90.8,12.4,90.8,12.4,90.8L12.4,90.8z"/>
						<path class="st6" d="M12.4,90.8L12,90.6c-0.1,0.1-0.2,0.1-0.3,0.2l0.3,0.2C12.2,91,12.3,90.9,12.4,90.8L12.4,90.8z"/>
						<path class="st6" d="M12.1,91l-0.3-0.2c-0.1,0.1-0.2,0.2-0.3,0.3l0.3,0.2C11.9,91.2,12,91.1,12.1,91L12.1,91z"/>
						<path class="st6" d="M11.8,91.3l-0.3-0.2c-0.2,0.3-0.4,0.5-0.5,0.9l0.3,0.2C11.4,91.9,11.6,91.6,11.8,91.3L11.8,91.3z"/>
						<path class="st6" d="M11.3,92.2L11,92c0,0.1-0.1,0.2-0.1,0.3l0.3,0.2C11.2,92.4,11.3,92.3,11.3,92.2L11.3,92.2z"/>
						<path class="st6" d="M11.2,92.5l-0.3-0.2c0,0.1-0.1,0.2-0.1,0.4l0.3,0.2C11.1,92.8,11.2,92.6,11.2,92.5L11.2,92.5z"/>
						<path class="st6" d="M11.1,92.9l-0.3-0.2c0,0.1,0,0.2,0,0.3c0,0,0,0,0,0l0.3,0.2c0,0,0,0,0,0C11.1,93.1,11.1,93,11.1,92.9
							L11.1,92.9z"/>
						<path class="st6" d="M11.1,93.2L10.8,93c0,0.1,0,0.2,0,0.3l0.3,0.2C11.1,93.5,11.1,93.3,11.1,93.2L11.1,93.2z"/>
						<path class="st6" d="M10.8,92.6l-0.4-0.2c0.1,0.3,0.2,0.4,0.4,0.5l0.4,0.2C11.1,93.1,10.9,92.9,10.8,92.6L10.8,92.6z"/>
					</g>
				</g>
				<g>
					<path class="st2" d="M12.4,90.8c-0.7,0.5-1.3,1.5-1.3,2.4c0,0.9,0.7,1.2,1.4,0.7c0.7-0.5,1.3-1.5,1.3-2.4
						C13.7,90.7,13.1,90.3,12.4,90.8z"/>
				</g>
			</g>
			<g>
				<path class="st6" d="M12.5,91.2c-0.5,0.3-1,1.1-0.9,1.8c0,0.6,0.5,0.9,1,0.5c0.5-0.3,1-1.1,0.9-1.8C13.5,91.1,13,90.9,12.5,91.2
					z"/>
			</g>
			<g>
				<g>
					<path class="st2" d="M12.5,91.7c-0.3,0.2-0.6,0.7-0.5,1c0,0.4,0.3,0.5,0.6,0.3c0.3-0.2,0.6-0.7,0.5-1
						C13,91.6,12.8,91.5,12.5,91.7z"/>
				</g>
			</g>
		</g>
		<g>
			<g>
				<g>
					<defs>
						<path id="SVGID_00000072996697801429686300000005944394399404572812_" d="M4.9,86.5l-0.3-0.2c-0.3-0.1-0.6-0.1-1,0.1l0.3,0.2
							C4.3,86.4,4.6,86.4,4.9,86.5z"/>
					</defs>
					<use xlink:href="#SVGID_00000072996697801429686300000005944394399404572812_"  style="overflow:visible;fill:#4C1F8C;"/>
					<clipPath id="SVGID_00000011019539382566565180000009721292537899432576_">
						<use xlink:href="#SVGID_00000072996697801429686300000005944394399404572812_"  style="overflow:visible;"/>
					</clipPath>
					<g style="clip-path:url(#SVGID_00000011019539382566565180000009721292537899432576_);enable-background:new    ;">
						<path class="st6" d="M4.9,86.5l-0.3-0.2c-0.1-0.1-0.3-0.1-0.4-0.1l0.3,0.2C4.6,86.4,4.7,86.5,4.9,86.5L4.9,86.5z"/>
						<path class="st6" d="M4.4,86.5l-0.3-0.2c-0.1,0-0.2,0-0.3,0.1l0.3,0.2C4.3,86.5,4.3,86.5,4.4,86.5L4.4,86.5z"/>
						<path class="st6" d="M4.2,86.5l-0.3-0.2c-0.1,0-0.2,0.1-0.3,0.1l0.3,0.2C4,86.6,4.1,86.6,4.2,86.5L4.2,86.5z"/>
					</g>
				</g>
				<g>
					<defs>
						<path id="SVGID_00000089557759733019656930000017504932338176686486_" d="M2.7,89.8l0.3,0.2c-0.3-0.1-0.4-0.4-0.4-0.9
							c0-0.9,0.5-1.9,1.3-2.4l-0.3-0.2c-0.7,0.5-1.3,1.5-1.3,2.4C2.3,89.3,2.5,89.6,2.7,89.8z"/>
					</defs>
					<use xlink:href="#SVGID_00000089557759733019656930000017504932338176686486_"  style="overflow:visible;fill:#4C1F8C;"/>
					<clipPath id="SVGID_00000103244511048778326250000010023929052381498798_">
						<use xlink:href="#SVGID_00000089557759733019656930000017504932338176686486_"  style="overflow:visible;"/>
					</clipPath>
					<g style="clip-path:url(#SVGID_00000103244511048778326250000010023929052381498798_);enable-background:new    ;">
						<path class="st6" d="M3.9,86.7l-0.3-0.2c0,0,0,0,0,0L3.9,86.7C3.9,86.7,3.9,86.7,3.9,86.7L3.9,86.7z"/>
						<path class="st6" d="M3.9,86.7l-0.3-0.2c-0.1,0.1-0.2,0.1-0.3,0.2l0.3,0.2C3.7,86.8,3.8,86.7,3.9,86.7L3.9,86.7z"/>
						<path class="st6" d="M3.6,86.9l-0.3-0.2C3.1,86.8,3.1,86.9,3,87l0.3,0.2C3.4,87.1,3.5,87,3.6,86.9L3.6,86.9z"/>
						<path class="st6" d="M3.3,87.2L3,87c-0.2,0.3-0.4,0.5-0.5,0.9L2.8,88C2.9,87.7,3.1,87.4,3.3,87.2L3.3,87.2z"/>
						<path class="st6" d="M2.8,88l-0.3-0.2c0,0.1-0.1,0.2-0.1,0.3l0.3,0.2C2.7,88.3,2.8,88.2,2.8,88L2.8,88z"/>
						<path class="st6" d="M2.7,88.4l-0.3-0.2c0,0.1-0.1,0.2-0.1,0.4l0.3,0.2C2.6,88.6,2.7,88.5,2.7,88.4L2.7,88.4z"/>
						<path class="st6" d="M2.6,88.7l-0.3-0.2c0,0.1,0,0.2,0,0.3c0,0,0,0,0,0l0.3,0.2c0,0,0,0,0,0C2.6,89,2.6,88.9,2.6,88.7
							L2.6,88.7z"/>
						<path class="st6" d="M2.6,89.1l-0.3-0.2c0,0.1,0,0.2,0,0.3l0.3,0.2C2.6,89.3,2.6,89.2,2.6,89.1L2.6,89.1z"/>
						<path class="st6" d="M2.4,88.5L2,88.3c0.1,0.3,0.2,0.4,0.4,0.5L2.8,89C2.6,88.9,2.4,88.7,2.4,88.5L2.4,88.5z"/>
					</g>
				</g>
				<g>
					<path class="st2" d="M3.9,86.7c-0.7,0.5-1.3,1.5-1.3,2.4c0,0.9,0.7,1.2,1.4,0.7c0.7-0.5,1.3-1.5,1.3-2.4
						C5.3,86.5,4.6,86.2,3.9,86.7z"/>
				</g>
			</g>
			<g>
				<path class="st6" d="M4,87.1c-0.5,0.3-1,1.1-0.9,1.8c0,0.6,0.5,0.9,1,0.5C4.6,89,5,88.2,5,87.6C5,87,4.5,86.7,4,87.1z"/>
			</g>
			<g>
				<g>
					<path class="st18" d="M4,87.6c-0.3,0.2-0.6,0.7-0.5,1c0,0.4,0.3,0.5,0.6,0.3c0.3-0.2,0.6-0.7,0.5-1C4.6,87.5,4.3,87.4,4,87.6z"
						/>
				</g>
			</g>
		</g>
		<path class="st12" d="M30.9,58.1c0.7-1,1.3-2.1,2.1-2.9c0.3-0.3,0.6-0.6,1-0.8c0.1-0.1,0.3-0.2,0.4-0.2c0.2,0,0.3,0,0.5,0.1
			c0.1,0.1,0.2,0.3,0.1,0.4c0.2,0,0.5,0,0.6,0.1c0.2,0.1,0.2,0.4,0.2,0.6c0.2-0.1,0.5,0,0.7,0.3c0.1,0.2,0.1,0.5,0,0.7
			c0.2,0,0.4,0.2,0.5,0.5c0,0.2-0.1,0.5-0.3,0.7c-1.2,1.6-3,2.3-4.4,3.6c-0.3-0.2-0.5-0.4-0.6-0.7c-0.1-0.4-0.3-0.8-0.6-1.1
			L30.9,58.1z"/>
		<path class="st12" d="M33.4,54.9c1.1-0.9,2.4-1.9,3.6-2.7c0.1-0.1,0.3-0.2,0.4-0.2c0.1,0,0.3,0,0.4,0.1c0.1,0.1,0.1,0.2,0.1,0.3
			c0,0.3-0.3,0.5-0.6,0.8c-0.9,0.8-1.6,1.4-2.5,2c-0.1,0,0,0.2-0.1,0.2c-0.2,0-0.3-0.2-0.3-0.4c0-0.2,0.1-0.3,0.2-0.5L33.4,54.9z"/>
		<path class="st12" d="M31.3,56.4c0.1-0.3,0.3-0.5,0.5-0.7c0.4-0.3,0.9-0.3,1.3-0.4c0,0.4-0.2,0.8-0.4,1.1
			c-0.2,0.3-0.5,0.6-0.7,0.9c-0.2,0.2-0.3,0.5-0.5,0.7c-0.1,0.1-0.3,1.4-0.5,1.3c-0.2-0.1-0.4-0.5-0.4-0.6
			C30.7,58.2,31.1,56.8,31.3,56.4z"/>
		<path class="st6" d="M15.7,38.9c0.3,0.2,0.5,0.3,0.7,0.5c-0.2,0.1-0.3,0.2-0.4,0.3c-0.2-0.2-0.4-0.4-0.7-0.6
			c-1.4-0.8-3.8-0.8-5.2,0l-0.4-0.2C11.3,38,14,38,15.7,38.9z"/>
		<g>
			<path class="st6" d="M10,39.2l0,1.9c1.4-0.8,3.8-0.8,5.2,0c0.7,0.4,1.1,1,1.1,1.5l0-1.9c0-0.5-0.4-1.1-1.1-1.5
				C13.8,38.3,11.5,38.3,10,39.2L10,39.2z"/>
		</g>
		<path class="st6" d="M5.4,83.6c-0.2,0-0.4,0.1-0.6,0.2c-0.3,0.1-0.5,0.4-0.7,0.6c-0.4,0.5-0.9-0.4-1.1,0.2
			c-0.2,0.5,0.3,3.7,0.3,4.3c0.1,0.9,0.2,3.2,0.7,3.8c0.7,0.7,1.9-1,2.8-1.2c0.2,0,0.3-0.1,0.5-0.1C8.3,91,8.8,91,9,89.9
			c0.2-1.5,0.8-3.8,0.2-5c-0.4-0.7-1.1-1.1-1.8-1.3c-0.6-0.2-1.3-0.2-1.9-0.1C5.5,83.5,5.4,83.5,5.4,83.6z"/>
		<g>
			<g id="man_53_">
				<g>
					<g>
						<g>
							<g>
								<g>
									<path class="st5" d="M4.4,106.2c0.2-0.7,1.3-0.3,1.7-0.5c0.8-0.4,1.5-1.3,2.2-1.8c0.8-0.6,1.6-0.9,2.5-1.3
										c0.4-0.2,0.7-0.3,1.1-0.3c1.1,0,1.9,1.4,1.8,2.4c0,0.5-0.3,0.9-0.7,1.3c-0.6,0.5-1.4,0.9-2.1,1.1c-0.8,0.2-1.5,0.5-2.1,1
										c-0.8,0.7-1.3,1.4-2.4,1.6c-1.1,0.2-2.1-0.4-2.2-1.6c0-0.4,0-0.8,0-1.2C4.4,106.6,4.4,106.4,4.4,106.2z"/>
								</g>
							</g>
						</g>
					</g>
				</g>
			</g>
			<g id="man_52_">
				<g>
					<g>
						<g>
							<path class="st3" d="M4.3,106c0.2-0.6,1.2-0.3,1.7-0.5c0.8-0.4,1.4-1.2,2.1-1.7c0.7-0.5,1.6-0.9,2.4-1.2
								c0.3-0.1,0.7-0.3,1.1-0.3c1,0,1.8,1.4,1.7,2.3c0,0.5-0.3,0.9-0.7,1.2c-0.5,0.5-1.3,0.9-2,1.1c-0.8,0.2-1.4,0.5-2,1
								c-0.7,0.7-1.3,1.4-2.3,1.5c-1,0.2-2-0.4-2.1-1.5c0-0.4,0-0.8,0-1.2C4.3,106.4,4.3,106.2,4.3,106z"/>
						</g>
					</g>
				</g>
			</g>
			<path class="st6" d="M7.1,102.4c0.1,0,0.2,0.1,0.3,0.2c0.1,0.1,0.3,0.3,0.4,0.4c0.2,0.4,0.2-0.1,0.3,0.4c0,0.3-0.2,2.2-0.3,2.5
				c-0.1,0.6-0.8,1.3-2.3,1c-0.8-0.1-1.1-0.5-1.1-1.2c0-1-0.2-2.2,0.3-2.9c0.3-0.4,0.8-0.5,1.2-0.6c0.4-0.1,0.8,0,1.1,0.1
				C7,102.4,7.1,102.4,7.1,102.4z"/>
			<path class="st3" d="M8.2,104.3c-0.1,2.4-2.6,2.6-3.7,1.5c-0.6-0.5-0.4-1.2-0.6-1.9c-0.3-1.3-0.7-4.8-1.3-8.3
				c-0.7-4.4,0.7-6.3,0.7-6.4c0.2,0.6,0.6,1.4,1.2,1.6c1.4,0.6,3.7,0.6,4.4-1C9.4,92.3,8.5,98,8.2,104.3z"/>
			<g>
				<path class="st13" d="M2.8,75.2c0,0.6,0,1.1,0,1.7c0,1.9,0.1,4.5,0.2,6.5c0.1,1.1,0,3,0.8,3.9c0.7,0.9,1.8,1.4,3,1.3
					c0.4,0,0.7-0.1,1-0.4c0.6-0.5,1.1-0.4,1.2-1.2c0.9-7.7,0.8-7.1,0.7-10c0-0.7,0.5-2.2,0.4-3.3c-0.1-1.2-1.5-3.1-1.9-3.7
					C6.4,67.4,2.6,71.1,2.8,75.2z"/>
				<path class="st3" d="M2.8,74.5c0.4,1.1,2.2,2.9,3.4,3.7c1.8,1.2,3.9,1.6,3.8,2.7c-0.1,2.1-0.4,6.9-0.5,7.7
					c-0.1,0.7-0.5,1.9-4.1,1.2c-2-0.4-2.2-2.2-2.5-4.1C1.8,76.9,2.7,74.7,2.8,74.5z"/>
			</g>
		</g>
		<path class="st6" d="M4.6,90.2V94c0,0.4-0.3,0.6-0.6,0.4l0,0c-0.3-0.2-0.6-0.7-0.6-1.1v-4.1L4.6,90.2z"/>
		<path class="st6" d="M14.3,87.4c-0.2,0-0.4,0.1-0.6,0.2c-0.3,0.1-0.5,0.4-0.7,0.6c-0.4,0.5-0.9-0.4-1.1,0.2
			c-0.2,0.5,0.3,3.7,0.3,4.3c0.1,0.9,0.2,3.2,0.7,3.8c0.7,0.7,1.9-1,2.8-1.2c0.2,0,0.3-0.1,0.5-0.1c1-0.4,1.5-0.4,1.7-1.5
			c0.2-1.5,0.8-3.8,0.2-5c-0.4-0.7-1.1-1.1-1.8-1.3c-0.6-0.2-1.3-0.2-1.9-0.1C14.4,87.4,14.3,87.4,14.3,87.4z"/>
		<g>
			
				<linearGradient id="SVGID_00000001645399242733441650000016810315242675820971_" gradientUnits="userSpaceOnUse" x1="10.0836" y1="51.0311" x2="10.0836" y2="83.4575">
				<stop  offset="0" style="stop-color:#AC44EE"/>
				<stop  offset="0.3072" style="stop-color:#8334C4"/>
				<stop  offset="0.5912" style="stop-color:#6529A6"/>
				<stop  offset="0.8318" style="stop-color:#532293"/>
				<stop  offset="1" style="stop-color:#4C1F8C"/>
			</linearGradient>
			<path style="fill:url(#SVGID_00000001645399242733441650000016810315242675820971_);" d="M2.2,54.6c-0.3-2.3-0.5-4.2,1.5-5.4
				c2.6-1.5,5.1,0,7.5,0.9c2.4,0.9,6,1.8,6.5,2.5c1.8,2.6-2.6,9.2-1.4,19.1c0.2,1.3,1.9,3.9-0.7,5.2c-5.8,2.9-12.1-2.5-12-5
				C4.3,58.7,2.8,59.3,2.2,54.6z"/>
		</g>
		
			<linearGradient id="SVGID_00000174582193711244154910000003985556627379643575_" gradientUnits="userSpaceOnUse" x1="-2366.6487" y1="51.4504" x2="-2358.062" y2="61.45" gradientTransform="matrix(-1 0 0 1 -2354.4802 0)">
			<stop  offset="0" style="stop-color:#E8E9FC"/>
			<stop  offset="1" style="stop-color:#D3D4EC"/>
		</linearGradient>
		<path style="fill:url(#SVGID_00000174582193711244154910000003985556627379643575_);" d="M13.4,55.3c0.3-3.1,2.2-3.1,3.7-2.5
			c0.5,0.2,1,0.5,1,0.5s0-1.1-1.3-2c-0.4-0.3-2.3-1.1-2.8-1.4C13,49.4,12,49.1,11,48.7c-1.1-0.5-2.2-0.9-3.4-1
			c-1.6-0.2-3.3,0.1-4.5,1.3C2,50,1.7,52,1.8,53.4c0.3,2.6,1.6,7.9,1.6,7.9S4,61.7,4.5,62c4.5,2.4,6.6,3.8,7,3.4
			C11.8,64.9,13.3,56.1,13.4,55.3z"/>
		<path class="st12" d="M5.1,76.1c1.3,1.2,3.2,2.2,4.7,2.5c2.2,0.5,4.4-0.3,6.1-1.7c0.8-0.6,1.3-0.9,1.7-1.8
			c0.3-0.7-1.3-3.5-1.3-3.5c-0.5,0.3-0.9,0.6-1.4,0.9c-2.5,1.4-6.5,1.3-9,0c-2-1-2.1-3.5-2.1-3.5S2.6,73.7,5.1,76.1z"/>
		<path class="st6" d="M12.3,47.2c0.1-0.7,0.6-0.5,0.3-1.2c-0.2-0.6-0.6-1.1-1-1.4c-0.5-0.4-1-0.6-1.6-0.6c-0.2,0-0.3,0.1-0.5,0.1
			c-0.5,0-1.1-0.1-1.6,0c-0.5,0.1-1.6-0.1-1.6,0.5c0,3.1,0.1,2.9,0,4c-0.1,1.1,0.9,3,4.4,2.5C13.5,50.8,12,49.5,12.3,47.2z"/>
		<g>
			<g id="man_51_">
				<g>
					<g>
						<g>
							<path class="st5" d="M13.5,110.4c0.3-0.6,1.3,0,1.7-0.1c0.9-0.1,1.7-0.8,2.5-1.1c0.9-0.3,1.8-0.4,2.7-0.6
								c0.4-0.1,0.9-0.3,1.2-0.2c1,0.2,1.3,2,1,2.9c-0.2,0.5-0.6,0.8-1,1c-0.6,0.3-1.5,0.5-2.2,0.5c-0.8,0-1.5,0.1-2.2,0.4
								c-0.9,0.5-1.6,1-2.7,0.9c-1.1-0.1-1.8-0.9-1.6-2c0.1-0.4,0.2-0.8,0.3-1.1C13.3,110.7,13.4,110.6,13.5,110.4z"/>
						</g>
					</g>
				</g>
			</g>
			<g id="man_49_">
				<g>
					<g>
						<g>
							<path class="st18" d="M13.5,110.1c0.3-0.6,1.3,0,1.7-0.1c0.9-0.1,1.7-0.8,2.5-1.1c0.8-0.3,1.8-0.4,2.7-0.6
								c0.4-0.1,0.8-0.1,1.1,0c1,0.2,1.4,1.8,1,2.6c-0.2,0.5-0.6,0.8-1,1c-0.6,0.3-1.5,0.5-2.2,0.5c-0.8,0-1.5,0.1-2.2,0.4
								c-0.9,0.5-1.6,1-2.6,0.9c-1.1-0.1-1.8-0.9-1.6-2c0.1-0.4,0.2-0.8,0.3-1.1C13.3,110.4,13.4,110.2,13.5,110.1z"/>
						</g>
					</g>
				</g>
			</g>
			<path class="st6" d="M16,106.3c0.1,0,0.2,0.1,0.3,0.2c0.1,0.1,0.3,0.3,0.4,0.4c0.2,0.4,0.2-0.1,0.3,0.4c0,0.3-0.2,2.2-0.3,2.5
				c-0.1,0.6-0.8,1.3-2.3,1c-0.8-0.1-1.1-0.5-1.1-1.2c0-1-0.2-2.2,0.3-2.9c0.3-0.4,0.8-0.5,1.2-0.6c0.4-0.1,0.8,0,1.1,0.1
				C15.9,106.3,16,106.3,16,106.3z"/>
			
				<linearGradient id="SVGID_00000003810420202829035400000016080788930419757204_" gradientUnits="userSpaceOnUse" x1="-2372.6313" y1="99.1559" x2="-2359.0342" y2="107.3142" gradientTransform="matrix(-1 0 0 1 -2354.4802 0)">
				<stop  offset="0" style="stop-color:#E8E9FC"/>
				<stop  offset="1" style="stop-color:#D3D4EC"/>
			</linearGradient>
			<path style="fill:url(#SVGID_00000003810420202829035400000016080788930419757204_);" d="M17.1,108.1c-0.1,2.4-2.6,2.6-3.7,1.5
				c-0.6-0.5-0.4-1.2-0.6-1.9c-0.3-1.3-1-4.9-1.6-8.4c-0.1-0.7-0.2-1.3-0.2-1.8c-0.1-3.1,1.2-4.4,1.2-4.4c0.2,0.6,0.6,1.4,1.2,1.6
				c1.4,0.6,3.7,0.6,4.4-1C18.3,96.1,17.4,101.8,17.1,108.1z"/>
			<g>
				<path class="st13" d="M11.3,79.2c0,0.6,0.1,1.1,0.1,1.7c0.1,1.9,0.2,4.5,0.4,6.5c0.1,1.1,0.1,3,0.8,3.9c0.7,0.9,1.7,1.3,2.8,1.2
					c0.3,0,0.7-0.1,0.9-0.4c0.6-0.6,1-0.4,1.1-1.2c0.6-7.8,0.3-7.3,0.1-10.2c0-0.6,0.7-2,0.6-3.1c-0.2-1.2-0.3-2.5-0.7-3.1
					C15.5,71.8,11.6,75.4,11.3,79.2z"/>
				
					<linearGradient id="SVGID_00000103246109363230945020000010594191674878846368_" gradientUnits="userSpaceOnUse" x1="-2372.6909" y1="83.2407" x2="-2364.46" y2="89.6011" gradientTransform="matrix(-1 0 0 1 -2354.4802 0)">
					<stop  offset="0" style="stop-color:#E8E9FC"/>
					<stop  offset="1" style="stop-color:#D3D4EC"/>
				</linearGradient>
				<path style="fill:url(#SVGID_00000103246109363230945020000010594191674878846368_);" d="M18.6,77.8c0.7,5.7-0.2,13.3-0.2,13.3
					c0,0.7-0.4,3.3-4.2,2.6c-2.2-0.4-2.4-2.2-2.6-4.1c-1.2-8.8-0.9-8,0.1-9.2c0.5-0.6,0.7-1.3,1.1-1.9
					C13.9,76.9,18.2,73.8,18.6,77.8z"/>
			</g>
		</g>
		<path class="st12" d="M9.9,35.3c1.3,0,2.4,0.4,3.4,1v10.1c-1,0.6-2.1,1-3.4,1c-3.4,0-6.1-2.7-6.1-6.1C3.8,38,6.6,35.3,9.9,35.3z"
			/>
		<g>
			<path class="st12" d="M14.9,37.6c0.5,0.7,0.8,1.5,0.8,2.4c0,0.4,0.3,4.3,0.2,4.7c-0.1,0.2-0.3,2.8-1.2,3.5
				c-0.2,0.2-0.5,0.2-0.8,0.3c-0.4,0-2.1-0.4-2.7-0.6c-0.7-0.3-1.7-0.6-2.2-1.2c-0.4-0.4-0.8-1.2-1.1-2.3c0,0-0.8,0.1-1.4-0.8
				c-0.8-1.2-1.1-2.2-1.1-3.4c0-1.1,0.1-2,0.7-2.9c0.5-0.7,1.2-1.3,2-1.7c1.2-0.5,2.6-0.6,3.9-0.2C13.1,35.8,14.2,36.6,14.9,37.6z"
				/>
		</g>
		<path class="st6" d="M9,35.3c3.3-0.6,5.5,2.6,4.6,4.8c-0.6,1.5-3,1.6-3.5,4.6c-0.1,0.5,0.2,2.2,0,2.7c-1,2.2-4-1.2-4.9-2.3
			c-0.9-1.1-1.3-2.4-1.3-3.8c0-1.9,1-3.8,2.5-4.9C7.1,35.9,8.1,35.5,9,35.3z"/>
		<path class="st12" d="M10.9,37c1.1,1.2,0.9,2.8-1.3,4.2c-1.8,1.2-0.9,4.4-1.9,6.4c-1-0.7-2.1-1.9-2.6-2.5
			c-0.9-1.1-1.3-2.4-1.3-3.8c0-1.9,1-3.8,2.5-4.9c0.5-0.4,1.2-0.7,1.9-0.9C9.3,35.7,10.2,36.2,10.9,37z"/>
		<g>
			<g>
				<g>
					<defs>
						<path id="SVGID_00000000221927597018113270000015857664684174392480_" d="M12.5,42.1l-0.4-0.2c-0.3-0.1-0.7-0.1-1.1,0.1
							l0.4,0.2C11.9,42,12.3,42,12.5,42.1z"/>
					</defs>
					<use xlink:href="#SVGID_00000000221927597018113270000015857664684174392480_"  style="overflow:visible;fill:#7350BA;"/>
					<clipPath id="SVGID_00000015324639243409128120000010965709010390505898_">
						<use xlink:href="#SVGID_00000000221927597018113270000015857664684174392480_"  style="overflow:visible;"/>
					</clipPath>
					<g style="clip-path:url(#SVGID_00000015324639243409128120000010965709010390505898_);enable-background:new    ;">
						<path class="st13" d="M12.5,42.1l-0.4-0.2c-0.1-0.1-0.3-0.1-0.5-0.1l0.4,0.2C12.2,42,12.4,42,12.5,42.1L12.5,42.1z"/>
						<path class="st13" d="M12.1,42l-0.4-0.2c-0.1,0-0.2,0-0.3,0.1l0.4,0.2C11.9,42.1,12,42,12.1,42L12.1,42z"/>
						<path class="st13" d="M11.8,42.1l-0.4-0.2c-0.1,0-0.2,0.1-0.3,0.1l0.4,0.2C11.6,42.2,11.7,42.1,11.8,42.1L11.8,42.1z"/>
					</g>
				</g>
				<g>
					<defs>
						<path id="SVGID_00000049211213326113667750000011727748445346556296_" d="M10.2,45.6l0.4,0.2c-0.3-0.1-0.5-0.5-0.5-0.9
							c0-1,0.6-2.1,1.4-2.6l-0.4-0.2c-0.8,0.5-1.4,1.7-1.4,2.6C9.7,45.2,9.9,45.5,10.2,45.6z"/>
					</defs>
					<use xlink:href="#SVGID_00000049211213326113667750000011727748445346556296_"  style="overflow:visible;fill:#7350BA;"/>
					<clipPath id="SVGID_00000057137928881027038240000016419728844637992353_">
						<use xlink:href="#SVGID_00000049211213326113667750000011727748445346556296_"  style="overflow:visible;"/>
					</clipPath>
					<g style="clip-path:url(#SVGID_00000057137928881027038240000016419728844637992353_);enable-background:new    ;">
						<path class="st13" d="M11.5,42.3l-0.4-0.2c0,0,0,0,0,0L11.5,42.3C11.5,42.3,11.5,42.3,11.5,42.3L11.5,42.3z"/>
						<path class="st13" d="M11.5,42.3l-0.4-0.2c-0.1,0.1-0.2,0.2-0.3,0.2l0.4,0.2C11.2,42.4,11.3,42.3,11.5,42.3L11.5,42.3z"/>
						<path class="st13" d="M11.1,42.5l-0.4-0.2c-0.1,0.1-0.2,0.2-0.3,0.3l0.4,0.2C10.9,42.7,11,42.6,11.1,42.5L11.1,42.5z"/>
						<path class="st13" d="M10.8,42.8l-0.4-0.2c-0.2,0.3-0.4,0.6-0.5,0.9l0.4,0.2C10.4,43.4,10.6,43.1,10.8,42.8L10.8,42.8z"/>
						<path class="st13" d="M10.3,43.8l-0.4-0.2c0,0.1-0.1,0.3-0.1,0.4l0.4,0.2C10.2,44,10.2,43.9,10.3,43.8L10.3,43.8z"/>
						<path class="st13" d="M10.2,44.1l-0.4-0.2c0,0.1-0.1,0.3-0.1,0.4l0.4,0.2C10.1,44.4,10.1,44.3,10.2,44.1L10.2,44.1z"/>
						<path class="st13" d="M10.1,44.5l-0.4-0.2c0,0.1,0,0.2,0,0.4c0,0,0,0,0,0l0.4,0.2c0,0,0,0,0,0C10.1,44.8,10.1,44.7,10.1,44.5
							L10.1,44.5z"/>
						<path class="st13" d="M10.1,44.9l-0.4-0.2c0,0.1,0,0.2,0.1,0.4l0.4,0.2C10.1,45.2,10.1,45,10.1,44.9L10.1,44.9z"/>
						<path class="st13" d="M9.8,44.3l-0.4-0.2c0.1,0.3,0.2,0.5,0.4,0.6l0.4,0.2C10,44.7,9.9,44.5,9.8,44.3L9.8,44.3z"/>
					</g>
				</g>
				<g>
					<path class="st18" d="M11.5,42.3c-0.8,0.5-1.4,1.7-1.4,2.6c0,0.9,0.7,1.3,1.5,0.8c0.8-0.5,1.4-1.7,1.4-2.6
						C13,42.1,12.3,41.7,11.5,42.3z"/>
				</g>
			</g>
			<g>
				<path class="st13" d="M11.6,42.7c-0.6,0.4-1.1,1.3-1,2c0,0.7,0.5,1,1.1,0.6c0.6-0.4,1.1-1.3,1-2C12.7,42.6,12.2,42.3,11.6,42.7z
					"/>
			</g>
			<g>
				<g>
					<path class="st18" d="M11.6,43.2C11.2,43.5,11,44,11,44.4c0,0.4,0.3,0.6,0.6,0.3c0.3-0.2,0.6-0.7,0.6-1.1
						C12.2,43.2,11.9,43,11.6,43.2z"/>
				</g>
			</g>
		</g>
		<path class="st6" d="M29.4,59.4c0.4-0.2,0.7-0.4,1-0.6c0.8-0.5,1.4,0,1.8,0.5c0.4,0.6,0.6,1.3-0.3,2.2c-0.2,0.2-0.4,0.4-0.7,0.6
			C31.3,61.1,30.4,60,29.4,59.4z"/>
		<path class="st13" d="M20.9,67.9c-1-0.9-3.7-6.9-3.9-7.2c-0.1-0.1-0.8-1.5-0.7-1.6l3.8-2.6c0.4,0.6,0.7,1.3,1,1.8
			c0.5,0.9,2.7,6.7,2.8,7.8C24.2,68.5,22.1,68.9,20.9,67.9z"/>
		<path class="st12" d="M14.9,53.2c-1.6,0.8-1.1,2.6-0.7,3.8c0.5,1.6,1.5,3.1,2.6,4.4c0.3,0.3,0.6,0.6,1,0.8c0.3,0.2,0.7,0.2,1,0.3
			c0.8,0.1,1.8,0.1,2.5-0.4c0.2-0.2,0.4-0.4,0.5-0.6c0.2-0.3,0.4-0.6,0.5-1c0.1-0.6-0.2-1.2-0.5-1.7c-0.7-1.3-1.6-2.6-2.5-3.8
			C18.2,53.7,16.9,52.2,14.9,53.2z"/>
		<path class="st12" d="M31.4,62c0.7-0.6,0.3-1.3-0.1-2c-0.4-0.6-1-1.2-2.2-0.6c-2.5,1.2-3.4,1.8-5.5,2.8c-0.5,0.2-1.5,0.6-1.8,1.1
			c-0.3,0.5,0.6,0.9,0.6,1.5c0,0.3-0.4,1-0.6,1.3c-0.4,0.7,0,2.1,0.7,2.1C23.9,68.3,29.1,64,31.4,62z"/>
		<g>
			<g class="st1">
				<g class="st1">
					<defs>
						<path id="SVGID_00000143594456030348171790000009596001443755823523_" class="st1" d="M16.3,42.6l0-1.9c0-0.5-0.4-1.1-1.1-1.5
							c-1.4-0.8-3.8-0.8-5.2,0l0,1.9c1.4-0.8,3.8-0.8,5.2,0C16,41.5,16.3,42,16.3,42.6z"/>
					</defs>
					<clipPath id="SVGID_00000162315849451982073110000005523538497357665160_">
						<use xlink:href="#SVGID_00000143594456030348171790000009596001443755823523_"  style="overflow:visible;"/>
					</clipPath>
				</g>
				<g>
					<polygon class="st3" points="15.1,42.3 15.1,44.2 15.5,44.4 15.5,42.5 					"/>
				</g>
				<g class="st1">
					<defs>
						<path id="SVGID_00000087391139892485635950000002448967461496771754_" class="st1" d="M16.9,42.6l0-1.9c0,0.6-0.4,1.3-1.3,1.8
							c0,0-0.1,0-0.1,0.1l0,1.9c0,0,0.1,0,0.1-0.1C16.5,43.9,16.9,43.2,16.9,42.6z"/>
					</defs>
					<clipPath id="SVGID_00000031205113821817187320000018063151009304327564_">
						<use xlink:href="#SVGID_00000087391139892485635950000002448967461496771754_"  style="overflow:visible;"/>
					</clipPath>
					<g style="clip-path:url(#SVGID_00000031205113821817187320000018063151009304327564_);">
						<g>
							<path class="st12" d="M15.5,42.5l0,1.9c0,0,0.1,0,0.1-0.1c0.8-0.5,1.3-1.1,1.3-1.8l0-1.9c0,0.6-0.4,1.3-1.3,1.8
								C15.6,42.5,15.6,42.5,15.5,42.5L15.5,42.5z"/>
						</g>
					</g>
				</g>
				<g>
					<path class="st6" d="M15.6,42.4c0,0-0.1,0-0.1,0.1l-0.4-0.2c0,0,0.1,0,0.1-0.1c1.2-0.7,1.4-1.7,0.7-2.5
						c0.1-0.1,0.3-0.2,0.4-0.3C17.3,40.4,17,41.6,15.6,42.4z"/>
				</g>
			</g>
		</g>
		<path class="st6" d="M13.5,94l0,3.9c0,0.4-0.3,0.6-0.6,0.4l0,0c-0.3-0.2-0.6-0.7-0.6-1.1l0-4.1L13.5,94z"/>
		<path class="st6" d="M13.3,109.5l0-2.7c0-0.3,0.2-0.4,0.4-0.3h0c0.2,0.1,0.4,0.5,0.4,0.8v2.9l-0.6-0.2L13.3,109.5z"/>
		<path class="st6" d="M4.4,105.7v-2.5c0-0.3,0.2-0.4,0.4-0.2l0,0c0.2,0.1,0.4,0.4,0.4,0.7l0,2.6l-0.5-0.2L4.4,105.7z"/>
		<g>
			<g>
				<g>
					<defs>
						<path id="SVGID_00000061463373263847240070000006993106018985694379_" d="M18.8,92.3l-0.4-0.2c-0.3-0.1-0.6-0.1-1.1,0.1
							l0.4,0.2C18.1,92.2,18.5,92.2,18.8,92.3z"/>
					</defs>
					<use xlink:href="#SVGID_00000061463373263847240070000006993106018985694379_"  style="overflow:visible;fill:#4C1F8C;"/>
					<clipPath id="SVGID_00000046316943390189470130000002787398892964035005_">
						<use xlink:href="#SVGID_00000061463373263847240070000006993106018985694379_"  style="overflow:visible;"/>
					</clipPath>
					<g style="clip-path:url(#SVGID_00000046316943390189470130000002787398892964035005_);enable-background:new    ;">
						<path class="st6" d="M18.8,92.3l-0.4-0.2c-0.1-0.1-0.3-0.1-0.5-0.1l0.4,0.2C18.5,92.2,18.7,92.3,18.8,92.3L18.8,92.3z"/>
						<path class="st6" d="M18.3,92.3L18,92.1c-0.1,0-0.2,0-0.3,0.1l0.4,0.2C18.1,92.3,18.2,92.3,18.3,92.3L18.3,92.3z"/>
						<path class="st6" d="M18,92.3l-0.4-0.2c-0.1,0-0.2,0.1-0.3,0.1l0.4,0.2C17.8,92.4,17.9,92.4,18,92.3L18,92.3z"/>
					</g>
				</g>
				<g>
					<defs>
						<path id="SVGID_00000071539937893151474890000011614458819357691054_" d="M16.5,95.8l0.4,0.2c-0.3-0.1-0.4-0.5-0.5-0.9
							c0-0.9,0.6-2.1,1.4-2.6l-0.4-0.2C16.6,92.8,16,94,16,94.9C16,95.4,16.2,95.7,16.5,95.8z"/>
					</defs>
					<use xlink:href="#SVGID_00000071539937893151474890000011614458819357691054_"  style="overflow:visible;fill:#4C1F8C;"/>
					<clipPath id="SVGID_00000068667765414535181230000015847745387211416448_">
						<use xlink:href="#SVGID_00000071539937893151474890000011614458819357691054_"  style="overflow:visible;"/>
					</clipPath>
					<g style="clip-path:url(#SVGID_00000068667765414535181230000015847745387211416448_);enable-background:new    ;">
						<path class="st6" d="M17.7,92.5l-0.4-0.2c0,0,0,0,0,0L17.7,92.5C17.7,92.5,17.7,92.5,17.7,92.5L17.7,92.5z"/>
						<path class="st6" d="M17.7,92.5l-0.4-0.2c-0.1,0.1-0.2,0.2-0.3,0.2l0.4,0.2C17.5,92.6,17.6,92.6,17.7,92.5L17.7,92.5z"/>
						<path class="st6" d="M17.4,92.7L17,92.5c-0.1,0.1-0.2,0.2-0.3,0.3l0.4,0.2C17.2,92.9,17.3,92.8,17.4,92.7L17.4,92.7z"/>
						<path class="st6" d="M17.1,93l-0.4-0.2c-0.2,0.3-0.4,0.6-0.5,0.9l0.4,0.2C16.7,93.6,16.9,93.3,17.1,93L17.1,93z"/>
						<path class="st6" d="M16.6,94l-0.4-0.2c0,0.1-0.1,0.2-0.1,0.4l0.4,0.2C16.5,94.2,16.5,94.1,16.6,94L16.6,94z"/>
						<path class="st6" d="M16.5,94.3l-0.4-0.2c0,0.1-0.1,0.3-0.1,0.4l0.4,0.2C16.4,94.6,16.4,94.5,16.5,94.3L16.5,94.3z"/>
						<path class="st6" d="M16.4,94.7L16,94.5c0,0.1,0,0.2,0,0.4c0,0,0,0,0,0l0.4,0.2c0,0,0,0,0,0C16.4,95,16.4,94.9,16.4,94.7
							L16.4,94.7z"/>
						<path class="st6" d="M16.4,95.1L16,94.9c0,0.1,0,0.2,0.1,0.4l0.4,0.2C16.4,95.3,16.4,95.2,16.4,95.1L16.4,95.1z"/>
						<path class="st6" d="M16.1,94.5l-0.4-0.2c0.1,0.3,0.2,0.5,0.4,0.6l0.4,0.2C16.3,94.9,16.2,94.7,16.1,94.5L16.1,94.5z"/>
					</g>
				</g>
				<g>
					<path class="st4" d="M17.8,92.5c-0.8,0.5-1.4,1.7-1.4,2.6c0,0.9,0.7,1.3,1.5,0.8c0.8-0.5,1.4-1.7,1.4-2.6
						C19.2,92.3,18.6,92,17.8,92.5z"/>
				</g>
			</g>
			<g>
				<path class="st6" d="M17.8,92.9c-0.6,0.4-1.1,1.2-1,1.9c0,0.7,0.5,1,1.1,0.6c0.6-0.4,1.1-1.2,1-1.9
					C18.9,92.8,18.4,92.5,17.8,92.9z"/>
			</g>
			<g>
				<g>
					<path class="st12" d="M17.9,93.4c-0.3,0.2-0.6,0.7-0.6,1.1c0,0.4,0.3,0.5,0.6,0.3c0.3-0.2,0.6-0.7,0.6-1.1
						C18.5,93.4,18.2,93.2,17.9,93.4z"/>
				</g>
			</g>
		</g>
		<g>
			<g>
				<g>
					<defs>
						<path id="SVGID_00000176761300806694838720000009119019305936181893_" d="M24.5,64.8l-0.4-0.2c-0.3-0.1-0.6-0.1-1.1,0.1
							l0.4,0.2C23.9,64.7,24.3,64.7,24.5,64.8z"/>
					</defs>
					<use xlink:href="#SVGID_00000176761300806694838720000009119019305936181893_"  style="overflow:visible;fill:#4C1F8C;"/>
					<clipPath id="SVGID_00000183938932467432311130000014970136588489922975_">
						<use xlink:href="#SVGID_00000176761300806694838720000009119019305936181893_"  style="overflow:visible;"/>
					</clipPath>
					<g style="clip-path:url(#SVGID_00000183938932467432311130000014970136588489922975_);enable-background:new    ;">
						<path class="st6" d="M24.5,64.8l-0.4-0.2c-0.1-0.1-0.3-0.1-0.5-0.1l0.4,0.2C24.2,64.7,24.4,64.7,24.5,64.8L24.5,64.8z"/>
						<path class="st6" d="M24.1,64.7l-0.4-0.2c-0.1,0-0.2,0-0.3,0.1l0.4,0.2C23.9,64.8,24,64.7,24.1,64.7L24.1,64.7z"/>
						<path class="st6" d="M23.8,64.8l-0.4-0.2c-0.1,0-0.2,0.1-0.3,0.1l0.4,0.2C23.6,64.9,23.7,64.8,23.8,64.8L23.8,64.8z"/>
					</g>
				</g>
				<g>
					<defs>
						<path id="SVGID_00000047044930820122808870000001958945934820005802_" d="M22.2,68.3l0.4,0.2c-0.3-0.1-0.4-0.5-0.5-0.9
							c0-0.9,0.6-2.1,1.4-2.6l-0.4-0.2c-0.8,0.5-1.4,1.7-1.4,2.6C21.7,67.8,21.9,68.2,22.2,68.3z"/>
					</defs>
					<use xlink:href="#SVGID_00000047044930820122808870000001958945934820005802_"  style="overflow:visible;fill:#4C1F8C;"/>
					<clipPath id="SVGID_00000028323474829005995260000008739494260577851810_">
						<use xlink:href="#SVGID_00000047044930820122808870000001958945934820005802_"  style="overflow:visible;"/>
					</clipPath>
					<g style="clip-path:url(#SVGID_00000028323474829005995260000008739494260577851810_);enable-background:new    ;">
						<path class="st6" d="M23.5,64.9l-0.4-0.2c0,0,0,0,0,0L23.5,64.9C23.5,65,23.5,64.9,23.5,64.9L23.5,64.9z"/>
						<path class="st6" d="M23.5,65l-0.4-0.2c-0.1,0.1-0.2,0.2-0.3,0.2l0.4,0.2C23.2,65.1,23.4,65,23.5,65L23.5,65z"/>
						<path class="st6" d="M23.1,65.2L22.8,65c-0.1,0.1-0.2,0.2-0.3,0.3l0.4,0.2C22.9,65.4,23,65.3,23.1,65.2L23.1,65.2z"/>
						<path class="st6" d="M22.8,65.5l-0.4-0.2c-0.2,0.3-0.4,0.6-0.5,0.9l0.4,0.2C22.4,66.1,22.6,65.8,22.8,65.5L22.8,65.5z"/>
						<path class="st6" d="M22.3,66.4l-0.4-0.2c0,0.1-0.1,0.2-0.1,0.4l0.4,0.2C22.2,66.7,22.3,66.6,22.3,66.4L22.3,66.4z"/>
						<path class="st6" d="M22.2,66.8l-0.4-0.2c0,0.1-0.1,0.3-0.1,0.4l0.4,0.2C22.1,67.1,22.2,66.9,22.2,66.8L22.2,66.8z"/>
						<path class="st6" d="M22.1,67.2L21.7,67c0,0.1,0,0.2,0,0.4c0,0,0,0,0,0l0.4,0.2c0,0,0,0,0,0C22.1,67.4,22.1,67.3,22.1,67.2
							L22.1,67.2z"/>
						<path class="st6" d="M22.1,67.6l-0.4-0.2c0,0.1,0,0.2,0.1,0.4l0.4,0.2C22.1,67.8,22.1,67.7,22.1,67.6L22.1,67.6z"/>
						<path class="st6" d="M21.8,66.9l-0.4-0.2c0.1,0.3,0.2,0.5,0.4,0.6l0.4,0.2C22.1,67.4,21.9,67.2,21.8,66.9L21.8,66.9z"/>
					</g>
				</g>
				<g>
					<path class="st3" d="M23.5,64.9c-0.8,0.5-1.4,1.7-1.4,2.6c0,0.9,0.7,1.3,1.5,0.8c0.8-0.5,1.4-1.7,1.4-2.6
						C25,64.8,24.3,64.4,23.5,64.9z"/>
				</g>
			</g>
			<g>
				<path class="st6" d="M23.6,65.4c-0.6,0.4-1.1,1.2-1,1.9c0,0.7,0.5,1,1.1,0.6c0.6-0.4,1.1-1.2,1-1.9C24.7,65.3,24.2,65,23.6,65.4
					z"/>
			</g>
			<g>
				<g>
					<path class="st3" d="M23.6,65.9C23.2,66.1,23,66.6,23,67c0,0.4,0.3,0.5,0.6,0.3c0.3-0.2,0.6-0.7,0.6-1.1
						C24.2,65.9,23.9,65.7,23.6,65.9z"/>
				</g>
			</g>
		</g>
		<g>
			<g>
				<g>
					<defs>
						<path id="SVGID_00000176019266672919841680000014405967427292268172_" d="M9.8,88.4l-0.3-0.2c-0.3-0.1-0.6-0.1-1,0.1l0.3,0.2
							C9.2,88.3,9.5,88.3,9.8,88.4z"/>
					</defs>
					<use xlink:href="#SVGID_00000176019266672919841680000014405967427292268172_"  style="overflow:visible;fill:#4C1F8C;"/>
					<clipPath id="SVGID_00000176007802701826339560000007948323638079479993_">
						<use xlink:href="#SVGID_00000176019266672919841680000014405967427292268172_"  style="overflow:visible;"/>
					</clipPath>
					<g style="clip-path:url(#SVGID_00000176007802701826339560000007948323638079479993_);enable-background:new    ;">
						<path class="st6" d="M9.8,88.4l-0.3-0.2c-0.1-0.1-0.3-0.1-0.4-0.1l0.3,0.2C9.5,88.3,9.6,88.3,9.8,88.4L9.8,88.4z"/>
						<path class="st6" d="M9.3,88.3L9,88.1c-0.1,0-0.2,0-0.3,0.1l0.3,0.2C9.2,88.4,9.3,88.3,9.3,88.3L9.3,88.3z"/>
						<path class="st6" d="M9.1,88.4l-0.3-0.2c-0.1,0-0.2,0.1-0.3,0.1l0.3,0.2C8.9,88.5,9,88.4,9.1,88.4L9.1,88.4z"/>
					</g>
				</g>
				<g>
					<defs>
						<path id="SVGID_00000059278353846263699680000000335769438464289438_" d="M7.6,91.6L8,91.8c-0.3-0.1-0.4-0.4-0.4-0.9
							c0-0.9,0.5-1.9,1.3-2.4l-0.3-0.2c-0.7,0.5-1.3,1.5-1.3,2.4C7.2,91.2,7.4,91.5,7.6,91.6z"/>
					</defs>
					<use xlink:href="#SVGID_00000059278353846263699680000000335769438464289438_"  style="overflow:visible;fill:#4C1F8C;"/>
					<clipPath id="SVGID_00000102531664614188814090000018399942817731130518_">
						<use xlink:href="#SVGID_00000059278353846263699680000000335769438464289438_"  style="overflow:visible;"/>
					</clipPath>
					<g style="clip-path:url(#SVGID_00000102531664614188814090000018399942817731130518_);enable-background:new    ;">
						<path class="st6" d="M8.8,88.5l-0.3-0.2c0,0,0,0,0,0L8.8,88.5C8.8,88.5,8.8,88.5,8.8,88.5L8.8,88.5z"/>
						<path class="st6" d="M8.8,88.5l-0.3-0.2c-0.1,0.1-0.2,0.1-0.3,0.2l0.3,0.2C8.6,88.7,8.7,88.6,8.8,88.5L8.8,88.5z"/>
						<path class="st6" d="M8.5,88.8l-0.3-0.2c-0.1,0.1-0.2,0.2-0.3,0.3l0.3,0.2C8.3,89,8.4,88.9,8.5,88.8L8.5,88.8z"/>
						<path class="st6" d="M8.2,89.1l-0.3-0.2c-0.2,0.3-0.4,0.5-0.5,0.9l0.3,0.2C7.8,89.6,8,89.3,8.2,89.1L8.2,89.1z"/>
						<path class="st6" d="M7.7,89.9l-0.3-0.2c0,0.1-0.1,0.2-0.1,0.3l0.3,0.2C7.6,90.1,7.7,90,7.7,89.9L7.7,89.9z"/>
						<path class="st6" d="M7.6,90.3l-0.3-0.2c0,0.1-0.1,0.2-0.1,0.4l0.3,0.2C7.6,90.5,7.6,90.4,7.6,90.3L7.6,90.3z"/>
						<path class="st6" d="M7.5,90.6l-0.3-0.2c0,0.1,0,0.2,0,0.3c0,0,0,0,0,0L7.5,91c0,0,0,0,0,0C7.5,90.8,7.5,90.7,7.5,90.6
							L7.5,90.6z"/>
						<path class="st6" d="M7.5,91l-0.3-0.2c0,0.1,0,0.2,0,0.3l0.3,0.2C7.6,91.2,7.5,91.1,7.5,91L7.5,91z"/>
						<path class="st6" d="M7.3,90.4l-0.4-0.2c0.1,0.3,0.2,0.4,0.4,0.5l0.4,0.2C7.5,90.8,7.4,90.6,7.3,90.4L7.3,90.4z"/>
					</g>
				</g>
				<g>
					<path class="st4" d="M8.8,88.5c-0.7,0.5-1.3,1.5-1.3,2.4c0,0.9,0.7,1.2,1.4,0.7c0.7-0.5,1.3-1.5,1.3-2.4
						C10.2,88.4,9.5,88.1,8.8,88.5z"/>
				</g>
			</g>
			<g>
				<path class="st6" d="M8.9,88.9c-0.5,0.3-1,1.1-0.9,1.8c0,0.6,0.5,0.9,1,0.5c0.5-0.3,1-1.1,0.9-1.8C9.9,88.8,9.4,88.6,8.9,88.9z"
					/>
			</g>
			<g>
				<path class="st4" d="M8.9,89.4c-0.3,0.2-0.6,0.7-0.5,1c0,0.4,0.3,0.5,0.6,0.3c0.3-0.2,0.6-0.7,0.5-1C9.5,89.4,9.2,89.2,8.9,89.4
					z"/>
			</g>
		</g>
		<polygon class="st6" points="19.7,58.4 19.4,61.5 21.2,59.7 		"/>
		<path class="st6" d="M8.3,54.3c0,0.8-0.5,1.1-1.2,0.7S6,53.7,6,52.9c0-0.8,0.5-1.1,1.2-0.7C7.8,52.6,8.3,53.6,8.3,54.3z"/>
		<path class="st6" d="M8,57.5c0,0.6-0.4,0.8-0.9,0.5s-0.9-1-0.9-1.6s0.4-0.8,0.9-0.5S8,56.9,8,57.5z"/>
		<path class="st6" d="M7.7,60.1c0,0.3-0.2,0.5-0.5,0.3c-0.3-0.2-0.5-0.6-0.5-0.9c0-0.3,0.2-0.5,0.5-0.3C7.4,59.3,7.7,59.7,7.7,60.1
			z"/>
	</g>
</g>
</svg>
