<?xml version="1.0" encoding="utf-8"?>
<!-- Generator: Adobe Illustrator 25.4.1, SVG Export Plug-In . SVG Version: 6.00 Build 0)  -->
<svg version="1.1" id="Layer_1" xmlns="http://www.w3.org/2000/svg" xmlns:xlink="http://www.w3.org/1999/xlink" x="0px" y="0px"
	 viewBox="0 0 74.3 107" style="enable-background:new 0 0 74.3 107;" xml:space="preserve">
<style type="text/css">
	.Graphic_x0020_Style{fill:url(#SVGID_1_);}
	.st0{opacity:0.3;fill:#D9CDC1;}
	.st1{fill:#4C1F8C;}
	.st2{fill:#F1F1F9;}
	.st3{fill:#FFC400;}
	.st4{fill:url(#SVGID_00000052794262511203208480000003819112368602982580_);}
	.st5{fill:#FF445F;}
	.st6{fill:#C9C9EC;}
	.st7{fill:#E8E9FC;}
	.st8{fill:#7350BA;}
	.st9{clip-path:url(#SVGID_00000030454611512878971380000000659856645277186458_);enable-background:new    ;}
	.st10{clip-path:url(#SVGID_00000102523958668666939460000013396951435522526373_);enable-background:new    ;}
	.st11{fill:#817AC4;}
	.st12{clip-path:url(#SVGID_00000150792305692824226490000008189827432690072200_);enable-background:new    ;}
	.st13{clip-path:url(#SVGID_00000011020402841668611300000006004570969344737679_);enable-background:new    ;}
	.st14{fill:#DDDEFA;}
	.st15{fill:#1F0159;}
	.st16{fill:url(#SVGID_00000041987698860897816640000011903979482837010091_);}
	.st17{fill:url(#SVGID_00000182492933869847243080000010071292192520866181_);}
	.st18{fill:url(#SVGID_00000103966913261010372980000004057947929714196904_);}
	.st19{fill:url(#SVGID_00000140007169087448125540000004101722511927765412_);}
	.st20{clip-path:url(#SVGID_00000141445292724194643540000007303477369966317496_);enable-background:new    ;}
	.st21{clip-path:url(#SVGID_00000006694555263311690710000015344810351114044813_);enable-background:new    ;}
	.st22{enable-background:new    ;}
	.st23{clip-path:url(#SVGID_00000077308523698876889600000014831908430430428559_);}
	.st24{clip-path:url(#SVGID_00000155127494673364681670000017242775179826225793_);enable-background:new    ;}
	.st25{clip-path:url(#SVGID_00000139252531877501444580000018087234384947009455_);enable-background:new    ;}
	.st26{clip-path:url(#SVGID_00000155126320694094350730000003543683969783170215_);enable-background:new    ;}
	.st27{clip-path:url(#SVGID_00000064347365719292427130000005795261289684966555_);enable-background:new    ;}
	.st28{clip-path:url(#SVGID_00000128466073013665575620000015640149803336302513_);enable-background:new    ;}
	.st29{clip-path:url(#SVGID_00000090275584885912712890000017796247528570954675_);enable-background:new    ;}
</style>
<linearGradient id="SVGID_1_" gradientUnits="userSpaceOnUse" x1="-579.3065" y1="140.5135" x2="-578.8065" y2="141.3796">
	<stop  offset="0" style="stop-color:#AC44EE"/>
	<stop  offset="0.3072" style="stop-color:#8334C4"/>
	<stop  offset="0.5912" style="stop-color:#6529A6"/>
	<stop  offset="0.8318" style="stop-color:#532293"/>
	<stop  offset="1" style="stop-color:#4C1F8C"/>
</linearGradient>
<g>
	<path class="st0" d="M70.9,99.3L61,105c-4.6,2.7-12.2,2.7-16.8,0l0,0c-4.6-2.7-4.6-7,0-9.7l9.8-5.7c4.6-2.7,12.2-2.7,16.8,0l0,0
		C75.5,92.3,75.5,96.6,70.9,99.3z"/>
	<g>
		<g>
			<polygon class="st1" points="8.8,26 8.8,26.2 8.8,26.4 8.8,27.6 8.8,27.9 8.8,29 8.8,29.3 8.7,30.4 8.7,30.7 8.7,31.9 8.7,32.1 
				8.7,33.3 8.7,33.6 8.7,34.7 8.7,35 8.7,36.1 8.7,36.4 8.7,37.4 0,42.4 0,41.4 0,41.2 0,40 0,39.7 0,38.6 0,38.3 0.1,37.2 
				0.1,36.9 0.1,35.7 0.1,35.5 0.1,34.3 0.1,34 0.1,32.9 0.1,32.6 0.1,31.5 0.1,31.2 0.1,30 0.1,29.8 0.1,28.9 7,25 7.7,25.4 
				7.9,25.5 			"/>
			<g>
				<path class="st2" d="M3.9,38.2l-0.3,1c0.3,0,0.7-0.1,1.1-0.4V38C4.4,38.1,4.1,38.2,3.9,38.2z"/>
				<path class="st3" d="M7,33.4l-0.7,0.8c0.1,0.2,0.1,0.4,0.1,0.7c0,0.5-0.2,1.1-0.4,1.6l0.6,0.3C7,36,7.2,35.2,7.2,34.4
					C7.2,34,7.2,33.7,7,33.4z"/>
				<path class="st2" d="M4.6,38v0.9c0.8-0.4,1.5-1.3,1.9-2.2L6,36.5C5.7,37.1,5.2,37.7,4.6,38z"/>
				<path class="st2" d="M3,37.7l-0.7,0.8c0.2,0.5,0.7,0.8,1.3,0.8l0.3-1C3.5,38.2,3.1,38,3,37.7z"/>
				<path class="st3" d="M6.3,34.2L7,33.4c-0.2-0.5-0.7-0.8-1.3-0.8l-0.3,1C5.8,33.6,6.1,33.8,6.3,34.2z"/>
				<path class="st3" d="M5.4,33.6l0.3-1c-0.3,0-0.7,0.1-1.1,0.4v0.9C4.9,33.7,5.2,33.6,5.4,33.6z"/>
				<path class="st2" d="M2.8,37c0-0.5,0.2-1.1,0.4-1.6l-0.6-0.3c-0.4,0.8-0.6,1.6-0.6,2.3c0,0.4,0.1,0.7,0.2,1L3,37.7
					C2.9,37.5,2.8,37.2,2.8,37z"/>
				<path class="st3" d="M4.6,33.9v-0.9c-0.8,0.4-1.5,1.3-1.9,2.2l0.6,0.3C3.6,34.7,4.1,34.2,4.6,33.9z"/>
			</g>
			<g>
				<polygon class="st2" points="6.9,27.6 7.9,27.1 7.9,26 6.9,26.6 				"/>
				<polygon class="st2" points="6.9,29.1 7.9,28.5 7.9,27.5 6.9,28 				"/>
				<polygon class="st2" points="6.9,30.5 7.9,30 7.9,28.9 6.9,29.5 				"/>
				<polygon class="st2" points="0.7,31.2 6.5,27.9 6.5,26.8 0.7,30.2 				"/>
				<polygon class="st2" points="0.7,32.7 6.5,29.3 6.5,28.3 0.7,31.6 				"/>
				<polygon class="st2" points="0.7,34.1 6.5,30.8 6.5,29.7 0.7,33.1 				"/>
			</g>
		</g>
		<g>
			<polygon class="st1" points="51.6,17.4 51.6,17.6 51.6,17.8 51.6,19 51.6,19.2 51.6,20.4 51.6,20.7 51.6,21.8 51.6,22.1 
				51.6,23.3 51.6,23.5 51.6,24.7 51.6,25 51.6,26.1 51.6,26.4 51.6,27.5 51.6,27.8 51.6,28.8 42.9,33.8 42.9,32.8 42.9,32.6 
				42.9,31.4 42.9,31.1 42.9,30 42.9,29.7 42.9,28.5 42.9,28.3 42.9,27.1 42.9,26.9 42.9,25.7 42.9,25.4 42.9,24.3 42.9,24 
				42.9,22.8 42.9,22.6 42.9,21.4 42.9,21.2 42.9,20.3 49.8,16.4 50.5,16.8 50.8,16.9 			"/>
			<g>
				<path class="st2" d="M46.7,29.6l-0.3,1c0.3,0,0.7-0.1,1.1-0.4v-0.9C47.2,29.5,47,29.6,46.7,29.6z"/>
				<path class="st3" d="M49.9,24.8l-0.7,0.8c0.1,0.2,0.1,0.4,0.1,0.7c0,0.5-0.2,1.1-0.4,1.6l0.6,0.3c0.4-0.8,0.6-1.6,0.6-2.3
					C50.1,25.4,50,25.1,49.9,24.8z"/>
				<path class="st2" d="M47.5,29.4v0.9c0.8-0.4,1.5-1.3,1.9-2.2l-0.6-0.3C48.5,28.5,48,29.1,47.5,29.4z"/>
				<path class="st2" d="M45.9,29l-0.7,0.8c0.2,0.5,0.7,0.8,1.3,0.8l0.3-1C46.3,29.6,46,29.4,45.9,29z"/>
				<path class="st3" d="M49.2,25.6l0.7-0.8c-0.2-0.5-0.7-0.8-1.3-0.8l-0.3,1C48.7,25,49,25.2,49.2,25.6z"/>
				<path class="st3" d="M48.3,25l0.3-1c-0.3,0-0.7,0.1-1.1,0.4v0.9C47.8,25.1,48,25,48.3,25z"/>
				<path class="st2" d="M45.7,28.3c0-0.5,0.2-1.1,0.4-1.6l-0.6-0.3c-0.4,0.8-0.6,1.6-0.6,2.3c0,0.4,0.1,0.7,0.2,1l0.7-0.8
					C45.8,28.9,45.7,28.6,45.7,28.3z"/>
				<path class="st3" d="M47.5,25.2v-0.9c-0.8,0.4-1.5,1.3-1.9,2.2l0.6,0.3C46.5,26.1,47,25.6,47.5,25.2z"/>
			</g>
			<g>
				<polygon class="st2" points="49.8,19 50.7,18.5 50.7,17.4 49.8,18 				"/>
				<polygon class="st2" points="49.8,20.5 50.7,19.9 50.7,18.9 49.8,19.4 				"/>
				<polygon class="st2" points="49.8,21.9 50.7,21.4 50.7,20.3 49.8,20.8 				"/>
				<polygon class="st2" points="43.6,22.6 49.4,19.3 49.4,18.2 43.6,21.6 				"/>
				<polygon class="st2" points="43.6,24.1 49.4,20.7 49.4,19.7 43.6,23 				"/>
				<polygon class="st2" points="43.6,25.5 49.4,22.2 49.4,21.1 43.6,24.5 				"/>
			</g>
		</g>
		<g>
			
				<linearGradient id="SVGID_00000069383083017423971900000003105342642811152550_" gradientUnits="userSpaceOnUse" x1="24.3664" y1="27.8765" x2="37.6422" y2="50.8708">
				<stop  offset="0" style="stop-color:#AC44EE"/>
				<stop  offset="0.3072" style="stop-color:#8334C4"/>
				<stop  offset="0.5912" style="stop-color:#6529A6"/>
				<stop  offset="0.8318" style="stop-color:#532293"/>
				<stop  offset="1" style="stop-color:#4C1F8C"/>
			</linearGradient>
			<polygon style="fill:url(#SVGID_00000069383083017423971900000003105342642811152550_);" points="41.2,25.4 41.2,25.9 41.2,26.2 
				41.2,27.4 41.2,27.6 41.2,28.8 41.2,29.1 41.2,30.2 41.2,30.5 41.2,31.7 41.2,31.9 41.2,33.1 41.2,33.3 41.2,34.5 41.2,34.8 
				41.2,35.9 41.2,36.2 41.2,37.4 41.2,37.6 41.2,38.8 41.2,39 41.2,40.2 41.2,40.5 41.2,41.6 41.2,41.9 41.2,43.1 41.2,43.3 
				41.2,44.5 41.2,44.7 41.2,45.9 41.2,46.2 41.1,47.3 41.1,47.6 41.1,48.3 23.7,58.3 23.7,57.7 23.7,57.4 23.7,56.2 23.7,56 
				23.7,54.8 23.7,54.6 23.7,53.4 23.7,53.1 23.7,52 23.7,51.7 23.7,50.5 23.7,50.3 23.7,49.1 23.7,48.9 23.7,47.7 23.7,47.4 
				23.7,46.3 23.7,46 23.7,44.8 23.7,44.6 23.7,43.4 23.7,43.2 23.7,42 23.7,41.7 23.7,40.6 23.7,40.3 23.7,39.1 23.7,38.9 
				23.7,37.7 23.7,37.4 23.8,36.3 23.8,36 23.8,34.9 23.8,34.6 23.8,33.4 23.8,33.2 23.8,32 23.8,31.7 23.8,31.3 37.6,23.4 
				37.9,23.6 38.1,23.7 39.2,24.3 39.4,24.4 40.4,25 40.6,25.1 			"/>
			<g>
				<g>
					<path class="st2" d="M24.5,43.4C24.5,43.4,24.5,43.4,24.5,43.4c-0.1,0-0.1-0.1-0.1-0.1c0.1-0.2,1-2.1,1.5-2.4
						c0.3-0.2,0.5,0.1,0.7,0.3c0.2,0.2,0.4,0.3,0.5,0.3c0.5-0.3,1-1.5,1.4-2.6c0.5-1.2,0.9-2.4,1.5-2.7c0.3-0.2,0.6,0.1,0.9,0.3
						c0.3,0.2,0.4,0.4,0.6,0.3c0.3-0.2,0.6-1,0.9-1.8c0.4-1.2,0.9-2.5,1.7-2.9c0.6-0.2,1.1-0.1,1.5,0.3c0.4,0.4,0.7,0.9,1,1.4
						c0.5,1,0.9,1.6,1.5,1.3c0.4-0.2,0.9-1.2,1-1.6c0-0.1,0.1-0.1,0.1-0.1c0.1,0,0.1,0.1,0.1,0.1c0,0.1-0.5,1.5-1.1,1.7
						c-0.4,0.2-0.7,0.1-1-0.2c-0.3-0.3-0.5-0.7-0.7-1.1c-0.6-1-1.1-2.1-2.3-1.6c-0.8,0.3-1.2,1.6-1.6,2.8c-0.3,0.9-0.6,1.6-0.9,1.9
						c-0.3,0.2-0.6-0.1-0.8-0.3c-0.3-0.2-0.4-0.4-0.6-0.3c-0.5,0.3-1,1.5-1.4,2.6c-0.5,1.2-0.9,2.4-1.5,2.7
						c-0.3,0.2-0.5-0.1-0.8-0.3c-0.2-0.2-0.4-0.3-0.5-0.3C25.6,41.3,24.9,42.8,24.5,43.4C24.6,43.4,24.6,43.4,24.5,43.4z"/>
				</g>
				<g>
					<polygon class="st2" points="28.2,46 25.7,47.4 25.7,43 28.2,41.5 					"/>
					<polygon class="st3" points="31.9,43.9 29.4,45.3 29.4,38.6 31.9,37.2 					"/>
					<polygon class="st5" points="39.2,39.7 36.8,41.1 36.8,36.9 39.2,35.5 					"/>
					<polygon class="st2" points="35.5,41.8 33.1,43.2 33.1,34.7 35.5,33.3 					"/>
				</g>
			</g>
			<g>
				<g>
					<path class="st2" d="M28.2,51.2l1.5,2.1c1.4-1.7,1.9-4.1,1.1-5.2c-0.5-0.8-1.5-0.8-2.5-0.2L28.2,51.2z"/>
				</g>
				<g>
					<path class="st5" d="M28.2,51.2l-1.5,3.8c0.9,0.1,2-0.5,2.9-1.7L28.2,51.2z"/>
				</g>
				<g>
					<path class="st3" d="M28.2,51.2l-1.5-2.1c-1.4,1.7-1.9,4.1-1.1,5.2c0.3,0.4,0.6,0.6,1.1,0.6L28.2,51.2z"/>
				</g>
				<g>
					<path class="st3" d="M28.2,51.2l0-3.4c-0.5,0.3-1,0.7-1.5,1.3L28.2,51.2z"/>
				</g>
			</g>
			<g>
				<g>
					<path class="st5" d="M36.4,46.8l1.5,2.1c1.4-1.7,1.9-4.1,1.1-5.2c-0.5-0.8-1.5-0.8-2.5-0.2L36.4,46.8z"/>
				</g>
				<g>
					<path class="st3" d="M36.4,46.8L35,50.6c0.9,0.1,2-0.5,2.9-1.7L36.4,46.8z"/>
				</g>
				<g>
					<path class="st2" d="M36.4,46.8L35,44.8c-1.4,1.7-1.9,4.1-1.1,5.2c0.3,0.4,0.6,0.6,1.1,0.6L36.4,46.8z"/>
				</g>
				<g>
					<path class="st2" d="M36.4,46.8l0-3.4c-0.5,0.3-1,0.7-1.5,1.3L36.4,46.8z"/>
				</g>
			</g>
			<g>
				<path class="st2" d="M25.9,40.1C25.9,40.1,25.9,40.1,25.9,40.1l-0.1-6.7c0,0,0-0.1,0.1-0.1s0.1,0,0.1,0.1L25.9,40.1
					C26,40.1,25.9,40.1,25.9,40.1z"/>
			</g>
			<g>
				<path class="st2" d="M30,35.6C29.9,35.6,29.9,35.6,30,35.6l-0.1-4c0,0,0-0.1,0.1-0.1c0,0,0.1,0,0.1,0.1L30,35.6
					C30,35.6,30,35.6,30,35.6z"/>
			</g>
			<path class="st2" d="M26.4,33.4l-1,0.6c-0.3,0.2-0.5,0-0.5-0.3v0c0-0.3,0.2-0.7,0.5-0.9l1-0.6c0.3-0.2,0.5,0,0.5,0.3l0,0
				C26.9,32.9,26.6,33.3,26.4,33.4z"/>
			<path class="st2" d="M30.5,31.5l-1,0.6c-0.3,0.2-0.5,0-0.5-0.3l0,0c0-0.3,0.2-0.7,0.5-0.9l1-0.6c0.3-0.2,0.5,0,0.5,0.3l0,0
				C31,30.9,30.7,31.3,30.5,31.5z"/>
			<g>
				<path class="st2" d="M38,34.5C37.9,34.5,37.9,34.5,38,34.5l-0.1-4c0,0,0-0.1,0.1-0.1c0,0,0.1,0,0.1,0.1L38,34.5
					C38,34.5,38,34.5,38,34.5z"/>
			</g>
			<path class="st2" d="M38.5,30.4l-1,0.6c-0.3,0.2-0.5,0-0.5-0.3l0,0c0-0.3,0.2-0.7,0.5-0.9l1-0.6c0.3-0.2,0.5,0,0.5,0.3l0,0
				C39,29.8,38.8,30.2,38.5,30.4z"/>
			<g>
				<path class="st2" d="M34.1,31.7C34.1,31.7,34,31.7,34.1,31.7l-0.1-4c0,0,0-0.1,0.1-0.1c0,0,0.1,0,0.1,0.1L34.1,31.7
					C34.2,31.7,34.1,31.7,34.1,31.7z"/>
			</g>
			<path class="st2" d="M34.6,27.6l-1,0.6c-0.3,0.2-0.5,0-0.5-0.3l0,0c0-0.3,0.2-0.7,0.5-0.9l1-0.6c0.3-0.2,0.5,0,0.5,0.3l0,0
				C35.1,27,34.9,27.4,34.6,27.6z"/>
		</g>
		<g>
			<polygon class="st1" points="19.8,19.7 19.8,19.8 19.8,20.1 19.8,21.2 19.8,21.5 19.8,22.7 19.8,22.9 19.8,24.1 19.8,24.4 
				19.8,25.5 19.8,25.8 19.8,26.9 19.8,27.2 19.8,28.4 19.8,28.6 19.8,29.8 19.8,30.1 19.7,31.1 11.1,36 11.1,35.1 11.1,34.8 
				11.1,33.6 11.1,33.4 11.1,32.2 11.1,32 11.1,30.8 11.1,30.5 11.1,29.4 11.1,29.1 11.1,27.9 11.1,27.7 11.1,26.5 11.1,26.3 
				11.1,25.1 11.1,24.8 11.1,23.7 11.1,23.4 11.1,22.6 18,18.6 18.7,19 18.9,19.2 			"/>
			<g>
				<polygon class="st3" points="13.1,30.6 11.8,31.3 11.8,26.1 13.1,25.4 				"/>
				<polygon class="st2" points="15.1,29.5 13.8,30.2 13.8,21.6 15.1,20.8 				"/>
				<polygon class="st2" points="18.9,27.2 17.6,28 17.6,20.5 18.9,19.8 				"/>
				<polygon class="st5" points="17,28.4 15.7,29.1 15.7,22.9 17,22.1 				"/>
			</g>
			<g>
				<polygon class="st2" points="11.9,32.6 19,28.5 19,27.9 11.9,32 				"/>
				<polygon class="st2" points="11.9,33.8 19,29.7 19,29 11.9,33.2 				"/>
				<polygon class="st2" points="11.9,35 19,30.8 19,30.2 11.9,34.3 				"/>
			</g>
		</g>
		<g>
			<polygon class="st1" points="30.2,13.7 30.2,13.8 30.2,14 30.2,15.2 30.2,15.5 30.2,16.6 30.2,16.9 30.2,18.1 30.2,18.3 
				30.2,19.5 30.2,19.7 30.2,20.9 30.2,21.2 30.2,22.3 30.2,22.6 30.2,23.8 30.2,24 30.2,25.1 21.5,30 21.5,29 21.5,28.8 21.5,27.6 
				21.5,27.4 21.5,26.2 21.5,25.9 21.5,24.8 21.5,24.5 21.5,23.3 21.5,23.1 21.5,21.9 21.5,21.6 21.5,20.5 21.5,20.2 21.5,19.1 
				21.5,18.8 21.5,17.6 21.5,17.4 21.5,16.6 28.4,12.6 29.1,13 29.3,13.1 			"/>
			<g>
				<g>
					<g>
						<g>
							<path class="st2" d="M25.7,23.4l1.5,2.1c1.4-1.7,1.9-4.1,1.1-5.2c-0.5-0.8-1.5-0.8-2.5-0.2V23.4z"/>
						</g>
					</g>
					<g>
						<g>
							<path class="st5" d="M25.7,23.4l-1.5,3.8c0.9,0.1,2-0.5,2.9-1.7L25.7,23.4z"/>
						</g>
					</g>
					<g>
						<g>
							<path class="st3" d="M25.7,23.4l-1.5-2.1c-1.4,1.7-1.9,4.1-1.1,5.2c0.3,0.4,0.6,0.6,1.1,0.6L25.7,23.4z"/>
						</g>
					</g>
					<g>
						<g>
							<path class="st3" d="M25.7,23.4V20c-0.5,0.3-1,0.7-1.5,1.3L25.7,23.4z"/>
						</g>
					</g>
				</g>
			</g>
			<g>
				<polygon class="st2" points="22.3,18.6 29.4,14.5 29.4,13.8 22.3,18 				"/>
				<polygon class="st2" points="22.3,19.8 29.4,15.7 29.4,15 22.3,19.1 				"/>
				<polygon class="st2" points="22.3,20.9 29.4,16.8 29.4,16.2 22.3,20.3 				"/>
			</g>
		</g>
		<g>
			<polygon class="st1" points="41.2,7.3 41.2,7.4 41.2,7.7 41.2,8.8 41.2,9.1 41.2,10.3 41.2,10.5 41.2,11.7 41.2,12 41.2,13.1 
				41.2,13.4 41.2,14.5 41.2,14.8 41.2,16 41.2,16.2 41.2,17.4 41.2,17.7 41.2,18.7 32.5,23.7 32.5,22.7 32.5,22.4 32.5,21.3 
				32.5,21 32.5,19.8 32.5,19.6 32.5,18.4 32.5,18.1 32.5,17 32.5,16.7 32.5,15.6 32.5,15.3 32.5,14.1 32.5,13.9 32.5,12.7 
				32.5,12.4 32.5,11.3 32.5,11 32.6,10.3 39.4,6.3 40.1,6.7 40.1,6.7 40.3,6.8 			"/>
			<g>
				<polygon class="st2" points="33,15.1 39.5,11.4 39.5,10.7 33,14.5 				"/>
				<path class="st2" d="M39.8,10.6c0-0.3,0.2-0.7,0.5-0.8c0.3-0.2,0.5,0,0.5,0.3s-0.2,0.7-0.5,0.8C40.1,11.1,39.8,10.9,39.8,10.6z"
					/>
				<path class="st2" d="M39.8,14.7c0-0.3,0.2-0.7,0.5-0.8c0.3-0.2,0.5,0,0.5,0.3c0,0.3-0.2,0.7-0.5,0.8
					C40.1,15.1,39.8,15,39.8,14.7z"/>
				<polygon class="st2" points="37.9,9.8 34.3,11.9 34.3,11.2 37.9,9.1 				"/>
				<polygon class="st2" points="40.8,9.2 34.3,12.9 34.3,12.3 40.8,8.5 				"/>
				<path class="st2" d="M33.9,11.5c0-0.3-0.2-0.4-0.5-0.3c-0.3,0.2-0.5,0.5-0.5,0.8c0,0.3,0.2,0.4,0.5,0.3
					C33.7,12.2,33.9,11.8,33.9,11.5z"/>
				<polygon class="st2" points="37.9,13.8 34.3,15.8 34.3,15.2 37.9,13.1 				"/>
				<polygon class="st2" points="40.8,13.2 34.3,16.9 34.3,16.3 40.8,12.5 				"/>
				<polygon class="st2" points="35.9,17.6 39.5,15.5 39.5,14.9 35.9,16.9 				"/>
				<polygon class="st2" points="33,20.3 39.5,16.6 39.5,16 33,19.7 				"/>
				<polygon class="st2" points="33,21.4 39.5,17.7 39.5,17 33,20.8 				"/>
				<path class="st2" d="M33.9,15.5c0-0.3-0.2-0.4-0.5-0.3C33.2,15.4,33,15.7,33,16c0,0.3,0.2,0.4,0.5,0.3S33.9,15.8,33.9,15.5z"/>
				<polygon class="st2" points="37.9,20 34.3,22.1 34.3,21.4 37.9,19.3 				"/>
				<path class="st2" d="M33.9,21.7c0-0.3-0.2-0.4-0.5-0.3C33.2,21.6,33,22,33,22.3c0,0.3,0.2,0.4,0.5,0.3
					C33.7,22.4,33.9,22,33.9,21.7z"/>
			</g>
			<path class="st1" d="M41,18.8l-8.7,5L41,18.8z"/>
		</g>
		<g>
			<polygon class="st1" points="52.3,1 52.3,1.1 52.3,1.4 52.3,2.5 52.3,2.8 52.3,3.9 52.3,4.2 52.3,5.4 52.3,5.6 52.3,6.8 
				52.3,7.1 52.3,8.2 52.3,8.5 52.3,9.6 52.3,9.9 52.3,11.1 52.3,11.3 52.3,12.4 43.6,17.4 43.6,16.4 43.6,16.1 43.6,14.9 
				43.6,14.7 43.6,13.5 43.6,13.2 43.6,12.1 43.6,11.8 43.6,10.7 43.6,10.4 43.6,9.2 43.6,9 43.6,7.8 43.6,7.5 43.6,6.4 43.6,6.1 
				43.6,5 43.6,4.7 43.6,4 50.5,0 51.1,0.4 51.1,0.4 51.3,0.5 			"/>
			<g>
				<polygon class="st5" points="51.6,12.2 50.2,12.9 50.2,7.3 51.6,6.6 				"/>
				<polygon class="st3" points="47.6,14.5 46.3,15.2 46.3,6.3 47.6,5.6 				"/>
				<polygon class="st2" points="45.6,15.6 44.3,16.4 44.3,8.7 45.6,8 				"/>
				<polygon class="st2" points="49.6,13.3 48.3,14.1 48.3,6.8 49.6,6.1 				"/>
			</g>
			<polygon class="st2" points="50.4,2.6 45,5.7 45,4.7 50.4,1.5 			"/>
		</g>
		<g>
			<polygon class="st1" points="8.7,41.6 8.7,41.9 8.7,42.1 8.7,43.3 8.7,43.5 8.7,44.7 8.7,45 8.7,46.1 8.7,46.4 8.7,47.6 
				8.7,47.8 8.7,49 8.7,49.2 8.7,50.4 8.7,50.7 8.7,51.8 8.7,52.1 8.7,53 0,58 0,57.1 0,56.9 0,55.7 0,55.4 0,54.3 0,54 0,52.8 
				0,52.6 0,51.4 0,51.2 0,50 0,49.7 0,48.6 0,48.3 0,47.1 0,46.9 0,45.7 0,45.4 0,44.5 6.9,40.6 7.7,41 7.9,41.1 			"/>
			<g>
				<path class="st5" d="M1.9,50.8c0.6,0.5,1.5,0.6,2.5,0l0-3.5L1.9,50.8z"/>
				<path class="st3" d="M4.4,47.2l-2.8,0.3c-0.1,0.5-0.2,1-0.2,1.5c0,0.8,0.2,1.4,0.6,1.8L4.4,47.2L4.4,47.2z"/>
				<path class="st2" d="M6.9,43.7l-2.5,3.5l2.8-0.3c0.1-0.5,0.2-1,0.2-1.5C7.5,44.7,7.2,44.1,6.9,43.7z"/>
				<polygon class="st6" points="4.4,47.2 4.4,47.2 4.4,47.2 				"/>
				<path class="st2" d="M4.4,47.2l2.5-3.5c-0.6-0.5-1.5-0.6-2.5,0V47.2L4.4,47.2z"/>
				<path class="st3" d="M4.4,43.7C3.1,44.4,2,46,1.6,47.5l2.8-0.3V43.7z"/>
				<path class="st5" d="M4.4,47.2l0,3.5c1.3-0.7,2.4-2.3,2.8-3.8L4.4,47.2L4.4,47.2z"/>
			</g>
			<g>
				<polygon class="st2" points="6.9,50.3 0.8,53.8 0.8,54.4 6.9,50.9 				"/>
				<polygon class="st2" points="7.4,50 7.4,50.6 8,50.3 8,49.7 				"/>
				<polygon class="st2" points="6.9,51.5 0.8,55 0.8,55.6 6.9,52.1 				"/>
				<polygon class="st2" points="7.4,51.2 7.4,51.8 8,51.5 8,50.9 				"/>
				<polygon class="st2" points="6.9,52.7 0.8,56.2 0.8,56.8 6.9,53.3 				"/>
				<polygon class="st2" points="7.4,52.4 7.4,53 8,52.7 8,52.1 				"/>
			</g>
		</g>
		<g>
			<polygon class="st1" points="19.7,35.3 19.7,35.5 19.7,35.8 19.7,36.9 19.7,37.2 19.7,38.3 19.7,38.6 19.7,39.8 19.7,40 
				19.7,41.2 19.7,41.5 19.7,42.6 19.7,42.9 19.7,44 19.7,44.3 19.7,45.5 19.7,45.7 19.7,46.7 11,51.6 11,50.8 11,50.5 11,49.3 
				11,49.1 11,47.9 11,47.6 11,46.5 11,46.2 11,45.1 11,44.8 11,43.6 11,43.4 11,42.2 11,41.9 11,40.8 11,40.5 11,39.4 11,39.1 
				11,38.2 17.9,34.2 18.7,34.7 18.9,34.8 			"/>
			<g>
				<polygon class="st2" points="12.7,41.4 12,41.8 12,39 12.7,38.6 				"/>
				<polygon class="st2" points="13.7,40.8 13,41.2 13,39.6 13.7,39.2 				"/>
				<polygon class="st2" points="17.9,38.4 17.2,38.8 17.2,37.1 17.9,36.7 				"/>
				<polygon class="st2" points="15.8,39.6 15.1,40 15.1,39.4 15.8,39 				"/>
				<polygon class="st2" points="18.9,37.8 18.2,38.2 18.2,36.8 18.9,36.4 				"/>
				<polygon class="st2" points="14.8,40.2 14.1,40.6 14.1,38.4 14.8,38 				"/>
				<polygon class="st2" points="16.8,39 16.1,39.4 16.1,36.5 16.8,36.1 				"/>
			</g>
			<g>
				<polygon class="st3" points="12.7,45.6 12,46 12,44.5 12.7,44.1 				"/>
				<polygon class="st3" points="13.7,45 13,45.4 13,44.9 13.7,44.5 				"/>
				<polygon class="st3" points="17.9,42.6 17.2,43 17.2,40.5 17.9,40.1 				"/>
				<polygon class="st3" points="15.8,43.8 15.1,44.2 15.1,43.1 15.8,42.7 				"/>
				<polygon class="st3" points="18.9,42 18.2,42.4 18.2,41.5 18.9,41.1 				"/>
				<polygon class="st3" points="14.8,44.4 14.1,44.8 14.1,41.9 14.8,41.5 				"/>
				<polygon class="st3" points="16.8,43.2 16.1,43.6 16.1,41.7 16.8,41.3 				"/>
			</g>
			<g>
				<polygon class="st5" points="12.7,49.7 12,50.1 12,49 12.7,48.6 				"/>
				<polygon class="st5" points="13.7,49.1 13,49.5 13,46.5 13.7,46.1 				"/>
				<polygon class="st5" points="17.9,46.7 17.2,47.1 17.2,46.5 17.9,46.1 				"/>
				<polygon class="st5" points="15.8,47.9 15.1,48.3 15.1,46 15.8,45.6 				"/>
				<polygon class="st5" points="18.9,46.1 18.2,46.5 18.2,45.1 18.9,44.7 				"/>
				<polygon class="st5" points="14.8,48.5 14.1,48.9 14.1,47.2 14.8,46.8 				"/>
				<polygon class="st5" points="16.8,47.3 16.1,47.7 16.1,46.2 16.8,45.8 				"/>
			</g>
		</g>
	</g>
	<g>
		<g>
			<g>
				<path class="st7" d="M62.1,63.5c0.6,0,1.3,0.3,1.9,0.1c0.1,0,0.2-0.1,0.3-0.1c0.3,0,0.3,0.4,0.4,0.7c0.1,0.4,0.2,0.7,0.2,1.1
					c0,0.8,0,1.6-0.2,2.4c-0.1,0.2-0.2,0.4-0.3,0.4c-0.1,0-0.2-0.1-0.4-0.1c-0.2,0-0.2,0.4-0.3,0.6c-0.2,0.3-0.8,0.3-0.9-0.1
					c-0.1,0.3-0.2,0.6-0.5,0.7c-0.3,0.1-0.7,0-0.7-0.3c0,0.3-0.3,0.6-0.7,0.6c-0.3,0-0.6-0.4-0.6-0.7c0-0.3,0.2-0.5,0.3-0.7
					c0.4-0.9-0.2-1.9-0.1-2.9c0-0.4,0.2-0.8,0.5-1.2C61.2,63.8,61.7,63.6,62.1,63.5C62.1,63.5,62.1,63.5,62.1,63.5z"/>
				<path class="st7" d="M61,64.1c-0.8,0.7-1.5,2-1.6,3c0,0.2,0,0.3,0.1,0.5c0.1,0.1,0.2,0.3,0.4,0.3c0.2,0,0.3-0.1,0.4-0.3
					c0.1-0.1,0.1-0.3,0.1-0.5c0,0,0-0.1,0-0.1c0.4-0.5,0.9-0.9,1.3-1.4L61,64.1z"/>
			</g>
			<path class="st1" d="M61.7,62.3c0,0.4,0,0.7,0,1c0,0.9,0.6,1.1,1.3,1.2c0.7,0,1.3-0.1,1.6-1.3c0.1-0.3,0.1-0.6,0.2-0.8
				C63.9,63,62.6,62.8,61.7,62.3z"/>
			<path class="st8" d="M65.4,55.3c0.4-0.8-0.5-8.6-0.5-9c0-0.1-0.1-1.7-0.3-1.7l-4.6,0c0,0.7,0.2,1.4,0.2,2c0.1,1,1.1,9.2,1.5,10.1
				C62.9,59,64.7,56.7,65.4,55.3z"/>
			<path class="st6" d="M62.4,39c1.7-0.2,2.3,1.5,2.6,2.7c0.4,1.6,0.5,3.4,0.3,5.1c0,0.4-0.1,0.9-0.3,1.2c-0.2,0.3-0.4,0.6-0.7,0.8
				c-0.6,0.6-1.4,1.1-2.2,1c-0.3,0-0.5-0.1-0.8-0.2c-0.3-0.1-0.7-0.3-0.9-0.5c-0.4-0.4-0.5-1.1-0.5-1.7c-0.1-1.5-0.2-3,0-4.6
				C60,41.3,60.3,39.3,62.4,39z"/>
			<path class="st6" d="M64.8,62.6c-0.2,0.9-0.9,0.9-1.6,0.9c-0.7-0.1-1.4-0.2-1.5-1.5c-0.2-2.6-0.2-3.6-0.4-5.8
				c0-0.5-0.2-1.5,0.1-2c0,0,0-0.1,0.1-0.1c0.2-0.2,0.6-0.1,0.8,0c1.5,0.2,2.1-1.7,3.4-1.6c0.4,0.1,0.3,1.7,0.3,2.1
				c0,0.5-0.1,1-0.1,1.6c-0.1,0.6-0.1,1.2-0.2,1.7c-0.1,0.6-0.2,1.2-0.3,1.7c-0.1,0.5-0.2,1.1-0.3,1.6
				C64.9,61.7,64.8,62.2,64.8,62.6z"/>
		</g>
		<g>
			<g>
				<g>
					<defs>
						<path id="SVGID_00000041276259958990147210000000465832452436505509_" d="M52.6,81.4l0.3-0.2c0.3-0.1,0.6-0.1,1,0.1l-0.3,0.2
							C53.2,81.3,52.8,81.3,52.6,81.4z"/>
					</defs>
					<use xlink:href="#SVGID_00000041276259958990147210000000465832452436505509_"  style="overflow:visible;fill:#4C1F8C;"/>
					<clipPath id="SVGID_00000131330088632676660150000004604847723050184856_">
						<use xlink:href="#SVGID_00000041276259958990147210000000465832452436505509_"  style="overflow:visible;"/>
					</clipPath>
					<g style="clip-path:url(#SVGID_00000131330088632676660150000004604847723050184856_);enable-background:new    ;">
						<path class="st1" d="M52.6,81.4l0.3-0.2c0.1-0.1,0.3-0.1,0.4-0.1L53,81.4C52.9,81.3,52.7,81.4,52.6,81.4L52.6,81.4z"/>
						<path class="st1" d="M53,81.4l0.3-0.2c0.1,0,0.2,0,0.3,0.1l-0.3,0.2C53.2,81.4,53.1,81.4,53,81.4L53,81.4z"/>
						<path class="st1" d="M53.3,81.4l0.3-0.2c0.1,0,0.2,0.1,0.3,0.1l-0.3,0.2C53.5,81.5,53.4,81.5,53.3,81.4L53.3,81.4z"/>
					</g>
				</g>
				<g>
					<defs>
						<path id="SVGID_00000145060869692501947620000007474395916400317091_" d="M54.7,84.6l-0.3,0.2c0.3-0.1,0.4-0.4,0.4-0.9
							c0-0.9-0.5-1.9-1.3-2.4l0.3-0.2c0.7,0.5,1.3,1.5,1.3,2.4C55.2,84.2,55,84.5,54.7,84.6z"/>
					</defs>
					<use xlink:href="#SVGID_00000145060869692501947620000007474395916400317091_"  style="overflow:visible;fill:#4C1F8C;"/>
					<clipPath id="SVGID_00000160889711131143109550000017564836043078607502_">
						<use xlink:href="#SVGID_00000145060869692501947620000007474395916400317091_"  style="overflow:visible;"/>
					</clipPath>
					<g style="clip-path:url(#SVGID_00000160889711131143109550000017564836043078607502_);enable-background:new    ;">
						<path class="st1" d="M53.6,81.6l0.3-0.2c0,0,0,0,0,0L53.6,81.6C53.6,81.6,53.6,81.6,53.6,81.6L53.6,81.6z"/>
						<path class="st1" d="M53.6,81.6l0.3-0.2c0.1,0.1,0.2,0.1,0.3,0.2l-0.3,0.2C53.8,81.7,53.7,81.6,53.6,81.6L53.6,81.6z"/>
						<path class="st1" d="M53.9,81.8l0.3-0.2c0.1,0.1,0.2,0.2,0.3,0.3l-0.3,0.2C54,82,54,81.9,53.9,81.8L53.9,81.8z"/>
						<path class="st1" d="M54.1,82.1l0.3-0.2c0.2,0.3,0.4,0.5,0.5,0.9l-0.3,0.2C54.5,82.6,54.3,82.3,54.1,82.1L54.1,82.1z"/>
						<path class="st1" d="M54.6,82.9l0.3-0.2c0,0.1,0.1,0.2,0.1,0.3l-0.3,0.2C54.7,83.2,54.7,83.1,54.6,82.9L54.6,82.9z"/>
						<path class="st1" d="M54.7,83.3l0.3-0.2c0,0.1,0.1,0.2,0.1,0.4l-0.3,0.2C54.8,83.5,54.8,83.4,54.7,83.3L54.7,83.3z"/>
						<path class="st1" d="M54.8,83.6l0.3-0.2c0,0.1,0,0.2,0,0.3c0,0,0,0,0,0L54.8,84c0,0,0,0,0,0C54.8,83.9,54.8,83.8,54.8,83.6
							L54.8,83.6z"/>
						<path class="st1" d="M54.8,84l0.3-0.2c0,0.1,0,0.2,0,0.3l-0.3,0.2C54.8,84.2,54.8,84.1,54.8,84L54.8,84z"/>
						<path class="st1" d="M55.1,83.4l0.4-0.2c-0.1,0.3-0.2,0.4-0.4,0.5l-0.4,0.2C54.9,83.8,55,83.6,55.1,83.4L55.1,83.4z"/>
					</g>
				</g>
				<g>
					<path class="st11" d="M53.6,81.6c0.7,0.5,1.3,1.5,1.3,2.4c0,0.9-0.7,1.2-1.4,0.7c-0.7-0.5-1.3-1.5-1.3-2.4
						C52.2,81.4,52.8,81.1,53.6,81.6z"/>
				</g>
			</g>
			<g>
				<path class="st1" d="M53.5,82c0.5,0.3,1,1.1,0.9,1.8c0,0.6-0.5,0.9-1,0.5c-0.5-0.3-1-1.1-0.9-1.8C52.5,81.9,52.9,81.6,53.5,82z"
					/>
			</g>
			<g>
				<g>
					<path class="st11" d="M53.5,82.5c0.3,0.2,0.6,0.7,0.5,1c0,0.4-0.3,0.5-0.6,0.3c-0.3-0.2-0.6-0.7-0.5-1
						C52.9,82.4,53.1,82.3,53.5,82.5z"/>
				</g>
			</g>
		</g>
		<g>
			<g>
				<g>
					<defs>
						<path id="SVGID_00000015326434714473584880000004784154229888673461_" d="M61.1,77.3l0.3-0.2c0.3-0.1,0.6-0.1,1,0.1L62,77.4
							C61.7,77.2,61.3,77.2,61.1,77.3z"/>
					</defs>
					<use xlink:href="#SVGID_00000015326434714473584880000004784154229888673461_"  style="overflow:visible;fill:#4C1F8C;"/>
					<clipPath id="SVGID_00000111160481723837287130000014347619300541448835_">
						<use xlink:href="#SVGID_00000015326434714473584880000004784154229888673461_"  style="overflow:visible;"/>
					</clipPath>
					<g style="clip-path:url(#SVGID_00000111160481723837287130000014347619300541448835_);enable-background:new    ;">
						<path class="st1" d="M61.1,77.3l0.3-0.2c0.1-0.1,0.3-0.1,0.4-0.1l-0.3,0.2C61.3,77.2,61.2,77.2,61.1,77.3L61.1,77.3z"/>
						<path class="st1" d="M61.5,77.2l0.3-0.2c0.1,0,0.2,0,0.3,0.1l-0.3,0.2C61.7,77.2,61.6,77.2,61.5,77.2L61.5,77.2z"/>
						<path class="st1" d="M61.8,77.3l0.3-0.2c0.1,0,0.2,0.1,0.3,0.1L62,77.4C61.9,77.4,61.9,77.3,61.8,77.3L61.8,77.3z"/>
					</g>
				</g>
				<g>
					<defs>
						<path id="SVGID_00000045616458686625148850000017696804990958080957_" d="M63.2,80.5l-0.3,0.2c0.3-0.1,0.4-0.4,0.4-0.9
							c0-0.9-0.5-1.9-1.3-2.4l0.3-0.2c0.7,0.5,1.3,1.5,1.3,2.4C63.6,80.1,63.5,80.4,63.2,80.5z"/>
					</defs>
					<use xlink:href="#SVGID_00000045616458686625148850000017696804990958080957_"  style="overflow:visible;fill:#4C1F8C;"/>
					<clipPath id="SVGID_00000053515983397449388080000000187498338594521787_">
						<use xlink:href="#SVGID_00000045616458686625148850000017696804990958080957_"  style="overflow:visible;"/>
					</clipPath>
					<g style="clip-path:url(#SVGID_00000053515983397449388080000000187498338594521787_);enable-background:new    ;">
						<path class="st1" d="M62,77.4l0.3-0.2c0,0,0,0,0,0L62,77.4C62,77.4,62,77.4,62,77.4L62,77.4z"/>
						<path class="st1" d="M62,77.4l0.3-0.2c0.1,0.1,0.2,0.1,0.3,0.2l-0.3,0.2C62.2,77.6,62.1,77.5,62,77.4L62,77.4z"/>
						<path class="st1" d="M62.3,77.7l0.3-0.2c0.1,0.1,0.2,0.2,0.3,0.3l-0.3,0.2C62.5,77.8,62.4,77.7,62.3,77.7L62.3,77.7z"/>
						<path class="st1" d="M62.6,77.9l0.3-0.2c0.2,0.3,0.4,0.5,0.5,0.9l-0.3,0.2C63,78.5,62.8,78.2,62.6,77.9L62.6,77.9z"/>
						<path class="st1" d="M63.1,78.8l0.3-0.2c0,0.1,0.1,0.2,0.1,0.3l-0.3,0.2C63.2,79,63.2,78.9,63.1,78.8L63.1,78.8z"/>
						<path class="st1" d="M63.2,79.1l0.3-0.2c0,0.1,0.1,0.2,0.1,0.4l-0.3,0.2C63.3,79.4,63.3,79.3,63.2,79.1L63.2,79.1z"/>
						<path class="st1" d="M63.3,79.5l0.3-0.2c0,0.1,0,0.2,0,0.3c0,0,0,0,0,0l-0.3,0.2c0,0,0,0,0,0C63.3,79.7,63.3,79.6,63.3,79.5
							L63.3,79.5z"/>
						<path class="st1" d="M63.3,79.8l0.3-0.2c0,0.1,0,0.2,0,0.3l-0.3,0.2C63.3,80.1,63.3,80,63.3,79.8L63.3,79.8z"/>
						<path class="st1" d="M63.6,79.2l0.4-0.2c-0.1,0.3-0.2,0.4-0.4,0.5l-0.4,0.2C63.3,79.7,63.5,79.5,63.6,79.2L63.6,79.2z"/>
					</g>
				</g>
				<g>
					<path class="st11" d="M62,77.4c0.7,0.5,1.3,1.5,1.3,2.4c0,0.9-0.7,1.2-1.4,0.7c-0.7-0.5-1.3-1.5-1.3-2.4
						C60.7,77.3,61.3,77,62,77.4z"/>
				</g>
			</g>
			<g>
				<path class="st1" d="M62,77.8c0.5,0.3,1,1.1,0.9,1.8c0,0.6-0.5,0.9-1,0.5c-0.5-0.3-1-1.1-0.9-1.8C60.9,77.7,61.4,77.5,62,77.8z"
					/>
			</g>
			<g>
				<g>
					<path class="st14" d="M61.9,78.3c0.3,0.2,0.6,0.7,0.5,1c0,0.4-0.3,0.5-0.6,0.3c-0.3-0.2-0.6-0.7-0.5-1
						C61.4,78.3,61.6,78.1,61.9,78.3z"/>
				</g>
			</g>
		</g>
		<path class="st7" d="M35,48.9c-0.7-1-1.3-2.1-2.1-2.9c-0.3-0.3-0.6-0.6-1-0.8c-0.1-0.1-0.3-0.2-0.4-0.2c-0.2,0-0.3,0-0.5,0.1
			c-0.1,0.1-0.2,0.3-0.1,0.4c-0.2,0-0.5,0-0.6,0.2c-0.2,0.1-0.2,0.4-0.2,0.6c-0.2-0.1-0.5,0-0.7,0.3c-0.1,0.2-0.1,0.5,0,0.7
			c-0.2,0-0.4,0.2-0.5,0.5c0,0.2,0.1,0.5,0.3,0.7c1.2,1.6,3,2.3,4.4,3.6c0.3-0.2,0.5-0.4,0.6-0.7c0.1-0.4,0.3-0.8,0.6-1.1L35,48.9z"
			/>
		<path class="st7" d="M32.5,45.6c-1.1-0.9-2.4-1.9-3.6-2.7c-0.1-0.1-0.3-0.2-0.4-0.2c-0.1,0-0.3,0-0.4,0.1C28.1,42.9,28,43,28,43.1
			c0,0.3,0.3,0.5,0.6,0.8c0.9,0.8,1.6,1.4,2.5,2c0.1,0,0,0.2,0.1,0.2c0.2,0,0.3-0.2,0.3-0.4c0-0.2-0.1-0.3-0.2-0.5L32.5,45.6z"/>
		<path class="st7" d="M34.6,47.1c-0.1-0.3-0.3-0.5-0.5-0.7c-0.4-0.3-0.9-0.3-1.3-0.4c0,0.4,0.2,0.8,0.4,1.1
			c0.2,0.3,0.5,0.6,0.7,0.9c0.2,0.2,0.3,0.5,0.5,0.7c0.1,0.1,0.3,1.4,0.5,1.3c0.2-0.1,0.4-0.5,0.4-0.6
			C35.2,48.9,34.9,47.6,34.6,47.1z"/>
		<path class="st1" d="M50.3,29.7c-0.3,0.2-0.5,0.3-0.7,0.5c0.2,0.1,0.3,0.2,0.4,0.3c0.2-0.2,0.4-0.4,0.7-0.6c1.4-0.8,3.8-0.8,5.2,0
			l0.4-0.2C54.6,28.7,51.9,28.7,50.3,29.7z"/>
		<path class="st1" d="M55.9,29.9l0,1.9c-1.4-0.8-3.8-0.8-5.2,0c-0.7,0.4-1.1,1-1.1,1.5l0-1.9c0-0.5,0.4-1.1,1.1-1.5
			C52.1,29.1,54.5,29.1,55.9,29.9L55.9,29.9z"/>
		<path class="st1" d="M60.6,74.3c0.2,0,0.4,0.1,0.6,0.2c0.3,0.1,0.5,0.4,0.7,0.6c0.4,0.5,0.9-0.4,1.1,0.2c0.2,0.5-0.3,3.7-0.3,4.3
			c-0.1,0.9-0.2,3.2-0.7,3.8c-0.7,0.7-1.9-1-2.8-1.2c-0.2,0-0.3-0.1-0.5-0.1c-1-0.4-1.5-0.4-1.7-1.5c-0.2-1.5-0.8-3.8-0.2-5
			c0.4-0.7,1.1-1.1,1.8-1.3c0.6-0.2,1.3-0.2,1.9-0.1C60.4,74.3,60.5,74.3,60.6,74.3z"/>
		<g>
			<g id="man_22_">
				<g>
					<g>
						<g>
							<g>
								<g>
									<path class="st15" d="M61.5,97c-0.2-0.7-1.3-0.3-1.7-0.5c-0.8-0.4-1.5-1.3-2.2-1.8c-0.8-0.6-1.6-0.9-2.5-1.3
										c-0.4-0.2-0.7-0.3-1.1-0.3c-1.1,0-1.9,1.4-1.8,2.4c0,0.5,0.3,0.9,0.7,1.3c0.6,0.5,1.4,1,2.1,1.1c0.8,0.2,1.5,0.5,2.1,1
										c0.8,0.7,1.3,1.4,2.4,1.6c1.1,0.2,2.1-0.4,2.2-1.6c0-0.4,0-0.8,0-1.2C61.5,97.3,61.5,97.1,61.5,97z"/>
								</g>
							</g>
						</g>
					</g>
				</g>
			</g>
			<g id="man_11_">
				<g>
					<g>
						<g>
							<path class="st6" d="M61.6,96.8c-0.2-0.6-1.2-0.3-1.7-0.5c-0.8-0.4-1.4-1.2-2.1-1.7c-0.7-0.5-1.6-0.9-2.4-1.2
								C55,93.2,54.7,93,54.3,93c-1,0-1.8,1.4-1.7,2.3c0,0.5,0.3,0.9,0.7,1.2c0.5,0.5,1.3,0.9,2,1.1c0.8,0.2,1.4,0.5,2,1
								c0.7,0.7,1.3,1.4,2.3,1.5c1,0.2,2-0.4,2.1-1.5c0-0.4,0-0.8,0-1.2C61.6,97.1,61.6,96.9,61.6,96.8z"/>
						</g>
					</g>
				</g>
			</g>
			<path class="st1" d="M58.8,93.1c-0.1,0-0.2,0.1-0.3,0.2c-0.1,0.1-0.3,0.3-0.4,0.4c-0.2,0.4-0.2-0.1-0.3,0.4
				c0,0.3,0.2,2.2,0.3,2.5c0.1,0.6,0.8,1.3,2.3,1c0.8-0.1,1.1-0.5,1.1-1.2c0-1,0.2-2.2-0.3-2.9C61,93.2,60.5,93,60.1,93
				c-0.4-0.1-0.8,0-1.1,0.1C58.9,93.1,58.9,93.1,58.8,93.1z"/>
			<path class="st6" d="M57.7,95c0.1,2.4,2.6,2.6,3.7,1.5c0.6-0.5,0.4-1.2,0.6-1.9c0.3-1.3,0.7-4.8,1.3-8.3c0.7-4.4-0.7-6.3-0.7-6.4
				c-0.2,0.6-0.6,1.4-1.2,1.6c-1.4,0.6-3.7,0.6-4.4-1C56.5,83,57.4,88.7,57.7,95z"/>
			<g>
				<path class="st8" d="M63.1,66c0,0.6,0,1.1,0,1.7c0,1.9-0.1,4.5-0.2,6.5c-0.1,1.1,0,3-0.8,3.9c-0.7,0.9-1.8,1.4-3,1.3
					c-0.4,0-0.7-0.1-1-0.4c-0.6-0.5-1.1-0.4-1.2-1.2c-0.9-7.7-0.8-7.1-0.7-10c0-0.7-0.5-2.2-0.4-3.3c0.1-1.2,1.5-3.1,1.9-3.7
					C59.6,58.1,63.3,61.9,63.1,66z"/>
				<path class="st6" d="M63.1,65.2c-0.4,1.1-2.2,2.9-3.4,3.7c-1.8,1.2-3.9,1.6-3.8,2.7c0.1,2.1,0.4,6.9,0.5,7.7
					c0.1,0.7,0.5,1.9,4.1,1.2c2-0.4,2.2-2.2,2.5-4.1C64.1,67.6,63.2,65.5,63.1,65.2z"/>
			</g>
		</g>
		<path class="st1" d="M61.3,80.9v3.9c0,0.4,0.3,0.6,0.6,0.4l0,0c0.3-0.2,0.6-0.7,0.6-1.1V80L61.3,80.9z"/>
		<path class="st1" d="M51.6,78.2c0.2,0,0.4,0.1,0.6,0.2c0.3,0.1,0.5,0.4,0.7,0.6c0.4,0.5,0.9-0.4,1.1,0.2c0.2,0.5-0.3,3.7-0.3,4.3
			c-0.1,0.9-0.2,3.2-0.7,3.8c-0.7,0.7-1.9-1-2.8-1.2c-0.2,0-0.3-0.1-0.5-0.1c-1-0.4-1.5-0.4-1.7-1.5c-0.2-1.5-0.8-3.8-0.2-5
			c0.4-0.7,1.1-1.1,1.8-1.3c0.6-0.2,1.3-0.2,1.9-0.1C51.5,78.1,51.6,78.2,51.6,78.2z"/>
		
			<linearGradient id="SVGID_00000052088894392233407180000016150164507255594663_" gradientUnits="userSpaceOnUse" x1="49.8921" y1="42.7631" x2="62.4392" y2="64.4952">
			<stop  offset="0" style="stop-color:#AC44EE"/>
			<stop  offset="0.3072" style="stop-color:#8334C4"/>
			<stop  offset="0.5912" style="stop-color:#6529A6"/>
			<stop  offset="0.8318" style="stop-color:#532293"/>
			<stop  offset="1" style="stop-color:#4C1F8C"/>
		</linearGradient>
		<path style="fill:url(#SVGID_00000052088894392233407180000016150164507255594663_);" d="M63.7,45.3c0.3-2.3,0.5-4.2-1.5-5.4
			c-2.6-1.5-5.1,0-7.5,0.9c-2.4,0.9-6,1.8-6.5,2.5c-1.8,2.6,2.6,9.2,1.4,19.1c-0.2,1.3-1.9,3.9,0.7,5.2c5.8,2.9,12.1-2.5,12-5
			C61.6,49.4,63.1,50.1,63.7,45.3z"/>
		
			<linearGradient id="SVGID_00000062177550352527391490000014039960591426675103_" gradientUnits="userSpaceOnUse" x1="53.7599" y1="42.2045" x2="62.3465" y2="52.2041">
			<stop  offset="0" style="stop-color:#E8E9FC"/>
			<stop  offset="1" style="stop-color:#D3D4EC"/>
		</linearGradient>
		<path style="fill:url(#SVGID_00000062177550352527391490000014039960591426675103_);" d="M52.5,46c-0.3-3.1-2.2-3.1-3.7-2.5
			c-0.5,0.2-1,0.5-1,0.5s0-1.1,1.3-2c0.4-0.3,2.3-1.1,2.8-1.4c1-0.5,1.9-0.9,2.9-1.3c1.1-0.5,2.2-0.9,3.4-1c1.6-0.2,3.3,0.1,4.5,1.3
			c1.2,1.1,1.5,3.1,1.4,4.5c-0.3,2.6-1.6,7.9-1.6,7.9s-0.6,0.4-1.1,0.7c-4.5,2.4-6.6,3.8-7,3.4C54.1,55.7,52.6,46.9,52.5,46z"/>
		<path class="st7" d="M60.8,66.9c-1.3,1.2-3.2,2.2-4.7,2.5c-2.2,0.5-4.4-0.3-6.1-1.7c-0.8-0.6-1.3-0.9-1.7-1.8
			c-0.3-0.7,1.3-3.5,1.3-3.5c0.5,0.3,0.9,0.6,1.4,0.9c2.5,1.4,6.5,1.3,9,0c2-1,2.1-3.5,2.1-3.5S63.3,64.5,60.8,66.9z"/>
		<path class="st1" d="M53.6,38c-0.1-0.7-0.6-0.5-0.3-1.2c0.2-0.6,0.6-1.1,1-1.4c0.5-0.4,1-0.6,1.6-0.6c0.2,0,0.3,0.1,0.5,0.1
			c0.5,0,1.1-0.1,1.6,0c0.5,0.1,1.6-0.1,1.6,0.5c0,3.1-0.1,2.9,0,4c0.1,1.1-0.9,3-4.4,2.5C52.4,41.5,53.9,40.3,53.6,38z"/>
		<g>
			<g id="man_21_">
				<g>
					<g>
						<g>
							<path class="st15" d="M52.5,101.2c-0.3-0.6-1.3,0-1.7-0.1c-0.9-0.1-1.7-0.8-2.5-1.1c-0.9-0.3-1.8-0.4-2.7-0.6
								c-0.4-0.1-0.9-0.3-1.2-0.2c-1,0.2-1.3,2-1,2.9c0.2,0.5,0.6,0.8,1,1c0.6,0.3,1.5,0.5,2.2,0.5c0.8,0,1.5,0.1,2.2,0.4
								c0.9,0.5,1.6,1,2.7,0.9c1.1-0.1,1.8-0.9,1.6-2c-0.1-0.4-0.2-0.8-0.3-1.1C52.6,101.5,52.5,101.3,52.5,101.2z"/>
						</g>
					</g>
				</g>
			</g>
			<g id="man_12_">
				<g>
					<g>
						<g>
							<path class="st14" d="M52.5,100.9c-0.3-0.6-1.3,0-1.7-0.1c-0.9-0.1-1.7-0.8-2.5-1.1c-0.8-0.3-1.8-0.4-2.7-0.6
								c-0.4-0.1-0.8-0.1-1.1,0c-1,0.2-1.4,1.8-1,2.6c0.2,0.5,0.6,0.8,1,1c0.6,0.3,1.5,0.5,2.2,0.5c0.8,0,1.5,0.1,2.2,0.4
								c0.9,0.5,1.6,1,2.6,0.9c1.1-0.1,1.8-0.9,1.6-2c-0.1-0.4-0.2-0.8-0.3-1.1C52.6,101.2,52.5,101,52.5,100.9z"/>
						</g>
					</g>
				</g>
			</g>
			<path class="st1" d="M49.9,97.1c-0.1,0-0.2,0.1-0.3,0.2c-0.1,0.1-0.3,0.3-0.4,0.4c-0.2,0.4-0.2-0.1-0.3,0.4
				c0,0.3,0.2,2.2,0.3,2.5c0.1,0.6,0.8,1.3,2.3,1c0.8-0.1,1.1-0.5,1.1-1.2c0-1,0.2-2.2-0.3-2.9c-0.3-0.4-0.8-0.5-1.2-0.6
				c-0.4-0.1-0.8,0-1.1,0.1C50,97.1,50,97.1,49.9,97.1z"/>
			
				<linearGradient id="SVGID_00000054983467559222626990000013489247483824901007_" gradientUnits="userSpaceOnUse" x1="47.7774" y1="89.91" x2="61.3746" y2="98.0683">
				<stop  offset="0" style="stop-color:#E8E9FC"/>
				<stop  offset="1" style="stop-color:#D3D4EC"/>
			</linearGradient>
			<path style="fill:url(#SVGID_00000054983467559222626990000013489247483824901007_);" d="M48.8,98.9c0.1,2.4,2.6,2.6,3.7,1.5
				c0.6-0.5,0.4-1.2,0.6-1.9c0.3-1.3,1-4.9,1.6-8.4c0.1-0.7,0.2-1.3,0.2-1.8c0.1-3.1-1.2-4.4-1.2-4.4c-0.2,0.6-0.6,1.4-1.2,1.6
				c-1.4,0.6-3.7,0.6-4.4-1C47.6,86.9,48.5,92.6,48.8,98.9z"/>
			<g>
				<path class="st8" d="M54.6,70c0,0.6-0.1,1.1-0.1,1.7c-0.1,1.9-0.2,4.5-0.4,6.5c-0.1,1.1-0.1,3-0.8,3.9c-0.7,0.9-1.7,1.3-2.8,1.2
					c-0.3,0-0.7-0.1-0.9-0.4c-0.6-0.6-1-0.4-1.1-1.2c-0.6-7.8-0.3-7.3-0.1-10.2c0-0.6-0.7-2-0.6-3.1c0.2-1.2,0.3-2.5,0.7-3.1
					C50.5,62.5,54.4,66.2,54.6,70z"/>
				
					<linearGradient id="SVGID_00000144332371156501412510000010079712875985967501_" gradientUnits="userSpaceOnUse" x1="47.7177" y1="73.9948" x2="55.9488" y2="80.3552">
					<stop  offset="0" style="stop-color:#E8E9FC"/>
					<stop  offset="1" style="stop-color:#D3D4EC"/>
				</linearGradient>
				<path style="fill:url(#SVGID_00000144332371156501412510000010079712875985967501_);" d="M47.3,68.5c-0.7,5.7,0.2,13.3,0.2,13.3
					c0,0.7,0.4,3.3,4.2,2.6c2.2-0.4,2.4-2.2,2.6-4.1c1.2-8.8,0.9-8-0.1-9.2c-0.5-0.6-0.7-1.3-1.1-1.9C52.1,67.7,47.8,64.5,47.3,68.5
					z"/>
			</g>
		</g>
		<path class="st7" d="M56,26c-1.3,0-2.4,0.4-3.4,1v10.1c1,0.6,2.1,1,3.4,1c3.4,0,6.1-2.7,6.1-6.1C62.1,28.8,59.4,26,56,26z"/>
		<g>
			<path class="st7" d="M51.1,28.3c-0.5,0.7-0.8,1.5-0.8,2.4c0,0.4-0.3,4.3-0.2,4.7c0.1,0.2,0.3,2.8,1.2,3.5
				c0.2,0.2,0.5,0.2,0.8,0.3c0.4,0,2.1-0.4,2.7-0.6c0.7-0.3,1.7-0.6,2.2-1.2c0.4-0.4,0.8-1.2,1.1-2.3c0,0,0.8,0.1,1.4-0.8
				c0.8-1.2,1.1-2.2,1.1-3.4c0-1.1-0.1-2-0.7-2.9c-0.5-0.7-1.2-1.3-2-1.7c-1.2-0.5-2.6-0.6-3.9-0.2C52.8,26.6,51.8,27.3,51.1,28.3z"
				/>
		</g>
		<path class="st1" d="M56.9,26.1c-3.3-0.6-5.5,2.6-4.6,4.8c0.6,1.5,3,1.6,3.5,4.6c0.1,0.5-0.2,2.2,0,2.7c1,2.2,4-1.2,4.9-2.3
			c0.9-1.1,1.3-2.4,1.3-3.8c0-1.9-1-3.8-2.5-4.9C58.9,26.7,57.8,26.3,56.9,26.1z"/>
		<path class="st7" d="M55,27.7c-1.1,1.2-0.9,2.8,1.3,4.2c1.8,1.2,0.9,4.4,1.9,6.4c1-0.7,2.1-1.9,2.6-2.5c0.9-1.1,1.3-2.4,1.3-3.8
			c0-1.9-1-3.8-2.5-4.9c-0.5-0.4-1.2-0.7-1.9-0.9C56.7,26.5,55.7,26.9,55,27.7z"/>
		<g>
			<g>
				<g>
					<defs>
						<path id="SVGID_00000115490516258303560830000017800919818774543502_" d="M53.4,32.9l0.4-0.2c0.3-0.1,0.7-0.1,1.1,0.1L54.5,33
							C54,32.8,53.7,32.7,53.4,32.9z"/>
					</defs>
					<use xlink:href="#SVGID_00000115490516258303560830000017800919818774543502_"  style="overflow:visible;fill:#7350BA;"/>
					<clipPath id="SVGID_00000143602615468564033080000016852620293373559169_">
						<use xlink:href="#SVGID_00000115490516258303560830000017800919818774543502_"  style="overflow:visible;"/>
					</clipPath>
					<g style="clip-path:url(#SVGID_00000143602615468564033080000016852620293373559169_);enable-background:new    ;">
						<path class="st8" d="M53.4,32.9l0.4-0.2c0.1-0.1,0.3-0.1,0.5-0.1l-0.4,0.2C53.7,32.8,53.5,32.8,53.4,32.9L53.4,32.9z"/>
						<path class="st8" d="M53.9,32.8l0.4-0.2c0.1,0,0.2,0,0.3,0.1l-0.4,0.2C54.1,32.8,54,32.8,53.9,32.8L53.9,32.8z"/>
						<path class="st8" d="M54.2,32.9l0.4-0.2c0.1,0,0.2,0.1,0.3,0.1L54.5,33C54.4,32.9,54.3,32.9,54.2,32.9L54.2,32.9z"/>
					</g>
				</g>
				<g>
					<defs>
						<path id="SVGID_00000105425097267795765750000012688321097157718666_" d="M55.8,36.4l-0.4,0.2c0.3-0.1,0.5-0.5,0.5-0.9
							c0-1-0.6-2.1-1.4-2.6l0.4-0.2c0.8,0.5,1.4,1.7,1.4,2.6C56.2,35.9,56,36.2,55.8,36.4z"/>
					</defs>
					<use xlink:href="#SVGID_00000105425097267795765750000012688321097157718666_"  style="overflow:visible;fill:#7350BA;"/>
					<clipPath id="SVGID_00000169525503199546502170000003016341055122269839_">
						<use xlink:href="#SVGID_00000105425097267795765750000012688321097157718666_"  style="overflow:visible;"/>
					</clipPath>
					<g style="clip-path:url(#SVGID_00000169525503199546502170000003016341055122269839_);enable-background:new    ;">
						<path class="st8" d="M54.5,33l0.4-0.2c0,0,0,0,0,0L54.5,33C54.5,33,54.5,33,54.5,33L54.5,33z"/>
						<path class="st8" d="M54.5,33l0.4-0.2c0.1,0.1,0.2,0.2,0.3,0.2l-0.4,0.2C54.7,33.2,54.6,33.1,54.5,33L54.5,33z"/>
						<path class="st8" d="M54.8,33.3l0.4-0.2c0.1,0.1,0.2,0.2,0.3,0.3l-0.4,0.2C55,33.5,54.9,33.4,54.8,33.3L54.8,33.3z"/>
						<path class="st8" d="M55.1,33.6l0.4-0.2c0.2,0.3,0.4,0.6,0.5,0.9l-0.4,0.2C55.5,34.2,55.3,33.9,55.1,33.6L55.1,33.6z"/>
						<path class="st8" d="M55.6,34.5l0.4-0.2c0,0.1,0.1,0.3,0.1,0.4l-0.4,0.2C55.7,34.8,55.7,34.6,55.6,34.5L55.6,34.5z"/>
						<path class="st8" d="M55.8,34.9l0.4-0.2c0,0.1,0.1,0.3,0.1,0.4l-0.4,0.2C55.8,35.2,55.8,35,55.8,34.9L55.8,34.9z"/>
						<path class="st8" d="M55.8,35.3l0.4-0.2c0,0.1,0,0.2,0,0.4c0,0,0,0,0,0l-0.4,0.2c0,0,0,0,0,0C55.9,35.5,55.8,35.4,55.8,35.3
							L55.8,35.3z"/>
						<path class="st8" d="M55.8,35.7l0.4-0.2c0,0.1,0,0.2-0.1,0.4L55.8,36C55.8,35.9,55.8,35.8,55.8,35.7L55.8,35.7z"/>
						<path class="st8" d="M56.1,35l0.4-0.2c-0.1,0.3-0.2,0.5-0.4,0.6l-0.4,0.2C55.9,35.5,56,35.3,56.1,35L56.1,35z"/>
					</g>
				</g>
				<g>
					<path class="st14" d="M54.5,33c0.8,0.5,1.4,1.7,1.4,2.6c0,0.9-0.7,1.3-1.5,0.8c-0.8-0.5-1.4-1.7-1.4-2.6
						C53,32.9,53.6,32.5,54.5,33z"/>
				</g>
			</g>
			<g>
				<path class="st8" d="M54.4,33.4c0.6,0.4,1.1,1.3,1,2c0,0.7-0.5,1-1.1,0.6c-0.6-0.4-1.1-1.3-1-2C53.3,33.3,53.8,33.1,54.4,33.4z"
					/>
			</g>
			<g>
				<g>
					<path class="st14" d="M54.4,34c0.3,0.2,0.6,0.7,0.6,1.1c0,0.4-0.3,0.6-0.6,0.3c-0.3-0.2-0.6-0.7-0.6-1.1
						C53.7,33.9,54,33.8,54.4,34z"/>
				</g>
			</g>
		</g>
		<path class="st1" d="M36.5,50.1c-0.4-0.2-0.7-0.4-1-0.6c-0.8-0.5-1.4,0-1.8,0.5c-0.4,0.6-0.6,1.3,0.3,2.2c0.2,0.2,0.4,0.4,0.7,0.6
			C34.6,51.8,35.5,50.7,36.5,50.1z"/>
		<path class="st8" d="M45,58.6c1-0.9,3.7-6.9,3.9-7.2c0.1-0.1,0.8-1.5,0.7-1.6l-3.8-2.6c-0.4,0.6-0.7,1.3-1,1.8
			c-0.5,0.9-2.7,6.7-2.8,7.8C41.7,59.3,43.9,59.6,45,58.6z"/>
		<path class="st7" d="M51.1,43.9c1.6,0.8,1.1,2.6,0.7,3.8c-0.5,1.6-1.5,3.1-2.6,4.4c-0.3,0.3-0.6,0.6-1,0.8c-0.3,0.2-0.7,0.2-1,0.3
			c-0.8,0.1-1.8,0.1-2.5-0.4c-0.2-0.2-0.4-0.4-0.5-0.6c-0.2-0.3-0.4-0.6-0.5-1c-0.1-0.6,0.2-1.2,0.5-1.7c0.7-1.3,1.6-2.6,2.5-3.8
			C47.7,44.5,49.1,42.9,51.1,43.9z"/>
		<path class="st7" d="M34.5,52.7c-0.7-0.6-0.3-1.3,0.1-2c0.4-0.6,1-1.2,2.2-0.6c2.5,1.2,3.4,1.8,5.5,2.8c0.5,0.2,1.5,0.6,1.8,1.1
			c0.3,0.5-0.6,0.9-0.6,1.5c0,0.3,0.4,1,0.6,1.3c0.4,0.7,0,2.1-0.7,2.1C42,59.1,36.8,54.7,34.5,52.7z"/>
		<g>
			<g class="st22">
				<g class="st22">
					<defs>
						<path id="SVGID_00000043436430743043508120000005523676549992193468_" class="st22" d="M49.6,33.3l0-1.9
							c0-0.5,0.4-1.1,1.1-1.5c1.4-0.8,3.8-0.8,5.2,0l0,1.9c-1.4-0.8-3.8-0.8-5.2,0C50,32.2,49.6,32.8,49.6,33.3z"/>
					</defs>
					<clipPath id="SVGID_00000102517849033030325250000017195969776314593152_">
						<use xlink:href="#SVGID_00000043436430743043508120000005523676549992193468_"  style="overflow:visible;"/>
					</clipPath>
				</g>
				<g>
					<polygon class="st6" points="50.8,33 50.8,34.9 50.4,35.2 50.4,33.3 					"/>
				</g>
				<g class="st22">
					<defs>
						<path id="SVGID_00000132051725816480693960000013727528866316308414_" class="st22" d="M49,33.3l0-1.9c0,0.6,0.4,1.3,1.3,1.8
							c0,0,0.1,0,0.1,0.1l0,1.9c0,0-0.1,0-0.1-0.1C49.4,34.6,49,34,49,33.3z"/>
					</defs>
					<clipPath id="SVGID_00000018225835710966724110000017964996348160168872_">
						<use xlink:href="#SVGID_00000132051725816480693960000013727528866316308414_"  style="overflow:visible;"/>
					</clipPath>
					<g style="clip-path:url(#SVGID_00000018225835710966724110000017964996348160168872_);">
						<g>
							<path class="st7" d="M50.4,33.3l0,1.9c0,0-0.1,0-0.1-0.1C49.4,34.6,49,34,49,33.3l0-1.9c0,0.6,0.4,1.3,1.3,1.8
								C50.3,33.2,50.4,33.2,50.4,33.3L50.4,33.3z"/>
						</g>
					</g>
				</g>
				<g>
					<path class="st1" d="M50.3,33.2c0,0,0.1,0,0.1,0.1l0.4-0.2c0,0-0.1,0-0.1-0.1c-1.2-0.7-1.4-1.7-0.7-2.5
						c-0.1-0.1-0.3-0.2-0.4-0.3C48.6,31.2,48.9,32.4,50.3,33.2z"/>
				</g>
			</g>
		</g>
		<path class="st1" d="M52.4,84.8l0,3.9c0,0.4,0.3,0.6,0.6,0.4l0,0c0.3-0.2,0.6-0.7,0.6-1.1l0-4.1L52.4,84.8z"/>
		<path class="st1" d="M52.7,100.3v-2.7c0-0.3-0.2-0.4-0.4-0.3l0,0c-0.2,0.1-0.4,0.5-0.4,0.8v2.9l0.6-0.2L52.7,100.3z"/>
		<path class="st1" d="M61.6,96.5l0-2.5c0-0.3-0.2-0.4-0.4-0.2l0,0c-0.2,0.1-0.4,0.4-0.4,0.7l0,2.6l0.5-0.2L61.6,96.5z"/>
		<g>
			<g>
				<g>
					<defs>
						<path id="SVGID_00000088844214173619072200000008616461284339783862_" d="M47.1,83.1l0.4-0.2c0.3-0.1,0.6-0.1,1.1,0.1
							l-0.4,0.2C47.8,83,47.4,82.9,47.1,83.1z"/>
					</defs>
					<use xlink:href="#SVGID_00000088844214173619072200000008616461284339783862_"  style="overflow:visible;fill:#4C1F8C;"/>
					<clipPath id="SVGID_00000038414913121128905990000006711848006712952716_">
						<use xlink:href="#SVGID_00000088844214173619072200000008616461284339783862_"  style="overflow:visible;"/>
					</clipPath>
					<g style="clip-path:url(#SVGID_00000038414913121128905990000006711848006712952716_);enable-background:new    ;">
						<path class="st1" d="M47.1,83.1l0.4-0.2c0.1-0.1,0.3-0.1,0.5-0.1L47.6,83C47.4,83,47.3,83,47.1,83.1L47.1,83.1z"/>
						<path class="st1" d="M47.6,83l0.4-0.2c0.1,0,0.2,0,0.3,0.1l-0.4,0.2C47.8,83,47.7,83,47.6,83L47.6,83z"/>
						<path class="st1" d="M47.9,83.1l0.4-0.2c0.1,0,0.2,0.1,0.3,0.1l-0.4,0.2C48.1,83.2,48,83.1,47.9,83.1L47.9,83.1z"/>
					</g>
				</g>
				<g>
					<defs>
						<path id="SVGID_00000145765530249871571120000003100608484505975996_" d="M49.5,86.6l-0.4,0.2c0.3-0.1,0.4-0.5,0.5-0.9
							c0-0.9-0.6-2.1-1.4-2.6l0.4-0.2c0.8,0.5,1.4,1.7,1.4,2.6C49.9,86.1,49.7,86.4,49.5,86.6z"/>
					</defs>
					<use xlink:href="#SVGID_00000145765530249871571120000003100608484505975996_"  style="overflow:visible;fill:#4C1F8C;"/>
					<clipPath id="SVGID_00000129921008535497231920000009570739130896122271_">
						<use xlink:href="#SVGID_00000145765530249871571120000003100608484505975996_"  style="overflow:visible;"/>
					</clipPath>
					<g style="clip-path:url(#SVGID_00000129921008535497231920000009570739130896122271_);enable-background:new    ;">
						<path class="st1" d="M48.2,83.2l0.4-0.2c0,0,0,0,0,0L48.2,83.2C48.2,83.2,48.2,83.2,48.2,83.2L48.2,83.2z"/>
						<path class="st1" d="M48.2,83.2l0.4-0.2c0.1,0.1,0.2,0.2,0.3,0.2l-0.4,0.2C48.4,83.4,48.3,83.3,48.2,83.2L48.2,83.2z"/>
						<path class="st1" d="M48.5,83.5l0.4-0.2c0.1,0.1,0.2,0.2,0.3,0.3l-0.4,0.2C48.7,83.7,48.6,83.6,48.5,83.5L48.5,83.5z"/>
						<path class="st1" d="M48.8,83.8l0.4-0.2c0.2,0.3,0.4,0.6,0.5,0.9l-0.4,0.2C49.2,84.4,49,84.1,48.8,83.8L48.8,83.8z"/>
						<path class="st1" d="M49.3,84.7l0.4-0.2c0,0.1,0.1,0.2,0.1,0.4l-0.4,0.2C49.4,85,49.4,84.8,49.3,84.7L49.3,84.7z"/>
						<path class="st1" d="M49.5,85.1l0.4-0.2c0,0.1,0.1,0.3,0.1,0.4l-0.4,0.2C49.5,85.4,49.5,85.2,49.5,85.1L49.5,85.1z"/>
						<path class="st1" d="M49.5,85.5l0.4-0.2c0,0.1,0,0.2,0,0.4c0,0,0,0,0,0l-0.4,0.2c0,0,0,0,0,0C49.6,85.7,49.6,85.6,49.5,85.5
							L49.5,85.5z"/>
						<path class="st1" d="M49.6,85.9l0.4-0.2c0,0.1,0,0.2-0.1,0.4l-0.4,0.2C49.5,86.1,49.6,86,49.6,85.9L49.6,85.9z"/>
						<path class="st1" d="M49.8,85.2l0.4-0.2c-0.1,0.3-0.2,0.5-0.4,0.6l-0.4,0.2C49.6,85.7,49.8,85.5,49.8,85.2L49.8,85.2z"/>
					</g>
				</g>
				<g>
					<path class="st2" d="M48.2,83.2c0.8,0.5,1.4,1.7,1.4,2.6c0,0.9-0.7,1.3-1.5,0.8c-0.8-0.5-1.4-1.7-1.4-2.6
						C46.7,83.1,47.4,82.7,48.2,83.2z"/>
				</g>
			</g>
			<g>
				<path class="st1" d="M48.1,83.7c0.6,0.4,1.1,1.2,1,1.9c0,0.7-0.5,1-1.1,0.6c-0.6-0.4-1.1-1.2-1-1.9C47,83.6,47.5,83.3,48.1,83.7
					z"/>
			</g>
			<g>
				<g>
					<path class="st7" d="M48.1,84.2c0.3,0.2,0.6,0.7,0.6,1.1c0,0.4-0.3,0.5-0.6,0.3c-0.3-0.2-0.6-0.7-0.6-1.1
						C47.4,84.1,47.7,84,48.1,84.2z"/>
				</g>
			</g>
		</g>
		<g>
			<g>
				<g>
					<defs>
						<path id="SVGID_00000124871832723968256260000016202237732063563710_" d="M41.4,55.6l0.4-0.2c0.3-0.1,0.6-0.1,1.1,0.1
							l-0.4,0.2C42.1,55.4,41.7,55.4,41.4,55.6z"/>
					</defs>
					<use xlink:href="#SVGID_00000124871832723968256260000016202237732063563710_"  style="overflow:visible;fill:#4C1F8C;"/>
					<clipPath id="SVGID_00000106856683984208017530000004991274784895398530_">
						<use xlink:href="#SVGID_00000124871832723968256260000016202237732063563710_"  style="overflow:visible;"/>
					</clipPath>
					<g style="clip-path:url(#SVGID_00000106856683984208017530000004991274784895398530_);enable-background:new    ;">
						<path class="st1" d="M41.4,55.6l0.4-0.2c0.1-0.1,0.3-0.1,0.5-0.1l-0.4,0.2C41.7,55.5,41.5,55.5,41.4,55.6L41.4,55.6z"/>
						<path class="st1" d="M41.9,55.5l0.4-0.2c0.1,0,0.2,0,0.3,0.1l-0.4,0.2C42.1,55.5,42,55.5,41.9,55.5L41.9,55.5z"/>
						<path class="st1" d="M42.2,55.6l0.4-0.2c0.1,0,0.2,0.1,0.3,0.1l-0.4,0.2C42.4,55.6,42.3,55.6,42.2,55.6L42.2,55.6z"/>
					</g>
				</g>
				<g>
					<defs>
						<path id="SVGID_00000140692487503289014010000001718915498928205221_" d="M43.7,59.1l-0.4,0.2c0.3-0.1,0.4-0.5,0.5-0.9
							c0-0.9-0.6-2.1-1.4-2.6l0.4-0.2c0.8,0.5,1.4,1.7,1.4,2.6C44.2,58.6,44,58.9,43.7,59.1z"/>
					</defs>
					<use xlink:href="#SVGID_00000140692487503289014010000001718915498928205221_"  style="overflow:visible;fill:#4C1F8C;"/>
					<clipPath id="SVGID_00000058585801028344738340000006781943171057939847_">
						<use xlink:href="#SVGID_00000140692487503289014010000001718915498928205221_"  style="overflow:visible;"/>
					</clipPath>
					<g style="clip-path:url(#SVGID_00000058585801028344738340000006781943171057939847_);enable-background:new    ;">
						<path class="st1" d="M42.5,55.7l0.4-0.2c0,0,0,0,0,0L42.5,55.7C42.5,55.7,42.5,55.7,42.5,55.7L42.5,55.7z"/>
						<path class="st1" d="M42.5,55.7l0.4-0.2c0.1,0.1,0.2,0.2,0.3,0.2L42.8,56C42.7,55.9,42.6,55.8,42.5,55.7L42.5,55.7z"/>
						<path class="st1" d="M42.8,56l0.4-0.2c0.1,0.1,0.2,0.2,0.3,0.3l-0.4,0.2C43,56.2,42.9,56,42.8,56L42.8,56z"/>
						<path class="st1" d="M43.1,56.3l0.4-0.2c0.2,0.3,0.4,0.6,0.5,0.9l-0.4,0.2C43.5,56.9,43.3,56.5,43.1,56.3L43.1,56.3z"/>
						<path class="st1" d="M43.6,57.2L44,57c0,0.1,0.1,0.2,0.1,0.4l-0.4,0.2C43.7,57.4,43.7,57.3,43.6,57.2L43.6,57.2z"/>
						<path class="st1" d="M43.7,57.6l0.4-0.2c0,0.1,0.1,0.3,0.1,0.4L43.8,58C43.8,57.8,43.8,57.7,43.7,57.6L43.7,57.6z"/>
						<path class="st1" d="M43.8,58l0.4-0.2c0,0.1,0,0.2,0,0.4c0,0,0,0,0,0l-0.4,0.2c0,0,0,0,0,0C43.8,58.2,43.8,58.1,43.8,58
							L43.8,58z"/>
						<path class="st1" d="M43.8,58.3l0.4-0.2c0,0.1,0,0.2-0.1,0.4l-0.4,0.2C43.8,58.6,43.8,58.5,43.8,58.3L43.8,58.3z"/>
						<path class="st1" d="M44.1,57.7l0.4-0.2c-0.1,0.3-0.2,0.5-0.4,0.6l-0.4,0.2C43.9,58.1,44,58,44.1,57.7L44.1,57.7z"/>
					</g>
				</g>
				<g>
					<path class="st6" d="M42.4,55.7c0.8,0.5,1.4,1.7,1.4,2.6c0,0.9-0.7,1.3-1.5,0.8c-0.8-0.5-1.4-1.7-1.4-2.6
						C41,55.5,41.6,55.2,42.4,55.7z"/>
				</g>
			</g>
			<g>
				<path class="st1" d="M42.4,56.1c0.6,0.4,1.1,1.2,1,1.9c0,0.7-0.5,1-1.1,0.6c-0.6-0.4-1.1-1.2-1-1.9C41.3,56,41.8,55.8,42.4,56.1
					z"/>
			</g>
			<g>
				<g>
					<path class="st6" d="M42.3,56.7c0.3,0.2,0.6,0.7,0.6,1.1c0,0.4-0.3,0.5-0.6,0.3c-0.3-0.2-0.6-0.7-0.6-1.1
						C41.7,56.6,42,56.5,42.3,56.7z"/>
				</g>
			</g>
		</g>
		<g>
			<g>
				<g>
					<defs>
						<path id="SVGID_00000172409750603633418790000009463607983724808117_" d="M56.2,79.2l0.3-0.2c0.3-0.1,0.6-0.1,1,0.1l-0.3,0.2
							C56.8,79.1,56.4,79,56.2,79.2z"/>
					</defs>
					<use xlink:href="#SVGID_00000172409750603633418790000009463607983724808117_"  style="overflow:visible;fill:#4C1F8C;"/>
					<clipPath id="SVGID_00000053508649159282030010000000691695017108287132_">
						<use xlink:href="#SVGID_00000172409750603633418790000009463607983724808117_"  style="overflow:visible;"/>
					</clipPath>
					<g style="clip-path:url(#SVGID_00000053508649159282030010000000691695017108287132_);enable-background:new    ;">
						<path class="st1" d="M56.2,79.2l0.3-0.2c0.1-0.1,0.3-0.1,0.4-0.1l-0.3,0.2C56.4,79.1,56.3,79.1,56.2,79.2L56.2,79.2z"/>
						<path class="st1" d="M56.6,79.1l0.3-0.2c0.1,0,0.2,0,0.3,0.1l-0.3,0.2C56.8,79.1,56.7,79.1,56.6,79.1L56.6,79.1z"/>
						<path class="st1" d="M56.9,79.2l0.3-0.2c0.1,0,0.2,0.1,0.3,0.1l-0.3,0.2C57,79.2,57,79.2,56.9,79.2L56.9,79.2z"/>
					</g>
				</g>
				<g>
					<defs>
						<path id="SVGID_00000052065868169585956440000006172973644527721353_" d="M58.3,82.4L58,82.6c0.3-0.1,0.4-0.4,0.4-0.9
							c0-0.9-0.5-1.9-1.3-2.4l0.3-0.2c0.7,0.5,1.3,1.5,1.3,2.4C58.7,81.9,58.6,82.2,58.3,82.4z"/>
					</defs>
					<use xlink:href="#SVGID_00000052065868169585956440000006172973644527721353_"  style="overflow:visible;fill:#4C1F8C;"/>
					<clipPath id="SVGID_00000134218314101911765900000013050551398764542646_">
						<use xlink:href="#SVGID_00000052065868169585956440000006172973644527721353_"  style="overflow:visible;"/>
					</clipPath>
					<g style="clip-path:url(#SVGID_00000134218314101911765900000013050551398764542646_);enable-background:new    ;">
						<path class="st1" d="M57.1,79.3l0.3-0.2c0,0,0,0,0,0L57.1,79.3C57.1,79.3,57.1,79.3,57.1,79.3L57.1,79.3z"/>
						<path class="st1" d="M57.1,79.3l0.3-0.2c0.1,0.1,0.2,0.1,0.3,0.2l-0.3,0.2C57.3,79.4,57.2,79.4,57.1,79.3L57.1,79.3z"/>
						<path class="st1" d="M57.4,79.5l0.3-0.2c0.1,0.1,0.2,0.2,0.3,0.3l-0.3,0.2C57.6,79.7,57.5,79.6,57.4,79.5L57.4,79.5z"/>
						<path class="st1" d="M57.7,79.8l0.3-0.2c0.2,0.3,0.4,0.5,0.5,0.9l-0.3,0.2C58.1,80.4,57.9,80.1,57.7,79.8L57.7,79.8z"/>
						<path class="st1" d="M58.2,80.7l0.3-0.2c0,0.1,0.1,0.2,0.1,0.3L58.3,81C58.3,80.9,58.2,80.8,58.2,80.7L58.2,80.7z"/>
						<path class="st1" d="M58.3,81l0.3-0.2c0,0.1,0.1,0.2,0.1,0.4l-0.3,0.2C58.4,81.3,58.3,81.1,58.3,81L58.3,81z"/>
						<path class="st1" d="M58.4,81.4l0.3-0.2c0,0.1,0,0.2,0,0.3c0,0,0,0,0,0l-0.3,0.2c0,0,0,0,0,0C58.4,81.6,58.4,81.5,58.4,81.4
							L58.4,81.4z"/>
						<path class="st1" d="M58.4,81.7l0.3-0.2c0,0.1,0,0.2,0,0.3L58.3,82C58.4,81.9,58.4,81.8,58.4,81.7L58.4,81.7z"/>
						<path class="st1" d="M58.7,81.1L59,81c-0.1,0.3-0.2,0.4-0.4,0.5l-0.4,0.2C58.4,81.5,58.6,81.4,58.7,81.1L58.7,81.1z"/>
					</g>
				</g>
				<g>
					<path class="st2" d="M57.1,79.3c0.7,0.5,1.3,1.5,1.3,2.4c0,0.9-0.7,1.2-1.4,0.7c-0.7-0.5-1.3-1.5-1.3-2.4
						C55.8,79.2,56.4,78.8,57.1,79.3z"/>
				</g>
			</g>
			<g>
				<path class="st1" d="M57.1,79.7c0.5,0.3,1,1.1,0.9,1.8c0,0.6-0.5,0.9-1,0.5c-0.5-0.3-1-1.1-0.9-1.8C56,79.6,56.5,79.3,57.1,79.7
					z"/>
			</g>
			<g>
				<path class="st2" d="M57,80.2c0.3,0.2,0.6,0.7,0.5,1c0,0.4-0.3,0.5-0.6,0.3c-0.3-0.2-0.6-0.7-0.5-1C56.5,80.1,56.7,80,57,80.2z"
					/>
			</g>
		</g>
		<polygon class="st1" points="46.2,49.2 46.5,52.3 44.7,50.4 		"/>
		<path class="st1" d="M57.6,45.1c0,0.8,0.5,1.1,1.2,0.7c0.7-0.4,1.2-1.3,1.2-2.1c0-0.8-0.5-1.1-1.2-0.7
			C58.1,43.4,57.6,44.3,57.6,45.1z"/>
		<path class="st1" d="M57.9,48.3c0,0.6,0.4,0.8,0.9,0.5s0.9-1,0.9-1.6s-0.4-0.8-0.9-0.5C58.3,47,57.9,47.7,57.9,48.3z"/>
		<path class="st1" d="M58.2,50.8c0,0.3,0.2,0.5,0.5,0.3c0.3-0.2,0.5-0.6,0.5-0.9c0-0.3-0.2-0.5-0.5-0.3
			C58.5,50.1,58.2,50.5,58.2,50.8z"/>
	</g>
</g>
</svg>
