<?xml version="1.0" encoding="utf-8"?>
<!-- Generator: Adobe Illustrator 25.4.1, SVG Export Plug-In . SVG Version: 6.00 Build 0)  -->
<svg version="1.1" id="Layer_1" xmlns="http://www.w3.org/2000/svg" xmlns:xlink="http://www.w3.org/1999/xlink" x="0px" y="0px"
	 viewBox="0 0 77.5 106" style="enable-background:new 0 0 77.5 106;" xml:space="preserve">
<style type="text/css">
	.Graphic_x0020_Style{fill:url(#SVGID_1_);}
	.st0{fill:#4C1F8C;}
	.st1{enable-background:new    ;}
	.st2{fill:#FFC400;}
	.st3{fill:#F1F1F9;}
	.st4{fill:#FF445F;}
	.st5{fill:#1F0159;}
	.st6{clip-path:url(#SVGID_00000016043354343113663320000003641901117008444038_);}
	.st7{fill:#7350BA;}
	.st8{opacity:0.3;fill:#D9CDC1;}
	.st9{clip-path:url(#SVGID_00000036247975286112100370000007378500226280853122_);enable-background:new    ;}
	.st10{fill:#C9C9EC;}
	.st11{fill:#DDDEFA;}
	.st12{clip-path:url(#SVGID_00000132769422338980685680000001270199464683210680_);enable-background:new    ;}
	.st13{clip-path:url(#SVGID_00000079482666814852082760000004217494061852583358_);enable-background:new    ;}
	.st14{fill:url(#SVGID_00000007426472465649025710000013099659410641584516_);}
	.st15{fill:#E8E9FC;}
	.st16{clip-path:url(#SVGID_00000181802072491942229480000000063936867785092776_);enable-background:new    ;}
	.st17{clip-path:url(#SVGID_00000170970683543405141100000007428206948623677074_);enable-background:new    ;}
	.st18{fill:#817AC4;}
	.st19{clip-path:url(#SVGID_00000012466552965872892170000001876769079345619359_);enable-background:new    ;}
	.st20{clip-path:url(#SVGID_00000089548451820824599590000005686524528661071263_);enable-background:new    ;}
	.st21{fill:url(#SVGID_00000060752745590251631250000001004567245762554011_);}
	.st22{fill:url(#SVGID_00000129920978399817425120000016809990436155231927_);}
	.st23{fill:url(#SVGID_00000002359065329053017670000017815666735840671404_);}
	.st24{fill:url(#SVGID_00000167384802128663659980000014156558870095679134_);}
	.st25{clip-path:url(#SVGID_00000065057741909381623740000012730529650030491290_);enable-background:new    ;}
	.st26{clip-path:url(#SVGID_00000128476890196610358320000015193495481875238551_);enable-background:new    ;}
	.st27{clip-path:url(#SVGID_00000096754622065778922320000017460500763775271824_);}
	.st28{clip-path:url(#SVGID_00000009571434009344408540000008309850593133584049_);enable-background:new    ;}
	.st29{clip-path:url(#SVGID_00000156558150376814696870000008378907874999306430_);enable-background:new    ;}
	.st30{clip-path:url(#SVGID_00000082362164506169649580000009215260798874061247_);enable-background:new    ;}
	.st31{clip-path:url(#SVGID_00000114061295477422159650000011565488095782608025_);enable-background:new    ;}
	.st32{clip-path:url(#SVGID_00000090977949982826893650000014674940579294149008_);enable-background:new    ;}
	.st33{clip-path:url(#SVGID_00000007399416968542669090000006540592213984365476_);enable-background:new    ;}
</style>
<linearGradient id="SVGID_1_" gradientUnits="userSpaceOnUse" x1="-556.4618" y1="187.3974" x2="-555.9618" y2="188.2634">
	<stop  offset="0" style="stop-color:#AC44EE"/>
	<stop  offset="0.3072" style="stop-color:#8334C4"/>
	<stop  offset="0.5912" style="stop-color:#6529A6"/>
	<stop  offset="0.8318" style="stop-color:#532293"/>
	<stop  offset="1" style="stop-color:#4C1F8C"/>
</linearGradient>
<g>
	<g>
		<g>
			<polygon class="st0" points="5.5,3.8 5.4,32.3 4.5,31.4 4.6,2.8 			"/>
		</g>
		<path class="st0" d="M75.6,30.8l-0.1,28.6c0-0.7,0-1.4-0.1-2c-1-7.1-6.8-13.7-15.5-18.7c-8.7-5-20.1-8.4-32.4-8.9
			c-8-0.3-15.6,0.6-22.1,2.6L5.5,3.8c6.5-2.1,14.1-3,22.1-2.6C39.9,1.7,51.3,5.1,60,10.1c8.7,5,14.5,11.6,15.5,18.7
			C75.6,29.5,75.6,30.1,75.6,30.8z"/>
		<g>
			<path class="st0" d="M75.6,30.8l-0.1,28.6c0-0.7,0-1.4-0.1-2c-1-7.1-6.8-13.7-15.5-18.7c-8.7-5-20.1-8.4-32.4-8.9
				c-8-0.3-15.6,0.6-22.1,2.6L5.5,3.8c6.5-2.1,14.1-3,22.1-2.6C39.9,1.7,51.3,5.1,60,10.1c8.7,5,14.5,11.6,15.5,18.7
				C75.6,29.5,75.6,30.1,75.6,30.8L75.6,30.8z"/>
		</g>
		<g>
			<g class="st1">
				<g class="st1">
					<g>
						<path class="st2" d="M73.6,49l0-3.6c-1.1-2.2-2.1-4.8-2.8-7.5c-0.7,0.2-0.9,0.2-1.6,0.3C69.6,39.7,70.8,43.5,73.6,49L73.6,49z
							"/>
						<path class="st3" d="M73.6,49c1.1,2.2,1.5,2.7,1.8,2.9c0.1-0.3,0.2-0.9,0.2-2.5c0-1.4,0-2.2-0.2-3.8c-0.1,1.1-0.2,2-0.9,1.3
							c-0.3-0.3-0.7-1.1-0.9-1.5L73.6,49L73.6,49z"/>
						<path class="st3" d="M70.3,29.4c0.8-2.3,2.1-2.3,3.4-0.1l0-3.6c-1.8-3.2-4-3.1-5.3,0.3C69.4,27.7,69.5,28,70.3,29.4L70.3,29.4
							z"/>
						<path class="st3" d="M69.2,38.3c0.9-0.2,0.9-0.2,1.6-0.3c-0.9-3.7-1.1-6.5-0.5-8.6c-1-1.8-1.1-2-2-3.4
							C66.8,30.4,68.6,36.3,69.2,38.3L69.2,38.3z"/>
						<path class="st2" d="M75.2,37c0,0,0.1,0.1,0.2,0.2c0.4-0.3,0.2-7.3-1.8-11.5l0,3.6c0.3,0.6,1.2,2.5,1.6,7.2
							C75.2,36.6,75.2,36.9,75.2,37L75.2,37z"/>
						<path class="st3" d="M75.5,36.9c0,1.3,0,2,0,3.9c0,2.8,0,5.6,0,8.4l0,0.2c0-1.4,0-2.2-0.2-3.8c0.1-1.2,0.2-4.5-0.1-8.6
							c0,0,0.1,0.1,0.2,0.2C75.5,37.1,75.5,37,75.5,36.9L75.5,36.9z"/>
						<path class="st4" d="M50.5,10.3c0.7,0.3,1.4,0.5,2.1,0.8l0-2.1c-0.7-0.3-1.4-0.6-2.1-0.8L50.5,10.3L50.5,10.3z"/>
						<path class="st2" d="M50.5,13.1c0.7,0.3,1.4,0.5,2.1,0.8l0-2.1c-0.7-0.3-1.4-0.6-2.1-0.8L50.5,13.1L50.5,13.1z"/>
						<path class="st3" d="M50.5,16c0.7,0.3,1.4,0.5,2.1,0.8l0-2.1c-0.7-0.3-1.4-0.6-2.1-0.8L50.5,16L50.5,16z"/>
						<path class="st4" d="M53.6,11.5c2.3,1,4.4,2,6.4,3.2c1.8,1.1,3.5,2.2,5.1,3.4l0-2.1c-1.6-1.2-3.3-2.3-5.1-3.4
							c-2-1.1-4.1-2.2-6.4-3.2L53.6,11.5L53.6,11.5z"/>
						<path class="st2" d="M53.6,14.4c2.3,1,4.4,2,6.4,3.2c1.8,1.1,3.5,2.2,5.1,3.4l0-2.1c-1.6-1.2-3.3-2.3-5.1-3.4
							c-2-1.1-4.1-2.2-6.4-3.2L53.6,14.4L53.6,14.4z"/>
						<path class="st3" d="M53.6,17.2c2.3,1,4.4,2,6.4,3.2c1.8,1.1,3.5,2.2,5.1,3.4l0-2.1c-1.6-1.2-3.3-2.3-5.1-3.4
							c-2-1.1-4.1-2.2-6.4-3.2L53.6,17.2L53.6,17.2z"/>
						<path class="st3" d="M17.8,9.7c0,0,0.1,0,0.1,0l0-2c1.3-0.1,2.5-0.2,3.8-0.2l0,2c0,0,0.1,0,0.1,0l0-2c0.9,0,1.8,0,2.7,0
							c0,0-0.1-0.1-0.1-0.1c-0.9,0-1.8,0-2.6,0l0-1.8c-0.1,0-0.1,0-0.1,0l0,1.8c-1.3,0-2.6,0.1-3.8,0.2l0-0.4c0,0-0.1,0.1-0.1,0.1
							l0,0.3c-0.1,0-0.2,0-0.3,0c0,0-0.1,0.1-0.1,0.1c0.1,0,0.3,0,0.4,0L17.8,9.7L17.8,9.7z M15,11.3c0.7-0.1,1.4-0.2,2.1-0.2l0-0.1
							c-0.7,0.1-1.4,0.1-2.1,0.2C15.1,11.2,15.1,11.2,15,11.3L15,11.3z M33.8,13.7c0,0,0.1,0,0.1,0l0-2.4c0.4,0.1,0.9,0.1,1.3,0.2
							c0,0-0.1-0.1-0.1-0.1c-0.4-0.1-0.8-0.1-1.2-0.2l0-1.1c-0.1,0-0.1-0.1-0.1-0.1l0,1.2c-1-0.1-2-0.2-2.9-0.3c0,0-0.1,0.1-0.1,0.1
							c1,0.1,2,0.2,3.1,0.3L33.8,13.7L33.8,13.7z M29.9,13.4c0,0,0.1,0,0.1,0l0-1.8c-0.1,0-0.1,0.1-0.1,0.1L29.9,13.4L29.9,13.4z
							 M34.9,14.7c0.9,0.1,1.8,0.3,2.7,0.4c0,0-0.1-0.1-0.1-0.1c-0.8-0.1-1.7-0.3-2.6-0.4L34.9,14.7L34.9,14.7z M48.6,8.1l0,3.1
							c-1.1-0.4-2.2-0.7-3.4-1l0-3.1C46.3,7.4,47.5,7.7,48.6,8.1L48.6,8.1z M45.1,7l0,3.1c-1.1-0.3-2.3-0.6-3.5-0.9l0-3.1
							C42.7,6.4,43.9,6.7,45.1,7L45.1,7z M41.4,6.1l0,3.1C40.2,9,39,8.7,37.8,8.5l0-3.1C39,5.6,40.2,5.8,41.4,6.1L41.4,6.1z
							 M37.7,5.4l0,3.1c-1.2-0.2-2.5-0.4-3.7-0.6l0-3.1C35.2,5,36.4,5.1,37.7,5.4L37.7,5.4z M33.8,4.8l0,3.1
							c-1.2-0.2-2.5-0.3-3.8-0.4l0-3.1C31.3,4.5,32.6,4.6,33.8,4.8L33.8,4.8z M29.9,4.4l0,3.1c-0.8-0.1-1.5-0.1-2.3-0.1
							c-0.5,0-1.1,0-1.6-0.1l0-3.1c0.5,0,1.1,0,1.6,0.1C28.4,4.3,29.1,4.4,29.9,4.4L29.9,4.4z M13.9,5l0,3.1
							c-1.2,0.2-2.4,0.4-3.6,0.7l0-3.1C11.5,5.4,12.7,5.2,13.9,5L13.9,5z M10.2,5.6l0,3.1C9,9,7.9,9.3,6.8,9.6l0-3.1
							C7.9,6.2,9,5.9,10.2,5.6L10.2,5.6z M48.6,11.4l0,3.1c-1.1-0.4-2.2-0.7-3.4-1l0-3.1C46.3,10.6,47.5,11,48.6,11.4L48.6,11.4z
							 M45,10.3l0,3.1c-1.1-0.3-2.3-0.6-3.5-0.9l0-3.1C42.7,9.7,43.9,10,45,10.3L45,10.3z M41.4,9.4l0,3.1c-1.2-0.3-2.4-0.5-3.6-0.7
							l0-3.1C39,8.9,40.2,9.1,41.4,9.4L41.4,9.4z M13.9,8.2l0,3.1c-1.2,0.2-2.4,0.4-3.6,0.7l0-3.1C11.5,8.6,12.7,8.4,13.9,8.2
							L13.9,8.2z M10.2,8.9l0,3.1c-1.2,0.3-2.3,0.5-3.4,0.9l0-3.1C7.9,9.4,9,9.2,10.2,8.9L10.2,8.9z M48.5,24.4l0,3.1
							c-1.1-0.4-2.2-0.7-3.4-1l0-3.1C46.3,23.7,47.4,24,48.5,24.4L48.5,24.4z M48.5,27.6l0,3.1c-1.1-0.4-2.2-0.7-3.4-1l0-3.1
							C46.3,26.9,47.4,27.3,48.5,27.6L48.5,27.6z M41.3,28.8L41.3,28.8c-1.2-0.3-2.4-0.5-3.6-0.7l0-3.1c0.2,0,0.4,0.1,0.6,0.1l0-0.1
							c-0.2,0-0.4-0.1-0.6-0.1l0-3.1c0.2,0,0.4,0.1,0.6,0.1l0-0.1c-0.2,0-0.4-0.1-0.6-0.1l0-3.1c1.2,0.2,2.4,0.5,3.6,0.7l0,0.5
							c0,0,0.1,0,0.1,0l0-0.5c1.2,0.3,2.4,0.6,3.5,0.9l0,3.1c0,0-0.1,0-0.1,0l0,0.1c0,0,0.1,0,0.1,0l0,3.1c0,0-0.1,0-0.1,0l0,0.1
							c0,0,0.1,0,0.1,0l0,3.1c-1.1-0.3-2.3-0.6-3.5-0.9v0C41.4,28.8,41.4,28.8,41.3,28.8L41.3,28.8z M17.7,27.2L17.7,27.2
							c-1.3,0.1-2.5,0.3-3.7,0.4l0-3.1c1-0.2,2.1-0.3,3.1-0.4l0-0.1c-1.1,0.1-2.1,0.2-3.1,0.4l0-3.1c1-0.2,2.1-0.3,3.1-0.4l0-0.1
							c-1.1,0.1-2.1,0.2-3.1,0.4l0-3.1c1-0.2,2.1-0.3,3.1-0.4l0-0.1c-1.1,0.1-2.1,0.2-3.1,0.4l0-3.1c1-0.2,2.1-0.3,3.1-0.4l0-0.1
							c-1.1,0.1-2.1,0.2-3.1,0.4l0-1.4c0,0.1-0.1,0.2-0.1,0.3l0,1.1c-0.2,0-0.5,0.1-0.7,0.1l-0.1,0.1c0.3,0,0.5-0.1,0.8-0.1l0,3.1
							c-1.2,0.2-2.4,0.4-3.6,0.7l0-0.8l-0.1,0.1l0,0.7c-1.2,0.3-2.3,0.5-3.4,0.9l0-3.1c0.1,0,0.2,0,0.3-0.1L7.1,16
							c-0.1,0-0.2,0.1-0.4,0.1l0-3.1c1.1-0.3,2.2-0.6,3.4-0.9l0,3.1c-0.9,0.2-1.8,0.4-2.7,0.7l0.1,0.1c0.9-0.2,1.7-0.4,2.6-0.6l0,2
							l0.1-0.1l0-1.9c0.8-0.2,1.5-0.3,2.3-0.4l0.1-0.1c-0.8,0.1-1.6,0.3-2.4,0.5l0-3.1c1.2-0.3,2.4-0.5,3.6-0.7l0,1.2
							c0-0.1,0.1-0.2,0.1-0.3l0-0.9c0.2,0,0.3-0.1,0.5-0.1l0.1-0.1c-0.2,0-0.4,0.1-0.6,0.1l0-3.1c0.9-0.1,1.8-0.3,2.8-0.4l0.1-0.1
							c-1,0.1-1.9,0.2-2.9,0.4l0-3.1c1.2-0.2,2.5-0.3,3.7-0.4l0,2.3l0.1-0.1l0-2.2c1.3-0.1,2.5-0.2,3.8-0.2l0,0.8l0.1,0l0-0.8
							c1.3,0,2.6,0,3.9,0l0,3.1c-0.2,0-0.3,0-0.5,0l0.1,0.1c0.1,0,0.3,0,0.4,0l0,0.6c0,0.1,0.1,0.2,0.2,0.2l0-0.8
							c0.5,0,1.1,0,1.6,0.1c0.8,0,1.5,0.1,2.3,0.1l0,3.1c-0.8-0.1-1.5-0.1-2.3-0.1c0,0,0,0-0.1,0l0.1,0.1c0.7,0,1.5,0.1,2.2,0.1
							l0,0.3l0.1-0.1l0-0.2c0.1,0,0.1,0,0.2,0l0.1-0.1c-0.1,0-0.2,0-0.3,0l0-3.1c1.3,0.1,2.5,0.2,3.8,0.4l0,1.3l0.1,0.1l0-1.4
							c1.2,0.2,2.5,0.3,3.7,0.6l0,3.1c-0.6-0.1-1.1-0.2-1.7-0.3l0.1,0.1l1.6,0.3l0,2.2c0,0.1,0.1,0.2,0.1,0.2l0-2.4
							c1.2,0.2,2.4,0.5,3.6,0.7l0,3.1c-1-0.2-2-0.4-3.1-0.6l0.1,0.1c1,0.2,2,0.4,3,0.6l0,2.1l0.1,0l0-2c2,0.5,2,0.5,2.1,0.4
							c-0.7-0.2-1.4-0.4-2.1-0.5l0-3.1c2.2,0.5,2.3,0.5,3.5,0.9l0,3l0.1,0.1l0-3c1.1,0.3,2.3,0.7,3.4,1l0,3.1
							c-1.1-0.4-2.1-0.7-3.2-1c0.1,0.1,0.1,0.1,0.2,0.2c1,0.3,2,0.6,3,0.9l0,3.1c-0.1,0-0.2-0.1-0.4-0.1L48,20.9
							c0.2,0.1,0.3,0.1,0.5,0.2l0,3.1c-1.1-0.4-2.2-0.7-3.4-1l0-3.1c0.9,0.2,1.8,0.5,2.6,0.8l-0.1-0.2c-0.8-0.3-1.7-0.5-2.5-0.8
							l0-2.6L45,17.2l0,2.7c-2.2-0.6-2.2-0.6-3.5-0.9l0-0.7l-0.1,0l0,0.6c-1.2-0.3-2.4-0.5-3.6-0.7l0-2.9c0-0.1-0.1-0.2-0.1-0.2
							l0,3.1c-0.9-0.2-1.8-0.3-2.7-0.4l0,0.1c0.9,0.1,1.8,0.3,2.7,0.4l0,3.1c-0.9-0.2-1.8-0.3-2.7-0.4l0,0.1
							c0.9,0.1,1.8,0.3,2.7,0.4l0,3.1c-0.9-0.2-1.8-0.3-2.7-0.4l0,0.1c0.9,0.1,1.8,0.3,2.7,0.4l0,3.1c-1.2-0.2-2.5-0.4-3.7-0.6v0
							c0,0-0.1,0-0.1,0v0c-1.2-0.2-2.5-0.3-3.8-0.4v0c0,0-0.1,0-0.1,0v0c-0.8-0.1-1.5-0.1-2.3-0.1c-0.5,0-1.1,0-1.6-0.1l0-3.1
							c0.5,0,1.1,0,1.6,0.1c0.1,0,0.2,0,0.4,0l0-0.1c-0.6,0-1.4-0.1-2-0.1l0-3.1c0.5,0,1.1,0,1.6,0.1c0.1,0,0.2,0,0.4,0l0-0.1
							c-0.1,0-0.2,0-0.4,0c-0.5,0-1.1,0-1.6-0.1l0-3.1c0.5,0,1.1,0,1.6,0.1c0.1,0,0.2,0,0.4,0l0-0.1c-0.1,0-0.2,0-0.4,0
							c-0.5,0-1.1,0-1.6-0.1l0-3.1c0.5,0,1.1,0,1.6,0.1c0.1,0,0.2,0,0.4,0l0-0.1c-0.1,0-0.2,0-0.4,0c-0.5,0-1.1,0-1.6-0.1l0-3.1
							c0.3,0,0.5,0,0.8,0l-0.1-0.1c-0.2,0-0.5,0-0.7,0l0-1.1c0-0.1-0.1-0.2-0.2-0.2l0,1.3c-0.5,0-1,0-1.5,0l0,0.1c0.5,0,1,0,1.5,0
							l0,3.1c-0.5,0-1,0-1.5,0l0,0.1c0.5,0,1,0,1.5,0l0,3.1c-0.5,0-1,0-1.5,0l0,0.1c0.5,0,1,0,1.5,0l0,3.1c-0.5,0-1,0-1.5,0l0,0.1
							c0.5,0,1,0,1.5,0l0,3.1c-0.5,0-1,0-1.5,0l0,0.1c0.5,0,1.1,0,1.5,0l0,3.1c-1.3,0-2.6,0-3.9,0v0c-0.1,0-0.1,0-0.1,0v0
							c-1.3,0-2.6,0.1-3.8,0.2v0C17.8,27.1,17.8,27.2,17.7,27.2L17.7,27.2z M7.2,29c-0.2,0-0.3,0.1-0.5,0.1l0-3.1
							c0.2,0,0.3-0.1,0.5-0.1l0-0.1c-0.2,0-0.3,0.1-0.5,0.1l0-3.1l0.5-0.1l0-0.1c-0.2,0-0.3,0.1-0.5,0.1l0-3.1
							c1.1-0.3,2.2-0.6,3.4-0.9l0,1.1c0,0,0.1,0,0.1,0l0-1.1c1.2-0.3,2.4-0.5,3.6-0.7l0,3.1c0,0-0.1,0-0.1,0l0,0.1c0,0,0.1,0,0.1,0
							l0,3.1c0,0-0.1,0-0.1,0l0,0.1c0,0,0.1,0,0.1,0l0,3.1c-1.2,0.2-2.4,0.4-3.6,0.7v0c0,0-0.1,0-0.1,0v0C9.1,28.5,8.2,28.8,7.2,29
							L7.2,29z M6.6,29.3c18.3-5.1,35.5-0.6,42,1.6l0-6.5l0-9.9l0-6.5c0,0,0,0,0,0c-6.4-2.2-13.6-3.5-21-3.9
							C20.1,3.8,13,4.6,6.7,6.4c0,0-0.1,0-0.1,0l0,6.5l0,9.9L6.6,29.3L6.6,29.3z"/>
						<path class="st3" d="M47.9,20.9c0.1,0,0.3-0.1,0.4-0.2c-0.2-0.8-2.2-3.5-3-4.1c-1-0.8-1.5-0.6-2.7,0.5c-1,0.9-1.6,1.5-3.4-1
							c-1.7-2.2-2.5-5.1-5-6.7c-0.2-0.1-0.4-0.2-0.6-0.3c-1-0.4-1.8,0.2-2.8,1.3c-1.4,1.4-2,1.9-3.6-0.5c-2.7-4.1-3.2-4.9-5.1-4.9
							c-1.6,0-3.9,0.7-6.1,4.2c-1.7,2.5-2.3,5.7-4.9,7.7c0,0-0.9,0.7-1.5,0.5c-0.9-0.3-1.3-1.2-2.1-1.5C7,16.1,7,16.2,7,16.4
							c3.1,4.3,6.1-1.4,7.5-4.1c4.7-9,8.1-7.2,9.8-5.3c1.3,1.4,1.6,3.5,3.3,4.7c1.3,0.9,2.1,0.3,3.5-1c1.3-1.3,2-1.9,3.8,0.2
							c2,2.3,2.6,5.8,5.7,7.3c0.2,0.1,0.5,0.2,0.6,0.2c1.3,0,1.7-1.5,2.8-1.8c1.1-0.2,3.5,3.7,3.6,3.9
							C47.8,20.9,47.8,20.9,47.9,20.9L47.9,20.9z"/>
						<path class="st3" d="M38.3,28.1c1,0.2,2,0.4,3,0.6c0,0,0.1,0,0.1,0c1.1,0.3,2.3,0.5,3.4,0.8l0-3.1l0-0.1l0-3.1l0-0.1l0-2.7
							c-1.1-0.3-2.2-0.6-3.4-0.8c0,0-0.1,0-0.1,0c-1-0.2-2-0.4-3-0.6c0,0.8,0,1.9,0,2.7l0,0.1c0,1,0,2.1,0,3.1l0,0.1
							C38.3,26.1,38.3,27.1,38.3,28.1L38.3,28.1z"/>
						<path class="st4" d="M27.9,27c0.6,0,1.3,0.1,1.9,0.1c0,0,0.1,0,0.1,0c1.3,0.1,2.5,0.2,3.8,0.4c0,0,0.1,0,0.1,0
							c0.3,0,0.7,0.1,1,0.1l0-3.1l0-0.1l0-3.1l0-0.1l0-3.1l0-0.1l0-3.1l0-0.1l0-0.7c-0.3,0-0.7-0.1-1-0.1c0,0-0.1,0-0.1,0
							c-1.2-0.2-2.5-0.3-3.8-0.4c0,0-0.1,0-0.1,0c-0.6,0-1.3-0.1-1.9-0.1l0,0.7l0,0.1l0,3.1l0,0.1l0,3.1l0,0.1l0,3.1l0,0.1L27.9,27
							L27.9,27z"/>
						<path class="st2" d="M7.2,29c1.2-0.3,1.5-0.4,2.9-0.7c0,0,0.1,0,0.1,0c1-0.2,2-0.4,3.4-0.6l0-3.1l0-0.1l0-3.1l0-0.1l0-2
							c-1.2,0.2-2.3,0.4-3.4,0.6c0,0-0.1,0-0.1,0c-1,0.2-2,0.5-2.9,0.7c0,0.6,0,1.4,0,2l0,0.1c0,1,0,2.1,0,3.1l0,0.1
							C7.2,26.9,7.2,28,7.2,29L7.2,29z"/>
						<path class="st3" d="M17.1,27.2c0.2,0,0.4,0,0.6-0.1c0,0,0.1,0,0.1,0c1.3-0.1,2.5-0.2,3.8-0.2c0,0,0.1,0,0.1,0
							c0.8,0,1.6,0,2.4,0l0-3.1l0-0.1l0-3.1l0-0.1l0-3.1l0-0.1l0-3.1l0-0.1l0-3.1l0-0.1l0-1.2c-0.8,0-1.6,0-2.4,0
							c-0.1,0-0.1,0-0.1,0c-1.3,0-2.6,0.1-3.8,0.2c0,0-0.1,0-0.1,0c-0.2,0-0.4,0-0.6,0.1l0,1.2l0,0.1l0,3.1l0,0.1l0,3.1l0,0.1l0,3.1
							l0,0.1l0,3.1l0,0.1L17.1,27.2L17.1,27.2z"/>
						<path class="st3" d="M54.6,32.3c1.3-1.7,2-2.7,3.3-4.4c0-0.9,0-2,0-2.9c0-0.4,0-1,0-1.4c0-0.8,0-1.9,0-2.7
							c-5-2.4-7.9,1.8-6.3,6.5C52.4,29.8,54,31.5,54.6,32.3L54.6,32.3z"/>
						<path class="st4" d="M57.9,34.8c1.2,0.6,2.1,0.8,3.1,0.8c-1.1-3-1.7-4.5-3-7.7c-1.2,1.7-1.8,2.5-3.3,4.4
							C55.1,32.7,56.3,34,57.9,34.8L57.9,34.8z"/>
						<path class="st2" d="M61,35.6c3.8-0.4,3.8-6.8,0-12c-1.1,1.6-1.7,2.4-3.1,4.3C59.1,30.8,59.8,32.4,61,35.6L61,35.6z"/>
						<path class="st2" d="M57.9,27.8c1.2-1.7,1.9-2.6,3.1-4.3c-1-1.3-1.8-2-3-2.7C57.9,23.2,57.9,25.5,57.9,27.8L57.9,27.8z"/>
					</g>
				</g>
			</g>
		</g>
		<g>
			<polygon class="st5" points="73,41.8 72.9,70.3 71.2,69.8 71.3,41.3 			"/>
		</g>
		<g>
			<defs>
				<path id="SVGID_00000011709709885938696240000003283662249412324799_" d="M77.5,30.8l-0.1,28.6c0,3.9-1.5,7.7-4.5,11L73,41.8
					C75.9,38.5,77.5,34.7,77.5,30.8z"/>
			</defs>
			<use xlink:href="#SVGID_00000011709709885938696240000003283662249412324799_"  style="overflow:visible;fill:#4C1F8C;"/>
			<clipPath id="SVGID_00000045610327468219328290000018231426844787068045_">
				<use xlink:href="#SVGID_00000011709709885938696240000003283662249412324799_"  style="overflow:visible;"/>
			</clipPath>
			<g style="clip-path:url(#SVGID_00000045610327468219328290000018231426844787068045_);">
				<path class="st0" d="M77.5,30.8l-0.1,28.6c0,3.9-1.5,7.7-4.5,11L73,41.8C75.9,38.5,77.5,34.7,77.5,30.8L77.5,30.8z"/>
			</g>
		</g>
		<g>
			<path class="st7" d="M61.3,9.3c4.5,2.6,8.2,5.6,11,8.9c2.8,3.4,4.5,6.9,5,10.5c0.6,4.7-0.9,9.2-4.4,13.1l-1.7-0.5
				c3.3-3.7,4.8-8,4.2-12.5c-1-7.1-6.8-13.7-15.5-18.7c-8.7-5-20.1-8.4-32.4-8.9C19.7,0.8,12,1.7,5.5,3.8L4.6,2.8
				c6.8-2.2,14.8-3.1,23.1-2.7C34,0.3,40.1,1.3,46,2.9C51.6,4.5,56.8,6.7,61.3,9.3z"/>
		</g>
	</g>
	<g>
		<ellipse class="st8" cx="35.8" cy="86.8" rx="32.1" ry="18.5"/>
		<g>
			<g class="st1">
				<g>
					<defs>
						<path id="SVGID_00000041274829989924086440000004961957556169772208_" d="M59.4,87v1.9c0,4.4-2.9,8.7-8.6,12.1
							c-11.6,6.7-30.3,6.7-42,0C2.9,97.6,0,93.1,0,88.7l0-1.9c0,4.4,2.9,8.9,8.8,12.2c11.6,6.7,30.4,6.7,42,0
							C56.5,95.7,59.4,91.4,59.4,87z"/>
					</defs>
					<use xlink:href="#SVGID_00000041274829989924086440000004961957556169772208_"  style="overflow:visible;fill:#C9C9EC;"/>
					<clipPath id="SVGID_00000094579756460789414280000004726897155187487644_">
						<use xlink:href="#SVGID_00000041274829989924086440000004961957556169772208_"  style="overflow:visible;"/>
					</clipPath>
					<g style="clip-path:url(#SVGID_00000094579756460789414280000004726897155187487644_);enable-background:new    ;">
						<path class="st10" d="M59.4,87v1.9c0,4.4-2.9,8.7-8.6,12.1c-2.3,1.3-4.8,2.4-7.6,3.2v-1.9c2.7-0.8,5.3-1.9,7.6-3.2
							C56.5,95.7,59.4,91.4,59.4,87L59.4,87z"/>
						<path class="st10" d="M43.2,102.3v1.9c-4,1.2-8.4,1.8-12.7,1.8v-1.9C34.8,104.1,39.2,103.4,43.2,102.3L43.2,102.3z"/>
						<path class="st11" d="M30.5,104.1v1.9c-7.8,0.1-15.7-1.6-21.7-5c-0.3-0.2-0.6-0.3-0.9-0.5v-1.9c0.3,0.2,0.6,0.3,0.9,0.5
							C14.8,102.5,22.6,104.2,30.5,104.1L30.5,104.1z"/>
						<path class="st10" d="M7.9,98.6v1.9c-3.1-1.9-5.3-4.2-6.6-6.6V92C2.6,94.4,4.8,96.6,7.9,98.6L7.9,98.6z"/>
						<path class="st10" d="M1.3,92v1.9C0.4,92.2,0,90.4,0,88.7l0-1.9C0,88.6,0.4,90.3,1.3,92L1.3,92z"/>
					</g>
				</g>
				<g>
					<path class="st3" d="M50.6,74.8c11.6,6.7,11.7,17.6,0.1,24.3c-11.6,6.7-30.3,6.7-42,0C-2.9,92.4-2.9,81.5,8.6,74.8
						C20.2,68,39,68,50.6,74.8z"/>
				</g>
			</g>
		</g>
		<g>
			<g class="st1">
				<g>
					<defs>
						<path id="SVGID_00000145028538986618035000000009737011867890326459_" d="M58.6,83.2l0,3.6c0,4.3-2.8,8.5-8.4,11.7
							c-11.2,6.5-29.5,6.5-40.8,0C3.6,95.3,0.8,91,0.8,86.7l0-3.6c0,4.3,2.8,8.6,8.5,11.9c11.3,6.5,29.6,6.5,40.8,0
							C55.8,91.7,58.6,87.5,58.6,83.2z"/>
					</defs>
					<use xlink:href="#SVGID_00000145028538986618035000000009737011867890326459_"  style="overflow:visible;fill:#4C1F8C;"/>
					<clipPath id="SVGID_00000170257544140859924020000013196059886213709185_">
						<use xlink:href="#SVGID_00000145028538986618035000000009737011867890326459_"  style="overflow:visible;"/>
					</clipPath>
					<g style="clip-path:url(#SVGID_00000170257544140859924020000013196059886213709185_);enable-background:new    ;">
						<path class="st0" d="M58.6,83.2l0,3.6c0,4.3-2.8,8.5-8.4,11.7c-2.2,1.3-4.7,2.3-7.3,3.1l0-3.6c2.7-0.8,5.1-1.8,7.3-3.1
							C55.8,91.7,58.6,87.5,58.6,83.2L58.6,83.2z"/>
						<path class="st0" d="M42.8,98.1l0,3.6c-3.9,1.1-8.1,1.7-12.4,1.8l0-3.6C34.7,99.8,38.9,99.2,42.8,98.1L42.8,98.1z"/>
						<path class="st7" d="M30.4,99.9l0,3.6c-7.6,0.1-15.3-1.5-21.1-4.9c-0.3-0.2-0.6-0.3-0.8-0.5l0-3.6c0.3,0.2,0.5,0.3,0.8,0.5
							C15.2,98.3,22.8,100,30.4,99.9L30.4,99.9z"/>
						<path class="st0" d="M8.5,94.5l0,3.6c-3-1.9-5.2-4.1-6.4-6.4l0-3.6C3.4,90.4,5.5,92.6,8.5,94.5L8.5,94.5z"/>
						<path class="st0" d="M2.1,88.1l0,3.6c-0.9-1.6-1.3-3.3-1.3-5l0-3.6C0.8,84.8,1.3,86.4,2.1,88.1L2.1,88.1z"/>
					</g>
				</g>
				<g>
					<path class="st7" d="M50,71.3c11.3,6.5,11.4,17.1,0.1,23.6c-11.2,6.5-29.5,6.5-40.8,0C-2,88.5-2,77.9,9.2,71.3
						C20.5,64.8,38.7,64.8,50,71.3z"/>
				</g>
			</g>
		</g>
		<g>
			<g class="st1">
				<g>
					<defs>
						<path id="SVGID_00000011749127763352175190000012628825723612448918_" d="M59.6,82.5v1.9c0,4.4-2.9,8.7-8.6,12.1
							c-11.6,6.7-30.3,6.7-42,0c-5.9-3.4-8.8-7.8-8.8-12.2l0-1.9c0,4.4,2.9,8.9,8.8,12.2c11.6,6.7,30.4,6.7,42,0
							C56.7,91.2,59.6,86.9,59.6,82.5z"/>
					</defs>
					<use xlink:href="#SVGID_00000011749127763352175190000012628825723612448918_"  style="overflow:visible;fill:#C9C9EC;"/>
					<clipPath id="SVGID_00000030446488462134545440000015467111327293865909_">
						<use xlink:href="#SVGID_00000011749127763352175190000012628825723612448918_"  style="overflow:visible;"/>
					</clipPath>
					<g style="clip-path:url(#SVGID_00000030446488462134545440000015467111327293865909_);enable-background:new    ;">
						<path class="st10" d="M59.6,82.5v1.9c0,4.4-2.9,8.7-8.6,12.1c-2.3,1.3-4.8,2.4-7.6,3.2v-1.9c2.7-0.8,5.3-1.9,7.6-3.2
							C56.7,91.2,59.6,86.9,59.6,82.5L59.6,82.5z"/>
						<path class="st10" d="M43.4,97.8v1.9c-4,1.2-8.4,1.8-12.7,1.8v-1.9C35,99.6,39.4,98.9,43.4,97.8L43.4,97.8z"/>
						<path class="st11" d="M30.6,99.6v1.9c-7.8,0.1-15.7-1.6-21.7-5c-0.3-0.2-0.6-0.3-0.9-0.5v-1.9c0.3,0.2,0.6,0.3,0.9,0.5
							C14.9,98,22.8,99.7,30.6,99.6L30.6,99.6z"/>
						<path class="st10" d="M8.1,94.1v1.9C5,94,2.8,91.7,1.5,89.3v-1.9C2.8,89.9,5,92.1,8.1,94.1L8.1,94.1z"/>
						<path class="st10" d="M1.5,87.5v1.9c-0.9-1.7-1.3-3.4-1.3-5.1l0-1.9C0.2,84.1,0.6,85.8,1.5,87.5L1.5,87.5z"/>
					</g>
				</g>
				<g>
					<path class="st3" d="M50.8,70.3c11.6,6.7,11.7,17.6,0.1,24.3c-11.6,6.7-30.3,6.7-42,0C-2.7,87.9-2.7,77,8.8,70.3
						C20.4,63.6,39.2,63.6,50.8,70.3z"/>
				</g>
				<g>
					<g>
						<path class="st10" d="M30,98.3c-6.9,0-13.8-1.5-19-4.5c-5.2-3-8.1-7.1-8.1-11.4c0-4.3,2.8-8.3,8-11.3c10.4-6.1,27.5-6.1,38,0
							c5.2,3,8.1,7,8.1,11.4c0,4.3-2.8,8.3-8,11.3C43.7,96.8,36.8,98.3,30,98.3z M29.8,67.7c-6.7,0-13.3,1.5-18.4,4.4
							C6.6,74.9,4,78.5,4,82.4c0,3.9,2.7,7.6,7.5,10.4c10.2,5.9,26.7,5.9,36.8,0c4.8-2.8,7.4-6.4,7.4-10.3c0-3.9-2.7-7.6-7.5-10.4
							C43.1,69.2,36.5,67.7,29.8,67.7z"/>
					</g>
				</g>
				<g>
					<g>
						<path class="st10" d="M43.9,74c-7.8-4.5-20.4-4.5-28.2,0c-3.8,2.2-5.9,5.2-5.9,8.4c0,0.2,0,0.5,0,0.7c0.3,2.9,2.4,5.6,6,7.7
							c3.9,2.2,9,3.4,14.1,3.4c5.1,0,10.2-1.1,14.1-3.4c3.5-2,5.6-4.7,5.9-7.6c0-0.3,0-0.5,0-0.8C49.9,79.2,47.8,76.3,43.9,74z"/>
					</g>
				</g>
				
					<linearGradient id="SVGID_00000019650197891962382010000009104439266632917675_" gradientUnits="userSpaceOnUse" x1="21.4504" y1="68.572" x2="37.0133" y2="95.5279">
					<stop  offset="0" style="stop-color:#AC44EE"/>
					<stop  offset="0.3072" style="stop-color:#8334C4"/>
					<stop  offset="0.5912" style="stop-color:#6529A6"/>
					<stop  offset="0.8318" style="stop-color:#532293"/>
					<stop  offset="1" style="stop-color:#4C1F8C"/>
				</linearGradient>
				<path style="fill:url(#SVGID_00000019650197891962382010000009104439266632917675_);" d="M43.9,75.5c-7.8-4.5-20.4-4.5-28.2,0
					c-3.5,2-5.6,4.7-5.9,7.6c0.3,2.9,2.4,5.6,6,7.7c3.9,2.2,9,3.4,14.1,3.4c5.1,0,10.2-1.1,14.1-3.4c3.5-2,5.6-4.7,5.9-7.6
					C49.6,80.3,47.5,77.6,43.9,75.5z"/>
			</g>
		</g>
	</g>
	<g>
		<g>
			<g>
				<path class="st15" d="M21.2,48.7c-0.6,0-1.3,0.3-1.9,0.1c-0.1,0-0.2-0.1-0.3-0.1c-0.3,0-0.3,0.4-0.4,0.7
					c-0.1,0.4-0.2,0.7-0.2,1.1c0,0.8,0,1.6,0.2,2.4c0.1,0.2,0.2,0.4,0.3,0.4c0.1,0,0.2-0.1,0.4-0.1c0.2,0,0.2,0.4,0.3,0.6
					c0.2,0.3,0.8,0.3,0.9-0.1c0.1,0.3,0.2,0.6,0.5,0.7c0.3,0.1,0.7,0,0.7-0.3c0,0.3,0.3,0.6,0.7,0.6c0.3,0,0.6-0.4,0.6-0.7
					c0-0.3-0.2-0.5-0.3-0.7c-0.4-0.9,0.2-1.9,0.1-2.9c0-0.4-0.2-0.8-0.5-1.2C22.1,49,21.6,48.7,21.2,48.7
					C21.2,48.7,21.2,48.7,21.2,48.7z"/>
				<path class="st15" d="M22.3,49.3c0.8,0.7,1.5,2,1.6,3c0,0.2,0,0.3-0.1,0.5c-0.1,0.1-0.2,0.3-0.4,0.3c-0.2,0-0.3-0.1-0.4-0.3
					C23,52.7,23,52.5,23,52.4c0,0,0-0.1,0-0.1c-0.4-0.5-0.9-0.9-1.3-1.4L22.3,49.3z"/>
			</g>
			<path class="st0" d="M21.6,47.4c0,0.4,0,0.7,0,1c0,0.9-0.6,1.1-1.3,1.2c-0.7,0-1.3-0.1-1.6-1.3c-0.1-0.3-0.1-0.6-0.2-0.8
				C19.4,48.2,20.7,47.9,21.6,47.4z"/>
			<path class="st7" d="M17.9,40.5c-0.4-0.8,0.5-8.6,0.5-9c0-0.1,0.1-1.7,0.3-1.7l4.6,0c0,0.7-0.2,1.4-0.2,2
				C23,32.8,22,41,21.5,41.9C20.4,44.1,18.6,41.8,17.9,40.5z"/>
			<path class="st10" d="M20.9,24.1c-1.7-0.2-2.3,1.5-2.6,2.7c-0.4,1.6-0.5,3.4-0.3,5.1c0,0.4,0.1,0.9,0.3,1.2
				c0.2,0.3,0.4,0.6,0.7,0.8c0.6,0.6,1.4,1.1,2.2,1c0.3,0,0.5-0.1,0.8-0.2c0.3-0.1,0.7-0.3,0.9-0.5c0.4-0.4,0.5-1.1,0.5-1.7
				c0.1-1.5,0.2-3,0-4.6C23.3,26.4,23,24.4,20.9,24.1z"/>
			<path class="st10" d="M18.5,47.8c0.2,0.9,0.9,0.9,1.6,0.9c0.7-0.1,1.4-0.2,1.5-1.5c0.2-2.6,0.2-3.6,0.4-5.8c0-0.5,0.2-1.5-0.1-2
				c0,0,0-0.1-0.1-0.1c-0.2-0.2-0.6-0.1-0.8,0c-1.5,0.2-2.1-1.7-3.4-1.6c-0.4,0.1-0.3,1.7-0.3,2.1c0,0.5,0.1,1,0.1,1.6
				c0.1,0.6,0.1,1.2,0.2,1.7c0.1,0.6,0.2,1.2,0.3,1.7c0.1,0.5,0.2,1.1,0.3,1.6C18.4,46.9,18.5,47.3,18.5,47.8z"/>
		</g>
		<g>
			<g>
				<g>
					<defs>
						<path id="SVGID_00000011714401406248838600000007684909208338759811_" d="M30.7,66.6l-0.3-0.2c-0.3-0.1-0.6-0.1-1,0.1l0.3,0.2
							C30.1,66.5,30.5,66.4,30.7,66.6z"/>
					</defs>
					<use xlink:href="#SVGID_00000011714401406248838600000007684909208338759811_"  style="overflow:visible;fill:#4C1F8C;"/>
					<clipPath id="SVGID_00000043432619951856207430000004746117639924356736_">
						<use xlink:href="#SVGID_00000011714401406248838600000007684909208338759811_"  style="overflow:visible;"/>
					</clipPath>
					<g style="clip-path:url(#SVGID_00000043432619951856207430000004746117639924356736_);enable-background:new    ;">
						<path class="st0" d="M30.7,66.6l-0.3-0.2c-0.1-0.1-0.3-0.1-0.4-0.1l0.3,0.2C30.4,66.5,30.6,66.5,30.7,66.6L30.7,66.6z"/>
						<path class="st0" d="M30.3,66.5l-0.3-0.2c-0.1,0-0.2,0-0.3,0.1l0.3,0.2C30.1,66.5,30.2,66.5,30.3,66.5L30.3,66.5z"/>
						<path class="st0" d="M30,66.6l-0.3-0.2c-0.1,0-0.2,0.1-0.3,0.1l0.3,0.2C29.8,66.7,29.9,66.6,30,66.6L30,66.6z"/>
					</g>
				</g>
				<g>
					<defs>
						<path id="SVGID_00000119813267625191818870000000348513871490796940_" d="M28.6,69.8l0.3,0.2c-0.3-0.1-0.4-0.4-0.4-0.9
							c0-0.9,0.5-1.9,1.3-2.4l-0.3-0.2c-0.7,0.5-1.3,1.5-1.3,2.4C28.1,69.4,28.3,69.7,28.6,69.8z"/>
					</defs>
					<use xlink:href="#SVGID_00000119813267625191818870000000348513871490796940_"  style="overflow:visible;fill:#4C1F8C;"/>
					<clipPath id="SVGID_00000094605347097338065330000009965030524268189092_">
						<use xlink:href="#SVGID_00000119813267625191818870000000348513871490796940_"  style="overflow:visible;"/>
					</clipPath>
					<g style="clip-path:url(#SVGID_00000094605347097338065330000009965030524268189092_);enable-background:new    ;">
						<path class="st0" d="M29.7,66.7l-0.3-0.2c0,0,0,0,0,0L29.7,66.7C29.7,66.7,29.7,66.7,29.7,66.7L29.7,66.7z"/>
						<path class="st0" d="M29.7,66.7l-0.3-0.2c-0.1,0.1-0.2,0.1-0.3,0.2l0.3,0.2C29.5,66.9,29.6,66.8,29.7,66.7L29.7,66.7z"/>
						<path class="st0" d="M29.4,66.9l-0.3-0.2c-0.1,0.1-0.2,0.2-0.3,0.3l0.3,0.2C29.3,67.1,29.3,67,29.4,66.9L29.4,66.9z"/>
						<path class="st0" d="M29.2,67.2l-0.3-0.2c-0.2,0.3-0.4,0.5-0.5,0.9l0.3,0.2C28.8,67.8,29,67.5,29.2,67.2L29.2,67.2z"/>
						<path class="st0" d="M28.7,68.1l-0.3-0.2c0,0.1-0.1,0.2-0.1,0.3l0.3,0.2C28.6,68.3,28.6,68.2,28.7,68.1L28.7,68.1z"/>
						<path class="st0" d="M28.6,68.4l-0.3-0.2c0,0.1-0.1,0.2-0.1,0.4l0.3,0.2C28.5,68.7,28.5,68.6,28.6,68.4L28.6,68.4z"/>
						<path class="st0" d="M28.5,68.8l-0.3-0.2c0,0.1,0,0.2,0,0.3c0,0,0,0,0,0l0.3,0.2c0,0,0,0,0,0C28.5,69,28.5,68.9,28.5,68.8
							L28.5,68.8z"/>
						<path class="st0" d="M28.5,69.1l-0.3-0.2c0,0.1,0,0.2,0,0.3l0.3,0.2C28.5,69.4,28.5,69.2,28.5,69.1L28.5,69.1z"/>
						<path class="st0" d="M28.2,68.5l-0.4-0.2c0.1,0.3,0.2,0.4,0.4,0.5l0.4,0.2C28.4,69,28.3,68.8,28.2,68.5L28.2,68.5z"/>
					</g>
				</g>
				<g>
					<path class="st18" d="M29.7,66.7c-0.7,0.5-1.3,1.5-1.3,2.4c0,0.9,0.7,1.2,1.4,0.7c0.7-0.5,1.3-1.5,1.3-2.4
						C31.1,66.6,30.5,66.2,29.7,66.7z"/>
				</g>
			</g>
			<g>
				<path class="st0" d="M29.8,67.1c-0.5,0.3-1,1.1-0.9,1.8c0,0.6,0.5,0.9,1,0.5c0.5-0.3,1-1.1,0.9-1.8C30.8,67,30.4,66.8,29.8,67.1
					z"/>
			</g>
			<g>
				<g>
					<path class="st18" d="M29.8,67.6c-0.3,0.2-0.6,0.7-0.5,1c0,0.4,0.3,0.5,0.6,0.3c0.3-0.2,0.6-0.7,0.5-1
						C30.4,67.6,30.2,67.4,29.8,67.6z"/>
				</g>
			</g>
		</g>
		<g>
			<g>
				<g>
					<defs>
						<path id="SVGID_00000109020622739847971290000011909032464593330348_" d="M22.2,62.4l-0.3-0.2c-0.3-0.1-0.6-0.1-1,0.1l0.3,0.2
							C21.6,62.3,22,62.3,22.2,62.4z"/>
					</defs>
					<use xlink:href="#SVGID_00000109020622739847971290000011909032464593330348_"  style="overflow:visible;fill:#4C1F8C;"/>
					<clipPath id="SVGID_00000101082652276994837890000017029653281370672313_">
						<use xlink:href="#SVGID_00000109020622739847971290000011909032464593330348_"  style="overflow:visible;"/>
					</clipPath>
					<g style="clip-path:url(#SVGID_00000101082652276994837890000017029653281370672313_);enable-background:new    ;">
						<path class="st0" d="M22.2,62.4l-0.3-0.2c-0.1-0.1-0.3-0.1-0.4-0.1l0.3,0.2C22,62.3,22.1,62.4,22.2,62.4L22.2,62.4z"/>
						<path class="st0" d="M21.8,62.4l-0.3-0.2c-0.1,0-0.2,0-0.3,0.1l0.3,0.2C21.6,62.4,21.7,62.4,21.8,62.4L21.8,62.4z"/>
						<path class="st0" d="M21.5,62.4l-0.3-0.2c-0.1,0-0.2,0.1-0.3,0.1l0.3,0.2C21.3,62.5,21.4,62.5,21.5,62.4L21.5,62.4z"/>
					</g>
				</g>
				<g>
					<defs>
						<path id="SVGID_00000042715545317186646930000004635524947164943518_" d="M20.1,65.7l0.3,0.2C20.2,65.7,20,65.4,20,65
							c0-0.9,0.5-1.9,1.3-2.4l-0.3-0.2c-0.7,0.5-1.3,1.5-1.3,2.4C19.7,65.2,19.8,65.5,20.1,65.7z"/>
					</defs>
					<use xlink:href="#SVGID_00000042715545317186646930000004635524947164943518_"  style="overflow:visible;fill:#4C1F8C;"/>
					<clipPath id="SVGID_00000053503460619778170500000007436948876064148659_">
						<use xlink:href="#SVGID_00000042715545317186646930000004635524947164943518_"  style="overflow:visible;"/>
					</clipPath>
					<g style="clip-path:url(#SVGID_00000053503460619778170500000007436948876064148659_);enable-background:new    ;">
						<path class="st0" d="M21.3,62.6l-0.3-0.2c0,0,0,0,0,0L21.3,62.6C21.3,62.6,21.3,62.6,21.3,62.6L21.3,62.6z"/>
						<path class="st0" d="M21.2,62.6l-0.3-0.2c-0.1,0.1-0.2,0.1-0.3,0.2l0.3,0.2C21.1,62.7,21.1,62.6,21.2,62.6L21.2,62.6z"/>
						<path class="st0" d="M21,62.8l-0.3-0.2c-0.1,0.1-0.2,0.2-0.3,0.3l0.3,0.2C20.8,63,20.9,62.9,21,62.8L21,62.8z"/>
						<path class="st0" d="M20.7,63.1l-0.3-0.2c-0.2,0.3-0.4,0.5-0.5,0.9l0.3,0.2C20.3,63.6,20.5,63.3,20.7,63.1L20.7,63.1z"/>
						<path class="st0" d="M20.2,63.9l-0.3-0.2c0,0.1-0.1,0.2-0.1,0.3l0.3,0.2C20.1,64.2,20.1,64.1,20.2,63.9L20.2,63.9z"/>
						<path class="st0" d="M20.1,64.3l-0.3-0.2c0,0.1-0.1,0.2-0.1,0.4l0.3,0.2C20,64.5,20,64.4,20.1,64.3L20.1,64.3z"/>
						<path class="st0" d="M20,64.6l-0.3-0.2c0,0.1,0,0.2,0,0.3c0,0,0,0,0,0L20,65c0,0,0,0,0,0C20,64.9,20,64.8,20,64.6L20,64.6z"/>
						<path class="st0" d="M20,65l-0.3-0.2c0,0.1,0,0.2,0,0.3l0.3,0.2C20,65.2,20,65.1,20,65L20,65z"/>
						<path class="st0" d="M19.7,64.4l-0.4-0.2c0.1,0.3,0.2,0.4,0.4,0.5l0.4,0.2C20,64.8,19.8,64.6,19.7,64.4L19.7,64.4z"/>
					</g>
				</g>
				<g>
					<path class="st18" d="M21.3,62.6C20.5,63,20,64.1,20,65c0,0.9,0.7,1.2,1.4,0.7c0.7-0.5,1.3-1.5,1.3-2.4
						C22.6,62.4,22,62.1,21.3,62.6z"/>
				</g>
			</g>
			<g>
				<path class="st0" d="M21.3,63c-0.5,0.3-1,1.1-0.9,1.8c0,0.6,0.5,0.9,1,0.5c0.5-0.3,1-1.1,0.9-1.8C22.3,62.9,21.9,62.6,21.3,63z"
					/>
			</g>
			<g>
				<g>
					<path class="st11" d="M21.4,63.5c-0.3,0.2-0.6,0.7-0.5,1c0,0.4,0.3,0.5,0.6,0.3c0.3-0.2,0.6-0.7,0.5-1
						C21.9,63.4,21.7,63.3,21.4,63.5z"/>
				</g>
			</g>
		</g>
		<path class="st15" d="M48.3,34c0.7-1,1.3-2.1,2.1-2.9c0.3-0.3,0.6-0.6,1-0.8c0.1-0.1,0.3-0.2,0.4-0.2c0.2,0,0.3,0,0.5,0.1
			c0.1,0.1,0.2,0.3,0.1,0.4c0.2,0,0.5,0,0.6,0.1c0.2,0.1,0.2,0.4,0.2,0.6c0.2-0.1,0.5,0,0.7,0.3c0.1,0.2,0.1,0.5,0,0.7
			c0.2,0,0.4,0.2,0.5,0.5c0,0.2-0.1,0.5-0.3,0.7c-1.2,1.6-3,2.3-4.4,3.6c-0.3-0.2-0.5-0.4-0.6-0.7c-0.1-0.4-0.3-0.8-0.6-1.1L48.3,34
			z"/>
		<path class="st15" d="M50.8,30.8c1.1-0.9,2.4-1.9,3.6-2.7c0.1-0.1,0.3-0.2,0.4-0.2c0.1,0,0.3,0,0.4,0.1c0.1,0.1,0.1,0.2,0.1,0.3
			c0,0.3-0.3,0.5-0.6,0.8c-0.9,0.8-1.6,1.4-2.5,2c-0.1,0,0,0.2-0.1,0.2c-0.2,0-0.3-0.2-0.3-0.4c0-0.2,0.1-0.3,0.2-0.5L50.8,30.8z"/>
		<path class="st15" d="M48.6,32.3c0.1-0.3,0.3-0.5,0.5-0.7c0.4-0.3,0.9-0.3,1.3-0.4c0,0.4-0.2,0.8-0.4,1.1
			c-0.2,0.3-0.5,0.6-0.7,0.9c-0.2,0.2-0.3,0.5-0.5,0.7c-0.1,0.1-0.3,1.4-0.5,1.3c-0.2-0.1-0.4-0.5-0.4-0.6
			C48.1,34.1,48.4,32.7,48.6,32.3z"/>
		<path class="st0" d="M33,14.8c0.3,0.2,0.5,0.3,0.7,0.5c-0.2,0.1-0.3,0.2-0.4,0.3c-0.2-0.2-0.4-0.4-0.7-0.6c-1.4-0.8-3.8-0.8-5.2,0
			L27,14.8C28.7,13.9,31.4,13.9,33,14.8z"/>
		<g>
			<path class="st0" d="M27.4,15.1l0,1.9c1.4-0.8,3.8-0.8,5.2,0c0.7,0.4,1.1,1,1.1,1.5l0-1.9c0-0.5-0.4-1.1-1.1-1.5
				C31.2,14.2,28.8,14.2,27.4,15.1L27.4,15.1z"/>
		</g>
		<path class="st0" d="M22.7,59.5c-0.2,0-0.4,0.1-0.6,0.2c-0.3,0.1-0.5,0.4-0.7,0.6c-0.4,0.5-0.9-0.4-1.1,0.2
			c-0.2,0.5,0.3,3.7,0.3,4.3c0.1,0.9,0.2,3.2,0.7,3.8c0.7,0.7,1.9-1,2.8-1.2c0.2,0,0.3-0.1,0.5-0.1c1-0.4,1.5-0.4,1.7-1.5
			c0.2-1.5,0.8-3.8,0.2-5c-0.4-0.7-1.1-1.1-1.8-1.3c-0.6-0.2-1.3-0.2-1.9-0.1C22.9,59.4,22.8,59.4,22.7,59.5z"/>
		<g>
			<g id="man_34_">
				<g>
					<g>
						<g>
							<g>
								<g>
									<path class="st5" d="M21.8,82.1c0.2-0.7,1.3-0.3,1.7-0.5c0.8-0.4,1.5-1.3,2.2-1.8c0.8-0.6,1.6-0.9,2.5-1.3
										c0.4-0.2,0.7-0.3,1.1-0.3c1.1,0,1.9,1.4,1.8,2.4c0,0.5-0.3,0.9-0.7,1.3c-0.6,0.5-1.4,1-2.1,1.1c-0.8,0.2-1.5,0.5-2.1,1
										c-0.8,0.7-1.3,1.4-2.4,1.6c-1.1,0.2-2.1-0.4-2.2-1.6c0-0.4,0-0.8,0-1.2C21.8,82.5,21.8,82.3,21.8,82.1z"/>
								</g>
							</g>
						</g>
					</g>
				</g>
			</g>
			<g id="man_33_">
				<g>
					<g>
						<g>
							<path class="st10" d="M21.7,81.9c0.2-0.6,1.2-0.3,1.7-0.5c0.8-0.4,1.4-1.2,2.1-1.7c0.7-0.5,1.6-0.9,2.4-1.2
								c0.3-0.1,0.7-0.3,1.1-0.3c1,0,1.8,1.4,1.7,2.3c0,0.5-0.3,0.9-0.7,1.2c-0.5,0.5-1.3,0.9-2,1.1c-0.8,0.2-1.4,0.5-2,1
								c-0.7,0.7-1.3,1.4-2.3,1.5c-1,0.2-2-0.4-2.1-1.5c0-0.4,0-0.8,0-1.2C21.7,82.3,21.7,82.1,21.7,81.9z"/>
						</g>
					</g>
				</g>
			</g>
			<path class="st0" d="M24.5,78.3c0.1,0,0.2,0.1,0.3,0.2c0.1,0.1,0.3,0.3,0.4,0.4c0.2,0.4,0.2-0.1,0.3,0.4c0,0.3-0.2,2.2-0.3,2.5
				c-0.1,0.6-0.8,1.3-2.3,1c-0.8-0.1-1.1-0.5-1.1-1.2c0-1-0.2-2.2,0.3-2.9c0.3-0.4,0.8-0.5,1.2-0.6c0.4-0.1,0.8,0,1.1,0.1
				C24.4,78.3,24.4,78.3,24.5,78.3z"/>
			<path class="st10" d="M25.6,80.2c-0.1,2.4-2.6,2.6-3.7,1.5c-0.6-0.5-0.4-1.2-0.6-1.9C21,78.5,20.5,75,20,71.5
				c-0.7-4.4,0.7-6.3,0.7-6.4c0.2,0.6,0.6,1.4,1.2,1.6c1.4,0.6,3.7,0.6,4.4-1C26.8,68.2,25.9,73.9,25.6,80.2z"/>
			<g>
				<path class="st7" d="M20.2,51.1c0,0.6,0,1.1,0,1.7c0,1.9,0.1,4.5,0.2,6.5c0.1,1.1,0,3,0.8,3.9c0.7,0.9,1.8,1.4,3,1.3
					c0.4,0,0.7-0.1,1-0.4c0.6-0.5,1.1-0.4,1.2-1.2c0.9-7.7,0.8-7.1,0.7-10c0-0.7,0.5-2.2,0.4-3.3c-0.1-1.2-1.5-3.1-1.9-3.7
					C23.7,43.3,19.9,47,20.2,51.1z"/>
				<path class="st10" d="M20.2,50.4c0.4,1.1,2.2,2.9,3.4,3.7c1.8,1.2,3.9,1.6,3.8,2.7c-0.1,2.1-0.4,6.9-0.5,7.7
					c-0.1,0.7-0.5,1.9-4.1,1.2c-2-0.4-2.2-2.2-2.5-4.1C19.2,52.8,20.1,50.6,20.2,50.4z"/>
			</g>
		</g>
		<path class="st0" d="M22,66.1v3.9c0,0.4-0.3,0.6-0.6,0.4l0,0c-0.3-0.2-0.6-0.7-0.6-1.1v-4.1L22,66.1z"/>
		<path class="st0" d="M31.7,63.3c-0.2,0-0.4,0.1-0.6,0.2c-0.3,0.1-0.5,0.4-0.7,0.6c-0.4,0.5-0.9-0.4-1.1,0.2
			c-0.2,0.5,0.3,3.7,0.3,4.3c0.1,0.9,0.2,3.2,0.7,3.8c0.7,0.7,1.9-1,2.8-1.2c0.2,0,0.3-0.1,0.5-0.1c1-0.4,1.5-0.4,1.7-1.5
			c0.2-1.5,0.8-3.8,0.2-5c-0.4-0.7-1.1-1.1-1.8-1.3c-0.6-0.2-1.3-0.2-1.9-0.1C31.8,63.3,31.7,63.3,31.7,63.3z"/>
		
			<linearGradient id="SVGID_00000147900365521821503070000017078695719631892374_" gradientUnits="userSpaceOnUse" x1="27.4522" y1="29.2251" x2="26.6419" y2="53.4621">
			<stop  offset="0" style="stop-color:#AC44EE"/>
			<stop  offset="0.3072" style="stop-color:#8334C4"/>
			<stop  offset="0.5912" style="stop-color:#6529A6"/>
			<stop  offset="0.8318" style="stop-color:#532293"/>
			<stop  offset="1" style="stop-color:#4C1F8C"/>
		</linearGradient>
		<path style="fill:url(#SVGID_00000147900365521821503070000017078695719631892374_);" d="M19.6,30.5c-0.3-2.3-0.5-4.2,1.5-5.4
			c2.6-1.5,5.1,0,7.5,0.9c2.4,0.9,6,1.8,6.5,2.5c1.8,2.6-2.6,9.2-1.4,19.1c0.2,1.3,1.9,3.9-0.7,5.2c-5.8,2.9-12.1-2.5-12-5
			C21.7,34.6,20.2,35.2,19.6,30.5z"/>
		
			<linearGradient id="SVGID_00000152954468703684340780000005355734259986927527_" gradientUnits="userSpaceOnUse" x1="-2362.0347" y1="27.3545" x2="-2353.4482" y2="37.354" gradientTransform="matrix(-1 0 0 1 -2332.4978 0)">
			<stop  offset="0" style="stop-color:#E8E9FC"/>
			<stop  offset="1" style="stop-color:#D3D4EC"/>
		</linearGradient>
		<path style="fill:url(#SVGID_00000152954468703684340780000005355734259986927527_);" d="M30.8,31.2c0.3-3.1,2.2-3.1,3.7-2.5
			c0.5,0.2,1,0.5,1,0.5s0-1.1-1.3-2c-0.4-0.3-2.3-1.1-2.8-1.4c-1-0.5-1.9-0.9-2.9-1.3c-1.1-0.5-2.2-0.9-3.4-1
			c-1.6-0.2-3.3,0.1-4.5,1.3c-1.2,1.1-1.5,3.1-1.4,4.5c0.3,2.6,1.6,7.9,1.6,7.9s0.6,0.4,1.1,0.7c4.5,2.4,6.6,3.8,7,3.4
			C29.2,40.8,30.7,32,30.8,31.2z"/>
		<path class="st15" d="M22.5,52c1.3,1.2,3.2,2.2,4.7,2.5c2.2,0.5,4.4-0.3,6.1-1.7c0.8-0.6,1.3-0.9,1.7-1.8c0.3-0.7-1.3-3.5-1.3-3.5
			c-0.5,0.3-0.9,0.6-1.4,0.9c-2.5,1.4-6.5,1.3-9,0c-2-1-2.1-3.5-2.1-3.5S19.9,49.6,22.5,52z"/>
		<path class="st0" d="M29.7,23.1c0.1-0.7,0.6-0.5,0.3-1.2c-0.2-0.6-0.6-1.1-1-1.4c-0.5-0.4-1-0.6-1.6-0.6c-0.2,0-0.3,0.1-0.5,0.1
			c-0.5,0-1.1-0.1-1.6,0c-0.5,0.1-1.6-0.1-1.6,0.5c0,3.1,0.1,2.9,0,4c-0.1,1.1,0.9,3,4.4,2.5C30.9,26.7,29.4,25.4,29.7,23.1z"/>
		<g>
			<g id="man_32_">
				<g>
					<g>
						<g>
							<path class="st5" d="M30.8,86.3c0.3-0.6,1.3,0,1.7-0.1c0.9-0.1,1.7-0.8,2.5-1.1c0.9-0.3,1.8-0.4,2.7-0.6
								c0.4-0.1,0.9-0.3,1.2-0.2c1,0.2,1.3,2,1,2.9c-0.2,0.5-0.6,0.8-1,1c-0.6,0.3-1.5,0.5-2.2,0.5c-0.8,0-1.5,0.1-2.2,0.4
								c-0.9,0.5-1.6,1-2.7,0.9c-1.1-0.1-1.8-0.9-1.6-2c0.1-0.4,0.2-0.8,0.3-1.1C30.7,86.6,30.8,86.5,30.8,86.3z"/>
						</g>
					</g>
				</g>
			</g>
			<g id="man_29_">
				<g>
					<g>
						<g>
							<path class="st11" d="M30.8,86c0.3-0.6,1.3,0,1.7-0.1c0.9-0.1,1.7-0.8,2.5-1.1c0.8-0.3,1.8-0.4,2.7-0.6
								c0.4-0.1,0.8-0.1,1.1,0c1,0.2,1.4,1.8,1,2.6c-0.2,0.5-0.6,0.8-1,1c-0.6,0.3-1.5,0.5-2.2,0.5c-0.8,0-1.5,0.1-2.2,0.4
								c-0.9,0.5-1.6,1-2.6,0.9c-1.1-0.1-1.8-0.9-1.6-2c0.1-0.4,0.2-0.8,0.3-1.1C30.7,86.3,30.8,86.1,30.8,86z"/>
						</g>
					</g>
				</g>
			</g>
			<path class="st0" d="M33.4,82.2c0.1,0,0.2,0.1,0.3,0.2c0.1,0.1,0.3,0.3,0.4,0.4c0.2,0.4,0.2-0.1,0.3,0.4c0,0.3-0.2,2.2-0.3,2.5
				c-0.1,0.6-0.8,1.3-2.3,1c-0.8-0.1-1.1-0.5-1.1-1.2c0-1-0.2-2.2,0.3-2.9c0.3-0.4,0.8-0.5,1.2-0.6c0.4-0.1,0.8,0,1.1,0.1
				C33.3,82.2,33.3,82.2,33.4,82.2z"/>
			
				<linearGradient id="SVGID_00000079469584669983399070000006239672699484187542_" gradientUnits="userSpaceOnUse" x1="-2368.0173" y1="75.06" x2="-2354.4202" y2="83.2183" gradientTransform="matrix(-1 0 0 1 -2332.4978 0)">
				<stop  offset="0" style="stop-color:#E8E9FC"/>
				<stop  offset="1" style="stop-color:#D3D4EC"/>
			</linearGradient>
			<path style="fill:url(#SVGID_00000079469584669983399070000006239672699484187542_);" d="M34.5,84c-0.1,2.4-2.6,2.6-3.7,1.5
				c-0.6-0.5-0.4-1.2-0.6-1.9c-0.3-1.3-1-4.9-1.6-8.4c-0.1-0.7-0.2-1.3-0.2-1.8c-0.1-3.1,1.2-4.4,1.2-4.4c0.2,0.6,0.6,1.4,1.2,1.6
				c1.4,0.6,3.7,0.6,4.4-1C35.7,72,34.8,77.7,34.5,84z"/>
			<g>
				<path class="st7" d="M28.6,55.1c0,0.6,0.1,1.1,0.1,1.7c0.1,1.9,0.2,4.5,0.4,6.5c0.1,1.1,0.1,3,0.8,3.9c0.7,0.9,1.7,1.3,2.8,1.2
					c0.3,0,0.7-0.1,0.9-0.4c0.6-0.6,1-0.4,1.1-1.2c0.6-7.8,0.3-7.3,0.1-10.2c0-0.6,0.7-2,0.6-3.1c-0.2-1.2-0.3-2.5-0.7-3.1
					C32.8,47.7,28.9,51.3,28.6,55.1z"/>
				
					<linearGradient id="SVGID_00000171706580962522471750000001490804185864158905_" gradientUnits="userSpaceOnUse" x1="-2368.0769" y1="59.1448" x2="-2359.8459" y2="65.5052" gradientTransform="matrix(-1 0 0 1 -2332.4978 0)">
					<stop  offset="0" style="stop-color:#E8E9FC"/>
					<stop  offset="1" style="stop-color:#D3D4EC"/>
				</linearGradient>
				<path style="fill:url(#SVGID_00000171706580962522471750000001490804185864158905_);" d="M36,53.7c0.7,5.7-0.2,13.3-0.2,13.3
					c0,0.7-0.4,3.3-4.2,2.6c-2.2-0.4-2.4-2.2-2.6-4.1c-1.2-8.8-0.9-8,0.1-9.2c0.5-0.6,0.7-1.3,1.1-1.9C31.2,52.8,35.5,49.7,36,53.7z
					"/>
			</g>
		</g>
		<path class="st15" d="M27.3,11.2c1.3,0,2.4,0.4,3.4,1v10.1c-1,0.6-2.1,1-3.4,1c-3.4,0-6.1-2.7-6.1-6.1S23.9,11.2,27.3,11.2z"/>
		<g>
			<path class="st15" d="M32.2,13.5c0.5,0.7,0.8,1.5,0.8,2.4c0,0.4,0.3,4.3,0.2,4.7c-0.1,0.2-0.3,2.8-1.2,3.5
				c-0.2,0.2-0.5,0.2-0.8,0.3c-0.4,0-2.1-0.4-2.7-0.6c-0.7-0.3-1.7-0.6-2.2-1.2c-0.4-0.4-0.8-1.2-1.1-2.3c0,0-0.8,0.1-1.4-0.8
				c-0.8-1.2-1.1-2.2-1.1-3.4c0-1.1,0.1-2,0.7-2.9c0.5-0.7,1.2-1.3,2-1.7c1.2-0.5,2.6-0.6,3.9-0.2C30.5,11.7,31.5,12.5,32.2,13.5z"
				/>
		</g>
		<path class="st0" d="M26.4,11.2c3.3-0.6,5.5,2.6,4.6,4.8c-0.6,1.5-3,1.6-3.5,4.6c-0.1,0.5,0.2,2.2,0,2.7c-1,2.2-4-1.2-4.9-2.3
			c-0.9-1.1-1.3-2.4-1.3-3.8c0-1.9,1-3.8,2.5-4.9C24.4,11.8,25.5,11.4,26.4,11.2z"/>
		<path class="st15" d="M28.3,12.9c1.1,1.2,0.9,2.8-1.3,4.2c-1.8,1.2-0.9,4.4-1.9,6.4c-1-0.7-2.1-1.9-2.6-2.5
			c-0.9-1.1-1.3-2.4-1.3-3.8c0-1.9,1-3.8,2.5-4.9c0.5-0.4,1.2-0.7,1.9-0.9C26.6,11.6,27.6,12.1,28.3,12.9z"/>
		<g>
			<g>
				<g>
					<defs>
						<path id="SVGID_00000176754263531089526970000011151356650759396015_" d="M29.9,18l-0.4-0.2c-0.3-0.1-0.7-0.1-1.1,0.1l0.4,0.2
							C29.2,17.9,29.6,17.9,29.9,18z"/>
					</defs>
					<use xlink:href="#SVGID_00000176754263531089526970000011151356650759396015_"  style="overflow:visible;fill:#7350BA;"/>
					<clipPath id="SVGID_00000079458839608820673150000002117189405173996208_">
						<use xlink:href="#SVGID_00000176754263531089526970000011151356650759396015_"  style="overflow:visible;"/>
					</clipPath>
					<g style="clip-path:url(#SVGID_00000079458839608820673150000002117189405173996208_);enable-background:new    ;">
						<path class="st7" d="M29.9,18l-0.4-0.2c-0.1-0.1-0.3-0.1-0.5-0.1l0.4,0.2C29.6,17.9,29.8,17.9,29.9,18L29.9,18z"/>
						<path class="st7" d="M29.4,17.9l-0.4-0.2c-0.1,0-0.2,0-0.3,0.1l0.4,0.2C29.2,18,29.3,17.9,29.4,17.9L29.4,17.9z"/>
						<path class="st7" d="M29.1,18l-0.4-0.2c-0.1,0-0.2,0.1-0.3,0.1l0.4,0.2C28.9,18.1,29,18,29.1,18L29.1,18z"/>
					</g>
				</g>
				<g>
					<defs>
						<path id="SVGID_00000052084056506972518660000014897545478460185505_" d="M27.5,21.5l0.4,0.2c-0.3-0.1-0.5-0.5-0.5-0.9
							c0-1,0.6-2.1,1.4-2.6L28.5,18c-0.8,0.5-1.4,1.7-1.4,2.6C27.1,21.1,27.3,21.4,27.5,21.5z"/>
					</defs>
					<use xlink:href="#SVGID_00000052084056506972518660000014897545478460185505_"  style="overflow:visible;fill:#7350BA;"/>
					<clipPath id="SVGID_00000133523377375044024100000016741284428769277829_">
						<use xlink:href="#SVGID_00000052084056506972518660000014897545478460185505_"  style="overflow:visible;"/>
					</clipPath>
					<g style="clip-path:url(#SVGID_00000133523377375044024100000016741284428769277829_);enable-background:new    ;">
						<path class="st7" d="M28.8,18.2L28.5,18c0,0,0,0,0,0L28.8,18.2C28.8,18.2,28.8,18.2,28.8,18.2L28.8,18.2z"/>
						<path class="st7" d="M28.8,18.2L28.4,18c-0.1,0.1-0.2,0.2-0.3,0.2l0.4,0.2C28.6,18.3,28.7,18.2,28.8,18.2L28.8,18.2z"/>
						<path class="st7" d="M28.5,18.4l-0.4-0.2c-0.1,0.1-0.2,0.2-0.3,0.3l0.4,0.2C28.3,18.6,28.4,18.5,28.5,18.4L28.5,18.4z"/>
						<path class="st7" d="M28.2,18.7l-0.4-0.2c-0.2,0.3-0.4,0.6-0.5,0.9l0.4,0.2C27.8,19.3,28,19,28.2,18.7L28.2,18.7z"/>
						<path class="st7" d="M27.7,19.7l-0.4-0.2c0,0.1-0.1,0.3-0.1,0.4l0.4,0.2C27.6,19.9,27.6,19.8,27.7,19.7L27.7,19.7z"/>
						<path class="st7" d="M27.5,20l-0.4-0.2c0,0.1-0.1,0.3-0.1,0.4l0.4,0.2C27.5,20.3,27.5,20.2,27.5,20L27.5,20z"/>
						<path class="st7" d="M27.5,20.4l-0.4-0.2c0,0.1,0,0.2,0,0.4c0,0,0,0,0,0l0.4,0.2c0,0,0,0,0,0C27.4,20.7,27.4,20.6,27.5,20.4
							L27.5,20.4z"/>
						<path class="st7" d="M27.4,20.8l-0.4-0.2c0,0.1,0,0.2,0.1,0.4l0.4,0.2C27.5,21.1,27.5,20.9,27.4,20.8L27.4,20.8z"/>
						<path class="st7" d="M27.2,20.2L26.8,20c0.1,0.3,0.2,0.5,0.4,0.6l0.4,0.2C27.4,20.6,27.3,20.4,27.2,20.2L27.2,20.2z"/>
					</g>
				</g>
				<g>
					<path class="st11" d="M28.8,18.2c-0.8,0.5-1.4,1.7-1.4,2.6c0,0.9,0.7,1.3,1.5,0.8c0.8-0.5,1.4-1.7,1.4-2.6
						C30.3,18,29.6,17.7,28.8,18.2z"/>
				</g>
			</g>
			<g>
				<path class="st7" d="M28.9,18.6c-0.6,0.4-1.1,1.3-1,2c0,0.7,0.5,1,1.1,0.6c0.6-0.4,1.1-1.3,1-2C30,18.5,29.5,18.2,28.9,18.6z"/>
			</g>
			<g>
				<g>
					<path class="st11" d="M28.9,19.1c-0.3,0.2-0.6,0.7-0.6,1.1c0,0.4,0.3,0.6,0.6,0.3c0.3-0.2,0.6-0.7,0.6-1.1
						C29.6,19.1,29.3,18.9,28.9,19.1z"/>
				</g>
			</g>
		</g>
		<path class="st0" d="M46.8,35.3c0.4-0.2,0.7-0.4,1-0.6c0.8-0.5,1.4,0,1.8,0.5c0.4,0.6,0.6,1.3-0.3,2.2c-0.2,0.2-0.4,0.4-0.7,0.6
			C48.7,37,47.8,35.9,46.8,35.3z"/>
		<path class="st7" d="M38.3,43.8c-1-0.9-3.7-6.9-3.9-7.2c-0.1-0.1-0.8-1.5-0.7-1.6c0,0,3.8-2.6,3.8-2.6c0.4,0.6,0.7,1.3,1,1.8
			c0.5,0.9,2.7,6.7,2.8,7.8C41.6,44.4,39.4,44.8,38.3,43.8z"/>
		<path class="st15" d="M32.2,29.1c-1.6,0.8-1.1,2.6-0.7,3.8c0.5,1.6,1.5,3.1,2.6,4.4c0.3,0.3,0.6,0.6,1,0.8c0.3,0.2,0.7,0.2,1,0.3
			c0.8,0.1,1.8,0.1,2.5-0.4c0.2-0.2,0.4-0.4,0.5-0.6c0.2-0.3,0.4-0.6,0.5-1c0.1-0.6-0.2-1.2-0.5-1.7c-0.7-1.3-1.6-2.6-2.5-3.8
			C35.6,29.6,34.2,28.1,32.2,29.1z"/>
		<path class="st15" d="M48.8,37.9c0.7-0.6,0.3-1.3-0.1-2c-0.4-0.6-1-1.2-2.2-0.6c-2.5,1.2-3.4,1.8-5.5,2.8
			c-0.5,0.2-1.5,0.6-1.8,1.1c-0.3,0.5,0.6,0.9,0.6,1.5c0,0.3-0.4,1-0.6,1.3c-0.4,0.7,0,2.1,0.7,2.1C41.3,44.2,46.5,39.9,48.8,37.9z"
			/>
		<g>
			<g class="st1">
				<g class="st1">
					<defs>
						<path id="SVGID_00000010290983627210776670000002868359272940498072_" class="st1" d="M33.7,18.5l0-1.9c0-0.5-0.4-1.1-1.1-1.5
							c-1.4-0.8-3.8-0.8-5.2,0l0,1.9c1.4-0.8,3.8-0.8,5.2,0C33.3,17.4,33.7,17.9,33.7,18.5z"/>
					</defs>
					<clipPath id="SVGID_00000049926464129378567760000011311875669927707546_">
						<use xlink:href="#SVGID_00000010290983627210776670000002868359272940498072_"  style="overflow:visible;"/>
					</clipPath>
				</g>
				<g>
					<polygon class="st10" points="32.5,18.2 32.5,20.1 32.9,20.3 32.9,18.4 					"/>
				</g>
				<g class="st1">
					<defs>
						<path id="SVGID_00000103254015393817809900000016166060218867097993_" class="st1" d="M34.3,18.5l0-1.9c0,0.6-0.4,1.3-1.3,1.8
							c0,0-0.1,0-0.1,0.1l0,1.9c0,0,0.1,0,0.1-0.1C33.9,19.8,34.3,19.1,34.3,18.5z"/>
					</defs>
					<clipPath id="SVGID_00000180362570777799324450000008025472872441536933_">
						<use xlink:href="#SVGID_00000103254015393817809900000016166060218867097993_"  style="overflow:visible;"/>
					</clipPath>
					<g style="clip-path:url(#SVGID_00000180362570777799324450000008025472872441536933_);">
						<g>
							<path class="st15" d="M32.9,18.4l0,1.9c0,0,0.1,0,0.1-0.1c0.8-0.5,1.3-1.1,1.3-1.8l0-1.9c0,0.6-0.4,1.3-1.3,1.8
								C33,18.4,32.9,18.4,32.9,18.4L32.9,18.4z"/>
						</g>
					</g>
				</g>
				<g>
					<path class="st0" d="M33,18.3c0,0-0.1,0-0.1,0.1l-0.4-0.2c0,0,0.1,0,0.1-0.1c1.2-0.7,1.4-1.7,0.7-2.5c0.1-0.1,0.3-0.2,0.4-0.3
						C34.6,16.3,34.4,17.5,33,18.3z"/>
				</g>
			</g>
		</g>
		<path class="st0" d="M30.9,69.9l0,3.9c0,0.4-0.3,0.6-0.6,0.4l0,0c-0.3-0.2-0.6-0.7-0.6-1.1l0-4.1L30.9,69.9z"/>
		<path class="st0" d="M30.6,85.4v-2.7c0-0.3,0.2-0.4,0.4-0.3l0,0c0.2,0.1,0.4,0.5,0.4,0.8v2.9l-0.6-0.2L30.6,85.4z"/>
		<path class="st0" d="M21.7,81.6l0-2.5c0-0.2,0.2-0.4,0.4-0.2l0,0c0.2,0.1,0.4,0.4,0.4,0.7l0,2.6L22,82L21.7,81.6z"/>
		<g>
			<g>
				<g>
					<defs>
						<path id="SVGID_00000021120068832838623140000012191592699278860987_" d="M36.2,68.2L35.8,68c-0.3-0.1-0.6-0.1-1.1,0.1
							l0.4,0.2C35.5,68.1,35.9,68.1,36.2,68.2z"/>
					</defs>
					<use xlink:href="#SVGID_00000021120068832838623140000012191592699278860987_"  style="overflow:visible;fill:#4C1F8C;"/>
					<clipPath id="SVGID_00000038383908981972115550000016152190020395405487_">
						<use xlink:href="#SVGID_00000021120068832838623140000012191592699278860987_"  style="overflow:visible;"/>
					</clipPath>
					<g style="clip-path:url(#SVGID_00000038383908981972115550000016152190020395405487_);enable-background:new    ;">
						<path class="st0" d="M36.2,68.2L35.8,68c-0.1-0.1-0.3-0.1-0.5-0.1l0.4,0.2C35.9,68.1,36,68.2,36.2,68.2L36.2,68.2z"/>
						<path class="st0" d="M35.7,68.2L35.3,68c-0.1,0-0.2,0-0.3,0.1l0.4,0.2C35.5,68.2,35.6,68.2,35.7,68.2L35.7,68.2z"/>
						<path class="st0" d="M35.4,68.2L35,68c-0.1,0-0.2,0.1-0.3,0.1l0.4,0.2C35.2,68.3,35.3,68.3,35.4,68.2L35.4,68.2z"/>
					</g>
				</g>
				<g>
					<defs>
						<path id="SVGID_00000177466980084052928880000014158552984861659821_" d="M33.8,71.7l0.4,0.2c-0.3-0.1-0.4-0.5-0.5-0.9
							c0-0.9,0.6-2.1,1.4-2.6l-0.4-0.2c-0.8,0.5-1.4,1.7-1.4,2.6C33.4,71.3,33.6,71.6,33.8,71.7z"/>
					</defs>
					<use xlink:href="#SVGID_00000177466980084052928880000014158552984861659821_"  style="overflow:visible;fill:#4C1F8C;"/>
					<clipPath id="SVGID_00000106858929865531996380000015784405818883009668_">
						<use xlink:href="#SVGID_00000177466980084052928880000014158552984861659821_"  style="overflow:visible;"/>
					</clipPath>
					<g style="clip-path:url(#SVGID_00000106858929865531996380000015784405818883009668_);enable-background:new    ;">
						<path class="st0" d="M35.1,68.4l-0.4-0.2c0,0,0,0,0,0L35.1,68.4C35.1,68.4,35.1,68.4,35.1,68.4L35.1,68.4z"/>
						<path class="st0" d="M35.1,68.4l-0.4-0.2c-0.1,0.1-0.2,0.2-0.3,0.2l0.4,0.2C34.9,68.5,35,68.5,35.1,68.4L35.1,68.4z"/>
						<path class="st0" d="M34.8,68.6l-0.4-0.2c-0.1,0.1-0.2,0.2-0.3,0.3l0.4,0.2C34.6,68.8,34.7,68.7,34.8,68.6L34.8,68.6z"/>
						<path class="st0" d="M34.5,69l-0.4-0.2c-0.2,0.3-0.4,0.6-0.5,0.9l0.4,0.2C34.1,69.5,34.3,69.2,34.5,69L34.5,69z"/>
						<path class="st0" d="M33.9,69.9l-0.4-0.2c0,0.1-0.1,0.2-0.1,0.4l0.4,0.2C33.9,70.1,33.9,70,33.9,69.9L33.9,69.9z"/>
						<path class="st0" d="M33.8,70.2l-0.4-0.2c0,0.1-0.1,0.3-0.1,0.4l0.4,0.2C33.8,70.5,33.8,70.4,33.8,70.2L33.8,70.2z"/>
						<path class="st0" d="M33.7,70.6l-0.4-0.2c0,0.1,0,0.2,0,0.4c0,0,0,0,0,0l0.4,0.2c0,0,0,0,0,0C33.7,70.9,33.7,70.8,33.7,70.6
							L33.7,70.6z"/>
						<path class="st0" d="M33.7,71l-0.4-0.2c0,0.1,0,0.2,0.1,0.4l0.4,0.2C33.8,71.3,33.7,71.1,33.7,71L33.7,71z"/>
						<path class="st0" d="M33.5,70.4l-0.4-0.2c0.1,0.3,0.2,0.5,0.4,0.6l0.4,0.2C33.7,70.8,33.5,70.6,33.5,70.4L33.5,70.4z"/>
					</g>
				</g>
				<g>
					<path class="st3" d="M35.1,68.4c-0.8,0.5-1.4,1.7-1.4,2.6c0,0.9,0.7,1.3,1.5,0.8c0.8-0.5,1.4-1.7,1.4-2.6
						C36.6,68.2,35.9,67.9,35.1,68.4z"/>
				</g>
			</g>
			<g>
				<path class="st0" d="M35.2,68.8c-0.6,0.4-1.1,1.2-1,1.9c0,0.7,0.5,1,1.1,0.6c0.6-0.4,1.1-1.2,1-1.9
					C36.3,68.7,35.8,68.4,35.2,68.8z"/>
			</g>
			<g>
				<g>
					<path class="st15" d="M35.2,69.4c-0.3,0.2-0.6,0.7-0.6,1.1c0,0.4,0.3,0.5,0.6,0.3c0.3-0.2,0.6-0.7,0.6-1.1
						C35.9,69.3,35.6,69.1,35.2,69.4z"/>
				</g>
			</g>
		</g>
		<g>
			<g>
				<g>
					<defs>
						<path id="SVGID_00000008836567909516125610000004501484688570970538_" d="M41.9,40.7l-0.4-0.2c-0.3-0.1-0.6-0.1-1.1,0.1
							l0.4,0.2C41.2,40.6,41.6,40.6,41.9,40.7z"/>
					</defs>
					<use xlink:href="#SVGID_00000008836567909516125610000004501484688570970538_"  style="overflow:visible;fill:#4C1F8C;"/>
					<clipPath id="SVGID_00000141426712623185476230000012037467692143871108_">
						<use xlink:href="#SVGID_00000008836567909516125610000004501484688570970538_"  style="overflow:visible;"/>
					</clipPath>
					<g style="clip-path:url(#SVGID_00000141426712623185476230000012037467692143871108_);enable-background:new    ;">
						<path class="st0" d="M41.9,40.7l-0.4-0.2c-0.1-0.1-0.3-0.1-0.5-0.1l0.4,0.2C41.6,40.6,41.8,40.6,41.9,40.7L41.9,40.7z"/>
						<path class="st0" d="M41.4,40.6l-0.4-0.2c-0.1,0-0.2,0-0.3,0.1l0.4,0.2C41.2,40.7,41.3,40.6,41.4,40.6L41.4,40.6z"/>
						<path class="st0" d="M41.1,40.7l-0.4-0.2c-0.1,0-0.2,0.1-0.3,0.1l0.4,0.2C40.9,40.8,41,40.7,41.1,40.7L41.1,40.7z"/>
					</g>
				</g>
				<g>
					<defs>
						<path id="SVGID_00000067227779602240608620000017812172263551963535_" d="M39.6,44.2l0.4,0.2c-0.3-0.1-0.4-0.5-0.5-0.9
							c0-0.9,0.6-2.1,1.4-2.6l-0.4-0.2c-0.8,0.5-1.4,1.7-1.4,2.6C39.1,43.7,39.3,44.1,39.6,44.2z"/>
					</defs>
					<use xlink:href="#SVGID_00000067227779602240608620000017812172263551963535_"  style="overflow:visible;fill:#4C1F8C;"/>
					<clipPath id="SVGID_00000041996517836905414090000018176636864065571231_">
						<use xlink:href="#SVGID_00000067227779602240608620000017812172263551963535_"  style="overflow:visible;"/>
					</clipPath>
					<g style="clip-path:url(#SVGID_00000041996517836905414090000018176636864065571231_);enable-background:new    ;">
						<path class="st0" d="M40.8,40.8l-0.4-0.2c0,0,0,0,0,0L40.8,40.8C40.8,40.9,40.8,40.9,40.8,40.8L40.8,40.8z"/>
						<path class="st0" d="M40.8,40.9l-0.4-0.2c-0.1,0.1-0.2,0.2-0.3,0.2l0.4,0.2C40.6,41,40.7,40.9,40.8,40.9L40.8,40.9z"/>
						<path class="st0" d="M40.5,41.1l-0.4-0.2c-0.1,0.1-0.2,0.2-0.3,0.3l0.4,0.2C40.3,41.3,40.4,41.2,40.5,41.1L40.5,41.1z"/>
						<path class="st0" d="M40.2,41.4l-0.4-0.2c-0.2,0.3-0.4,0.6-0.5,0.9l0.4,0.2C39.8,42,40,41.7,40.2,41.4L40.2,41.4z"/>
						<path class="st0" d="M39.7,42.3l-0.4-0.2c0,0.1-0.1,0.2-0.1,0.4l0.4,0.2C39.6,42.6,39.6,42.5,39.7,42.3L39.7,42.3z"/>
						<path class="st0" d="M39.6,42.7l-0.4-0.2c0,0.1-0.1,0.3-0.1,0.4l0.4,0.2C39.5,43,39.5,42.8,39.6,42.7L39.6,42.7z"/>
						<path class="st0" d="M39.5,43.1l-0.4-0.2c0,0.1,0,0.2,0,0.4c0,0,0,0,0,0l0.4,0.2c0,0,0,0,0,0C39.5,43.4,39.5,43.2,39.5,43.1
							L39.5,43.1z"/>
						<path class="st0" d="M39.5,43.5l-0.4-0.2c0,0.1,0,0.2,0.1,0.4l0.4,0.2C39.5,43.7,39.5,43.6,39.5,43.5L39.5,43.5z"/>
						<path class="st0" d="M39.2,42.8l-0.4-0.2c0.1,0.3,0.2,0.5,0.4,0.6l0.4,0.2C39.4,43.3,39.3,43.1,39.2,42.8L39.2,42.8z"/>
					</g>
				</g>
				<g>
					<path class="st10" d="M40.8,40.8c-0.8,0.5-1.4,1.7-1.4,2.6c0,0.9,0.7,1.3,1.5,0.8c0.8-0.5,1.4-1.7,1.4-2.6
						C42.3,40.7,41.6,40.3,40.8,40.8z"/>
				</g>
			</g>
			<g>
				<path class="st0" d="M40.9,41.3c-0.6,0.4-1.1,1.2-1,1.9c0,0.7,0.5,1,1.1,0.6c0.6-0.4,1.1-1.2,1-1.9C42,41.2,41.5,40.9,40.9,41.3
					z"/>
			</g>
			<g>
				<g>
					<path class="st10" d="M41,41.8c-0.3,0.2-0.6,0.7-0.6,1.1c0,0.4,0.3,0.5,0.6,0.3c0.3-0.2,0.6-0.7,0.6-1.1
						C41.6,41.8,41.3,41.6,41,41.8z"/>
				</g>
			</g>
		</g>
		<g>
			<g>
				<g>
					<defs>
						<path id="SVGID_00000042001760851887737850000016135965014686117781_" d="M27.1,64.3l-0.3-0.2c-0.3-0.1-0.6-0.1-1,0.1l0.3,0.2
							C26.5,64.2,26.9,64.2,27.1,64.3z"/>
					</defs>
					<use xlink:href="#SVGID_00000042001760851887737850000016135965014686117781_"  style="overflow:visible;fill:#4C1F8C;"/>
					<clipPath id="SVGID_00000168812654157511138020000006541580584493924763_">
						<use xlink:href="#SVGID_00000042001760851887737850000016135965014686117781_"  style="overflow:visible;"/>
					</clipPath>
					<g style="clip-path:url(#SVGID_00000168812654157511138020000006541580584493924763_);enable-background:new    ;">
						<path class="st0" d="M27.1,64.3l-0.3-0.2c-0.1-0.1-0.3-0.1-0.4-0.1l0.3,0.2C26.9,64.2,27,64.2,27.1,64.3L27.1,64.3z"/>
						<path class="st0" d="M26.7,64.2l-0.3-0.2c-0.1,0-0.2,0-0.3,0.1l0.3,0.2C26.5,64.3,26.6,64.2,26.7,64.2L26.7,64.2z"/>
						<path class="st0" d="M26.4,64.3l-0.3-0.2c-0.1,0-0.2,0.1-0.3,0.1l0.3,0.2C26.3,64.4,26.3,64.3,26.4,64.3L26.4,64.3z"/>
					</g>
				</g>
				<g>
					<defs>
						<path id="SVGID_00000102539450164356350970000006763974377904462770_" d="M25,67.5l0.3,0.2c-0.3-0.1-0.4-0.4-0.4-0.9
							c0-0.9,0.5-1.9,1.3-2.4l-0.3-0.2c-0.7,0.5-1.3,1.5-1.3,2.4C24.6,67.1,24.7,67.4,25,67.5z"/>
					</defs>
					<use xlink:href="#SVGID_00000102539450164356350970000006763974377904462770_"  style="overflow:visible;fill:#4C1F8C;"/>
					<clipPath id="SVGID_00000029768502142494509550000007920063026017087419_">
						<use xlink:href="#SVGID_00000102539450164356350970000006763974377904462770_"  style="overflow:visible;"/>
					</clipPath>
					<g style="clip-path:url(#SVGID_00000029768502142494509550000007920063026017087419_);enable-background:new    ;">
						<path class="st0" d="M26.2,64.4l-0.3-0.2c0,0,0,0,0,0L26.2,64.4C26.2,64.4,26.2,64.4,26.2,64.4L26.2,64.4z"/>
						<path class="st0" d="M26.2,64.4l-0.3-0.2c-0.1,0.1-0.2,0.1-0.3,0.2l0.3,0.2C26,64.6,26.1,64.5,26.2,64.4L26.2,64.4z"/>
						<path class="st0" d="M25.9,64.7l-0.3-0.2c-0.1,0.1-0.2,0.2-0.3,0.3l0.3,0.2C25.7,64.9,25.8,64.8,25.9,64.7L25.9,64.7z"/>
						<path class="st0" d="M25.6,65l-0.3-0.2c-0.2,0.3-0.4,0.5-0.5,0.9l0.3,0.2C25.2,65.5,25.4,65.2,25.6,65L25.6,65z"/>
						<path class="st0" d="M25.1,65.8l-0.3-0.2c0,0.1-0.1,0.2-0.1,0.3l0.3,0.2C25,66,25.1,65.9,25.1,65.8L25.1,65.8z"/>
						<path class="st0" d="M25,66.2L24.6,66c0,0.1-0.1,0.2-0.1,0.4l0.3,0.2C24.9,66.4,25,66.3,25,66.2L25,66.2z"/>
						<path class="st0" d="M24.9,66.5l-0.3-0.2c0,0.1,0,0.2,0,0.3c0,0,0,0,0,0l0.3,0.2c0,0,0,0,0,0C24.9,66.7,24.9,66.6,24.9,66.5
							L24.9,66.5z"/>
						<path class="st0" d="M24.9,66.9l-0.3-0.2c0,0.1,0,0.2,0,0.3l0.3,0.2C24.9,67.1,24.9,67,24.9,66.9L24.9,66.9z"/>
						<path class="st0" d="M24.6,66.3l-0.4-0.2c0.1,0.3,0.2,0.4,0.4,0.5l0.4,0.2C24.9,66.7,24.7,66.5,24.6,66.3L24.6,66.3z"/>
					</g>
				</g>
				<g>
					<path class="st3" d="M26.2,64.4c-0.7,0.5-1.3,1.5-1.3,2.4c0,0.9,0.7,1.2,1.4,0.7c0.7-0.5,1.3-1.5,1.3-2.4
						C27.5,64.3,26.9,64,26.2,64.4z"/>
				</g>
			</g>
			<g>
				<path class="st0" d="M26.2,64.8c-0.5,0.3-1,1.1-0.9,1.8c0,0.6,0.5,0.9,1,0.5c0.5-0.3,1-1.1,0.9-1.8
					C27.3,64.7,26.8,64.5,26.2,64.8z"/>
			</g>
			<g>
				<path class="st3" d="M26.3,65.3c-0.3,0.2-0.6,0.7-0.5,1c0,0.4,0.3,0.5,0.6,0.3c0.3-0.2,0.6-0.7,0.5-1
					C26.8,65.3,26.6,65.1,26.3,65.3z"/>
			</g>
		</g>
		<polygon class="st0" points="37.1,34.3 36.8,37.4 38.6,35.6 		"/>
		<path class="st0" d="M25.7,30.2c0,0.8-0.5,1.1-1.2,0.7c-0.7-0.4-1.2-1.3-1.2-2.1c0-0.8,0.5-1.1,1.2-0.7
			C25.2,28.5,25.7,29.5,25.7,30.2z"/>
		<path class="st0" d="M25.4,33.4c0,0.6-0.4,0.8-0.9,0.5s-0.9-1-0.9-1.6c0-0.6,0.4-0.8,0.9-0.5C25,32.2,25.4,32.8,25.4,33.4z"/>
		<path class="st0" d="M25.1,36c0,0.3-0.2,0.5-0.5,0.3c-0.3-0.2-0.5-0.6-0.5-0.9c0-0.3,0.2-0.5,0.5-0.3C24.8,35.2,25.1,35.6,25.1,36
			z"/>
	</g>
</g>
</svg>
