<?xml version="1.0" encoding="utf-8"?>
<!-- Generator: Adobe Illustrator 25.4.1, SVG Export Plug-In . SVG Version: 6.00 Build 0)  -->
<svg version="1.1" id="Layer_1" xmlns="http://www.w3.org/2000/svg" xmlns:xlink="http://www.w3.org/1999/xlink" x="0px" y="0px"
	 viewBox="0 0 88.6 126.9" style="enable-background:new 0 0 88.6 126.9;" xml:space="preserve">
<style type="text/css">
	.Graphic_x0020_Style{fill:url(#SVGID_1_);}
	.st0{opacity:0.3;fill:#D9CDC1;}
	.st1{fill:#FF445F;}
	.st2{fill:#817AC4;}
	.st3{fill:#C9C9EC;}
	.st4{fill:#1F0159;}
	.st5{fill:#4C1F8C;}
	.st6{fill:#7350BA;}
	.st7{enable-background:new    ;}
	.st8{clip-path:url(#SVGID_00000150072739544629546030000013204515575997580443_);enable-background:new    ;}
	.st9{fill:#E8E9FC;}
	.st10{clip-path:url(#SVGID_00000153683756338933590680000012251339770864061617_);enable-background:new    ;}
	.st11{clip-path:url(#SVGID_00000069399262275075750760000008961177426590725779_);enable-background:new    ;}
	.st12{clip-path:url(#SVGID_00000106116526110645014880000010982307581466628277_);enable-background:new    ;}
	.st13{fill:url(#SVGID_00000027570582295630077100000007536113512849593479_);}
	.st14{clip-path:url(#SVGID_00000016044558696407228440000007522128149132168585_);enable-background:new    ;}
	.st15{clip-path:url(#SVGID_00000139266835930318586580000001697871007716621498_);enable-background:new    ;}
	.st16{clip-path:url(#SVGID_00000169526553780793713330000005945596367557617060_);enable-background:new    ;}
	.st17{clip-path:url(#SVGID_00000163059671394614709910000008230256943755346306_);enable-background:new    ;}
	.st18{fill:url(#SVGID_00000044863900362054537320000005264701831048788874_);}
	.st19{fill:#ADB2CC;}
	.st20{fill:#F1F1F9;}
	.st21{fill:#DDDEFA;}
	.st22{fill:#F8B495;}
	.st23{clip-path:url(#SVGID_00000159472398263289833750000009354775382170449799_);enable-background:new    ;}
	.st24{clip-path:url(#SVGID_00000140006745127977734380000015311683648326770077_);enable-background:new    ;}
	.st25{clip-path:url(#SVGID_00000046304810601573184710000002932095035891834283_);fill:#7350BA;}
	.st26{clip-path:url(#SVGID_00000138565461265533249540000004753975767639000759_);fill:#7350BA;}
	.st27{clip-path:url(#SVGID_00000121980645781253392730000014782575370495165098_);enable-background:new    ;}
	.st28{clip-path:url(#SVGID_00000071523968054200339220000000431303822057593222_);fill:#7350BA;}
	.st29{clip-path:url(#SVGID_00000049932872380084100460000002853663526562084228_);fill:#7350BA;}
	.st30{clip-path:url(#SVGID_00000135670853181836214420000001184598377643749514_);enable-background:new    ;}
	.st31{fill:#FFBFA2;}
	.st32{fill:#F8F9FC;}
	.st33{fill:#FFC400;}
	.st34{opacity:0.3;fill:#4C1F8C;}
</style>
<linearGradient id="SVGID_1_" gradientUnits="userSpaceOnUse" x1="-541.8348" y1="142.8758" x2="-541.3348" y2="143.7418">
	<stop  offset="0" style="stop-color:#AC44EE"/>
	<stop  offset="0.3072" style="stop-color:#8334C4"/>
	<stop  offset="0.5912" style="stop-color:#6529A6"/>
	<stop  offset="0.8318" style="stop-color:#532293"/>
	<stop  offset="1" style="stop-color:#4C1F8C"/>
</linearGradient>
<g>
	<polygon class="st0" points="67.6,102 79.9,94.9 47.8,82.4 14.6,88.6 23.5,115.9 43.2,115.9 57.5,126.7 66.9,126.7 88.6,114.1 	"/>
	<g>
		<g>
			<path class="st1" d="M26.3,32c-0.2,0-0.3-0.1-0.3-0.3l0-14.3c0-0.2,0.1-0.3,0.3-0.3s0.3,0.1,0.3,0.3l0,14.3
				C26.6,31.9,26.5,32,26.3,32z"/>
		</g>
		<g>
			<path class="st1" d="M13.2,48.3c-0.2,0-0.3-0.1-0.3-0.3l0-8.7c0-0.1,0.1-0.2,0.2-0.3l26.2-15.1c0.1-0.1,0.2-0.1,0.3,0
				c0.1,0.1,0.2,0.2,0.2,0.3l0,17.1c0,0.2-0.1,0.3-0.3,0.3s-0.3-0.1-0.3-0.3l0-16.6L13.5,39.5l0,8.5C13.5,48.2,13.4,48.3,13.2,48.3z
				"/>
		</g>
	</g>
	<g>
		<polygon class="st2" points="23.5,93 23.5,115.9 25.1,115 25,92.1 		"/>
		<polygon class="st3" points="0.9,79.9 1,102.8 23.5,115.9 23.5,93 		"/>
		<polygon class="st3" points="44.1,58.4 44.2,82.3 64.7,93.5 64.7,69.7 		"/>
		<polygon class="st2" points="64.7,69.7 64.7,93.5 66.3,92.6 66.3,68.8 		"/>
		<polygon class="st4" points="0,79.9 0,81.8 23.5,95.4 23.5,93.6 		"/>
		<polygon class="st5" points="23.5,93.6 23.5,95.4 66.3,70.6 66.3,68.8 		"/>
		<polygon class="st6" points="0,79.9 23.5,93.6 66.3,68.8 42.8,55.1 		"/>
	</g>
	<g>
		<path class="st5" d="M12,75.8c-2.2,1.3-2.2,3.4,0,4.7c2.2,1.3,5.9,1.3,8.1,0c2.2-1.3,2.2-3.4,0-4.7C17.9,74.5,14.2,74.5,12,75.8z"
			/>
		<g>
			<g class="st7">
				<g>
					<path class="st2" d="M18.8,76c1.9,1.1,1.9,2.9,0,4c-1.9,1.1-5,1.1-6.9,0c-1.9-1.1-1.9-2.9,0-4C13.7,74.9,16.9,74.9,18.8,76z"/>
				</g>
			</g>
		</g>
		<g>
			<g class="st7">
				<g class="st7">
					<defs>
						<path id="SVGID_00000164491144301790285480000004511963858876796326_" class="st7" d="M20.2,77.6l0,0.7c0,0.7-0.5,1.4-1.4,2
							c-1.9,1.1-5,1.1-6.9,0c-1-0.6-1.5-1.3-1.4-2l0-0.7c0,0.7,0.5,1.5,1.4,2c1.9,1.1,5,1.1,6.9,0C19.7,79.1,20.2,78.3,20.2,77.6z"
							/>
					</defs>
					<clipPath id="SVGID_00000021111776455325824780000007651659333224449707_">
						<use xlink:href="#SVGID_00000164491144301790285480000004511963858876796326_"  style="overflow:visible;"/>
					</clipPath>
					<g style="clip-path:url(#SVGID_00000021111776455325824780000007651659333224449707_);enable-background:new    ;">
						<path class="st3" d="M20.2,77.6l0,0.7c0,0.4-0.1,0.8-0.4,1.1l0-0.7C20.1,78.4,20.2,78,20.2,77.6L20.2,77.6z"/>
						<path class="st3" d="M19.8,78.7l0,0.7c-0.2,0.3-0.6,0.6-1,0.9c-0.9,0.5-2.2,0.8-3.4,0.8l0-0.7c1.2,0,2.5-0.3,3.4-0.8
							C19.2,79.4,19.6,79,19.8,78.7L19.8,78.7z"/>
						<path class="st3" d="M15.4,80.5l0,0.7c-1.3,0-2.6-0.3-3.6-0.8c-1-0.6-1.5-1.3-1.4-2l0-0.7c0,0.7,0.5,1.5,1.4,2
							C12.8,80.2,14.1,80.5,15.4,80.5L15.4,80.5z"/>
					</g>
				</g>
				<g>
					<path class="st9" d="M18.8,75.6c1.9,1.1,1.9,2.9,0,4c-1.9,1.1-5,1.1-6.9,0c-1.9-1.1-1.9-2.9,0-4C13.7,74.5,16.9,74.5,18.8,75.6
						z"/>
				</g>
			</g>
		</g>
		<g>
			<g class="st7">
				<g>
					<polygon class="st2" points="12.9,78.5 11.7,77.9 13.1,69.5 14.3,70.2 					"/>
				</g>
				<g>
					<polygon class="st3" points="14.3,70.2 13.1,69.5 17.3,67.1 18.5,67.8 					"/>
				</g>
				<g>
					<polygon class="st3" points="18.5,67.8 17,76.1 12.9,78.5 14.3,70.2 					"/>
				</g>
			</g>
		</g>
		<g>
			<g>
				<g class="st7">
					<g class="st7">
						<defs>
							<path id="SVGID_00000169544693987727154800000018054037274341192094_" class="st7" d="M23.7,38.9l0.8,0.5
								c-0.2-0.1-0.4-0.1-0.7,0.1L23.1,39C23.3,38.8,23.5,38.8,23.7,38.9z"/>
						</defs>
						<use xlink:href="#SVGID_00000169544693987727154800000018054037274341192094_"  style="overflow:visible;fill:#C9C9EC;"/>
						<clipPath id="SVGID_00000110453492915381178690000002692049497556547763_">
							<use xlink:href="#SVGID_00000169544693987727154800000018054037274341192094_"  style="overflow:visible;"/>
						</clipPath>
						<g style="clip-path:url(#SVGID_00000110453492915381178690000002692049497556547763_);enable-background:new    ;">
							<path class="st3" d="M23.9,39.4L23.1,39c0.3-0.1,0.5-0.2,0.7-0.1l0.8,0.5C24.3,39.3,24.1,39.3,23.9,39.4L23.9,39.4z"/>
						</g>
					</g>
					<g class="st7">
						<defs>
							<path id="SVGID_00000145031000607424989360000006396709997348355714_" class="st7" d="M5.1,79.1l-0.8-0.5
								C4.1,78.6,4,78.4,4,78.1l0.8,0.5C4.8,78.8,5,79,5.1,79.1z"/>
						</defs>
						<use xlink:href="#SVGID_00000145031000607424989360000006396709997348355714_"  style="overflow:visible;fill:#C9C9EC;"/>
						<clipPath id="SVGID_00000010994017651032508050000013437506102438583959_">
							<use xlink:href="#SVGID_00000145031000607424989360000006396709997348355714_"  style="overflow:visible;"/>
						</clipPath>
						<g style="clip-path:url(#SVGID_00000010994017651032508050000013437506102438583959_);enable-background:new    ;">
							<path class="st3" d="M5.1,79.1l-0.8-0.5C4.1,78.6,4,78.4,4,78.1l0.8,0.5C4.8,78.8,5,79,5.1,79.1L5.1,79.1z"/>
						</g>
					</g>
					<g>
						<polygon class="st3" points="4.8,78.5 4,78.1 4,51.1 4.8,51.5 						"/>
					</g>
					<g>
						<polygon class="st3" points="5.7,49.9 4.9,49.5 23.1,39 23.9,39.4 						"/>
					</g>
					<g class="st7">
						<defs>
							<path id="SVGID_00000094578985037028811730000014086324721709221014_" class="st7" d="M4.8,51.5L4,51.1
								c0-0.6,0.4-1.3,0.9-1.6l0.8,0.5C5.2,50.2,4.8,50.9,4.8,51.5z"/>
						</defs>
						<use xlink:href="#SVGID_00000094578985037028811730000014086324721709221014_"  style="overflow:visible;fill:#C9C9EC;"/>
						<clipPath id="SVGID_00000171715537807157360700000007532469790071782027_">
							<use xlink:href="#SVGID_00000094578985037028811730000014086324721709221014_"  style="overflow:visible;"/>
						</clipPath>
						<g style="clip-path:url(#SVGID_00000171715537807157360700000007532469790071782027_);enable-background:new    ;">
							<path class="st3" d="M4.8,51.5L4,51.1c0-0.6,0.4-1.3,0.9-1.6l0.8,0.5C5.2,50.2,4.8,50.9,4.8,51.5L4.8,51.5z"/>
						</g>
					</g>
					<path class="st9" d="M23.9,39.4c0.5-0.3,0.9-0.1,0.9,0.5l0,27c0,0.6-0.4,1.3-0.9,1.6L5.8,79.1c-0.5,0.3-0.9,0.1-0.9-0.5l0-27
						c0-0.6,0.4-1.3,0.9-1.6L23.9,39.4z"/>
				</g>
			</g>
			<g>
				<path class="st9" d="M5.3,77.4l0,1.1c0,0.1,0,0.1,0,0.2c0,0,0.1,0,0.2-0.1l18.1-10.5c0.4-0.2,0.7-0.8,0.7-1.2l0-0.6L5.3,77.4z"
					/>
				<path class="st3" d="M24.3,66.4l-19,11l0-0.4l0-25.5c0-0.4,0.3-1,0.7-1.2l18-10.4l0.2-0.1c0.1,0,0.1-0.1,0.2-0.1
					c0,0,0,0.1,0,0.2L24.3,66.4z"/>
				
					<linearGradient id="SVGID_00000108998619530789537720000002952748252199057559_" gradientUnits="userSpaceOnUse" x1="7.6237" y1="46.3587" x2="20.5729" y2="68.7873">
					<stop  offset="0" style="stop-color:#AC44EE"/>
					<stop  offset="0.3072" style="stop-color:#8334C4"/>
					<stop  offset="0.5912" style="stop-color:#6529A6"/>
					<stop  offset="0.8318" style="stop-color:#532293"/>
					<stop  offset="1" style="stop-color:#4C1F8C"/>
				</linearGradient>
				<path style="fill:url(#SVGID_00000108998619530789537720000002952748252199057559_);" d="M24,66.3L6.8,76.2L5.3,77l0-25.5
					c0-0.4,0.3-1,0.7-1.2l18-10.4L24,66.3z"/>
			</g>
		</g>
	</g>
	<g>
		<path class="st5" d="M37.1,61.8c-2.4,1.4-2.4,3.6,0,5c2.4,1.4,6.2,1.4,8.6,0c2.4-1.4,2.4-3.6,0-5S39.5,60.4,37.1,61.8z"/>
		<g>
			<g class="st7">
				<g class="st7">
					<defs>
						<path id="SVGID_00000130629502561976489990000002676753242294598071_" class="st7" d="M45.8,63.4l0,0.7c0,0.8-0.5,1.5-1.5,2.1
							c-2,1.2-5.3,1.2-7.3,0c-1-0.6-1.5-1.4-1.5-2.2l0-0.7c0,0.8,0.5,1.6,1.5,2.2c2,1.2,5.3,1.2,7.3,0
							C45.3,64.9,45.8,64.1,45.8,63.4z"/>
					</defs>
					<clipPath id="SVGID_00000174584861199755897540000001160549347760965030_">
						<use xlink:href="#SVGID_00000130629502561976489990000002676753242294598071_"  style="overflow:visible;"/>
					</clipPath>
					<g style="clip-path:url(#SVGID_00000174584861199755897540000001160549347760965030_);enable-background:new    ;">
						<path class="st3" d="M45.8,63.4l0,0.7c0,0.4-0.1,0.8-0.4,1.2l0-0.7C45.7,64.2,45.8,63.8,45.8,63.4L45.8,63.4z"/>
						<path class="st3" d="M45.4,64.6l0,0.7c-0.3,0.3-0.6,0.7-1.1,0.9c-1,0.6-2.3,0.9-3.6,0.9l0-0.7c1.3,0,2.6-0.3,3.6-0.9
							C44.8,65.2,45.1,64.9,45.4,64.6L45.4,64.6z"/>
						<path class="st3" d="M40.7,66.4l0,0.7c-1.4,0-2.7-0.3-3.8-0.9c-1-0.6-1.5-1.4-1.5-2.2l0-0.7c0,0.8,0.5,1.6,1.5,2.2
							C38,66.1,39.3,66.4,40.7,66.4L40.7,66.4z"/>
					</g>
				</g>
				<g>
					<path class="st9" d="M44.3,61.2c2,1.2,2,3.1,0,4.3c-2,1.2-5.3,1.2-7.3,0c-2-1.2-2-3.1,0-4.3C38.9,60,42.2,60,44.3,61.2z"/>
				</g>
			</g>
		</g>
		<g>
			<g class="st7">
				<g>
					<polygon class="st2" points="38,64.4 36.8,63.6 38.3,54.8 39.5,55.5 					"/>
				</g>
				<g>
					<polygon class="st3" points="39.5,55.5 38.3,54.8 42.7,52.3 44,53 					"/>
				</g>
				<g>
					<polygon class="st3" points="44,53 42.4,61.8 38,64.4 39.5,55.5 					"/>
				</g>
			</g>
		</g>
		<g>
			<g class="st7">
				<g class="st7">
					<defs>
						<path id="SVGID_00000049191115498908499250000005828420824855619757_" class="st7" d="M51.7,31.5l0.8,0.5
							c-0.2-0.1-0.4-0.1-0.7,0.1L51,31.5C51.3,31.4,51.6,31.4,51.7,31.5z"/>
					</defs>
					<use xlink:href="#SVGID_00000049191115498908499250000005828420824855619757_"  style="overflow:visible;fill:#C9C9EC;"/>
					<clipPath id="SVGID_00000067916011335639590120000007630965898539276929_">
						<use xlink:href="#SVGID_00000049191115498908499250000005828420824855619757_"  style="overflow:visible;"/>
					</clipPath>
					<g style="clip-path:url(#SVGID_00000067916011335639590120000007630965898539276929_);enable-background:new    ;">
						<path class="st3" d="M51.9,32L51,31.5c0.3-0.2,0.5-0.2,0.7-0.1l0.8,0.5C52.4,31.9,52.2,31.9,51.9,32L51.9,32z"/>
					</g>
				</g>
				<g class="st7">
					<defs>
						<path id="SVGID_00000155135120533753422880000015249998949219877031_" class="st7" d="M27.8,65.4L27,64.9
							c-0.2-0.1-0.3-0.3-0.3-0.6l0.8,0.5C27.5,65.1,27.6,65.3,27.8,65.4z"/>
					</defs>
					<use xlink:href="#SVGID_00000155135120533753422880000015249998949219877031_"  style="overflow:visible;fill:#C9C9EC;"/>
					<clipPath id="SVGID_00000067918738000165461770000000779724237294553496_">
						<use xlink:href="#SVGID_00000155135120533753422880000015249998949219877031_"  style="overflow:visible;"/>
					</clipPath>
					<g style="clip-path:url(#SVGID_00000067918738000165461770000000779724237294553496_);enable-background:new    ;">
						<path class="st3" d="M27.8,65.4L27,64.9c-0.2-0.1-0.3-0.3-0.3-0.6l0.8,0.5C27.5,65.1,27.6,65.3,27.8,65.4L27.8,65.4z"/>
					</g>
				</g>
				<g>
					<polygon class="st3" points="27.5,64.7 26.7,64.3 26.6,46.8 27.5,47.3 					"/>
				</g>
				<g>
					<polygon class="st3" points="28.5,45.6 27.6,45.1 51,31.5 51.9,32 					"/>
				</g>
				<g class="st7">
					<defs>
						<path id="SVGID_00000150072090852040724980000010857090214114564002_" class="st7" d="M27.5,47.3l-0.8-0.5
							c0-0.6,0.4-1.4,1-1.7l0.8,0.5C27.9,45.9,27.5,46.7,27.5,47.3z"/>
					</defs>
					<use xlink:href="#SVGID_00000150072090852040724980000010857090214114564002_"  style="overflow:visible;fill:#C9C9EC;"/>
					<clipPath id="SVGID_00000172425414184658765510000011993732898657341852_">
						<use xlink:href="#SVGID_00000150072090852040724980000010857090214114564002_"  style="overflow:visible;"/>
					</clipPath>
					<g style="clip-path:url(#SVGID_00000172425414184658765510000011993732898657341852_);enable-background:new    ;">
						<path class="st3" d="M27.5,47.3l-0.8-0.5c0-0.6,0.4-1.4,1-1.7l0.8,0.5C27.9,45.9,27.5,46.7,27.5,47.3L27.5,47.3z"/>
					</g>
				</g>
				<path class="st9" d="M51.9,32c0.5-0.3,1-0.1,1,0.6l0,17.4c0,0.6-0.4,1.4-1,1.7L28.5,65.3c-0.5,0.3-1,0.1-1-0.6l0-17.4
					c0-0.6,0.4-1.4,1-1.7L51.9,32z"/>
			</g>
		</g>
		<g>
			<path class="st9" d="M28,63.6l0,1.2c0,0.1,0,0.2,0,0.2c0,0,0.1,0,0.2-0.1l23.4-13.6c0.4-0.2,0.7-0.8,0.7-1.2l0-0.6L28,63.6z"/>
			<path class="st3" d="M52.4,49.4L28,63.6l0-0.4l0-15.8c0-0.4,0.3-1,0.7-1.2L52,32.6l0.2-0.1c0.1-0.1,0.1-0.1,0.2-0.1
				c0,0,0,0.1,0,0.2L52.4,49.4z"/>
			
				<linearGradient id="SVGID_00000136406500528302044520000004808196214837341852_" gradientUnits="userSpaceOnUse" x1="35.5424" y1="40.1474" x2="43.7845" y2="54.4231">
				<stop  offset="0" style="stop-color:#AC44EE"/>
				<stop  offset="0.3072" style="stop-color:#8334C4"/>
				<stop  offset="0.5912" style="stop-color:#6529A6"/>
				<stop  offset="0.8318" style="stop-color:#532293"/>
				<stop  offset="1" style="stop-color:#4C1F8C"/>
			</linearGradient>
			<path style="fill:url(#SVGID_00000136406500528302044520000004808196214837341852_);" d="M52,49.3l-22.4,13L28,63.2l0-3.9l0-4.5
				l0-3.7l0-3.8c0-0.4,0.3-1,0.7-1.2l3.8-2.2l4.5-2.6h0l4.6-2.7l6.9-4l3.4-2L52,49.3z"/>
		</g>
	</g>
	<g>
		<g>
			<polygon class="st5" points="55.3,74 36.1,85.3 35.1,85.1 28.7,79.2 47.8,68.4 			"/>
		</g>
		<g>
			<g class="st7">
				<g>
					<polygon class="st19" points="54,73.7 53.9,74 35.1,85.1 35.2,84.8 					"/>
				</g>
				<g>
					<polygon class="st2" points="35.2,84.8 35.1,85.1 27.6,79.2 27.7,78.5 					"/>
				</g>
				<g>
					<polygon class="st20" points="54,73.7 35.2,84.8 27.7,78.5 46.5,67.4 					"/>
				</g>
			</g>
		</g>
		<g>
			<g class="st7">
				<g>
					<polygon class="st3" points="47.2,68.2 47.2,68.4 46.2,69 46.2,68.8 					"/>
				</g>
				<g>
					<polygon class="st2" points="46.2,68.8 46.2,69 45.6,68.5 45.7,68.3 					"/>
				</g>
				<g>
					<polygon class="st21" points="47.2,68.2 46.2,68.8 45.7,68.3 46.7,67.7 					"/>
				</g>
			</g>
			<g class="st7">
				<g>
					<polygon class="st3" points="48.6,69.4 48.5,69.6 47.5,70.2 47.6,70 					"/>
				</g>
				<g>
					<polygon class="st2" points="47.6,70 47.5,70.2 46.5,69.4 46.6,69.2 					"/>
				</g>
				<g>
					<polygon class="st21" points="48.6,69.4 47.6,70 46.6,69.2 47.6,68.6 					"/>
				</g>
			</g>
			<g class="st7">
				<g>
					<polygon class="st3" points="45.9,68.9 45.9,69.1 44.9,69.7 44.9,69.5 					"/>
				</g>
				<g>
					<polygon class="st2" points="44.9,69.5 44.9,69.7 44.3,69.3 44.4,69.1 					"/>
				</g>
				<g>
					<polygon class="st21" points="45.9,68.9 44.9,69.5 44.4,69.1 45.4,68.5 					"/>
				</g>
			</g>
			<g class="st7">
				<g>
					<polygon class="st3" points="47.4,70.1 47.3,70.3 46.3,70.9 46.4,70.7 					"/>
				</g>
				<g>
					<polygon class="st2" points="46.4,70.7 46.3,70.9 45.3,70.1 45.4,69.9 					"/>
				</g>
				<g>
					<polygon class="st21" points="47.4,70.1 46.4,70.7 45.4,69.9 46.4,69.3 					"/>
				</g>
			</g>
			<g class="st7">
				<g>
					<polygon class="st3" points="44.7,69.7 44.6,69.9 43.6,70.5 43.7,70.3 					"/>
				</g>
				<g>
					<polygon class="st2" points="43.7,70.3 43.6,70.5 43.1,70 43.1,69.8 					"/>
				</g>
				<g>
					<polygon class="st21" points="44.7,69.7 43.7,70.3 43.1,69.8 44.1,69.2 					"/>
				</g>
			</g>
			<g class="st7">
				<g>
					<polygon class="st3" points="46.1,70.9 46.1,71.1 45.1,71.6 45.1,71.5 					"/>
				</g>
				<g>
					<polygon class="st2" points="45.1,71.5 45.1,71.6 44.1,70.8 44.1,70.6 					"/>
				</g>
				<g>
					<polygon class="st21" points="46.1,70.9 45.1,71.5 44.1,70.6 45.1,70 					"/>
				</g>
			</g>
			<g class="st7">
				<g>
					<polygon class="st3" points="43.4,70.4 43.4,70.6 42.4,71.2 42.4,71 					"/>
				</g>
				<g>
					<polygon class="st2" points="42.4,71 42.4,71.2 41.8,70.8 41.9,70.6 					"/>
				</g>
				<g>
					<polygon class="st21" points="43.4,70.4 42.4,71 41.9,70.6 42.9,70 					"/>
				</g>
			</g>
			<g class="st7">
				<g>
					<polygon class="st3" points="44.9,71.6 44.9,71.8 43.9,72.4 43.9,72.2 					"/>
				</g>
				<g>
					<polygon class="st2" points="43.9,72.2 43.9,72.4 42.9,71.5 42.9,71.3 					"/>
				</g>
				<g>
					<polygon class="st21" points="44.9,71.6 43.9,72.2 42.9,71.3 43.9,70.7 					"/>
				</g>
			</g>
			<g class="st7">
				<g>
					<polygon class="st3" points="43.7,72.3 43.7,72.5 42.7,73.1 42.7,72.9 					"/>
				</g>
				<g>
					<polygon class="st2" points="42.7,72.9 42.7,73.1 41.7,72.2 41.7,72.1 					"/>
				</g>
				<g>
					<polygon class="st21" points="43.7,72.3 42.7,72.9 41.7,72.1 42.7,71.5 					"/>
				</g>
			</g>
			<g class="st7">
				<g>
					<polygon class="st3" points="41.5,71.5 41.5,71.7 40.5,72.3 40.5,72.1 					"/>
				</g>
				<g>
					<polygon class="st2" points="40.5,72.1 40.5,72.3 39.9,71.9 40,71.7 					"/>
				</g>
				<g>
					<polygon class="st21" points="41.5,71.5 40.5,72.1 40,71.7 41,71.1 					"/>
				</g>
			</g>
			<g class="st7">
				<g>
					<polygon class="st3" points="42.5,73 42.4,73.2 41.4,73.8 41.5,73.6 					"/>
				</g>
				<g>
					<polygon class="st2" points="41.5,73.6 41.4,73.8 40.4,73 40.5,72.8 					"/>
				</g>
				<g>
					<polygon class="st21" points="42.5,73 41.5,73.6 40.5,72.8 41.5,72.2 					"/>
				</g>
			</g>
			<g class="st7">
				<g>
					<polygon class="st3" points="40.2,72.3 40.2,72.5 39.2,73.1 39.2,72.9 					"/>
				</g>
				<g>
					<polygon class="st2" points="39.2,72.9 39.2,73.1 38.6,72.6 38.7,72.4 					"/>
				</g>
				<g>
					<polygon class="st21" points="40.2,72.3 39.2,72.9 38.7,72.4 39.7,71.8 					"/>
				</g>
			</g>
			<g class="st7">
				<g>
					<polygon class="st3" points="41.3,73.7 41.2,73.9 40.2,74.5 40.3,74.3 					"/>
				</g>
				<g>
					<polygon class="st2" points="40.3,74.3 40.2,74.5 39.2,73.7 39.3,73.5 					"/>
				</g>
				<g>
					<polygon class="st21" points="41.3,73.7 40.3,74.3 39.3,73.5 40.3,72.9 					"/>
				</g>
			</g>
			<g class="st7">
				<g>
					<polygon class="st3" points="39,73 38.9,73.2 37.9,73.8 38,73.6 					"/>
				</g>
				<g>
					<polygon class="st2" points="38,73.6 37.9,73.8 37.4,73.4 37.4,73.2 					"/>
				</g>
				<g>
					<polygon class="st21" points="39,73 38,73.6 37.4,73.2 38.4,72.6 					"/>
				</g>
			</g>
			<g class="st7">
				<g>
					<polygon class="st3" points="40.1,74.4 40,74.6 39,75.2 39,75 					"/>
				</g>
				<g>
					<polygon class="st2" points="39,75 39,75.2 38,74.4 38.1,74.2 					"/>
				</g>
				<g>
					<polygon class="st21" points="40.1,74.4 39,75 38.1,74.2 39.1,73.6 					"/>
				</g>
			</g>
			<g class="st7">
				<g>
					<polygon class="st3" points="37.7,73.8 37.7,74 36.7,74.6 36.7,74.4 					"/>
				</g>
				<g>
					<polygon class="st2" points="36.7,74.4 36.7,74.6 36.1,74.1 36.2,73.9 					"/>
				</g>
				<g>
					<polygon class="st21" points="37.7,73.8 36.7,74.4 36.2,73.9 37.2,73.3 					"/>
				</g>
			</g>
			<g class="st7">
				<g>
					<polygon class="st3" points="38.8,75.2 38.8,75.4 37.8,75.9 37.8,75.8 					"/>
				</g>
				<g>
					<polygon class="st2" points="37.8,75.8 37.8,75.9 36.8,75.1 36.8,74.9 					"/>
				</g>
				<g>
					<polygon class="st21" points="38.8,75.2 37.8,75.8 36.8,74.9 37.8,74.3 					"/>
				</g>
			</g>
			<g class="st7">
				<g>
					<polygon class="st3" points="35.8,74.9 35.8,75.1 34.8,75.7 34.8,75.5 					"/>
				</g>
				<g>
					<polygon class="st2" points="34.8,75.5 34.8,75.7 34.2,75.2 34.3,75 					"/>
				</g>
				<g>
					<polygon class="st21" points="35.8,74.9 34.8,75.5 34.3,75 35.3,74.4 					"/>
				</g>
			</g>
			<g class="st7">
				<g>
					<polygon class="st3" points="37.6,75.9 37.6,76.1 36.6,76.7 36.6,76.5 					"/>
				</g>
				<g>
					<polygon class="st2" points="36.6,76.5 36.6,76.7 35.6,75.8 35.6,75.6 					"/>
				</g>
				<g>
					<polygon class="st21" points="37.6,75.9 36.6,76.5 35.6,75.6 36.6,75 					"/>
				</g>
			</g>
			<g class="st7">
				<g>
					<polygon class="st3" points="34.5,75.7 34.5,75.8 33.5,76.4 33.5,76.2 					"/>
				</g>
				<g>
					<polygon class="st2" points="33.5,76.2 33.5,76.4 32.9,76 33,75.8 					"/>
				</g>
				<g>
					<polygon class="st21" points="34.5,75.7 33.5,76.2 33,75.8 34,75.2 					"/>
				</g>
			</g>
			<g class="st7">
				<g>
					<polygon class="st3" points="36.4,76.6 36.4,76.8 35.3,77.4 35.4,77.2 					"/>
				</g>
				<g>
					<polygon class="st2" points="35.4,77.2 35.3,77.4 34.4,76.5 34.4,76.4 					"/>
				</g>
				<g>
					<polygon class="st21" points="36.4,76.6 35.4,77.2 34.4,76.4 35.4,75.8 					"/>
				</g>
			</g>
			<g class="st7">
				<g>
					<polygon class="st3" points="33.3,76.4 33.2,76.6 32.2,77.2 32.3,77 					"/>
				</g>
				<g>
					<polygon class="st2" points="32.3,77 32.2,77.2 31.7,76.7 31.7,76.5 					"/>
				</g>
				<g>
					<polygon class="st21" points="33.3,76.4 32.3,77 31.7,76.5 32.7,75.9 					"/>
				</g>
			</g>
			<g class="st7">
				<g>
					<polygon class="st3" points="35.2,77.3 35.1,77.5 34.1,78.1 34.2,77.9 					"/>
				</g>
				<g>
					<polygon class="st2" points="34.2,77.9 34.1,78.1 33.1,77.3 33.2,77.1 					"/>
				</g>
				<g>
					<polygon class="st21" points="35.2,77.3 34.2,77.9 33.2,77.1 34.2,76.5 					"/>
				</g>
			</g>
			<g class="st7">
				<g>
					<polygon class="st3" points="32,77.1 32,77.3 30.9,77.9 31,77.7 					"/>
				</g>
				<g>
					<polygon class="st2" points="31,77.7 30.9,77.9 30.4,77.5 30.5,77.3 					"/>
				</g>
				<g>
					<polygon class="st21" points="32,77.1 31,77.7 30.5,77.3 31.5,76.7 					"/>
				</g>
			</g>
			<g class="st7">
				<g>
					<polygon class="st3" points="34,78 33.9,78.2 32.9,78.8 33,78.6 					"/>
				</g>
				<g>
					<polygon class="st2" points="33,78.6 32.9,78.8 31.9,78 32,77.8 					"/>
				</g>
				<g>
					<polygon class="st21" points="34,78 33,78.6 32,77.8 33,77.2 					"/>
				</g>
			</g>
			<g class="st7">
				<g>
					<polygon class="st3" points="32.7,78.7 32.7,78.9 31.7,79.5 31.7,79.3 					"/>
				</g>
				<g>
					<polygon class="st2" points="31.7,79.3 31.7,79.5 30.7,78.7 30.7,78.5 					"/>
				</g>
				<g>
					<polygon class="st21" points="32.7,78.7 31.7,79.3 30.7,78.5 31.7,77.9 					"/>
				</g>
			</g>
			<g class="st7">
				<g>
					<polygon class="st3" points="30.1,78.3 30,78.5 29,79 29.1,78.9 					"/>
				</g>
				<g>
					<polygon class="st2" points="29.1,78.9 29,79 28.5,78.6 28.5,78.4 					"/>
				</g>
				<g>
					<polygon class="st21" points="30.1,78.3 29.1,78.9 28.5,78.4 29.6,77.8 					"/>
				</g>
			</g>
			<g class="st7">
				<g>
					<polygon class="st3" points="31.5,79.5 31.5,79.7 30.5,80.2 30.5,80.1 					"/>
				</g>
				<g>
					<polygon class="st2" points="30.5,80.1 30.5,80.2 29.5,79.4 29.5,79.2 					"/>
				</g>
				<g>
					<polygon class="st21" points="31.5,79.5 30.5,80.1 29.5,79.2 30.5,78.6 					"/>
				</g>
			</g>
			<g class="st7">
				<g>
					<polygon class="st3" points="48.8,71 48.7,71.2 48.1,71.6 48.2,71.4 					"/>
				</g>
				<g>
					<polygon class="st2" points="48.2,71.4 48.1,71.6 47.1,70.7 47.2,70.5 					"/>
				</g>
				<g>
					<polygon class="st3" points="51,71.4 50.9,71.6 49.9,72.2 49.9,72 					"/>
				</g>
				<g>
					<polygon class="st21" points="51,71.4 49.9,72 48.8,71 48.2,71.4 47.2,70.5 48.8,69.6 49.1,69.9 49.8,70.4 					"/>
				</g>
				<g>
					<polygon class="st2" points="49.9,72 49.9,72.2 48.7,71.2 48.8,71 					"/>
				</g>
				<g>
					<polygon class="st2" points="46.9,72.1 46.9,72.3 45.9,71.5 45.9,71.3 					"/>
				</g>
				<g>
					<polygon class="st3" points="47.9,71.5 47.9,71.7 46.9,72.3 46.9,72.1 					"/>
				</g>
				<g>
					<polygon class="st21" points="47.9,71.5 46.9,72.1 45.9,71.3 46.9,70.7 					"/>
				</g>
				<g>
					<polygon class="st3" points="49.7,72.1 49.7,72.3 48.7,72.9 48.7,72.7 					"/>
				</g>
				<g>
					<polygon class="st21" points="49.7,72.1 48.7,72.7 47.7,71.9 48.7,71.3 					"/>
				</g>
				<g>
					<polygon class="st2" points="48.7,72.7 48.7,72.9 47.7,72.1 47.7,71.9 					"/>
				</g>
			</g>
			<g class="st7">
				<g>
					<polygon class="st3" points="46.7,72.2 46.7,72.4 45.7,73 45.7,72.8 					"/>
				</g>
				<g>
					<polygon class="st2" points="45.7,72.8 45.7,73 44.7,72.2 44.7,72 					"/>
				</g>
				<g>
					<polygon class="st21" points="46.7,72.2 45.7,72.8 44.7,72 45.7,71.4 					"/>
				</g>
			</g>
			<g class="st7">
				<g>
					<polygon class="st3" points="45.5,72.9 45.5,73.1 44.5,73.7 44.5,73.5 					"/>
				</g>
				<g>
					<polygon class="st2" points="44.5,73.5 44.5,73.7 43.5,72.9 43.5,72.7 					"/>
				</g>
				<g>
					<polygon class="st21" points="45.5,72.9 44.5,73.5 43.5,72.7 44.5,72.1 					"/>
				</g>
			</g>
			<g class="st7">
				<g>
					<polygon class="st3" points="44.3,73.7 44.2,73.8 43.2,74.4 43.3,74.2 					"/>
				</g>
				<g>
					<polygon class="st2" points="43.3,74.2 43.2,74.4 42.2,73.6 42.3,73.4 					"/>
				</g>
				<g>
					<polygon class="st21" points="44.3,73.7 43.3,74.2 42.3,73.4 43.3,72.8 					"/>
				</g>
			</g>
			<g class="st7">
				<g>
					<polygon class="st3" points="43.1,74.4 43,74.6 42,75.2 42.1,75 					"/>
				</g>
				<g>
					<polygon class="st2" points="42.1,75 42,75.2 41,74.3 41.1,74.1 					"/>
				</g>
				<g>
					<polygon class="st21" points="43.1,74.4 42.1,75 41.1,74.1 42.1,73.5 					"/>
				</g>
			</g>
			<g class="st7">
				<g>
					<polygon class="st3" points="48.5,72.9 48.5,73.1 47.5,73.6 47.5,73.5 					"/>
				</g>
				<g>
					<polygon class="st2" points="47.5,73.5 47.5,73.6 46.5,72.8 46.5,72.6 					"/>
				</g>
				<g>
					<polygon class="st21" points="48.5,72.9 47.5,73.5 46.5,72.6 47.5,72 					"/>
				</g>
			</g>
			<g class="st7">
				<g>
					<polygon class="st3" points="47.3,73.6 47.3,73.8 46.3,74.4 46.3,74.2 					"/>
				</g>
				<g>
					<polygon class="st2" points="46.3,74.2 46.3,74.4 45.3,73.5 45.3,73.3 					"/>
				</g>
				<g>
					<polygon class="st21" points="47.3,73.6 46.3,74.2 45.3,73.3 46.3,72.7 					"/>
				</g>
			</g>
			<g class="st7">
				<g>
					<polygon class="st3" points="46.1,74.3 46,74.5 45,75.1 45.1,74.9 					"/>
				</g>
				<g>
					<polygon class="st2" points="45.1,74.9 45,75.1 44,74.2 44.1,74 					"/>
				</g>
				<g>
					<polygon class="st21" points="46.1,74.3 45.1,74.9 44.1,74 45.1,73.5 					"/>
				</g>
			</g>
			<g class="st7">
				<g>
					<polygon class="st3" points="44.9,75 44.8,75.2 43.8,75.8 43.9,75.6 					"/>
				</g>
				<g>
					<polygon class="st2" points="43.9,75.6 43.8,75.8 42.8,75 42.9,74.8 					"/>
				</g>
				<g>
					<polygon class="st21" points="44.9,75 43.9,75.6 42.9,74.8 43.9,74.2 					"/>
				</g>
			</g>
			<g class="st7">
				<g>
					<polygon class="st3" points="41.8,75.1 41.8,75.3 40.8,75.9 40.8,75.7 					"/>
				</g>
				<g>
					<polygon class="st2" points="40.8,75.7 40.8,75.9 39.8,75 39.8,74.8 					"/>
				</g>
				<g>
					<polygon class="st21" points="41.8,75.1 40.8,75.7 39.8,74.8 40.9,74.3 					"/>
				</g>
			</g>
			<g class="st7">
				<g>
					<polygon class="st3" points="43.6,75.7 43.6,75.9 42.6,76.5 42.6,76.3 					"/>
				</g>
				<g>
					<polygon class="st2" points="42.6,76.3 42.6,76.5 41.6,75.7 41.6,75.5 					"/>
				</g>
				<g>
					<polygon class="st21" points="43.6,75.7 42.6,76.3 41.6,75.5 42.7,74.9 					"/>
				</g>
			</g>
			<g class="st7">
				<g>
					<polygon class="st3" points="40.6,75.8 40.6,76 39.6,76.6 39.6,76.4 					"/>
				</g>
				<g>
					<polygon class="st2" points="39.6,76.4 39.6,76.6 38.6,75.8 38.6,75.6 					"/>
				</g>
				<g>
					<polygon class="st21" points="40.6,75.8 39.6,76.4 38.6,75.6 39.6,75 					"/>
				</g>
			</g>
			<g class="st7">
				<g>
					<polygon class="st3" points="42.4,76.4 42.4,76.6 41.4,77.2 41.4,77 					"/>
				</g>
				<g>
					<polygon class="st2" points="41.4,77 41.4,77.2 40.4,76.4 40.4,76.2 					"/>
				</g>
				<g>
					<polygon class="st21" points="42.4,76.4 41.4,77 40.4,76.2 41.4,75.6 					"/>
				</g>
			</g>
			<g class="st7">
				<g>
					<polygon class="st3" points="39.4,76.5 39.4,76.7 38.4,77.3 38.4,77.1 					"/>
				</g>
				<g>
					<polygon class="st2" points="38.4,77.1 38.4,77.3 37.4,76.5 37.4,76.3 					"/>
				</g>
				<g>
					<polygon class="st21" points="39.4,76.5 38.4,77.1 37.4,76.3 38.4,75.7 					"/>
				</g>
			</g>
			<g class="st7">
				<g>
					<polygon class="st3" points="41.2,77.2 41.2,77.4 40.2,77.9 40.2,77.8 					"/>
				</g>
				<g>
					<polygon class="st2" points="40.2,77.8 40.2,77.9 39.2,77.1 39.2,76.9 					"/>
				</g>
				<g>
					<polygon class="st21" points="41.2,77.2 40.2,77.8 39.2,76.9 40.2,76.3 					"/>
				</g>
			</g>
			<g class="st7">
				<g>
					<polygon class="st3" points="38.2,77.2 38.2,77.4 37.1,78 37.2,77.8 					"/>
				</g>
				<g>
					<polygon class="st2" points="37.2,77.8 37.1,78 36.1,77.2 36.2,77 					"/>
				</g>
				<g>
					<polygon class="st21" points="38.2,77.2 37.2,77.8 36.2,77 37.2,76.4 					"/>
				</g>
			</g>
			<g class="st7">
				<g>
					<polygon class="st3" points="40,77.9 39.9,78.1 38.9,78.7 39,78.5 					"/>
				</g>
				<g>
					<polygon class="st2" points="39,78.5 38.9,78.7 37.9,77.8 38,77.6 					"/>
				</g>
				<g>
					<polygon class="st21" points="40,77.9 39,78.5 38,77.6 39,77 					"/>
				</g>
			</g>
			<g class="st7">
				<g>
					<polygon class="st3" points="37,78 36.9,78.1 35.9,78.7 36,78.5 					"/>
				</g>
				<g>
					<polygon class="st2" points="36,78.5 35.9,78.7 34.9,77.9 35,77.7 					"/>
				</g>
				<g>
					<polygon class="st21" points="37,78 36,78.5 35,77.7 36,77.1 					"/>
				</g>
			</g>
			<g class="st7">
				<g>
					<polygon class="st3" points="38.8,78.6 38.7,78.8 37.7,79.4 37.8,79.2 					"/>
				</g>
				<g>
					<polygon class="st2" points="37.8,79.2 37.7,79.4 36.7,78.5 36.8,78.3 					"/>
				</g>
				<g>
					<polygon class="st21" points="38.8,78.6 37.8,79.2 36.8,78.3 37.8,77.8 					"/>
				</g>
			</g>
			<g class="st7">
				<g>
					<polygon class="st3" points="35.8,78.7 35.7,78.9 34.7,79.5 34.8,79.3 					"/>
				</g>
				<g>
					<polygon class="st2" points="34.8,79.3 34.7,79.5 33.7,78.6 33.8,78.4 					"/>
				</g>
				<g>
					<polygon class="st21" points="35.8,78.7 34.8,79.3 33.8,78.4 34.8,77.8 					"/>
				</g>
			</g>
			<g class="st7">
				<g>
					<polygon class="st3" points="37.6,79.3 37.5,79.5 36.5,80.1 36.6,79.9 					"/>
				</g>
				<g>
					<polygon class="st2" points="36.6,79.9 36.5,80.1 35.5,79.3 35.6,79.1 					"/>
				</g>
				<g>
					<polygon class="st21" points="37.6,79.3 36.6,79.9 35.6,79.1 36.6,78.5 					"/>
				</g>
			</g>
			<g class="st7">
				<g>
					<polygon class="st3" points="34.5,79.4 34.5,79.6 31.7,81.2 31.7,81.1 					"/>
				</g>
				<g>
					<polygon class="st2" points="31.7,81.1 31.7,81.2 30.7,80.4 30.7,80.2 					"/>
				</g>
				<g>
					<polygon class="st21" points="34.5,79.4 31.7,81.1 30.7,80.2 33.5,78.6 					"/>
				</g>
			</g>
			<g class="st7">
				<g>
					<polygon class="st3" points="36.3,80 36.3,80.2 35.3,80.8 35.3,80.6 					"/>
				</g>
				<g>
					<polygon class="st2" points="35.3,80.6 35.3,80.8 34.3,80 34.3,79.8 					"/>
				</g>
				<g>
					<polygon class="st21" points="36.3,80 35.3,80.6 34.3,79.8 35.3,79.2 					"/>
				</g>
			</g>
			<g class="st7">
				<g>
					<polygon class="st3" points="52.1,72.4 52.1,72.6 50.5,73.6 50.5,73.4 					"/>
				</g>
				<g>
					<polygon class="st2" points="50.5,73.4 50.5,73.6 49.5,72.7 49.5,72.5 					"/>
				</g>
				<g>
					<polygon class="st21" points="52.1,72.4 50.5,73.4 49.5,72.5 51.1,71.6 					"/>
				</g>
			</g>
			<g class="st7">
				<g>
					<polygon class="st3" points="50.3,73.5 50.3,73.7 49.3,74.3 49.3,74.1 					"/>
				</g>
				<g>
					<polygon class="st2" points="49.3,74.1 49.3,74.3 48.3,73.4 48.3,73.3 					"/>
				</g>
				<g>
					<polygon class="st21" points="50.3,73.5 49.3,74.1 48.3,73.3 49.3,72.7 					"/>
				</g>
			</g>
			<g class="st7">
				<g>
					<polygon class="st3" points="49.1,74.2 49.1,74.4 48,75 48.1,74.8 					"/>
				</g>
				<g>
					<polygon class="st2" points="48.1,74.8 48,75 47.1,74.2 47.1,74 					"/>
				</g>
				<g>
					<polygon class="st21" points="49.1,74.2 48.1,74.8 47.1,74 48.1,73.4 					"/>
				</g>
			</g>
			<g class="st7">
				<g>
					<polygon class="st3" points="47.9,74.9 47.8,75.1 46.8,75.7 46.9,75.5 					"/>
				</g>
				<g>
					<polygon class="st2" points="46.9,75.5 46.8,75.7 45.8,74.9 45.9,74.7 					"/>
				</g>
				<g>
					<polygon class="st21" points="47.9,74.9 46.9,75.5 45.9,74.7 46.9,74.1 					"/>
				</g>
			</g>
			<g class="st7">
				<g>
					<polygon class="st3" points="46.7,75.6 46.6,75.8 45.6,76.4 45.7,76.2 					"/>
				</g>
				<g>
					<polygon class="st2" points="45.7,76.2 45.6,76.4 44.6,75.6 44.7,75.4 					"/>
				</g>
				<g>
					<polygon class="st21" points="46.7,75.6 45.7,76.2 44.7,75.4 45.7,74.8 					"/>
				</g>
			</g>
			<g class="st7">
				<g>
					<polygon class="st3" points="45.4,76.4 45.4,76.6 44.4,77.1 44.4,77 					"/>
				</g>
				<g>
					<polygon class="st2" points="44.4,77 44.4,77.1 43.4,76.3 43.4,76.1 					"/>
				</g>
				<g>
					<polygon class="st21" points="45.4,76.4 44.4,77 43.4,76.1 44.4,75.5 					"/>
				</g>
			</g>
			<g class="st7">
				<g>
					<polygon class="st3" points="44.2,77.1 44.2,77.3 43.2,77.9 43.2,77.7 					"/>
				</g>
				<g>
					<polygon class="st2" points="43.2,77.7 43.2,77.9 42.2,77 42.2,76.8 					"/>
				</g>
				<g>
					<polygon class="st21" points="44.2,77.1 43.2,77.7 42.2,76.8 43.2,76.2 					"/>
				</g>
			</g>
			<g class="st7">
				<g>
					<polygon class="st3" points="43,77.8 43,78 42,78.6 42,78.4 					"/>
				</g>
				<g>
					<polygon class="st2" points="42,78.4 42,78.6 41,77.7 41,77.6 					"/>
				</g>
				<g>
					<polygon class="st21" points="43,77.8 42,78.4 41,77.6 42,77 					"/>
				</g>
			</g>
			<g class="st7">
				<g>
					<polygon class="st3" points="41.8,78.5 41.7,78.7 40.7,79.3 40.8,79.1 					"/>
				</g>
				<g>
					<polygon class="st2" points="40.8,79.1 40.7,79.3 39.7,78.5 39.8,78.3 					"/>
				</g>
				<g>
					<polygon class="st21" points="41.8,78.5 40.8,79.1 39.8,78.3 40.8,77.7 					"/>
				</g>
			</g>
			<g class="st7">
				<g>
					<polygon class="st3" points="40.6,79.2 40.5,79.4 39.5,80 39.6,79.8 					"/>
				</g>
				<g>
					<polygon class="st2" points="39.6,79.8 39.5,80 38.5,79.2 38.6,79 					"/>
				</g>
				<g>
					<polygon class="st21" points="40.6,79.2 39.6,79.8 38.6,79 39.6,78.4 					"/>
				</g>
			</g>
			<g class="st7">
				<g>
					<polygon class="st3" points="39.4,79.9 39.3,80.1 38.3,80.7 38.3,80.5 					"/>
				</g>
				<g>
					<polygon class="st2" points="38.3,80.5 38.3,80.7 37.3,79.9 37.4,79.7 					"/>
				</g>
				<g>
					<polygon class="st21" points="39.4,79.9 38.3,80.5 37.4,79.7 38.4,79.1 					"/>
				</g>
			</g>
			<g class="st7">
				<g>
					<polygon class="st3" points="38.1,80.7 38.1,80.9 37.1,81.4 37.1,81.3 					"/>
				</g>
				<g>
					<polygon class="st2" points="37.1,81.3 37.1,81.4 36.1,80.6 36.1,80.4 					"/>
				</g>
				<g>
					<polygon class="st21" points="38.1,80.7 37.1,81.3 36.1,80.4 37.1,79.8 					"/>
				</g>
			</g>
			<g class="st7">
				<g>
					<polygon class="st3" points="53.3,73.4 53.3,73.6 51.1,74.9 51.1,74.7 					"/>
				</g>
				<g>
					<polygon class="st2" points="51.1,74.7 51.1,74.9 50.1,74.1 50.1,73.9 					"/>
				</g>
				<g>
					<polygon class="st21" points="53.3,73.4 51.1,74.7 50.1,73.9 52.3,72.6 					"/>
				</g>
			</g>
			<g class="st7">
				<g>
					<polygon class="st3" points="50.9,74.9 50.8,75 49.8,75.6 49.9,75.4 					"/>
				</g>
				<g>
					<polygon class="st2" points="49.9,75.4 49.8,75.6 48.8,74.8 48.9,74.6 					"/>
				</g>
				<g>
					<polygon class="st21" points="50.9,74.9 49.9,75.4 48.9,74.6 49.9,74 					"/>
				</g>
			</g>
			<g class="st7">
				<g>
					<polygon class="st3" points="49.7,75.6 49.6,75.8 48.6,76.4 48.7,76.2 					"/>
				</g>
				<g>
					<polygon class="st2" points="48.7,76.2 48.6,76.4 47.6,75.5 47.7,75.3 					"/>
				</g>
				<g>
					<polygon class="st21" points="49.7,75.6 48.7,76.2 47.7,75.3 48.7,74.7 					"/>
				</g>
			</g>
			<g class="st7">
				<g>
					<polygon class="st3" points="48.5,76.3 48.4,76.5 40.1,81.4 40.1,81.2 					"/>
				</g>
				<g>
					<polygon class="st2" points="40.1,81.2 40.1,81.4 39.1,80.5 39.2,80.3 					"/>
				</g>
				<g>
					<polygon class="st21" points="48.5,76.3 40.1,81.2 39.2,80.3 47.5,75.5 					"/>
				</g>
			</g>
			<g class="st7">
				<g>
					<polygon class="st3" points="39.9,81.3 39.9,81.5 38.9,82.1 38.9,81.9 					"/>
				</g>
				<g>
					<polygon class="st2" points="38.9,81.9 38.9,82.1 37.9,81.3 37.9,81.1 					"/>
				</g>
				<g>
					<polygon class="st21" points="39.9,81.3 38.9,81.9 37.9,81.1 38.9,80.5 					"/>
				</g>
			</g>
			<g class="st7">
				<g>
					<polygon class="st3" points="35.1,80.7 35.1,80.9 32.9,82.2 32.9,82.1 					"/>
				</g>
				<g>
					<polygon class="st2" points="32.9,82.1 32.9,82.2 31.9,81.4 31.9,81.2 					"/>
				</g>
				<g>
					<polygon class="st21" points="35.1,80.7 32.9,82.1 31.9,81.2 34.1,79.9 					"/>
				</g>
			</g>
			<g class="st7">
				<g>
					<polygon class="st3" points="36.9,81.4 36.9,81.6 35.9,82.2 35.9,82 					"/>
				</g>
				<g>
					<polygon class="st2" points="35.9,82 35.9,82.2 34.9,81.3 34.9,81.1 					"/>
				</g>
				<g>
					<polygon class="st21" points="36.9,81.4 35.9,82 34.9,81.1 35.9,80.5 					"/>
				</g>
			</g>
			<g class="st7">
				<g>
					<polygon class="st3" points="38.7,82 38.7,82.2 37.7,82.8 37.7,82.6 					"/>
				</g>
				<g>
					<polygon class="st2" points="37.7,82.6 37.7,82.8 36.7,82 36.7,81.8 					"/>
				</g>
				<g>
					<polygon class="st21" points="38.7,82 37.7,82.6 36.7,81.8 37.7,81.2 					"/>
				</g>
			</g>
			<g class="st7">
				<g>
					<polygon class="st3" points="35.7,82.1 35.7,82.3 34,83.2 34.1,83 					"/>
				</g>
				<g>
					<polygon class="st2" points="34.1,83 34,83.2 33,82.4 33.1,82.2 					"/>
				</g>
				<g>
					<polygon class="st21" points="35.7,82.1 34.1,83 33.1,82.2 34.7,81.3 					"/>
				</g>
			</g>
			<g class="st7">
				<g>
					<polygon class="st3" points="37.5,82.7 37.5,82.9 35.2,84.2 35.3,84 					"/>
				</g>
				<g>
					<polygon class="st2" points="35.3,84 35.2,84.2 34.2,83.4 34.3,83.2 					"/>
				</g>
				<g>
					<polygon class="st21" points="37.5,82.7 35.3,84 34.3,83.2 36.5,81.9 					"/>
				</g>
			</g>
		</g>
	</g>
	<g>
		<path class="st22" d="M49.3,70.1c1.4,0.7,15.2,0.1,13.9,4.4c-0.2,0.7-0.9,1.6-1.7,1.7c-0.9,0.2-12.2-3.8-13.1-3.8
			C47.7,72.5,48.7,69.8,49.3,70.1z"/>
		<path class="st22" d="M49.7,70.4c-0.1-0.1-0.2-0.2-0.3-0.3c-0.1-0.1-0.2-0.1-0.3-0.1c-0.5-0.2-1-0.3-1.4-0.5c0,0,0,0,0,0
			c0,0-0.1,0-0.1,0c-0.9-0.2-3.3-0.1-4,0.5c-0.6,0.5,1.5,0.2,2.3,0.4c-0.1,0-2.5,0.5-3.1,1.8c-0.5,1.1,0.7,0.3,0.9,0
			c0.1-0.1,1.3-0.9,2.3-0.3c0.2,0.1,0.3,0.3,0.1,0.4c-0.6,0.8-1.8,0.4-1.6,1.1c0.1,0.5,1.2,0.2,1.5,0.2c1.2-0.1,0.7,0.2,2.7-0.8
			c0.1,0,0.1-0.1,0.2-0.1c0.2,0,0.4,0,0.6-0.1c0.2-0.2,0.4-0.4,0.5-0.7C49.9,71.4,49.9,70.9,49.7,70.4z"/>
		<g>
			<path class="st19" d="M44.1,104.2c-0.2,0.1-0.4,0.2-0.5,0.3c-0.6,0.6-0.8,1.5-0.5,2.3c0.2,0.7,0.9,1.2,1.5,1.6
				c0.5,0.3,1,0.6,1.6,0.7c0.7,0.2,2,0.5,2.9,1.1c0.4,0.3,1.7,0.8,2.3,0.3c1.1-1,1.2-2.6,0.5-3.4c-0.5-0.7-0.7-0.4-4.1-1.6
				c-0.9-0.3-1.7-0.7-2.5-1.1C44.8,104.2,44.5,104.1,44.1,104.2z"/>
			<path class="st2" d="M45.3,91.1c0,1.1,1,8.6,1.5,12.3c0.2,1.8-0.3,5.6,2.7,6.2c0.6,0.1,1.3,0,1.9-0.3c0.7-0.4,0.7-1,0.9-1.8
				c0.8-5.7,0.6-18.8-2.1-20c-0.7-0.3-1.6-0.3-2.4-0.1C45.8,87.9,45.4,89.1,45.3,91.1z"/>
			<path class="st19" d="M33.5,111.1c-0.2,0.1-0.3,0.2-0.5,0.5c-0.4,0.7-0.4,1.7,0,2.3c0.4,0.6,1.1,0.9,1.8,1.2
				c0.6,0.2,1.1,0.3,1.7,0.3c0.7,0,2,0,3.1,0.4c0.4,0.2,1.9,0.4,2.3-0.2c0.9-1.2,0.5-2.8-0.3-3.5c-0.7-0.5-0.8-0.3-4.3-0.5
				c-0.9-0.1-1.8-0.3-2.7-0.5C34.2,110.9,33.8,110.9,33.5,111.1z"/>
			<path class="st5" d="M38.3,95.1c-0.2,1-0.2,8.7-0.2,12.4c0,1.9-1.1,5.5,1.8,6.5c0.6,0.2,1.3,0.2,1.9,0c0.8-0.3,0.9-0.8,1.1-1.6
				c1.6-5.6,3.2-18.5,0.7-20.1c-0.7-0.4-1.5-0.5-2.3-0.4C39.3,92,38.7,93.2,38.3,95.1z"/>
		</g>
		<g>
			<g>
				<g class="st7">
					<g class="st7">
						<defs>
							<path id="SVGID_00000034082281903130117350000006106510906011942311_" class="st7" d="M63.5,106.6l0,0.8
								c-1.4-0.8-3.8-0.8-5.2,0l0-0.8C59.7,105.8,62.1,105.8,63.5,106.6z"/>
						</defs>
						<use xlink:href="#SVGID_00000034082281903130117350000006106510906011942311_"  style="overflow:visible;fill:#1F0159;"/>
						<clipPath id="SVGID_00000152986374887072089500000007663009337723804812_">
							<use xlink:href="#SVGID_00000034082281903130117350000006106510906011942311_"  style="overflow:visible;"/>
						</clipPath>
						<g style="clip-path:url(#SVGID_00000152986374887072089500000007663009337723804812_);enable-background:new    ;">
							<path class="st4" d="M58.6,106.5c-0.1,0-0.2,0.1-0.3,0.1l0,0.8c0.1-0.1,0.2-0.1,0.3-0.1V106.5z"/>
						</g>
					</g>
					<g>
						<polygon class="st4" points="58.3,106.6 58.3,107.5 45.1,115 45.1,114.2 						"/>
					</g>
					<g class="st7">
						<defs>
							<path id="SVGID_00000107562432391166154780000010749905096281448887_" class="st7" d="M44,116.5l0-0.8c0-0.5,0.4-1.1,1.1-1.5
								l0,0.8C44.4,115.4,44,116,44,116.5z"/>
						</defs>
						<use xlink:href="#SVGID_00000107562432391166154780000010749905096281448887_"  style="overflow:visible;fill:#1F0159;"/>
						<clipPath id="SVGID_00000115506218124754592170000007379779503111597997_">
							<use xlink:href="#SVGID_00000107562432391166154780000010749905096281448887_"  style="overflow:visible;"/>
						</clipPath>
						<g style="clip-path:url(#SVGID_00000115506218124754592170000007379779503111597997_);enable-background:new    ;">
							<path class="st4" d="M45.1,114.2l0,0.8c-0.7,0.4-1.1,1-1.1,1.5l0-0.8C44,115.1,44.4,114.6,45.1,114.2L45.1,114.2z"/>
						</g>
					</g>
					<path class="st4" d="M43.8,118c-1.1-0.6-1.6-1.4-1.6-2.2l0,0.8c0,0.8,0.5,1.6,1.6,2.2l5.3,3l0-1L43.8,118z"/>
					<g>
						<path class="st6" d="M45.1,114.2l13.2-7.5c0.1-0.1,0.2-0.1,0.3-0.1v-1.2c-0.6,0.2-1.1,0.4-1.5,0.6l-13.3,7.6
							c-2.1,1.2-2.1,3.2,0,4.5c0,0,5.2,2.8,5.3,2.9l1.2-0.7c-0.1,0-0.1-0.1-0.2-0.1l-4.9-2.8C43.7,116.4,43.7,115,45.1,114.2z"/>
					</g>
				</g>
			</g>
			<g>
				<g class="st7">
					<g>
						<polygon class="st6" points="49,120.8 50.2,120.1 58.2,124.8 57.1,125.4 						"/>
					</g>
					<g class="st7">
						<defs>
							<path id="SVGID_00000024695836184608070010000012407658844730350774_" class="st7" d="M59.8,124.9l-1.2,0.7
								c-0.4,0.2-1,0.2-1.6-0.2l1.2-0.7C58.8,125.1,59.4,125.2,59.8,124.9z"/>
						</defs>
						<use xlink:href="#SVGID_00000024695836184608070010000012407658844730350774_"  style="overflow:visible;fill:#1F0159;"/>
						<clipPath id="SVGID_00000079479818131488363640000001166434587243838849_">
							<use xlink:href="#SVGID_00000024695836184608070010000012407658844730350774_"  style="overflow:visible;"/>
						</clipPath>
						<path style="clip-path:url(#SVGID_00000079479818131488363640000001166434587243838849_);fill:#7350BA;" d="M58.4,124.9
							c-0.1,0-0.1-0.1-0.2-0.1l-1.2,0.7c0.1,0,0.1,0.1,0.2,0.1c0.5,0.2,1,0.3,1.4,0l1.2-0.7C59.4,125.1,58.9,125.1,58.4,124.9z"/>
					</g>
					<g>
						<defs>
							<path id="SVGID_00000049211888591979037540000000274414855176750506_" d="M60.4,126l-1.2,0.7c0.1,0,0.1-0.1,0.2-0.1
								c0.6-0.5,0.8-1.4,0.7-2.5l1.2-0.7c0.2,1.1-0.1,2-0.7,2.5C60.5,125.9,60.5,126,60.4,126z"/>
						</defs>
						<use xlink:href="#SVGID_00000049211888591979037540000000274414855176750506_"  style="overflow:visible;fill:#7350BA;"/>
						<clipPath id="SVGID_00000024699244854982278220000004591606482285215622_">
							<use xlink:href="#SVGID_00000049211888591979037540000000274414855176750506_"  style="overflow:visible;"/>
						</clipPath>
						<path style="clip-path:url(#SVGID_00000024699244854982278220000004591606482285215622_);fill:#7350BA;" d="M61.3,123.7
							c0-0.1,0-0.2,0-0.3l-1.2,0.7c0,0.1,0,0.2,0,0.3c0.1,1-0.2,1.8-0.7,2.2c-0.1,0-0.1,0.1-0.2,0.1l1.2-0.7c0.1,0,0.1-0.1,0.2-0.1
							C61.1,125.5,61.4,124.7,61.3,123.7z"/>
					</g>
					<g>
						<polygon class="st4" points="42.5,103.8 43.7,103.1 57.4,111 56.2,111.7 						"/>
					</g>
					<g>
						<polygon class="st6" points="59.2,116.3 60.4,115.7 61.3,123.4 60.1,124 						"/>
					</g>
					<g class="st7">
						<defs>
							<path id="SVGID_00000063631069081851892300000008303822847961570702_" class="st7" d="M56.2,111.7l1.2-0.7
								c1.5,0.9,2.8,2.8,3,4.7l-1.2,0.7C59,114.5,57.7,112.5,56.2,111.7z"/>
						</defs>
						<use xlink:href="#SVGID_00000063631069081851892300000008303822847961570702_"  style="overflow:visible;fill:#7350BA;"/>
						<clipPath id="SVGID_00000077312590583511744730000016319436226941424058_">
							<use xlink:href="#SVGID_00000063631069081851892300000008303822847961570702_"  style="overflow:visible;"/>
						</clipPath>
						<g style="clip-path:url(#SVGID_00000077312590583511744730000016319436226941424058_);enable-background:new    ;">
							<path class="st6" d="M56.2,111.7l1.2-0.7c0.5,0.3,0.9,0.7,1.4,1.1l-1.2,0.7C57.2,112.3,56.7,111.9,56.2,111.7L56.2,111.7z"/>
							<path class="st6" d="M57.6,112.8l1.2-0.7c0.5,0.5,0.9,1.2,1.2,1.9l-1.2,0.7C58.5,114,58,113.4,57.6,112.8L57.6,112.8z"/>
							<path class="st6" d="M58.8,114.7l1.2-0.7c0.2,0.5,0.4,1.1,0.5,1.7l-1.2,0.7C59.2,115.8,59,115.2,58.8,114.7L58.8,114.7z"/>
						</g>
					</g>
					<g>
						<path class="st4" d="M56.2,111.7c1.5,0.9,2.8,2.8,3,4.7l0.9,7.7c0.2,1.1-0.1,2-0.7,2.5c-0.6,0.5-1.5,0.4-2.4-0.1l-8-4.6l0-1
							l8,4.6c0.7,0.4,1.3,0.4,1.7,0.1c0.4-0.3,0.6-1,0.5-1.8l-0.9-7.7c-0.2-1.3-1.1-2.7-2.2-3.3l-13.7-7.9l0-1L56.2,111.7z"/>
					</g>
				</g>
			</g>
			<g>
				<g class="st7">
					<g>
						<polygon class="st6" points="59.6,108.7 60.8,108.1 73.7,115.6 72.6,116.2 						"/>
					</g>
					<g class="st7">
						<defs>
							<path id="SVGID_00000014636638378072095140000003504092669281475758_" class="st7" d="M75.3,115.7l-1.2,0.7
								c-0.4,0.2-1,0.2-1.6-0.2l1.2-0.7C74.3,115.9,74.9,116,75.3,115.7z"/>
						</defs>
						<use xlink:href="#SVGID_00000014636638378072095140000003504092669281475758_"  style="overflow:visible;fill:#1F0159;"/>
						<clipPath id="SVGID_00000128443909906850967720000008581200669292666519_">
							<use xlink:href="#SVGID_00000014636638378072095140000003504092669281475758_"  style="overflow:visible;"/>
						</clipPath>
						<path style="clip-path:url(#SVGID_00000128443909906850967720000008581200669292666519_);fill:#7350BA;" d="M74,115.7
							c-0.1,0-0.1-0.1-0.2-0.1l-1.2,0.7c0.1,0,0.1,0.1,0.2,0.1c0.5,0.2,1,0.3,1.4,0l1.2-0.7C74.9,115.9,74.5,115.9,74,115.7z"/>
					</g>
					<g>
						<defs>
							<path id="SVGID_00000129902516731143982180000000265788508020844466_" d="M75.9,116.8l-1.2,0.7c0.1,0,0.1-0.1,0.2-0.1
								c0.6-0.5,0.8-1.4,0.7-2.5l1.2-0.7c0.2,1.1-0.1,2-0.7,2.5C76.1,116.7,76,116.8,75.9,116.8z"/>
						</defs>
						<use xlink:href="#SVGID_00000129902516731143982180000000265788508020844466_"  style="overflow:visible;fill:#7350BA;"/>
						<clipPath id="SVGID_00000131344558289446820620000016477931411799863224_">
							<use xlink:href="#SVGID_00000129902516731143982180000000265788508020844466_"  style="overflow:visible;"/>
						</clipPath>
						<path style="clip-path:url(#SVGID_00000131344558289446820620000016477931411799863224_);fill:#7350BA;" d="M76.8,114.5
							c0-0.1,0-0.2,0-0.3l-1.2,0.7c0,0.1,0,0.2,0,0.3c0.1,1-0.2,1.8-0.7,2.2c-0.1,0-0.1,0.1-0.2,0.1l1.2-0.7c0.1,0,0.1-0.1,0.2-0.1
							C76.7,116.2,76.9,115.5,76.8,114.5z"/>
					</g>
					<g>
						<polygon class="st4" points="58.1,94.6 59.2,93.9 72.9,101.8 71.7,102.5 						"/>
					</g>
					<g>
						<polygon class="st6" points="74.8,107.1 75.9,106.5 76.8,114.2 75.6,114.8 						"/>
					</g>
					<g class="st7">
						<defs>
							<path id="SVGID_00000011002176365691414040000010367089299483073440_" class="st7" d="M71.7,102.5l1.2-0.7
								c1.5,0.9,2.8,2.8,3,4.7l-1.2,0.7C74.5,105.3,73.2,103.3,71.7,102.5z"/>
						</defs>
						<use xlink:href="#SVGID_00000011002176365691414040000010367089299483073440_"  style="overflow:visible;fill:#7350BA;"/>
						<clipPath id="SVGID_00000124874597860985794630000010785186584995329410_">
							<use xlink:href="#SVGID_00000011002176365691414040000010367089299483073440_"  style="overflow:visible;"/>
						</clipPath>
						<g style="clip-path:url(#SVGID_00000124874597860985794630000010785186584995329410_);enable-background:new    ;">
							<path class="st4" d="M71.7,102.5l1.2-0.7c0.5,0.3,0.9,0.7,1.4,1.1l-1.2,0.7C72.7,103.1,72.2,102.7,71.7,102.5L71.7,102.5z"/>
							<path class="st6" d="M73.1,103.6l1.2-0.7c0.5,0.5,0.9,1.2,1.2,1.9l-1.2,0.7C74,104.8,73.6,104.2,73.1,103.6L73.1,103.6z"/>
							<path class="st6" d="M74.3,105.5l1.2-0.7c0.2,0.5,0.4,1.1,0.5,1.7l-1.2,0.7C74.7,106.6,74.5,106,74.3,105.5L74.3,105.5z"/>
						</g>
					</g>
					<g>
						<path class="st4" d="M71.7,102.5c1.5,0.9,2.8,2.8,3,4.7l0.9,7.7c0.2,1.1-0.1,2-0.7,2.5c-0.6,0.5-1.5,0.4-2.4-0.1l-13-7.5l0-1
							l13,7.5c0.7,0.4,1.3,0.4,1.7,0.1c0.4-0.3,0.6-1,0.5-1.8l-0.9-7.7c-0.2-1.3-1.1-2.7-2.2-3.3l-13.7-7.9l0-1L71.7,102.5z"/>
					</g>
				</g>
			</g>
			<g>
				<g class="st7">
					<g>
						<polygon class="st2" points="42.5,101.9 42.6,103.8 58.2,112.9 58.2,111 						"/>
					</g>
					<g>
						<polygon class="st3" points="58.2,111 58.2,112.9 74.7,103.4 74.7,101.5 						"/>
					</g>
					<g>
						<polygon class="st3" points="42.5,101.9 58.2,111 74.7,101.5 59,92.4 						"/>
					</g>
				</g>
			</g>
		</g>
		<g>
			<g>
				<g>
					<g>
						<path class="st4" d="M58.7,91c-0.9-0.4-1.8-0.9-2.7-1.3c-1.8-0.9-3.6-1.6-5.5-2.1c-1-0.2-2.1-0.4-3.1,0
							c-2.3,0.8-2.4,3.4-1.3,5.2c1,1.7,5.3,3.1,11.3,7.6c0.5,0.4,1,0.8,1.6,1.2c0.1,0.1,0.3,0.3,0.5,0.4c0.5-3.5,0.8-6.9,1.1-10.4
							C60,91.5,59.4,91.3,58.7,91z"/>
						<path class="st2" d="M64,98.2c0,2.3-1.3,3.9-1.9,5.7c0.5,0.2,1,0.2,1.6,0.1c0,0,0,0,0,0C64.1,102.1,64,100.1,64,98.2z"/>
						<path class="st5" d="M61.7,104.9c-0.3,0.3-0.7,0.6-1.1,0.8c-1.3,0.7-2.8,0.8-4.3,0.5c-0.8-0.2-1.5-0.4-2.3-0.8
							c-0.9-0.4-1.8-1-2.7-1.6c-6.4-4-10.8-5-11.9-6.6c-1.2-1.8-1.4-4.4,0.9-5.3c1-0.4,2.1-0.4,3.1-0.2c1.9,0.3,3.8,0.9,5.6,1.6
							c0.9,0.4,1.9,0.7,2.8,1.1c0.9,0.3,1.8,0.5,2.7,0.2c0.7-0.2,1.3-0.6,1.9-1c0.8-0.4,1.6-0.8,2.5-1c0.4-0.1,0.7,0,1.1,0.1
							c0.4,0.1,0.8,0.4,1.2,0.6C64.1,95.3,64.9,101.9,61.7,104.9z"/>
						<path class="st22" d="M65.2,91.9L65.2,91.9c-0.1,0.9-0.2,1.8-0.2,2.6C65,93.6,65.1,92.8,65.2,91.9z"/>
						<path class="st9" d="M65.7,92.9c-0.8-3.3,0.8-6.6,1.6-9.7c1.4-5.1,2.9-5.9,1.9-10.3c-0.3-1.2-2.4-2.8-6.7-1.3
							c-3.2,1.1-6.5,2.6-9.2,4.5c-1.3,0.9-1.3,2-1.5,3.2c-0.6,3.5-0.1,5.7,0.1,9.2c0.1,1.1,0,2.1,0.1,3.2c0,1.4,0.1,2.9,0.3,4.3
							c0.2,1.6,1.1,2,2.4,2.4c1.3,0.4,2.6,0.7,3.9,0.8c2.5,0.3,5.5,0.1,7.3-1.9C66.9,96.1,66,93.9,65.7,92.9z"/>
						<path class="st31" d="M64.3,73c-0.2,0.2-0.4,0.4-0.7,0.5c-0.6,0.3-1.2,0.6-1.8,0.7c-0.6,0.1-1.2,0.2-1.8,0.3
							c-0.8,0.2-1.7,0.5-2.1-0.4c-0.2-0.4-0.2-0.8-0.2-1.2c0-0.9-0.1-1.8,0.1-2.7c0.3-1.1,1-1.5,2-1.8c0.5-0.2,1.1-0.3,1.6-0.3
							c2,0,2.1,0.3,2.2,1c0.2,0.7,0.3,1.4,0.5,2.1c0.1,0.5,0.5,1.1,0.2,1.6C64.3,72.9,64.3,73,64.3,73z"/>
					</g>
				</g>
			</g>
			<g>
				<path class="st31" d="M54.6,61.8c-0.3,0.5-0.6,1-0.6,1.5c-0.1,1.3,0.5,2.5,0.3,3.8c-0.2,1.2,0.5,4,2.9,4.5
					c1.2,0.3,3.6-0.3,4.3-0.7c1-0.6,1.6-1.6,2.2-2.6C68.2,60.1,57.7,57.5,54.6,61.8z"/>
			</g>
			<path class="st4" d="M64.6,59.6c-0.3-0.2-0.6-0.4-0.9-0.6c-0.1,0-0.2-0.1-0.3-0.2c-0.1-0.1-0.1-0.2-0.1-0.2
				c-0.2-0.4-0.5-0.6-0.9-0.8c-1.4-0.7-3-0.6-4.5-0.3c-0.5,0.1-1,0.2-1.5,0.5c-0.5,0.3-1,0.7-1.4,1.1c-0.8,0.8-1.6,2-1.5,3.2
				c0,0.3,0.2,0.5,0.3,0.7c0.1,0.2,0.2,0.3,0.4,0.4c0.4,0.5,0.6,1.2,0.9,1.7c0.1,0.2,0.2,0.5,0.5,0.6c0.4,0.3,1-0.1,1.5,0.1
				c0.3,0.1,0.5,0.3,0.7,0.5c0.2,0.3,0.3,0.5,0.4,0.8c0.2,0.4,0.2,0.8,0.3,1.3c0.1,0.5,0.2,0.9,0.6,1.3c0.8,0.7,2.2,0.6,3.1,0.3
				c0.3-0.1,0.7-0.2,1-0.4c0.7-0.4,1.2-1.1,1.6-1.8c0.4-0.6,0.8-1.3,1-2c0.1-0.4,0.1-0.8,0.2-1.2C65.9,63,65.9,60.8,64.6,59.6z"/>
			<path class="st31" d="M57.6,65.4c1-0.1,1.2,1.1,0.5,2c-0.2,0.3-0.5,0.5-0.8,0.7c-1.7,1.5-2.2-0.1-1.6-0.6
				C57,66.4,56.4,65.5,57.6,65.4z"/>
			<path class="st22" d="M57.3,67.2c0.1-0.1,1.2-0.7,0.5-1.2c-0.2-0.1-0.4,0.1-0.5,0.3c0,0.1,0,0.2,0,0.3c0,0.1,0,0.1-0.1,0.2
				c-0.1,0.2-0.4,0.3-0.4,0.5C56.9,67.6,57.2,67.3,57.3,67.2z"/>
		</g>
		<path class="st31" d="M41.2,79.7c0-0.1-0.1-0.2-0.1-0.4c0,0,0,0,0-0.1c0-1.1-0.2-2.1-0.5-3.2c0-0.1,0-0.2-0.1-0.2
			c-0.1-0.1-0.2-0.1-0.3-0.2c-0.2,0-0.3,0.1-0.3,0.2c-0.1,0.2-0.1,0.5-0.1,0.7c0,0.1,0,0.2,0,0.4c-0.2-0.2-0.4-0.3-0.7-0.4
			c-0.1-0.2-0.2-0.3-0.3-0.5c-0.3-0.5,0.1-0.2-0.3-0.6c-0.1-0.1-0.2-0.3-0.4-0.4c-0.2-0.1-0.6-0.5-0.8-0.3c0,0-0.1,0.1-0.1,0.1
			c0,0.2,0,0.3,0.1,0.5c0.2,0.5,0,0.2,0.3,0.6c0.2,0.3,0.4,0.5,0.6,0.8c0,0-0.1,0-0.1,0c-0.7-1-1-1.3-2-2.2
			c-0.1-0.1-0.2-0.2-0.4-0.2c-0.2-0.1-0.4,0.1-0.4,0.2c0,0.3,0.3,0.6,0.5,0.9c0.7,0.7,0.6,0.7,1.3,1.4c0,0-0.1,0-0.1,0
			c-0.6-0.6-0.6-0.5-1.4-1.1c-0.2-0.1-0.4-0.3-0.6-0.3c-0.2,0-0.4,0.1-0.3,0.3c0.1,0.2,0.2,0.3,0.4,0.5c0.6,0.6,0.5,0.4,1,1
			c-0.1,0.1-0.1,0.1-0.1,0.2c-0.5-0.5-0.3-0.1-0.9-0.5c-0.1-0.1-0.3-0.2-0.4-0.2c-0.2,0-0.3,0-0.4,0.1c-0.1,0.1,0.1,0.3,0.2,0.4
			c0.7,0.7,0.8,0.6,1.6,1.3c0.6,1.1,2.4,2.3,3.2,2.4C40.6,81.1,41.4,80.4,41.2,79.7z"/>
		<path class="st31" d="M45.8,85.5c1-1.5,2.1-2.9,3.2-4.4c0.7-0.9,1.4-1.8,2.1-2.7c0.6-0.8,1.1-1.5,2-1.9c0.8-0.3,1.6-0.4,2.4-0.2
			c0.4,0.1,0.7,0.2,1,0.4c0.5,0.4,0.8,1,0.9,1.7c0.1,1,0,1.7-0.6,2.5c-0.5,0.8-1.2,1.5-1.8,2.2c-1.8,1.8-2.9,3.3-4.7,5.1
			c-0.3,0.3-1.2,1.2-1.6,1.5c-1.9,1.3-3.9,0.8-4.1-0.8C44.6,87.9,45,86.7,45.8,85.5z"/>
		<path class="st31" d="M41.1,79.4c1.2,1,5.4,4.6,6.9,7.2c0.7,1.3,0.9,1.8-0.3,2.8c-0.6,0.4-1.8,0.8-2.5,0.5
			c-0.8-0.3-4.8-7.6-6.4-9.2C38.6,80.5,40.6,78.9,41.1,79.4z"/>
	</g>
	<g>
		<g class="st7">
			<g>
				<polygon class="st2" points="57,85 57.1,110.4 58.2,111 58.2,85.7 				"/>
			</g>
			<g>
				<polygon class="st3" points="58.2,85.7 58.2,111 74.7,101.5 74.7,76.2 				"/>
			</g>
			<g>
				<polygon class="st32" points="57,85 58.2,85.7 74.7,76.2 73.5,75.5 				"/>
			</g>
		</g>
	</g>
	<g>
		<g>
			<g>
				<path class="st20" d="M28.5,57.8C28.5,57.8,28.5,57.8,28.5,57.8c-0.1,0-0.1-0.1-0.1-0.1c0.1-0.2,0.8-1.8,1.2-2.1
					c0.2-0.1,0.4,0.1,0.6,0.2c0.2,0.2,0.3,0.3,0.4,0.2c0.4-0.3,0.8-1.3,1.2-2.2c0.4-1,0.8-2,1.3-2.3c0.3-0.2,0.5,0.1,0.7,0.3
					c0.2,0.2,0.4,0.3,0.5,0.2c0.3-0.2,0.5-0.8,0.7-1.5c0.3-1,0.7-2.2,1.5-2.5c0.5-0.2,0.9-0.1,1.3,0.3c0.3,0.3,0.6,0.8,0.8,1.2
					c0.5,0.8,0.8,1.3,1.3,1.1c0.4-0.2,0.7-1.1,0.9-1.4c0,0,0.1-0.1,0.1-0.1c0,0,0.1,0.1,0.1,0.1c0,0.1-0.5,1.2-1,1.5
					c-0.3,0.1-0.6,0.1-0.9-0.2c-0.2-0.2-0.4-0.6-0.6-1c-0.5-0.9-1-1.8-1.9-1.4c-0.7,0.3-1,1.4-1.4,2.4c-0.3,0.7-0.5,1.4-0.8,1.6
					c-0.3,0.2-0.5-0.1-0.7-0.3c-0.2-0.2-0.4-0.3-0.5-0.2c-0.4,0.3-0.8,1.3-1.2,2.2c-0.4,1-0.8,2-1.3,2.3c-0.2,0.1-0.4-0.1-0.6-0.2
					c-0.2-0.2-0.3-0.3-0.4-0.2C29.4,56,28.8,57.3,28.5,57.8C28.6,57.8,28.5,57.8,28.5,57.8z"/>
			</g>
			<g>
				<polygon class="st20" points="31.6,60 29.5,61.2 29.5,57.4 31.6,56.2 				"/>
				<polygon class="st33" points="34.7,58.2 32.7,59.4 32.7,53.7 34.7,52.5 				"/>
				<polygon class="st1" points="41,54.6 38.9,55.8 38.9,52.3 41,51.1 				"/>
				<polygon class="st20" points="37.9,56.4 35.8,57.6 35.8,50.4 37.9,49.2 				"/>
			</g>
		</g>
		<g>
			<path class="st20" d="M29.7,55C29.7,55,29.6,55,29.7,55l0-5.7c0,0,0,0,0,0c0,0,0,0,0,0L29.7,55C29.7,55,29.7,55,29.7,55z"/>
		</g>
		<g>
			<path class="st20" d="M33.1,51.2C33.1,51.2,33.1,51.2,33.1,51.2l0-3.4c0,0,0,0,0,0c0,0,0,0,0,0L33.1,51.2
				C33.2,51.2,33.1,51.2,33.1,51.2z"/>
		</g>
		<path class="st20" d="M30.1,49.3l-0.9,0.5c-0.2,0.1-0.4,0-0.4-0.2l0,0c0-0.3,0.2-0.6,0.4-0.7l0.9-0.5c0.2-0.1,0.4,0,0.4,0.2l0,0
			C30.5,48.8,30.3,49.2,30.1,49.3z"/>
		<path class="st20" d="M33.6,47.7l-0.9,0.5c-0.2,0.1-0.4,0-0.4-0.2l0,0c0-0.3,0.2-0.6,0.4-0.7l0.9-0.5c0.2-0.1,0.4,0,0.4,0.2l0,0
			C34,47.2,33.8,47.5,33.6,47.7z"/>
		<g>
			<path class="st20" d="M39.9,50.3C39.9,50.3,39.9,50.2,39.9,50.3l0-3.4c0,0,0,0,0,0c0,0,0,0,0,0L39.9,50.3
				C40,50.2,40,50.3,39.9,50.3z"/>
		</g>
		<path class="st20" d="M40.4,46.7l-0.9,0.5c-0.2,0.1-0.4,0-0.4-0.2v0c0-0.3,0.2-0.6,0.4-0.7l0.9-0.5c0.2-0.1,0.4,0,0.4,0.2l0,0
			C40.8,46.3,40.6,46.6,40.4,46.7z"/>
		<g>
			<path class="st20" d="M36.6,47.9C36.6,47.9,36.6,47.9,36.6,47.9l0-3.4c0,0,0,0,0,0c0,0,0,0,0,0L36.6,47.9
				C36.7,47.9,36.7,47.9,36.6,47.9z"/>
		</g>
		<path class="st20" d="M37.1,44.3l-0.9,0.5c-0.2,0.1-0.4,0-0.4-0.2l0,0c0-0.3,0.2-0.6,0.4-0.7l0.9-0.5c0.2-0.1,0.4,0,0.4,0.2l0,0
			C37.5,43.9,37.3,44.2,37.1,44.3z"/>
	</g>
	<g>
		<g>
			<path class="st1" d="M43.9,46.4c0.6,0.6,1.6,0.6,2.7,0l0-3.9L43.9,46.4z"/>
			<path class="st33" d="M46.7,42.5l-3.1,0.3c-0.2,0.6-0.3,1.1-0.3,1.6c0,0.9,0.3,1.5,0.7,2L46.7,42.5L46.7,42.5z"/>
			<path class="st20" d="M49.4,38.6l-2.7,3.9l3.1-0.3c0.2-0.6,0.3-1.1,0.3-1.6C50.1,39.6,49.8,39,49.4,38.6z"/>
			<polygon class="st3" points="46.7,42.5 46.7,42.5 46.7,42.5 			"/>
			<path class="st20" d="M46.7,42.5l2.7-3.9c-0.6-0.6-1.6-0.6-2.7,0V42.5L46.7,42.5z"/>
			<path class="st33" d="M46.7,38.6c-1.4,0.8-2.6,2.5-3.1,4.2l3.1-0.3V38.6z"/>
			<path class="st1" d="M46.7,42.5l0,3.9c1.4-0.8,2.6-2.5,3.1-4.2L46.7,42.5L46.7,42.5z"/>
		</g>
		<g>
			<polygon class="st20" points="49.4,45.9 42.7,49.8 42.7,50.5 49.4,46.6 			"/>
			<polygon class="st20" points="50,45.6 50,46.2 50.6,45.9 50.6,45.2 			"/>
			<polygon class="st20" points="49.4,47.2 42.7,51.1 42.7,51.8 49.4,47.9 			"/>
			<polygon class="st20" points="50,46.9 50,47.6 50.6,47.2 50.6,46.5 			"/>
			<polygon class="st20" points="49.4,48.5 42.7,52.4 42.7,53.1 49.4,49.2 			"/>
			<polygon class="st20" points="50,48.2 50,48.9 50.6,48.5 50.6,47.8 			"/>
		</g>
	</g>
	<path class="st20" d="M57.5,78.2c-0.1-0.7-0.4-1.4-1-1.9c-0.3-0.2-0.7-0.4-1.1-0.4c-0.9-0.2-3.2,0.1-4.5,2.3
		c-0.6,1-2.5,3.7-2.5,3.7s0.1,0.1,0.6,0.3c1.8,0.7,2.5,1.8,3.1,3.6c0,0.2,0.1,0.3,0.2,0.4c0.1,0.1,0.3,0.1,0.5,0
		c0.1-0.1,0.2-0.2,0.3-0.4c0.6-0.9,1.1-1.8,1.9-2.5c0.7-0.7,1.4-1.5,2-2.3C57.6,80.1,57.7,79.2,57.5,78.2z"/>
	<g>
		<g>
			<polygon class="st33" points="7.8,58.9 6.6,59.5 6.6,54.9 7.8,54.3 			"/>
			<polygon class="st20" points="9.5,57.9 8.4,58.5 8.4,50.9 9.5,50.3 			"/>
			<polygon class="st20" points="12.9,55.9 11.8,56.6 11.8,50 12.9,49.3 			"/>
			<polygon class="st1" points="11.2,56.9 10.1,57.6 10.1,52.1 11.2,51.4 			"/>
		</g>
		<g>
			<polygon class="st20" points="6.7,60.6 13,57 13,56.5 6.7,60.1 			"/>
			<polygon class="st20" points="6.7,61.7 13,58.1 13,57.5 6.7,61.1 			"/>
			<polygon class="st20" points="6.7,62.7 13,59.1 13,58.5 6.7,62.2 			"/>
		</g>
	</g>
	<g>
		<g>
			<polygon class="st20" points="7.4,66.5 6.8,66.9 6.8,64.4 7.4,64.1 			"/>
			<polygon class="st20" points="8.3,66 7.7,66.4 7.7,64.9 8.3,64.5 			"/>
			<polygon class="st20" points="12,63.9 11.4,64.2 11.4,62.8 12,62.4 			"/>
			<polygon class="st20" points="10.1,65 9.5,65.3 9.5,64.8 10.1,64.4 			"/>
			<polygon class="st20" points="12.9,63.4 12.3,63.7 12.3,62.5 12.9,62.1 			"/>
			<polygon class="st20" points="9.2,65.5 8.6,65.8 8.6,63.9 9.2,63.5 			"/>
			<polygon class="st20" points="11.1,64.4 10.5,64.8 10.5,62.2 11.1,61.8 			"/>
		</g>
		<g>
			<polygon class="st33" points="7.4,70.2 6.8,70.6 6.8,69.2 7.4,68.9 			"/>
			<polygon class="st33" points="8.3,69.7 7.7,70 7.7,69.6 8.3,69.3 			"/>
			<polygon class="st33" points="12,67.6 11.4,67.9 11.4,65.7 12,65.4 			"/>
			<polygon class="st33" points="10.2,68.6 9.5,69 9.5,68 10.2,67.6 			"/>
			<polygon class="st33" points="12.9,67 12.3,67.4 12.3,66.6 12.9,66.2 			"/>
			<polygon class="st33" points="9.2,69.2 8.6,69.5 8.6,66.9 9.2,66.6 			"/>
			<polygon class="st33" points="11.1,68.1 10.5,68.4 10.5,66.8 11.1,66.4 			"/>
		</g>
		<g>
			<polygon class="st1" points="7.4,73.8 6.8,74.2 6.8,73.2 7.4,72.8 			"/>
			<polygon class="st1" points="8.3,73.3 7.7,73.6 7.7,71 8.3,70.7 			"/>
			<polygon class="st1" points="12,71.2 11.4,71.5 11.4,71 12,70.6 			"/>
			<polygon class="st1" points="10.2,72.2 9.5,72.6 9.5,70.5 10.2,70.2 			"/>
			<polygon class="st1" points="12.9,70.6 12.3,71 12.3,69.8 12.9,69.4 			"/>
			<polygon class="st1" points="9.2,72.8 8.6,73.1 8.6,71.6 9.2,71.3 			"/>
			<polygon class="st1" points="11.1,71.7 10.5,72.1 10.5,70.8 11.1,70.4 			"/>
		</g>
	</g>
	<g>
		<g>
			<path class="st20" d="M18.3,55.4l-0.3,1c0.3,0,0.7-0.1,1.1-0.4v-0.9C18.8,55.3,18.5,55.4,18.3,55.4z"/>
			<path class="st1" d="M21.5,50.6l-0.7,0.8c0.1,0.2,0.1,0.4,0.1,0.7c0,0.5-0.2,1.1-0.4,1.6l0.6,0.3c0.4-0.8,0.6-1.6,0.6-2.3
				C21.7,51.2,21.6,50.9,21.5,50.6z"/>
			<path class="st20" d="M19.1,55.2v0.9c0.8-0.4,1.5-1.3,1.9-2.2l-0.6-0.3C20.1,54.3,19.6,54.8,19.1,55.2z"/>
			<path class="st20" d="M17.4,54.8l-0.7,0.8c0.2,0.5,0.7,0.8,1.3,0.8l0.3-1C17.9,55.4,17.6,55.2,17.4,54.8z"/>
			<path class="st1" d="M20.7,51.4l0.7-0.8c-0.2-0.5-0.7-0.8-1.3-0.8l-0.3,1C20.2,50.8,20.6,51,20.7,51.4z"/>
			<path class="st33" d="M19.8,50.8l0.3-1c-0.3,0-0.7,0.1-1.1,0.4V51C19.4,50.9,19.6,50.8,19.8,50.8z"/>
			<path class="st20" d="M17.3,54.1c0-0.5,0.2-1.1,0.4-1.6l-0.6-0.3c-0.4,0.8-0.6,1.6-0.6,2.3c0,0.4,0.1,0.7,0.2,1l0.7-0.8
				C17.3,54.6,17.3,54.4,17.3,54.1z"/>
			<path class="st33" d="M19.1,51v-0.9c-0.8,0.4-1.5,1.3-1.9,2.2l0.6,0.3C18.1,51.9,18.5,51.3,19.1,51z"/>
		</g>
		<g>
			<polygon class="st20" points="21.4,44.8 22.3,44.3 22.3,43.2 21.4,43.7 			"/>
			<polygon class="st20" points="21.4,46.2 22.3,45.7 22.3,44.6 21.4,45.2 			"/>
			<polygon class="st20" points="21.4,47.7 22.3,47.2 22.3,46.1 21.4,46.6 			"/>
			<polygon class="st20" points="15.1,48.4 21,45 21,44 15.1,47.3 			"/>
			<polygon class="st20" points="15.1,49.8 21,46.5 21,45.4 15.1,48.8 			"/>
			<polygon class="st20" points="15.1,51.3 21,47.9 21,46.9 15.1,50.2 			"/>
		</g>
	</g>
	<g>
		<g>
			<g>
				<g>
					<g>
						<path class="st20" d="M19,64.7l1.5,2.1c1.4-1.7,1.9-4.1,1.1-5.2C21,60.8,20,60.7,19,61.4L19,64.7z"/>
					</g>
				</g>
				<g>
					<g>
						<path class="st20" d="M19,64.7l-1.5,3.8c0.9,0.1,2-0.5,2.9-1.7L19,64.7z"/>
					</g>
				</g>
				<g>
					<g>
						<path class="st33" d="M19,64.7l-1.5-2.1c-1.4,1.7-1.9,4.1-1.1,5.2c0.3,0.4,0.6,0.6,1.1,0.6L19,64.7z"/>
					</g>
				</g>
				<g>
					<g>
						<path class="st1" d="M19,64.7l0-3.4c-0.5,0.3-1,0.7-1.5,1.3L19,64.7z"/>
					</g>
				</g>
			</g>
		</g>
		<g>
			<polygon class="st20" points="15.5,59.9 22.6,55.8 22.6,55.2 15.5,59.3 			"/>
			<polygon class="st20" points="15.5,61.1 22.6,57 22.6,56.3 15.5,60.5 			"/>
			<polygon class="st20" points="15.5,62.3 22.6,58.2 22.6,57.5 15.5,61.6 			"/>
		</g>
	</g>
	<g>
		<g>
			<path class="st5" d="M39.4,15.8c0,0.1-0.1,0.2-0.1,0.3c0,0.1-0.1,0.2-0.1,0.3c-0.1,0.2-0.2,0.4-0.4,0.6c0,0.1-0.1,0.1-0.1,0.2
				c0,0,0,0,0,0c0,0,0,0,0.1,0.1c0,0.1,0.1,0.4,0,0.7c0,0.2-0.1,0.4-0.1,0.6c0,0.1-0.1,0.3-0.2,0.4c-0.2,0.4-0.6,0.9-1.2,1.2
				c-0.2,0.1-0.6,0.2-1,0.2c-0.1,0-0.2,0-0.3,0h0c-0.4,0-0.8,0-0.8,0s-0.1,0.1-0.4,0.2c-0.2,0.1-0.4,0.2-0.7,0.3
				c-1.2,0.5-2.9,1-3,0.5c-1.9,0.8-2.5-0.2-2.4-1c-0.7,0.8-1.9,0.4-2-0.6c-2-0.3-1.7-1.6-1.7-1.6c-1.8,1.1-3-0.3-2.9-0.9
				c-0.8,0.3-1.6,0.1-2.2-0.4c-0.2-0.2-0.4-1-0.4-1s-0.2,0-0.5-0.2c-0.6-0.3-1.1-0.7-1.4-1.3c-0.4-0.7-0.4-1.5-0.1-2.3
				c-0.4-0.2-0.8-0.6-0.9-1.1c-0.1-0.3,0-0.7,0.2-1c0.1-0.2,0.3-0.4,0.3-0.5c0-0.2-0.3-0.5-0.4-0.7c-0.2-0.5-0.3-0.9-0.4-1.4
				c0-0.3,0-0.5,0.2-0.8c0.3-0.3,0.6-0.6,0.8-0.9c0-0.1,0.1-0.1,0.1-0.2c0-0.1,0-0.1-0.1-0.2c-0.3-0.9,0-1.9,0.7-2.5
				c0.5-0.4,1.1-0.6,1.8-0.7c0.1,0,0.3,0,0.5,0c0.2,0,0.3,0,0.4-0.1c0,0,0,0,0,0c0.2-0.1,0.2-0.5,0.3-0.6c0.2-0.3,0.4-0.5,0.6-0.7
				c0.4-0.3,0.9-0.5,1.4-0.6C23,0.1,23.3,0,23.7,0c0.1,0,0.3,0,0.4,0.1c0,0,0,0,0,0c0.1,0,0.1,0,0.2,0.1c0.3,0.1,0.5,0.2,0.7,0.4
				c0,0,0,0,0.1,0.1c0,0,0.1,0.1,0.1,0.1c0,0,0,0,0,0c0,0,0,0,0,0c0.1,0,0.1,0,0.2-0.1c0,0,0,0,0.1,0c0.4-0.2,0.8-0.3,1.2-0.3
				c0.1,0,0.2,0,0.3,0c0,0,0.1,0,0.1,0c0.4,0.1,0.7,0.2,1,0.5C28,0.8,28.1,0.9,28.1,1c0.1,0.1,0.1,0.2,0.1,0.3
				c0.5-0.2,1.1-0.2,1.5,0.1c0.4,0.3,0.7,0.7,0.7,1.2c0,0,0,0,0,0.1c0,0,0,0,0,0c0,0,0.1,0,0.3,0c0,0,0.1,0,0.1,0
				c0.3,0,0.9,0.1,1.3,0.6c0.4,0.4,0.5,0.8,0.6,1.3c0,0.1,0,0.2,0,0.3c0,0,0.1,0,0.1,0c0.4,0,0.7,0,1.1,0.1c0.2,0.1,0.4,0.2,0.6,0.3
				c0.5,0.4,0.6,1.1,0.5,1.7c0.5,0.1,0.9,0.4,1.1,0.9c0.1,0.3,0.2,0.5,0.2,0.8c0,0.1,0,0.3,0,0.4c0,0.2-0.1,0.1,0.1,0.2
				c0.2,0.1,0.5,0.1,0.7,0.3c0.2,0.1,0.3,0.3,0.5,0.5c0.1,0.1,0.1,0.3,0.2,0.4c0,0,0,0,0,0c0,0.1,0,0.2,0.1,0.3c0,0.2,0,0.4-0.1,0.6
				c0,0,0,0,0,0.1c0,0.1,0,0.1,0,0.1c0,0,0,0.1,0.1,0.1c0,0,0,0,0,0c0,0,0.1,0.1,0.1,0.1c0.1,0.1,0.3,0.1,0.3,0.2
				c0.2,0.2,0.4,0.4,0.5,0.6c0.1,0.3,0.1,0.7,0.1,1c0,0.1-0.1,0.3-0.1,0.4c0,0.1,0,0.2,0,0.2c0,0.1,0,0.1,0,0.2
				c0.1,0.2,0.3,0.4,0.4,0.6C39.4,15.2,39.4,15.5,39.4,15.8z"/>
			<g>
				<g>
					<g>
						<path class="st9" d="M28.9,14.5c0,0-0.1,0.1-0.1,0.1c0,0-0.1,0.1-0.1,0.1c-0.4,0.3-1.1,0.7-2.1,0.7c-0.1,0-0.1,0-0.2,0
							c-1.1-0.1-1.9-0.3-2.5-0.8c-0.8-0.6-1.2-1.6-1.6-2.5c-0.2-0.5-0.5-1.1-0.8-1.6c-0.5-0.8-1.2-1.3-1.9-1.6
							c-0.7-0.3-1.4-0.3-2.1,0c0-0.1,0-0.1-0.1-0.2c0.7-0.2,1.5-0.2,2.2,0c0.3,0.1,0.6,0.3,0.9,0.4c0.1,0.1,0.2,0.1,0.2,0.2
							c0.4,0.3,0.7,0.7,1,1.1c0.3,0.5,0.6,1.1,0.9,1.6c0.4,0.9,0.8,1.8,1.5,2.4c0.6,0.5,1.4,0.7,2.4,0.8c1,0.1,1.7-0.4,2.1-0.7
							c0,0,0.1-0.1,0.1-0.1c0,0,0.1-0.1,0.1-0.1c0.1,0,0.1,0,0.2,0C29,14.4,29,14.5,28.9,14.5z"/>
					</g>
					<g>
						<path class="st9" d="M25.4,0.6c0,0.8-0.4,1.7-0.9,2.4c-0.3,0.5-0.8,0.8-1.2,1.2c0,0,0,0,0,0c-0.1,0.1-0.2,0.2-0.3,0.2
							c0,0,0,0,0,0c-0.4,0.3-0.7,0.5-1.1,0.7l-0.1,0c-0.2,0.2-0.5,0.3-0.7,0.5c-0.5,0.5-0.8,1.1-0.8,1.8v0c0,0.1,0,0.3,0,0.4
							c0,0.1,0,0.1-0.1,0.1c0,0,0,0,0,0c-0.1,0-0.1,0-0.1-0.1c0-0.1,0-0.3,0-0.4c0-0.8,0.3-1.5,0.9-2c0.2-0.2,0.5-0.4,0.7-0.5l0.1,0
							c0.8-0.5,1.8-1.2,2.5-2.1c0.5-0.7,0.8-1.4,0.9-2.2c0,0,0,0,0,0c0,0,0,0,0,0C25.3,0.7,25.3,0.6,25.4,0.6
							C25.4,0.6,25.4,0.6,25.4,0.6z"/>
					</g>
					<g>
						<path class="st9" d="M24.3,7.8c-0.2,0-0.4-0.1-0.5-0.4C23.6,7,23.6,6.5,23.6,6l0-0.1c0-0.4,0-1-0.3-1.4
							c-0.1-0.1-0.2-0.1-0.2-0.1c-0.1,0-0.1,0-0.2,0c0-0.1,0-0.1,0-0.2c0.2-0.1,0.4,0,0.5,0.1c0.4,0.4,0.4,1,0.4,1.5l0,0.1
							c0,0.5,0,0.9,0.2,1.3c0,0.1,0.1,0.2,0.3,0.2c0,0,0,0,0,0c0.1,0,0.1,0.1,0.1,0.1C24.5,7.7,24.4,7.8,24.3,7.8
							C24.3,7.8,24.3,7.8,24.3,7.8z"/>
					</g>
					<g>
						<path class="st9" d="M21.4,1.2c0.1,0.4,0.1,0.7,0.1,1.1c0,0.6-0.2,1.2-0.5,1.5c-0.1,0.1-0.2,0.2-0.4,0.3
							c-0.1,0-0.1,0.1-0.2,0.1c0,0,0,0-0.1,0c0,0-0.1,0-0.1,0c0-0.1,0-0.1,0-0.2c0.1-0.1,0.1-0.1,0.2-0.2c0.1-0.1,0.2-0.2,0.3-0.3
							c0.3-0.3,0.4-0.8,0.4-1.4c0-0.3,0-0.6-0.1-0.8L21.4,1.2z"/>
					</g>
					<g>
						<path class="st9" d="M33.4,19.5c0,0-0.1,0.1-0.1,0.1c0,0,0,0,0,0c-1-0.4-1.6-1.5-1.5-2.6c0.1-0.5,0.3-1,0.5-1.5l0.1-0.2
							c0.5-1.1,0.7-1.9,0.7-2.7c0.1-2.4-0.9-3.2-1.8-4.1c-0.6-0.5-1.3-1.1-1.6-2.1c-0.4-1.1,0-2.7,0.8-3.7c0.1-0.1,0.1-0.1,0.2-0.2
							c0,0,0,0,0,0.1c0,0,0,0,0,0c0,0,0.1,0,0.3,0c-0.1,0.1-0.2,0.2-0.3,0.3c-0.8,0.9-1.1,2.5-0.8,3.5c0.3,0.9,0.9,1.4,1.5,2
							c0.2,0.2,0.5,0.4,0.7,0.6l0,0C32,9,32,9.1,32.1,9.1c0,0,0,0,0,0c0.7,0.7,1.2,1.7,1.1,3.5c0,0.8-0.3,1.7-0.7,2.8l-0.1,0.2
							c-0.2,0.4-0.4,0.9-0.4,1.4c-0.1,1,0.5,1.9,1.4,2.3C33.4,19.4,33.4,19.4,33.4,19.5z"/>
					</g>
					<g>
						<path class="st9" d="M23.2,17.3c0,0.4,0,0.7-0.1,0.9c-0.1-0.1-0.1-0.1-0.2-0.2c0-0.2,0.1-0.5,0.1-0.7c0-1.2-0.3-2.3-0.9-3.1
							c-0.3-0.3-0.6-0.7-0.9-1c-0.4-0.4-0.9-0.8-1.2-1.3c-0.1-0.2-0.2-0.3-0.2-0.4c0-0.1,0-0.2,0-0.3c0-0.1,0.1-0.1,0.1-0.1
							c0.1,0,0.1,0.1,0.1,0.1c0,0.1,0,0.2,0,0.3c0,0.1,0.1,0.2,0.1,0.3c0.3,0.5,0.7,0.9,1.1,1.3c0.3,0.3,0.7,0.6,1,1
							C22.8,14.8,23.2,16,23.2,17.3z"/>
					</g>
					<g>
						<path class="st9" d="M38.1,16.6c0,0.5-0.2,1.1-0.4,1.7c-0.2,0.6-0.6,1.2-1.1,1.9c0,0.1-0.1,0.1-0.1,0.2
							c-0.1,0.1-0.1,0.2-0.2,0.3c-0.1,0-0.2,0-0.3,0c0.1-0.2,0.2-0.3,0.3-0.4c0-0.1,0.1-0.1,0.1-0.2c0.5-0.7,0.8-1.2,1-1.8
							c0.2-0.6,0.4-1.1,0.4-1.6c0-0.5-0.1-0.9-0.2-1.3c0-0.1-0.1-0.2-0.2-0.3c0-0.1,0-0.1,0-0.2c0.1,0,0.1,0,0.2,0
							c0.1,0.1,0.1,0.2,0.2,0.3C38,15.6,38.1,16.1,38.1,16.6z"/>
					</g>
					<g>
						<path class="st9" d="M34.9,18C34.8,18,34.8,18,34.9,18c-0.7-1-0.9-2.1-0.7-3c0.1-0.3,0.2-0.6,0.3-0.8l0.1-0.1
							c0.3-0.7,0.6-1.6,0.7-2.5c0-1-0.3-1.8-0.9-2.3C34.1,9.1,33.9,9,33.8,9c-0.2-0.1-0.4-0.1-0.6-0.1c-0.2,0-0.5,0-0.8,0.1
							c-0.1,0-0.3,0.1-0.4,0.2c-0.1,0-0.1,0-0.2,0c0-0.1,0-0.1,0-0.2c0.1-0.1,0.3-0.2,0.4-0.2c0.3-0.1,0.6-0.1,0.9-0.1
							c0.2,0,0.5,0,0.7,0.1c0.2,0.1,0.4,0.2,0.5,0.3c0.6,0.6,1,1.5,1,2.5c0,1-0.4,1.9-0.7,2.6l-0.1,0.1c-0.1,0.3-0.2,0.5-0.3,0.8
							c-0.2,0.8,0,1.8,0.6,2.7C35,17.9,35,18,34.9,18C34.9,18,34.9,18,34.9,18z"/>
					</g>
					<g>
						<path class="st9" d="M19.2,7.7C19.2,7.9,19.1,8,19,8c0,0,0,0,0,0c-0.1,0-0.1-0.1-0.1-0.1c0-0.1,0.1-0.1,0.1-0.1c0,0,0,0,0,0
							c0.1-0.7,0.1-1.3,0-1.9c-0.1-0.6-0.3-1.2-0.7-1.6c0,0,0.1-0.1,0.1-0.1c0,0,0.1-0.1,0.1-0.1c0.4,0.5,0.6,1.1,0.7,1.8
							C19.3,6.4,19.3,7,19.2,7.7z"/>
					</g>
					<g>
						<path class="st9" d="M28.1,1c-0.2,0.2-0.5,0.5-0.6,0.8c-0.4,0.8-0.6,1.7-0.6,2.6c0,0.1,0,0.1-0.1,0.1c0,0,0,0,0,0
							c-0.1,0-0.1,0-0.1-0.1c-0.1-0.9,0.1-1.8,0.6-2.7C27.5,1.3,27.7,1,28,0.8C28,0.8,28.1,0.9,28.1,1z"/>
					</g>
					<g>
						<path class="st9" d="M30.6,15.4c-0.2,1-0.9,1.9-1.9,2.3c-0.4,0.2-0.8,0.2-1.3,0.2c-0.5,0-1-0.1-1.6-0.2
							c-0.8-0.2-1.4-0.5-1.8-0.9c-0.1-0.1-0.2-0.2-0.3-0.3c0-0.1,0-0.1,0-0.2c0.1,0,0.1,0,0.2,0c0.1,0.1,0.2,0.2,0.3,0.3
							c0.4,0.4,0.9,0.6,1.7,0.8c1.1,0.3,2,0.3,2.8,0c0.9-0.3,1.6-1.2,1.7-2.1c0.2-0.9-0.1-1.9-0.7-2.6c-0.5-0.5-1.1-0.9-1.8-1.2
							c-0.7-0.4-1.3-0.7-1.8-1.3c-0.6-0.7-1-1.6-1-2.7c0-0.1,0-0.2,0-0.3c0,0,0-0.1,0-0.1c0-0.8,0.2-1.7,0.3-2.5
							c0.3-1.4,0.7-3,1.3-4.4c0.1,0,0.2,0,0.3,0c-0.6,1.4-1,3-1.3,4.4c-0.2,0.8-0.3,1.6-0.3,2.4c0,0.1,0,0.2,0,0.3c0,0,0,0.1,0,0.1
							c0.1,1,0.4,2,1,2.6c0.5,0.5,1.1,0.9,1.8,1.2c0.7,0.4,1.3,0.7,1.8,1.3c0.3,0.4,0.6,0.8,0.7,1.3c0,0.1,0,0.2,0.1,0.3
							C30.7,14.6,30.7,15,30.6,15.4z"/>
					</g>
					<g>
						<path class="st9" d="M25.9,7.6c-0.3,0-0.6-0.1-0.9-0.3c-0.1,0-0.1-0.1,0-0.2c0-0.1,0.1-0.1,0.2,0c0.4,0.3,1,0.3,1.4,0.1
							c0.4-0.2,0.7-0.5,1.1-1.1c0.8-1.3,1.2-2.9,1-4.4c0-0.1,0-0.1,0.1-0.1c0.1,0,0.1,0,0.1,0.1c0.2,1.6-0.2,3.2-1.1,4.6
							c-0.4,0.6-0.7,0.9-1.2,1.1C26.4,7.5,26.1,7.6,25.9,7.6z"/>
					</g>
					<g>
						<path class="st9" d="M30.5,14.2C30.5,14.2,30.4,14.2,30.5,14.2c-0.1-0.1-0.1-0.2-0.1-0.2c0.4-0.3,0.7-0.8,0.7-1.3
							c0-0.5-0.1-1-0.4-1.5c-0.3-0.5-0.7-0.9-1-1.2c-0.3-0.3-0.8-0.7-1.2-1.1c-0.1,0-0.1-0.1,0-0.2c0-0.1,0.1-0.1,0.2,0
							C29,9,29.5,9.4,29.8,9.8c0.4,0.4,0.8,0.8,1.1,1.3c0.3,0.5,0.5,1.1,0.5,1.6C31.3,13.3,31,13.9,30.5,14.2
							C30.6,14.2,30.5,14.2,30.5,14.2z"/>
					</g>
					<g>
						<path class="st9" d="M31.9,20.6C31.9,20.6,31.9,20.6,31.9,20.6c-0.2,0-0.5-0.1-0.7-0.4c-0.6-0.6-0.9-1.5-0.8-2.4
							c0-0.1,0.1-0.1,0.1-0.1c0.1,0,0.1,0.1,0.1,0.1c-0.1,0.8,0.2,1.6,0.8,2.2c0.2,0.2,0.4,0.3,0.5,0.3c0.1,0,0.1,0.1,0.1,0.1
							C32,20.5,32,20.6,31.9,20.6z"/>
					</g>
					<g>
						<path class="st9" d="M26.1,14c-0.4,0-0.8-0.1-1.2-0.3c-0.5-0.3-0.9-0.7-1.2-1.2c0-0.1,0-0.1,0-0.2c0.1,0,0.1,0,0.2,0
							c0.3,0.5,0.7,0.9,1.1,1.1c0.5,0.3,1,0.4,1.5,0.2c0.1,0,0.1,0,0.1,0.1c0,0.1,0,0.1-0.1,0.1C26.4,13.9,26.2,14,26.1,14z"/>
					</g>
					<g>
						<path class="st9" d="M21.3,15.9c-0.1,0-0.1,0-0.1-0.1c-0.3-1.1-1.2-2-2.3-2.4c-0.1,0-0.1-0.1-0.1-0.2s0.1-0.1,0.2-0.1
							c1.2,0.4,2.1,1.4,2.4,2.6C21.5,15.8,21.4,15.9,21.3,15.9C21.4,15.9,21.4,15.9,21.3,15.9z"/>
					</g>
					<g>
						<path class="st9" d="M36,9.6c0,0.1-0.1,0.1-0.1,0.1c0,0,0,0,0,0c-0.1,0-0.1-0.1-0.1-0.1c0-0.1,0-0.2,0-0.3v0
							c0-0.2-0.1-0.4-0.2-0.6c-0.3-0.7-1-1.2-1.6-1.5l-0.1-0.1c-0.3-0.2-0.6-0.3-0.8-0.6c-0.1-0.2-0.2-0.3-0.3-0.6
							c-0.1-0.3-0.2-0.6-0.2-0.8c0-0.2,0.1-0.4,0.2-0.6c0,0.1,0,0.2,0,0.3c0,0,0.1,0,0.1,0c-0.1,0.1-0.1,0.3-0.1,0.4
							c0,0.2,0,0.4,0.1,0.7c0.1,0.2,0.2,0.4,0.3,0.5c0.2,0.2,0.5,0.4,0.7,0.5l0.1,0.1c0.6,0.3,1.3,0.8,1.6,1.6
							C35.9,8.8,35.9,9,36,9.3v0C36,9.4,36,9.5,36,9.6z"/>
					</g>
					<g>
						<path class="st9" d="M31.4,6.9C31.4,6.9,31.4,6.8,31.4,6.9c0.3-0.6,0.4-1.2,0.2-1.8c-0.2-0.6-0.5-1.1-1-1.4
							c-0.2-0.2-0.5-0.2-0.7-0.2c-0.1,0-0.1,0.1-0.1,0.1c0,0.1,0.1,0.1,0.1,0.1c0.2,0,0.3,0.1,0.5,0.2c0.4,0.3,0.8,0.7,0.9,1.2
							s0.1,1.1-0.2,1.5c0,0.1,0,0.1,0.1,0.2C31.3,6.9,31.3,6.9,31.4,6.9z"/>
					</g>
					<g>
						<path class="st9" d="M27.4,12.5C27.4,12.5,27.4,12.5,27.4,12.5c-0.8,0-1.6-0.4-2.2-1c-0.3-0.3-0.6-0.7-0.9-1.1
							C24,9.9,23.6,9.3,23,9c-0.3-0.2-0.6-0.3-1-0.3c-0.3,0-0.6-0.1-0.9,0c-0.2,0.1-0.5,0.4-0.4,0.6c0,0.1,0,0.1-0.1,0.1
							c-0.1,0-0.1,0-0.1-0.1C20.4,9,20.7,8.6,21,8.5c0.4-0.1,0.7-0.1,1.1,0c0.4,0.1,0.8,0.2,1.1,0.4c0.6,0.4,1,1,1.4,1.5
							c0.3,0.4,0.5,0.8,0.8,1.1c0.5,0.5,1.3,0.8,2,0.9c0.1,0,0.1,0.1,0.1,0.1C27.5,12.5,27.5,12.5,27.4,12.5z"/>
					</g>
					<g>
						<path class="st9" d="M34.5,20.9C34.4,20.9,34.4,20.9,34.5,20.9c-0.1-0.1-0.1-0.2-0.1-0.2c0.2-0.2,0.3-0.6,0.2-1
							c-0.1-0.4-0.4-0.7-0.6-1c0,0-0.1-0.1-0.1-0.1c-0.2-0.3-0.5-0.5-0.6-0.8c-0.3-0.5-0.3-1-0.2-1.5c0.2-0.6,0.6-1.1,1.2-1.3
							c0.1,0,0.1,0,0.1,0.1c0,0.1,0,0.1-0.1,0.1c-0.5,0.2-0.9,0.6-1.1,1.2c-0.1,0.4,0,0.9,0.2,1.4c0.2,0.3,0.4,0.5,0.6,0.8
							c0,0,0.1,0.1,0.1,0.1c0.3,0.3,0.5,0.6,0.7,1C34.9,20.1,34.8,20.5,34.5,20.9C34.5,20.9,34.5,20.9,34.5,20.9z"/>
					</g>
					<g>
						<path class="st9" d="M38.9,13.8c0,0.1,0,0.2,0,0.2c-0.5,0-1-0.2-1.5-0.5c-0.6-0.4-1.1-1-1.3-1.8c0-0.1,0-0.1,0.1-0.1
							c0.1,0,0.1,0,0.1,0.1c0.2,0.7,0.6,1.2,1.2,1.6c0,0,0.1,0.1,0.1,0.1c0.1,0,0.1,0.1,0.2,0.1C38.2,13.7,38.5,13.8,38.9,13.8z"/>
					</g>
					<g>
						<path class="st9" d="M35.5,19.1C35.5,19.1,35.4,19.1,35.5,19.1c-0.1-0.1-0.1-0.2-0.1-0.2c0.5-0.4,0.9-1.1,1-1.9
							c0.1-0.7-0.1-1.4-0.4-2.1l0,0c0,0-0.1,0-0.1,0c0,0,0-0.1,0-0.2c0,0,0.1,0,0.1,0c0.1,0,0.1,0.1,0.2,0.1
							c0.4,0.8,0.5,1.5,0.5,2.3C36.5,17.8,36.2,18.6,35.5,19.1C35.6,19.1,35.5,19.1,35.5,19.1z"/>
					</g>
					<g>
						<path class="st9" d="M24.2,0.1c-0.1,0.5-0.2,1-0.4,1.4c-0.3,0.6-0.7,1.2-1.2,1.5c0,0,0,0-0.1,0c0,0-0.1,0-0.1-0.1
							c0-0.1,0-0.1,0-0.2c0.5-0.3,0.8-0.8,1.1-1.4C23.8,1,23.9,0.6,24,0.1C24.1,0.1,24.1,0.1,24.2,0.1z"/>
					</g>
					<g>
						<path class="st9" d="M17.7,12.1C17.7,12.1,17.7,12.1,17.7,12.1c0.1-0.2,0.2-0.4,0.3-0.6c0.3-0.5,0.6-0.8,1-1.1
							c0.2-0.1,0.4-0.2,0.6-0.2c0.1,0,0.1-0.1,0.1-0.1c0-0.1-0.1-0.1-0.1-0.1c-0.2,0-0.5,0.1-0.7,0.3c-0.4,0.3-0.8,0.7-1.1,1.2
							c-0.1,0.1-0.2,0.3-0.2,0.4L17.7,12.1z"/>
					</g>
				</g>
				<g>
					<path class="st9" d="M29,18.8c0,0.6-0.3,1.3-0.9,1.8c-0.1,0.1-0.2,0.2-0.3,0.2c-0.1,0-0.1-0.1-0.2-0.1c0,0,0,0,0,0
						c0.1-0.1,0.2-0.2,0.3-0.3c0.4-0.3,0.8-0.9,0.8-1.5c0-0.1,0-0.2,0-0.3c0-0.1,0-0.1,0.1-0.1c0.1,0,0.1,0,0.1,0.1
						C29,18.6,29,18.7,29,18.8z"/>
				</g>
				<g>
					<path class="st9" d="M21.9,7.9c-0.1,0-0.1-0.1-0.1-0.1c0-0.6,0.1-1.2,0.4-1.7c0.1-0.1,0.2-0.3,0.3-0.3c0.1,0,0.1,0,0.1,0.1
						c0,0.1,0,0.1-0.1,0.1c0,0-0.1,0.1-0.2,0.2c-0.3,0.5-0.4,1-0.4,1.6C22,7.8,22,7.9,21.9,7.9C21.9,7.9,21.9,7.9,21.9,7.9z"/>
				</g>
				<g>
					<path class="st9" d="M28.4,10.7c0,0-0.1,0-0.1-0.1c-0.5-0.7-1.1-1.4-1.9-1.8c-0.1,0-0.1-0.1,0-0.2s0.1-0.1,0.2,0
						c0.8,0.5,1.5,1.1,2,1.9C28.5,10.6,28.5,10.6,28.4,10.7C28.4,10.7,28.4,10.7,28.4,10.7z"/>
				</g>
				<path class="st9" d="M28.6,9.2c-0.2,0-0.4-0.2-0.4-0.4c0-0.2,0.2-0.4,0.4-0.4c0.2,0,0.4,0.2,0.4,0.4C29,9,28.8,9.1,28.6,9.2z"/>
				<path class="st9" d="M28.9,14.8c-0.2,0-0.4-0.2-0.4-0.4c0-0.2,0.2-0.4,0.4-0.4c0.2,0,0.4,0.2,0.4,0.4
					C29.3,14.6,29.1,14.8,28.9,14.8z"/>
				<path class="st9" d="M23.8,16.9c-0.2,0-0.4-0.2-0.4-0.4c0-0.2,0.2-0.4,0.4-0.4c0.2,0,0.4,0.2,0.4,0.4S24.1,16.9,23.8,16.9z"/>
				<path class="st9" d="M19.8,11.4c-0.2,0-0.4-0.2-0.4-0.4c0-0.2,0.2-0.4,0.4-0.4c0.2,0,0.4,0.2,0.4,0.4
					C20.2,11.2,20,11.4,19.8,11.4z"/>
				<path class="st9" d="M20.3,8.3c-0.2,0-0.4-0.2-0.4-0.4c0-0.2,0.2-0.4,0.4-0.4c0.2,0,0.4,0.2,0.4,0.4C20.7,8.1,20.5,8.2,20.3,8.3
					z"/>
				<path class="st9" d="M27.4,12.8c-0.2,0-0.4-0.2-0.4-0.4c0-0.2,0.2-0.4,0.4-0.4c0.2,0,0.4,0.2,0.4,0.4
					C27.8,12.6,27.7,12.8,27.4,12.8z"/>
				<path class="st9" d="M35.9,10c-0.2,0-0.4-0.2-0.4-0.4c0-0.2,0.2-0.4,0.4-0.4c0.2,0,0.4,0.2,0.4,0.4C36.3,9.8,36.1,10,35.9,10z"
					/>
				<path class="st9" d="M31.3,7.1c-0.2,0-0.4-0.2-0.4-0.4c0-0.2,0.2-0.4,0.4-0.4c0.2,0,0.4,0.2,0.4,0.4C31.7,6.9,31.5,7.1,31.3,7.1
					z"/>
				<path class="st9" d="M34.4,21.2c-0.2,0-0.4-0.2-0.4-0.4c0-0.2,0.2-0.4,0.4-0.4c0.2,0,0.4,0.2,0.4,0.4
					C34.8,21,34.7,21.1,34.4,21.2z"/>
				<path class="st9" d="M28.8,18.9c-0.2,0-0.4-0.2-0.4-0.4c0-0.2,0.2-0.4,0.4-0.4c0.2,0,0.4,0.2,0.4,0.4
					C29.2,18.7,29,18.8,28.8,18.9z"/>
				<path class="st9" d="M36,15.1c-0.2,0-0.4-0.2-0.4-0.4c0-0.2,0.2-0.4,0.4-0.4c0.2,0,0.4,0.2,0.4,0.4C36.4,14.9,36.2,15.1,36,15.1
					z"/>
				<path class="st9" d="M20.3,4.7c-0.2,0-0.4-0.2-0.4-0.4c0-0.2,0.2-0.4,0.4-0.4c0.2,0,0.4,0.2,0.4,0.4C20.7,4.5,20.5,4.7,20.3,4.7
					z"/>
			</g>
		</g>
		<path class="st34" d="M36.1,19.5c0,0.3,0.1,0.5,0,0.8c0,0.1-0.1,0.2-0.1,0.3c-0.4,0-0.8,0-0.8,0s-3.9,1.8-4.1,1
			c-1.9,0.8-2.5-0.2-2.4-1c-0.7,0.8-1.9,0.4-2-0.6c-2-0.3-1.7-1.6-1.7-1.6c-1.8,1.1-3-0.3-2.9-0.9c-0.8,0.3-1.6,0.1-2.2-0.4
			c-0.2-0.2-0.4-1-0.4-1s-0.2,0-0.5-0.2c-0.6-0.3-1.1-0.7-1.4-1.3c-0.4-0.7-0.4-1.5-0.1-2.3c-0.4-0.2-0.8-0.6-0.9-1.1
			c-0.1-0.3,0-0.7,0.2-1c0.1-0.2,0.3-0.4,0.3-0.5c0-0.2-0.3-0.5-0.4-0.7c-0.2-0.5-0.3-0.9-0.4-1.4c0-0.3,0-0.5,0.2-0.8
			c0.3-0.3,0.6-0.6,0.8-0.9c0-0.1,0.1-0.1,0.1-0.2c0-0.1,0-0.1-0.1-0.2c-0.2-0.6-0.1-1.3,0.2-1.8c0,0,0,0,0,0c0,0,0,0,0,0
			c0-0.1,0-0.1,0.1-0.2c0.3-0.6,0.9-1,1.5-1.1c0.4-0.1,0.9-0.1,1.3-0.1c0,0,0.1,0,0.1,0c0.2,0,0.6,0.1,0.8,0.2
			c0.1,0,0.2,0.1,0.3,0.1c0,0,0,0,0,0s0.5-0.3,0.7-0.4c0.4-0.1,0.8-0.1,1.2,0c0.4,0.1,1,0.8,1,0.8s0.9-0.1,1.7,0.4
			c0.6,0.4,0.9,0.9,1,1.1c0,0,0,0,0,0s0.1,0,0.2,0c0.4,0,1.1,0,1.6,0.6c0.3,0.3,0.5,0.7,0.6,1.2c0,0,0,0,0,0c0,0.1,0,0.3,0,0.5
			c0.1,0,0.1,0,0.2,0c0.3,0,0.7,0.1,1,0.2c0.2,0.1,0.4,0.2,0.6,0.4c0.4,0.4,0.6,1,0.7,1.5c0,0.1,0.1,0.2,0.1,0.3
			c0.1,0.1,0.1,0.1,0.2,0.2c0.2,0.2,0.4,0.3,0.6,0.6c0.2,0.4,0.3,0.9,0.2,1.3c0.6,0,1.1,0.4,1.4,0.9c0.1,0.2,0.2,0.5,0.2,0.7
			c0,0.2-0.1,0.6,0,0.8c0.1,0.2,0.4,0.2,0.5,0.4c0.2,0.2,0.4,0.4,0.5,0.6c0.1,0.4,0.1,0.8,0,1.2c0,0.1-0.1,0.3-0.1,0.4
			c0,0,0.1,0,0.1,0c0.1,0,0.2,0.1,0.3,0.2c0.4,0.3,0.6,0.8,0.7,1.3c0,0.5-0.1,1-0.3,1.4C36.3,19.1,36.1,19.3,36.1,19.5z"/>
		<path class="st6" d="M35.7,19.6c0,0.1-0.1,0.2-0.2,0.3c0,0.1-0.1,0.1-0.1,0.2c0,0,0,0,0,0c0,0.3,0.1,0.5,0,0.8
			c-0.1,0.3-0.3,0.5-0.5,0.8c-0.1,0.1-0.2,0.2-0.3,0.3c-0.1,0.1-0.3,0.1-0.4,0c0,0.1,0,0.1,0,0.2c0,0,0,0,0,0c0,0.1-0.1,0.2-0.1,0.4
			c-0.1,0.3-0.4,0.6-0.7,0.7c-0.3,0.2-0.6,0.2-0.9,0.2c-0.2,0-0.5-0.1-0.7,0c-0.1,0-0.1,0-0.2,0c-0.1,0-0.1,0.1-0.1,0.1c0,0,0,0,0,0
			c0,0,0,0,0,0c0,0-0.1,0.1-0.1,0.1c-0.1,0.1-0.3,0.2-0.4,0.4c-0.3,0.2-0.5,0.4-0.9,0.4c-0.5,0-0.9-0.2-1.3-0.4
			c-0.5,0.5-1.4,0.5-1.9,0c-0.4,0.2-0.8,0.3-1.2,0.2c-0.2-0.1-0.4-0.2-0.5-0.3c-0.1-0.1-0.1-0.2-0.2-0.3c-0.1-0.1-0.1-0.2-0.2-0.2
			c0,0,0,0-0.1,0c-0.2,0-0.6,0.3-0.8,0.3c-0.2,0-0.4,0-0.6-0.1c-0.1,0-0.1-0.1-0.2-0.1c0,0,0,0,0,0c-0.1-0.1-0.2-0.3-0.3-0.5
			c0,0,0,0,0,0c-0.1-0.1-0.1-0.3-0.1-0.3c0,0-0.1,0-0.1,0c-1.9-0.4-1.6-1.6-1.6-1.6c-1.1,0.6-1.9,0.4-2.4,0
			c-0.1-0.1-0.1-0.1-0.2-0.2c-0.1-0.1-0.1-0.1-0.1-0.2c-0.1-0.2-0.2-0.3-0.2-0.4c0-0.1,0-0.1,0-0.2c-0.8,0.3-1.6,0.1-2.3-0.4
			c-0.2-0.2-0.4-1.1-0.4-1.1s-0.2,0-0.5-0.2c-0.6-0.3-1.1-0.7-1.4-1.3c-0.3-0.7-0.4-1.4-0.2-2.2c0,0,0,0,0,0c0-0.1,0-0.1,0.1-0.2
			c-0.1,0-0.1-0.1-0.2-0.1c-0.4-0.3-0.6-0.6-0.7-1.1c-0.1-0.3,0-0.7,0.2-1c0.1-0.2,0.3-0.5,0.4-0.6c0,0,0,0,0,0s0,0,0-0.1
			c0-0.1,0-0.1-0.1-0.2c0,0,0,0,0,0c-0.1-0.2-0.1-0.4-0.2-0.6c-0.5-0.9-0.4-2,0.2-2.9c0.2-0.3,0.7-0.8,0.9-1c0,0,0.1-0.1,0.1-0.1
			c0,0,0.1-0.1,0.1-0.1c0,0,0,0,0,0s0-0.1,0-0.2c0.1-0.4,0.3-1.3,0.7-1.7c0.5-0.5,1.2-0.8,1.9-0.7c0,0,0,0,0.1,0c0,0,0.1,0,0.1,0
			c0-0.1,0-0.2,0.1-0.3c0,0,0,0,0,0l0,0C17,3.3,17.7,3,18.3,2.8c0.4-0.1,0.7-0.1,1.1-0.1c0.1,0,0.2,0,0.2,0c0,0,0,0,0,0
			c0.2,0,0.6,0.1,0.9,0.2c0,0,0,0,0,0c0.1,0,0.2,0.1,0.2,0.1c0,0,0,0,0,0c0,0,0,0,0,0s0.5-0.3,0.7-0.4c0.2-0.1,0.3-0.1,0.5-0.1
			c0.1,0,0.2,0,0.3,0c0.2,0,0.3,0,0.4,0.1c0.2,0,0.6,0.3,0.8,0.5c0.1,0.1,0.1,0.1,0.2,0.2c0,0,0.1,0.1,0.1,0.1s0.9-0.1,1.7,0.4
			c0.5,0.3,0.8,0.7,0.9,0.9c0,0.1,0.1,0.1,0.1,0.1c0,0,0,0,0,0s0,0,0.1,0c0,0,0.1,0,0.1,0c0.4,0,1.1,0,1.6,0.6
			c0.3,0.3,0.5,0.7,0.6,1.2c0,0,0,0,0,0c0,0,0,0,0,0c0,0.1,0,0.2,0,0.3c0,0,0,0.1,0,0.1c0.1,0,0.1,0,0.2,0c0.3,0,0.7,0.1,1,0.2
			c0.2,0.1,0.4,0.2,0.6,0.4c0.4,0.4,0.6,1,0.7,1.5c0,0.1,0.1,0.2,0.1,0.3c0.1,0.1,0.1,0.1,0.2,0.2c0.2,0.2,0.4,0.3,0.6,0.6
			c0.2,0.4,0.3,0.9,0.2,1.3c0.6,0,1.1,0.4,1.4,0.9c0.1,0.2,0.2,0.5,0.2,0.7c0,0.2-0.1,0.6,0,0.8c0.1,0.2,0.4,0.2,0.5,0.4
			c0.2,0.2,0.4,0.4,0.5,0.6c0.1,0.4,0.1,0.8,0,1.2c0,0.1,0,0.1-0.1,0.2c0,0.1-0.1,0.1-0.1,0.2c0,0,0.1,0,0.1,0c0,0,0,0,0,0
			c0,0,0,0,0,0c0.1,0,0.2,0.1,0.3,0.2c0.4,0.3,0.6,0.8,0.7,1.3C36.1,18.7,36,19.2,35.7,19.6z"/>
		<g>
			<g>
				<g>
					<path class="st9" d="M24.3,17.2c0,0-0.1,0.1-0.1,0.1c0,0-0.1,0.1-0.1,0.1c-0.4,0.3-1.1,0.7-2.1,0.7c-0.1,0-0.1,0-0.2,0
						c-1.1-0.1-1.9-0.3-2.5-0.8c-0.8-0.6-1.2-1.6-1.6-2.5c-0.2-0.5-0.5-1.1-0.8-1.6c-0.5-0.8-1.2-1.3-1.9-1.6
						c-0.7-0.3-1.4-0.3-2.1,0c0-0.1,0-0.1-0.1-0.2c0.7-0.2,1.5-0.2,2.2,0c0.3,0.1,0.6,0.3,0.9,0.4c0.1,0.1,0.2,0.1,0.2,0.2
						c0.4,0.3,0.7,0.7,1,1.1c0.3,0.5,0.6,1.1,0.9,1.6c0.4,0.9,0.8,1.8,1.5,2.4c0.6,0.5,1.4,0.7,2.4,0.8c1,0.1,1.7-0.4,2.1-0.7
						c0,0,0.1-0.1,0.1-0.1c0,0,0.1-0.1,0.1-0.1c0.1,0,0.1,0,0.2,0C24.4,17.1,24.4,17.2,24.3,17.2z"/>
				</g>
				<g>
					<path class="st9" d="M20.8,3c0,0.9-0.3,1.8-0.9,2.6c-0.3,0.5-0.8,0.8-1.2,1.2c-0.1,0.1-0.2,0.2-0.3,0.2
						c-0.4,0.3-0.7,0.5-1.1,0.7l-0.1,0c-0.2,0.2-0.5,0.3-0.7,0.5c-0.5,0.5-0.8,1.1-0.8,1.8c0,0.1,0,0.3,0,0.4c0,0.1,0,0.1-0.1,0.1
						c0,0,0,0,0,0c-0.1,0-0.1,0-0.1-0.1c0-0.1,0-0.3,0-0.4c0-0.8,0.3-1.5,0.9-2c0.2-0.2,0.5-0.4,0.7-0.5l0.1,0
						C18.1,7,19,6.4,19.7,5.5c0.6-0.8,0.9-1.7,0.9-2.5C20.7,3,20.8,3,20.8,3z"/>
				</g>
				<g>
					<path class="st9" d="M19.7,10.4c-0.2,0-0.4-0.1-0.5-0.4C19,9.6,19,9.1,19.1,8.6l0-0.1c0-0.4,0-1-0.3-1.4
						C18.7,7.1,18.6,7,18.5,7c-0.1,0-0.1,0-0.2,0c0-0.1,0-0.1,0-0.2c0.2-0.1,0.4,0,0.5,0.1c0.4,0.4,0.4,1,0.4,1.5l0,0.1
						c0,0.5,0,0.9,0.2,1.3c0,0.1,0.1,0.2,0.3,0.2c0,0,0,0,0,0c0.1,0,0.1,0.1,0.1,0.1C19.9,10.4,19.8,10.4,19.7,10.4
						C19.7,10.4,19.7,10.4,19.7,10.4z"/>
				</g>
				<g>
					<path class="st9" d="M16.8,3.9c0.1,0.4,0.1,0.7,0.1,1.1c0,0.6-0.2,1.2-0.5,1.5c-0.1,0.1-0.2,0.2-0.4,0.3C16,6.9,15.9,7,15.9,7
						c0,0,0,0-0.1,0c0,0-0.1,0-0.1,0c0-0.1,0-0.1,0-0.2c0.1-0.1,0.1-0.1,0.2-0.2c0.1-0.1,0.2-0.2,0.3-0.3C16.5,6,16.7,5.5,16.7,5
						c0-0.3,0-0.6-0.1-0.8L16.8,3.9z"/>
				</g>
				<g>
					<path class="st9" d="M28.8,22.1c0,0-0.1,0.1-0.1,0.1c0,0,0,0,0,0c-1-0.4-1.6-1.5-1.5-2.6c0.1-0.5,0.3-1,0.5-1.5l0.1-0.2
						c0.5-1.1,0.7-1.9,0.7-2.7c0.1-2.4-0.9-3.3-1.8-4.1c-0.6-0.5-1.3-1.1-1.6-2.1c-0.4-1.1,0-2.7,0.8-3.7c0.2-0.3,0.5-0.5,0.7-0.6
						c0,0.1,0.1,0.1,0.1,0.1c0,0,0,0,0,0s0,0,0.1,0c-0.3,0.2-0.6,0.4-0.8,0.6C25.1,6.4,24.8,8,25.2,9c0.3,0.9,0.9,1.4,1.5,2
						c0.2,0.2,0.5,0.4,0.7,0.6c0.1,0.1,0.1,0.1,0.2,0.2c0.7,0.7,1.2,1.7,1.1,3.5c0,0.8-0.3,1.7-0.7,2.8l-0.1,0.2
						c-0.2,0.4-0.4,0.9-0.4,1.4c-0.1,1,0.5,1.9,1.4,2.3C28.8,22,28.8,22.1,28.8,22.1z"/>
				</g>
				<g>
					<path class="st9" d="M18.6,19.9c0,0.4,0,0.7-0.1,0.9c-0.1-0.1-0.1-0.1-0.2-0.2c0-0.2,0.1-0.5,0.1-0.7c0-1.2-0.3-2.3-0.9-3.1
						c-0.3-0.3-0.6-0.7-0.9-1c-0.4-0.4-0.9-0.8-1.2-1.3c-0.1-0.2-0.2-0.3-0.2-0.4c0-0.1,0-0.2,0-0.3c0-0.1,0.1-0.1,0.1-0.1
						c0.1,0,0.1,0.1,0.1,0.1c0,0.1,0,0.2,0,0.3c0,0.1,0.1,0.2,0.1,0.3c0.3,0.5,0.7,0.9,1.1,1.3c0.3,0.3,0.7,0.6,1,1
						C18.2,17.5,18.6,18.6,18.6,19.9z"/>
				</g>
				<g>
					<path class="st9" d="M33.5,19.2c0,0.5-0.2,1.1-0.4,1.7c-0.2,0.6-0.6,1.2-1.1,1.9c0,0.1-0.1,0.1-0.1,0.2
						c-0.1,0.2-0.3,0.4-0.4,0.6c0,0,0,0,0,0c0,0,0,0,0,0c0,0-0.1,0.1-0.1,0.1c-0.1,0.1-0.3,0.2-0.4,0.4c0-0.1,0.1-0.2,0.1-0.3
						c0.2-0.3,0.4-0.6,0.6-0.9c0-0.1,0.1-0.1,0.1-0.2c0.5-0.7,0.8-1.2,1-1.8c0.2-0.6,0.4-1.1,0.4-1.6c0-0.5-0.1-0.9-0.2-1.3
						c0-0.1-0.1-0.2-0.2-0.3c0-0.1,0-0.1,0-0.2c0.1,0,0.1,0,0.2,0c0.1,0.1,0.1,0.2,0.2,0.3C33.4,18.3,33.5,18.7,33.5,19.2z"/>
				</g>
				<g>
					<path class="st9" d="M30.3,20.7C30.2,20.7,30.2,20.7,30.3,20.7c-0.7-1-0.9-2.1-0.7-3c0.1-0.3,0.2-0.6,0.3-0.8l0.1-0.1
						c0.3-0.7,0.6-1.6,0.7-2.5c0-1-0.3-1.8-0.9-2.3c-0.2-0.1-0.3-0.2-0.5-0.3c-0.2-0.1-0.4-0.1-0.6-0.1c-0.2,0-0.5,0-0.8,0.1
						c-0.1,0-0.3,0.1-0.4,0.2c-0.1,0-0.1,0-0.2,0c0-0.1,0-0.1,0-0.2c0.1-0.1,0.3-0.2,0.4-0.2c0.3-0.1,0.6-0.1,0.9-0.1
						c0.2,0,0.5,0,0.7,0.1c0.2,0.1,0.4,0.2,0.5,0.3c0.6,0.6,1,1.5,1,2.5c0,1-0.4,1.9-0.7,2.6L30.1,17c-0.1,0.3-0.2,0.5-0.3,0.8
						c-0.2,0.8,0,1.8,0.6,2.7C30.4,20.6,30.4,20.6,30.3,20.7C30.3,20.7,30.3,20.7,30.3,20.7z"/>
				</g>
				<g>
					<path class="st9" d="M14.6,10.4c0,0.2-0.1,0.2-0.2,0.3c0,0,0,0,0,0c-0.1,0-0.1-0.1-0.1-0.1c0-0.1,0.1-0.1,0.1-0.1c0,0,0,0,0,0
						c0.1-0.7,0.1-1.3,0-1.9c-0.1-0.6-0.3-1.2-0.7-1.6c0,0,0.1-0.1,0.1-0.1c0,0,0.1-0.1,0.1-0.1c0.4,0.5,0.6,1.1,0.7,1.8
						C14.7,9,14.7,9.7,14.6,10.4z"/>
				</g>
				<g>
					<path class="st9" d="M23.8,3.4c-0.4,0.2-0.7,0.5-1,1.1c-0.4,0.8-0.6,1.7-0.6,2.6c0,0.1,0,0.1-0.1,0.1c0,0,0,0,0,0
						c-0.1,0-0.1,0-0.1-0.1c-0.1-0.9,0.1-1.8,0.6-2.7c0.3-0.5,0.6-0.9,1-1.1C23.7,3.3,23.8,3.4,23.8,3.4z"/>
				</g>
				<g>
					<path class="st9" d="M22.8,20.6c-0.5,0-1-0.1-1.6-0.2c-1-0.3-1.6-0.7-2.1-1.2c0-0.1,0-0.1,0-0.2c0.1,0,0.1,0,0.2,0
						c0.4,0.5,1,0.9,2,1.1c1.1,0.3,2,0.3,2.8,0c0.9-0.3,1.6-1.2,1.7-2.1c0.2-0.9-0.1-1.9-0.7-2.6c-0.5-0.5-1.1-0.9-1.8-1.2
						c-0.7-0.4-1.3-0.7-1.8-1.3c-0.6-0.7-1-1.6-1-2.7c0-1,0.1-2,0.3-2.9c0.3-1.6,0.7-3.2,1.4-4.7c0-0.1,0.1-0.1,0.2-0.1
						c0.1,0,0.1,0.1,0.1,0.2c-0.7,1.5-1.1,3.1-1.4,4.7c-0.2,0.9-0.4,1.9-0.3,2.8c0.1,1,0.4,2,1,2.6c0.5,0.5,1.1,0.9,1.8,1.2
						c0.7,0.4,1.3,0.7,1.8,1.3c0.7,0.8,1,1.9,0.8,2.9c-0.2,1-0.9,1.9-1.9,2.3C23.7,20.5,23.3,20.6,22.8,20.6z"/>
				</g>
				<g>
					<path class="st9" d="M21.3,10.2c-0.3,0-0.6-0.1-0.9-0.3c-0.1,0-0.1-0.1,0-0.2c0-0.1,0.1-0.1,0.2,0c0.4,0.3,1,0.3,1.4,0.1
						c0.4-0.2,0.7-0.5,1.1-1.1c0.8-1.3,1.2-2.9,1-4.4c0-0.1,0-0.1,0.1-0.1c0.1,0,0.1,0,0.1,0.1c0.2,1.6-0.2,3.2-1.1,4.6
						c-0.4,0.6-0.7,0.9-1.2,1.1C21.8,10.1,21.6,10.2,21.3,10.2z"/>
				</g>
				<g>
					<path class="st9" d="M25.9,16.8C25.9,16.8,25.8,16.8,25.9,16.8c-0.1-0.1-0.1-0.2-0.1-0.2c0.4-0.3,0.7-0.8,0.7-1.3
						c0-0.5-0.1-1-0.4-1.5c-0.3-0.5-0.7-0.9-1-1.2c-0.3-0.3-0.8-0.7-1.2-1.1c-0.1,0-0.1-0.1,0-0.2c0-0.1,0.1-0.1,0.2,0
						c0.5,0.3,0.9,0.7,1.2,1.1c0.4,0.4,0.8,0.8,1.1,1.3c0.3,0.5,0.5,1.1,0.5,1.6C26.8,15.9,26.4,16.5,25.9,16.8
						C26,16.8,25.9,16.8,25.9,16.8z"/>
				</g>
				<g>
					<path class="st9" d="M27.3,23.2C27.3,23.2,27.3,23.2,27.3,23.2c-0.2,0-0.5-0.1-0.7-0.4c-0.6-0.6-0.9-1.5-0.8-2.4
						c0-0.1,0.1-0.1,0.1-0.1c0.1,0,0.1,0.1,0.1,0.1c-0.1,0.8,0.2,1.6,0.8,2.2c0.2,0.2,0.4,0.3,0.5,0.3c0.1,0,0.1,0.1,0.1,0.1
						C27.4,23.2,27.4,23.2,27.3,23.2z"/>
				</g>
				<g>
					<path class="st9" d="M21.5,16.6c-0.4,0-0.8-0.1-1.2-0.3c-0.5-0.3-0.9-0.7-1.2-1.2c0-0.1,0-0.1,0-0.2c0.1,0,0.1,0,0.2,0
						c0.3,0.5,0.7,0.9,1.1,1.1c0.5,0.3,1,0.4,1.5,0.2c0.1,0,0.1,0,0.1,0.1c0,0.1,0,0.1-0.1,0.1C21.8,16.6,21.7,16.6,21.5,16.6z"/>
				</g>
				<g>
					<path class="st9" d="M16.7,18.6c-0.1,0-0.1,0-0.1-0.1c-0.3-1.1-1.2-2-2.3-2.4c-0.1,0-0.1-0.1-0.1-0.2c0-0.1,0.1-0.1,0.2-0.1
						c1.2,0.4,2.1,1.4,2.4,2.6C16.9,18.5,16.8,18.6,16.7,18.6C16.8,18.6,16.8,18.6,16.7,18.6z"/>
				</g>
				<g>
					<path class="st9" d="M31.8,12.4c0,0.1-0.1,0.1-0.1,0.1c0,0,0,0,0,0c-0.1,0-0.1-0.1-0.1-0.1c0-0.1,0-0.2,0-0.3
						c0-0.2-0.1-0.4-0.2-0.6c-0.3-0.7-1-1.2-1.6-1.5l-0.1-0.1c-0.3-0.2-0.6-0.3-0.8-0.6c-0.1-0.2-0.2-0.3-0.3-0.6
						c-0.1-0.3-0.2-0.6-0.2-0.8c0-0.5,0.3-0.8,0.6-1.2c0,0.1,0,0.2,0,0.3c-0.2,0.3-0.4,0.6-0.4,0.9c0,0.2,0,0.4,0.1,0.7
						C28.9,8.8,29,9,29.1,9.1c0.2,0.2,0.5,0.4,0.7,0.5l0.1,0.1c0.6,0.3,1.3,0.8,1.6,1.6c0.1,0.2,0.2,0.5,0.2,0.7
						C31.7,12.2,31.8,12.3,31.8,12.4z"/>
				</g>
				<g>
					<path class="st9" d="M27,9.9C27,9.9,27,9.9,27,9.9c-0.5-0.4-0.8-0.9-0.9-1.5c-0.1-0.6,0-1.2,0.4-1.7c0.2-0.2,0.3-0.4,0.5-0.5
						c0.1,0,0.1,0,0.2,0.1c0,0.1,0,0.1-0.1,0.2c-0.1,0.1-0.3,0.2-0.4,0.4c-0.3,0.4-0.4,1-0.3,1.5c0.1,0.5,0.4,1,0.8,1.3
						C27.2,9.7,27.2,9.8,27,9.9C27.1,9.9,27.1,9.9,27,9.9z"/>
				</g>
				<g>
					<path class="st9" d="M22.8,15.2C22.8,15.2,22.8,15.2,22.8,15.2c-0.8,0-1.6-0.4-2.2-1c-0.3-0.3-0.6-0.7-0.9-1.1
						c-0.4-0.6-0.8-1.1-1.3-1.5c-0.3-0.1-0.6-0.3-1-0.3c-0.3,0-0.6-0.1-0.9,0c-0.2,0.1-0.5,0.4-0.4,0.6c0,0.1,0,0.1-0.1,0.1
						c-0.1,0-0.1,0-0.1-0.1c-0.1-0.4,0.2-0.8,0.6-0.9c0.4-0.1,0.7-0.1,1.1,0c0.4,0.1,0.8,0.2,1.1,0.4c0.6,0.4,1,1,1.4,1.5
						c0.3,0.4,0.5,0.8,0.8,1.1c0.5,0.5,1.3,0.8,2,0.9c0.1,0,0.1,0.1,0.1,0.1C22.9,15.1,22.9,15.2,22.8,15.2z"/>
				</g>
				<g>
					<path class="st9" d="M29.9,23.5C29.8,23.5,29.8,23.5,29.9,23.5c-0.1-0.1-0.1-0.2-0.1-0.2c0.2-0.2,0.3-0.6,0.2-1
						c-0.1-0.4-0.4-0.7-0.6-1c0,0-0.1-0.1-0.1-0.1c-0.2-0.3-0.5-0.5-0.6-0.8c-0.3-0.5-0.3-1-0.2-1.5c0.2-0.6,0.6-1.1,1.2-1.3
						c0.1,0,0.1,0,0.1,0.1c0,0.1,0,0.1-0.1,0.1c-0.5,0.2-0.9,0.6-1.1,1.2c-0.1,0.4,0,0.9,0.2,1.4c0.2,0.3,0.4,0.5,0.6,0.8
						c0,0,0.1,0.1,0.1,0.1c0.3,0.3,0.5,0.6,0.7,1C30.3,22.7,30.2,23.2,29.9,23.5C29.9,23.5,29.9,23.5,29.9,23.5z"/>
				</g>
				<g>
					<path class="st9" d="M35.1,16.7c-0.1,0-0.1,0-0.2,0c-0.1,0-0.2,0-0.4,0c-0.6,0-1.2-0.2-1.8-0.5c-0.6-0.4-1.1-1-1.3-1.8
						c0-0.1,0-0.1,0.1-0.1c0.1,0,0.1,0,0.1,0.1c0.2,0.7,0.6,1.2,1.2,1.6c0,0,0.1,0.1,0.1,0.1c0.1,0,0.1,0.1,0.2,0.1
						c0.5,0.2,1.1,0.3,1.6,0.3c0.1,0,0.1,0,0.2,0c0,0.1-0.1,0.1-0.1,0.2C35,16.6,35.1,16.6,35.1,16.7C35.1,16.7,35.1,16.7,35.1,16.7
						z"/>
				</g>
				<g>
					<path class="st9" d="M30.9,21.7C30.9,21.7,30.8,21.7,30.9,21.7c-0.1-0.1-0.1-0.2-0.1-0.2c0.5-0.4,0.9-1.1,1-1.9
						c0.1-0.6-0.1-1.3-0.4-2.1c0,0-0.2-0.2-0.1-0.3c0-0.1,0.1-0.1,0.1,0c0.1,0,0.1,0.1,0.2,0.1c0.4,0.8,0.5,1.5,0.5,2.3
						C32,20.5,31.6,21.2,30.9,21.7C31,21.7,30.9,21.7,30.9,21.7z"/>
				</g>
				<g>
					<path class="st9" d="M19.6,2.7c-0.1,0.5-0.2,1-0.4,1.4c-0.3,0.6-0.7,1.2-1.2,1.5c0,0,0,0-0.1,0c0,0-0.1,0-0.1-0.1
						c0-0.1,0-0.1,0-0.2C18.4,5.1,18.8,4.6,19,4c0.2-0.4,0.3-0.8,0.4-1.3C19.5,2.7,19.6,2.7,19.6,2.7z"/>
				</g>
				<g>
					<path class="st9" d="M13.1,14.7C13.1,14.7,13.1,14.7,13.1,14.7c0.1-0.2,0.2-0.4,0.3-0.6c0.3-0.5,0.6-0.8,1-1.1
						c0.2-0.1,0.4-0.2,0.6-0.2c0.1,0,0.1-0.1,0.1-0.1c0-0.1-0.1-0.1-0.1-0.1c-0.2,0-0.5,0.1-0.7,0.3c-0.4,0.3-0.8,0.7-1.1,1.2
						c-0.1,0.1-0.2,0.3-0.2,0.4L13.1,14.7z"/>
				</g>
				<g>
					<path class="st9" d="M35.6,19.8c0,0.1-0.1,0.1-0.1,0.2c-0.4-0.3-0.8-0.7-1-1.2c-0.1-0.3-0.2-0.6-0.1-0.8c0-0.1,0.1-0.1,0.1-0.1
						c0.1,0,0.1,0.1,0.1,0.1c0,0.2,0,0.4,0.1,0.7C34.9,19.2,35.2,19.6,35.6,19.8z"/>
				</g>
			</g>
			<g>
				<path class="st9" d="M24.4,21.5c0,0.6-0.3,1.3-0.9,1.8c-0.1,0.1-0.2,0.2-0.3,0.2c-0.1,0-0.1-0.1-0.2-0.1c0,0,0,0,0,0
					c0.1-0.1,0.2-0.2,0.3-0.3c0.4-0.3,0.8-0.9,0.8-1.5c0-0.1,0-0.2,0-0.3c0-0.1,0-0.1,0.1-0.1c0.1,0,0.1,0,0.1,0.1
					C24.4,21.3,24.4,21.4,24.4,21.5z"/>
			</g>
			<g>
				<path class="st9" d="M33.1,16.3C33.1,16.3,33,16.3,33.1,16.3C33,16.2,33,16.1,33,16.1c0.1-0.1,0.2-0.3,0.2-0.5
					c0.1-0.8-0.1-1.6-0.5-2.4c0-0.1,0-0.1,0-0.2c0.1,0,0.1,0,0.2,0.1c0.4,0.8,0.6,1.7,0.5,2.5C33.4,15.9,33.4,16.1,33.1,16.3
					C33.2,16.3,33.1,16.3,33.1,16.3z"/>
			</g>
			<g>
				<path class="st9" d="M17.3,10.5c-0.1,0-0.1-0.1-0.1-0.1c0-0.6,0.1-1.2,0.4-1.7c0.1-0.1,0.2-0.3,0.3-0.3c0.1,0,0.1,0,0.1,0.1
					c0,0.1,0,0.1-0.1,0.1c0,0-0.1,0.1-0.2,0.2c-0.3,0.5-0.4,1-0.4,1.6C17.4,10.5,17.4,10.5,17.3,10.5C17.3,10.5,17.3,10.5,17.3,10.5
					z"/>
			</g>
			<g>
				<path class="st9" d="M23.8,13.3c0,0-0.1,0-0.1-0.1c-0.5-0.7-1.1-1.4-1.9-1.8c-0.1,0-0.1-0.1,0-0.2c0-0.1,0.1-0.1,0.2,0
					c0.8,0.5,1.5,1.1,2,1.9C23.9,13.2,23.9,13.3,23.8,13.3C23.8,13.3,23.8,13.3,23.8,13.3z"/>
			</g>
			<g>
				<path class="st9" d="M34.2,22.1C34.2,22.1,34.2,22.1,34.2,22.1c0,0.1-0.1,0.2-0.1,0.4c-0.1-0.2-0.2-0.4-0.2-0.5
					c-0.1-0.4-0.1-0.8-0.1-1.2c0-0.1,0-0.3,0-0.4c0-0.1,0.1-0.1,0.1-0.1c0.1,0,0.1,0.1,0.1,0.1c0,0.1,0,0.3,0,0.4
					c0,0.4,0,0.7,0.1,1.1C34.2,22,34.2,22.1,34.2,22.1z"/>
			</g>
			<path class="st9" d="M24,11.8c-0.2,0-0.4-0.2-0.4-0.4c0-0.2,0.2-0.4,0.4-0.4c0.2,0,0.4,0.2,0.4,0.4C24.4,11.6,24.2,11.8,24,11.8z
				"/>
			<path class="st9" d="M24.3,17.4c-0.2,0-0.4-0.2-0.4-0.4c0-0.2,0.2-0.4,0.4-0.4c0.2,0,0.4,0.2,0.4,0.4
				C24.7,17.2,24.5,17.4,24.3,17.4z"/>
			<path class="st9" d="M19.3,19.5c-0.2,0-0.4-0.2-0.4-0.4c0-0.2,0.2-0.4,0.4-0.4c0.2,0,0.4,0.2,0.4,0.4
				C19.6,19.3,19.5,19.5,19.3,19.5z"/>
			<path class="st9" d="M15.2,14.1c-0.2,0-0.4-0.2-0.4-0.4c0-0.2,0.2-0.4,0.4-0.4c0.2,0,0.4,0.2,0.4,0.4
				C15.6,13.9,15.4,14.1,15.2,14.1z"/>
			<path class="st9" d="M15.7,10.9c-0.2,0-0.4-0.2-0.4-0.4c0-0.2,0.2-0.4,0.4-0.4c0.2,0,0.4,0.2,0.4,0.4
				C16.1,10.7,15.9,10.9,15.7,10.9z"/>
			<path class="st9" d="M22.8,15.4c-0.2,0-0.4-0.2-0.4-0.4c0-0.2,0.2-0.4,0.4-0.4c0.2,0,0.4,0.2,0.4,0.4
				C23.2,15.3,23.1,15.4,22.8,15.4z"/>
			<path class="st9" d="M24.2,4.8c-0.2,0-0.4-0.2-0.4-0.4c0-0.2,0.2-0.4,0.4-0.4c0.2,0,0.4,0.2,0.4,0.4C24.6,4.6,24.4,4.7,24.2,4.8z
				"/>
			<path class="st9" d="M31.6,12.8c-0.2,0-0.4-0.2-0.4-0.4c0-0.2,0.2-0.4,0.4-0.4c0.2,0,0.4,0.2,0.4,0.4
				C32,12.6,31.9,12.8,31.6,12.8z"/>
			<path class="st9" d="M29.8,23.8c-0.2,0-0.4-0.2-0.4-0.4c0-0.2,0.2-0.4,0.4-0.4c0.2,0,0.4,0.2,0.4,0.4
				C30.2,23.6,30.1,23.8,29.8,23.8z"/>
			<path class="st9" d="M24.2,21.5c-0.2,0-0.4-0.2-0.4-0.4c0-0.2,0.2-0.4,0.4-0.4c0.2,0,0.4,0.2,0.4,0.4
				C24.6,21.3,24.4,21.5,24.2,21.5z"/>
			<path class="st9" d="M33,18c-0.2,0-0.4-0.2-0.4-0.4c0-0.2,0.2-0.4,0.4-0.4c0.2,0,0.4,0.2,0.4,0.4C33.4,17.8,33.2,18,33,18z"/>
			<path class="st9" d="M34,20.8c-0.2,0-0.4-0.2-0.4-0.4c0-0.2,0.2-0.4,0.4-0.4c0.2,0,0.4,0.2,0.4,0.4C34.4,20.6,34.2,20.8,34,20.8z
				"/>
			<path class="st9" d="M15.7,7.3c-0.2,0-0.4-0.2-0.4-0.4c0-0.2,0.2-0.4,0.4-0.4c0.2,0,0.4,0.2,0.4,0.4C16.1,7.1,15.9,7.3,15.7,7.3z
				"/>
		</g>
	</g>
</g>
</svg>
