<?xml version="1.0"?>
<svg xmlns="http://www.w3.org/2000/svg" viewBox="0 0 64 64" width="512" height="512">
    <g id="outline">
        <path
            d="M58.5,33.041a3.025,3.025,0,0,0-2.368,2.185A2.978,2.978,0,0,0,52.471,36.4,2.967,2.967,0,0,0,51,36a3,3,0,0,0-3,3v3.713a4.031,4.031,0,0,0-.64.519l-6.018,5.016A5.885,5.885,0,0,0,39,53v8a1,1,0,0,0,1,1h9a1,1,0,0,0,1-1V58.515l6.581-4.7a1.012,1.012,0,0,0,.314-.367l5-10A1,1,0,0,0,62,43V36a3,3,0,0,0-3.5-2.959ZM54,38a1,1,0,0,1,2,0v2.586l-2,2Zm-4,1a1,1,0,0,1,2,0v3.729a3.72,3.72,0,0,0-2-.62Zm10,3.764-4.783,9.567-6.8,4.855A1,1,0,0,0,48,58v2H41V53a3.912,3.912,0,0,1,1.64-3.232l6.067-5.061a1.714,1.714,0,0,1,2.586,0l.293.293-4.293,4.293,1.414,1.414,9-9A1,1,0,0,0,58,41V36.107a1.085,1.085,0,0,1,.825-1.093,1.009,1.009,0,0,1,.822.224A1,1,0,0,1,60,36Z"/>
        <path
            d="M7.105,53.447a1.012,1.012,0,0,0,.314.367L14,58.515V61a1,1,0,0,0,1,1h9a1,1,0,0,0,1-1V53a5.9,5.9,0,0,0-2.36-4.768l-5.933-4.939A4.25,4.25,0,0,0,16,42.73V39a3,3,0,0,0-3-3,2.967,2.967,0,0,0-1.471.4,2.978,2.978,0,0,0-3.664-1.175A3.025,3.025,0,0,0,5.5,33.041,3,3,0,0,0,2,36v7a1,1,0,0,0,.1.447ZM12,39a1,1,0,0,1,2,0v3.117a3.682,3.682,0,0,0-2,.613ZM8,38a1,1,0,0,1,2,0v4.586l-2-2ZM4,36a1,1,0,0,1,.353-.762,1.012,1.012,0,0,1,.822-.224A1.085,1.085,0,0,1,6,36.107V41a1,1,0,0,0,.293.707l9,9,1.414-1.414L12.414,45l.293-.293a1.746,1.746,0,0,1,2.653.061l5.982,4.984A3.932,3.932,0,0,1,23,53v7H16V58a1,1,0,0,0-.419-.814l-6.8-4.855L4,42.764Z"/>
        <path d="M18,31a8,8,0,1,0-8-8A8.009,8.009,0,0,0,18,31Zm0-14a6,6,0,1,1-6,6A6.006,6.006,0,0,1,18,17Z"/>
        <path d="M24,10a8,8,0,1,0,8-8A8.009,8.009,0,0,0,24,10Zm14,0a6,6,0,1,1-6-6A6.006,6.006,0,0,1,38,10Z"/>
        <path d="M53,28a8,8,0,1,0-8,8A8.009,8.009,0,0,0,53,28ZM39,28a6,6,0,1,1,6,6A6.006,6.006,0,0,1,39,28Z"/>
        <path d="M6,22H8c0-4.353,2.457-6.1,2.562-6.172l-1.117-1.66C9.305,14.262,6,16.528,6,22Z"/>
        <path d="M8.452,12.892l-.9-1.787A8.9,8.9,0,0,0,3,19H5A6.9,6.9,0,0,1,8.452,12.892Z"/>
        <path d="M43,37c-3.316,0-5.089-3.416-5.107-3.45l-1.788.9C36.2,34.633,38.435,39,43,39Z"/>
        <path d="M42,41a6.456,6.456,0,0,1-5.171-2.559l-1.661,1.114A8.479,8.479,0,0,0,42,43Z"/>
        <path d="M47,16l-.007,2a8.32,8.32,0,0,1,5.3,2.707l1.414-1.414A10.261,10.261,0,0,0,47,16Z"/>
        <path d="M55.168,18.555l1.664-1.11c-2.189-3.283-6.411-4.37-6.589-4.415l-.487,1.94C49.792,14.979,53.414,15.924,55.168,18.555Z"/>
        <rect x="19" y="24" width="2" height="2"/>
        <rect x="15" y="22" width="2" height="2"/>
        <rect x="32" y="6" width="2" height="2"/>
    </g>
</svg>
