<?xml version="1.0" encoding="iso-8859-1"?>
<!-- Generator: Adobe Illustrator 19.0.0, SVG Export Plug-In . SVG Version: 6.00 Build 0)  -->
<svg version="1.1" id="Capa_1" xmlns="http://www.w3.org/2000/svg" xmlns:xlink="http://www.w3.org/1999/xlink" x="0px" y="0px"
	 viewBox="0 0 512.002 512.002" style="enable-background:new 0 0 512.002 512.002;" xml:space="preserve">
<g>
	<g>
		<path d="M414.935,49.266l-23.902-23.902c-3.337-3.337-8.73-3.337-12.066,0l-47.805,47.805c-1.604,1.596-2.5,3.772-2.5,6.033
			c0,2.261,0.896,4.429,2.5,6.033l23.902,23.902c1.664,1.664,3.849,2.5,6.033,2.5s4.369-0.836,6.033-2.5l47.805-47.805
			c1.604-1.596,2.5-3.772,2.5-6.033C417.435,53.038,416.539,50.87,414.935,49.266z M361.097,91.037l-11.836-11.836L385,43.463
			l11.836,11.836L361.097,91.037z"/>
	</g>
</g>
<g>
	<g>
		<path d="M438.837,73.168l-23.902-23.902c-1.596-1.604-3.772-2.5-6.033-2.5c-2.261,0-4.429,0.896-6.033,2.5L355.064,97.07
			c-3.337,3.337-3.337,8.73,0,12.066l23.902,23.902c1.596,1.604,3.772,2.5,6.033,2.5s4.429-0.905,6.033-2.5l47.805-47.805
			C442.174,81.898,442.174,76.505,438.837,73.168z M385,114.94l-11.836-11.836l35.738-35.738l11.836,11.836L385,114.94z"/>
	</g>
</g>
<g>
	<g>
		<path d="M462.74,97.07l-23.902-23.902c-3.337-3.337-8.73-3.337-12.066,0l-47.805,47.805c-1.604,1.596-2.5,3.772-2.5,6.033
			s0.896,4.429,2.5,6.033l23.902,23.902c1.664,1.664,3.849,2.5,6.033,2.5s4.369-0.836,6.033-2.5l47.805-47.805
			c1.604-1.596,2.5-3.772,2.5-6.033S464.344,98.675,462.74,97.07z M408.902,138.842l-11.836-11.836l35.738-35.738l11.836,11.836
			L408.902,138.842z"/>
	</g>
</g>
<g>
	<g>
		<path d="M486.642,120.973L462.74,97.07c-1.596-1.604-3.772-2.5-6.033-2.5c-2.261,0-4.429,0.896-6.033,2.5l-47.805,47.805
			c-3.337,3.337-3.337,8.73,0,12.066l23.902,23.902c1.596,1.604,3.772,2.5,6.033,2.5c2.261,0,4.429-0.896,6.033-2.5l47.805-47.805
			C489.978,129.702,489.978,124.309,486.642,120.973z M432.804,162.744l-11.836-11.836l35.738-35.738l11.836,11.836L432.804,162.744
			z"/>
	</g>
</g>
<g>
	<g>
		<path d="M373.104,174.742l-35.858-35.858c-3.2-3.2-8.866-3.2-12.066,0l-77.68,77.689c-6.4,6.4-9.924,14.908-9.924,23.962
			s3.524,17.562,9.924,23.962c6.613,6.605,15.283,9.907,23.962,9.907s17.357-3.302,23.953-9.916l77.689-77.68
			c1.604-1.596,2.5-3.772,2.5-6.033C375.604,178.514,374.708,176.346,373.104,174.742z M283.349,252.439
			c-6.554,6.562-17.221,6.562-23.783,0c-3.174-3.183-4.924-7.399-4.924-11.896s1.749-8.713,4.924-11.896l71.647-71.647
			l23.783,23.791L283.349,252.439z"/>
	</g>
</g>
<g>
	<g>
		<path d="M259.574,336.093L128.108,204.626c-3.328-3.337-8.738-3.337-12.066,0c-3.337,3.337-3.337,8.73,0,12.066L247.5,348.159
			c1.664,1.664,3.849,2.5,6.033,2.5s4.369-0.836,6.042-2.5C262.911,344.823,262.911,339.43,259.574,336.093z"/>
	</g>
</g>
<g>
	<g>
		<path d="M307.37,383.898l-23.902-23.902c-3.337-3.337-8.73-3.337-12.066,0c-3.337,3.337-3.337,8.73,0,12.066l23.902,23.902
			c1.664,1.664,3.849,2.5,6.033,2.5s4.369-0.836,6.033-2.5C310.707,392.627,310.707,387.234,307.37,383.898z"/>
	</g>
</g>
<g>
	<g>
		<path d="M157.983,401.818l-47.805-47.805c-3.328-3.337-8.738-3.337-12.066,0l-26.829,26.829c-4.019,4.028-6.238,9.37-6.238,15.062
			s2.21,11.034,6.238,15.062l29.756,29.756c4.147,4.156,9.6,6.229,15.053,6.229c5.453-0.009,10.914-2.082,15.062-6.238
			l26.829-26.829c1.604-1.596,2.5-3.772,2.5-6.033C160.484,405.59,159.588,403.422,157.983,401.818z M119.096,428.664
			c-1.655,1.647-4.335,1.647-5.982,0l-29.756-29.756c-1.084-1.084-1.246-2.338-1.246-2.995s0.162-1.92,1.237-2.995l20.796-20.796
			l35.747,35.747L119.096,428.664z"/>
	</g>
</g>
<g>
	<g>
		<path d="M110.179,425.729l-23.902-23.902c-3.2-3.2-8.866-3.2-12.066,0L2.504,473.533c-1.604,1.596-2.5,3.772-2.5,6.033
			c0,2.261,0.896,4.429,2.5,6.033l23.902,23.902c1.664,1.664,3.849,2.5,6.033,2.5s4.369-0.836,6.033-2.5l71.707-71.707
			C113.515,434.458,113.515,429.065,110.179,425.729z M32.439,491.402l-11.836-11.836l59.64-59.64l11.836,11.836L32.439,491.402z"/>
	</g>
</g>
<g>
	<g>
		<path d="M504.562,138.884L373.121,7.443c-9.924-9.924-26.078-9.924-35.994,0L229.579,114.999c-1.604,1.596-2.5,3.772-2.5,6.033
			s0.896,4.429,2.5,6.033l59.76,59.751c3.2,3.2,8.866,3.2,12.066,0l29.816-29.824l23.791,23.791L325.188,210.6
			c-1.604,1.596-2.5,3.772-2.5,6.033c0,2.261,0.896,4.429,2.5,6.033l59.751,59.76c1.596,1.604,3.772,2.5,6.033,2.5
			s4.429-0.896,6.033-2.5l107.556-107.547C514.478,164.954,514.478,148.809,504.562,138.884z M492.487,162.812L390.973,264.327
			l-47.685-47.694l29.816-29.816c1.604-1.596,2.5-3.772,2.5-6.033c0-2.261-0.896-4.429-2.5-6.033l-35.858-35.858
			c-3.2-3.2-8.866-3.2-12.066,0l-29.816,29.824l-47.685-47.685L349.193,19.51c3.268-3.26,8.593-3.26,11.862,0l131.433,131.441
			C495.755,154.228,495.755,159.544,492.487,162.812z"/>
	</g>
</g>
<g>
	<g>
		<path d="M408.953,282.315l-71.707-71.707c-3.337-3.337-8.73-3.337-12.066,0l-41.831,41.831c-6.349,6.349-17.425,6.349-23.783,0
			c-3.174-3.183-4.924-7.399-4.924-11.896s1.749-8.713,4.924-11.896l41.831-41.831c3.337-3.337,3.337-8.73,0-12.066l-71.707-71.707
			c-3.328-3.337-8.738-3.337-12.066,0L116.041,204.626c-0.939,0.939-1.647,2.082-2.065,3.337L72.145,333.456
			c-1.015,3.063-0.222,6.443,2.065,8.73l95.609,95.609c1.621,1.63,3.806,2.5,6.033,2.5c0.905,0,1.818-0.145,2.697-0.435
			l125.493-41.831c1.254-0.427,2.398-1.126,3.337-2.065l101.574-101.583C412.29,291.045,412.29,285.652,408.953,282.315z
			 M296.729,382.473L178.157,422l-88.151-88.151l39.527-118.59l94.124-94.124l59.64,59.64L247.5,216.573
			c-6.4,6.4-9.924,14.908-9.924,23.962s3.524,17.562,9.924,23.962c12.8,12.8,35.115,12.809,47.915,0l35.798-35.798l59.64,59.649
			L296.729,382.473z"/>
	</g>
</g>
<g>
	<g>
		<path d="M235.664,371.951l-95.609-95.609c-3.328-3.337-8.738-3.337-12.066,0c-3.337,3.337-3.337,8.73,0,12.066l95.609,95.609
			c1.664,1.664,3.849,2.5,6.033,2.5c2.185,0,4.369-0.836,6.033-2.5C239,380.68,239,375.287,235.664,371.951z"/>
	</g>
</g>
<g>
	<g>
		<path d="M187.859,371.951l-47.805-47.805c-3.328-3.337-8.738-3.337-12.066,0c-3.337,3.337-3.337,8.73,0,12.066l47.805,47.805
			c1.664,1.664,3.849,2.5,6.033,2.5s4.369-0.836,6.033-2.5C191.196,380.68,191.196,375.287,187.859,371.951z"/>
	</g>
</g>
<g>
</g>
<g>
</g>
<g>
</g>
<g>
</g>
<g>
</g>
<g>
</g>
<g>
</g>
<g>
</g>
<g>
</g>
<g>
</g>
<g>
</g>
<g>
</g>
<g>
</g>
<g>
</g>
<g>
</g>
</svg>
