<svg id="Capa_1" enable-background="new 0 0 512 512" height="512" viewBox="0 0 512 512" width="512" xmlns="http://www.w3.org/2000/svg"><g><path d="m15 301h77.509c6.968 34.192 37.271 60 73.491 60h39.587c7.333 0 13.59-5.301 14.796-12.534l9.999-60c1.518-9.108-5.499-17.466-14.796-17.466h-34.586v-30h54.587c7.333 0 13.59-5.301 14.796-12.534l9.999-60c1.518-9.108-5.499-17.466-14.796-17.466h-79.586c-36.219 0-66.522 25.808-73.491 60h-77.509c-8.284 0-15 6.716-15 15v60c0 8.284 6.716 15 15 15zm182.88 0-5 30h-26.88c-19.555 0-36.228-12.542-42.42-30zm-31.88-120h61.88l-5 30c-14.174 0-85.147 0-99.3 0 6.192-17.458 22.865-30 42.42-30zm-136 60h121v30h-121z"/><path d="m497 211h-77.509c-6.968-34.192-37.271-60-73.491-60h-39.588c-7.333 0-13.59 5.301-14.796 12.534l-9.999 60c-1.518 9.108 5.499 17.466 14.796 17.466h34.587v30h-54.588c-7.333 0-13.59 5.301-14.796 12.534l-9.999 60c-1.518 9.108 5.498 17.466 14.796 17.466h79.587c36.219 0 66.522-25.808 73.491-60h77.509c8.284 0 15-6.716 15-15v-60c0-8.284-6.716-15-15-15zm-182.881 0 5-30h26.881c19.555 0 36.228 12.542 42.42 30-15.155 0-59.118 0-74.301 0zm31.881 120h-61.881l5-30.01h99.301c-6.192 17.458-22.865 30.01-42.42 30.01zm136-60h-121v-30h121z"/><path d="m368.5 480.857c7.174-4.142 9.632-13.316 5.491-20.491l-30-51.963c-4.143-7.173-13.314-9.633-20.491-5.49-7.174 4.142-9.632 13.315-5.491 20.49l30 51.963c4.154 7.193 13.332 9.622 20.491 5.491z"/><path d="m143.5 31.144c-7.174 4.142-9.632 13.316-5.49 20.49l30 51.963c4.155 7.197 13.336 9.62 20.49 5.491 7.174-4.142 9.632-13.316 5.49-20.49l-30-51.963c-4.142-7.175-13.314-9.634-20.49-5.491z"/><path d="m168.009 408.403-30 51.963c-4.142 7.175-1.684 16.349 5.491 20.491 7.151 4.127 16.334 1.708 20.491-5.491l30-51.963c4.142-7.175 1.684-16.349-5.491-20.49-7.176-4.144-16.349-1.684-20.491 5.49z"/><path d="m348.01 36.634-30 51.963c-4.142 7.174-1.684 16.348 5.49 20.49 7.15 4.128 16.335 1.708 20.49-5.491l30-51.963c4.142-7.174 1.684-16.348-5.49-20.49-7.176-4.143-16.349-1.683-20.49 5.491z"/><path d="m241 436v61c0 8.284 6.716 15 15 15s15-6.716 15-15v-61c0-8.284-6.716-15-15-15s-15 6.716-15 15z"/><path d="m241 15v61c0 8.284 6.716 15 15 15s15-6.716 15-15v-61c0-8.284-6.716-15-15-15s-15 6.716-15 15z"/></g></svg>