<?xml version="1.0"?>
<svg xmlns="http://www.w3.org/2000/svg" id="Layer_1" data-name="Layer 1" viewBox="0 0 512 512" width="512" height="512"><title>Innovative</title><path d="M253.3,93.465a163.7,163.7,0,0,0-110.441,45.388C112.6,167.6,95.57,205.055,94.907,244.311a149.133,149.133,0,0,0,43.7,107.894c23.5,23.393,35.684,55.8,33.335,87.8h-8.963a8,8,0,1,0,0,16H181v42.958A8.168,8.168,0,0,0,189.153,507H322.847A8.168,8.168,0,0,0,331,498.958V456h18.023a8,8,0,0,0,0-16H338.177c-2.636-33,9.017-62.406,33.935-87.179.026-.025.051-.154.076-.18,28.549-29.158,44.272-66.722,44.272-105.679,0-40.033-16.088-77.964-45.3-106.76C339.946,109.435,298.078,92.828,253.3,93.465ZM315,491H197V456H315Zm45.793-149.488C333.168,369,319.638,403,322.148,440H187.97c2.3-37-11.562-72.746-38.086-99.143a132.836,132.836,0,0,1-38.98-96.163c.591-34.939,15.853-68.423,42.975-94.19a147.762,147.762,0,0,1,99.658-41.015c40.458-.59,78.251,14.359,106.389,42.1,26.139,25.765,40.534,59.72,40.534,95.434C400.46,281.75,386.373,315.368,360.793,341.512Z"/><path d="M252,61.185a8,8,0,0,0,8-8V13.042a8,8,0,1,0-16,0V53.185A8,8,0,0,0,252,61.185Z"/><path d="M439.073,90.693l-36.512,31.731a8,8,0,0,0,10.5,12.077l36.512-31.731a8,8,0,1,0-10.5-12.077Z"/><path d="M102.252,130.939a8,8,0,0,0,5.521-13.791L73.2,84.19A8,8,0,1,0,62.16,95.771l34.573,32.958A7.971,7.971,0,0,0,102.252,130.939Z"/><path d="M349.184,247.481c14.079-23.029,16.534-43.442,6.913-57.478s-29.544-19.107-56.1-14.281c-.3.054-.6.123-.894.179-.121-.276-.235-.565-.358-.839-11.035-24.633-26.484-38.2-43.5-38.2a31.365,31.365,0,0,0-3.3.191,25.422,25.422,0,0,0-37.952,33.265q-1.357,2.706-2.619,5.581c-.294-.055-.593-.124-.885-.177-26.557-4.825-46.482.247-56.1,14.281s-7.166,34.449,6.913,57.478c2.376,3.887,5.047,7.785,7.978,11.672q-.339.448-.673.9a25.426,25.426,0,0,0-19.9,45.719c-.5,8.595,1.419,16.29,5.678,22.5,7.248,10.574,20.343,16.06,37.717,16.06a103.31,103.31,0,0,0,18.386-1.778c.295-.054.6-.123.894-.179.121.276.235.564.358.838,11.035,24.634,26.484,38.2,43.5,38.2s32.465-13.567,43.5-38.2c.122-.274.236-.562.358-.838.3.056.6.125.894.179a103.206,103.206,0,0,0,18.385,1.778c17.372,0,30.471-5.487,37.718-16.06,4.1-5.976,6.032-13.336,5.722-21.541a25.429,25.429,0,0,0-19.709-46.366c-.3-.406-.6-.812-.9-1.217C344.139,255.263,346.809,251.366,349.184,247.481Zm-60.042,76.025a168.835,168.835,0,0,1-16.013-5.651q7.85-4.608,15.581-9.893,2.774-1.9,5.468-3.859A172.212,172.212,0,0,1,289.142,323.506Zm-67.826-.013a172.244,172.244,0,0,1-5.008-19.388q2.7,1.952,5.466,3.857,7.71,5.285,15.578,9.891A169.119,169.119,0,0,1,221.316,323.493Zm-25.177-57.666q-3.233-3.317-6.2-6.672,2.96-3.349,6.188-6.661-.083,3.306-.084,6.644C196.048,261.378,196.084,263.606,196.139,265.827Zm34.682,28.938c-6.241-4.278-12.182-8.765-17.776-13.394-.655-7.23-1-14.667-1-22.233s.338-14.987.989-22.2c5.619-4.661,11.565-9.166,17.783-13.429a241.834,241.834,0,0,1,24.415-14.737,242.861,242.861,0,0,1,24.429,14.737c6.219,4.264,12.162,8.766,17.777,13.422.654,7.221.994,14.649.994,22.2,0,7.713-.347,15.137-.99,22.228-5.595,4.631-11.539,9.119-17.781,13.4a242.2,242.2,0,0,1-24.41,14.74A243.022,243.022,0,0,1,230.821,294.765ZM221.3,194.755a168.869,168.869,0,0,1,16.059,5.666q-7.849,4.608-15.581,9.893c-1.857,1.273-3.684,2.573-5.5,3.885A171.551,171.551,0,0,1,221.3,194.755Zm67.873.034a172.246,172.246,0,0,1,5.007,19.388q-2.7-1.957-5.467-3.863c-5.138-3.523-10.344-6.819-15.575-9.89A169.02,169.02,0,0,1,289.169,194.789Zm25.176,57.693q3.231,3.315,6.2,6.67-2.964,3.357-6.2,6.675c.055-2.221.091-4.449.091-6.689S314.4,254.691,314.345,252.482ZM342.9,199.05c5.757,8.4,3.072,23.01-7.367,40.086q-2.243,3.667-4.871,7.352A223.154,223.154,0,0,0,312.675,228.9a207.412,207.412,0,0,0-7.875-37.717C323.461,188.182,337.407,191.036,342.9,199.05Zm-59.576-19.224a199.926,199.926,0,0,0-28.082,11.061,204.659,204.659,0,0,0-23.735-9.674,25.412,25.412,0,0,0,28.954-25.189c0-.774-.041-1.538-.108-2.294C268.535,156.467,276.654,165.621,283.324,179.826Zm-48.3-33.24a9.438,9.438,0,1,1-9.437,9.438A9.449,9.449,0,0,1,235.023,146.586Zm-60.072,92.55c-10.439-17.076-13.124-31.687-7.367-40.086,5.564-8.117,19.4-10.953,38.1-7.905A208.042,208.042,0,0,0,197.8,228.91a223.813,223.813,0,0,0-17.981,17.576Q177.2,242.805,174.951,239.136Zm-11.7,36.343a9.438,9.438,0,1,1-9.437,9.438A9.449,9.449,0,0,1,163.248,275.479Zm28.892,52.789c-11.8,0-20.492-3.113-24.556-9.042a17.731,17.731,0,0,1-2.892-8.916,25.406,25.406,0,0,0,23.622-29.7q4.552,4.455,9.5,8.787a207.239,207.239,0,0,0,7.875,37.7A85.655,85.655,0,0,1,192.14,328.268Zm63.1,37.146c-9.847,0-20.022-9.8-28.082-26.964a199.812,199.812,0,0,0,28.082-11.062,199.98,199.98,0,0,0,28.034,11.048C275.2,355.532,264.959,365.414,255.242,365.414Zm49.545-38.285a207.342,207.342,0,0,0,7.885-37.73c3.989-3.489,7.8-7.046,11.4-10.657a25.428,25.428,0,0,0,21.736,31.437,17.783,17.783,0,0,1-2.912,9.047C337.334,327.345,323.491,330.181,304.787,327.129Zm53.4-42.212a9.438,9.438,0,1,1-9.437-9.438A9.448,9.448,0,0,1,358.189,284.917Z"/><path d="M255.242,233.7a25.438,25.438,0,1,0,25.437,25.438A25.466,25.466,0,0,0,255.242,233.7Zm0,34.875a9.438,9.438,0,1,1,9.437-9.437A9.449,9.449,0,0,1,255.242,268.575Z"/></svg>
