<svg height="480pt" viewBox="0 0 480.00012 480" width="480pt" xmlns="http://www.w3.org/2000/svg"><path d="m104 200c-22.089844 0-40 17.910156-40 40s17.910156 40 40 40 40-17.910156 40-40c-.027344-22.082031-17.917969-39.972656-40-40zm0 64c-13.253906 0-24-10.746094-24-24s10.746094-24 24-24 24 10.746094 24 24-10.746094 24-24 24zm0 0"/><path d="m264 112c22.089844 0 40-17.910156 40-40s-17.910156-40-40-40-40 17.910156-40 40c.027344 22.082031 17.917969 39.972656 40 40zm0-64c13.253906 0 24 10.746094 24 24s-10.746094 24-24 24-24-10.746094-24-24 10.746094-24 24-24zm0 0"/><path d="m456 243.390625v-27.390625c-.0625-20.101562-15.0625-37.019531-35.007812-39.496094l-85.425782-96.75c.28125-2.578125.425782-5.164062.433594-7.753906 0-39.765625-32.234375-72-72-72s-72 32.234375-72 72c0 1.273438.128906 2.511719.191406 3.761719l-92.457031 92.453125c-29 1.652344-54.148437 20.613281-63.722656 48.039062-9.574219 27.425782-1.683594 57.917969 19.988281 77.257813v122.488281h-48c-4.417969 0-8 3.582031-8 8v48c0 4.417969 3.582031 8 8 8h304c4.417969 0 8-3.582031 8-8v-48c0-4.417969-3.582031-8-8-8h-160v-122.488281c18.363281-16.164063 27.070312-40.671875 23.023438-64.800781l84.898437-84.917969c1.359375.078125 2.703125.207031 4.078125.207031 4.070312-.023438 8.128906-.394531 12.136719-1.105469l99.863281 78.707031v21.804688c-14.554688 6.355469-23.972656 20.714844-24 36.59375v80c-.015625 2.78125 1.414062 5.367188 3.773438 6.835938 2.363281 1.46875 5.316406 1.605468 7.800781.363281l32-16c2.726562-1.359375 4.441406-4.152344 4.425781-7.199219v-56h32v56c-.015625 3.046875 1.699219 5.839844 4.425781 7.199219l32 16c2.484375 1.242187 5.4375 1.105469 7.800781-.363281 2.359376-1.46875 3.789063-4.054688 3.773438-6.835938v-80c-.019531-15.886719-9.441406-30.253906-24-36.609375zm-192-227.390625c30.929688 0 56 25.070312 56 56s-25.070312 56-56 56-56-25.070312-56-56c.035156-30.914062 25.085938-55.964844 56-56zm40 448h-288v-32h288zm-168-48h-64v-111.601562c20.132812 10.128906 43.867188 10.128906 64 0zm-32-120c-30.929688 0-56-25.070312-56-56s25.070312-56 56-56 56 25.070312 56 56c-.035156 30.914062-25.085938 55.964844-56 56zm65.929688-84.800781c-9.105469-20.683594-27.371094-35.914063-49.355469-41.160157l75.203125-75.199218c7.179687 21.320312 23.878906 38.078125 45.175781 45.328125zm160.925781-112.613281 70.800781 80.191406c-10.964844 4.265625-19.496094 13.144531-23.320312 24.269531l-83.726563-65.976563c16.503906-7.792968 29.453125-21.542968 36.246094-38.484374zm61.144531 117.414062c0-13.253906 10.746094-24 24-24s24 10.746094 24 24v24h-48zm72 131.054688-16-8v-59.054688c0-4.417969-3.582031-8-8-8h-48c-4.417969 0-8 3.582031-8 8v59.054688l-16 8v-67.054688c0-13.253906 10.746094-24 24-24h48c13.253906 0 24 10.746094 24 24zm0 0"/><path d="m96 336c-4.417969 0-8 3.582031-8 8v48c0 4.417969 3.582031 8 8 8s8-3.582031 8-8v-48c0-4.417969-3.582031-8-8-8zm0 0"/><path d="m186.34375 130.34375-32 32c-2.078125 2.007812-2.914062 4.984375-2.179688 7.78125.730469 2.796875 2.914063 4.980469 5.710938 5.710938 2.796875.734374 5.773438-.101563 7.78125-2.179688l32-32c3.03125-3.140625 2.988281-8.128906-.097656-11.214844-3.085938-3.085937-8.074219-3.128906-11.214844-.097656zm0 0"/></svg>